<?xml version="1.0" encoding="UTF-8" standalone="no"?>
<!-- Created with Inkscape (http://www.inkscape.org/) -->

<svg
   xmlns:dc="http://purl.org/dc/elements/1.1/"
   xmlns:cc="http://creativecommons.org/ns#"
   xmlns:rdf="http://www.w3.org/1999/02/22-rdf-syntax-ns#"
   xmlns:svg="http://www.w3.org/2000/svg"
   xmlns="http://www.w3.org/2000/svg"
   xmlns:xlink="http://www.w3.org/1999/xlink"
   xmlns:sodipodi="http://sodipodi.sourceforge.net/DTD/sodipodi-0.dtd"
   xmlns:inkscape="http://www.inkscape.org/namespaces/inkscape"
   width="744.09448819"
   height="1052.3622047"
   id="svg3998"
   version="1.1"
   inkscape:version="0.48.4 r9939"
   sodipodi:docname="drawing02.svg">
  <defs
     id="defs4000" />
  <sodipodi:namedview
     id="base"
     pagecolor="#ffffff"
     bordercolor="#666666"
     borderopacity="1.0"
     inkscape:pageopacity="0.0"
     inkscape:pageshadow="2"
     inkscape:zoom="5.6568543"
     inkscape:cx="175.39581"
     inkscape:cy="909.22759"
     inkscape:document-units="px"
     inkscape:current-layer="layer1"
     showgrid="false"
     inkscape:snap-bbox="true"
     inkscape:snap-bbox-midpoints="true"
     inkscape:snap-global="true"
     inkscape:window-width="1912"
     inkscape:window-height="1155"
     inkscape:window-x="0"
     inkscape:window-y="220"
     inkscape:window-maximized="0">
    <inkscape:grid
       type="xygrid"
       id="grid4006" />
  </sodipodi:namedview>
  <metadata
     id="metadata4003">
    <rdf:RDF>
      <cc:Work
         rdf:about="">
        <dc:format>image/svg+xml</dc:format>
        <dc:type
           rdf:resource="http://purl.org/dc/dcmitype/StillImage" />
        <dc:title></dc:title>
      </cc:Work>
    </rdf:RDF>
  </metadata>
  <g
     inkscape:label="Layer 1"
     inkscape:groupmode="layer"
     id="layer1">
    <g
       id="g12680"
       inkscape:tile-cx="90"
       inkscape:tile-cy="62.362183"
       inkscape:tile-w="20"
       inkscape:tile-h="20"
       inkscape:tile-x0="80"
       inkscape:tile-y0="52.362183"
       transform="translate(20,20)">
      <rect
         inkscape:tile-y0="52.362183"
         inkscape:tile-x0="80"
         inkscape:tile-h="20"
         inkscape:tile-w="20"
         inkscape:tile-cy="62.362183"
         inkscape:tile-cx="90"
         y="52.362183"
         x="80"
         height="20"
         width="20"
         id="rect4780"
         style="fill:none;stroke:#c3cdcd;stroke-width:1;stroke-linejoin:miter;stroke-miterlimit:4;stroke-opacity:1;stroke-dasharray:none;stroke-dashoffset:8" />
      <path
         transform="matrix(0.08729712,0,0,0.10398629,76.31173,60.541236)"
         d="m 171.11985,17.511412 c 0,6.638912 -6.4108,12.020815 -14.31892,12.020815 -7.90811,0 -14.31891,-5.381903 -14.31891,-12.020815 0,-6.638913 6.4108,-12.0208152 14.31891,-12.0208152 7.90812,0 14.31892,5.3819022 14.31892,12.0208152 z"
         sodipodi:ry="12.020815"
         sodipodi:rx="14.318913"
         sodipodi:cy="17.511412"
         sodipodi:cx="156.80093"
         id="path4988-8"
         style="fill:#c3cdcd;fill-opacity:1;stroke:none"
         sodipodi:type="arc" />
    </g>
    <use
       x="0"
       y="0"
       inkscape:tiled-clone-of="#g12680"
       xlink:href="#g12680"
       transform="translate(0,20)"
       id="use16685" />
    <use
       x="0"
       y="0"
       inkscape:tiled-clone-of="#g12680"
       xlink:href="#g12680"
       transform="translate(0,40)"
       id="use16687" />
    <use
       x="0"
       y="0"
       inkscape:tiled-clone-of="#g12680"
       xlink:href="#g12680"
       transform="translate(0,60)"
       id="use16689" />
    <use
       x="0"
       y="0"
       inkscape:tiled-clone-of="#g12680"
       xlink:href="#g12680"
       transform="translate(0,80)"
       id="use16691" />
    <use
       x="0"
       y="0"
       inkscape:tiled-clone-of="#g12680"
       xlink:href="#g12680"
       transform="translate(0,100)"
       id="use16693" />
    <use
       x="0"
       y="0"
       inkscape:tiled-clone-of="#g12680"
       xlink:href="#g12680"
       transform="translate(20,0)"
       id="use16703" />
    <use
       x="0"
       y="0"
       inkscape:tiled-clone-of="#g12680"
       xlink:href="#g12680"
       transform="translate(20,20)"
       id="use16705" />
    <use
       x="0"
       y="0"
       inkscape:tiled-clone-of="#g12680"
       xlink:href="#g12680"
       transform="translate(20,40)"
       id="use16707" />
    <use
       x="0"
       y="0"
       inkscape:tiled-clone-of="#g12680"
       xlink:href="#g12680"
       transform="translate(20,60)"
       id="use16709" />
    <use
       x="0"
       y="0"
       inkscape:tiled-clone-of="#g12680"
       xlink:href="#g12680"
       transform="translate(20,80)"
       id="use16711" />
    <use
       x="0"
       y="0"
       inkscape:tiled-clone-of="#g12680"
       xlink:href="#g12680"
       transform="translate(20,100)"
       id="use16713" />
    <use
       x="0"
       y="0"
       inkscape:tiled-clone-of="#g12680"
       xlink:href="#g12680"
       transform="translate(40,0)"
       id="use16723" />
    <use
       x="0"
       y="0"
       inkscape:tiled-clone-of="#g12680"
       xlink:href="#g12680"
       transform="translate(40,20)"
       id="use16725" />
    <g
       transform="translate(60,60)"
       inkscape:tile-y0="52.362183"
       inkscape:tile-x0="80"
       id="use16727">
      <rect
         style="fill:#c3cdcd;stroke:#c3cdcd;stroke-width:1;stroke-linejoin:miter;stroke-miterlimit:4;stroke-opacity:1;stroke-dasharray:none;stroke-dashoffset:8;fill-opacity:1"
         id="rect16897"
         width="20"
         height="20"
         x="80"
         y="52.362183"
         inkscape:tile-cx="90"
         inkscape:tile-cy="62.362183"
         inkscape:tile-w="20"
         inkscape:tile-h="20"
         inkscape:tile-x0="80"
         inkscape:tile-y0="52.362183" />
      <path
         sodipodi:type="arc"
         style="fill:#c3cdcd;fill-opacity:1;stroke:none"
         id="path16899"
         sodipodi:cx="156.80093"
         sodipodi:cy="17.511412"
         sodipodi:rx="14.318913"
         sodipodi:ry="12.020815"
         d="m 171.11985,17.511412 c 0,6.638912 -6.4108,12.020815 -14.31892,12.020815 -7.90811,0 -14.31891,-5.381903 -14.31891,-12.020815 0,-6.638913 6.4108,-12.0208152 14.31891,-12.0208152 7.90812,0 14.31892,5.3819022 14.31892,12.0208152 z"
         transform="matrix(0.08729712,0,0,0.10398629,76.31173,60.541236)" />
    </g>
    <use
       x="0"
       y="0"
       inkscape:tiled-clone-of="#g12680"
       xlink:href="#g12680"
       transform="translate(40,60)"
       id="use16729" />
    <use
       x="0"
       y="0"
       inkscape:tiled-clone-of="#g12680"
       xlink:href="#g12680"
       transform="translate(40,80)"
       id="use16731" />
    <use
       x="0"
       y="0"
       inkscape:tiled-clone-of="#g12680"
       xlink:href="#g12680"
       transform="translate(40,100)"
       id="use16733" />
    <use
       x="0"
       y="0"
       inkscape:tiled-clone-of="#g12680"
       xlink:href="#g12680"
       transform="translate(60,0)"
       id="use16743" />
    <use
       x="0"
       y="0"
       inkscape:tiled-clone-of="#g12680"
       xlink:href="#g12680"
       transform="translate(60,20)"
       id="use16745" />
    <use
       x="0"
       y="0"
       inkscape:tiled-clone-of="#g12680"
       xlink:href="#g12680"
       transform="translate(60,40)"
       id="use16747" />
    <use
       x="0"
       y="0"
       inkscape:tiled-clone-of="#g12680"
       xlink:href="#g12680"
       transform="translate(60,60)"
       id="use16749" />
    <use
       x="0"
       y="0"
       inkscape:tiled-clone-of="#g12680"
       xlink:href="#g12680"
       transform="translate(60,80)"
       id="use16751" />
    <use
       x="0"
       y="0"
       inkscape:tiled-clone-of="#g12680"
       xlink:href="#g12680"
       transform="translate(60,100)"
       id="use16753" />
    <use
       x="0"
       y="0"
       inkscape:tiled-clone-of="#g12680"
       xlink:href="#g12680"
       transform="translate(80,0)"
       id="use16763" />
    <use
       x="0"
       y="0"
       inkscape:tiled-clone-of="#g12680"
       xlink:href="#g12680"
       transform="translate(80,20)"
       id="use16765" />
    <use
       x="0"
       y="0"
       inkscape:tiled-clone-of="#g12680"
       xlink:href="#g12680"
       transform="translate(80,40)"
       id="use16767" />
    <g
       transform="translate(100,80)"
       inkscape:tile-y0="52.362183"
       inkscape:tile-x0="80"
       id="use16769">
      <rect
         style="fill:#c3cdcd;stroke:#c3cdcd;stroke-width:1;stroke-linejoin:miter;stroke-miterlimit:4;stroke-opacity:1;stroke-dasharray:none;stroke-dashoffset:8;fill-opacity:1"
         id="rect16891"
         width="20"
         height="20"
         x="80"
         y="52.362183"
         inkscape:tile-cx="90"
         inkscape:tile-cy="62.362183"
         inkscape:tile-w="20"
         inkscape:tile-h="20"
         inkscape:tile-x0="80"
         inkscape:tile-y0="52.362183" />
      <path
         sodipodi:type="arc"
         style="fill:#c3cdcd;fill-opacity:1;stroke:none"
         id="path16893"
         sodipodi:cx="156.80093"
         sodipodi:cy="17.511412"
         sodipodi:rx="14.318913"
         sodipodi:ry="12.020815"
         d="m 171.11985,17.511412 c 0,6.638912 -6.4108,12.020815 -14.31892,12.020815 -7.90811,0 -14.31891,-5.381903 -14.31891,-12.020815 0,-6.638913 6.4108,-12.0208152 14.31891,-12.0208152 7.90812,0 14.31892,5.3819022 14.31892,12.0208152 z"
         transform="matrix(0.08729712,0,0,0.10398629,76.31173,60.541236)" />
    </g>
    <use
       x="0"
       y="0"
       inkscape:tiled-clone-of="#g12680"
       xlink:href="#g12680"
       transform="translate(80,80)"
       id="use16771" />
    <use
       x="0"
       y="0"
       inkscape:tiled-clone-of="#g12680"
       xlink:href="#g12680"
       transform="translate(80,100)"
       id="use16773" />
    <use
       x="0"
       y="0"
       inkscape:tiled-clone-of="#g12680"
       xlink:href="#g12680"
       transform="translate(100,0)"
       id="use16783" />
    <use
       x="0"
       y="0"
       inkscape:tiled-clone-of="#g12680"
       xlink:href="#g12680"
       transform="translate(100,20)"
       id="use16785" />
    <use
       x="0"
       y="0"
       inkscape:tiled-clone-of="#g12680"
       xlink:href="#g12680"
       transform="translate(100,40)"
       id="use16787" />
    <use
       x="0"
       y="0"
       inkscape:tiled-clone-of="#g12680"
       xlink:href="#g12680"
       transform="translate(100,60)"
       id="use16789" />
    <use
       x="0"
       y="0"
       inkscape:tiled-clone-of="#g12680"
       xlink:href="#g12680"
       transform="translate(100,80)"
       id="use16791" />
    <use
       x="0"
       y="0"
       inkscape:tiled-clone-of="#g12680"
       xlink:href="#g12680"
       transform="translate(100,100)"
       id="use16793" />
    <use
       x="0"
       y="0"
       inkscape:tiled-clone-of="#g12680"
       xlink:href="#g12680"
       transform="translate(120,0)"
       id="use16803" />
    <use
       x="0"
       y="0"
       inkscape:tiled-clone-of="#g12680"
       xlink:href="#g12680"
       transform="translate(120,20)"
       id="use16805" />
    <g
       transform="translate(140,60)"
       inkscape:tile-y0="52.362183"
       inkscape:tile-x0="80"
       id="use16807">
      <rect
         style="fill:#c3cdcd;stroke:#c3cdcd;stroke-width:1;stroke-linejoin:miter;stroke-miterlimit:4;stroke-opacity:1;stroke-dasharray:none;stroke-dashoffset:8;fill-opacity:1"
         id="rect16885"
         width="20"
         height="20"
         x="80"
         y="52.362183"
         inkscape:tile-cx="90"
         inkscape:tile-cy="62.362183"
         inkscape:tile-w="20"
         inkscape:tile-h="20"
         inkscape:tile-x0="80"
         inkscape:tile-y0="52.362183" />
      <path
         sodipodi:type="arc"
         style="fill:#c3cdcd;fill-opacity:1;stroke:none"
         id="path16887"
         sodipodi:cx="156.80093"
         sodipodi:cy="17.511412"
         sodipodi:rx="14.318913"
         sodipodi:ry="12.020815"
         d="m 171.11985,17.511412 c 0,6.638912 -6.4108,12.020815 -14.31892,12.020815 -7.90811,0 -14.31891,-5.381903 -14.31891,-12.020815 0,-6.638913 6.4108,-12.0208152 14.31891,-12.0208152 7.90812,0 14.31892,5.3819022 14.31892,12.0208152 z"
         transform="matrix(0.08729712,0,0,0.10398629,76.31173,60.541236)" />
    </g>
    <use
       x="0"
       y="0"
       inkscape:tiled-clone-of="#g12680"
       xlink:href="#g12680"
       transform="translate(120,60)"
       id="use16809" />
    <use
       x="0"
       y="0"
       inkscape:tiled-clone-of="#g12680"
       xlink:href="#g12680"
       transform="translate(120,80)"
       id="use16811" />
    <use
       x="0"
       y="0"
       inkscape:tiled-clone-of="#g12680"
       xlink:href="#g12680"
       transform="translate(120,100)"
       id="use16813" />
    <use
       x="0"
       y="0"
       inkscape:tiled-clone-of="#g12680"
       xlink:href="#g12680"
       transform="translate(140,0)"
       id="use16823" />
    <use
       x="0"
       y="0"
       inkscape:tiled-clone-of="#g12680"
       xlink:href="#g12680"
       transform="translate(140,20)"
       id="use16825" />
    <use
       x="0"
       y="0"
       inkscape:tiled-clone-of="#g12680"
       xlink:href="#g12680"
       transform="translate(140,40)"
       id="use16827" />
    <use
       x="0"
       y="0"
       inkscape:tiled-clone-of="#g12680"
       xlink:href="#g12680"
       transform="translate(140,60)"
       id="use16829" />
    <use
       x="0"
       y="0"
       inkscape:tiled-clone-of="#g12680"
       xlink:href="#g12680"
       transform="translate(140,80)"
       id="use16831" />
    <use
       x="0"
       y="0"
       inkscape:tiled-clone-of="#g12680"
       xlink:href="#g12680"
       transform="translate(140,100)"
       id="use16833" />
    <use
       x="0"
       y="0"
       inkscape:tiled-clone-of="#g12680"
       xlink:href="#g12680"
       transform="translate(160,0)"
       id="use16843" />
    <use
       x="0"
       y="0"
       inkscape:tiled-clone-of="#g12680"
       xlink:href="#g12680"
       transform="translate(160,20)"
       id="use16845" />
    <use
       x="0"
       y="0"
       inkscape:tiled-clone-of="#g12680"
       xlink:href="#g12680"
       transform="translate(160,40)"
       id="use16847" />
    <use
       x="0"
       y="0"
       inkscape:tiled-clone-of="#g12680"
       xlink:href="#g12680"
       transform="translate(160,60)"
       id="use16849" />
    <use
       x="0"
       y="0"
       inkscape:tiled-clone-of="#g12680"
       xlink:href="#g12680"
       transform="translate(160,80)"
       id="use16851" />
    <use
       x="0"
       y="0"
       inkscape:tiled-clone-of="#g12680"
       xlink:href="#g12680"
       transform="translate(160,100)"
       id="use16853" />
    <path
       sodipodi:type="arc"
       style="fill:#dc322f;fill-opacity:1;stroke:none"
       id="path4988-81-3"
       sodipodi:cx="156.80093"
       sodipodi:cy="17.511412"
       sodipodi:rx="14.318913"
       sodipodi:ry="12.020815"
       d="m 171.11985,17.511412 a 14.318913,12.020815 0 1 1 -28.63783,0 14.318913,12.020815 0 1 1 28.63783,0 z"
       transform="matrix(0.17459425,0,0,0.20797259,202.62346,118.72029)" />
    <path
       sodipodi:type="arc"
       style="fill:#073642;fill-opacity:1;stroke:none"
       id="path4988"
       sodipodi:cx="156.80093"
       sodipodi:cy="17.511412"
       sodipodi:rx="14.318913"
       sodipodi:ry="12.020815"
       d="m 171.11985,17.511412 a 14.318913,12.020815 0 1 1 -28.63783,0 14.318913,12.020815 0 1 1 28.63783,0 z"
       transform="matrix(0.34918851,0,0,0.41594518,135.24692,135.0784)" />
    <path
       sodipodi:type="arc"
       style="fill:#dc322f;fill-opacity:1;stroke:none"
       id="path4988-81"
       sodipodi:cx="156.80093"
       sodipodi:cy="17.511412"
       sodipodi:rx="14.318913"
       sodipodi:ry="12.020815"
       d="m 171.11985,17.511412 a 14.318913,12.020815 0 1 1 -28.63783,0 14.318913,12.020815 0 1 1 28.63783,0 z"
       transform="matrix(0.17459425,0,0,0.20797259,122.62346,118.72029)" />
  </g>
</svg>
