<?xml version="1.0" encoding="utf-8" standalone="no"?>
<!DOCTYPE svg PUBLIC "-//W3C//DTD SVG 1.1//EN"
  "http://www.w3.org/Graphics/SVG/1.1/DTD/svg11.dtd">
<!-- Created with matplotlib (http://matplotlib.org/) -->
<svg height="237pt" version="1.1" viewBox="0 0 273 237" width="273pt" xmlns="http://www.w3.org/2000/svg" xmlns:xlink="http://www.w3.org/1999/xlink">
 <defs>
  <style type="text/css">
*{stroke-linecap:butt;stroke-linejoin:round;}
  </style>
 </defs>
 <g id="figure_1">
  <g id="patch_1">
   <path d="
M0 237.129
L273.601 237.129
L273.601 0
L0 0
z
" style="fill:#ffffff;"/>
  </g>
  <g id="axes_1">
   <g id="patch_2">
    <path d="
M34.1888 185.807
L257.389 185.807
L257.389 13.0069
L34.1888 13.0069
z
" style="fill:#ffffff;"/>
   </g>
   <g id="line2d_1">
    <path clip-path="url(#p5f4d617a8f)" d="
M34.1901 185.408
L34.3296 156.385
L34.4691 153.327
L34.7481 182.326
L34.8876 180.936
L35.0271 169.522
L35.3061 176.563
L35.4456 175.996
L35.5851 176.548
L35.7246 176.198
L35.8641 171.877
L36.0036 175.532
L36.2826 176.768
L36.4221 176.303
L36.7011 174.698
L36.8406 175.616
L36.9801 175.361
L37.1196 175.435
L37.2591 175.686
L37.3986 175.021
L37.6776 175.414
L38.6541 175.153
L38.7936 175.186
L39.0726 175.084
L40.0491 175.032
L40.4676 174.979
L40.7466 174.971
L43.9551 174.853
L44.5131 174.872
L45.2106 174.855
L48.9771 174.821
L49.5351 174.802
L50.3721 174.773
L51.3486 174.786
L51.7671 174.772
L52.0461 158.192
L52.3251 152.944
L52.6041 151.53
L52.8831 151.25
L53.0226 151.343
L53.1621 151.253
L53.3016 151.328
L53.5806 151.233
L53.7201 151.197
L53.8596 151.279
L53.9991 151.168
L54.1386 151.299
L54.4176 151.241
L56.2311 151.187
L57.2076 151.187
L57.6261 151.209
L57.9051 151.201
L58.0446 151.274
L58.3236 151.22
L69.2046 151.173
L69.4836 135.133
L69.7626 129.389
L70.0416 127.771
L70.3206 127.231
L70.4601 127.217
L70.5996 127.083
L70.7391 127.188
L71.0181 126.977
L71.1576 127.151
L71.2971 127.08
L71.4366 127.136
L71.5761 126.998
L71.8551 127.124
L72.1341 127.073
L72.2736 126.901
L72.4131 127.145
L72.6921 126.963
L72.9711 127.123
L73.1106 127.16
L73.3896 126.993
L73.5291 126.975
L73.6686 127.113
L73.8081 127.035
L74.2266 127.176
L74.3661 127.211
L74.5056 127.122
L74.6451 127.166
L74.7846 127.072
L75.0636 127.157
L75.3426 127.228
L75.7611 127.12
L75.9006 127.296
L76.0401 127.081
L76.3191 127.197
L76.5981 127.149
L76.7376 127.238
L76.8771 127.158
L77.1561 127.154
L77.4351 127.156
L77.7141 127.277
L77.9931 127.131
L78.2721 127.271
L78.5511 127.191
L79.1091 127.116
L79.2486 127.28
L79.5276 127.196
L79.6671 127.356
L79.8066 127.204
L79.9461 127.274
L80.0856 127.213
L80.2251 127.291
L80.5041 127.143
L81.3411 127.235
L81.6201 127.142
L82.8756 127.299
L83.1546 127.146
L83.5731 127.326
L83.9916 127.173
L84.1311 127.335
L84.2706 127.137
L84.5496 127.262
L85.1076 127.245
L86.0841 127.306
L86.2236 127.167
L86.3631 127.266
L86.5026 127.225
L86.6421 127.357
L86.9211 112.622
L87.2001 107.278
L87.4791 104.857
L87.8976 103.822
L88.0371 103.877
L88.1766 103.809
L88.3161 103.976
L88.4556 103.657
L88.5951 103.706
L88.7346 103.627
L89.0136 103.757
L89.1531 103.741
L89.2926 103.906
L89.4321 103.556
L89.7111 103.8
L89.8506 103.611
L90.1296 103.779
L90.4086 104.257
L90.6876 104.848
L90.9666 105.351
L91.5246 106.276
L91.6641 106.291
L92.5011 107.384
L92.7801 107.71
L92.9196 107.563
L93.0591 107.658
L93.3381 108.052
L93.4776 108.032
L93.7566 108.462
L93.8961 108.454
L94.1751 108.615
L94.5936 108.573
L94.8726 109.033
L95.0121 108.851
L95.5701 109.175
L96.2676 109.318
L96.4071 109.185
L96.6861 109.347
L96.9651 109.385
L97.2441 109.384
L97.5231 109.54
L97.8021 109.589
L98.2206 109.474
L98.3601 109.704
L98.4996 109.659
L98.6391 109.759
L98.9181 109.63
L99.0576 109.756
L99.4761 109.575
L99.6156 109.748
L99.8946 109.647
L100.313 109.704
L100.453 109.777
L100.732 109.686
L100.871 109.853
L101.15 109.683
L101.708 109.842
L102.685 109.757
L102.964 109.797
L103.243 109.884
L103.382 109.747
L103.522 109.829
L103.661 109.745
L103.94 109.959
L104.08 109.788
L104.359 90.257
L104.638 83.8496
L104.917 81.259
L105.196 79.8336
L105.475 79.5147
L105.893 78.8031
L106.312 78.9451
L106.591 78.5701
L106.87 78.8838
L107.009 78.5214
L107.428 78.7536
L107.707 78.7424
L107.846 79.006
L107.986 78.6938
L108.125 78.8193
L108.404 78.5433
L108.544 78.7076
L108.683 78.5823
L108.823 78.7299
L109.381 78.6934
L109.66 78.8822
L109.799 78.5086
L109.939 78.8728
L110.078 78.9062
L110.218 78.6116
L110.497 78.8375
L110.776 78.6888
L111.055 79.0262
L111.334 78.636
L111.473 78.7609
L111.613 78.5422
L111.892 78.698
L112.031 78.5885
L112.171 78.8115
L112.45 78.726
L112.589 78.899
L113.287 78.5759
L113.426 78.6857
L113.566 78.6437
L113.705 78.9389
L113.984 78.7361
L114.124 78.812
L114.263 78.5237
L114.542 78.7711
L114.682 78.6836
L115.1 79.024
L115.658 78.68
L115.798 78.6932
L115.937 78.8413
L116.077 78.6484
L116.356 78.7385
L116.495 78.5215
L116.635 78.5534
L116.774 78.7756
L116.914 78.7
L117.053 78.9512
L117.193 78.8024
L117.332 78.8493
L117.472 78.6419
L117.611 78.8626
L117.89 78.5718
L118.169 78.775
L118.448 78.5375
L118.588 78.8102
L118.727 78.7613
L118.867 78.5315
L119.006 78.7759
L119.425 78.6723
L119.704 78.7621
L119.983 78.7604
L120.262 78.844
L120.541 78.6293
L120.68 78.7493
L120.82 78.582
L121.099 78.7619
L121.378 78.7932
L121.517 78.8458
L121.796 62.5811
L122.075 57.5932
L122.354 55.7238
L122.494 55.2274
L122.633 55.2355
L122.773 54.8429
L122.912 54.8882
L123.331 54.2801
L123.47 54.4423
L123.749 54.4042
L123.889 54.5986
L124.028 54.4543
L124.168 54.5046
L124.307 54.6736
L124.586 54.2649
L124.726 54.6931
L124.865 54.485
L125.005 54.4989
L125.144 54.6844
L125.842 54.3737
L126.121 54.4862
L126.26 54.1969
L126.4 54.4983
L126.679 54.3247
L126.818 54.4509
L126.958 54.2322
L127.097 54.6188
L127.237 54.6664
L127.376 54.4413
L127.516 54.6943
L127.655 54.4646
L128.213 54.7259
L128.353 54.6587
L128.632 54.774
L128.771 54.5116
L129.05 54.5328
L129.329 54.3099
L129.469 54.5291
L130.027 54.27
L130.445 54.5109
L130.724 54.4743
L130.864 54.3682
L131.003 54.6622
L131.143 54.4259
L131.422 54.7641
L131.701 54.396
L131.84 54.7517
L131.98 54.4568
L132.259 54.757
L132.398 54.4333
L132.538 54.5836
L132.677 54.5387
L132.817 54.7035
L133.514 54.5172
L133.654 54.5851
L133.793 54.3468
L133.933 54.5565
L134.072 54.3666
L134.491 54.4991
L134.63 54.1794
L134.909 54.6516
L135.049 54.6281
L135.188 54.0563
L135.467 54.7858
L135.607 54.4634
L135.886 54.615
L136.025 54.4729
L136.165 54.6903
L136.304 54.5897
L136.583 54.6695
L136.723 54.3603
L137.002 54.3789
L137.281 54.6741
L137.42 54.5265
L137.56 54.5613
L137.699 54.4701
L137.839 54.5326
L138.118 54.2151
L138.257 54.3235
L138.397 54.6085
L138.676 54.4683
L138.955 54.3967
L139.234 37.157
L139.513 32.8115
L139.792 31.0612
L139.931 30.7308
L140.071 30.8011
L140.21 30.6924
L140.35 30.2464
L140.489 30.4953
L140.629 30.1839
L140.768 30.5513
L141.047 30.1118
L141.187 29.9366
L141.326 30.4377
L141.605 30.3391
L141.745 30.5775
L141.884 30.1156
L142.024 30.1661
L142.163 30.7209
L142.303 30.115
L142.442 30.4185
L142.582 30.2471
L142.721 30.393
L143.419 29.875
L143.558 30.1945
L143.698 30.2095
L143.837 30.3874
L143.977 30.0225
L144.116 30.0797
L144.256 29.8457
L144.395 30.1291
L144.535 29.9838
L144.674 30.3751
L144.814 29.9898
L144.953 30.1465
L145.093 30.0331
L145.372 30.4742
L145.511 29.9947
L145.79 30.2858
L146.069 30.1325
L146.209 30.6072
L146.348 30.1161
L146.767 30.0856
L147.046 30.3002
L147.185 29.96
L147.325 30.2806
L147.604 30.101
L148.022 30.486
L148.162 30.0104
L148.58 30.484
L148.72 29.995
L148.859 30.2619
L148.999 30.1093
L149.138 30.1751
L149.278 30.0008
L149.417 30.0766
L149.557 30.4983
L149.975 30.189
L150.394 30.3575
L150.952 30.1078
L151.091 29.8619
L151.231 30.1567
L151.37 30.0793
L151.649 30.1608
L151.789 30.0829
L151.928 30.2473
L152.068 30.0818
L152.207 30.3025
L152.347 30.1613
L152.626 30.448
L152.765 30.06
L152.905 30.0173
L153.044 30.276
L153.184 30.1305
L153.323 30.2339
L153.463 30.1516
L153.742 30.3558
L153.881 30.0462
L154.021 30.1154
L154.16 30.3454
L154.3 30.2558
L154.439 30.3095
L154.579 30.0759
L154.718 30.3714
L154.858 30.1256
L154.997 30.2969
L155.416 30.229
L155.695 30.4509
L155.834 29.9923
L156.253 30.4862
L156.392 30.2455
L156.671 47.6988
L156.95 52.1881
L157.229 53.3689
L157.508 54.2018
L157.927 54.3858
L158.206 54.6165
L158.345 54.3184
L158.624 54.378
L158.764 54.6003
L158.903 54.4471
L159.043 54.4971
L159.182 54.3524
L159.322 54.3694
L159.601 54.6257
L159.74 54.5136
L159.88 54.2363
L160.019 54.2925
L160.159 54.6146
L160.438 54.1172
L160.577 54.3626
L160.717 54.38
L160.856 54.575
L161.135 54.3331
L161.414 54.318
L161.554 54.6255
L161.833 54.2684
L161.972 54.6031
L162.251 54.3032
L162.391 54.4172
L162.53 54.1223
L162.67 54.58
L162.809 54.2109
L162.949 54.6037
L163.228 54.2888
L163.507 54.6192
L163.786 54.3105
L163.925 54.3726
L164.065 54.2311
L164.204 54.3566
L164.344 54.2882
L164.623 54.5253
L164.762 54.3211
L165.599 54.4878
L165.878 54.0678
L166.018 54.6175
L166.157 54.334
L166.297 54.5533
L166.576 54.4842
L166.715 54.4615
L166.855 54.3008
L167.273 54.4593
L167.413 53.8716
L167.692 54.4222
L167.831 54.2471
L167.971 54.3475
L168.11 54.6211
L168.389 54.2507
L168.529 54.5873
L168.668 54.1643
L168.808 54.2974
L169.087 54.2005
L169.226 54.2712
L169.505 54.6243
L169.784 54.1356
L170.342 54.7578
L170.482 54.3505
L170.621 54.301
L170.761 54.736
L170.9 54.5275
L171.179 54.5547
L171.319 54.4887
L171.458 54.248
L171.598 54.506
L171.877 54.4613
L172.156 54.3846
L172.295 54.209
L172.435 54.4574
L172.574 54.2759
L172.714 54.5414
L172.853 54.4876
L172.993 54.2675
L173.272 54.5229
L173.411 54.3537
L173.551 54.4634
L173.83 54.1751
L174.109 71.2495
L174.388 75.5995
L174.667 77.3595
L174.946 77.8691
L175.225 78.4827
L175.364 78.2842
L175.643 78.7282
L175.783 78.4586
L176.062 78.6917
L176.201 78.7456
L176.48 78.5985
L176.759 78.5768
L176.899 78.7545
L177.038 78.3823
L177.317 78.7183
L177.457 78.6763
L177.596 78.4035
L177.736 78.669
L178.015 78.7707
L178.154 78.5151
L178.294 78.7252
L178.712 78.7276
L178.991 78.3825
L179.131 78.8096
L179.27 78.4488
L179.41 78.4882
L179.549 78.7481
L179.689 78.6697
L179.828 78.8789
L179.968 78.5728
L180.107 78.878
L180.247 78.7954
L180.526 78.4238
L180.665 78.4725
L180.805 78.7318
L180.944 78.4787
L181.084 78.7895
L181.223 78.4987
L181.363 78.7858
L181.642 78.7778
L181.781 78.5172
L182.06 78.6637
L182.339 78.4691
L182.618 78.7618
L182.758 78.6517
L182.897 78.8539
L183.037 78.6255
L183.316 78.6955
L183.734 78.518
L183.874 78.7676
L184.013 78.4741
L184.153 78.7699
L184.432 78.5689
L185.548 78.8261
L185.687 78.478
L185.827 78.9661
L186.106 78.6808
L186.524 78.5813
L186.664 78.83
L186.803 78.8472
L186.943 78.7153
L187.361 78.9417
L187.501 78.6073
L187.78 78.5852
L188.059 78.7972
L188.198 78.6733
L188.477 78.9349
L188.617 78.4506
L188.896 78.6657
L189.175 78.5624
L189.314 78.7153
L189.454 78.5325
L189.593 78.7126
L189.733 78.4608
L190.151 78.7324
L190.291 78.5179
L190.43 78.7442
L190.709 78.6996
L190.849 78.8115
L191.128 78.6515
L191.267 78.7991
L191.546 94.5443
L191.825 99.0208
L192.244 101.706
L192.662 102.259
L192.802 102.187
L193.081 102.583
L193.22 102.604
L193.36 102.781
L193.778 102.552
L193.918 102.902
L194.197 102.724
L194.615 102.752
L194.894 102.95
L195.034 103.118
L195.173 102.81
L195.313 102.926
L195.731 102.577
L196.01 102.838
L196.429 102.787
L196.568 102.687
L196.708 102.948
L196.847 102.653
L197.126 102.722
L197.266 102.602
L197.405 102.812
L197.545 102.784
L197.684 102.906
L197.824 102.689
L198.103 102.649
L198.382 102.606
L198.521 102.469
L198.661 102.714
L199.358 102.683
L199.498 102.651
L199.777 102.735
L200.195 102.776
L200.474 102.545
L200.614 102.685
L200.753 102.645
L200.893 102.813
L201.311 102.702
L201.59 102.671
L201.73 102.842
L201.869 102.552
L202.009 102.82
L202.427 102.44
L202.706 102.823
L202.985 102.77
L203.264 102.658
L203.404 102.828
L203.543 102.67
L203.683 102.927
L203.962 102.542
L204.38 102.834
L204.52 102.732
L204.799 102.821
L204.938 102.843
L205.217 102.685
L205.496 102.76
L205.636 102.886
L205.775 102.772
L205.915 102.857
L206.054 102.774
L206.194 102.828
L206.473 102.591
L206.612 102.858
L206.752 102.679
L207.031 102.757
L207.17 102.636
L207.449 102.644
L207.589 102.535
L208.147 102.742
L208.426 102.661
L208.565 102.802
L208.705 102.679
L208.984 118.293
L209.263 123.231
L209.542 125.289
L209.96 126.152
L210.1 126.226
L210.239 126.482
L210.379 126.426
L210.518 126.697
L210.658 126.565
L210.797 126.839
L210.937 126.66
L211.076 126.795
L211.355 126.753
L212.192 126.888
L212.332 126.87
L212.611 126.605
L212.75 126.713
L212.89 126.467
L213.308 126.454
L213.587 126.25
L213.727 126.351
L214.006 126.221
L214.145 125.99
L214.424 126.08
L214.564 126.108
L214.703 125.986
L214.843 126.081
L214.982 125.919
L215.122 126.019
L215.401 125.809
L215.54 125.904
L215.68 125.853
L215.819 125.618
L216.098 125.765
L216.238 125.839
L216.377 125.728
L216.517 125.845
L216.796 125.6
L217.214 125.602
L217.493 125.596
L217.912 125.616
L218.051 125.486
L218.47 125.568
L218.609 125.502
L218.749 125.581
L218.888 125.377
L219.167 125.542
L219.446 125.383
L220.144 125.415
L220.283 125.223
L220.841 125.374
L221.26 125.093
L221.399 125.286
L221.957 125.156
L222.097 125.357
L222.236 125.168
L222.655 125.3
L222.794 125.091
L222.934 125.264
L223.213 125.107
L223.352 125.069
L223.492 125.148
L223.771 125.024
L223.91 125.205
L224.05 125.042
L224.189 125.161
L224.468 125.085
L224.608 125.197
L225.166 124.964
L225.445 125.084
L226.142 125.026
L226.421 142.215
L226.7 148.171
L226.979 150.2
L227.258 150.808
L227.677 151.032
L227.816 151.113
L227.956 150.973
L228.095 151.162
L228.793 151.151
L229.072 151.158
L229.351 151.142
L229.63 151.175
L230.048 151.05
L230.188 151.095
L230.467 150.935
L230.606 151.024
L230.885 150.896
L231.862 150.758
L232.42 150.642
L237.163 150.174
L237.302 150.101
L237.442 150.185
L237.581 150.036
L238.279 150.035
L238.697 149.982
L238.976 149.902
L239.395 149.921
L240.371 149.942
L240.511 149.797
L240.79 149.883
L241.069 149.882
L241.627 149.819
L241.766 149.736
L242.045 149.808
L242.185 149.705
L242.603 149.793
L242.882 149.666
L243.301 149.717
L243.44 149.624
L243.58 149.685
L243.859 168.122
L244.138 173.708
L244.417 175.052
L244.696 175.339
L245.533 175.433
L256.135 175.369
L256.693 175.365
L257.251 175.365
L257.251 175.365" style="fill:none;stroke:#0000ff;stroke-linecap:square;"/>
   </g>
   <g id="matplotlib.axis_1">
    <g id="xtick_1">
     <g id="line2d_2">
      <defs>
       <path d="
M0 0
L0 -4" id="m93b0483c22" style="stroke:#000000;stroke-width:0.5;"/>
      </defs>
      <g>
       <use style="stroke:#000000;stroke-width:0.5;" x="34.18875" xlink:href="#m93b0483c22" y="185.806875"/>
      </g>
     </g>
     <g id="line2d_3">
      <defs>
       <path d="
M0 0
L0 4" id="m741efc42ff" style="stroke:#000000;stroke-width:0.5;"/>
      </defs>
      <g>
       <use style="stroke:#000000;stroke-width:0.5;" x="34.18875" xlink:href="#m741efc42ff" y="13.006875"/>
      </g>
     </g>
     <g id="text_1">
      <text style="font-family:DejaVu Sans;font-size:12.0px;font-style:normal;" transform="translate(36.2662306635 198.607661236)rotate(-70.0)">0</text>
     </g>
    </g>
    <g id="xtick_2">
     <g id="line2d_4">
      <g>
       <use style="stroke:#000000;stroke-width:0.5;" x="62.08875" xlink:href="#m93b0483c22" y="185.806875"/>
      </g>
     </g>
     <g id="line2d_5">
      <g>
       <use style="stroke:#000000;stroke-width:0.5;" x="62.08875" xlink:href="#m741efc42ff" y="13.006875"/>
      </g>
     </g>
     <g id="text_2">
      <text style="font-family:DejaVu Sans;font-size:12.0px;font-style:normal;" transform="translate(62.8756390289 205.699403983)rotate(-70.0)">20</text>
     </g>
    </g>
    <g id="xtick_3">
     <g id="line2d_6">
      <g>
       <use style="stroke:#000000;stroke-width:0.5;" x="89.98875" xlink:href="#m93b0483c22" y="185.806875"/>
      </g>
     </g>
     <g id="line2d_7">
      <g>
       <use style="stroke:#000000;stroke-width:0.5;" x="89.98875" xlink:href="#m741efc42ff" y="13.006875"/>
      </g>
     </g>
     <g id="text_3">
      <text style="font-family:DejaVu Sans;font-size:12.0px;font-style:normal;" transform="translate(90.7256185829 205.974264075)rotate(-70.0)">40</text>
     </g>
    </g>
    <g id="xtick_4">
     <g id="line2d_8">
      <g>
       <use style="stroke:#000000;stroke-width:0.5;" x="117.88875" xlink:href="#m93b0483c22" y="185.806875"/>
      </g>
     </g>
     <g id="line2d_9">
      <g>
       <use style="stroke:#000000;stroke-width:0.5;" x="117.88875" xlink:href="#m741efc42ff" y="13.006875"/>
      </g>
     </g>
     <g id="text_4">
      <text style="font-family:DejaVu Sans;font-size:12.0px;font-style:normal;" transform="translate(118.668584863 205.738166304)rotate(-70.0)">60</text>
     </g>
    </g>
    <g id="xtick_5">
     <g id="line2d_10">
      <g>
       <use style="stroke:#000000;stroke-width:0.5;" x="145.78875" xlink:href="#m93b0483c22" y="185.806875"/>
      </g>
     </g>
     <g id="line2d_11">
      <g>
       <use style="stroke:#000000;stroke-width:0.5;" x="145.78875" xlink:href="#m741efc42ff" y="13.006875"/>
      </g>
     </g>
     <g id="text_5">
      <text style="font-family:DejaVu Sans;font-size:12.0px;font-style:normal;" transform="translate(146.564416493 205.761071311)rotate(-70.0)">80</text>
     </g>
    </g>
    <g id="xtick_6">
     <g id="line2d_12">
      <g>
       <use style="stroke:#000000;stroke-width:0.5;" x="173.68875" xlink:href="#m93b0483c22" y="185.806875"/>
      </g>
     </g>
     <g id="line2d_13">
      <g>
       <use style="stroke:#000000;stroke-width:0.5;" x="173.68875" xlink:href="#m741efc42ff" y="13.006875"/>
      </g>
     </g>
     <g id="text_6">
      <text style="font-family:DejaVu Sans;font-size:12.0px;font-style:normal;" transform="translate(173.245007801 212.461667006)rotate(-70.0)">100</text>
     </g>
    </g>
    <g id="xtick_7">
     <g id="line2d_14">
      <g>
       <use style="stroke:#000000;stroke-width:0.5;" x="201.58875" xlink:href="#m93b0483c22" y="185.806875"/>
      </g>
     </g>
     <g id="line2d_15">
      <g>
       <use style="stroke:#000000;stroke-width:0.5;" x="201.58875" xlink:href="#m741efc42ff" y="13.006875"/>
      </g>
     </g>
     <g id="text_7">
      <text style="font-family:DejaVu Sans;font-size:12.0px;font-style:normal;" transform="translate(201.145007801 212.461667006)rotate(-70.0)">120</text>
     </g>
    </g>
    <g id="xtick_8">
     <g id="line2d_16">
      <g>
       <use style="stroke:#000000;stroke-width:0.5;" x="229.48875" xlink:href="#m93b0483c22" y="185.806875"/>
      </g>
     </g>
     <g id="line2d_17">
      <g>
       <use style="stroke:#000000;stroke-width:0.5;" x="229.48875" xlink:href="#m741efc42ff" y="13.006875"/>
      </g>
     </g>
     <g id="text_8">
      <text style="font-family:DejaVu Sans;font-size:12.0px;font-style:normal;" transform="translate(229.045007801 212.461667006)rotate(-70.0)">140</text>
     </g>
    </g>
    <g id="xtick_9">
     <g id="line2d_18">
      <g>
       <use style="stroke:#000000;stroke-width:0.5;" x="257.38875" xlink:href="#m93b0483c22" y="185.806875"/>
      </g>
     </g>
     <g id="line2d_19">
      <g>
       <use style="stroke:#000000;stroke-width:0.5;" x="257.38875" xlink:href="#m741efc42ff" y="13.006875"/>
      </g>
     </g>
     <g id="text_9">
      <text style="font-family:DejaVu Sans;font-size:12.0px;font-style:normal;" transform="translate(256.945007801 212.461667006)rotate(-70.0)">160</text>
     </g>
    </g>
    <g id="text_10">
     <text style="font-family:DejaVu Sans;font-size:12.0px;font-style:normal;text-anchor:middle;" transform="rotate(-0.000000, 145.788750, 227.433346)" x="145.78875" y="227.433346026">Timesteps [1000]</text>
    </g>
   </g>
   <g id="matplotlib.axis_2">
    <g id="ytick_1">
     <g id="line2d_20">
      <defs>
       <path d="
M0 0
L4 0" id="m728421d6d4" style="stroke:#000000;stroke-width:0.5;"/>
      </defs>
      <g>
       <use style="stroke:#000000;stroke-width:0.5;" x="34.18875" xlink:href="#m728421d6d4" y="185.806875"/>
      </g>
     </g>
     <g id="line2d_21">
      <defs>
       <path d="
M0 0
L-4 0" id="mcb0005524f" style="stroke:#000000;stroke-width:0.5;"/>
      </defs>
      <g>
       <use style="stroke:#000000;stroke-width:0.5;" x="257.38875" xlink:href="#mcb0005524f" y="185.806875"/>
      </g>
     </g>
     <g id="text_11">
      <text style="font-family:DejaVu Sans;font-size:12.0px;font-style:normal;text-anchor:end;" transform="rotate(-0.000000, 30.188750, 189.118125)" x="30.18875" y="189.118125">0</text>
     </g>
    </g>
    <g id="ytick_2">
     <g id="line2d_22">
      <g>
       <use style="stroke:#000000;stroke-width:0.5;" x="34.18875" xlink:href="#m728421d6d4" y="151.246875"/>
      </g>
     </g>
     <g id="line2d_23">
      <g>
       <use style="stroke:#000000;stroke-width:0.5;" x="257.38875" xlink:href="#mcb0005524f" y="151.246875"/>
      </g>
     </g>
     <g id="text_12">
      <text style="font-family:DejaVu Sans;font-size:12.0px;font-style:normal;text-anchor:end;" transform="rotate(-0.000000, 30.188750, 154.558125)" x="30.18875" y="154.558125">1</text>
     </g>
    </g>
    <g id="ytick_3">
     <g id="line2d_24">
      <g>
       <use style="stroke:#000000;stroke-width:0.5;" x="34.18875" xlink:href="#m728421d6d4" y="116.686875"/>
      </g>
     </g>
     <g id="line2d_25">
      <g>
       <use style="stroke:#000000;stroke-width:0.5;" x="257.38875" xlink:href="#mcb0005524f" y="116.686875"/>
      </g>
     </g>
     <g id="text_13">
      <text style="font-family:DejaVu Sans;font-size:12.0px;font-style:normal;text-anchor:end;" transform="rotate(-0.000000, 30.188750, 119.998125)" x="30.18875" y="119.998125">2</text>
     </g>
    </g>
    <g id="ytick_4">
     <g id="line2d_26">
      <g>
       <use style="stroke:#000000;stroke-width:0.5;" x="34.18875" xlink:href="#m728421d6d4" y="82.126875"/>
      </g>
     </g>
     <g id="line2d_27">
      <g>
       <use style="stroke:#000000;stroke-width:0.5;" x="257.38875" xlink:href="#mcb0005524f" y="82.126875"/>
      </g>
     </g>
     <g id="text_14">
      <text style="font-family:DejaVu Sans;font-size:12.0px;font-style:normal;text-anchor:end;" transform="rotate(-0.000000, 30.188750, 85.438125)" x="30.18875" y="85.438125">3</text>
     </g>
    </g>
    <g id="ytick_5">
     <g id="line2d_28">
      <g>
       <use style="stroke:#000000;stroke-width:0.5;" x="34.18875" xlink:href="#m728421d6d4" y="47.566875"/>
      </g>
     </g>
     <g id="line2d_29">
      <g>
       <use style="stroke:#000000;stroke-width:0.5;" x="257.38875" xlink:href="#mcb0005524f" y="47.566875"/>
      </g>
     </g>
     <g id="text_15">
      <text style="font-family:DejaVu Sans;font-size:12.0px;font-style:normal;text-anchor:end;" transform="rotate(-0.000000, 30.188750, 50.878125)" x="30.18875" y="50.878125">4</text>
     </g>
    </g>
    <g id="ytick_6">
     <g id="line2d_30">
      <g>
       <use style="stroke:#000000;stroke-width:0.5;" x="34.18875" xlink:href="#m728421d6d4" y="13.006875"/>
      </g>
     </g>
     <g id="line2d_31">
      <g>
       <use style="stroke:#000000;stroke-width:0.5;" x="257.38875" xlink:href="#mcb0005524f" y="13.006875"/>
      </g>
     </g>
     <g id="text_16">
      <text style="font-family:DejaVu Sans;font-size:12.0px;font-style:normal;text-anchor:end;" transform="rotate(-0.000000, 30.188750, 16.318125)" x="30.18875" y="16.318125">5</text>
     </g>
    </g>
    <g id="text_17">
     <text style="font-family:DejaVu Sans;font-size:12.0px;font-style:normal;text-anchor:middle;" transform="rotate(-90.000000, 16.318125, 99.406875)" x="16.318125" y="99.406875">Temperature [kK]</text>
    </g>
   </g>
   <g id="patch_3">
    <path d="
M34.1888 13.0069
L257.389 13.0069" style="fill:none;stroke:#000000;"/>
   </g>
   <g id="patch_4">
    <path d="
M257.389 185.807
L257.389 13.0069" style="fill:none;stroke:#000000;"/>
   </g>
   <g id="patch_5">
    <path d="
M34.1888 185.807
L257.389 185.807" style="fill:none;stroke:#000000;"/>
   </g>
   <g id="patch_6">
    <path d="
M34.1888 185.807
L34.1888 13.0069" style="fill:none;stroke:#000000;"/>
   </g>
  </g>
 </g>
 <defs>
  <clipPath id="p5f4d617a8f">
   <rect height="172.8" width="223.2" x="34.18875" y="13.006875"/>
  </clipPath>
 </defs>
</svg>
