<?xml version="1.0" encoding="utf-8" standalone="no"?>
<!DOCTYPE svg PUBLIC "-//W3C//DTD SVG 1.1//EN"
  "http://www.w3.org/Graphics/SVG/1.1/DTD/svg11.dtd">
<!-- Created with matplotlib (http://matplotlib.org/) -->
<svg height="196pt" version="1.1" viewBox="0 0 229 196" width="229pt" xmlns="http://www.w3.org/2000/svg" xmlns:xlink="http://www.w3.org/1999/xlink">
 <defs>
  <style type="text/css">
*{stroke-linecap:butt;stroke-linejoin:round;}
  </style>
 </defs>
 <g id="figure_1">
  <g id="patch_1">
   <path d="
M-1.77636e-15 196.986
L229.031 196.986
L229.031 0
L-1.77636e-15 0
z
" style="fill:#ffffff;"/>
  </g>
  <g id="axes_1">
   <g id="patch_2">
    <path d="
M43.2713 157.558
L221.831 157.558
L221.831 19.3181
L43.2713 19.3181
z
" style="fill:#ffffff;"/>
   </g>
   <g id="line2d_1">
    <path clip-path="url(#pfa298b01bd)" d="
M47.6944 99.5482
L47.8645 103.4
L48.0346 99.4239
L48.2046 100.004
L48.3747 123.073
L48.5447 106.796
L48.7148 110.358
L48.8848 110.192
L49.225 114.955
L49.395 115.452
L49.7351 111.725
L50.2453 99.8795
L50.4154 100.625
L50.9255 119.221
L51.0956 115.079
L51.2656 120.878
L51.4357 121.209
L51.6058 115.038
L51.7758 118.227
L51.9459 116.239
L52.1159 117.15
L52.456 109.033
L52.6261 97.3117
L52.7962 105.057
L52.9662 94.7024
L53.1363 93.3357
L53.3063 100.708
L53.4764 117.026
L53.6464 119.055
L53.8165 119.552
L53.9866 122.7
L54.1566 114.872
L54.4967 125.351
L54.6668 100.791
L54.8368 94.7853
L55.0069 101.702
L55.177 118.144
L55.347 116.943
L55.5171 121.54
L55.6871 118.02
L55.8572 119.18
L56.3674 136.326
L56.7075 120.836
L57.0476 126.469
L57.2176 111.435
L57.3877 115.866
L57.5578 108.66
L57.7278 112.056
L57.8979 118.641
L58.0679 116.446
L58.408 104.311
L58.5781 101.826
L58.7482 93.5428
L58.9182 118.061
L59.0883 107.79
L59.2583 110.399
L59.4284 122.617
L59.5984 104.353
L59.7685 119.387
L59.9386 123.239
L60.1086 122.162
L60.4487 107.459
L60.6188 102.365
L60.7888 93.667
L60.9589 107.21
L61.129 109.405
L61.299 117.979
L61.4691 115.204
L61.6391 108.329
L61.8092 96.0692
L61.9792 97.1874
L62.1493 114.044
L62.3194 109.695
L62.4894 109.24
L62.6595 106.838
L62.9996 94.5368
L63.3397 105.139
L63.6798 94.6196
L63.8499 111.808
L64.0199 109.778
L64.19 96.8975
L64.36 106.838
L64.5301 96.3591
L64.7002 109.861
L64.8702 100.749
L65.0403 97.7259
L65.2103 100.501
L65.3804 96.6904
L65.8906 125.972
L66.0606 121.416
L66.2307 108.411
L66.4007 114.831
L66.5708 126.925
L66.7408 126.925
L67.081 105.388
L67.251 106.465
L67.4211 101.702
L67.7612 115.245
L67.9312 109.447
L68.1013 109.902
L68.2714 108.329
L68.4414 99.7139
L68.6115 99.5482
L68.7815 101.081
L68.9516 90.4365
L69.1216 96.5662
L69.2917 88.3657
L69.8019 109.612
L69.9719 109.902
L70.142 119.47
L70.312 113.381
L70.6522 93.5014
L70.8222 99.0098
L70.9923 95.4479
L71.1623 115.701
L72.1827 91.7204
L72.3527 103.731
L72.5228 104.228
L72.6928 96.3177
L72.8629 112.429
L73.033 96.6904
L73.203 102.986
L73.3731 103.897
L73.5431 93.7913
L73.7132 106.713
L73.8832 102.779
L74.0533 103.441
L74.3934 87.4959
L74.5635 94.4125
L74.7335 93.667
L74.9036 99.1754
L75.0736 100.045
L75.2437 95.4894
L75.4138 103.648
L75.5838 96.2763
L75.7539 95.7793
L75.9239 98.4299
L76.094 95.6964
L76.264 111.186
L76.4341 93.9569
L76.6042 88.697
L76.9443 104.021
L77.1143 98.2643
L77.2844 96.9389
L77.4544 93.4185
L77.6245 106.838
L77.7946 107.086
L77.9646 101.66
L78.1347 109.447
L78.3047 103.856
L78.4748 113.464
L78.6448 114.251
L78.8149 105.347
L78.985 111.228
L79.155 125.972
L79.6652 91.0992
L79.8352 91.3063
L80.0053 87.8273
L80.1754 111.973
L80.3454 107.666
L80.5155 111.559
L80.6855 105.057
L80.8556 112.884
L81.0256 103.773
L81.1957 106.63
L81.3658 98.7613
L81.5358 101.743
L81.7059 91.2649
L81.8759 89.0698
L82.216 74.781
L82.3861 77.8459
L82.5562 76.0235
L82.7262 84.1412
L82.8963 81.8633
L83.0663 93.2943
L83.2364 95.5308
L83.4064 92.176
L83.5765 77.5145
L83.7466 99.134
L83.9166 95.9864
L84.0867 99.3411
L84.4268 83.727
L84.7669 90.2294
L84.937 85.8393
L85.2771 97.146
L85.4471 102.199
L85.6172 90.8093
L85.7872 89.5668
L86.1274 100.335
L86.2974 87.9929
L86.6375 110.524
L86.9776 97.4774
L87.1477 108.329
L87.3178 96.7319
L87.4878 93.7913
L87.6579 88.6142
L87.8279 103.731
L87.998 107.914
L88.168 90.685
L88.3381 99.9624
L88.5082 118.144
L88.8483 95.7379
L89.1884 108.287
L89.3584 104.104
L89.5285 95.0338
L89.6986 100.584
L89.8686 99.6724
L90.0387 106.755
L90.3788 93.2943
L90.5488 92.3003
L90.889 105.222
L91.059 92.5074
L91.2291 115.576
L91.5692 104.104
L91.9093 84.5968
L92.2494 101.246
L92.4195 100.294
L92.5895 92.2589
L92.7596 91.2649
L92.9296 93.0458
L93.2698 101.163
L93.6099 77.5974
L93.7799 78.8813
L93.95 72.9173
L94.12 89.6082
L94.2901 87.4959
L94.4602 95.158
L94.6302 95.4479
L94.8003 91.0164
L95.1404 76.8933
L95.3104 79.254
L95.4805 83.4785
L95.8206 75.6094
L96.1607 81.1178
L96.3308 90.7264
L96.5008 92.6316
L96.6709 85.5079
L96.841 86.3777
L97.011 112.429
L97.1811 108.37
L97.3511 97.643
L97.5212 95.8207
L97.6912 82.733
L97.8613 96.6904
L98.0314 92.7559
L98.2014 80.4965
L98.3715 76.5205
L98.5415 85.3423
L98.7116 82.8573
L98.8816 88.3657
L99.0517 101.039
L99.2218 98.0158
L99.3918 91.2234
L99.5619 72.5859
L99.7319 94.4125
L99.902 84.1826
L100.072 104.974
L100.242 104.27
L100.412 93.3771
L100.582 92.0518
L100.752 96.9389
L101.092 115.949
L101.432 108.784
L101.603 93.4185
L101.773 102.737
L102.113 96.6076
L102.283 95.9864
L102.453 84.8039
L102.623 96.4419
L102.793 95.4894
L102.963 95.9035
L103.133 112.346
L103.303 99.5896
L103.473 98.4714
L103.643 109.488
L103.813 98.0986
L103.983 105.181
L104.153 99.7553
L104.323 77.3903
L104.494 77.8873
L105.004 104.145
L105.174 97.1046
L105.344 99.9624
L105.514 107.666
L105.854 94.8267
L106.024 96.0278
L106.194 105.305
L106.364 100.998
L106.534 87.9101
L106.704 88.2
L107.044 105.595
L107.214 89.1112
L107.384 100.542
L107.555 89.8567
L107.725 91.2234
L107.895 88.5314
L108.065 76.272
L108.235 78.3014
L108.405 73.4971
L108.745 99.8381
L108.915 111.683
L109.255 90.4779
L109.425 84.9695
L109.595 101.205
L109.765 100.708
L109.935 94.9095
L110.105 98.4714
L110.275 112.139
L110.446 113.381
L110.616 99.7553
L110.786 115.701
L111.126 101.95
L111.296 101.578
L111.466 98.2643
L111.636 99.9209
L111.806 96.6076
L111.976 82.3189
L112.316 88.7799
L112.486 89.194
L112.656 92.176
L112.826 101.619
L112.996 93.7499
L113.336 95.1994
L113.677 88.4899
L114.017 99.631
L114.187 95.9864
L114.527 114.375
L114.697 108.494
L114.867 108.577
L115.037 115.079
L115.207 102.406
L115.377 114.251
L115.547 110.979
L115.717 110.979
L116.398 86.3363
L116.738 101.826
L116.908 99.2997
L117.078 92.5074
L117.248 101.743
L117.418 94.2469
L117.588 103.441
L117.758 91.4719
L117.928 105.388
L118.098 109.281
L118.268 106.216
L118.438 106.009
L118.608 103.441
L118.778 104.021
L118.948 92.7559
L119.288 116.488
L119.629 106.879
L119.799 96.9389
L119.969 98.9269
L120.309 111.89
L120.479 99.9209
L120.649 97.5602
L120.819 100.749
L120.989 99.8795
L121.159 107.624
L121.329 101.495
L121.839 117.606
L122.009 111.186
L122.179 113.091
L122.35 83.1886
L122.52 84.6382
L122.69 72.1304
L122.86 78.0944
L123.03 78.0115
L123.2 80.5379
L123.37 95.9035
L123.71 81.5734
L123.88 85.1352
L124.05 77.763
L124.39 95.5308
L124.56 114.79
L124.73 100.087
L124.9 116.819
L125.07 100.211
L125.24 103.856
L125.411 101.992
L125.581 85.8393
L125.751 97.3117
L125.921 93.5428
L126.091 100.335
L126.261 89.7324
L126.431 95.9035
L126.601 96.8561
L126.941 77.5559
L127.111 82.4845
L127.281 102.696
L127.451 89.0284
L127.621 94.2054
L127.791 81.7804
L127.961 78.7984
L128.131 73.7042
L128.472 103.566
L128.642 97.9744
L128.812 97.6016
L128.982 85.9635
L129.322 84.0998
L129.492 88.2
L129.662 82.4431
L129.832 86.7504
L130.002 83.8513
L130.172 91.3477
L130.342 88.0344
L130.512 94.9095
L130.682 76.3134
L131.022 81.6148
L131.192 76.1064
L131.363 90.4365
L131.533 93.0872
L131.703 79.4611
L131.873 82.4017
L132.043 77.1418
L132.213 66.9947
L132.383 69.2312
L132.553 68.7756
L132.723 93.0044
L132.893 88.7799
L133.063 99.3411
L133.233 96.5248
L133.403 85.0524
L133.573 84.1826
L133.743 81.5319
L133.913 83.3543
L134.083 75.9821
L134.424 94.8681
L134.594 94.5368
L134.764 103.856
L134.934 98.4299
L135.104 101.163
L135.274 80.6622
L135.614 97.8915
L135.954 77.8873
L136.124 82.1532
L136.294 77.6802
L136.464 93.0044
L136.634 96.649
L136.804 96.7319
L136.974 99.0512
L137.144 107.417
L137.655 81.9461
L137.825 81.0764
L137.995 68.5271
L138.165 67.8644
L138.335 61.5277
L138.675 85.7979
L138.845 79.9167
L139.015 86.0878
L139.185 85.1352
L139.355 97.0632
L139.525 96.0278
L139.695 92.4245
L139.865 95.8621
L140.035 91.8033
L140.376 98.4714
L140.716 89.0284
L141.056 85.6322
L141.396 95.158
L141.566 93.3771
L141.736 90.1466
L141.906 81.6148
L142.246 79.0884
L142.416 79.7924
L142.756 97.7673
L142.926 102.986
L143.096 89.3183
L143.267 92.3831
L143.607 81.5319
L143.777 85.8393
L143.947 99.2169
L144.117 92.5488
L144.287 90.3123
L144.457 84.6382
L144.627 92.9629
L144.797 80.1238
L144.967 80.9935
L145.137 65.5865
L145.477 84.8867
L145.647 90.9749
L145.817 84.9281
L145.987 85.7564
L146.158 83.727
L146.328 91.5548
L146.498 69.1484
L146.668 65.835
L147.008 87.4131
L147.178 100.708
L147.348 85.0938
L147.518 87.1646
L147.688 90.7679
L147.858 70.9293
L148.028 81.6562
L148.368 67.326
L148.538 64.5097
L149.048 88.4071
L149.219 72.6688
L149.389 70.4737
L149.559 81.3249
L149.899 76.4377
L150.239 86.2534
L150.409 86.1706
L150.579 75.4851
L150.749 87.3303
L150.919 89.3183
L151.259 70.4737
L151.429 87.7444
L151.599 88.3657
L151.769 78.3429
L151.939 79.8753
L152.28 75.2366
L152.45 82.6088
L152.62 70.4737
L152.79 70.8464
L152.96 76.8104
L153.13 78.5085
L153.3 86.0464
L153.64 81.4905
L153.81 87.2474
L153.98 80.248
L154.15 89.1112
L154.32 85.5908
L154.49 79.5025
L154.83 95.4065
L155 85.3423
L155.171 84.0584
L155.341 94.2469
L155.511 81.8633
L155.681 81.8219
L156.021 90.5608
L156.191 90.9749
L156.361 81.7804
L156.531 79.7924
L156.701 101.909
L156.871 97.1046
L157.041 84.4725
L157.211 80.6208
L157.381 89.4425
L157.551 87.3717
L157.721 87.4959
L157.891 84.6382
L158.062 85.218
L158.402 98.4714
L158.572 97.1046
L158.742 99.5482
L158.912 99.9624
L159.252 73.1244
L159.762 91.9689
L160.102 79.3783
L160.272 78.6328
L160.612 64.5511
L160.782 87.7444
L161.123 93.0044
L161.463 74.4911
L161.633 81.6148
L161.803 81.9875
L162.313 101.453
L162.823 73.9113
L162.993 85.7979
L163.163 75.6508
L163.333 83.9341
L163.503 103.441
L163.673 95.7379
L163.843 77.9287
L164.014 84.1826
L164.184 95.6136
L164.354 89.8981
L164.524 88.3657
L164.694 85.5494
L164.864 93.4599
L165.034 88.4899
L165.204 88.5728
L165.374 95.1166
L165.544 86.5019
L165.714 86.0049
L165.884 74.3254
L166.224 80.8693
L166.564 94.7853
L166.734 101.039
L166.904 84.4311
L167.245 75.9821
L167.415 87.703
L167.585 76.6034
L167.755 99.4239
L167.925 92.2589
L168.095 99.1754
L168.265 93.4599
L168.435 103.98
L168.605 106.713
L168.945 87.8687
L169.115 101.163
L169.455 94.164
L169.625 84.6382
L169.795 88.3657
L169.966 86.8333
L170.136 91.9689
L170.476 75.3194
L171.156 101.453
L171.326 83.4785
L171.666 99.3411
L171.836 88.8213
L172.006 93.9569
L172.176 93.1286
L172.516 82.2774
L172.686 93.0044
L172.856 91.1406
L173.027 100.004
L173.197 88.6556
L173.367 98.8855
L173.537 100.128
L173.707 109.157
L173.877 110.772
L174.047 110.275
L174.217 106.838
L174.387 108.577
L174.557 90.1466
L175.067 72.8344
L175.407 105.388
L175.577 106.009
L175.747 101.288
L176.088 83.0229
L176.258 81.6976
L176.428 82.1532
L176.598 68.4029
L176.938 91.8447
L177.108 93.4185
L177.278 103.814
L177.618 88.8213
L177.788 88.4899
L178.128 62.1075
L178.638 89.5254
L178.808 88.6142
L178.979 75.775
L179.319 84.9281
L179.489 81.2834
L179.659 93.4599
L179.829 64.5097
L179.999 62.3146
L180.169 67.6574
L180.339 80.745
L180.509 76.9347
L180.679 75.7336
L180.849 71.1778
L181.019 73.2072
L181.189 67.5745
L181.359 74.2012
L181.529 86.7919
L181.699 111.352
L181.87 87.5788
L182.04 82.236
L182.21 96.4419
L182.38 77.266
L182.55 82.0704
L182.72 71.8819
L183.06 92.5488
L183.23 82.6502
L183.4 91.5134
L183.57 93.7499
L183.74 90.3537
L183.91 95.1994
L184.08 87.4959
L184.25 67.6159
L184.42 66.1664
L184.59 79.0055
L184.76 78.0115
L184.931 79.9167
L185.101 69.9767
L185.271 75.2366
L185.441 70.1838
L185.611 81.5734
L185.951 56.1849
L186.121 72.0061
L186.291 74.2012
L186.631 56.6405
L186.801 69.2312
L186.971 63.0187
L187.141 68.2372
L187.311 69.0241
L187.481 62.9773
L187.651 61.2378
L187.822 62.3146
L187.992 68.1544
L188.162 68.1544
L188.502 76.9347
L188.672 66.9947
L188.842 64.5097
L189.012 76.3134
L189.182 52.6231
L189.352 54.8596
L189.522 63.3914
L189.692 63.2258
L189.862 64.8824
L190.032 72.2132
L190.202 66.6219
L190.542 51.5049
L190.712 59.4983
L190.883 60.6165
L191.053 53.6999
L191.223 57.8002
L191.393 50.925
L191.563 55.4394
L191.733 48.2329
L191.903 47.4874
L192.073 53.8242
L192.243 39.1213
L192.413 48.3986
L192.583 44.2155
L192.753 54.3626
L192.923 55.5637
L193.093 60.0367
L193.263 57.4689
L193.433 52.4989
L193.603 53.907
L193.774 59.2498
L193.944 55.2324
L194.114 62.1904
L194.284 45.2509
L194.454 52.4989
L194.624 34.814
L194.794 50.7179
L194.964 43.0973
L195.134 52.0019
L195.474 75.4023
L195.644 80.8693
L195.814 69.9767
L195.984 73.1658
L196.324 54.7768
L196.494 60.6165
L196.664 54.2798
L196.835 67.5745
L197.005 64.0955
L197.175 64.6754
L197.345 54.5697
L197.515 51.1321
L197.685 52.4574
L197.855 66.2492
L198.025 63.8884
L198.195 58.877
L198.365 58.7114
L198.535 52.2089
L198.705 50.6765
L198.875 55.5637
L199.215 74.6982
L199.385 53.7828
L199.555 54.3212
L200.066 79.9581
L200.406 70.8464
L200.576 70.4737
L200.746 54.2384
L200.916 72.1718
L201.256 56.0607
L201.596 66.4563
L201.766 48.9784
L201.936 53.907
L202.106 55.0253
L202.276 46.452
L202.446 48.3158
L202.616 42.0619
L202.957 67.5745
L203.127 66.6634
L203.297 72.2546
L203.467 87.3303
L203.637 76.8933
L203.807 77.5559
L203.977 76.8519
L204.317 60.2852
L204.487 54.1555
L204.657 59.3326
L204.827 58.0901
L204.997 61.1964
L205.167 73.5385
L205.337 66.7048
L205.507 70.5979
L205.678 67.7816
L206.018 55.398
L206.188 71.0121
L206.358 73.9113
L206.868 50.4694
L207.038 61.4449
L207.378 62.8944
L207.718 87.703
L207.888 80.7864
L208.228 77.8044
L208.398 78.0944
L208.739 48.2744
L209.249 61.1964
L209.419 49.0199
L209.589 53.6999
L209.759 48.7714
L210.099 72.7102
L210.609 46.3692
L210.779 70.0595
L210.949 68.6514
L211.289 70.0595
L211.459 73.0001
L211.63 70.308
L211.97 46.9076
L212.14 69.5211
L212.31 55.0667
L212.48 56.5991
L212.65 67.4503
L212.82 50.9664
L212.99 61.0721
L213.16 63.3086
L213.33 70.6808
L213.67 60.5337
L213.84 55.5637
L214.01 43.0144
L214.18 50.4694
L214.35 64.0541
L214.52 68.0715
L214.861 83.1058
L215.031 69.6868
L215.371 68.4029
L215.541 74.9467
L215.711 74.1184
L215.881 60.2852
L216.051 70.0595
L216.221 66.2906
L216.561 70.805
L216.901 45.2509
L217.071 42.476
L217.411 64.4683
L217.582 67.2846
L217.582 67.2846" style="fill:none;stroke:#0000ff;stroke-linecap:square;"/>
   </g>
   <g id="matplotlib.axis_1">
    <g id="xtick_1">
     <g id="line2d_2">
      <defs>
       <path d="
M0 0
L0 -4" id="m93b0483c22" style="stroke:#000000;stroke-width:0.5;"/>
      </defs>
      <g>
       <use style="stroke:#000000;stroke-width:0.5;" x="68.7798214286" xlink:href="#m93b0483c22" y="157.558125"/>
      </g>
     </g>
     <g id="line2d_3">
      <defs>
       <path d="
M0 0
L0 4" id="m741efc42ff" style="stroke:#000000;stroke-width:0.5;"/>
      </defs>
      <g>
       <use style="stroke:#000000;stroke-width:0.5;" x="68.7798214286" xlink:href="#m741efc42ff" y="19.318125"/>
      </g>
     </g>
     <g id="text_1">
      <text style="font-family:DejaVu Sans;font-size:12.0px;font-style:normal;text-anchor:middle;" transform="rotate(-0.000000, 68.779821, 170.676250)" x="68.7798214286" y="170.67625">500</text>
     </g>
    </g>
    <g id="xtick_2">
     <g id="line2d_4">
      <g>
       <use style="stroke:#000000;stroke-width:0.5;" x="102.79125" xlink:href="#m93b0483c22" y="157.558125"/>
      </g>
     </g>
     <g id="line2d_5">
      <g>
       <use style="stroke:#000000;stroke-width:0.5;" x="102.79125" xlink:href="#m741efc42ff" y="19.318125"/>
      </g>
     </g>
     <g id="text_2">
      <text style="font-family:DejaVu Sans;font-size:12.0px;font-style:normal;text-anchor:middle;" transform="rotate(-0.000000, 102.791250, 170.676250)" x="102.79125" y="170.67625">520</text>
     </g>
    </g>
    <g id="xtick_3">
     <g id="line2d_6">
      <g>
       <use style="stroke:#000000;stroke-width:0.5;" x="136.802678571" xlink:href="#m93b0483c22" y="157.558125"/>
      </g>
     </g>
     <g id="line2d_7">
      <g>
       <use style="stroke:#000000;stroke-width:0.5;" x="136.802678571" xlink:href="#m741efc42ff" y="19.318125"/>
      </g>
     </g>
     <g id="text_3">
      <text style="font-family:DejaVu Sans;font-size:12.0px;font-style:normal;text-anchor:middle;" transform="rotate(-0.000000, 136.802679, 170.676250)" x="136.802678571" y="170.67625">540</text>
     </g>
    </g>
    <g id="xtick_4">
     <g id="line2d_8">
      <g>
       <use style="stroke:#000000;stroke-width:0.5;" x="170.814107143" xlink:href="#m93b0483c22" y="157.558125"/>
      </g>
     </g>
     <g id="line2d_9">
      <g>
       <use style="stroke:#000000;stroke-width:0.5;" x="170.814107143" xlink:href="#m741efc42ff" y="19.318125"/>
      </g>
     </g>
     <g id="text_4">
      <text style="font-family:DejaVu Sans;font-size:12.0px;font-style:normal;text-anchor:middle;" transform="rotate(-0.000000, 170.814107, 170.676250)" x="170.814107143" y="170.67625">560</text>
     </g>
    </g>
    <g id="xtick_5">
     <g id="line2d_10">
      <g>
       <use style="stroke:#000000;stroke-width:0.5;" x="204.825535714" xlink:href="#m93b0483c22" y="157.558125"/>
      </g>
     </g>
     <g id="line2d_11">
      <g>
       <use style="stroke:#000000;stroke-width:0.5;" x="204.825535714" xlink:href="#m741efc42ff" y="19.318125"/>
      </g>
     </g>
     <g id="text_5">
      <text style="font-family:DejaVu Sans;font-size:12.0px;font-style:normal;text-anchor:middle;" transform="rotate(-0.000000, 204.825536, 170.676250)" x="204.825535714" y="170.67625">580</text>
     </g>
    </g>
    <g id="text_6">
     <text style="font-family:DejaVu Sans;font-size:12.0px;font-style:normal;text-anchor:middle;" transform="rotate(-0.000000, 132.551250, 187.290000)" x="132.55125" y="187.29">Timesteps [1000]</text>
    </g>
   </g>
   <g id="matplotlib.axis_2">
    <g id="ytick_1">
     <g id="line2d_12">
      <defs>
       <path d="
M0 0
L4 0" id="m728421d6d4" style="stroke:#000000;stroke-width:0.5;"/>
      </defs>
      <g>
       <use style="stroke:#000000;stroke-width:0.5;" x="43.27125" xlink:href="#m728421d6d4" y="157.558125"/>
      </g>
     </g>
     <g id="line2d_13">
      <defs>
       <path d="
M0 0
L-4 0" id="mcb0005524f" style="stroke:#000000;stroke-width:0.5;"/>
      </defs>
      <g>
       <use style="stroke:#000000;stroke-width:0.5;" x="221.83125" xlink:href="#mcb0005524f" y="157.558125"/>
      </g>
     </g>
     <g id="text_7">
      <text style="font-family:DejaVu Sans;font-size:12.0px;font-style:normal;text-anchor:end;" transform="rotate(-0.000000, 39.271250, 160.869375)" x="39.27125" y="160.869375">−3</text>
     </g>
    </g>
    <g id="ytick_2">
     <g id="line2d_14">
      <g>
       <use style="stroke:#000000;stroke-width:0.5;" x="43.27125" xlink:href="#m728421d6d4" y="134.518125"/>
      </g>
     </g>
     <g id="line2d_15">
      <g>
       <use style="stroke:#000000;stroke-width:0.5;" x="221.83125" xlink:href="#mcb0005524f" y="134.518125"/>
      </g>
     </g>
     <g id="text_8">
      <text style="font-family:DejaVu Sans;font-size:12.0px;font-style:normal;text-anchor:end;" transform="rotate(-0.000000, 39.271250, 137.829375)" x="39.27125" y="137.829375">−2</text>
     </g>
    </g>
    <g id="ytick_3">
     <g id="line2d_16">
      <g>
       <use style="stroke:#000000;stroke-width:0.5;" x="43.27125" xlink:href="#m728421d6d4" y="111.478125"/>
      </g>
     </g>
     <g id="line2d_17">
      <g>
       <use style="stroke:#000000;stroke-width:0.5;" x="221.83125" xlink:href="#mcb0005524f" y="111.478125"/>
      </g>
     </g>
     <g id="text_9">
      <text style="font-family:DejaVu Sans;font-size:12.0px;font-style:normal;text-anchor:end;" transform="rotate(-0.000000, 39.271250, 114.789375)" x="39.27125" y="114.789375">−1</text>
     </g>
    </g>
    <g id="ytick_4">
     <g id="line2d_18">
      <g>
       <use style="stroke:#000000;stroke-width:0.5;" x="43.27125" xlink:href="#m728421d6d4" y="88.438125"/>
      </g>
     </g>
     <g id="line2d_19">
      <g>
       <use style="stroke:#000000;stroke-width:0.5;" x="221.83125" xlink:href="#mcb0005524f" y="88.438125"/>
      </g>
     </g>
     <g id="text_10">
      <text style="font-family:DejaVu Sans;font-size:12.0px;font-style:normal;text-anchor:end;" transform="rotate(-0.000000, 39.271250, 91.749375)" x="39.27125" y="91.749375">0</text>
     </g>
    </g>
    <g id="ytick_5">
     <g id="line2d_20">
      <g>
       <use style="stroke:#000000;stroke-width:0.5;" x="43.27125" xlink:href="#m728421d6d4" y="65.398125"/>
      </g>
     </g>
     <g id="line2d_21">
      <g>
       <use style="stroke:#000000;stroke-width:0.5;" x="221.83125" xlink:href="#mcb0005524f" y="65.398125"/>
      </g>
     </g>
     <g id="text_11">
      <text style="font-family:DejaVu Sans;font-size:12.0px;font-style:normal;text-anchor:end;" transform="rotate(-0.000000, 39.271250, 68.709375)" x="39.27125" y="68.709375">1</text>
     </g>
    </g>
    <g id="ytick_6">
     <g id="line2d_22">
      <g>
       <use style="stroke:#000000;stroke-width:0.5;" x="43.27125" xlink:href="#m728421d6d4" y="42.358125"/>
      </g>
     </g>
     <g id="line2d_23">
      <g>
       <use style="stroke:#000000;stroke-width:0.5;" x="221.83125" xlink:href="#mcb0005524f" y="42.358125"/>
      </g>
     </g>
     <g id="text_12">
      <text style="font-family:DejaVu Sans;font-size:12.0px;font-style:normal;text-anchor:end;" transform="rotate(-0.000000, 39.271250, 45.669375)" x="39.27125" y="45.669375">2</text>
     </g>
    </g>
    <g id="ytick_7">
     <g id="line2d_24">
      <g>
       <use style="stroke:#000000;stroke-width:0.5;" x="43.27125" xlink:href="#m728421d6d4" y="19.318125"/>
      </g>
     </g>
     <g id="line2d_25">
      <g>
       <use style="stroke:#000000;stroke-width:0.5;" x="221.83125" xlink:href="#mcb0005524f" y="19.318125"/>
      </g>
     </g>
     <g id="text_13">
      <text style="font-family:DejaVu Sans;font-size:12.0px;font-style:normal;text-anchor:end;" transform="rotate(-0.000000, 39.271250, 22.629375)" x="39.27125" y="22.629375">3</text>
     </g>
    </g>
    <g id="text_14">
     <text style="font-family:DejaVu Sans;font-size:12.0px;font-style:normal;text-anchor:middle;" transform="rotate(-90.000000, 16.318125, 88.438125)" x="16.318125" y="88.438125">Relative energy difference</text>
    </g>
    <g id="text_15">
     <text style="font-family:DejaVu Sans;font-size:12.0px;font-style:normal;text-anchor:start;" transform="rotate(-0.000000, 43.271250, 16.318125)" x="43.27125" y="16.318125">1e−6</text>
    </g>
   </g>
   <g id="patch_3">
    <path d="
M43.2713 19.3181
L221.831 19.3181" style="fill:none;stroke:#000000;"/>
   </g>
   <g id="patch_4">
    <path d="
M221.831 157.558
L221.831 19.3181" style="fill:none;stroke:#000000;"/>
   </g>
   <g id="patch_5">
    <path d="
M43.2713 157.558
L221.831 157.558" style="fill:none;stroke:#000000;"/>
   </g>
   <g id="patch_6">
    <path d="
M43.2713 157.558
L43.2713 19.3181" style="fill:none;stroke:#000000;"/>
   </g>
  </g>
 </g>
 <defs>
  <clipPath id="pfa298b01bd">
   <rect height="138.24" width="178.56" x="43.27125" y="19.318125"/>
  </clipPath>
 </defs>
</svg>
