<?xml version="1.0" encoding="utf-8" standalone="no"?>
<!DOCTYPE svg PUBLIC "-//W3C//DTD SVG 1.1//EN"
  "http://www.w3.org/Graphics/SVG/1.1/DTD/svg11.dtd">
<!-- Created with matplotlib (http://matplotlib.org/) -->
<svg height="237pt" version="1.1" viewBox="0 0 296 237" width="296pt" xmlns="http://www.w3.org/2000/svg" xmlns:xlink="http://www.w3.org/1999/xlink">
 <defs>
  <style type="text/css">
*{stroke-linecap:butt;stroke-linejoin:round;}
  </style>
 </defs>
 <g id="figure_1">
  <g id="patch_1">
   <path d="
M0 237.129
L296.382 237.129
L296.382 0
L0 0
z
" style="fill:#ffffff;"/>
  </g>
  <g id="axes_1">
   <g id="patch_2">
    <path d="
M56.97 185.807
L280.17 185.807
L280.17 13.0069
L56.97 13.0069
z
" style="fill:#ffffff;"/>
   </g>
   <g id="line2d_1">
    <path clip-path="url(#pd32e96cb8f)" d="
M56.9714 185.408
L57.1109 156.385
L57.2504 153.327
L57.5294 182.326
L57.6689 180.936
L57.8084 169.522
L58.0874 176.563
L58.2269 175.996
L58.3664 176.548
L58.5059 176.198
L58.6454 171.877
L58.7849 175.532
L59.0639 176.768
L59.2034 176.303
L59.4824 174.698
L59.6219 175.616
L59.7614 175.361
L59.9009 175.435
L60.0404 175.686
L60.1799 175.021
L60.4589 175.414
L61.4354 175.153
L61.5749 175.186
L61.8539 175.084
L62.8304 175.032
L63.2489 174.979
L63.5279 174.971
L66.7364 174.853
L67.2944 174.872
L67.9919 174.855
L71.7584 174.821
L72.3164 174.802
L73.1534 174.773
L74.1299 174.786
L74.5484 174.772
L74.8274 158.192
L75.1064 152.944
L75.3854 151.53
L75.6644 151.25
L75.8039 151.343
L75.9434 151.253
L76.0829 151.328
L76.3619 151.233
L76.5014 151.197
L76.6409 151.279
L76.7804 151.168
L76.9199 151.299
L77.1989 151.241
L79.0124 151.187
L79.9889 151.187
L80.4074 151.209
L80.6864 151.201
L80.8259 151.274
L81.1049 151.22
L91.9859 151.173
L92.2649 135.133
L92.5439 129.389
L92.8229 127.771
L93.1019 127.231
L93.2414 127.217
L93.3809 127.083
L93.5204 127.188
L93.7994 126.977
L93.9389 127.151
L94.0784 127.08
L94.2179 127.136
L94.3574 126.998
L94.6364 127.124
L94.9154 127.073
L95.0549 126.901
L95.1944 127.145
L95.4734 126.963
L95.7524 127.123
L95.8919 127.16
L96.1709 126.993
L96.3104 126.975
L96.4499 127.113
L96.5894 127.035
L97.0079 127.176
L97.1474 127.211
L97.2869 127.122
L97.4264 127.166
L97.5659 127.072
L97.8449 127.157
L98.1239 127.228
L98.5424 127.12
L98.6819 127.296
L98.8214 127.081
L99.1004 127.197
L99.3794 127.149
L99.5189 127.238
L99.6584 127.158
L99.9374 127.154
L100.216 127.156
L100.495 127.277
L100.774 127.131
L101.053 127.271
L101.332 127.191
L101.89 127.116
L102.03 127.28
L102.309 127.196
L102.448 127.356
L102.588 127.204
L102.727 127.274
L102.867 127.213
L103.006 127.291
L103.285 127.143
L104.122 127.235
L104.401 127.142
L105.657 127.299
L105.936 127.146
L106.354 127.326
L106.773 127.173
L106.912 127.335
L107.052 127.137
L107.331 127.262
L107.889 127.245
L108.865 127.306
L109.005 127.167
L109.144 127.266
L109.284 127.225
L109.423 127.357
L109.702 112.622
L109.981 107.278
L110.26 104.857
L110.679 103.822
L110.818 103.877
L110.958 103.809
L111.097 103.976
L111.237 103.657
L111.376 103.706
L111.516 103.627
L111.795 103.757
L111.934 103.741
L112.074 103.906
L112.213 103.556
L112.492 103.8
L112.632 103.611
L112.911 103.779
L113.19 104.257
L113.469 104.848
L113.748 105.351
L114.306 106.276
L114.445 106.291
L115.282 107.384
L115.561 107.71
L115.701 107.563
L115.84 107.658
L116.119 108.052
L116.259 108.032
L116.538 108.462
L116.677 108.454
L116.956 108.615
L117.375 108.573
L117.654 109.033
L117.793 108.851
L118.351 109.175
L119.049 109.318
L119.188 109.185
L119.467 109.347
L119.746 109.385
L120.025 109.384
L120.304 109.54
L120.583 109.589
L121.002 109.474
L121.141 109.704
L121.281 109.659
L121.42 109.759
L121.699 109.63
L121.839 109.756
L122.257 109.575
L122.397 109.748
L122.676 109.647
L123.094 109.704
L123.234 109.777
L123.513 109.686
L123.652 109.853
L123.931 109.683
L124.489 109.842
L125.466 109.757
L125.745 109.797
L126.024 109.884
L126.163 109.747
L126.303 109.829
L126.442 109.745
L126.721 109.959
L126.861 109.788
L127.14 90.257
L127.419 83.8496
L127.698 81.259
L127.977 79.8336
L128.256 79.5147
L128.674 78.8031
L129.093 78.9451
L129.372 78.5701
L129.651 78.8838
L129.79 78.5214
L130.209 78.7536
L130.488 78.7424
L130.627 79.006
L130.767 78.6938
L130.906 78.8193
L131.185 78.5433
L131.325 78.7076
L131.464 78.5823
L131.604 78.7299
L132.162 78.6934
L132.441 78.8822
L132.58 78.5086
L132.72 78.8728
L132.859 78.9062
L132.999 78.6116
L133.278 78.8375
L133.557 78.6888
L133.836 79.0262
L134.115 78.636
L134.254 78.7609
L134.394 78.5422
L134.673 78.698
L134.812 78.5885
L134.952 78.8115
L135.231 78.726
L135.37 78.899
L136.068 78.5759
L136.207 78.6857
L136.347 78.6437
L136.486 78.9389
L136.765 78.7361
L136.905 78.812
L137.044 78.5237
L137.323 78.7711
L137.463 78.6836
L137.881 79.024
L138.439 78.68
L138.579 78.6932
L138.718 78.8413
L138.858 78.6484
L139.137 78.7385
L139.276 78.5215
L139.416 78.5534
L139.555 78.7756
L139.695 78.7
L139.834 78.9512
L139.974 78.8024
L140.113 78.8493
L140.253 78.6419
L140.392 78.8626
L140.671 78.5718
L140.95 78.775
L141.229 78.5375
L141.369 78.8102
L141.508 78.7613
L141.648 78.5315
L141.787 78.7759
L142.206 78.6723
L142.485 78.7621
L142.764 78.7604
L143.043 78.844
L143.322 78.6293
L143.461 78.7493
L143.601 78.582
L143.88 78.7619
L144.159 78.7932
L144.298 78.8458
L144.577 62.5811
L144.856 57.5932
L145.135 55.7238
L145.275 55.2274
L145.414 55.2355
L145.554 54.8429
L145.693 54.8882
L146.112 54.2801
L146.251 54.4423
L146.53 54.4042
L146.67 54.5986
L146.809 54.4543
L146.949 54.5046
L147.088 54.6736
L147.367 54.2649
L147.507 54.6931
L147.646 54.485
L147.786 54.4989
L147.925 54.6844
L148.623 54.3737
L148.902 54.4862
L149.041 54.1969
L149.181 54.4983
L149.46 54.3247
L149.599 54.4509
L149.739 54.2322
L149.878 54.6188
L150.018 54.6664
L150.157 54.4413
L150.297 54.6943
L150.436 54.4646
L150.994 54.7259
L151.134 54.6587
L151.413 54.774
L151.552 54.5116
L151.831 54.5328
L152.11 54.3099
L152.25 54.5291
L152.808 54.27
L153.226 54.5109
L153.505 54.4743
L153.645 54.3682
L153.784 54.6622
L153.924 54.4259
L154.203 54.7641
L154.482 54.396
L154.621 54.7517
L154.761 54.4568
L155.04 54.757
L155.179 54.4333
L155.319 54.5836
L155.458 54.5387
L155.598 54.7035
L156.295 54.5172
L156.435 54.5851
L156.574 54.3468
L156.714 54.5565
L156.853 54.3666
L157.272 54.4991
L157.411 54.1794
L157.69 54.6516
L157.83 54.6281
L157.969 54.0563
L158.248 54.7858
L158.388 54.4634
L158.667 54.615
L158.806 54.4729
L158.946 54.6903
L159.085 54.5897
L159.364 54.6695
L159.504 54.3603
L159.783 54.3789
L160.062 54.6741
L160.201 54.5265
L160.341 54.5613
L160.48 54.4701
L160.62 54.5326
L160.899 54.2151
L161.038 54.3235
L161.178 54.6085
L161.457 54.4683
L161.736 54.3967
L162.015 37.157
L162.294 32.8115
L162.573 31.0612
L162.712 30.7308
L162.852 30.8011
L162.991 30.6924
L163.131 30.2464
L163.27 30.4953
L163.41 30.1839
L163.549 30.5513
L163.828 30.1118
L163.968 29.9366
L164.107 30.4377
L164.386 30.3391
L164.526 30.5775
L164.665 30.1156
L164.805 30.1661
L164.944 30.7209
L165.084 30.115
L165.223 30.4185
L165.363 30.2471
L165.502 30.393
L166.2 29.875
L166.339 30.1945
L166.479 30.2095
L166.618 30.3874
L166.758 30.0225
L166.897 30.0797
L167.037 29.8457
L167.176 30.1291
L167.316 29.9838
L167.455 30.3751
L167.595 29.9898
L167.734 30.1465
L167.874 30.0331
L168.153 30.4742
L168.292 29.9947
L168.571 30.2858
L168.85 30.1325
L168.99 30.6072
L169.129 30.1161
L169.548 30.0856
L169.827 30.3002
L169.966 29.96
L170.106 30.2806
L170.385 30.101
L170.803 30.486
L170.943 30.0104
L171.361 30.484
L171.501 29.995
L171.64 30.2619
L171.78 30.1093
L171.919 30.1751
L172.059 30.0008
L172.198 30.0766
L172.338 30.4983
L172.756 30.189
L173.175 30.3575
L173.733 30.1078
L173.872 29.8619
L174.012 30.1567
L174.151 30.0793
L174.43 30.1608
L174.57 30.0829
L174.709 30.2473
L174.849 30.0818
L174.988 30.3025
L175.128 30.1613
L175.407 30.448
L175.546 30.06
L175.686 30.0173
L175.825 30.276
L175.965 30.1305
L176.104 30.2339
L176.244 30.1516
L176.523 30.3558
L176.662 30.0462
L176.802 30.1154
L176.941 30.3454
L177.081 30.2558
L177.22 30.3095
L177.36 30.0759
L177.499 30.3714
L177.639 30.1256
L177.778 30.2969
L178.197 30.229
L178.476 30.4509
L178.615 29.9923
L179.034 30.4862
L179.173 30.2455
L179.452 47.6988
L179.731 52.1881
L180.01 53.3689
L180.289 54.2018
L180.708 54.3858
L180.987 54.6165
L181.126 54.3184
L181.405 54.378
L181.545 54.6003
L181.684 54.4471
L181.824 54.4971
L181.963 54.3524
L182.103 54.3694
L182.382 54.6257
L182.521 54.5136
L182.661 54.2363
L182.8 54.2925
L182.94 54.6146
L183.219 54.1172
L183.358 54.3626
L183.498 54.38
L183.637 54.575
L183.916 54.3331
L184.195 54.318
L184.335 54.6255
L184.614 54.2684
L184.753 54.6031
L185.032 54.3032
L185.172 54.4172
L185.311 54.1223
L185.451 54.58
L185.59 54.2109
L185.73 54.6037
L186.009 54.2888
L186.288 54.6192
L186.567 54.3105
L186.706 54.3726
L186.846 54.2311
L186.985 54.3566
L187.125 54.2882
L187.404 54.5253
L187.543 54.3211
L188.38 54.4878
L188.659 54.0678
L188.799 54.6175
L188.938 54.334
L189.078 54.5533
L189.357 54.4842
L189.496 54.4615
L189.636 54.3008
L190.054 54.4593
L190.194 53.8716
L190.473 54.4222
L190.612 54.2471
L190.752 54.3475
L190.891 54.6211
L191.17 54.2507
L191.31 54.5873
L191.449 54.1643
L191.589 54.2974
L191.868 54.2005
L192.007 54.2712
L192.286 54.6243
L192.565 54.1356
L193.123 54.7578
L193.263 54.3505
L193.402 54.301
L193.542 54.736
L193.681 54.5275
L193.96 54.5547
L194.1 54.4887
L194.239 54.248
L194.379 54.506
L194.658 54.4613
L194.937 54.3846
L195.076 54.209
L195.216 54.4574
L195.355 54.2759
L195.495 54.5414
L195.634 54.4876
L195.774 54.2675
L196.053 54.5229
L196.192 54.3537
L196.332 54.4634
L196.611 54.1751
L196.89 71.2495
L197.169 75.5995
L197.448 77.3595
L197.727 77.8691
L198.006 78.4827
L198.145 78.2842
L198.424 78.7282
L198.564 78.4586
L198.843 78.6917
L198.982 78.7456
L199.261 78.5985
L199.54 78.5768
L199.68 78.7545
L199.819 78.3823
L200.098 78.7183
L200.238 78.6763
L200.377 78.4035
L200.517 78.669
L200.796 78.7707
L200.935 78.5151
L201.075 78.7252
L201.493 78.7276
L201.772 78.3825
L201.912 78.8096
L202.051 78.4488
L202.191 78.4882
L202.33 78.7481
L202.47 78.6697
L202.609 78.8789
L202.749 78.5728
L202.888 78.878
L203.028 78.7954
L203.307 78.4238
L203.446 78.4725
L203.586 78.7318
L203.725 78.4787
L203.865 78.7895
L204.004 78.4987
L204.144 78.7858
L204.423 78.7778
L204.562 78.5172
L204.841 78.6637
L205.12 78.4691
L205.399 78.7618
L205.539 78.6517
L205.678 78.8539
L205.818 78.6255
L206.097 78.6955
L206.515 78.518
L206.655 78.7676
L206.794 78.4741
L206.934 78.7699
L207.213 78.5689
L208.329 78.8261
L208.468 78.478
L208.608 78.9661
L208.887 78.6808
L209.305 78.5813
L209.445 78.83
L209.584 78.8472
L209.724 78.7153
L210.142 78.9417
L210.282 78.6073
L210.561 78.5852
L210.84 78.7972
L210.979 78.6733
L211.258 78.9349
L211.398 78.4506
L211.677 78.6657
L211.956 78.5624
L212.095 78.7153
L212.235 78.5325
L212.374 78.7126
L212.514 78.4608
L212.932 78.7324
L213.072 78.5179
L213.211 78.7442
L213.49 78.6996
L213.63 78.8115
L213.909 78.6515
L214.048 78.7991
L214.327 94.5443
L214.606 99.0208
L215.025 101.706
L215.443 102.259
L215.583 102.187
L215.862 102.583
L216.001 102.604
L216.141 102.781
L216.559 102.552
L216.699 102.902
L216.978 102.724
L217.396 102.752
L217.675 102.95
L217.815 103.118
L217.954 102.81
L218.094 102.926
L218.512 102.577
L218.791 102.838
L219.21 102.787
L219.349 102.687
L219.489 102.948
L219.628 102.653
L219.907 102.722
L220.047 102.602
L220.186 102.812
L220.326 102.784
L220.465 102.906
L220.605 102.689
L220.884 102.649
L221.163 102.606
L221.302 102.469
L221.442 102.714
L222.139 102.683
L222.279 102.651
L222.558 102.735
L222.976 102.776
L223.255 102.545
L223.395 102.685
L223.534 102.645
L223.674 102.813
L224.092 102.702
L224.371 102.671
L224.511 102.842
L224.65 102.552
L224.79 102.82
L225.208 102.44
L225.487 102.823
L225.766 102.77
L226.045 102.658
L226.185 102.828
L226.324 102.67
L226.464 102.927
L226.743 102.542
L227.161 102.834
L227.301 102.732
L227.58 102.821
L227.719 102.843
L227.998 102.685
L228.277 102.76
L228.417 102.886
L228.556 102.772
L228.696 102.857
L228.835 102.774
L228.975 102.828
L229.254 102.591
L229.393 102.858
L229.533 102.679
L229.812 102.757
L229.951 102.636
L230.23 102.644
L230.37 102.535
L230.928 102.742
L231.207 102.661
L231.346 102.802
L231.486 102.679
L231.765 118.293
L232.044 123.231
L232.323 125.289
L232.741 126.152
L232.881 126.226
L233.02 126.482
L233.16 126.426
L233.299 126.697
L233.439 126.565
L233.578 126.839
L233.718 126.66
L233.857 126.795
L234.136 126.753
L234.973 126.888
L235.113 126.87
L235.392 126.605
L235.531 126.713
L235.671 126.467
L236.089 126.454
L236.368 126.25
L236.508 126.351
L236.787 126.221
L236.926 125.99
L237.205 126.08
L237.345 126.108
L237.484 125.986
L237.624 126.081
L237.763 125.919
L237.903 126.019
L238.182 125.809
L238.321 125.904
L238.461 125.853
L238.6 125.618
L238.879 125.765
L239.019 125.839
L239.158 125.728
L239.298 125.845
L239.577 125.6
L239.995 125.602
L240.274 125.596
L240.693 125.616
L240.832 125.486
L241.251 125.568
L241.39 125.502
L241.53 125.581
L241.669 125.377
L241.948 125.542
L242.227 125.383
L242.925 125.415
L243.064 125.223
L243.622 125.374
L244.041 125.093
L244.18 125.286
L244.738 125.156
L244.878 125.357
L245.017 125.168
L245.436 125.3
L245.575 125.091
L245.715 125.264
L245.994 125.107
L246.133 125.069
L246.273 125.148
L246.552 125.024
L246.691 125.205
L246.831 125.042
L246.97 125.161
L247.249 125.085
L247.389 125.197
L247.947 124.964
L248.226 125.084
L248.923 125.026
L249.202 142.215
L249.481 148.171
L249.76 150.2
L250.039 150.808
L250.458 151.032
L250.597 151.113
L250.737 150.973
L250.876 151.162
L251.574 151.151
L251.853 151.158
L252.132 151.142
L252.411 151.175
L252.829 151.05
L252.969 151.095
L253.248 150.935
L253.387 151.024
L253.666 150.896
L254.643 150.758
L255.201 150.642
L259.944 150.174
L260.083 150.101
L260.223 150.185
L260.362 150.036
L261.06 150.035
L261.478 149.982
L261.757 149.902
L262.176 149.921
L263.152 149.942
L263.292 149.797
L263.571 149.883
L263.85 149.882
L264.408 149.819
L264.547 149.736
L264.826 149.808
L264.966 149.705
L265.384 149.793
L265.663 149.666
L266.082 149.717
L266.221 149.624
L266.361 149.685
L266.64 168.122
L266.919 173.708
L267.198 175.052
L267.477 175.339
L268.314 175.433
L278.916 175.369
L279.474 175.365
L280.032 175.365
L280.032 175.365" style="fill:none;stroke:#0000ff;stroke-linecap:square;"/>
   </g>
   <g id="matplotlib.axis_1">
    <g id="xtick_1">
     <g id="line2d_2">
      <defs>
       <path d="
M0 0
L0 -4" id="m93b0483c22" style="stroke:#000000;stroke-width:0.5;"/>
      </defs>
      <g>
       <use style="stroke:#000000;stroke-width:0.5;" x="56.97" xlink:href="#m93b0483c22" y="185.806875"/>
      </g>
     </g>
     <g id="line2d_3">
      <defs>
       <path d="
M0 0
L0 4" id="m741efc42ff" style="stroke:#000000;stroke-width:0.5;"/>
      </defs>
      <g>
       <use style="stroke:#000000;stroke-width:0.5;" x="56.97" xlink:href="#m741efc42ff" y="13.006875"/>
      </g>
     </g>
     <g id="text_1">
      <text style="font-family:DejaVu Sans;font-size:12.0px;font-style:normal;" transform="translate(59.0474806635 198.607661236)rotate(-70.0)">0</text>
     </g>
    </g>
    <g id="xtick_2">
     <g id="line2d_4">
      <g>
       <use style="stroke:#000000;stroke-width:0.5;" x="84.87" xlink:href="#m93b0483c22" y="185.806875"/>
      </g>
     </g>
     <g id="line2d_5">
      <g>
       <use style="stroke:#000000;stroke-width:0.5;" x="84.87" xlink:href="#m741efc42ff" y="13.006875"/>
      </g>
     </g>
     <g id="text_2">
      <text style="font-family:DejaVu Sans;font-size:12.0px;font-style:normal;" transform="translate(85.6568890289 205.699403983)rotate(-70.0)">20</text>
     </g>
    </g>
    <g id="xtick_3">
     <g id="line2d_6">
      <g>
       <use style="stroke:#000000;stroke-width:0.5;" x="112.77" xlink:href="#m93b0483c22" y="185.806875"/>
      </g>
     </g>
     <g id="line2d_7">
      <g>
       <use style="stroke:#000000;stroke-width:0.5;" x="112.77" xlink:href="#m741efc42ff" y="13.006875"/>
      </g>
     </g>
     <g id="text_3">
      <text style="font-family:DejaVu Sans;font-size:12.0px;font-style:normal;" transform="translate(113.506868583 205.974264075)rotate(-70.0)">40</text>
     </g>
    </g>
    <g id="xtick_4">
     <g id="line2d_8">
      <g>
       <use style="stroke:#000000;stroke-width:0.5;" x="140.67" xlink:href="#m93b0483c22" y="185.806875"/>
      </g>
     </g>
     <g id="line2d_9">
      <g>
       <use style="stroke:#000000;stroke-width:0.5;" x="140.67" xlink:href="#m741efc42ff" y="13.006875"/>
      </g>
     </g>
     <g id="text_4">
      <text style="font-family:DejaVu Sans;font-size:12.0px;font-style:normal;" transform="translate(141.449834863 205.738166304)rotate(-70.0)">60</text>
     </g>
    </g>
    <g id="xtick_5">
     <g id="line2d_10">
      <g>
       <use style="stroke:#000000;stroke-width:0.5;" x="168.57" xlink:href="#m93b0483c22" y="185.806875"/>
      </g>
     </g>
     <g id="line2d_11">
      <g>
       <use style="stroke:#000000;stroke-width:0.5;" x="168.57" xlink:href="#m741efc42ff" y="13.006875"/>
      </g>
     </g>
     <g id="text_5">
      <text style="font-family:DejaVu Sans;font-size:12.0px;font-style:normal;" transform="translate(169.345666493 205.761071311)rotate(-70.0)">80</text>
     </g>
    </g>
    <g id="xtick_6">
     <g id="line2d_12">
      <g>
       <use style="stroke:#000000;stroke-width:0.5;" x="196.47" xlink:href="#m93b0483c22" y="185.806875"/>
      </g>
     </g>
     <g id="line2d_13">
      <g>
       <use style="stroke:#000000;stroke-width:0.5;" x="196.47" xlink:href="#m741efc42ff" y="13.006875"/>
      </g>
     </g>
     <g id="text_6">
      <text style="font-family:DejaVu Sans;font-size:12.0px;font-style:normal;" transform="translate(196.026257801 212.461667006)rotate(-70.0)">100</text>
     </g>
    </g>
    <g id="xtick_7">
     <g id="line2d_14">
      <g>
       <use style="stroke:#000000;stroke-width:0.5;" x="224.37" xlink:href="#m93b0483c22" y="185.806875"/>
      </g>
     </g>
     <g id="line2d_15">
      <g>
       <use style="stroke:#000000;stroke-width:0.5;" x="224.37" xlink:href="#m741efc42ff" y="13.006875"/>
      </g>
     </g>
     <g id="text_7">
      <text style="font-family:DejaVu Sans;font-size:12.0px;font-style:normal;" transform="translate(223.926257801 212.461667006)rotate(-70.0)">120</text>
     </g>
    </g>
    <g id="xtick_8">
     <g id="line2d_16">
      <g>
       <use style="stroke:#000000;stroke-width:0.5;" x="252.27" xlink:href="#m93b0483c22" y="185.806875"/>
      </g>
     </g>
     <g id="line2d_17">
      <g>
       <use style="stroke:#000000;stroke-width:0.5;" x="252.27" xlink:href="#m741efc42ff" y="13.006875"/>
      </g>
     </g>
     <g id="text_8">
      <text style="font-family:DejaVu Sans;font-size:12.0px;font-style:normal;" transform="translate(251.826257801 212.461667006)rotate(-70.0)">140</text>
     </g>
    </g>
    <g id="xtick_9">
     <g id="line2d_18">
      <g>
       <use style="stroke:#000000;stroke-width:0.5;" x="280.17" xlink:href="#m93b0483c22" y="185.806875"/>
      </g>
     </g>
     <g id="line2d_19">
      <g>
       <use style="stroke:#000000;stroke-width:0.5;" x="280.17" xlink:href="#m741efc42ff" y="13.006875"/>
      </g>
     </g>
     <g id="text_9">
      <text style="font-family:DejaVu Sans;font-size:12.0px;font-style:normal;" transform="translate(279.726257801 212.461667006)rotate(-70.0)">160</text>
     </g>
    </g>
    <g id="text_10">
     <text style="font-family:DejaVu Sans;font-size:12.0px;font-style:normal;text-anchor:middle;" transform="rotate(-0.000000, 168.570000, 227.433346)" x="168.57" y="227.433346026">Timesteps [1000]</text>
    </g>
   </g>
   <g id="matplotlib.axis_2">
    <g id="ytick_1">
     <g id="line2d_20">
      <defs>
       <path d="
M0 0
L4 0" id="m728421d6d4" style="stroke:#000000;stroke-width:0.5;"/>
      </defs>
      <g>
       <use style="stroke:#000000;stroke-width:0.5;" x="56.97" xlink:href="#m728421d6d4" y="185.806875"/>
      </g>
     </g>
     <g id="line2d_21">
      <defs>
       <path d="
M0 0
L-4 0" id="mcb0005524f" style="stroke:#000000;stroke-width:0.5;"/>
      </defs>
      <g>
       <use style="stroke:#000000;stroke-width:0.5;" x="280.17" xlink:href="#mcb0005524f" y="185.806875"/>
      </g>
     </g>
     <g id="text_11">
      <text style="font-family:DejaVu Sans;font-size:12.0px;font-style:normal;text-anchor:end;" transform="rotate(-0.000000, 52.970000, 189.118125)" x="52.97" y="189.118125">0</text>
     </g>
    </g>
    <g id="ytick_2">
     <g id="line2d_22">
      <g>
       <use style="stroke:#000000;stroke-width:0.5;" x="56.97" xlink:href="#m728421d6d4" y="151.246875"/>
      </g>
     </g>
     <g id="line2d_23">
      <g>
       <use style="stroke:#000000;stroke-width:0.5;" x="280.17" xlink:href="#mcb0005524f" y="151.246875"/>
      </g>
     </g>
     <g id="text_12">
      <text style="font-family:DejaVu Sans;font-size:12.0px;font-style:normal;text-anchor:end;" transform="rotate(-0.000000, 52.970000, 154.558125)" x="52.97" y="154.558125">1000</text>
     </g>
    </g>
    <g id="ytick_3">
     <g id="line2d_24">
      <g>
       <use style="stroke:#000000;stroke-width:0.5;" x="56.97" xlink:href="#m728421d6d4" y="116.686875"/>
      </g>
     </g>
     <g id="line2d_25">
      <g>
       <use style="stroke:#000000;stroke-width:0.5;" x="280.17" xlink:href="#mcb0005524f" y="116.686875"/>
      </g>
     </g>
     <g id="text_13">
      <text style="font-family:DejaVu Sans;font-size:12.0px;font-style:normal;text-anchor:end;" transform="rotate(-0.000000, 52.970000, 119.998125)" x="52.97" y="119.998125">2000</text>
     </g>
    </g>
    <g id="ytick_4">
     <g id="line2d_26">
      <g>
       <use style="stroke:#000000;stroke-width:0.5;" x="56.97" xlink:href="#m728421d6d4" y="82.126875"/>
      </g>
     </g>
     <g id="line2d_27">
      <g>
       <use style="stroke:#000000;stroke-width:0.5;" x="280.17" xlink:href="#mcb0005524f" y="82.126875"/>
      </g>
     </g>
     <g id="text_14">
      <text style="font-family:DejaVu Sans;font-size:12.0px;font-style:normal;text-anchor:end;" transform="rotate(-0.000000, 52.970000, 85.438125)" x="52.97" y="85.438125">3000</text>
     </g>
    </g>
    <g id="ytick_5">
     <g id="line2d_28">
      <g>
       <use style="stroke:#000000;stroke-width:0.5;" x="56.97" xlink:href="#m728421d6d4" y="47.566875"/>
      </g>
     </g>
     <g id="line2d_29">
      <g>
       <use style="stroke:#000000;stroke-width:0.5;" x="280.17" xlink:href="#mcb0005524f" y="47.566875"/>
      </g>
     </g>
     <g id="text_15">
      <text style="font-family:DejaVu Sans;font-size:12.0px;font-style:normal;text-anchor:end;" transform="rotate(-0.000000, 52.970000, 50.878125)" x="52.97" y="50.878125">4000</text>
     </g>
    </g>
    <g id="ytick_6">
     <g id="line2d_30">
      <g>
       <use style="stroke:#000000;stroke-width:0.5;" x="56.97" xlink:href="#m728421d6d4" y="13.006875"/>
      </g>
     </g>
     <g id="line2d_31">
      <g>
       <use style="stroke:#000000;stroke-width:0.5;" x="280.17" xlink:href="#mcb0005524f" y="13.006875"/>
      </g>
     </g>
     <g id="text_16">
      <text style="font-family:DejaVu Sans;font-size:12.0px;font-style:normal;text-anchor:end;" transform="rotate(-0.000000, 52.970000, 16.318125)" x="52.97" y="16.318125">5000</text>
     </g>
    </g>
    <g id="text_17">
     <text style="font-family:DejaVu Sans;font-size:12.0px;font-style:normal;text-anchor:middle;" transform="rotate(-90.000000, 16.318125, 99.406875)" x="16.318125" y="99.406875">Temeprature [K]</text>
    </g>
   </g>
   <g id="patch_3">
    <path d="
M56.97 13.0069
L280.17 13.0069" style="fill:none;stroke:#000000;"/>
   </g>
   <g id="patch_4">
    <path d="
M280.17 185.807
L280.17 13.0069" style="fill:none;stroke:#000000;"/>
   </g>
   <g id="patch_5">
    <path d="
M56.97 185.807
L280.17 185.807" style="fill:none;stroke:#000000;"/>
   </g>
   <g id="patch_6">
    <path d="
M56.97 185.807
L56.97 13.0069" style="fill:none;stroke:#000000;"/>
   </g>
  </g>
 </g>
 <defs>
  <clipPath id="pd32e96cb8f">
   <rect height="172.8" width="223.2" x="56.97" y="13.006875"/>
  </clipPath>
 </defs>
</svg>
