<?xml version="1.0" encoding="UTF-8" standalone="no"?>
<!-- Created with matplotlib (http://matplotlib.org/) -->

<svg
   xmlns:dc="http://purl.org/dc/elements/1.1/"
   xmlns:cc="http://creativecommons.org/ns#"
   xmlns:rdf="http://www.w3.org/1999/02/22-rdf-syntax-ns#"
   xmlns:svg="http://www.w3.org/2000/svg"
   xmlns="http://www.w3.org/2000/svg"
   xmlns:xlink="http://www.w3.org/1999/xlink"
   xmlns:sodipodi="http://sodipodi.sourceforge.net/DTD/sodipodi-0.dtd"
   xmlns:inkscape="http://www.inkscape.org/namespaces/inkscape"
   height="196pt"
   version="1.1"
   viewBox="0 0 240 196"
   width="240pt"
   id="svg3525"
   inkscape:version="0.48.4 r9939"
   sodipodi:docname="system02_total_energy_thermalized_custom.svg">
  <metadata
     id="metadata3738">
    <rdf:RDF>
      <cc:Work
         rdf:about="">
        <dc:format>image/svg+xml</dc:format>
        <dc:type
           rdf:resource="http://purl.org/dc/dcmitype/StillImage" />
        <dc:title></dc:title>
      </cc:Work>
    </rdf:RDF>
  </metadata>
  <sodipodi:namedview
     pagecolor="#ffffff"
     bordercolor="#666666"
     borderopacity="1"
     objecttolerance="10"
     gridtolerance="10"
     guidetolerance="10"
     inkscape:pageopacity="0"
     inkscape:pageshadow="2"
     inkscape:window-width="1912"
     inkscape:window-height="1155"
     id="namedview3736"
     showgrid="false"
     inkscape:zoom="3.9632653"
     inkscape:cx="150"
     inkscape:cy="122.5"
     inkscape:window-x="0"
     inkscape:window-y="220"
     inkscape:window-maximized="0"
     inkscape:current-layer="svg3525" />
  <defs
     id="defs3527">
    <style
       type="text/css"
       id="style3529">
*{stroke-linecap:butt;stroke-linejoin:round;}
  </style>
  </defs>
  <g
     id="figure_1">
    <g
       id="patch_1">
      <path
         d=" M0 196.986 L240.645 196.986 L240.645 0 L0 0 z "
         style="fill:#ffffff;"
         id="path3533" />
    </g>
    <g
       id="axes_1">
      <g
         id="patch_2">
        <path
           d=" M54.885 157.558 L233.445 157.558 L233.445 19.3181 L54.885 19.3181 z "
           style="fill:#ffffff;"
           id="path3537" />
      </g>
      <g
         id="line2d_1">
        <path
           clip-path="url(#p5d5a68adfe)"
           d=" M59.3082 105.744 L59.4782 110.505 L59.6483 105.59 L59.8184 106.307 L59.9884 134.825 L60.1585 114.704 L60.3285 119.107 L60.4986 118.902 L60.8387 124.79 L61.0088 125.405 L61.3489 120.797 L61.859 106.153 L62.0291 107.075 L62.5393 130.064 L62.7093 124.944 L62.8794 132.112 L63.0494 132.521 L63.2195 124.893 L63.3896 128.835 L63.5596 126.377 L63.7297 127.504 L64.0698 117.469 L64.2398 102.979 L64.4099 112.553 L64.58 99.7533 L64.75 98.0637 L64.9201 107.177 L65.0901 127.35 L65.2602 129.859 L65.4302 130.473 L65.6003 134.365 L65.7704 124.688 L66.1105 137.641 L66.2805 107.28 L66.4506 99.8557 L66.6206 108.406 L66.7907 128.733 L66.9608 127.248 L67.1308 132.931 L67.3009 128.579 L67.4709 130.013 L67.9811 151.209 L68.3212 132.061 L68.6613 139.024 L68.8314 120.438 L69.0014 125.917 L69.1715 117.008 L69.3416 121.206 L69.5116 129.347 L69.6817 126.633 L70.0218 111.632 L70.1918 108.56 L70.3619 98.3197 L70.532 128.63 L70.702 115.933 L70.8721 119.158 L71.0421 134.262 L71.2122 111.683 L71.3822 130.269 L71.5523 135.03 L71.7224 133.699 L72.0625 115.523 L72.2325 109.225 L72.4026 98.4733 L72.5726 115.216 L72.7427 117.929 L72.9128 128.528 L73.0828 125.097 L73.2529 116.598 L73.4229 101.443 L73.593 102.825 L73.763 123.664 L73.9331 118.288 L74.1032 117.725 L74.2732 114.755 L74.6133 99.5485 L74.9534 112.656 L75.2936 99.6509 L75.4636 120.899 L75.6337 118.39 L75.8037 102.467 L75.9738 114.755 L76.1438 101.801 L76.3139 118.493 L76.484 107.229 L76.654 103.491 L76.8241 106.921 L76.9941 102.211 L77.5043 138.409 L77.6744 132.777 L77.8444 116.701 L78.0145 124.637 L78.1845 139.587 L78.3546 139.587 L78.6947 112.963 L78.8648 114.294 L79.0348 108.406 L79.3749 125.149 L79.545 117.981 L79.715 118.544 L79.8851 116.598 L80.0552 105.949 L80.2252 105.744 L80.3953 107.638 L80.5653 94.4797 L80.7354 102.057 L80.9054 91.9197 L81.4156 118.185 L81.5857 118.544 L81.7557 130.371 L81.9258 122.845 L82.2659 98.2685 L82.436 105.078 L82.606 100.675 L82.7761 125.712 L83.7964 96.0669 L83.9665 110.915 L84.1365 111.529 L84.3066 101.75 L84.4766 121.667 L84.6467 102.211 L84.8168 109.993 L84.9868 111.12 L85.1569 98.6269 L85.3269 114.601 L85.497 109.737 L85.667 110.557 L86.0072 90.8445 L86.1772 99.3949 L86.3473 98.4733 L86.5173 105.283 L86.6874 106.358 L86.8574 100.726 L87.0275 110.813 L87.1976 101.699 L87.3676 101.085 L87.5377 104.361 L87.7077 100.982 L87.8778 120.131 L88.0478 98.8317 L88.2179 92.3293 L88.558 111.273 L88.7281 104.157 L88.8981 102.518 L89.0682 98.1661 L89.2382 114.755 L89.4083 115.062 L89.5784 108.355 L89.7484 117.981 L89.9185 111.069 L90.0885 122.947 L90.2586 123.92 L90.4286 112.912 L90.5987 120.182 L90.7688 138.409 L91.2789 95.2989 L91.449 95.5549 L91.619 91.2541 L91.7891 121.104 L91.9592 115.779 L92.1292 120.592 L92.2993 112.553 L92.4693 122.23 L92.6394 110.966 L92.8094 114.499 L92.9795 104.771 L93.1496 108.457 L93.3196 95.5037 L93.4897 92.7901 L93.8298 75.1261 L93.9998 78.9149 L94.1699 76.6621 L94.34 86.6973 L94.51 83.8813 L94.6801 98.0125 L94.8501 100.777 L95.0202 96.6301 L95.1902 78.5053 L95.3603 105.232 L95.5304 101.341 L95.7004 105.488 L96.0405 86.1853 L96.3806 94.2237 L96.5507 88.7965 L96.8908 102.774 L97.0609 109.021 L97.2309 94.9405 L97.401 93.4045 L97.7411 106.717 L97.9112 91.4589 L98.2513 119.312 L98.5914 103.184 L98.7614 116.598 L98.9315 102.262 L99.1016 98.6269 L99.2716 92.2269 L99.4417 110.915 L99.6117 116.086 L99.7818 94.7869 L99.9518 106.256 L100.122 128.733 L100.462 101.033 L100.802 116.547 L100.972 111.376 L101.142 100.163 L101.312 107.024 L101.482 105.897 L101.652 114.653 L101.993 98.0125 L102.163 96.7837 L102.503 112.758 L102.673 97.0397 L102.843 125.558 L103.183 111.376 L103.523 87.2605 L103.863 107.843 L104.033 106.665 L104.203 96.7325 L104.373 95.5037 L104.543 97.7053 L104.884 107.741 L105.224 78.6077 L105.394 80.1949 L105.564 72.8221 L105.734 93.4557 L105.904 90.8445 L106.074 100.317 L106.244 100.675 L106.414 95.1965 L106.754 77.7373 L106.924 80.6557 L107.094 85.8781 L107.434 76.1501 L107.774 82.9597 L107.945 94.8381 L108.115 97.1933 L108.285 88.3869 L108.455 89.4621 L108.625 121.667 L108.795 116.649 L108.965 103.389 L109.135 101.136 L109.305 84.9565 L109.475 102.211 L109.645 97.3469 L109.815 82.1917 L109.985 77.2765 L110.155 88.1821 L110.325 85.1101 L110.495 91.9197 L110.665 107.587 L110.836 103.849 L111.006 95.4525 L111.176 72.4125 L111.346 99.3949 L111.516 86.7485 L111.686 112.451 L111.856 111.581 L112.026 98.1149 L112.196 96.4765 L112.366 102.518 L112.706 126.019 L113.046 117.161 L113.216 98.1661 L113.386 109.686 L113.726 102.109 L113.897 101.341 L114.067 87.5165 L114.237 101.904 L114.407 100.726 L114.577 101.238 L114.747 121.565 L114.917 105.795 L115.087 104.413 L115.257 118.032 L115.427 103.952 L115.597 112.707 L115.767 106 L115.937 78.3517 L116.107 78.9661 L116.617 111.427 L116.788 102.723 L116.958 106.256 L117.128 115.779 L117.468 99.9069 L117.638 101.392 L117.808 112.861 L117.978 107.536 L118.148 91.3565 L118.318 91.7149 L118.658 113.219 L118.828 92.8413 L118.998 106.973 L119.168 93.7629 L119.338 95.4525 L119.508 92.1245 L119.678 76.9693 L119.849 79.4781 L120.019 73.5389 L120.359 106.102 L120.529 120.745 L120.869 94.5309 L121.039 87.7213 L121.209 107.792 L121.379 107.177 L121.549 100.009 L121.719 104.413 L121.889 121.309 L122.059 122.845 L122.229 106 L122.399 125.712 L122.74 108.713 L122.91 108.253 L123.08 104.157 L123.25 106.205 L123.42 102.109 L123.59 84.4445 L123.93 92.4317 L124.1 92.9437 L124.27 96.6301 L124.44 108.304 L124.61 98.5757 L124.95 100.368 L125.29 92.0733 L125.63 105.846 L125.801 101.341 L126.141 124.073 L126.311 116.803 L126.481 116.905 L126.651 124.944 L126.821 109.277 L126.991 123.92 L127.161 119.875 L127.331 119.875 L128.011 89.4109 L128.351 108.56 L128.521 105.437 L128.692 97.0397 L128.862 108.457 L129.032 99.1901 L129.202 110.557 L129.372 95.7597 L129.542 112.963 L129.712 117.776 L129.882 113.987 L130.052 113.731 L130.222 110.557 L130.392 111.273 L130.562 97.3469 L130.902 126.685 L131.242 114.806 L131.412 102.518 L131.582 104.976 L131.923 121.001 L132.093 106.205 L132.263 103.286 L132.433 107.229 L132.603 106.153 L132.773 115.728 L132.943 108.15 L133.453 128.067 L133.623 120.131 L133.793 122.486 L133.963 85.5197 L134.133 87.3117 L134.303 71.8493 L134.473 79.2221 L134.644 79.1197 L134.814 82.2429 L134.984 101.238 L135.324 83.5229 L135.494 87.9261 L135.664 78.8125 L136.004 100.777 L136.174 124.585 L136.344 106.409 L136.514 127.094 L136.684 106.563 L136.854 111.069 L137.024 108.765 L137.194 88.7965 L137.364 102.979 L137.534 98.3197 L137.705 106.717 L137.875 93.6093 L138.045 101.238 L138.215 102.416 L138.555 78.5565 L138.725 84.6493 L138.895 109.635 L139.065 92.7389 L139.235 99.1389 L139.405 83.7789 L139.575 80.0925 L139.745 73.7949 L140.085 110.71 L140.255 103.798 L140.425 103.337 L140.596 88.9501 L140.936 86.6461 L141.106 91.7149 L141.276 84.5981 L141.446 89.9229 L141.616 86.3389 L141.786 95.6061 L141.956 91.5101 L142.126 100.009 L142.296 77.0205 L142.636 83.5741 L142.806 76.7645 L142.976 94.4797 L143.146 97.7565 L143.316 80.9117 L143.486 84.5469 L143.657 78.0445 L143.827 65.5005 L143.997 68.2653 L144.167 67.7021 L144.337 97.6541 L144.507 92.4317 L144.677 105.488 L144.847 102.006 L145.017 87.8237 L145.187 86.7485 L145.357 83.4717 L145.527 85.7245 L145.697 76.6109 L146.037 99.9581 L146.207 99.5485 L146.377 111.069 L146.548 104.361 L146.718 107.741 L146.888 82.3965 L147.228 103.696 L147.568 78.9661 L147.738 84.2397 L147.908 78.7101 L148.078 97.6541 L148.248 102.16 L148.418 102.262 L148.588 105.129 L148.758 115.472 L149.268 83.9837 L149.438 82.9085 L149.609 67.3949 L149.779 66.5757 L149.949 58.7421 L150.289 88.7453 L150.459 81.4749 L150.629 89.1037 L150.799 87.9261 L150.969 102.672 L151.139 101.392 L151.309 96.9373 L151.479 101.187 L151.649 96.1693 L151.989 104.413 L152.329 92.7389 L152.67 88.5405 L153.01 100.317 L153.18 98.1149 L153.35 94.1213 L153.52 83.5741 L153.86 80.4509 L154.03 81.3213 L154.37 103.542 L154.54 109.993 L154.71 93.0973 L154.88 96.8861 L155.22 83.4717 L155.39 88.7965 L155.561 105.334 L155.731 97.0909 L155.901 94.3261 L156.071 87.3117 L156.241 97.6029 L156.411 81.7309 L156.581 82.8061 L156.751 63.7597 L157.091 87.6189 L157.261 95.1453 L157.431 87.6701 L157.601 88.6941 L157.771 86.1853 L157.941 95.8621 L158.111 68.1629 L158.281 64.0669 L158.622 90.7421 L158.792 107.177 L158.962 87.8749 L159.132 90.4349 L159.302 94.8893 L159.472 70.3645 L159.642 83.6253 L159.982 65.9101 L160.152 62.4285 L160.662 91.9709 L160.832 72.5149 L161.002 69.8013 L161.172 83.2157 L161.513 77.1741 L161.853 89.3085 L162.023 89.2061 L162.193 75.9965 L162.363 90.6397 L162.533 93.0973 L162.873 69.8013 L163.043 91.1517 L163.213 91.9197 L163.383 79.5293 L163.553 81.4237 L163.893 75.6893 L164.063 84.8029 L164.233 69.8013 L164.404 70.2621 L164.574 77.6349 L164.744 79.7341 L164.914 89.0525 L165.254 83.4205 L165.424 90.5373 L165.594 81.8845 L165.764 92.8413 L165.934 88.4893 L166.104 80.9629 L166.444 100.624 L166.614 88.1821 L166.784 86.5949 L166.954 99.1901 L167.124 83.8813 L167.294 83.8301 L167.635 94.6333 L167.805 95.1453 L167.975 83.7789 L168.145 81.3213 L168.315 108.662 L168.485 102.723 L168.655 87.1069 L168.825 82.3453 L168.995 93.2509 L169.165 90.6909 L169.335 90.8445 L169.505 87.3117 L169.675 88.0285 L170.015 104.413 L170.185 102.723 L170.356 105.744 L170.526 106.256 L170.866 73.0781 L171.376 96.3741 L171.716 80.8093 L171.886 79.8877 L172.226 62.4797 L172.396 91.1517 L172.736 97.6541 L173.076 74.7677 L173.246 83.5741 L173.417 84.0349 L173.927 108.099 L174.437 74.0509 L174.607 88.7453 L174.777 76.2013 L174.947 86.4413 L175.117 110.557 L175.287 101.033 L175.457 79.0173 L175.627 86.7485 L175.797 100.88 L175.967 93.8141 L176.137 91.9197 L176.308 88.4381 L176.478 98.2173 L176.648 92.0733 L176.818 92.1757 L176.988 100.265 L177.158 89.6157 L177.328 89.0013 L177.498 74.5629 L177.838 82.6525 L178.178 99.8557 L178.348 107.587 L178.518 87.0557 L178.858 76.6109 L179.028 91.1005 L179.198 77.3789 L179.369 105.59 L179.539 96.7325 L179.709 105.283 L179.879 98.2173 L180.049 111.222 L180.219 114.601 L180.559 91.3053 L180.729 107.741 L181.069 99.0877 L181.239 87.3117 L181.409 91.9197 L181.579 90.0253 L181.749 96.3741 L182.089 75.7917 L182.77 108.099 L182.94 85.8781 L183.28 105.488 L183.45 92.4829 L183.62 98.8317 L183.79 97.8077 L184.13 84.3933 L184.3 97.6541 L184.47 95.3501 L184.64 106.307 L184.81 92.2781 L184.98 104.925 L185.15 106.461 L185.321 117.622 L185.491 119.619 L185.661 119.005 L185.831 114.755 L186.001 116.905 L186.171 94.1213 L186.681 72.7197 L187.021 112.963 L187.191 113.731 L187.361 107.894 L187.701 85.3149 L187.871 83.6765 L188.041 84.2397 L188.212 67.2413 L188.552 96.2205 L188.722 98.1661 L188.892 111.017 L189.232 92.4829 L189.402 92.0733 L189.742 59.4589 L190.252 93.3533 L190.422 92.2269 L190.592 76.3549 L190.932 87.6701 L191.102 83.1645 L191.273 98.2173 L191.443 62.4285 L191.613 59.7149 L191.783 66.3197 L191.953 82.4989 L192.123 77.7885 L192.293 76.3037 L192.463 70.6717 L192.633 73.1805 L192.803 66.2173 L192.973 74.4093 L193.143 89.9741 L193.313 120.336 L193.483 90.9469 L193.653 84.3421 L193.823 101.904 L193.993 78.1981 L194.164 84.1373 L194.334 71.5421 L194.674 97.0909 L194.844 84.8541 L195.014 95.8109 L195.184 98.5757 L195.354 94.3773 L195.524 100.368 L195.694 90.8445 L195.864 66.2685 L196.034 64.4765 L196.204 80.3485 L196.374 79.1197 L196.544 81.4749 L196.714 69.1869 L196.884 75.6893 L197.054 69.4429 L197.225 83.5229 L197.565 52.1373 L197.735 71.6957 L197.905 74.4093 L198.245 52.7005 L198.415 68.2653 L198.585 60.5853 L198.755 67.0365 L198.925 68.0093 L199.095 60.5341 L199.265 58.3837 L199.435 59.7149 L199.605 66.9341 L199.775 66.9341 L200.116 77.7885 L200.286 65.5005 L200.456 62.4285 L200.626 77.0205 L200.796 47.7341 L200.966 50.4989 L201.136 61.0461 L201.306 60.8413 L201.476 62.8893 L201.646 71.9517 L201.816 65.0397 L202.156 46.3517 L202.326 56.2333 L202.496 57.6157 L202.666 49.0653 L202.836 54.1341 L203.006 45.6349 L203.177 51.2157 L203.347 42.3069 L203.517 41.3853 L203.687 49.2189 L203.857 31.0429 L204.027 42.5117 L204.197 37.3405 L204.367 49.8845 L204.537 51.3693 L204.707 56.8989 L204.877 53.7245 L205.047 47.5805 L205.217 49.3213 L205.387 55.9261 L205.557 50.9597 L205.727 59.5613 L205.897 38.6205 L206.068 47.5805 L206.238 25.7181 L206.408 45.3789 L206.578 35.9581 L206.748 46.9661 L207.088 75.8941 L207.258 82.6525 L207.428 69.1869 L207.598 73.1293 L207.938 50.3965 L208.108 57.6157 L208.278 49.7821 L208.448 66.2173 L208.618 61.9165 L208.788 62.6333 L208.958 50.1405 L209.129 45.8909 L209.299 47.5293 L209.469 64.5789 L209.639 61.6605 L209.809 55.4653 L209.979 55.2605 L210.149 47.2221 L210.319 45.3277 L210.489 51.3693 L210.829 75.0237 L210.999 49.1677 L211.169 49.8333 L211.679 81.5261 L212.02 70.2621 L212.19 69.8013 L212.36 49.7309 L212.53 71.9005 L212.87 51.9837 L213.21 64.8349 L213.38 43.2285 L213.55 49.3213 L213.72 50.7037 L213.89 40.1053 L214.06 42.4093 L214.23 34.6781 L214.57 66.2173 L214.74 65.0909 L214.91 72.0029 L215.081 90.6397 L215.251 77.7373 L215.421 78.5565 L215.591 77.6861 L215.931 57.2061 L216.101 49.6285 L216.271 56.0285 L216.441 54.4925 L216.611 58.3325 L216.781 73.5901 L216.951 65.1421 L217.121 69.9549 L217.291 66.4733 L217.631 51.1645 L217.801 70.4669 L217.972 74.0509 L218.482 45.0717 L218.652 58.6397 L218.992 60.4317 L219.332 91.1005 L219.502 82.5501 L219.842 78.8637 L220.012 79.2221 L220.352 42.3581 L220.862 58.3325 L221.033 43.2797 L221.203 49.0653 L221.373 42.9725 L221.713 72.5661 L222.223 40.0029 L222.393 69.2893 L222.563 67.5485 L222.903 69.2893 L223.073 72.9245 L223.243 69.5965 L223.583 40.6685 L223.753 68.6237 L223.924 50.7549 L224.094 52.6493 L224.264 66.0637 L224.434 45.6861 L224.604 58.1789 L224.774 60.9437 L224.944 70.0573 L225.284 57.5133 L225.454 51.3693 L225.624 35.8557 L225.794 45.0717 L225.964 61.8653 L226.134 66.8317 L226.474 85.4173 L226.644 68.8285 L226.985 67.2413 L227.155 75.3309 L227.325 74.3069 L227.495 57.2061 L227.665 69.2893 L227.835 64.6301 L228.175 70.2109 L228.515 38.6205 L228.685 35.1901 L229.025 62.3773 L229.195 65.8589 L229.195 65.8589"
           style="fill:none;stroke:#0000ff;stroke-linecap:square;"
           id="path3540" />
      </g>
      <g
         id="matplotlib.axis_1">
        <g
           id="xtick_1">
          <g
             id="line2d_2">
            <defs
               id="defs3545">
              <path
                 d=" M0 0 L0 -4"
                 id="m93b0483c22"
                 style="stroke:#000000;stroke-width:0.5;" />
            </defs>
            <g
               id="g3548">
              <use
                 style="stroke:#000000;stroke-width:0.5;"
                 x="80.3935714286"
                 xlink:href="#m93b0483c22"
                 y="157.558125"
                 id="use3550" />
            </g>
          </g>
          <g
             id="line2d_3">
            <defs
               id="defs3553">
              <path
                 d=" M0 0 L0 4"
                 id="m741efc42ff"
                 style="stroke:#000000;stroke-width:0.5;" />
            </defs>
            <g
               id="g3556">
              <use
                 style="stroke:#000000;stroke-width:0.5;"
                 x="80.3935714286"
                 xlink:href="#m741efc42ff"
                 y="19.318125"
                 id="use3558" />
            </g>
          </g>
          <g
             id="text_1">
            <text
               style="font-family:DejaVu Sans;font-size:12.0px;font-style:normal;text-anchor:middle;"
               transform="rotate(-0.000000, 80.393571, 170.676250)"
               x="80.3935714286"
               y="170.67625"
               id="text3561">500</text>
          </g>
        </g>
        <g
           id="xtick_2">
          <g
             id="line2d_4">
            <g
               id="g3565">
              <use
                 style="stroke:#000000;stroke-width:0.5;"
                 x="114.405"
                 xlink:href="#m93b0483c22"
                 y="157.558125"
                 id="use3567" />
            </g>
          </g>
          <g
             id="line2d_5">
            <g
               id="g3570">
              <use
                 style="stroke:#000000;stroke-width:0.5;"
                 x="114.405"
                 xlink:href="#m741efc42ff"
                 y="19.318125"
                 id="use3572" />
            </g>
          </g>
          <g
             id="text_2">
            <text
               style="font-family:DejaVu Sans;font-size:12.0px;font-style:normal;text-anchor:middle;"
               transform="rotate(-0.000000, 114.405000, 170.676250)"
               x="114.405"
               y="170.67625"
               id="text3575">520</text>
          </g>
        </g>
        <g
           id="xtick_3">
          <g
             id="line2d_6">
            <g
               id="g3579">
              <use
                 style="stroke:#000000;stroke-width:0.5;"
                 x="148.416428571"
                 xlink:href="#m93b0483c22"
                 y="157.558125"
                 id="use3581" />
            </g>
          </g>
          <g
             id="line2d_7">
            <g
               id="g3584">
              <use
                 style="stroke:#000000;stroke-width:0.5;"
                 x="148.416428571"
                 xlink:href="#m741efc42ff"
                 y="19.318125"
                 id="use3586" />
            </g>
          </g>
          <g
             id="text_3">
            <text
               style="font-family:DejaVu Sans;font-size:12.0px;font-style:normal;text-anchor:middle;"
               transform="rotate(-0.000000, 148.416429, 170.676250)"
               x="148.416428571"
               y="170.67625"
               id="text3589">540</text>
          </g>
        </g>
        <g
           id="xtick_4">
          <g
             id="line2d_8">
            <g
               id="g3593">
              <use
                 style="stroke:#000000;stroke-width:0.5;"
                 x="182.427857143"
                 xlink:href="#m93b0483c22"
                 y="157.558125"
                 id="use3595" />
            </g>
          </g>
          <g
             id="line2d_9">
            <g
               id="g3598">
              <use
                 style="stroke:#000000;stroke-width:0.5;"
                 x="182.427857143"
                 xlink:href="#m741efc42ff"
                 y="19.318125"
                 id="use3600" />
            </g>
          </g>
          <g
             id="text_4">
            <text
               style="font-family:DejaVu Sans;font-size:12.0px;font-style:normal;text-anchor:middle;"
               transform="rotate(-0.000000, 182.427857, 170.676250)"
               x="182.427857143"
               y="170.67625"
               id="text3603">560</text>
          </g>
        </g>
        <g
           id="xtick_5">
          <g
             id="line2d_10">
            <g
               id="g3607">
              <use
                 style="stroke:#000000;stroke-width:0.5;"
                 x="216.439285714"
                 xlink:href="#m93b0483c22"
                 y="157.558125"
                 id="use3609" />
            </g>
          </g>
          <g
             id="line2d_11">
            <g
               id="g3612">
              <use
                 style="stroke:#000000;stroke-width:0.5;"
                 x="216.439285714"
                 xlink:href="#m741efc42ff"
                 y="19.318125"
                 id="use3614" />
            </g>
          </g>
          <g
             id="text_5">
            <text
               style="font-family:DejaVu Sans;font-size:12.0px;font-style:normal;text-anchor:middle;"
               transform="rotate(-0.000000, 216.439286, 170.676250)"
               x="216.439285714"
               y="170.67625"
               id="text3617">580</text>
          </g>
        </g>
        <g
           id="text_6">
          <text
             style="font-family:DejaVu Sans;font-size:12.0px;font-style:normal;text-anchor:middle;"
             transform="rotate(-0.000000, 144.165000, 187.290000)"
             x="144.165"
             y="187.29"
             id="text3620">Timesteps [1000]</text>
        </g>
      </g>
      <g
         id="matplotlib.axis_2">
        <g
           id="ytick_1">
          <g
             id="line2d_12">
            <defs
               id="defs3625">
              <path
                 d=" M0 0 L4 0"
                 id="m728421d6d4"
                 style="stroke:#000000;stroke-width:0.5;" />
            </defs>
            <g
               id="g3628">
              <use
                 style="stroke:#000000;stroke-width:0.5;"
                 x="54.885"
                 xlink:href="#m728421d6d4"
                 y="147.318124998"
                 id="use3630" />
            </g>
          </g>
          <g
             id="line2d_13">
            <defs
               id="defs3633">
              <path
                 d=" M0 0 L-4 0"
                 id="mcb0005524f"
                 style="stroke:#000000;stroke-width:0.5;" />
            </defs>
            <g
               id="g3636">
              <use
                 style="stroke:#000000;stroke-width:0.5;"
                 x="233.445"
                 xlink:href="#mcb0005524f"
                 y="147.318124998"
                 id="use3638" />
            </g>
          </g>
          <g
             id="text_7">
            <text
               style="font-family:DejaVu Sans;font-size:12.0px;font-style:normal;text-anchor:end;"
               transform="rotate(-0.000000, 50.885000, 150.629375)"
               x="50.885"
               y="150.629375"
               id="text3641">−3.0</text>
          </g>
        </g>
        <g
           id="ytick_2">
          <g
             id="line2d_14">
            <g
               id="g3645">
              <use
                 style="stroke:#000000;stroke-width:0.5;"
                 x="54.885"
                 xlink:href="#m728421d6d4"
                 y="121.718125001"
                 id="use3647" />
            </g>
          </g>
          <g
             id="line2d_15">
            <g
               id="g3650">
              <use
                 style="stroke:#000000;stroke-width:0.5;"
                 x="233.445"
                 xlink:href="#mcb0005524f"
                 y="121.718125001"
                 id="use3652" />
            </g>
          </g>
          <g
             id="text_8">
            <text
               style="font-family:DejaVu Sans;font-size:12.0px;font-style:normal;text-anchor:end;"
               transform="rotate(-0.000000, 50.885000, 125.029375)"
               x="50.885"
               y="125.029375002"
               id="text3655">−2.5</text>
          </g>
        </g>
        <g
           id="ytick_3">
          <g
             id="line2d_16">
            <g
               id="g3659">
              <use
                 style="stroke:#000000;stroke-width:0.5;"
                 x="54.885"
                 xlink:href="#m728421d6d4"
                 y="96.1181249954"
                 id="use3661" />
            </g>
          </g>
          <g
             id="line2d_17">
            <g
               id="g3664">
              <use
                 style="stroke:#000000;stroke-width:0.5;"
                 x="233.445"
                 xlink:href="#mcb0005524f"
                 y="96.1181249954"
                 id="use3666" />
            </g>
          </g>
          <g
             id="text_9">
            <text
               style="font-family:DejaVu Sans;font-size:12.0px;font-style:normal;text-anchor:end;"
               transform="rotate(-0.000000, 50.885000, 99.429375)"
               x="50.885"
               y="99.4293749966"
               id="text3669">−2.0</text>
          </g>
        </g>
        <g
           id="ytick_4">
          <g
             id="line2d_18">
            <g
               id="g3673">
              <use
                 style="stroke:#000000;stroke-width:0.5;"
                 x="54.885"
                 xlink:href="#m728421d6d4"
                 y="70.5181249976"
                 id="use3675" />
            </g>
          </g>
          <g
             id="line2d_19">
            <g
               id="g3678">
              <use
                 style="stroke:#000000;stroke-width:0.5;"
                 x="233.445"
                 xlink:href="#mcb0005524f"
                 y="70.5181249976"
                 id="use3680" />
            </g>
          </g>
          <g
             id="text_10">
            <text
               style="font-family:DejaVu Sans;font-size:12.0px;font-style:normal;text-anchor:end;"
               transform="rotate(-0.000000, 50.885000, 73.829375)"
               x="50.885"
               y="73.8293749988"
               id="text3683">−1.5</text>
          </g>
        </g>
        <g
           id="ytick_5">
          <g
             id="line2d_20">
            <g
               id="g3687">
              <use
                 style="stroke:#000000;stroke-width:0.5;"
                 x="54.885"
                 xlink:href="#m728421d6d4"
                 y="44.9181249999"
                 id="use3689" />
            </g>
          </g>
          <g
             id="line2d_21">
            <g
               id="g3692">
              <use
                 style="stroke:#000000;stroke-width:0.5;"
                 x="233.445"
                 xlink:href="#mcb0005524f"
                 y="44.9181249999"
                 id="use3694" />
            </g>
          </g>
          <g
             id="text_11">
            <text
               style="font-family:DejaVu Sans;font-size:12.0px;font-style:normal;text-anchor:end;"
               transform="rotate(-0.000000, 50.885000, 48.229375)"
               x="50.885"
               y="48.229375001"
               id="text3697">−1.0</text>
          </g>
        </g>
        <g
           id="ytick_6">
          <g
             id="line2d_22">
            <g
               id="g3701">
              <use
                 style="stroke:#000000;stroke-width:0.5;"
                 x="54.885"
                 xlink:href="#m728421d6d4"
                 y="19.3181249984"
                 id="use3703" />
            </g>
          </g>
          <g
             id="line2d_23">
            <g
               id="g3706">
              <use
                 style="stroke:#000000;stroke-width:0.5;"
                 x="233.445"
                 xlink:href="#mcb0005524f"
                 y="19.3181249984"
                 id="use3708" />
            </g>
          </g>
          <g
             id="text_12">
            <text
               style="font-family:DejaVu Sans;font-size:12.0px;font-style:normal;text-anchor:end;"
               transform="rotate(-0.000000, 50.885000, 22.629375)"
               x="50.885"
               y="22.6293749996"
               id="text3711">−0.5</text>
          </g>
        </g>
        <g
           id="text_13">
          <text
             style="font-size:12px;font-style:normal;text-anchor:middle;stroke-linecap:butt;stroke-linejoin:round;font-family:DejaVu Sans"
             transform="matrix(0,-1,1,0,-72.12,104.75625)"
             x="16.318125"
             y="88.438126"
             id="text3714">Energy [MD units, −5.56296+y]</text>
        </g>
        <g
           id="text_14">
          <text
             style="font-size:12px;font-style:normal;text-anchor:start;stroke-linecap:butt;stroke-linejoin:round;font-family:DejaVu Sans"
             x="54.884998"
             y="16.318125"
             id="text3717">1e−5</text>
        </g>
      </g>
      <g
         id="patch_3">
        <path
           d=" M54.885 19.3181 L233.445 19.3181"
           style="fill:none;stroke:#000000;"
           id="path3720" />
      </g>
      <g
         id="patch_4">
        <path
           d=" M233.445 157.558 L233.445 19.3181"
           style="fill:none;stroke:#000000;"
           id="path3723" />
      </g>
      <g
         id="patch_5">
        <path
           d=" M54.885 157.558 L233.445 157.558"
           style="fill:none;stroke:#000000;"
           id="path3726" />
      </g>
      <g
         id="patch_6">
        <path
           d=" M54.885 157.558 L54.885 19.3181"
           style="fill:none;stroke:#000000;"
           id="path3729" />
      </g>
    </g>
  </g>
  <defs
     id="defs3731">
    <clipPath
       id="p5d5a68adfe">
      <rect
         height="138.24"
         width="178.56"
         x="54.885"
         y="19.318125"
         id="rect3734" />
    </clipPath>
  </defs>
</svg>
