<?xml version="1.0" encoding="utf-8" standalone="no"?>
<!DOCTYPE svg PUBLIC "-//W3C//DTD SVG 1.1//EN"
  "http://www.w3.org/Graphics/SVG/1.1/DTD/svg11.dtd">
<!-- Created with matplotlib (http://matplotlib.org/) -->
<svg height="231pt" version="1.1" viewBox="0 0 334 231" width="334pt" xmlns="http://www.w3.org/2000/svg" xmlns:xlink="http://www.w3.org/1999/xlink">
 <defs>
  <style type="text/css">
*{stroke-linecap:butt;stroke-linejoin:round;}
  </style>
 </defs>
 <g id="figure_1">
  <g id="patch_1">
   <path d="
M0 231.546
L334.095 231.546
L334.095 2.84217e-14
L0 2.84217e-14
z
" style="fill:#ffffff;"/>
  </g>
  <g id="axes_1">
   <g id="patch_2">
    <path d="
M93.06 192.118
L316.26 192.118
L316.26 19.3181
L93.06 19.3181
z
" style="fill:#ffffff;"/>
   </g>
   <g id="line2d_1">
    <path clip-path="url(#p3323d5ac4f)" d="
M107.198 127.35
L107.384 133.302
L107.57 127.158
L107.756 128.054
L107.942 163.702
L108.128 138.55
L108.314 144.054
L108.5 143.798
L108.872 151.158
L109.058 151.926
L109.43 146.166
L109.988 127.862
L110.174 129.014
L110.732 157.75
L110.918 151.35
L111.104 160.31
L111.29 160.822
L111.476 151.286
L111.662 156.214
L111.848 153.142
L112.034 154.55
L112.406 142.006
L112.592 123.894
L112.778 135.862
L112.964 119.862
L113.15 117.75
L113.336 129.142
L113.522 154.358
L113.708 157.494
L113.894 158.262
L114.08 163.126
L114.266 151.03
L114.638 167.222
L114.824 129.27
L115.01 119.99
L115.196 130.678
L115.382 156.086
L115.568 154.23
L115.754 161.334
L115.94 155.894
L116.126 157.686
L116.498 180.79
L116.684 184.182
L117.056 160.246
L117.428 168.95
L117.614 145.718
L117.8 152.566
L117.986 141.43
L118.172 146.678
L118.358 156.854
L118.544 153.462
L118.916 134.71
L119.102 130.87
L119.288 118.07
L119.474 155.958
L119.66 140.086
L119.846 144.118
L120.032 162.998
L120.218 134.774
L120.404 158.006
L120.59 163.958
L120.776 162.294
L121.148 139.574
L121.334 131.702
L121.52 118.262
L121.706 139.19
L121.892 142.582
L122.078 155.83
L122.264 151.542
L122.45 140.918
L122.636 121.974
L122.822 123.702
L123.008 149.75
L123.194 143.03
L123.38 142.326
L123.566 138.614
L123.938 119.606
L124.124 131.574
L124.31 135.99
L124.682 119.734
L124.868 146.294
L125.054 143.158
L125.24 123.254
L125.426 138.614
L125.612 122.422
L125.798 143.286
L125.984 129.206
L126.17 124.534
L126.356 128.822
L126.542 122.934
L127.1 168.182
L127.286 161.142
L127.472 141.046
L127.658 150.966
L127.844 169.654
L128.03 169.654
L128.216 145.526
L128.402 136.374
L128.588 138.038
L128.774 130.678
L129.146 151.606
L129.332 142.646
L129.518 143.35
L129.704 140.918
L129.89 127.606
L130.076 127.35
L130.262 129.718
L130.448 113.27
L130.634 122.742
L130.82 110.07
L131.378 142.902
L131.564 143.35
L131.75 158.134
L131.936 148.726
L132.308 118.006
L132.494 126.518
L132.68 121.014
L132.866 152.31
L133.61 126.774
L133.796 122.806
L133.982 115.254
L134.168 133.814
L134.354 134.582
L134.54 122.358
L134.726 147.254
L134.912 122.934
L135.098 132.662
L135.284 134.07
L135.47 118.454
L135.656 138.422
L135.842 132.342
L136.028 133.366
L136.4 108.726
L136.586 119.414
L136.772 118.262
L136.958 126.774
L137.144 128.118
L137.33 121.078
L137.516 133.686
L137.702 122.294
L137.888 121.526
L138.074 125.622
L138.26 121.398
L138.446 145.334
L138.632 118.71
L138.818 110.582
L139.19 134.262
L139.376 125.366
L139.562 123.318
L139.748 117.878
L139.934 138.614
L140.12 138.998
L140.306 130.614
L140.492 142.646
L140.678 134.006
L140.864 148.854
L141.05 150.07
L141.236 136.31
L141.422 145.398
L141.608 168.182
L142.166 114.294
L142.352 114.614
L142.538 109.238
L142.724 146.55
L142.91 139.894
L143.096 145.91
L143.282 135.862
L143.468 147.958
L143.654 133.878
L143.84 138.294
L144.026 126.134
L144.212 130.742
L144.398 114.55
L144.584 111.158
L144.956 89.0781
L145.142 93.8141
L145.328 90.9981
L145.514 103.542
L145.7 100.022
L145.886 117.686
L146.072 121.142
L146.258 115.958
L146.444 93.3021
L146.63 126.71
L146.816 121.846
L147.002 127.03
L147.374 102.902
L147.746 112.95
L147.932 106.166
L148.304 123.638
L148.49 131.446
L148.676 113.846
L148.862 111.926
L149.234 128.566
L149.42 109.494
L149.792 144.31
L150.164 124.15
L150.35 140.918
L150.536 122.998
L150.722 118.454
L150.908 110.454
L151.094 133.814
L151.28 140.278
L151.466 113.654
L151.652 127.99
L151.838 156.086
L152.21 121.462
L152.582 140.854
L152.768 134.39
L152.954 120.374
L153.14 128.95
L153.326 127.542
L153.512 138.486
L153.884 117.686
L154.07 116.15
L154.442 136.118
L154.628 116.47
L154.814 152.118
L155.186 134.39
L155.558 104.246
L155.93 129.974
L156.116 128.502
L156.302 116.086
L156.488 114.55
L156.674 117.302
L157.046 129.846
L157.418 93.4301
L157.604 95.4141
L157.79 86.1981
L157.976 111.99
L158.162 108.726
L158.348 120.566
L158.534 121.014
L158.72 114.166
L159.092 92.3421
L159.278 95.9901
L159.464 102.518
L159.836 90.3581
L160.208 98.8701
L160.394 113.718
L160.58 116.662
L160.766 105.654
L160.952 106.998
L161.138 147.254
L161.324 140.982
L161.51 124.406
L161.696 121.59
L161.882 101.366
L162.068 122.934
L162.254 116.854
L162.44 97.9101
L162.626 91.7661
L162.812 105.398
L162.998 101.558
L163.184 110.07
L163.37 129.654
L163.556 124.982
L163.742 114.486
L163.928 85.6861
L164.114 119.414
L164.3 103.606
L164.486 135.734
L164.672 134.646
L164.858 117.814
L165.044 115.766
L165.23 123.318
L165.602 152.694
L165.974 141.622
L166.16 117.878
L166.346 132.278
L166.718 122.806
L166.904 121.846
L167.09 104.566
L167.276 122.55
L167.462 121.078
L167.648 121.718
L167.834 147.126
L168.02 127.414
L168.206 125.686
L168.392 142.71
L168.578 125.11
L168.764 136.054
L168.95 127.67
L169.136 93.1101
L169.322 93.8781
L169.88 134.454
L170.066 123.574
L170.252 127.99
L170.438 139.894
L170.81 120.054
L170.996 121.91
L171.182 136.246
L171.368 129.59
L171.554 109.366
L171.74 109.814
L172.112 136.694
L172.298 111.222
L172.484 128.886
L172.67 112.374
L172.856 114.486
L173.042 110.326
L173.228 91.3821
L173.414 94.5181
L173.6 87.0941
L173.972 127.798
L174.158 146.102
L174.53 113.334
L174.716 104.822
L174.902 129.91
L175.088 129.142
L175.274 120.182
L175.46 125.686
L175.646 146.806
L175.832 148.726
L176.018 127.67
L176.204 152.31
L176.576 131.062
L176.762 130.486
L176.948 125.366
L177.134 127.926
L177.32 122.806
L177.506 100.726
L177.692 107.894
L177.878 110.71
L178.064 111.35
L178.25 115.958
L178.436 130.55
L178.622 118.39
L178.994 120.63
L179.18 113.014
L179.366 110.262
L179.738 127.478
L179.924 121.846
L180.296 150.262
L180.482 141.174
L180.668 141.302
L180.854 151.35
L181.04 131.766
L181.226 150.07
L181.412 145.014
L181.598 145.014
L182.342 106.934
L182.714 130.87
L182.9 126.966
L183.086 116.47
L183.272 130.742
L183.458 119.158
L183.644 133.366
L183.83 114.87
L184.016 136.374
L184.202 142.39
L184.388 137.654
L184.574 137.334
L184.76 133.366
L184.946 134.262
L185.132 116.854
L185.504 153.526
L185.876 138.678
L186.062 123.318
L186.248 126.39
L186.62 146.422
L186.806 127.926
L186.992 124.278
L187.178 129.206
L187.364 127.862
L187.55 139.83
L187.736 130.358
L188.108 153.462
L188.294 155.254
L188.48 145.334
L188.666 148.278
L188.852 102.07
L189.038 104.31
L189.224 84.9821
L189.41 94.1981
L189.596 94.0701
L189.782 97.9741
L189.968 121.718
L190.34 99.5741
L190.526 105.078
L190.712 93.6861
L191.084 121.142
L191.27 150.902
L191.456 128.182
L191.642 154.038
L191.828 128.374
L192.014 134.006
L192.2 131.126
L192.386 106.166
L192.572 123.894
L192.758 118.07
L192.944 128.566
L193.13 112.182
L193.316 121.718
L193.502 123.19
L193.874 93.3661
L194.06 100.982
L194.246 132.214
L194.432 111.094
L194.618 119.094
L194.804 99.8941
L194.99 95.2861
L195.176 87.4141
L195.362 120.694
L195.548 133.558
L195.734 124.918
L195.92 124.342
L196.106 106.358
L196.478 103.478
L196.664 109.814
L196.85 100.918
L197.036 107.574
L197.222 103.094
L197.408 114.678
L197.594 109.558
L197.78 120.182
L197.966 91.4461
L198.338 99.6381
L198.524 91.1261
L198.71 113.27
L198.896 117.366
L199.082 96.3101
L199.268 100.854
L199.454 92.7261
L199.64 77.0461
L199.826 80.5021
L200.012 79.7981
L200.198 117.238
L200.384 110.71
L200.57 127.03
L200.756 122.678
L200.942 104.95
L201.128 103.606
L201.314 99.5101
L201.5 102.326
L201.686 90.9341
L202.058 120.118
L202.244 119.606
L202.43 134.006
L202.616 125.622
L202.802 129.846
L202.988 98.1661
L203.36 124.79
L203.732 93.8781
L203.918 100.47
L204.104 93.5581
L204.29 117.238
L204.476 122.87
L204.662 122.998
L204.848 126.582
L205.034 139.51
L205.592 100.15
L205.778 98.8061
L205.964 79.4141
L206.15 78.3901
L206.336 68.5981
L206.522 96.1821
L206.708 106.102
L206.894 97.0141
L207.08 106.55
L207.266 105.078
L207.452 123.51
L207.638 121.91
L207.824 116.342
L208.01 121.654
L208.196 115.382
L208.568 125.686
L208.754 115.062
L209.126 108.406
L209.312 105.846
L209.684 120.566
L209.87 117.814
L210.056 112.822
L210.242 99.6381
L210.614 95.7341
L210.8 96.8221
L211.172 124.598
L211.358 132.662
L211.544 111.542
L211.73 116.278
L212.102 99.5101
L212.288 106.166
L212.474 126.838
L212.66 116.534
L212.846 113.078
L213.032 104.31
L213.218 117.174
L213.404 97.3341
L213.59 98.6781
L213.776 74.8701
L214.148 104.694
L214.334 114.102
L214.52 104.758
L214.706 106.038
L214.892 102.902
L215.078 114.998
L215.264 80.3741
L215.45 75.2541
L215.636 99.2541
L215.822 108.598
L216.008 129.142
L216.194 105.014
L216.38 108.214
L216.566 113.782
L216.752 83.1261
L216.938 99.7021
L217.31 77.5581
L217.496 73.2061
L218.054 110.134
L218.24 85.8141
L218.426 82.4221
L218.612 99.1901
L218.984 91.6381
L219.356 106.806
L219.542 106.678
L219.728 90.1661
L219.914 108.47
L220.1 111.542
L220.472 82.4221
L220.658 109.11
L220.844 110.07
L221.03 94.5821
L221.216 96.9501
L221.588 89.7821
L221.774 101.174
L221.96 82.4221
L222.146 82.9981
L222.332 92.2141
L222.518 94.8381
L222.704 106.486
L223.076 99.4461
L223.262 108.342
L223.448 97.5261
L223.634 111.222
L223.82 105.782
L224.006 96.3741
L224.378 120.95
L224.564 105.398
L224.75 103.414
L224.936 119.158
L225.122 100.022
L225.308 99.9581
L225.494 109.75
L225.68 113.462
L225.866 114.102
L226.052 99.8941
L226.238 96.8221
L226.424 130.998
L226.61 123.574
L226.796 104.054
L226.982 98.1021
L227.168 111.734
L227.354 108.534
L227.54 108.726
L227.726 104.31
L227.912 105.206
L228.284 125.686
L228.47 123.574
L228.656 127.35
L228.842 127.99
L229.214 86.5181
L229.772 115.638
L229.958 101.622
L230.144 96.1821
L230.33 95.0301
L230.702 73.2701
L230.888 109.11
L231.26 117.238
L231.632 88.6301
L231.818 99.6381
L232.004 100.214
L232.562 130.294
L232.934 100.982
L233.12 87.7341
L233.306 106.102
L233.492 90.4221
L233.678 103.222
L233.864 133.366
L234.05 121.462
L234.236 93.9421
L234.422 103.606
L234.608 121.27
L234.794 112.438
L234.98 110.07
L235.166 105.718
L235.352 117.942
L235.538 110.262
L235.724 110.39
L235.91 120.502
L236.096 107.19
L236.282 106.422
L236.468 88.3741
L236.84 98.4861
L237.026 114.422
L237.212 119.99
L237.398 129.654
L237.584 103.99
L237.956 90.9341
L238.142 109.046
L238.328 91.8941
L238.514 127.158
L238.7 116.086
L238.886 126.774
L239.072 117.942
L239.258 134.198
L239.444 138.422
L239.816 109.302
L240.002 129.846
L240.374 119.03
L240.56 104.31
L240.746 110.07
L240.932 107.702
L241.118 115.638
L241.304 105.846
L241.49 89.9101
L242.234 130.294
L242.42 102.518
L242.792 127.03
L242.978 110.774
L243.164 118.71
L243.35 117.43
L243.722 100.662
L243.908 117.238
L244.094 114.358
L244.28 128.054
L244.466 110.518
L244.652 126.326
L244.838 128.246
L245.024 142.198
L245.21 144.694
L245.396 143.926
L245.582 138.614
L245.768 141.302
L245.954 112.822
L246.512 86.0701
L246.884 136.374
L247.07 137.334
L247.256 130.038
L247.628 101.814
L247.814 99.7661
L248 100.47
L248.186 79.2221
L248.558 115.446
L248.744 117.878
L248.93 133.942
L249.302 110.774
L249.488 110.262
L249.86 69.4941
L250.418 111.862
L250.604 110.454
L250.79 90.6141
L251.162 104.758
L251.348 99.1261
L251.534 117.942
L251.72 73.2061
L251.906 69.8141
L252.092 78.0701
L252.278 98.2941
L252.464 92.4061
L252.65 90.5501
L252.836 83.5101
L253.022 86.6461
L253.208 77.9421
L253.394 88.1821
L253.58 107.638
L253.766 145.59
L253.952 108.854
L254.138 100.598
L254.324 122.55
L254.51 92.9181
L254.696 100.342
L254.882 84.5981
L255.254 116.534
L255.44 101.238
L255.626 114.934
L255.812 118.39
L255.998 113.142
L256.184 120.63
L256.37 108.726
L256.556 78.0061
L256.742 75.7661
L256.928 95.6061
L257.114 94.0701
L257.3 97.0141
L257.486 81.6541
L257.672 89.7821
L257.858 81.9741
L258.044 99.5741
L258.416 60.3421
L258.602 84.7901
L258.788 88.1821
L259.16 61.0461
L259.346 80.5021
L259.532 70.9021
L259.718 78.9661
L259.904 80.1821
L260.09 70.8381
L260.276 68.1501
L260.462 69.8141
L260.648 78.8381
L260.834 78.8381
L261.206 92.4061
L261.392 77.0461
L261.578 73.2061
L261.764 91.4461
L261.95 54.8381
L262.136 58.2941
L262.322 71.4781
L262.508 71.2221
L262.694 73.7821
L262.88 85.1101
L263.066 76.4701
L263.252 59.3181
L263.438 53.1101
L263.624 65.4621
L263.81 67.1901
L263.996 56.5021
L264.182 62.8381
L264.368 52.2141
L264.554 59.1901
L264.74 48.0541
L264.926 46.9021
L265.112 56.6941
L265.298 33.9741
L265.484 48.3101
L265.67 41.8461
L265.856 57.5261
L266.042 59.3821
L266.228 66.2941
L266.414 62.3261
L266.6 54.6461
L266.786 56.8221
L266.972 65.0781
L267.158 58.8701
L267.344 69.6221
L267.53 43.4461
L267.716 54.6461
L267.902 27.3181
L268.088 51.8941
L268.274 40.1181
L268.46 53.8781
L268.832 90.0381
L269.018 98.4861
L269.204 81.6541
L269.39 86.5821
L269.762 58.1661
L269.948 67.1901
L270.134 57.3981
L270.32 77.9421
L270.506 72.5661
L270.692 73.4621
L270.878 57.8461
L271.064 52.5341
L271.25 54.5821
L271.436 75.8941
L271.622 72.2461
L271.808 64.5021
L271.994 64.2461
L272.18 54.1981
L272.366 51.8301
L272.552 59.3821
L272.738 81.1421
L272.924 88.9501
L273.11 56.6301
L273.296 57.4621
L273.854 97.0781
L274.04 86.8381
L274.226 82.9981
L274.412 82.4221
L274.598 57.3341
L274.784 85.0461
L275.156 60.1501
L275.528 76.2141
L275.714 49.2061
L275.9 56.8221
L276.086 58.5501
L276.272 45.3021
L276.458 48.1821
L276.644 38.5181
L277.016 77.9421
L277.202 76.5341
L277.388 85.1741
L277.574 108.47
L277.76 92.3421
L277.946 93.3661
L278.132 92.2781
L278.504 66.6781
L278.69 57.2061
L278.876 65.2061
L279.062 63.2861
L279.248 68.0861
L279.434 87.1581
L279.62 76.5981
L279.806 82.6141
L279.992 78.2621
L280.364 59.1261
L280.55 83.2541
L280.736 87.7341
L281.294 51.5101
L281.48 68.4701
L281.852 70.7101
L282.224 109.046
L282.41 98.3581
L282.782 93.7501
L282.968 94.1981
L283.34 48.1181
L283.898 68.0861
L284.084 49.2701
L284.27 56.5021
L284.456 48.8861
L284.828 85.8781
L285.386 45.1741
L285.572 81.7821
L285.758 79.6061
L286.13 81.7821
L286.316 86.3261
L286.502 82.1661
L286.874 46.0061
L287.06 80.9501
L287.246 58.6141
L287.432 60.9821
L287.618 77.7501
L287.804 52.2781
L287.99 67.8941
L288.176 71.3501
L288.362 82.7421
L288.734 67.0621
L288.92 59.3821
L289.106 39.9901
L289.292 51.5101
L289.478 72.5021
L289.664 78.7101
L290.036 101.942
L290.222 81.2061
L290.594 79.2221
L290.78 89.3341
L290.966 88.0541
L291.152 66.6781
L291.338 81.7821
L291.524 75.9581
L291.896 82.9341
L292.268 43.4461
L292.454 39.1581
L292.64 64.3741
L293.012 77.4941
L293.012 77.4941" style="fill:none;stroke:#0000ff;stroke-linecap:square;"/>
   </g>
   <g id="matplotlib.axis_1">
    <g id="xtick_1">
     <g id="line2d_2">
      <defs>
       <path d="
M0 0
L0 -4" id="m93b0483c22" style="stroke:#000000;stroke-width:0.5;"/>
      </defs>
      <g>
       <use style="stroke:#000000;stroke-width:0.5;" x="93.06" xlink:href="#m93b0483c22" y="192.118125"/>
      </g>
     </g>
     <g id="line2d_3">
      <defs>
       <path d="
M0 0
L0 4" id="m741efc42ff" style="stroke:#000000;stroke-width:0.5;"/>
      </defs>
      <g>
       <use style="stroke:#000000;stroke-width:0.5;" x="93.06" xlink:href="#m741efc42ff" y="19.318125"/>
      </g>
     </g>
     <g id="text_1">
      <text style="font-family:DejaVu Sans;font-size:12.0px;font-style:normal;text-anchor:middle;" transform="rotate(-0.000000, 93.060000, 205.236250)" x="93.06" y="205.23625">480</text>
     </g>
    </g>
    <g id="xtick_2">
     <g id="line2d_4">
      <g>
       <use style="stroke:#000000;stroke-width:0.5;" x="130.26" xlink:href="#m93b0483c22" y="192.118125"/>
      </g>
     </g>
     <g id="line2d_5">
      <g>
       <use style="stroke:#000000;stroke-width:0.5;" x="130.26" xlink:href="#m741efc42ff" y="19.318125"/>
      </g>
     </g>
     <g id="text_2">
      <text style="font-family:DejaVu Sans;font-size:12.0px;font-style:normal;text-anchor:middle;" transform="rotate(-0.000000, 130.260000, 205.236250)" x="130.26" y="205.23625">500</text>
     </g>
    </g>
    <g id="xtick_3">
     <g id="line2d_6">
      <g>
       <use style="stroke:#000000;stroke-width:0.5;" x="167.46" xlink:href="#m93b0483c22" y="192.118125"/>
      </g>
     </g>
     <g id="line2d_7">
      <g>
       <use style="stroke:#000000;stroke-width:0.5;" x="167.46" xlink:href="#m741efc42ff" y="19.318125"/>
      </g>
     </g>
     <g id="text_3">
      <text style="font-family:DejaVu Sans;font-size:12.0px;font-style:normal;text-anchor:middle;" transform="rotate(-0.000000, 167.460000, 205.236250)" x="167.46" y="205.23625">520</text>
     </g>
    </g>
    <g id="xtick_4">
     <g id="line2d_8">
      <g>
       <use style="stroke:#000000;stroke-width:0.5;" x="204.66" xlink:href="#m93b0483c22" y="192.118125"/>
      </g>
     </g>
     <g id="line2d_9">
      <g>
       <use style="stroke:#000000;stroke-width:0.5;" x="204.66" xlink:href="#m741efc42ff" y="19.318125"/>
      </g>
     </g>
     <g id="text_4">
      <text style="font-family:DejaVu Sans;font-size:12.0px;font-style:normal;text-anchor:middle;" transform="rotate(-0.000000, 204.660000, 205.236250)" x="204.66" y="205.23625">540</text>
     </g>
    </g>
    <g id="xtick_5">
     <g id="line2d_10">
      <g>
       <use style="stroke:#000000;stroke-width:0.5;" x="241.86" xlink:href="#m93b0483c22" y="192.118125"/>
      </g>
     </g>
     <g id="line2d_11">
      <g>
       <use style="stroke:#000000;stroke-width:0.5;" x="241.86" xlink:href="#m741efc42ff" y="19.318125"/>
      </g>
     </g>
     <g id="text_5">
      <text style="font-family:DejaVu Sans;font-size:12.0px;font-style:normal;text-anchor:middle;" transform="rotate(-0.000000, 241.860000, 205.236250)" x="241.86" y="205.23625">560</text>
     </g>
    </g>
    <g id="xtick_6">
     <g id="line2d_12">
      <g>
       <use style="stroke:#000000;stroke-width:0.5;" x="279.06" xlink:href="#m93b0483c22" y="192.118125"/>
      </g>
     </g>
     <g id="line2d_13">
      <g>
       <use style="stroke:#000000;stroke-width:0.5;" x="279.06" xlink:href="#m741efc42ff" y="19.318125"/>
      </g>
     </g>
     <g id="text_6">
      <text style="font-family:DejaVu Sans;font-size:12.0px;font-style:normal;text-anchor:middle;" transform="rotate(-0.000000, 279.060000, 205.236250)" x="279.06" y="205.23625">580</text>
     </g>
    </g>
    <g id="xtick_7">
     <g id="line2d_14">
      <g>
       <use style="stroke:#000000;stroke-width:0.5;" x="316.26" xlink:href="#m93b0483c22" y="192.118125"/>
      </g>
     </g>
     <g id="line2d_15">
      <g>
       <use style="stroke:#000000;stroke-width:0.5;" x="316.26" xlink:href="#m741efc42ff" y="19.318125"/>
      </g>
     </g>
     <g id="text_7">
      <text style="font-family:DejaVu Sans;font-size:12.0px;font-style:normal;text-anchor:middle;" transform="rotate(-0.000000, 316.260000, 205.236250)" x="316.26" y="205.23625">600</text>
     </g>
    </g>
    <g id="text_8">
     <text style="font-family:DejaVu Sans;font-size:12.0px;font-style:normal;text-anchor:middle;" transform="rotate(-0.000000, 204.660000, 221.850000)" x="204.66" y="221.85">Timesteps [1000]</text>
    </g>
   </g>
   <g id="matplotlib.axis_2">
    <g id="ytick_1">
     <g id="line2d_16">
      <defs>
       <path d="
M0 0
L4 0" id="m728421d6d4" style="stroke:#000000;stroke-width:0.5;"/>
      </defs>
      <g>
       <use style="stroke:#000000;stroke-width:0.5;" x="93.06" xlink:href="#m728421d6d4" y="179.318124995"/>
      </g>
     </g>
     <g id="line2d_17">
      <defs>
       <path d="
M0 0
L-4 0" id="mcb0005524f" style="stroke:#000000;stroke-width:0.5;"/>
      </defs>
      <g>
       <use style="stroke:#000000;stroke-width:0.5;" x="316.26" xlink:href="#mcb0005524f" y="179.318124995"/>
      </g>
     </g>
     <g id="text_9">
      <text style="font-family:DejaVu Sans;font-size:12.0px;font-style:normal;text-anchor:end;" transform="rotate(-0.000000, 89.060000, 182.629375)" x="89.06" y="182.629374993">−0.000030</text>
     </g>
    </g>
    <g id="ytick_2">
     <g id="line2d_18">
      <g>
       <use style="stroke:#000000;stroke-width:0.5;" x="93.06" xlink:href="#m728421d6d4" y="147.318124995"/>
      </g>
     </g>
     <g id="line2d_19">
      <g>
       <use style="stroke:#000000;stroke-width:0.5;" x="316.26" xlink:href="#mcb0005524f" y="147.318124995"/>
      </g>
     </g>
     <g id="text_10">
      <text style="font-family:DejaVu Sans;font-size:12.0px;font-style:normal;text-anchor:end;" transform="rotate(-0.000000, 89.060000, 150.629375)" x="89.06" y="150.629374993">−0.000025</text>
     </g>
    </g>
    <g id="ytick_3">
     <g id="line2d_20">
      <g>
       <use style="stroke:#000000;stroke-width:0.5;" x="93.06" xlink:href="#m728421d6d4" y="115.318124995"/>
      </g>
     </g>
     <g id="line2d_21">
      <g>
       <use style="stroke:#000000;stroke-width:0.5;" x="316.26" xlink:href="#mcb0005524f" y="115.318124995"/>
      </g>
     </g>
     <g id="text_11">
      <text style="font-family:DejaVu Sans;font-size:12.0px;font-style:normal;text-anchor:end;" transform="rotate(-0.000000, 89.060000, 118.629375)" x="89.06" y="118.629374993">−0.000020</text>
     </g>
    </g>
    <g id="ytick_4">
     <g id="line2d_22">
      <g>
       <use style="stroke:#000000;stroke-width:0.5;" x="93.06" xlink:href="#m728421d6d4" y="83.3181249946"/>
      </g>
     </g>
     <g id="line2d_23">
      <g>
       <use style="stroke:#000000;stroke-width:0.5;" x="316.26" xlink:href="#mcb0005524f" y="83.3181249946"/>
      </g>
     </g>
     <g id="text_12">
      <text style="font-family:DejaVu Sans;font-size:12.0px;font-style:normal;text-anchor:end;" transform="rotate(-0.000000, 89.060000, 86.629375)" x="89.06" y="86.6293749934">−0.000015</text>
     </g>
    </g>
    <g id="ytick_5">
     <g id="line2d_24">
      <g>
       <use style="stroke:#000000;stroke-width:0.5;" x="93.06" xlink:href="#m728421d6d4" y="51.3181249946"/>
      </g>
     </g>
     <g id="line2d_25">
      <g>
       <use style="stroke:#000000;stroke-width:0.5;" x="316.26" xlink:href="#mcb0005524f" y="51.3181249946"/>
      </g>
     </g>
     <g id="text_13">
      <text style="font-family:DejaVu Sans;font-size:12.0px;font-style:normal;text-anchor:end;" transform="rotate(-0.000000, 89.060000, 54.629375)" x="89.06" y="54.6293749934">−0.000010</text>
     </g>
    </g>
    <g id="ytick_6">
     <g id="line2d_26">
      <g>
       <use style="stroke:#000000;stroke-width:0.5;" x="93.06" xlink:href="#m728421d6d4" y="19.3181249946"/>
      </g>
     </g>
     <g id="line2d_27">
      <g>
       <use style="stroke:#000000;stroke-width:0.5;" x="316.26" xlink:href="#mcb0005524f" y="19.3181249946"/>
      </g>
     </g>
     <g id="text_14">
      <text style="font-family:DejaVu Sans;font-size:12.0px;font-style:normal;text-anchor:end;" transform="rotate(-0.000000, 89.060000, 22.629375)" x="89.06" y="22.6293749934">−0.000005</text>
     </g>
    </g>
    <g id="text_15">
     <text style="font-family:DejaVu Sans;font-size:12.0px;font-style:normal;text-anchor:middle;" transform="rotate(-90.000000, 16.318125, 105.718125)" x="16.318125" y="105.718125">Energy [MD units]</text>
    </g>
    <g id="text_16">
     <text style="font-family:DejaVu Sans;font-size:12.0px;font-style:normal;text-anchor:start;" transform="rotate(-0.000000, 93.060000, 16.318125)" x="93.06" y="16.318125">−5.56296</text>
    </g>
   </g>
   <g id="patch_3">
    <path d="
M93.06 19.3181
L316.26 19.3181" style="fill:none;stroke:#000000;"/>
   </g>
   <g id="patch_4">
    <path d="
M316.26 192.118
L316.26 19.3181" style="fill:none;stroke:#000000;"/>
   </g>
   <g id="patch_5">
    <path d="
M93.06 192.118
L316.26 192.118" style="fill:none;stroke:#000000;"/>
   </g>
   <g id="patch_6">
    <path d="
M93.06 192.118
L93.06 19.3181" style="fill:none;stroke:#000000;"/>
   </g>
  </g>
 </g>
 <defs>
  <clipPath id="p3323d5ac4f">
   <rect height="172.8" width="223.2" x="93.06" y="19.318125"/>
  </clipPath>
 </defs>
</svg>
