<?xml version="1.0" encoding="utf-8" standalone="no"?>
<!DOCTYPE svg PUBLIC "-//W3C//DTD SVG 1.1//EN"
  "http://www.w3.org/Graphics/SVG/1.1/DTD/svg11.dtd">
<!-- Created with matplotlib (http://matplotlib.org/) -->
<svg height="309pt" version="1.1" viewBox="0 0 386 309" width="386pt" xmlns="http://www.w3.org/2000/svg" xmlns:xlink="http://www.w3.org/1999/xlink">
 <defs>
  <style type="text/css">
*{stroke-linecap:butt;stroke-linejoin:round;}
  </style>
 </defs>
 <g id="figure_1">
  <g id="patch_1">
   <path d="
M0 309.426
L386.637 309.426
L386.637 0
L0 0
z
" style="fill:#ffffff;"/>
  </g>
  <g id="axes_1">
   <g id="patch_2">
    <path d="
M60.5794 269.999
L379.437 269.999
L379.437 23.1417
L60.5794 23.1417
z
" style="fill:#ffffff;"/>
   </g>
   <g id="line2d_1">
    <path clip-path="url(#p0ee8c94985)" d="
M266.899 269.999
L266.899 23.1417" style="fill:none;stroke:#404040;stroke-dasharray:1.000000,3.000000;stroke-dashoffset:0.0;stroke-linecap:round;stroke-width:0.5;"/>
   </g>
   <g id="line2d_2">
    <path clip-path="url(#p0ee8c94985)" d="
M79.3357 249.423
L120.6 249.382
L150.61 248.898
L158.112 248.474
L163.739 248.06
L167.49 247.61
L169.366 247.396
L171.242 247.031
L173.117 246.942
L180.62 245.325
L182.495 244.763
L184.371 243.981
L186.247 243.681
L188.122 242.998
L189.998 242.455
L191.873 241.762
L193.749 240.76
L195.625 239.983
L199.376 237.779
L201.252 236.893
L203.127 235.716
L208.754 231.419
L210.63 230.27
L212.505 228.187
L214.381 226.318
L216.257 224.693
L220.008 220.369
L221.884 217.778
L227.51 209.293
L233.137 198.423
L235.013 194.282
L236.889 189.787
L242.516 174.652
L244.391 168.218
L246.267 160.754
L248.142 154.179
L251.894 137.681
L255.645 119.006
L259.396 100.072
L261.272 89.9798
L263.147 81.4857
L265.023 75.0077
L266.899 70.2855
L268.774 67.5584
L270.65 65.5644
L272.526 64.1647
L274.401 64.73
L276.277 64.6821
L278.152 66.399
L281.904 62.2765
L283.779 60.6976
L285.655 59.4515
L287.531 57.1461
L289.406 55.6817
L291.282 52.7999
L293.158 51.3991
L295.033 48.7087
L296.909 47.883
L298.784 45.7645
L300.66 45.3217
L302.536 44.1378
L304.411 43.2966
L306.287 42.2796
L308.163 42.6657
L310.038 43.9653
L311.914 44.6152
L313.789 45.414
L315.665 48.1512
L317.541 52.1368
L319.416 55.8075
L321.292 60.1513
L325.043 70.4424
L326.919 78.2389
L330.67 92.994
L334.421 110.561
L336.297 119.974
L340.048 140.785
L341.924 151.336
L347.551 185.544
L351.302 208.496
L353.178 220.235
L356.929 240.179
L358.805 247.367
L358.805 247.367" style="fill:none;stroke:#0000ff;stroke-linecap:square;"/>
   </g>
   <g id="line2d_3">
    <path clip-path="url(#p0ee8c94985)" d="
M79.3357 249.426
L139.356 249.253
L158.112 248.749
L161.863 248.459
L165.615 248.192
L169.366 247.757
L174.993 246.926
L180.62 245.848
L184.371 245.013
L186.247 244.215
L188.122 243.723
L191.873 242.291
L193.749 241.484
L195.625 240.898
L203.127 236.329
L205.003 234.924
L208.754 232.296
L210.63 230.544
L212.505 228.461
L216.257 224.826
L218.132 222.814
L220.008 219.774
L221.884 217.19
L223.759 214.29
L225.635 211.835
L227.51 208.66
L231.262 200.944
L233.137 197.109
L238.764 182.511
L242.516 171.1
L246.267 156.452
L248.142 148.772
L250.018 140.528
L251.894 131.486
L257.521 101.304
L259.396 90.8975
L261.272 79.3625
L265.023 63.4386
L266.899 58.7929
L268.774 56.1257
L270.65 54.2322
L272.526 53.9816
L274.401 53.8872
L276.277 56.7946
L278.152 56.0785
L280.028 55.939
L281.904 53.9491
L283.779 52.4718
L285.655 50.4053
L287.531 49.5466
L289.406 47.5818
L291.282 46.3688
L293.158 44.7133
L295.033 43.7739
L296.909 43.2402
L298.784 42.4927
L300.66 41.5239
L302.536 42.1456
L304.411 41.1863
L306.287 42.8575
L308.163 43.8745
L310.038 46.482
L311.914 47.9991
L315.665 54.1241
L317.541 60.072
L319.416 64.0739
L321.292 69.4011
L325.043 82.3998
L326.919 90.0368
L330.67 106.837
L332.546 115.441
L338.173 143.654
L343.8 174.559
L345.675 184.692
L347.551 195.491
L353.178 225.51
L355.053 234.317
L356.929 242.008
L358.805 247.788
L358.805 247.788" style="fill:none;stroke:#008000;stroke-linecap:square;"/>
   </g>
   <g id="matplotlib.axis_1">
    <g id="xtick_1">
     <g id="line2d_4">
      <defs>
       <path d="
M0 0
L0 -4" id="m93b0483c22" style="stroke:#000000;stroke-width:0.5;"/>
      </defs>
      <g>
       <use style="stroke:#000000;stroke-width:0.5;" x="79.335677521" xlink:href="#m93b0483c22" y="269.998892857"/>
      </g>
     </g>
     <g id="line2d_5">
      <defs>
       <path d="
M0 0
L0 4" id="m741efc42ff" style="stroke:#000000;stroke-width:0.5;"/>
      </defs>
      <g>
       <use style="stroke:#000000;stroke-width:0.5;" x="79.335677521" xlink:href="#m741efc42ff" y="23.14175"/>
      </g>
     </g>
     <g id="text_1">
      <text style="font-family:DejaVu Sans;font-size:12.0px;font-style:normal;text-anchor:middle;" transform="rotate(-0.000000, 79.335678, 283.117018)" x="79.335677521" y="283.117017857">−0.5</text>
     </g>
    </g>
    <g id="xtick_2">
     <g id="line2d_6">
      <g>
       <use style="stroke:#000000;stroke-width:0.5;" x="173.117190126" xlink:href="#m93b0483c22" y="269.998892857"/>
      </g>
     </g>
     <g id="line2d_7">
      <g>
       <use style="stroke:#000000;stroke-width:0.5;" x="173.117190126" xlink:href="#m741efc42ff" y="23.14175"/>
      </g>
     </g>
     <g id="text_2">
      <text style="font-family:DejaVu Sans;font-size:12.0px;font-style:normal;text-anchor:middle;" transform="rotate(-0.000000, 173.117190, 283.117018)" x="173.117190126" y="283.117017857">0.0</text>
     </g>
    </g>
    <g id="xtick_3">
     <g id="line2d_8">
      <g>
       <use style="stroke:#000000;stroke-width:0.5;" x="266.898702731" xlink:href="#m93b0483c22" y="269.998892857"/>
      </g>
     </g>
     <g id="line2d_9">
      <g>
       <use style="stroke:#000000;stroke-width:0.5;" x="266.898702731" xlink:href="#m741efc42ff" y="23.14175"/>
      </g>
     </g>
     <g id="text_3">
      <text style="font-family:DejaVu Sans;font-size:12.0px;font-style:normal;text-anchor:middle;" transform="rotate(-0.000000, 266.898703, 283.117018)" x="266.898702731" y="283.117017857">0.5</text>
     </g>
    </g>
    <g id="xtick_4">
     <g id="line2d_10">
      <g>
       <use style="stroke:#000000;stroke-width:0.5;" x="360.680215336" xlink:href="#m93b0483c22" y="269.998892857"/>
      </g>
     </g>
     <g id="line2d_11">
      <g>
       <use style="stroke:#000000;stroke-width:0.5;" x="360.680215336" xlink:href="#m741efc42ff" y="23.14175"/>
      </g>
     </g>
     <g id="text_4">
      <text style="font-family:DejaVu Sans;font-size:12.0px;font-style:normal;text-anchor:middle;" transform="rotate(-0.000000, 360.680215, 283.117018)" x="360.680215336" y="283.117017857">1.0</text>
     </g>
    </g>
    <g id="xtick_5">
     <g id="line2d_12">
      <defs>
       <path d="
M0 0
L0 -2" id="m177f7580d0" style="stroke:#000000;stroke-width:0.5;"/>
      </defs>
      <g>
       <use style="stroke:#000000;stroke-width:0.5;" x="79.335677521" xlink:href="#m177f7580d0" y="269.998892857"/>
      </g>
     </g>
     <g id="line2d_13">
      <defs>
       <path d="
M0 0
L0 2" id="m5284c7e2a0" style="stroke:#000000;stroke-width:0.5;"/>
      </defs>
      <g>
       <use style="stroke:#000000;stroke-width:0.5;" x="79.335677521" xlink:href="#m5284c7e2a0" y="23.14175"/>
      </g>
     </g>
    </g>
    <g id="xtick_6">
     <g id="line2d_14">
      <g>
       <use style="stroke:#000000;stroke-width:0.5;" x="126.226433824" xlink:href="#m177f7580d0" y="269.998892857"/>
      </g>
     </g>
     <g id="line2d_15">
      <g>
       <use style="stroke:#000000;stroke-width:0.5;" x="126.226433824" xlink:href="#m5284c7e2a0" y="23.14175"/>
      </g>
     </g>
    </g>
    <g id="xtick_7">
     <g id="line2d_16">
      <g>
       <use style="stroke:#000000;stroke-width:0.5;" x="173.117190126" xlink:href="#m177f7580d0" y="269.998892857"/>
      </g>
     </g>
     <g id="line2d_17">
      <g>
       <use style="stroke:#000000;stroke-width:0.5;" x="173.117190126" xlink:href="#m5284c7e2a0" y="23.14175"/>
      </g>
     </g>
    </g>
    <g id="xtick_8">
     <g id="line2d_18">
      <g>
       <use style="stroke:#000000;stroke-width:0.5;" x="220.007946429" xlink:href="#m177f7580d0" y="269.998892857"/>
      </g>
     </g>
     <g id="line2d_19">
      <g>
       <use style="stroke:#000000;stroke-width:0.5;" x="220.007946429" xlink:href="#m5284c7e2a0" y="23.14175"/>
      </g>
     </g>
    </g>
    <g id="xtick_9">
     <g id="line2d_20">
      <g>
       <use style="stroke:#000000;stroke-width:0.5;" x="266.898702731" xlink:href="#m177f7580d0" y="269.998892857"/>
      </g>
     </g>
     <g id="line2d_21">
      <g>
       <use style="stroke:#000000;stroke-width:0.5;" x="266.898702731" xlink:href="#m5284c7e2a0" y="23.14175"/>
      </g>
     </g>
    </g>
    <g id="xtick_10">
     <g id="line2d_22">
      <g>
       <use style="stroke:#000000;stroke-width:0.5;" x="313.789459034" xlink:href="#m177f7580d0" y="269.998892857"/>
      </g>
     </g>
     <g id="line2d_23">
      <g>
       <use style="stroke:#000000;stroke-width:0.5;" x="313.789459034" xlink:href="#m5284c7e2a0" y="23.14175"/>
      </g>
     </g>
    </g>
    <g id="xtick_11">
     <g id="line2d_24">
      <g>
       <use style="stroke:#000000;stroke-width:0.5;" x="360.680215336" xlink:href="#m177f7580d0" y="269.998892857"/>
      </g>
     </g>
     <g id="line2d_25">
      <g>
       <use style="stroke:#000000;stroke-width:0.5;" x="360.680215336" xlink:href="#m5284c7e2a0" y="23.14175"/>
      </g>
     </g>
    </g>
    <g id="text_5">
     <text style="font-family:DejaVu Sans;font-size:12.0px;font-style:normal;text-anchor:middle;" transform="rotate(-0.000000, 220.007946, 299.730768)" x="220.007946429" y="299.730767857">Q \hl{unit?}</text>
    </g>
   </g>
   <g id="matplotlib.axis_2">
    <g id="ytick_1">
     <g id="line2d_26">
      <defs>
       <path d="
M0 0
L4 0" id="m728421d6d4" style="stroke:#000000;stroke-width:0.5;"/>
      </defs>
      <g>
       <use style="stroke:#000000;stroke-width:0.5;" x="60.579375" xlink:href="#m728421d6d4" y="249.427464286"/>
      </g>
     </g>
     <g id="line2d_27">
      <defs>
       <path d="
M0 0
L-4 0" id="mcb0005524f" style="stroke:#000000;stroke-width:0.5;"/>
      </defs>
      <g>
       <use style="stroke:#000000;stroke-width:0.5;" x="379.436517857" xlink:href="#mcb0005524f" y="249.427464286"/>
      </g>
     </g>
     <g id="text_6">
      <text style="font-family:DejaVu Sans;font-size:12.0px;font-style:normal;text-anchor:end;" transform="rotate(-0.000000, 56.579375, 252.738714)" x="56.579375" y="252.738714286">0.000</text>
     </g>
    </g>
    <g id="ytick_2">
     <g id="line2d_28">
      <g>
       <use style="stroke:#000000;stroke-width:0.5;" x="60.579375" xlink:href="#m728421d6d4" y="197.998892857"/>
      </g>
     </g>
     <g id="line2d_29">
      <g>
       <use style="stroke:#000000;stroke-width:0.5;" x="379.436517857" xlink:href="#mcb0005524f" y="197.998892857"/>
      </g>
     </g>
     <g id="text_7">
      <text style="font-family:DejaVu Sans;font-size:12.0px;font-style:normal;text-anchor:end;" transform="rotate(-0.000000, 56.579375, 201.310143)" x="56.579375" y="201.310142857">0.005</text>
     </g>
    </g>
    <g id="ytick_3">
     <g id="line2d_30">
      <g>
       <use style="stroke:#000000;stroke-width:0.5;" x="60.579375" xlink:href="#m728421d6d4" y="146.570321429"/>
      </g>
     </g>
     <g id="line2d_31">
      <g>
       <use style="stroke:#000000;stroke-width:0.5;" x="379.436517857" xlink:href="#mcb0005524f" y="146.570321429"/>
      </g>
     </g>
     <g id="text_8">
      <text style="font-family:DejaVu Sans;font-size:12.0px;font-style:normal;text-anchor:end;" transform="rotate(-0.000000, 56.579375, 149.881571)" x="56.579375" y="149.881571429">0.010</text>
     </g>
    </g>
    <g id="ytick_4">
     <g id="line2d_32">
      <g>
       <use style="stroke:#000000;stroke-width:0.5;" x="60.579375" xlink:href="#m728421d6d4" y="95.14175"/>
      </g>
     </g>
     <g id="line2d_33">
      <g>
       <use style="stroke:#000000;stroke-width:0.5;" x="379.436517857" xlink:href="#mcb0005524f" y="95.14175"/>
      </g>
     </g>
     <g id="text_9">
      <text style="font-family:DejaVu Sans;font-size:12.0px;font-style:normal;text-anchor:end;" transform="rotate(-0.000000, 56.579375, 98.453000)" x="56.579375" y="98.453">0.015</text>
     </g>
    </g>
    <g id="ytick_5">
     <g id="line2d_34">
      <g>
       <use style="stroke:#000000;stroke-width:0.5;" x="60.579375" xlink:href="#m728421d6d4" y="43.7131785714"/>
      </g>
     </g>
     <g id="line2d_35">
      <g>
       <use style="stroke:#000000;stroke-width:0.5;" x="379.436517857" xlink:href="#mcb0005524f" y="43.7131785714"/>
      </g>
     </g>
     <g id="text_10">
      <text style="font-family:DejaVu Sans;font-size:12.0px;font-style:normal;text-anchor:end;" transform="rotate(-0.000000, 56.579375, 47.024429)" x="56.579375" y="47.0244285714">0.020</text>
     </g>
    </g>
    <g id="ytick_6">
     <g id="line2d_36">
      <defs>
       <path d="
M0 0
L2 0" id="mf0c55a9a47" style="stroke:#000000;stroke-width:0.5;"/>
      </defs>
      <g>
       <use style="stroke:#000000;stroke-width:0.5;" x="60.579375" xlink:href="#mf0c55a9a47" y="249.427464286"/>
      </g>
     </g>
     <g id="line2d_37">
      <defs>
       <path d="
M0 0
L-2 0" id="ma4f294b3af" style="stroke:#000000;stroke-width:0.5;"/>
      </defs>
      <g>
       <use style="stroke:#000000;stroke-width:0.5;" x="379.436517857" xlink:href="#ma4f294b3af" y="249.427464286"/>
      </g>
     </g>
    </g>
    <g id="ytick_7">
     <g id="line2d_38">
      <g>
       <use style="stroke:#000000;stroke-width:0.5;" x="60.579375" xlink:href="#mf0c55a9a47" y="223.713178571"/>
      </g>
     </g>
     <g id="line2d_39">
      <g>
       <use style="stroke:#000000;stroke-width:0.5;" x="379.436517857" xlink:href="#ma4f294b3af" y="223.713178571"/>
      </g>
     </g>
    </g>
    <g id="ytick_8">
     <g id="line2d_40">
      <g>
       <use style="stroke:#000000;stroke-width:0.5;" x="60.579375" xlink:href="#mf0c55a9a47" y="197.998892857"/>
      </g>
     </g>
     <g id="line2d_41">
      <g>
       <use style="stroke:#000000;stroke-width:0.5;" x="379.436517857" xlink:href="#ma4f294b3af" y="197.998892857"/>
      </g>
     </g>
    </g>
    <g id="ytick_9">
     <g id="line2d_42">
      <g>
       <use style="stroke:#000000;stroke-width:0.5;" x="60.579375" xlink:href="#mf0c55a9a47" y="172.284607143"/>
      </g>
     </g>
     <g id="line2d_43">
      <g>
       <use style="stroke:#000000;stroke-width:0.5;" x="379.436517857" xlink:href="#ma4f294b3af" y="172.284607143"/>
      </g>
     </g>
    </g>
    <g id="ytick_10">
     <g id="line2d_44">
      <g>
       <use style="stroke:#000000;stroke-width:0.5;" x="60.579375" xlink:href="#mf0c55a9a47" y="146.570321429"/>
      </g>
     </g>
     <g id="line2d_45">
      <g>
       <use style="stroke:#000000;stroke-width:0.5;" x="379.436517857" xlink:href="#ma4f294b3af" y="146.570321429"/>
      </g>
     </g>
    </g>
    <g id="ytick_11">
     <g id="line2d_46">
      <g>
       <use style="stroke:#000000;stroke-width:0.5;" x="60.579375" xlink:href="#mf0c55a9a47" y="120.856035714"/>
      </g>
     </g>
     <g id="line2d_47">
      <g>
       <use style="stroke:#000000;stroke-width:0.5;" x="379.436517857" xlink:href="#ma4f294b3af" y="120.856035714"/>
      </g>
     </g>
    </g>
    <g id="ytick_12">
     <g id="line2d_48">
      <g>
       <use style="stroke:#000000;stroke-width:0.5;" x="60.579375" xlink:href="#mf0c55a9a47" y="95.14175"/>
      </g>
     </g>
     <g id="line2d_49">
      <g>
       <use style="stroke:#000000;stroke-width:0.5;" x="379.436517857" xlink:href="#ma4f294b3af" y="95.14175"/>
      </g>
     </g>
    </g>
    <g id="ytick_13">
     <g id="line2d_50">
      <g>
       <use style="stroke:#000000;stroke-width:0.5;" x="60.579375" xlink:href="#mf0c55a9a47" y="69.4274642857"/>
      </g>
     </g>
     <g id="line2d_51">
      <g>
       <use style="stroke:#000000;stroke-width:0.5;" x="379.436517857" xlink:href="#ma4f294b3af" y="69.4274642857"/>
      </g>
     </g>
    </g>
    <g id="ytick_14">
     <g id="line2d_52">
      <g>
       <use style="stroke:#000000;stroke-width:0.5;" x="60.579375" xlink:href="#mf0c55a9a47" y="43.7131785714"/>
      </g>
     </g>
     <g id="line2d_53">
      <g>
       <use style="stroke:#000000;stroke-width:0.5;" x="379.436517857" xlink:href="#ma4f294b3af" y="43.7131785714"/>
      </g>
     </g>
    </g>
    <g id="text_11">
     <text style="font-family:DejaVu Sans;font-size:12.0px;font-style:normal;text-anchor:middle;" transform="rotate(-90.000000, 16.318125, 146.570321)" x="16.318125" y="146.570321429">Relative occurrence</text>
    </g>
   </g>
   <g id="patch_3">
    <path d="
M60.5794 23.1417
L379.437 23.1417" style="fill:none;stroke:#000000;"/>
   </g>
   <g id="patch_4">
    <path d="
M379.437 269.999
L379.437 23.1417" style="fill:none;stroke:#000000;"/>
   </g>
   <g id="patch_5">
    <path d="
M60.5794 269.999
L379.437 269.999" style="fill:none;stroke:#000000;"/>
   </g>
   <g id="patch_6">
    <path d="
M60.5794 269.999
L60.5794 23.1417" style="fill:none;stroke:#000000;"/>
   </g>
   <g id="text_12">
    <text style="font-family:DejaVu Sans;font-size:12.0px;font-style:normal;text-anchor:start;" transform="rotate(-0.000000, 76.522232, 52.764607)" x="76.5222321429" y="52.7646071429">$r = 10.0$ \AA</text>
   </g>
   <g id="text_13">
    <text style="font-family:DejaVu Sans;font-size:14.4px;font-style:normal;text-anchor:middle;" transform="rotate(-0.000000, 220.007946, 18.141750)" x="220.007946429" y="18.14175">Tetrahedral order parameter</text>
   </g>
   <g id="legend_1">
    <g id="patch_7">
     <path d="
M70.6594 169.867
L201.463 169.867
Q204.343 169.867 204.343 166.987
L204.343 126.154
Q204.343 123.274 201.463 123.274
L70.6594 123.274
Q67.7794 123.274 67.7794 126.154
L67.7794 166.987
Q67.7794 169.867 70.6594 169.867
z
" style="fill:#ffffff;stroke:#000000;"/>
    </g>
    <g id="line2d_54">
     <path d="
M77.8594 134.936
L98.0194 134.936" style="fill:none;stroke:#0000ff;stroke-linecap:square;"/>
    </g>
    <g id="line2d_55"/>
    <g id="text_14">
     <text style="font-family:DejaVu Sans;font-size:14.4px;font-style:normal;text-anchor:start;" transform="rotate(-0.000000, 105.219375, 139.975571)" x="105.219375" y="139.975571429">Bulk, flat \#1</text>
    </g>
    <g id="line2d_56">
     <path d="
M77.8594 156.072
L98.0194 156.072" style="fill:none;stroke:#008000;stroke-linecap:square;"/>
    </g>
    <g id="line2d_57"/>
    <g id="text_15">
     <text style="font-family:DejaVu Sans;font-size:14.4px;font-style:normal;text-anchor:start;" transform="rotate(-0.000000, 105.219375, 161.112071)" x="105.219375" y="161.112071429">Bulk, flat \#2</text>
    </g>
   </g>
  </g>
 </g>
 <defs>
  <clipPath id="p0ee8c94985">
   <rect height="246.857142857" width="318.857142857" x="60.579375" y="23.14175"/>
  </clipPath>
 </defs>
</svg>
