<?xml version="1.0" encoding="utf-8" standalone="no"?>
<!DOCTYPE svg PUBLIC "-//W3C//DTD SVG 1.1//EN"
  "http://www.w3.org/Graphics/SVG/1.1/DTD/svg11.dtd">
<!-- Created with matplotlib (http://matplotlib.org/) -->
<svg height="255pt" version="1.1" viewBox="0 0 305 255" width="305pt" xmlns="http://www.w3.org/2000/svg" xmlns:xlink="http://www.w3.org/1999/xlink">
 <defs>
  <style type="text/css">
*{stroke-linecap:butt;stroke-linejoin:round;}
  </style>
 </defs>
 <g id="figure_1">
  <g id="patch_1">
   <path d="
M8.88178e-16 255.426
L305.781 255.426
L305.781 0
L8.88178e-16 0
z
" style="fill:#ffffff;"/>
  </g>
  <g id="axes_1">
   <g id="patch_2">
    <path d="
M45.3094 215.998
L293.309 215.998
L293.309 23.9981
L45.3094 23.9981
z
" style="fill:#ffffff;"/>
   </g>
   <g id="line2d_1">
    <path clip-path="url(#p50756b8c15)" d="
M227.23 215.998
L227.23 23.9981" style="fill:none;opacity:0.5;stroke:#0000ff;stroke-linecap:square;"/>
   </g>
   <g id="line2d_2">
    <path clip-path="url(#p50756b8c15)" d="
M226.077 215.998
L226.077 23.9981" style="fill:none;opacity:0.5;stroke:#008000;stroke-linecap:square;"/>
   </g>
   <g id="line2d_3">
    <path clip-path="url(#p50756b8c15)" d="
M53.0594 207.267
L90.2594 207.202
L105.759 207.014
L113.509 206.752
L122.809 206.111
L129.009 205.237
L130.559 205.162
L136.759 203.79
L138.309 203.313
L139.859 202.65
L141.409 202.395
L146.059 200.767
L147.609 199.916
L149.159 199.257
L152.259 197.387
L153.809 196.636
L155.359 195.637
L160.009 191.991
L161.559 191.016
L163.109 189.248
L164.659 187.663
L166.209 186.284
L169.309 182.615
L172.409 178.056
L175.509 173.218
L180.159 163.994
L181.709 160.481
L183.259 156.667
L187.909 143.825
L189.459 138.366
L191.009 132.033
L192.559 126.454
L195.659 112.456
L200.309 88.6903
L204.959 64.7748
L206.509 59.2784
L208.059 55.2716
L209.609 52.9577
L211.159 51.2659
L212.709 50.0782
L214.259 50.5578
L215.809 50.5172
L217.359 51.9739
L220.459 48.4761
L222.009 47.1365
L223.559 46.0791
L225.109 44.123
L226.659 42.8805
L228.209 40.4354
L229.759 39.2468
L231.309 36.964
L232.859 36.2634
L234.409 34.4659
L235.959 34.0902
L237.509 33.0857
L239.059 32.3719
L240.609 31.509
L242.159 31.8367
L243.709 32.9394
L245.259 33.4907
L246.809 34.1685
L248.359 36.491
L249.909 39.8727
L251.459 42.9872
L253.009 46.6729
L256.109 55.4047
L259.209 68.1499
L260.759 74.5395
L263.859 89.4446
L265.409 97.4316
L270.059 124.041
L276.259 162.642
L279.359 182.502
L282.459 199.424
L284.009 205.522
L284.009 205.522" style="fill:none;stroke:#0000ff;stroke-linecap:square;"/>
   </g>
   <g id="line2d_4">
    <path clip-path="url(#p50756b8c15)" d="
M53.0594 207.27
L102.659 207.123
L118.159 206.695
L130.559 205.448
L138.309 203.859
L139.859 203.526
L141.409 202.848
L142.959 202.431
L146.059 201.215
L147.609 200.531
L149.159 200.034
L155.359 196.157
L158.459 193.906
L160.009 192.735
L161.559 191.248
L163.109 189.481
L166.209 186.397
L167.759 184.689
L169.309 182.11
L170.859 179.918
L172.409 177.457
L173.959 175.374
L175.509 172.68
L178.609 166.133
L180.159 162.879
L184.809 150.493
L187.909 140.811
L191.009 128.382
L194.109 114.871
L195.659 107.199
L200.309 81.5907
L201.859 72.7606
L203.409 62.9733
L206.509 49.4621
L208.059 45.5203
L209.609 43.2572
L211.159 41.6506
L212.709 41.438
L214.259 41.3579
L215.809 43.8248
L217.359 43.2172
L218.909 43.0988
L220.459 41.4104
L222.009 40.1569
L223.559 38.4036
L225.109 37.675
L226.659 36.0079
L228.209 34.9786
L229.759 33.574
L231.309 32.7769
L232.859 32.3241
L234.409 31.6898
L235.959 30.8678
L237.509 31.3954
L239.059 30.5813
L240.609 31.9994
L242.159 32.8623
L243.709 35.0747
L245.259 36.362
L248.359 41.5589
L249.909 46.6056
L251.459 50.0012
L253.009 54.5212
L256.109 65.5504
L259.209 78.9736
L262.309 93.5851
L266.959 117.524
L271.609 143.746
L279.359 186.977
L280.909 194.45
L282.459 200.975
L284.009 205.88
L284.009 205.88" style="fill:none;stroke:#008000;stroke-linecap:square;"/>
   </g>
   <g id="matplotlib.axis_1">
    <g id="xtick_1">
     <g id="line2d_5">
      <defs>
       <path d="
M0 0
L0 -4" id="m93b0483c22" style="stroke:#000000;stroke-width:0.5;"/>
      </defs>
      <g>
       <use style="stroke:#000000;stroke-width:0.5;" x="53.059375" xlink:href="#m93b0483c22" y="215.998125"/>
      </g>
     </g>
     <g id="line2d_6">
      <defs>
       <path d="
M0 0
L0 4" id="m741efc42ff" style="stroke:#000000;stroke-width:0.5;"/>
      </defs>
      <g>
       <use style="stroke:#000000;stroke-width:0.5;" x="53.059375" xlink:href="#m741efc42ff" y="23.998125"/>
      </g>
     </g>
     <g id="text_1">
      <text style="font-family:DejaVu Sans;font-size:12.0px;font-style:normal;text-anchor:middle;" transform="rotate(-0.000000, 53.059375, 229.116250)" x="53.059375" y="229.11625">−0.5</text>
     </g>
    </g>
    <g id="xtick_2">
     <g id="line2d_7">
      <g>
       <use style="stroke:#000000;stroke-width:0.5;" x="130.559375" xlink:href="#m93b0483c22" y="215.998125"/>
      </g>
     </g>
     <g id="line2d_8">
      <g>
       <use style="stroke:#000000;stroke-width:0.5;" x="130.559375" xlink:href="#m741efc42ff" y="23.998125"/>
      </g>
     </g>
     <g id="text_2">
      <text style="font-family:DejaVu Sans;font-size:12.0px;font-style:normal;text-anchor:middle;" transform="rotate(-0.000000, 130.559375, 229.116250)" x="130.559375" y="229.11625">0.0</text>
     </g>
    </g>
    <g id="xtick_3">
     <g id="line2d_9">
      <g>
       <use style="stroke:#000000;stroke-width:0.5;" x="208.059375" xlink:href="#m93b0483c22" y="215.998125"/>
      </g>
     </g>
     <g id="line2d_10">
      <g>
       <use style="stroke:#000000;stroke-width:0.5;" x="208.059375" xlink:href="#m741efc42ff" y="23.998125"/>
      </g>
     </g>
     <g id="text_3">
      <text style="font-family:DejaVu Sans;font-size:12.0px;font-style:normal;text-anchor:middle;" transform="rotate(-0.000000, 208.059375, 229.116250)" x="208.059375" y="229.11625">0.5</text>
     </g>
    </g>
    <g id="xtick_4">
     <g id="line2d_11">
      <g>
       <use style="stroke:#000000;stroke-width:0.5;" x="285.559375" xlink:href="#m93b0483c22" y="215.998125"/>
      </g>
     </g>
     <g id="line2d_12">
      <g>
       <use style="stroke:#000000;stroke-width:0.5;" x="285.559375" xlink:href="#m741efc42ff" y="23.998125"/>
      </g>
     </g>
     <g id="text_4">
      <text style="font-family:DejaVu Sans;font-size:12.0px;font-style:normal;text-anchor:middle;" transform="rotate(-0.000000, 285.559375, 229.116250)" x="285.559375" y="229.11625">1.0</text>
     </g>
    </g>
    <g id="xtick_5">
     <g id="line2d_13">
      <defs>
       <path d="
M0 0
L0 -2" id="m177f7580d0" style="stroke:#000000;stroke-width:0.5;"/>
      </defs>
      <g>
       <use style="stroke:#000000;stroke-width:0.5;" x="53.059375" xlink:href="#m177f7580d0" y="215.998125"/>
      </g>
     </g>
     <g id="line2d_14">
      <defs>
       <path d="
M0 0
L0 2" id="m5284c7e2a0" style="stroke:#000000;stroke-width:0.5;"/>
      </defs>
      <g>
       <use style="stroke:#000000;stroke-width:0.5;" x="53.059375" xlink:href="#m5284c7e2a0" y="23.998125"/>
      </g>
     </g>
    </g>
    <g id="xtick_6">
     <g id="line2d_15">
      <g>
       <use style="stroke:#000000;stroke-width:0.5;" x="91.809375" xlink:href="#m177f7580d0" y="215.998125"/>
      </g>
     </g>
     <g id="line2d_16">
      <g>
       <use style="stroke:#000000;stroke-width:0.5;" x="91.809375" xlink:href="#m5284c7e2a0" y="23.998125"/>
      </g>
     </g>
    </g>
    <g id="xtick_7">
     <g id="line2d_17">
      <g>
       <use style="stroke:#000000;stroke-width:0.5;" x="130.559375" xlink:href="#m177f7580d0" y="215.998125"/>
      </g>
     </g>
     <g id="line2d_18">
      <g>
       <use style="stroke:#000000;stroke-width:0.5;" x="130.559375" xlink:href="#m5284c7e2a0" y="23.998125"/>
      </g>
     </g>
    </g>
    <g id="xtick_8">
     <g id="line2d_19">
      <g>
       <use style="stroke:#000000;stroke-width:0.5;" x="169.309375" xlink:href="#m177f7580d0" y="215.998125"/>
      </g>
     </g>
     <g id="line2d_20">
      <g>
       <use style="stroke:#000000;stroke-width:0.5;" x="169.309375" xlink:href="#m5284c7e2a0" y="23.998125"/>
      </g>
     </g>
    </g>
    <g id="xtick_9">
     <g id="line2d_21">
      <g>
       <use style="stroke:#000000;stroke-width:0.5;" x="208.059375" xlink:href="#m177f7580d0" y="215.998125"/>
      </g>
     </g>
     <g id="line2d_22">
      <g>
       <use style="stroke:#000000;stroke-width:0.5;" x="208.059375" xlink:href="#m5284c7e2a0" y="23.998125"/>
      </g>
     </g>
    </g>
    <g id="xtick_10">
     <g id="line2d_23">
      <g>
       <use style="stroke:#000000;stroke-width:0.5;" x="246.809375" xlink:href="#m177f7580d0" y="215.998125"/>
      </g>
     </g>
     <g id="line2d_24">
      <g>
       <use style="stroke:#000000;stroke-width:0.5;" x="246.809375" xlink:href="#m5284c7e2a0" y="23.998125"/>
      </g>
     </g>
    </g>
    <g id="xtick_11">
     <g id="line2d_25">
      <g>
       <use style="stroke:#000000;stroke-width:0.5;" x="285.559375" xlink:href="#m177f7580d0" y="215.998125"/>
      </g>
     </g>
     <g id="line2d_26">
      <g>
       <use style="stroke:#000000;stroke-width:0.5;" x="285.559375" xlink:href="#m5284c7e2a0" y="23.998125"/>
      </g>
     </g>
    </g>
    <g id="text_5">
     <text style="font-family:DejaVu Sans;font-size:12.0px;font-style:normal;text-anchor:middle;" transform="rotate(-0.000000, 169.309375, 245.730000)" x="169.309375" y="245.73">Tetrahedral order parameter Q</text>
    </g>
   </g>
   <g id="matplotlib.axis_2">
    <g id="ytick_1">
     <g id="line2d_27">
      <defs>
       <path d="
M0 0
L4 0" id="m728421d6d4" style="stroke:#000000;stroke-width:0.5;"/>
      </defs>
      <g>
       <use style="stroke:#000000;stroke-width:0.5;" x="45.309375" xlink:href="#m728421d6d4" y="207.270852273"/>
      </g>
     </g>
     <g id="line2d_28">
      <defs>
       <path d="
M0 0
L-4 0" id="mcb0005524f" style="stroke:#000000;stroke-width:0.5;"/>
      </defs>
      <g>
       <use style="stroke:#000000;stroke-width:0.5;" x="293.309375" xlink:href="#mcb0005524f" y="207.270852273"/>
      </g>
     </g>
     <g id="text_6">
      <text style="font-family:DejaVu Sans;font-size:12.0px;font-style:normal;text-anchor:end;" transform="rotate(-0.000000, 41.309375, 210.582102)" x="41.309375" y="210.582102273">0.0</text>
     </g>
    </g>
    <g id="ytick_2">
     <g id="line2d_29">
      <g>
       <use style="stroke:#000000;stroke-width:0.5;" x="45.309375" xlink:href="#m728421d6d4" y="163.634488636"/>
      </g>
     </g>
     <g id="line2d_30">
      <g>
       <use style="stroke:#000000;stroke-width:0.5;" x="293.309375" xlink:href="#mcb0005524f" y="163.634488636"/>
      </g>
     </g>
     <g id="text_7">
      <text style="font-family:DejaVu Sans;font-size:12.0px;font-style:normal;text-anchor:end;" transform="rotate(-0.000000, 41.309375, 166.945739)" x="41.309375" y="166.945738636">0.5</text>
     </g>
    </g>
    <g id="ytick_3">
     <g id="line2d_31">
      <g>
       <use style="stroke:#000000;stroke-width:0.5;" x="45.309375" xlink:href="#m728421d6d4" y="119.998125"/>
      </g>
     </g>
     <g id="line2d_32">
      <g>
       <use style="stroke:#000000;stroke-width:0.5;" x="293.309375" xlink:href="#mcb0005524f" y="119.998125"/>
      </g>
     </g>
     <g id="text_8">
      <text style="font-family:DejaVu Sans;font-size:12.0px;font-style:normal;text-anchor:end;" transform="rotate(-0.000000, 41.309375, 123.309375)" x="41.309375" y="123.309375">1.0</text>
     </g>
    </g>
    <g id="ytick_4">
     <g id="line2d_33">
      <g>
       <use style="stroke:#000000;stroke-width:0.5;" x="45.309375" xlink:href="#m728421d6d4" y="76.3617613636"/>
      </g>
     </g>
     <g id="line2d_34">
      <g>
       <use style="stroke:#000000;stroke-width:0.5;" x="293.309375" xlink:href="#mcb0005524f" y="76.3617613636"/>
      </g>
     </g>
     <g id="text_9">
      <text style="font-family:DejaVu Sans;font-size:12.0px;font-style:normal;text-anchor:end;" transform="rotate(-0.000000, 41.309375, 79.673011)" x="41.309375" y="79.6730113636">1.5</text>
     </g>
    </g>
    <g id="ytick_5">
     <g id="line2d_35">
      <g>
       <use style="stroke:#000000;stroke-width:0.5;" x="45.309375" xlink:href="#m728421d6d4" y="32.7253977273"/>
      </g>
     </g>
     <g id="line2d_36">
      <g>
       <use style="stroke:#000000;stroke-width:0.5;" x="293.309375" xlink:href="#mcb0005524f" y="32.7253977273"/>
      </g>
     </g>
     <g id="text_10">
      <text style="font-family:DejaVu Sans;font-size:12.0px;font-style:normal;text-anchor:end;" transform="rotate(-0.000000, 41.309375, 36.036648)" x="41.309375" y="36.0366477273">2.0</text>
     </g>
    </g>
    <g id="ytick_6">
     <g id="line2d_37">
      <defs>
       <path d="
M0 0
L2 0" id="mf0c55a9a47" style="stroke:#000000;stroke-width:0.5;"/>
      </defs>
      <g>
       <use style="stroke:#000000;stroke-width:0.5;" x="45.309375" xlink:href="#mf0c55a9a47" y="207.270852273"/>
      </g>
     </g>
     <g id="line2d_38">
      <defs>
       <path d="
M0 0
L-2 0" id="ma4f294b3af" style="stroke:#000000;stroke-width:0.5;"/>
      </defs>
      <g>
       <use style="stroke:#000000;stroke-width:0.5;" x="293.309375" xlink:href="#ma4f294b3af" y="207.270852273"/>
      </g>
     </g>
    </g>
    <g id="ytick_7">
     <g id="line2d_39">
      <g>
       <use style="stroke:#000000;stroke-width:0.5;" x="45.309375" xlink:href="#mf0c55a9a47" y="185.452670455"/>
      </g>
     </g>
     <g id="line2d_40">
      <g>
       <use style="stroke:#000000;stroke-width:0.5;" x="293.309375" xlink:href="#ma4f294b3af" y="185.452670455"/>
      </g>
     </g>
    </g>
    <g id="ytick_8">
     <g id="line2d_41">
      <g>
       <use style="stroke:#000000;stroke-width:0.5;" x="45.309375" xlink:href="#mf0c55a9a47" y="163.634488636"/>
      </g>
     </g>
     <g id="line2d_42">
      <g>
       <use style="stroke:#000000;stroke-width:0.5;" x="293.309375" xlink:href="#ma4f294b3af" y="163.634488636"/>
      </g>
     </g>
    </g>
    <g id="ytick_9">
     <g id="line2d_43">
      <g>
       <use style="stroke:#000000;stroke-width:0.5;" x="45.309375" xlink:href="#mf0c55a9a47" y="141.816306818"/>
      </g>
     </g>
     <g id="line2d_44">
      <g>
       <use style="stroke:#000000;stroke-width:0.5;" x="293.309375" xlink:href="#ma4f294b3af" y="141.816306818"/>
      </g>
     </g>
    </g>
    <g id="ytick_10">
     <g id="line2d_45">
      <g>
       <use style="stroke:#000000;stroke-width:0.5;" x="45.309375" xlink:href="#mf0c55a9a47" y="119.998125"/>
      </g>
     </g>
     <g id="line2d_46">
      <g>
       <use style="stroke:#000000;stroke-width:0.5;" x="293.309375" xlink:href="#ma4f294b3af" y="119.998125"/>
      </g>
     </g>
    </g>
    <g id="ytick_11">
     <g id="line2d_47">
      <g>
       <use style="stroke:#000000;stroke-width:0.5;" x="45.309375" xlink:href="#mf0c55a9a47" y="98.1799431818"/>
      </g>
     </g>
     <g id="line2d_48">
      <g>
       <use style="stroke:#000000;stroke-width:0.5;" x="293.309375" xlink:href="#ma4f294b3af" y="98.1799431818"/>
      </g>
     </g>
    </g>
    <g id="ytick_12">
     <g id="line2d_49">
      <g>
       <use style="stroke:#000000;stroke-width:0.5;" x="45.309375" xlink:href="#mf0c55a9a47" y="76.3617613636"/>
      </g>
     </g>
     <g id="line2d_50">
      <g>
       <use style="stroke:#000000;stroke-width:0.5;" x="293.309375" xlink:href="#ma4f294b3af" y="76.3617613636"/>
      </g>
     </g>
    </g>
    <g id="ytick_13">
     <g id="line2d_51">
      <g>
       <use style="stroke:#000000;stroke-width:0.5;" x="45.309375" xlink:href="#mf0c55a9a47" y="54.5435795455"/>
      </g>
     </g>
     <g id="line2d_52">
      <g>
       <use style="stroke:#000000;stroke-width:0.5;" x="293.309375" xlink:href="#ma4f294b3af" y="54.5435795455"/>
      </g>
     </g>
    </g>
    <g id="ytick_14">
     <g id="line2d_53">
      <g>
       <use style="stroke:#000000;stroke-width:0.5;" x="45.309375" xlink:href="#mf0c55a9a47" y="32.7253977273"/>
      </g>
     </g>
     <g id="line2d_54">
      <g>
       <use style="stroke:#000000;stroke-width:0.5;" x="293.309375" xlink:href="#ma4f294b3af" y="32.7253977273"/>
      </g>
     </g>
    </g>
    <g id="text_11">
     <text style="font-family:DejaVu Sans;font-size:12.0px;font-style:normal;text-anchor:middle;" transform="rotate(-90.000000, 16.318125, 119.998125)" x="16.318125" y="119.998125">Relative occurrence P(Q) [\%]</text>
    </g>
   </g>
   <g id="patch_3">
    <path d="
M45.3094 23.9981
L293.309 23.9981" style="fill:none;stroke:#000000;"/>
   </g>
   <g id="patch_4">
    <path d="
M293.309 215.998
L293.309 23.9981" style="fill:none;stroke:#000000;"/>
   </g>
   <g id="patch_5">
    <path d="
M45.3094 215.998
L293.309 215.998" style="fill:none;stroke:#000000;"/>
   </g>
   <g id="patch_6">
    <path d="
M45.3094 215.998
L45.3094 23.9981" style="fill:none;stroke:#000000;"/>
   </g>
   <g id="text_12">
    <text style="font-family:DejaVu Sans;font-size:12.0px;font-style:normal;text-anchor:start;" transform="rotate(-0.000000, 57.709375, 47.038125)" x="57.709375" y="47.038125">$r = 10.0$ \AA</text>
   </g>
   <g id="text_13">
    <text style="font-family:DejaVu Sans;font-size:12.0px;font-style:normal;text-anchor:middle;" transform="rotate(-0.000000, 169.309375, 16.318125)" x="169.309375" y="16.318125">Tetrahedral order parameter for bulk water</text>
   </g>
   <g id="legend_1">
    <g id="patch_7">
     <path d="
M55.3894 143.295
L194.664 143.295
Q197.544 143.295 197.544 140.415
L197.544 99.5816
Q197.544 96.7016 194.664 96.7016
L55.3894 96.7016
Q52.5094 96.7016 52.5094 99.5816
L52.5094 140.415
Q52.5094 143.295 55.3894 143.295
z
" style="fill:#ffffff;stroke:#000000;"/>
    </g>
    <g id="line2d_55">
     <path d="
M62.5894 108.363
L82.7494 108.363" style="fill:none;stroke:#0000ff;stroke-linecap:square;"/>
    </g>
    <g id="line2d_56"/>
    <g id="text_14">
     <text style="font-family:DejaVu Sans;font-size:14.4px;font-style:normal;text-anchor:start;" transform="rotate(-0.000000, 89.949375, 113.403375)" x="89.949375" y="113.403375">Reference \#1</text>
    </g>
    <g id="line2d_57">
     <path d="
M62.5894 129.5
L82.7494 129.5" style="fill:none;stroke:#008000;stroke-linecap:square;"/>
    </g>
    <g id="line2d_58"/>
    <g id="text_15">
     <text style="font-family:DejaVu Sans;font-size:14.4px;font-style:normal;text-anchor:start;" transform="rotate(-0.000000, 89.949375, 134.539875)" x="89.949375" y="134.539875">Reference \#2</text>
    </g>
   </g>
  </g>
 </g>
 <defs>
  <clipPath id="p50756b8c15">
   <rect height="192.0" width="248.0" x="45.309375" y="23.998125"/>
  </clipPath>
 </defs>
</svg>
