<?xml version="1.0" encoding="utf-8" standalone="no"?>
<!DOCTYPE svg PUBLIC "-//W3C//DTD SVG 1.1//EN"
  "http://www.w3.org/Graphics/SVG/1.1/DTD/svg11.dtd">
<!-- Created with matplotlib (http://matplotlib.org/) -->
<svg height="376pt" version="1.1" viewBox="0 0 475 376" width="475pt" xmlns="http://www.w3.org/2000/svg" xmlns:xlink="http://www.w3.org/1999/xlink">
 <defs>
  <style type="text/css">
*{stroke-linecap:butt;stroke-linejoin:round;}
  </style>
 </defs>
 <g id="figure_1">
  <g id="patch_1">
   <path d="
M0 376.751
L475.834 376.751
L475.834 0
L0 0
z
" style="fill:#ffffff;"/>
  </g>
  <g id="axes_1">
   <g id="patch_2">
    <path d="
M56.2388 337.324
L462.057 337.324
L462.057 23.1417
L56.2388 23.1417
z
" style="fill:#ffffff;"/>
   </g>
   <g id="line2d_1">
    <path clip-path="url(#p5d401f91cd)" d="
M70.7323 207.907
L85.2258 239.884
L99.7193 264.108
L114.213 284.052
L128.706 299.556
L143.2 306.792
L157.693 311.192
L172.187 310.796
L186.68 309.192
L201.174 300.348
L215.667 292.069
L230.161 282.149
L244.654 273.485
L259.148 258.372
L273.641 247.614
L288.135 236.269
L302.628 223.792
L317.122 212.613
L331.615 202.72
L346.109 199.135
L360.602 197.289
L375.096 194.442
L389.589 198.042
L404.083 200.135
L418.576 200.668
L433.07 202.116
L447.563 202.758
L462.057 202.178" style="fill:none;stroke:#0000ff;stroke-linecap:square;"/>
   </g>
   <g id="line2d_2">
    <path clip-path="url(#p5d401f91cd)" d="
M70.7323 214.271
L85.2258 236.842
L99.7193 264.214
L114.213 285.094
L128.706 295.964
L143.2 309.432
L157.693 319.98
L172.187 323.066
L186.68 320.606
L201.174 316.457
L215.667 312.768
L230.161 305.271
L244.654 297.172
L259.148 287.395
L273.641 275.782
L288.135 263.512
L302.628 248.543
L317.122 233.963
L331.615 220.62
L346.109 212.78
L360.602 208.047
L375.096 204.473
L389.589 202.784
L404.083 204.754
L418.576 205.736
L433.07 208.515
L447.563 211.066
L462.057 210.579" style="fill:none;stroke:#008000;stroke-linecap:square;"/>
   </g>
   <g id="line2d_3">
    <path clip-path="url(#p5d401f91cd)" d="
M70.7323 153.738
L85.2258 201.979
L99.7193 230.492
L114.213 246.542
L128.706 257.843
L143.2 267.043
L157.693 272.012
L172.187 272.86
L186.68 269.844
L201.174 265.521
L215.667 258.369
L230.161 249.36
L244.654 239.865
L259.148 230.437
L273.641 221.363
L288.135 210.539
L302.628 200.81
L317.122 192.679
L331.615 187.111
L346.109 184.093
L360.602 183.546
L375.096 183.121
L389.589 182.827
L404.083 183.379
L418.576 183.714
L433.07 183.754
L447.563 184.194
L462.057 183.665" style="fill:none;stroke:#ff0000;stroke-dasharray:6.000000,6.000000;stroke-dashoffset:0.0;"/>
   </g>
   <g id="line2d_4">
    <path clip-path="url(#p5d401f91cd)" d="
M70.7323 105.155
L85.2258 156.342
L99.7193 185.068
L114.213 197.277
L128.706 202.46
L143.2 206.964
L157.693 211.518
L172.187 211.516
L186.68 206.798
L201.174 197.419
L215.667 188.267
L230.161 177.239
L244.654 166.5
L259.148 157.396
L273.641 150.223
L288.135 145.682
L302.628 142.227
L317.122 139.944
L331.615 139.233
L346.109 139.579
L360.602 139.783
L375.096 140.61
L389.589 141.678
L404.083 142.345
L418.576 142.556
L433.07 143.051
L447.563 142.348
L462.057 142.374" style="fill:none;stroke:#00bfbf;stroke-dasharray:6.000000,6.000000;stroke-dashoffset:0.0;"/>
   </g>
   <g id="matplotlib.axis_1">
    <g id="xtick_1">
     <g id="line2d_5">
      <defs>
       <path d="
M0 0
L0 -4" id="m93b0483c22" style="stroke:#000000;stroke-width:0.5;"/>
      </defs>
      <g>
       <use style="stroke:#000000;stroke-width:0.5;" x="56.23875" xlink:href="#m93b0483c22" y="337.323568182"/>
      </g>
     </g>
     <g id="line2d_6">
      <defs>
       <path d="
M0 0
L0 4" id="m741efc42ff" style="stroke:#000000;stroke-width:0.5;"/>
      </defs>
      <g>
       <use style="stroke:#000000;stroke-width:0.5;" x="56.23875" xlink:href="#m741efc42ff" y="23.14175"/>
      </g>
     </g>
     <g id="text_1">
      <text style="font-family:DejaVu Sans;font-size:12.0px;font-style:normal;text-anchor:middle;" transform="rotate(-0.000000, 56.238750, 350.441693)" x="56.23875" y="350.441693182">3</text>
     </g>
    </g>
    <g id="xtick_2">
     <g id="line2d_7">
      <g>
       <use style="stroke:#000000;stroke-width:0.5;" x="114.212775974" xlink:href="#m93b0483c22" y="337.323568182"/>
      </g>
     </g>
     <g id="line2d_8">
      <g>
       <use style="stroke:#000000;stroke-width:0.5;" x="114.212775974" xlink:href="#m741efc42ff" y="23.14175"/>
      </g>
     </g>
     <g id="text_2">
      <text style="font-family:DejaVu Sans;font-size:12.0px;font-style:normal;text-anchor:middle;" transform="rotate(-0.000000, 114.212776, 350.441693)" x="114.212775974" y="350.441693182">4</text>
     </g>
    </g>
    <g id="xtick_3">
     <g id="line2d_9">
      <g>
       <use style="stroke:#000000;stroke-width:0.5;" x="172.186801948" xlink:href="#m93b0483c22" y="337.323568182"/>
      </g>
     </g>
     <g id="line2d_10">
      <g>
       <use style="stroke:#000000;stroke-width:0.5;" x="172.186801948" xlink:href="#m741efc42ff" y="23.14175"/>
      </g>
     </g>
     <g id="text_3">
      <text style="font-family:DejaVu Sans;font-size:12.0px;font-style:normal;text-anchor:middle;" transform="rotate(-0.000000, 172.186802, 350.441693)" x="172.186801948" y="350.441693182">5</text>
     </g>
    </g>
    <g id="xtick_4">
     <g id="line2d_11">
      <g>
       <use style="stroke:#000000;stroke-width:0.5;" x="230.160827922" xlink:href="#m93b0483c22" y="337.323568182"/>
      </g>
     </g>
     <g id="line2d_12">
      <g>
       <use style="stroke:#000000;stroke-width:0.5;" x="230.160827922" xlink:href="#m741efc42ff" y="23.14175"/>
      </g>
     </g>
     <g id="text_4">
      <text style="font-family:DejaVu Sans;font-size:12.0px;font-style:normal;text-anchor:middle;" transform="rotate(-0.000000, 230.160828, 350.441693)" x="230.160827922" y="350.441693182">6</text>
     </g>
    </g>
    <g id="xtick_5">
     <g id="line2d_13">
      <g>
       <use style="stroke:#000000;stroke-width:0.5;" x="288.134853896" xlink:href="#m93b0483c22" y="337.323568182"/>
      </g>
     </g>
     <g id="line2d_14">
      <g>
       <use style="stroke:#000000;stroke-width:0.5;" x="288.134853896" xlink:href="#m741efc42ff" y="23.14175"/>
      </g>
     </g>
     <g id="text_5">
      <text style="font-family:DejaVu Sans;font-size:12.0px;font-style:normal;text-anchor:middle;" transform="rotate(-0.000000, 288.134854, 350.441693)" x="288.134853896" y="350.441693182">7</text>
     </g>
    </g>
    <g id="xtick_6">
     <g id="line2d_15">
      <g>
       <use style="stroke:#000000;stroke-width:0.5;" x="346.10887987" xlink:href="#m93b0483c22" y="337.323568182"/>
      </g>
     </g>
     <g id="line2d_16">
      <g>
       <use style="stroke:#000000;stroke-width:0.5;" x="346.10887987" xlink:href="#m741efc42ff" y="23.14175"/>
      </g>
     </g>
     <g id="text_6">
      <text style="font-family:DejaVu Sans;font-size:12.0px;font-style:normal;text-anchor:middle;" transform="rotate(-0.000000, 346.108880, 350.441693)" x="346.10887987" y="350.441693182">8</text>
     </g>
    </g>
    <g id="xtick_7">
     <g id="line2d_17">
      <g>
       <use style="stroke:#000000;stroke-width:0.5;" x="404.082905844" xlink:href="#m93b0483c22" y="337.323568182"/>
      </g>
     </g>
     <g id="line2d_18">
      <g>
       <use style="stroke:#000000;stroke-width:0.5;" x="404.082905844" xlink:href="#m741efc42ff" y="23.14175"/>
      </g>
     </g>
     <g id="text_7">
      <text style="font-family:DejaVu Sans;font-size:12.0px;font-style:normal;text-anchor:middle;" transform="rotate(-0.000000, 404.082906, 350.441693)" x="404.082905844" y="350.441693182">9</text>
     </g>
    </g>
    <g id="xtick_8">
     <g id="line2d_19">
      <g>
       <use style="stroke:#000000;stroke-width:0.5;" x="462.056931818" xlink:href="#m93b0483c22" y="337.323568182"/>
      </g>
     </g>
     <g id="line2d_20">
      <g>
       <use style="stroke:#000000;stroke-width:0.5;" x="462.056931818" xlink:href="#m741efc42ff" y="23.14175"/>
      </g>
     </g>
     <g id="text_8">
      <text style="font-family:DejaVu Sans;font-size:12.0px;font-style:normal;text-anchor:middle;" transform="rotate(-0.000000, 462.056932, 350.441693)" x="462.056931818" y="350.441693182">10</text>
     </g>
    </g>
    <g id="text_9">
     <text style="font-family:DejaVu Sans;font-size:12.0px;font-style:normal;text-anchor:middle;" transform="rotate(-0.000000, 259.147841, 367.055443)" x="259.147840909" y="367.055443182">$r\text{ [\AA]}$</text>
    </g>
   </g>
   <g id="matplotlib.axis_2">
    <g id="ytick_1">
     <g id="line2d_21">
      <defs>
       <path d="
M0 0
L4 0" id="m728421d6d4" style="stroke:#000000;stroke-width:0.5;"/>
      </defs>
      <g>
       <use style="stroke:#000000;stroke-width:0.5;" x="56.23875" xlink:href="#m728421d6d4" y="337.323568182"/>
      </g>
     </g>
     <g id="line2d_22">
      <defs>
       <path d="
M0 0
L-4 0" id="mcb0005524f" style="stroke:#000000;stroke-width:0.5;"/>
      </defs>
      <g>
       <use style="stroke:#000000;stroke-width:0.5;" x="462.056931818" xlink:href="#mcb0005524f" y="337.323568182"/>
      </g>
     </g>
     <g id="text_10">
      <text style="font-family:DejaVu Sans;font-size:12.0px;font-style:normal;text-anchor:end;" transform="rotate(-0.000000, 52.238750, 340.634818)" x="52.23875" y="340.634818182">850</text>
     </g>
    </g>
    <g id="ytick_2">
     <g id="line2d_23">
      <g>
       <use style="stroke:#000000;stroke-width:0.5;" x="56.23875" xlink:href="#m728421d6d4" y="298.050840909"/>
      </g>
     </g>
     <g id="line2d_24">
      <g>
       <use style="stroke:#000000;stroke-width:0.5;" x="462.056931818" xlink:href="#mcb0005524f" y="298.050840909"/>
      </g>
     </g>
     <g id="text_11">
      <text style="font-family:DejaVu Sans;font-size:12.0px;font-style:normal;text-anchor:end;" transform="rotate(-0.000000, 52.238750, 301.362091)" x="52.23875" y="301.362090909">900</text>
     </g>
    </g>
    <g id="ytick_3">
     <g id="line2d_25">
      <g>
       <use style="stroke:#000000;stroke-width:0.5;" x="56.23875" xlink:href="#m728421d6d4" y="258.778113636"/>
      </g>
     </g>
     <g id="line2d_26">
      <g>
       <use style="stroke:#000000;stroke-width:0.5;" x="462.056931818" xlink:href="#mcb0005524f" y="258.778113636"/>
      </g>
     </g>
     <g id="text_12">
      <text style="font-family:DejaVu Sans;font-size:12.0px;font-style:normal;text-anchor:end;" transform="rotate(-0.000000, 52.238750, 262.089364)" x="52.23875" y="262.089363636">950</text>
     </g>
    </g>
    <g id="ytick_4">
     <g id="line2d_27">
      <g>
       <use style="stroke:#000000;stroke-width:0.5;" x="56.23875" xlink:href="#m728421d6d4" y="219.505386364"/>
      </g>
     </g>
     <g id="line2d_28">
      <g>
       <use style="stroke:#000000;stroke-width:0.5;" x="462.056931818" xlink:href="#mcb0005524f" y="219.505386364"/>
      </g>
     </g>
     <g id="text_13">
      <text style="font-family:DejaVu Sans;font-size:12.0px;font-style:normal;text-anchor:end;" transform="rotate(-0.000000, 52.238750, 222.816636)" x="52.23875" y="222.816636364">1000</text>
     </g>
    </g>
    <g id="ytick_5">
     <g id="line2d_29">
      <g>
       <use style="stroke:#000000;stroke-width:0.5;" x="56.23875" xlink:href="#m728421d6d4" y="180.232659091"/>
      </g>
     </g>
     <g id="line2d_30">
      <g>
       <use style="stroke:#000000;stroke-width:0.5;" x="462.056931818" xlink:href="#mcb0005524f" y="180.232659091"/>
      </g>
     </g>
     <g id="text_14">
      <text style="font-family:DejaVu Sans;font-size:12.0px;font-style:normal;text-anchor:end;" transform="rotate(-0.000000, 52.238750, 183.543909)" x="52.23875" y="183.543909091">1050</text>
     </g>
    </g>
    <g id="ytick_6">
     <g id="line2d_31">
      <g>
       <use style="stroke:#000000;stroke-width:0.5;" x="56.23875" xlink:href="#m728421d6d4" y="140.959931818"/>
      </g>
     </g>
     <g id="line2d_32">
      <g>
       <use style="stroke:#000000;stroke-width:0.5;" x="462.056931818" xlink:href="#mcb0005524f" y="140.959931818"/>
      </g>
     </g>
     <g id="text_15">
      <text style="font-family:DejaVu Sans;font-size:12.0px;font-style:normal;text-anchor:end;" transform="rotate(-0.000000, 52.238750, 144.271182)" x="52.23875" y="144.271181818">1100</text>
     </g>
    </g>
    <g id="ytick_7">
     <g id="line2d_33">
      <g>
       <use style="stroke:#000000;stroke-width:0.5;" x="56.23875" xlink:href="#m728421d6d4" y="101.687204545"/>
      </g>
     </g>
     <g id="line2d_34">
      <g>
       <use style="stroke:#000000;stroke-width:0.5;" x="462.056931818" xlink:href="#mcb0005524f" y="101.687204545"/>
      </g>
     </g>
     <g id="text_16">
      <text style="font-family:DejaVu Sans;font-size:12.0px;font-style:normal;text-anchor:end;" transform="rotate(-0.000000, 52.238750, 104.998455)" x="52.23875" y="104.998454545">1150</text>
     </g>
    </g>
    <g id="ytick_8">
     <g id="line2d_35">
      <g>
       <use style="stroke:#000000;stroke-width:0.5;" x="56.23875" xlink:href="#m728421d6d4" y="62.4144772727"/>
      </g>
     </g>
     <g id="line2d_36">
      <g>
       <use style="stroke:#000000;stroke-width:0.5;" x="462.056931818" xlink:href="#mcb0005524f" y="62.4144772727"/>
      </g>
     </g>
     <g id="text_17">
      <text style="font-family:DejaVu Sans;font-size:12.0px;font-style:normal;text-anchor:end;" transform="rotate(-0.000000, 52.238750, 65.725727)" x="52.23875" y="65.7257272727">1200</text>
     </g>
    </g>
    <g id="ytick_9">
     <g id="line2d_37">
      <g>
       <use style="stroke:#000000;stroke-width:0.5;" x="56.23875" xlink:href="#m728421d6d4" y="23.14175"/>
      </g>
     </g>
     <g id="line2d_38">
      <g>
       <use style="stroke:#000000;stroke-width:0.5;" x="462.056931818" xlink:href="#mcb0005524f" y="23.14175"/>
      </g>
     </g>
     <g id="text_18">
      <text style="font-family:DejaVu Sans;font-size:12.0px;font-style:normal;text-anchor:end;" transform="rotate(-0.000000, 52.238750, 26.453000)" x="52.23875" y="26.453">1250</text>
     </g>
    </g>
    <g id="text_19">
     <text style="font-family:DejaVu Sans;font-size:12.0px;font-style:normal;text-anchor:middle;" transform="rotate(-90.000000, 16.318125, 180.232659)" x="16.318125" y="180.232659091">$\rho$ [kg/m$^3$]</text>
    </g>
   </g>
   <g id="patch_3">
    <path d="
M56.2388 23.1417
L462.057 23.1417" style="fill:none;stroke:#000000;"/>
   </g>
   <g id="patch_4">
    <path d="
M462.057 337.324
L462.057 23.1417" style="fill:none;stroke:#000000;"/>
   </g>
   <g id="patch_5">
    <path d="
M56.2388 337.324
L462.057 337.324" style="fill:none;stroke:#000000;"/>
   </g>
   <g id="patch_6">
    <path d="
M56.2388 337.324
L56.2388 23.1417" style="fill:none;stroke:#000000;"/>
   </g>
   <g id="text_20">
    <text style="font-family:DejaVu Sans;font-size:14.4px;font-style:normal;text-anchor:middle;" transform="rotate(-0.000000, 259.147841, 18.141750)" x="259.147840909" y="18.14175">Density of water</text>
   </g>
   <g id="legend_1">
    <g id="patch_7">
     <path d="
M345.354 119.208
L454.857 119.208
L454.857 30.3417
L345.354 30.3417
L345.354 119.208
z
" style="fill:#ffffff;stroke:#000000;"/>
    </g>
    <g id="line2d_39">
     <path d="
M355.434 42.0035
L375.594 42.0035" style="fill:none;stroke:#0000ff;stroke-linecap:square;"/>
    </g>
    <g id="line2d_40"/>
    <g id="text_21">
     <text style="font-family:DejaVu Sans;font-size:14.4px;font-style:normal;text-anchor:start;" transform="rotate(-0.000000, 391.433932, 47.043500)" x="391.433931818" y="47.0435">rough01</text>
    </g>
    <g id="line2d_41">
     <path d="
M355.434 63.14
L375.594 63.14" style="fill:none;stroke:#008000;stroke-linecap:square;"/>
    </g>
    <g id="line2d_42"/>
    <g id="text_22">
     <text style="font-family:DejaVu Sans;font-size:14.4px;font-style:normal;text-anchor:start;" transform="rotate(-0.000000, 391.433932, 68.180000)" x="391.433931818" y="68.18">rough03</text>
    </g>
    <g id="line2d_43">
     <path d="
M355.434 84.2765
L375.594 84.2765" style="fill:none;stroke:#ff0000;stroke-dasharray:6.000000,6.000000;stroke-dashoffset:0.0;"/>
    </g>
    <g id="line2d_44"/>
    <g id="text_23">
     <text style="font-family:DejaVu Sans;font-size:14.4px;font-style:normal;text-anchor:start;" transform="rotate(-0.000000, 391.433932, 89.316500)" x="391.433931818" y="89.3165">flatsq02</text>
    </g>
    <g id="line2d_45">
     <path d="
M355.434 105.413
L375.594 105.413" style="fill:none;stroke:#00bfbf;stroke-dasharray:6.000000,6.000000;stroke-dashoffset:0.0;"/>
    </g>
    <g id="line2d_46"/>
    <g id="text_24">
     <text style="font-family:DejaVu Sans;font-size:14.4px;font-style:normal;text-anchor:start;" transform="rotate(-0.000000, 391.433932, 110.453000)" x="391.433931818" y="110.453">flatsq03</text>
    </g>
   </g>
  </g>
 </g>
 <defs>
  <clipPath id="p5d401f91cd">
   <rect height="314.181818182" width="405.818181818" x="56.23875" y="23.14175"/>
  </clipPath>
 </defs>
</svg>
