<?xml version="1.0" encoding="utf-8" standalone="no"?>
<!DOCTYPE svg PUBLIC "-//W3C//DTD SVG 1.1//EN"
  "http://www.w3.org/Graphics/SVG/1.1/DTD/svg11.dtd">
<!-- Created with matplotlib (http://matplotlib.org/) -->
<svg height="376pt" version="1.1" viewBox="0 0 472 376" width="472pt" xmlns="http://www.w3.org/2000/svg" xmlns:xlink="http://www.w3.org/1999/xlink">
 <defs>
  <style type="text/css">
*{stroke-linecap:butt;stroke-linejoin:round;}
  </style>
 </defs>
 <g id="figure_1">
  <g id="patch_1">
   <path d="
M0 376.751
L472.874 376.751
L472.874 0
L0 0
z
" style="fill:#ffffff;"/>
  </g>
  <g id="axes_1">
   <g id="patch_2">
    <path d="
M53.2781 337.324
L459.096 337.324
L459.096 23.1417
L53.2781 23.1417
z
" style="fill:#ffffff;"/>
   </g>
   <g id="line2d_1">
    <path clip-path="url(#p7582577d61)" d="
M67.7716 109.641
L82.2651 155.248
L96.7586 213.835
L111.252 238.726
L125.746 266.837
L140.239 288.545
L154.733 297.3
L169.226 296.153
L183.72 288.791
L198.213 274.11
L212.707 258.027
L227.2 236.166
L241.694 208.152
L256.187 184.489
L270.681 166.933
L285.174 157.283
L299.668 135.736
L314.161 119.962
L328.655 106.533
L343.148 99.5138
L357.642 94.0545
L372.135 92.2851
L386.629 94.8402
L401.122 101.906
L415.616 100.716
L430.109 93.4581
L444.603 82.9631
L459.096 125.656" style="fill:none;stroke:#0000ff;stroke-linecap:square;"/>
   </g>
   <g id="line2d_2">
    <path clip-path="url(#p7582577d61)" d="
M67.7716 77.2974
L82.2651 159.731
L96.7586 204.722
L111.252 227.061
L125.746 245.609
L140.239 270.654
L154.733 289.142
L169.226 296.801
L183.72 292.797
L198.213 273.122
L212.707 257.911
L227.2 236.624
L241.694 220.884
L256.187 201.665
L270.681 175.544
L285.174 154.477
L299.668 133.591
L314.161 107.857
L328.655 98.0579
L343.148 91.3904
L357.642 89.8948
L372.135 88.9142
L386.629 91.7666
L401.122 96.4478
L415.616 100.756
L430.109 102.471
L444.603 103.232
L459.096 104.257" style="fill:none;stroke:#008000;stroke-linecap:square;"/>
   </g>
   <g id="line2d_3">
    <path clip-path="url(#p7582577d61)" d="
M67.7716 83.8809
L82.2651 157.422
L96.7586 209.742
L111.252 235.293
L125.746 247.387
L140.239 256.459
L154.733 262.856
L169.226 260.204
L183.72 249.084
L198.213 239.173
L212.707 222.52
L227.2 202.017
L241.694 180.213
L256.187 159.143
L270.681 139.727
L285.174 124.482
L299.668 112.307
L314.161 107.337
L328.655 102.792
L343.148 99.7004
L357.642 99.373
L372.135 101.349
L386.629 98.8283
L401.122 100.114
L415.616 102.831
L430.109 102.377
L444.603 115.657
L448.202 377.751" style="fill:none;stroke:#ff0000;stroke-dasharray:6.000000,6.000000;stroke-dashoffset:0.0;"/>
   </g>
   <g id="line2d_4">
    <path clip-path="url(#p7582577d61)" d="
M67.7716 60.0793
L82.2651 131.119
L96.7586 175.362
L111.252 194.428
L125.746 201.964
L140.239 203.999
L154.733 203.851
L169.226 195.997
L183.72 187.611
L198.213 171.249
L212.707 150.49
L227.2 132.797
L241.694 117.486
L256.187 107.747
L270.681 99.9991
L285.174 96.2908
L299.668 95.401
L314.161 94.7866
L328.655 95.573
L343.148 95.9766
L357.642 97.253
L372.135 98.4145
L386.629 98.7367
L401.122 98.8026
L415.616 100.713
L430.109 101.927
L444.603 102.724
L459.096 101.773" style="fill:none;stroke:#00bfbf;stroke-dasharray:6.000000,6.000000;stroke-dashoffset:0.0;"/>
   </g>
   <g id="matplotlib.axis_1">
    <g id="xtick_1">
     <g id="line2d_5">
      <defs>
       <path d="
M0 0
L0 -4" id="m93b0483c22" style="stroke:#000000;stroke-width:0.5;"/>
      </defs>
      <g>
       <use style="stroke:#000000;stroke-width:0.5;" x="53.278125" xlink:href="#m93b0483c22" y="337.323568182"/>
      </g>
     </g>
     <g id="line2d_6">
      <defs>
       <path d="
M0 0
L0 4" id="m741efc42ff" style="stroke:#000000;stroke-width:0.5;"/>
      </defs>
      <g>
       <use style="stroke:#000000;stroke-width:0.5;" x="53.278125" xlink:href="#m741efc42ff" y="23.14175"/>
      </g>
     </g>
     <g id="text_1">
      <text style="font-family:DejaVu Sans;font-size:12.0px;font-style:normal;text-anchor:middle;" transform="rotate(-0.000000, 53.278125, 350.441693)" x="53.278125" y="350.441693182">3</text>
     </g>
    </g>
    <g id="xtick_2">
     <g id="line2d_7">
      <g>
       <use style="stroke:#000000;stroke-width:0.5;" x="111.252150974" xlink:href="#m93b0483c22" y="337.323568182"/>
      </g>
     </g>
     <g id="line2d_8">
      <g>
       <use style="stroke:#000000;stroke-width:0.5;" x="111.252150974" xlink:href="#m741efc42ff" y="23.14175"/>
      </g>
     </g>
     <g id="text_2">
      <text style="font-family:DejaVu Sans;font-size:12.0px;font-style:normal;text-anchor:middle;" transform="rotate(-0.000000, 111.252151, 350.441693)" x="111.252150974" y="350.441693182">4</text>
     </g>
    </g>
    <g id="xtick_3">
     <g id="line2d_9">
      <g>
       <use style="stroke:#000000;stroke-width:0.5;" x="169.226176948" xlink:href="#m93b0483c22" y="337.323568182"/>
      </g>
     </g>
     <g id="line2d_10">
      <g>
       <use style="stroke:#000000;stroke-width:0.5;" x="169.226176948" xlink:href="#m741efc42ff" y="23.14175"/>
      </g>
     </g>
     <g id="text_3">
      <text style="font-family:DejaVu Sans;font-size:12.0px;font-style:normal;text-anchor:middle;" transform="rotate(-0.000000, 169.226177, 350.441693)" x="169.226176948" y="350.441693182">5</text>
     </g>
    </g>
    <g id="xtick_4">
     <g id="line2d_11">
      <g>
       <use style="stroke:#000000;stroke-width:0.5;" x="227.200202922" xlink:href="#m93b0483c22" y="337.323568182"/>
      </g>
     </g>
     <g id="line2d_12">
      <g>
       <use style="stroke:#000000;stroke-width:0.5;" x="227.200202922" xlink:href="#m741efc42ff" y="23.14175"/>
      </g>
     </g>
     <g id="text_4">
      <text style="font-family:DejaVu Sans;font-size:12.0px;font-style:normal;text-anchor:middle;" transform="rotate(-0.000000, 227.200203, 350.441693)" x="227.200202922" y="350.441693182">6</text>
     </g>
    </g>
    <g id="xtick_5">
     <g id="line2d_13">
      <g>
       <use style="stroke:#000000;stroke-width:0.5;" x="285.174228896" xlink:href="#m93b0483c22" y="337.323568182"/>
      </g>
     </g>
     <g id="line2d_14">
      <g>
       <use style="stroke:#000000;stroke-width:0.5;" x="285.174228896" xlink:href="#m741efc42ff" y="23.14175"/>
      </g>
     </g>
     <g id="text_5">
      <text style="font-family:DejaVu Sans;font-size:12.0px;font-style:normal;text-anchor:middle;" transform="rotate(-0.000000, 285.174229, 350.441693)" x="285.174228896" y="350.441693182">7</text>
     </g>
    </g>
    <g id="xtick_6">
     <g id="line2d_15">
      <g>
       <use style="stroke:#000000;stroke-width:0.5;" x="343.14825487" xlink:href="#m93b0483c22" y="337.323568182"/>
      </g>
     </g>
     <g id="line2d_16">
      <g>
       <use style="stroke:#000000;stroke-width:0.5;" x="343.14825487" xlink:href="#m741efc42ff" y="23.14175"/>
      </g>
     </g>
     <g id="text_6">
      <text style="font-family:DejaVu Sans;font-size:12.0px;font-style:normal;text-anchor:middle;" transform="rotate(-0.000000, 343.148255, 350.441693)" x="343.14825487" y="350.441693182">8</text>
     </g>
    </g>
    <g id="xtick_7">
     <g id="line2d_17">
      <g>
       <use style="stroke:#000000;stroke-width:0.5;" x="401.122280844" xlink:href="#m93b0483c22" y="337.323568182"/>
      </g>
     </g>
     <g id="line2d_18">
      <g>
       <use style="stroke:#000000;stroke-width:0.5;" x="401.122280844" xlink:href="#m741efc42ff" y="23.14175"/>
      </g>
     </g>
     <g id="text_7">
      <text style="font-family:DejaVu Sans;font-size:12.0px;font-style:normal;text-anchor:middle;" transform="rotate(-0.000000, 401.122281, 350.441693)" x="401.122280844" y="350.441693182">9</text>
     </g>
    </g>
    <g id="xtick_8">
     <g id="line2d_19">
      <g>
       <use style="stroke:#000000;stroke-width:0.5;" x="459.096306818" xlink:href="#m93b0483c22" y="337.323568182"/>
      </g>
     </g>
     <g id="line2d_20">
      <g>
       <use style="stroke:#000000;stroke-width:0.5;" x="459.096306818" xlink:href="#m741efc42ff" y="23.14175"/>
      </g>
     </g>
     <g id="text_8">
      <text style="font-family:DejaVu Sans;font-size:12.0px;font-style:normal;text-anchor:middle;" transform="rotate(-0.000000, 459.096307, 350.441693)" x="459.096306818" y="350.441693182">10</text>
     </g>
    </g>
    <g id="text_9">
     <text style="font-family:DejaVu Sans;font-size:12.0px;font-style:normal;text-anchor:middle;" transform="rotate(-0.000000, 256.187216, 367.055443)" x="256.187215909" y="367.055443182">$r\text{ [\AA]}$</text>
    </g>
   </g>
   <g id="matplotlib.axis_2">
    <g id="ytick_1">
     <g id="line2d_21">
      <defs>
       <path d="
M0 0
L4 0" id="m728421d6d4" style="stroke:#000000;stroke-width:0.5;"/>
      </defs>
      <g>
       <use style="stroke:#000000;stroke-width:0.5;" x="53.278125" xlink:href="#m728421d6d4" y="337.323568182"/>
      </g>
     </g>
     <g id="line2d_22">
      <defs>
       <path d="
M0 0
L-4 0" id="mcb0005524f" style="stroke:#000000;stroke-width:0.5;"/>
      </defs>
      <g>
       <use style="stroke:#000000;stroke-width:0.5;" x="459.096306818" xlink:href="#mcb0005524f" y="337.323568182"/>
      </g>
     </g>
     <g id="text_10">
      <text style="font-family:DejaVu Sans;font-size:12.0px;font-style:normal;text-anchor:end;" transform="rotate(-0.000000, 49.278125, 340.634818)" x="49.278125" y="340.634818182">0.85</text>
     </g>
    </g>
    <g id="ytick_2">
     <g id="line2d_23">
      <g>
       <use style="stroke:#000000;stroke-width:0.5;" x="53.278125" xlink:href="#m728421d6d4" y="258.778113636"/>
      </g>
     </g>
     <g id="line2d_24">
      <g>
       <use style="stroke:#000000;stroke-width:0.5;" x="459.096306818" xlink:href="#mcb0005524f" y="258.778113636"/>
      </g>
     </g>
     <g id="text_11">
      <text style="font-family:DejaVu Sans;font-size:12.0px;font-style:normal;text-anchor:end;" transform="rotate(-0.000000, 49.278125, 262.089364)" x="49.278125" y="262.089363636">0.90</text>
     </g>
    </g>
    <g id="ytick_3">
     <g id="line2d_25">
      <g>
       <use style="stroke:#000000;stroke-width:0.5;" x="53.278125" xlink:href="#m728421d6d4" y="180.232659091"/>
      </g>
     </g>
     <g id="line2d_26">
      <g>
       <use style="stroke:#000000;stroke-width:0.5;" x="459.096306818" xlink:href="#mcb0005524f" y="180.232659091"/>
      </g>
     </g>
     <g id="text_12">
      <text style="font-family:DejaVu Sans;font-size:12.0px;font-style:normal;text-anchor:end;" transform="rotate(-0.000000, 49.278125, 183.543909)" x="49.278125" y="183.543909091">0.95</text>
     </g>
    </g>
    <g id="ytick_4">
     <g id="line2d_27">
      <g>
       <use style="stroke:#000000;stroke-width:0.5;" x="53.278125" xlink:href="#m728421d6d4" y="101.687204545"/>
      </g>
     </g>
     <g id="line2d_28">
      <g>
       <use style="stroke:#000000;stroke-width:0.5;" x="459.096306818" xlink:href="#mcb0005524f" y="101.687204545"/>
      </g>
     </g>
     <g id="text_13">
      <text style="font-family:DejaVu Sans;font-size:12.0px;font-style:normal;text-anchor:end;" transform="rotate(-0.000000, 49.278125, 104.998455)" x="49.278125" y="104.998454545">1.00</text>
     </g>
    </g>
    <g id="ytick_5">
     <g id="line2d_29">
      <g>
       <use style="stroke:#000000;stroke-width:0.5;" x="53.278125" xlink:href="#m728421d6d4" y="23.14175"/>
      </g>
     </g>
     <g id="line2d_30">
      <g>
       <use style="stroke:#000000;stroke-width:0.5;" x="459.096306818" xlink:href="#mcb0005524f" y="23.14175"/>
      </g>
     </g>
     <g id="text_14">
      <text style="font-family:DejaVu Sans;font-size:12.0px;font-style:normal;text-anchor:end;" transform="rotate(-0.000000, 49.278125, 26.453000)" x="49.278125" y="26.453">1.05</text>
     </g>
    </g>
    <g id="text_15">
     <text style="font-family:DejaVu Sans;font-size:12.0px;font-style:normal;text-anchor:middle;" transform="rotate(-90.000000, 16.318125, 180.232659)" x="16.318125" y="180.232659091">$\rho/\rho_0$ [kg/m$^3$]</text>
    </g>
   </g>
   <g id="patch_3">
    <path d="
M53.2781 23.1417
L459.096 23.1417" style="fill:none;stroke:#000000;"/>
   </g>
   <g id="patch_4">
    <path d="
M459.096 337.324
L459.096 23.1418" style="fill:none;stroke:#000000;"/>
   </g>
   <g id="patch_5">
    <path d="
M53.2781 337.324
L459.096 337.324" style="fill:none;stroke:#000000;"/>
   </g>
   <g id="patch_6">
    <path d="
M53.2781 337.324
L53.2781 23.1418" style="fill:none;stroke:#000000;"/>
   </g>
   <g id="text_16">
    <text style="font-family:DejaVu Sans;font-size:14.4px;font-style:normal;text-anchor:middle;" transform="rotate(-0.000000, 256.187216, 18.141750)" x="256.187215909" y="18.14175">Relative density of water</text>
   </g>
   <g id="legend_1">
    <g id="patch_7">
     <path d="
M342.047 330.124
L451.896 330.124
L451.896 241.258
L342.047 241.258
L342.047 330.124
z
" style="fill:#ffffff;stroke:#000000;"/>
    </g>
    <g id="line2d_31">
     <path d="
M352.127 252.919
L372.287 252.919" style="fill:none;stroke:#0000ff;stroke-linecap:square;"/>
    </g>
    <g id="line2d_32"/>
    <g id="text_17">
     <text style="font-family:DejaVu Sans;font-size:14.4px;font-style:normal;text-anchor:start;" transform="rotate(-0.000000, 388.126807, 257.959318)" x="388.126806818" y="257.959318182">rough04</text>
    </g>
    <g id="line2d_33">
     <path d="
M352.127 274.056
L372.287 274.056" style="fill:none;stroke:#008000;stroke-linecap:square;"/>
    </g>
    <g id="line2d_34"/>
    <g id="text_18">
     <text style="font-family:DejaVu Sans;font-size:14.4px;font-style:normal;text-anchor:start;" transform="rotate(-0.000000, 388.126807, 279.095818)" x="388.126806818" y="279.095818182">rough05</text>
    </g>
    <g id="line2d_35">
     <path d="
M352.127 295.192
L372.287 295.192" style="fill:none;stroke:#ff0000;stroke-dasharray:6.000000,6.000000;stroke-dashoffset:0.0;"/>
    </g>
    <g id="line2d_36"/>
    <g id="text_19">
     <text style="font-family:DejaVu Sans;font-size:14.4px;font-style:normal;text-anchor:start;" transform="rotate(-0.000000, 388.126807, 300.232318)" x="388.126806818" y="300.232318182">flat02</text>
    </g>
    <g id="line2d_37">
     <path d="
M352.127 316.329
L372.287 316.329" style="fill:none;stroke:#00bfbf;stroke-dasharray:6.000000,6.000000;stroke-dashoffset:0.0;"/>
    </g>
    <g id="line2d_38"/>
    <g id="text_20">
     <text style="font-family:DejaVu Sans;font-size:14.4px;font-style:normal;text-anchor:start;" transform="rotate(-0.000000, 388.126807, 321.368818)" x="388.126806818" y="321.368818182">flat03</text>
    </g>
   </g>
  </g>
 </g>
 <defs>
  <clipPath id="p7582577d61">
   <rect height="314.181818182" width="405.818181818" x="53.278125" y="23.14175"/>
  </clipPath>
 </defs>
</svg>
