<?xml version="1.0" encoding="utf-8" standalone="no"?>
<!DOCTYPE svg PUBLIC "-//W3C//DTD SVG 1.1//EN"
  "http://www.w3.org/Graphics/SVG/1.1/DTD/svg11.dtd">
<!-- Created with matplotlib (http://matplotlib.org/) -->
<svg height="265pt" version="1.1" viewBox="0 0 332 265" width="332pt" xmlns="http://www.w3.org/2000/svg" xmlns:xlink="http://www.w3.org/1999/xlink">
 <defs>
  <style type="text/css">
*{stroke-linecap:butt;stroke-linejoin:round;}
  </style>
 </defs>
 <g id="figure_1">
  <g id="patch_1">
   <path d="
M0 265.863
L332.604 265.863
L332.604 0
L0 0
z
" style="fill:#ffffff;"/>
  </g>
  <g id="axes_1">
   <g id="patch_2">
    <path d="
M56.2388 226.436
L318.827 226.436
L318.827 23.1417
L56.2388 23.1417
z
" style="fill:#ffffff;"/>
   </g>
   <g id="line2d_1">
    <path clip-path="url(#p0677603e50)" d="
M56.2387 34.8179
L65.6169 60.8407
L74.9951 104.401
L84.3732 137.399
L93.7514 164.567
L103.13 185.688
L112.508 195.544
L121.886 201.538
L131.264 201
L140.642 198.813
L150.02 186.766
L159.398 175.489
L168.777 161.975
L178.155 150.173
L187.533 129.585
L196.911 114.93
L206.289 99.4756
L215.667 82.4793
L225.045 67.2505
L234.424 53.7747
L243.802 48.8907
L253.18 46.3759
L262.558 42.4979
L271.936 47.4023
L281.314 50.2536
L290.693 50.9799
L300.071 52.9515
L309.449 53.8262
L318.827 53.0361" style="fill:none;stroke:#0000ff;stroke-linecap:square;"/>
   </g>
   <g id="line2d_2">
    <path clip-path="url(#p0677603e50)" d="
M65.6169 69.5095
L74.9951 100.256
L84.3732 137.544
L93.7514 165.987
L103.13 180.795
L112.508 199.141
L121.886 213.509
L131.264 217.713
L140.642 214.362
L150.02 208.711
L159.398 203.685
L168.777 193.473
L178.155 182.44
L187.533 169.121
L196.911 153.302
L206.289 136.587
L215.667 116.196
L225.045 96.3345
L234.424 78.1588
L243.802 67.4781
L253.18 61.0309
L262.558 56.1633
L271.936 53.8616
L281.314 56.545
L290.693 57.8829
L300.071 61.6686
L309.449 65.1436
L318.827 64.4797" style="fill:none;stroke:#008000;stroke-linecap:square;"/>
   </g>
   <g id="line2d_3">
    <path clip-path="url(#p0677603e50)" d="
M56.2387 -42.4603
M60.641 -1
L65.6169 45.8629
L74.9951 77.9828
L84.3732 119.244
L93.7514 136.774
L103.13 156.572
L112.508 171.86
L121.886 178.026
L131.264 177.218
L140.642 172.034
L150.02 161.694
L159.398 150.367
L168.777 134.971
L178.155 115.241
L187.533 98.5762
L196.911 86.2118
L206.289 79.4158
L215.667 64.241
L225.045 53.1315
L234.424 43.674
L243.802 38.7306" style="fill:none;stroke:#ff0000;stroke-dasharray:6.000000,6.000000;stroke-dashoffset:0.0;"/>
   </g>
   <g id="line2d_4">
    <path clip-path="url(#p0677603e50)" d="
M56.2387 -32.3101
M60.3344 -1
L65.6169 39.3829
L74.9951 96.5962
L84.3732 127.823
L93.7514 143.327
L103.13 156.201
L112.508 173.583
L121.886 186.415
L131.264 191.731
L140.642 188.951
L150.02 175.296
L159.398 164.739
L168.777 149.964
L178.155 139.04
L187.533 125.701
L196.911 107.571
L206.289 92.9496
L215.667 78.4535
L225.045 60.5932
L234.424 53.7918
L243.802 49.1643
L253.18 48.1262
L262.558 47.4456
L271.936 49.4253
L281.314 52.6743
L290.693 55.6648
L300.071 56.855
L309.449 57.3827
L318.827 58.0943" style="fill:none;stroke:#00bfbf;stroke-dasharray:6.000000,6.000000;stroke-dashoffset:0.0;"/>
   </g>
   <g id="matplotlib.axis_1">
    <g id="xtick_1">
     <g id="line2d_5">
      <defs>
       <path d="
M0 0
L0 -4" id="m93b0483c22" style="stroke:#000000;stroke-width:0.5;"/>
      </defs>
      <g>
       <use style="stroke:#000000;stroke-width:0.5;" x="56.23875" xlink:href="#m93b0483c22" y="226.435867647"/>
      </g>
     </g>
     <g id="line2d_6">
      <defs>
       <path d="
M0 0
L0 4" id="m741efc42ff" style="stroke:#000000;stroke-width:0.5;"/>
      </defs>
      <g>
       <use style="stroke:#000000;stroke-width:0.5;" x="56.23875" xlink:href="#m741efc42ff" y="23.14175"/>
      </g>
     </g>
     <g id="text_1">
      <text style="font-family:DejaVu Sans;font-size:12.0px;font-style:normal;text-anchor:middle;" transform="rotate(-0.000000, 56.238750, 239.553993)" x="56.23875" y="239.553992647">3</text>
     </g>
    </g>
    <g id="xtick_2">
     <g id="line2d_7">
      <g>
       <use style="stroke:#000000;stroke-width:0.5;" x="93.751355042" xlink:href="#m93b0483c22" y="226.435867647"/>
      </g>
     </g>
     <g id="line2d_8">
      <g>
       <use style="stroke:#000000;stroke-width:0.5;" x="93.751355042" xlink:href="#m741efc42ff" y="23.14175"/>
      </g>
     </g>
     <g id="text_2">
      <text style="font-family:DejaVu Sans;font-size:12.0px;font-style:normal;text-anchor:middle;" transform="rotate(-0.000000, 93.751355, 239.553993)" x="93.751355042" y="239.553992647">4</text>
     </g>
    </g>
    <g id="xtick_3">
     <g id="line2d_9">
      <g>
       <use style="stroke:#000000;stroke-width:0.5;" x="131.263960084" xlink:href="#m93b0483c22" y="226.435867647"/>
      </g>
     </g>
     <g id="line2d_10">
      <g>
       <use style="stroke:#000000;stroke-width:0.5;" x="131.263960084" xlink:href="#m741efc42ff" y="23.14175"/>
      </g>
     </g>
     <g id="text_3">
      <text style="font-family:DejaVu Sans;font-size:12.0px;font-style:normal;text-anchor:middle;" transform="rotate(-0.000000, 131.263960, 239.553993)" x="131.263960084" y="239.553992647">5</text>
     </g>
    </g>
    <g id="xtick_4">
     <g id="line2d_11">
      <g>
       <use style="stroke:#000000;stroke-width:0.5;" x="168.776565126" xlink:href="#m93b0483c22" y="226.435867647"/>
      </g>
     </g>
     <g id="line2d_12">
      <g>
       <use style="stroke:#000000;stroke-width:0.5;" x="168.776565126" xlink:href="#m741efc42ff" y="23.14175"/>
      </g>
     </g>
     <g id="text_4">
      <text style="font-family:DejaVu Sans;font-size:12.0px;font-style:normal;text-anchor:middle;" transform="rotate(-0.000000, 168.776565, 239.553993)" x="168.776565126" y="239.553992647">6</text>
     </g>
    </g>
    <g id="xtick_5">
     <g id="line2d_13">
      <g>
       <use style="stroke:#000000;stroke-width:0.5;" x="206.289170168" xlink:href="#m93b0483c22" y="226.435867647"/>
      </g>
     </g>
     <g id="line2d_14">
      <g>
       <use style="stroke:#000000;stroke-width:0.5;" x="206.289170168" xlink:href="#m741efc42ff" y="23.14175"/>
      </g>
     </g>
     <g id="text_5">
      <text style="font-family:DejaVu Sans;font-size:12.0px;font-style:normal;text-anchor:middle;" transform="rotate(-0.000000, 206.289170, 239.553993)" x="206.289170168" y="239.553992647">7</text>
     </g>
    </g>
    <g id="xtick_6">
     <g id="line2d_15">
      <g>
       <use style="stroke:#000000;stroke-width:0.5;" x="243.80177521" xlink:href="#m93b0483c22" y="226.435867647"/>
      </g>
     </g>
     <g id="line2d_16">
      <g>
       <use style="stroke:#000000;stroke-width:0.5;" x="243.80177521" xlink:href="#m741efc42ff" y="23.14175"/>
      </g>
     </g>
     <g id="text_6">
      <text style="font-family:DejaVu Sans;font-size:12.0px;font-style:normal;text-anchor:middle;" transform="rotate(-0.000000, 243.801775, 239.553993)" x="243.80177521" y="239.553992647">8</text>
     </g>
    </g>
    <g id="xtick_7">
     <g id="line2d_17">
      <g>
       <use style="stroke:#000000;stroke-width:0.5;" x="281.314380252" xlink:href="#m93b0483c22" y="226.435867647"/>
      </g>
     </g>
     <g id="line2d_18">
      <g>
       <use style="stroke:#000000;stroke-width:0.5;" x="281.314380252" xlink:href="#m741efc42ff" y="23.14175"/>
      </g>
     </g>
     <g id="text_7">
      <text style="font-family:DejaVu Sans;font-size:12.0px;font-style:normal;text-anchor:middle;" transform="rotate(-0.000000, 281.314380, 239.553993)" x="281.314380252" y="239.553992647">9</text>
     </g>
    </g>
    <g id="xtick_8">
     <g id="line2d_19">
      <g>
       <use style="stroke:#000000;stroke-width:0.5;" x="318.826985294" xlink:href="#m93b0483c22" y="226.435867647"/>
      </g>
     </g>
     <g id="line2d_20">
      <g>
       <use style="stroke:#000000;stroke-width:0.5;" x="318.826985294" xlink:href="#m741efc42ff" y="23.14175"/>
      </g>
     </g>
     <g id="text_8">
      <text style="font-family:DejaVu Sans;font-size:12.0px;font-style:normal;text-anchor:middle;" transform="rotate(-0.000000, 318.826985, 239.553993)" x="318.826985294" y="239.553992647">10</text>
     </g>
    </g>
    <g id="text_9">
     <text style="font-family:DejaVu Sans;font-size:12.0px;font-style:normal;text-anchor:middle;" transform="rotate(-0.000000, 187.532868, 256.167743)" x="187.532867647" y="256.167742647">$r\text{ [\AA]}$</text>
    </g>
   </g>
   <g id="matplotlib.axis_2">
    <g id="ytick_1">
     <g id="line2d_21">
      <defs>
       <path d="
M0 0
L4 0" id="m728421d6d4" style="stroke:#000000;stroke-width:0.5;"/>
      </defs>
      <g>
       <use style="stroke:#000000;stroke-width:0.5;" x="56.23875" xlink:href="#m728421d6d4" y="183.637106037"/>
      </g>
     </g>
     <g id="line2d_22">
      <defs>
       <path d="
M0 0
L-4 0" id="mcb0005524f" style="stroke:#000000;stroke-width:0.5;"/>
      </defs>
      <g>
       <use style="stroke:#000000;stroke-width:0.5;" x="318.826985294" xlink:href="#mcb0005524f" y="183.637106037"/>
      </g>
     </g>
     <g id="text_10">
      <text style="font-family:DejaVu Sans;font-size:12.0px;font-style:normal;text-anchor:end;" transform="rotate(-0.000000, 52.238750, 186.948356)" x="52.23875" y="186.948356037">900</text>
     </g>
    </g>
    <g id="ytick_2">
     <g id="line2d_23">
      <g>
       <use style="stroke:#000000;stroke-width:0.5;" x="56.23875" xlink:href="#m728421d6d4" y="130.138654025"/>
      </g>
     </g>
     <g id="line2d_24">
      <g>
       <use style="stroke:#000000;stroke-width:0.5;" x="318.826985294" xlink:href="#mcb0005524f" y="130.138654025"/>
      </g>
     </g>
     <g id="text_11">
      <text style="font-family:DejaVu Sans;font-size:12.0px;font-style:normal;text-anchor:end;" transform="rotate(-0.000000, 52.238750, 133.449904)" x="52.23875" y="133.449904025">950</text>
     </g>
    </g>
    <g id="ytick_3">
     <g id="line2d_25">
      <g>
       <use style="stroke:#000000;stroke-width:0.5;" x="56.23875" xlink:href="#m728421d6d4" y="76.6402020124"/>
      </g>
     </g>
     <g id="line2d_26">
      <g>
       <use style="stroke:#000000;stroke-width:0.5;" x="318.826985294" xlink:href="#mcb0005524f" y="76.6402020124"/>
      </g>
     </g>
     <g id="text_12">
      <text style="font-family:DejaVu Sans;font-size:12.0px;font-style:normal;text-anchor:end;" transform="rotate(-0.000000, 52.238750, 79.951452)" x="52.23875" y="79.9514520124">1000</text>
     </g>
    </g>
    <g id="ytick_4">
     <g id="line2d_27">
      <g>
       <use style="stroke:#000000;stroke-width:0.5;" x="56.23875" xlink:href="#m728421d6d4" y="23.14175"/>
      </g>
     </g>
     <g id="line2d_28">
      <g>
       <use style="stroke:#000000;stroke-width:0.5;" x="318.826985294" xlink:href="#mcb0005524f" y="23.14175"/>
      </g>
     </g>
     <g id="text_13">
      <text style="font-family:DejaVu Sans;font-size:12.0px;font-style:normal;text-anchor:end;" transform="rotate(-0.000000, 52.238750, 26.453000)" x="52.23875" y="26.453">1050</text>
     </g>
    </g>
    <g id="ytick_5">
     <g id="line2d_29">
      <defs>
       <path d="
M0 0
L2 0" id="mf0c55a9a47" style="stroke:#000000;stroke-width:0.5;"/>
      </defs>
      <g>
       <use style="stroke:#000000;stroke-width:0.5;" x="56.23875" xlink:href="#mf0c55a9a47" y="210.386332043"/>
      </g>
     </g>
     <g id="line2d_30">
      <defs>
       <path d="
M0 0
L-2 0" id="ma4f294b3af" style="stroke:#000000;stroke-width:0.5;"/>
      </defs>
      <g>
       <use style="stroke:#000000;stroke-width:0.5;" x="318.826985294" xlink:href="#ma4f294b3af" y="210.386332043"/>
      </g>
     </g>
    </g>
    <g id="ytick_6">
     <g id="line2d_31">
      <g>
       <use style="stroke:#000000;stroke-width:0.5;" x="56.23875" xlink:href="#mf0c55a9a47" y="183.637106037"/>
      </g>
     </g>
     <g id="line2d_32">
      <g>
       <use style="stroke:#000000;stroke-width:0.5;" x="318.826985294" xlink:href="#ma4f294b3af" y="183.637106037"/>
      </g>
     </g>
    </g>
    <g id="ytick_7">
     <g id="line2d_33">
      <g>
       <use style="stroke:#000000;stroke-width:0.5;" x="56.23875" xlink:href="#mf0c55a9a47" y="156.887880031"/>
      </g>
     </g>
     <g id="line2d_34">
      <g>
       <use style="stroke:#000000;stroke-width:0.5;" x="318.826985294" xlink:href="#ma4f294b3af" y="156.887880031"/>
      </g>
     </g>
    </g>
    <g id="ytick_8">
     <g id="line2d_35">
      <g>
       <use style="stroke:#000000;stroke-width:0.5;" x="56.23875" xlink:href="#mf0c55a9a47" y="130.138654025"/>
      </g>
     </g>
     <g id="line2d_36">
      <g>
       <use style="stroke:#000000;stroke-width:0.5;" x="318.826985294" xlink:href="#ma4f294b3af" y="130.138654025"/>
      </g>
     </g>
    </g>
    <g id="ytick_9">
     <g id="line2d_37">
      <g>
       <use style="stroke:#000000;stroke-width:0.5;" x="56.23875" xlink:href="#mf0c55a9a47" y="103.389428019"/>
      </g>
     </g>
     <g id="line2d_38">
      <g>
       <use style="stroke:#000000;stroke-width:0.5;" x="318.826985294" xlink:href="#ma4f294b3af" y="103.389428019"/>
      </g>
     </g>
    </g>
    <g id="ytick_10">
     <g id="line2d_39">
      <g>
       <use style="stroke:#000000;stroke-width:0.5;" x="56.23875" xlink:href="#mf0c55a9a47" y="76.6402020124"/>
      </g>
     </g>
     <g id="line2d_40">
      <g>
       <use style="stroke:#000000;stroke-width:0.5;" x="318.826985294" xlink:href="#ma4f294b3af" y="76.6402020124"/>
      </g>
     </g>
    </g>
    <g id="ytick_11">
     <g id="line2d_41">
      <g>
       <use style="stroke:#000000;stroke-width:0.5;" x="56.23875" xlink:href="#mf0c55a9a47" y="49.8909760062"/>
      </g>
     </g>
     <g id="line2d_42">
      <g>
       <use style="stroke:#000000;stroke-width:0.5;" x="318.826985294" xlink:href="#ma4f294b3af" y="49.8909760062"/>
      </g>
     </g>
    </g>
    <g id="ytick_12">
     <g id="line2d_43">
      <g>
       <use style="stroke:#000000;stroke-width:0.5;" x="56.23875" xlink:href="#mf0c55a9a47" y="23.14175"/>
      </g>
     </g>
     <g id="line2d_44">
      <g>
       <use style="stroke:#000000;stroke-width:0.5;" x="318.826985294" xlink:href="#ma4f294b3af" y="23.14175"/>
      </g>
     </g>
    </g>
    <g id="text_14">
     <text style="font-family:DejaVu Sans;font-size:12.0px;font-style:normal;text-anchor:middle;" transform="rotate(-90.000000, 16.318125, 124.788809)" x="16.318125" y="124.788808824">$\rho$ [kg/m$^3$]</text>
    </g>
   </g>
   <g id="patch_3">
    <path d="
M56.2387 23.1417
L318.827 23.1417" style="fill:none;stroke:#000000;"/>
   </g>
   <g id="patch_4">
    <path d="
M318.827 226.436
L318.827 23.1418" style="fill:none;stroke:#000000;"/>
   </g>
   <g id="patch_5">
    <path d="
M56.2387 226.436
L318.827 226.436" style="fill:none;stroke:#000000;"/>
   </g>
   <g id="patch_6">
    <path d="
M56.2388 226.436
L56.2388 23.1418" style="fill:none;stroke:#000000;"/>
   </g>
   <g id="text_15">
    <text style="font-family:DejaVu Sans;font-size:14.4px;font-style:normal;text-anchor:middle;" transform="rotate(-0.000000, 187.532868, 18.141750)" x="187.532867647" y="18.14175">Density of water in rough systems</text>
   </g>
   <g id="legend_1">
    <g id="patch_7">
     <path d="
M237.395 219.236
L308.747 219.236
Q311.627 219.236 311.627 216.356
L311.627 133.25
Q311.627 130.37 308.747 130.37
L237.395 130.37
Q234.515 130.37 234.515 133.25
L234.515 216.356
Q234.515 219.236 237.395 219.236
z
" style="fill:#ffffff;stroke:#000000;"/>
    </g>
    <g id="line2d_45">
     <path d="
M244.595 142.032
L264.755 142.032" style="fill:none;stroke:#0000ff;stroke-linecap:square;"/>
    </g>
    <g id="line2d_46"/>
    <g id="text_16">
     <text style="font-family:DejaVu Sans;font-size:14.4px;font-style:normal;text-anchor:start;" transform="rotate(-0.000000, 280.594985, 147.071618)" x="280.594985294" y="147.071617647">\#1</text>
    </g>
    <g id="line2d_47">
     <path d="
M244.595 163.168
L264.755 163.168" style="fill:none;stroke:#008000;stroke-linecap:square;"/>
    </g>
    <g id="line2d_48"/>
    <g id="text_17">
     <text style="font-family:DejaVu Sans;font-size:14.4px;font-style:normal;text-anchor:start;" transform="rotate(-0.000000, 280.594985, 168.208118)" x="280.594985294" y="168.208117647">\#2</text>
    </g>
    <g id="line2d_49">
     <path d="
M244.595 184.305
L264.755 184.305" style="fill:none;stroke:#ff0000;stroke-dasharray:6.000000,6.000000;stroke-dashoffset:0.0;"/>
    </g>
    <g id="line2d_50"/>
    <g id="text_18">
     <text style="font-family:DejaVu Sans;font-size:14.4px;font-style:normal;text-anchor:start;" transform="rotate(-0.000000, 280.594985, 189.344618)" x="280.594985294" y="189.344617647">\#3</text>
    </g>
    <g id="line2d_51">
     <path d="
M244.595 205.441
L264.755 205.441" style="fill:none;stroke:#00bfbf;stroke-dasharray:6.000000,6.000000;stroke-dashoffset:0.0;"/>
    </g>
    <g id="line2d_52"/>
    <g id="text_19">
     <text style="font-family:DejaVu Sans;font-size:14.4px;font-style:normal;text-anchor:start;" transform="rotate(-0.000000, 280.594985, 210.481118)" x="280.594985294" y="210.481117647">\#4</text>
    </g>
   </g>
  </g>
 </g>
 <defs>
  <clipPath id="p0677603e50">
   <rect height="203.294117647" width="262.588235294" x="56.23875" y="23.14175"/>
  </clipPath>
 </defs>
</svg>
