<?xml version="1.0" encoding="utf-8" standalone="no"?>
<!DOCTYPE svg PUBLIC "-//W3C//DTD SVG 1.1//EN"
  "http://www.w3.org/Graphics/SVG/1.1/DTD/svg11.dtd">
<!-- Created with matplotlib (http://matplotlib.org/) -->
<svg height="446pt" version="1.1" viewBox="0 0 566 446" width="566pt" xmlns="http://www.w3.org/2000/svg" xmlns:xlink="http://www.w3.org/1999/xlink">
 <defs>
  <style type="text/css">
*{stroke-linecap:butt;stroke-linejoin:round;}
  </style>
 </defs>
 <g id="figure_1">
  <g id="patch_1">
   <path d="
M-3.55271e-15 446.569
L566.016 446.569
L566.016 0
L-3.55271e-15 0
z
" style="fill:#ffffff;"/>
  </g>
  <g id="axes_1">
   <g id="patch_2">
    <path d="
M56.2388 407.142
L552.239 407.142
L552.239 23.1417
L56.2388 23.1417
z
" style="fill:#ffffff;"/>
   </g>
   <g id="line2d_1">
    <path clip-path="url(#pefdab4fa20)" d="
M73.953 130.175
L91.6673 209.696
L109.382 257.107
L127.096 284.962
L144.81 311.126
L162.524 339.083
L180.239 346.03
L197.953 343.238
L215.667 342.208
L233.382 337.954
L251.096 328.048
L268.81 312.43
L286.524 293.042
L304.239 275.357
L321.953 253.394
L339.667 223.748
L357.382 199.984
L375.096 178.52
L392.81 160.15
L410.524 148.553
L428.239 136.357
L445.953 131.542
L463.667 130.677
L481.382 127.042
L499.096 127.839
L516.81 127.115
L534.524 128.808
L552.239 125.889" style="fill:none;stroke:#0000ff;stroke-linecap:square;"/>
   </g>
   <g id="line2d_2">
    <path clip-path="url(#pefdab4fa20)" d="
M73.953 139.03
L91.6673 207.368
L109.382 255.633
L127.096 285.455
L144.81 314.919
L162.524 335.386
L180.239 337.703
L197.953 338.701
L215.667 346.01
L233.382 341.249
L251.096 332.623
L268.81 318.977
L286.524 301.158
L304.239 281.704
L321.953 253.634
L339.667 227.205
L357.382 198.481
L375.096 172.155
L392.81 154.278
L410.524 141.98
L428.239 134.679
L445.953 126.8
L463.667 124.235
L481.382 120.979
L499.096 121.735
L516.81 125.61
L534.524 122.469
L552.239 123.51" style="fill:none;stroke:#008000;stroke-linecap:square;"/>
   </g>
   <g id="line2d_3">
    <path clip-path="url(#pefdab4fa20)" d="
M73.953 137.044
L91.6673 203.448
L109.382 255.799
L127.096 283.467
L144.81 310.444
L162.524 331.411
L180.239 342.854
L197.953 345.019
L215.667 348.512
L233.382 347.169
L251.096 335.414
L268.81 321.504
L286.524 301.156
L304.239 275.161
L321.953 254.608
L339.667 226.595
L357.382 201.003
L375.096 177.646
L392.81 158.971
L410.524 144.722
L428.239 134.463
L445.953 127.629
L463.667 125.437
L481.382 124.266
L499.096 121.326
L516.81 120.182
L534.524 120.897
L552.239 119.75" style="fill:none;stroke:#ff0000;stroke-linecap:square;"/>
   </g>
   <g id="line2d_4">
    <path clip-path="url(#pefdab4fa20)" d="
M73.953 34.512
L91.6673 120.653
L109.382 171.063
L127.096 198.319
L144.81 216.658
L162.524 229.26
L180.239 234.394
L197.953 237.583
L215.667 237.148
L233.382 231.269
L251.096 217.916
L268.81 201.807
L286.524 187.499
L304.239 172.276
L321.953 155.993
L339.667 138.67
L357.382 123.822
L375.096 110.633
L392.81 100.734
L410.524 93.6979
L428.239 93.3583
L445.953 90.9243
L463.667 90.4317
L481.382 90.4474
L499.096 91.8421
L516.81 92.3898
L534.524 92.7288
L552.239 91.3559" style="fill:none;stroke:#00bfbf;stroke-linecap:square;"/>
   </g>
   <g id="line2d_5">
    <path clip-path="url(#pefdab4fa20)" d="
M73.953 45.6381
L91.6673 125.143
L109.382 170.504
L127.096 196.61
L144.81 213.067
L162.524 229.984
L180.239 240.983
L197.953 242.792
L215.667 234.916
L233.382 225.955
L251.096 214.736
L268.81 200.349
L286.524 184.163
L304.239 170.51
L321.953 155.75
L339.667 139.697
L357.382 123.47
L375.096 108.251
L392.81 98.9947
L410.524 94.1668
L428.239 92.2486
L445.953 92.0556
L463.667 90.8287
L481.382 90.1226
L499.096 89.265
L516.81 91.2905
L534.524 91.1751
L552.239 90.7905" style="fill:none;stroke:#bf00bf;stroke-linecap:square;"/>
   </g>
   <g id="line2d_6">
    <path clip-path="url(#pefdab4fa20)" d="
M73.953 53.3267
L91.6673 123.934
L109.382 165.556
L127.096 190.576
L144.81 211.137
L162.524 227.125
L180.239 234.6
L197.953 233.786
L215.667 232.216
L233.382 226.621
L251.096 214.43
L268.81 199.236
L286.524 184.555
L304.239 170.054
L321.953 154.251
L339.667 136.145
L357.382 119.721
L375.096 107.951
L392.81 97.5732
L410.524 94.7682
L428.239 91.7585
L445.953 92.4966
L463.667 93.2435
L481.382 96.0566
L499.096 97.2757
L516.81 94.9212
L534.524 96.7487
L552.239 96.0787" style="fill:none;stroke:#bfbf00;stroke-linecap:square;"/>
   </g>
   <g id="matplotlib.axis_1">
    <g id="xtick_1">
     <g id="line2d_7">
      <defs>
       <path d="
M0 0
L0 -4" id="m93b0483c22" style="stroke:#000000;stroke-width:0.5;"/>
      </defs>
      <g>
       <use style="stroke:#000000;stroke-width:0.5;" x="56.23875" xlink:href="#m93b0483c22" y="407.14175"/>
      </g>
     </g>
     <g id="line2d_8">
      <defs>
       <path d="
M0 0
L0 4" id="m741efc42ff" style="stroke:#000000;stroke-width:0.5;"/>
      </defs>
      <g>
       <use style="stroke:#000000;stroke-width:0.5;" x="56.23875" xlink:href="#m741efc42ff" y="23.14175"/>
      </g>
     </g>
     <g id="text_1">
      <text style="font-family:DejaVu Sans;font-size:12.0px;font-style:normal;text-anchor:middle;" transform="rotate(-0.000000, 56.238750, 420.259875)" x="56.23875" y="420.259875">3</text>
     </g>
    </g>
    <g id="xtick_2">
     <g id="line2d_9">
      <g>
       <use style="stroke:#000000;stroke-width:0.5;" x="127.095892857" xlink:href="#m93b0483c22" y="407.14175"/>
      </g>
     </g>
     <g id="line2d_10">
      <g>
       <use style="stroke:#000000;stroke-width:0.5;" x="127.095892857" xlink:href="#m741efc42ff" y="23.14175"/>
      </g>
     </g>
     <g id="text_2">
      <text style="font-family:DejaVu Sans;font-size:12.0px;font-style:normal;text-anchor:middle;" transform="rotate(-0.000000, 127.095893, 420.259875)" x="127.095892857" y="420.259875">4</text>
     </g>
    </g>
    <g id="xtick_3">
     <g id="line2d_11">
      <g>
       <use style="stroke:#000000;stroke-width:0.5;" x="197.953035714" xlink:href="#m93b0483c22" y="407.14175"/>
      </g>
     </g>
     <g id="line2d_12">
      <g>
       <use style="stroke:#000000;stroke-width:0.5;" x="197.953035714" xlink:href="#m741efc42ff" y="23.14175"/>
      </g>
     </g>
     <g id="text_3">
      <text style="font-family:DejaVu Sans;font-size:12.0px;font-style:normal;text-anchor:middle;" transform="rotate(-0.000000, 197.953036, 420.259875)" x="197.953035714" y="420.259875">5</text>
     </g>
    </g>
    <g id="xtick_4">
     <g id="line2d_13">
      <g>
       <use style="stroke:#000000;stroke-width:0.5;" x="268.810178571" xlink:href="#m93b0483c22" y="407.14175"/>
      </g>
     </g>
     <g id="line2d_14">
      <g>
       <use style="stroke:#000000;stroke-width:0.5;" x="268.810178571" xlink:href="#m741efc42ff" y="23.14175"/>
      </g>
     </g>
     <g id="text_4">
      <text style="font-family:DejaVu Sans;font-size:12.0px;font-style:normal;text-anchor:middle;" transform="rotate(-0.000000, 268.810179, 420.259875)" x="268.810178571" y="420.259875">6</text>
     </g>
    </g>
    <g id="xtick_5">
     <g id="line2d_15">
      <g>
       <use style="stroke:#000000;stroke-width:0.5;" x="339.667321429" xlink:href="#m93b0483c22" y="407.14175"/>
      </g>
     </g>
     <g id="line2d_16">
      <g>
       <use style="stroke:#000000;stroke-width:0.5;" x="339.667321429" xlink:href="#m741efc42ff" y="23.14175"/>
      </g>
     </g>
     <g id="text_5">
      <text style="font-family:DejaVu Sans;font-size:12.0px;font-style:normal;text-anchor:middle;" transform="rotate(-0.000000, 339.667321, 420.259875)" x="339.667321429" y="420.259875">7</text>
     </g>
    </g>
    <g id="xtick_6">
     <g id="line2d_17">
      <g>
       <use style="stroke:#000000;stroke-width:0.5;" x="410.524464286" xlink:href="#m93b0483c22" y="407.14175"/>
      </g>
     </g>
     <g id="line2d_18">
      <g>
       <use style="stroke:#000000;stroke-width:0.5;" x="410.524464286" xlink:href="#m741efc42ff" y="23.14175"/>
      </g>
     </g>
     <g id="text_6">
      <text style="font-family:DejaVu Sans;font-size:12.0px;font-style:normal;text-anchor:middle;" transform="rotate(-0.000000, 410.524464, 420.259875)" x="410.524464286" y="420.259875">8</text>
     </g>
    </g>
    <g id="xtick_7">
     <g id="line2d_19">
      <g>
       <use style="stroke:#000000;stroke-width:0.5;" x="481.381607143" xlink:href="#m93b0483c22" y="407.14175"/>
      </g>
     </g>
     <g id="line2d_20">
      <g>
       <use style="stroke:#000000;stroke-width:0.5;" x="481.381607143" xlink:href="#m741efc42ff" y="23.14175"/>
      </g>
     </g>
     <g id="text_7">
      <text style="font-family:DejaVu Sans;font-size:12.0px;font-style:normal;text-anchor:middle;" transform="rotate(-0.000000, 481.381607, 420.259875)" x="481.381607143" y="420.259875">9</text>
     </g>
    </g>
    <g id="xtick_8">
     <g id="line2d_21">
      <g>
       <use style="stroke:#000000;stroke-width:0.5;" x="552.23875" xlink:href="#m93b0483c22" y="407.14175"/>
      </g>
     </g>
     <g id="line2d_22">
      <g>
       <use style="stroke:#000000;stroke-width:0.5;" x="552.23875" xlink:href="#m741efc42ff" y="23.14175"/>
      </g>
     </g>
     <g id="text_8">
      <text style="font-family:DejaVu Sans;font-size:12.0px;font-style:normal;text-anchor:middle;" transform="rotate(-0.000000, 552.238750, 420.259875)" x="552.23875" y="420.259875">10</text>
     </g>
    </g>
    <g id="text_9">
     <text style="font-family:DejaVu Sans;font-size:12.0px;font-style:normal;text-anchor:middle;" transform="rotate(-0.000000, 304.238750, 436.873625)" x="304.23875" y="436.873625">Distance from silica matrix [$\text{\AA}$]</text>
    </g>
   </g>
   <g id="matplotlib.axis_2">
    <g id="ytick_1">
     <g id="line2d_23">
      <defs>
       <path d="
M0 0
L4 0" id="m728421d6d4" style="stroke:#000000;stroke-width:0.5;"/>
      </defs>
      <g>
       <use style="stroke:#000000;stroke-width:0.5;" x="56.23875" xlink:href="#m728421d6d4" y="407.14175"/>
      </g>
     </g>
     <g id="line2d_24">
      <defs>
       <path d="
M0 0
L-4 0" id="mcb0005524f" style="stroke:#000000;stroke-width:0.5;"/>
      </defs>
      <g>
       <use style="stroke:#000000;stroke-width:0.5;" x="552.23875" xlink:href="#mcb0005524f" y="407.14175"/>
      </g>
     </g>
     <g id="text_10">
      <text style="font-family:DejaVu Sans;font-size:12.0px;font-style:normal;text-anchor:end;" transform="rotate(-0.000000, 52.238750, 410.453000)" x="52.23875" y="410.453">800</text>
     </g>
    </g>
    <g id="ytick_2">
     <g id="line2d_25">
      <g>
       <use style="stroke:#000000;stroke-width:0.5;" x="56.23875" xlink:href="#m728421d6d4" y="343.14175"/>
      </g>
     </g>
     <g id="line2d_26">
      <g>
       <use style="stroke:#000000;stroke-width:0.5;" x="552.23875" xlink:href="#mcb0005524f" y="343.14175"/>
      </g>
     </g>
     <g id="text_11">
      <text style="font-family:DejaVu Sans;font-size:12.0px;font-style:normal;text-anchor:end;" transform="rotate(-0.000000, 52.238750, 346.453000)" x="52.23875" y="346.453">850</text>
     </g>
    </g>
    <g id="ytick_3">
     <g id="line2d_27">
      <g>
       <use style="stroke:#000000;stroke-width:0.5;" x="56.23875" xlink:href="#m728421d6d4" y="279.14175"/>
      </g>
     </g>
     <g id="line2d_28">
      <g>
       <use style="stroke:#000000;stroke-width:0.5;" x="552.23875" xlink:href="#mcb0005524f" y="279.14175"/>
      </g>
     </g>
     <g id="text_12">
      <text style="font-family:DejaVu Sans;font-size:12.0px;font-style:normal;text-anchor:end;" transform="rotate(-0.000000, 52.238750, 282.453000)" x="52.23875" y="282.453">900</text>
     </g>
    </g>
    <g id="ytick_4">
     <g id="line2d_29">
      <g>
       <use style="stroke:#000000;stroke-width:0.5;" x="56.23875" xlink:href="#m728421d6d4" y="215.14175"/>
      </g>
     </g>
     <g id="line2d_30">
      <g>
       <use style="stroke:#000000;stroke-width:0.5;" x="552.23875" xlink:href="#mcb0005524f" y="215.14175"/>
      </g>
     </g>
     <g id="text_13">
      <text style="font-family:DejaVu Sans;font-size:12.0px;font-style:normal;text-anchor:end;" transform="rotate(-0.000000, 52.238750, 218.453000)" x="52.23875" y="218.453">950</text>
     </g>
    </g>
    <g id="ytick_5">
     <g id="line2d_31">
      <g>
       <use style="stroke:#000000;stroke-width:0.5;" x="56.23875" xlink:href="#m728421d6d4" y="151.14175"/>
      </g>
     </g>
     <g id="line2d_32">
      <g>
       <use style="stroke:#000000;stroke-width:0.5;" x="552.23875" xlink:href="#mcb0005524f" y="151.14175"/>
      </g>
     </g>
     <g id="text_14">
      <text style="font-family:DejaVu Sans;font-size:12.0px;font-style:normal;text-anchor:end;" transform="rotate(-0.000000, 52.238750, 154.453000)" x="52.23875" y="154.453">1000</text>
     </g>
    </g>
    <g id="ytick_6">
     <g id="line2d_33">
      <g>
       <use style="stroke:#000000;stroke-width:0.5;" x="56.23875" xlink:href="#m728421d6d4" y="87.14175"/>
      </g>
     </g>
     <g id="line2d_34">
      <g>
       <use style="stroke:#000000;stroke-width:0.5;" x="552.23875" xlink:href="#mcb0005524f" y="87.14175"/>
      </g>
     </g>
     <g id="text_15">
      <text style="font-family:DejaVu Sans;font-size:12.0px;font-style:normal;text-anchor:end;" transform="rotate(-0.000000, 52.238750, 90.453000)" x="52.23875" y="90.453">1050</text>
     </g>
    </g>
    <g id="ytick_7">
     <g id="line2d_35">
      <g>
       <use style="stroke:#000000;stroke-width:0.5;" x="56.23875" xlink:href="#m728421d6d4" y="23.14175"/>
      </g>
     </g>
     <g id="line2d_36">
      <g>
       <use style="stroke:#000000;stroke-width:0.5;" x="552.23875" xlink:href="#mcb0005524f" y="23.14175"/>
      </g>
     </g>
     <g id="text_16">
      <text style="font-family:DejaVu Sans;font-size:12.0px;font-style:normal;text-anchor:end;" transform="rotate(-0.000000, 52.238750, 26.453000)" x="52.23875" y="26.453">1100</text>
     </g>
    </g>
    <g id="text_17">
     <text style="font-family:DejaVu Sans;font-size:12.0px;font-style:normal;text-anchor:middle;" transform="rotate(-90.000000, 16.318125, 215.141750)" x="16.318125" y="215.14175">Density of water $[\text{kg/m}^3]$</text>
    </g>
   </g>
   <g id="patch_3">
    <path d="
M56.2388 23.1417
L552.239 23.1417" style="fill:none;stroke:#000000;"/>
   </g>
   <g id="patch_4">
    <path d="
M552.239 407.142
L552.239 23.1418" style="fill:none;stroke:#000000;"/>
   </g>
   <g id="patch_5">
    <path d="
M56.2388 407.142
L552.239 407.142" style="fill:none;stroke:#000000;"/>
   </g>
   <g id="patch_6">
    <path d="
M56.2388 407.142
L56.2388 23.1418" style="fill:none;stroke:#000000;"/>
   </g>
   <g id="text_18">
    <text style="font-family:DejaVu Sans;font-size:14.4px;font-style:normal;text-anchor:middle;" transform="rotate(-0.000000, 304.238750, 18.141750)" x="304.23875" y="18.14175">Density of water</text>
   </g>
   <g id="legend_1">
    <g id="patch_7">
     <path d="
M303.924 399.942
L545.039 399.942
L545.039 332.212
L303.924 332.212
L303.924 399.942
z
" style="fill:#ffffff;stroke:#000000;"/>
    </g>
    <g id="line2d_37">
     <path d="
M314.004 343.874
L334.164 343.874" style="fill:none;stroke:#0000ff;stroke-linecap:square;"/>
    </g>
    <g id="line2d_38"/>
    <g id="text_19">
     <text style="font-family:DejaVu Sans;font-size:14.4px;font-style:normal;text-anchor:start;" transform="rotate(-0.000000, 350.004250, 348.914000)" x="350.00425" y="348.914">Timesteps [0, 6666)</text>
    </g>
    <g id="line2d_39">
     <path d="
M314.004 365.01
L334.164 365.01" style="fill:none;stroke:#008000;stroke-linecap:square;"/>
    </g>
    <g id="line2d_40"/>
    <g id="text_20">
     <text style="font-family:DejaVu Sans;font-size:14.4px;font-style:normal;text-anchor:start;" transform="rotate(-0.000000, 350.004250, 370.050500)" x="350.00425" y="370.0505">Timesteps [6666, 13333)</text>
    </g>
    <g id="line2d_41">
     <path d="
M314.004 386.147
L334.164 386.147" style="fill:none;stroke:#ff0000;stroke-linecap:square;"/>
    </g>
    <g id="line2d_42"/>
    <g id="text_21">
     <text style="font-family:DejaVu Sans;font-size:14.4px;font-style:normal;text-anchor:start;" transform="rotate(-0.000000, 350.004250, 391.187000)" x="350.00425" y="391.187">Timesteps [13333, 20000)</text>
    </g>
   </g>
  </g>
 </g>
 <defs>
  <clipPath id="pefdab4fa20">
   <rect height="384.0" width="496.0" x="56.23875" y="23.14175"/>
  </clipPath>
 </defs>
</svg>
