<?xml version="1.0" encoding="utf-8" standalone="no"?>
<!DOCTYPE svg PUBLIC "-//W3C//DTD SVG 1.1//EN"
  "http://www.w3.org/Graphics/SVG/1.1/DTD/svg11.dtd">
<!-- Created with matplotlib (http://matplotlib.org/) -->
<svg height="265pt" version="1.1" viewBox="0 0 335 265" width="335pt" xmlns="http://www.w3.org/2000/svg" xmlns:xlink="http://www.w3.org/1999/xlink">
 <defs>
  <style type="text/css">
*{stroke-linecap:butt;stroke-linejoin:round;}
  </style>
 </defs>
 <g id="figure_1">
  <g id="patch_1">
   <path d="
M0 265.863
L335.072 265.863
L335.072 0
L0 0
z
" style="fill:#ffffff;"/>
  </g>
  <g id="axes_1">
   <g id="patch_2">
    <path d="
M58.7063 226.436
L321.294 226.436
L321.294 23.1417
L58.7063 23.1417
z
" style="fill:#ffffff;"/>
   </g>
   <g id="line2d_1">
    <path clip-path="url(#p4750ecd8f0)" d="
M58.7063 26.6247
L68.0844 55.7091
L77.4626 104.394
L86.8407 141.275
L96.2189 171.639
L105.597 195.244
L114.975 206.26
L124.353 212.959
L133.731 212.357
L143.11 209.914
L152.488 196.449
L161.866 183.845
L171.244 168.742
L180.622 155.551
L190 132.541
L199.379 116.162
L208.757 98.8893
L218.135 79.8934
L227.513 62.873
L236.891 47.8118
L246.269 42.3532
L255.647 39.5425
L265.026 35.2083
L274.404 40.6897
L283.782 43.8764
L293.16 44.6882
L302.538 46.8918
L311.916 47.8694
L321.294 46.9863" style="fill:none;stroke:#0000ff;stroke-linecap:square;"/>
   </g>
   <g id="line2d_2">
    <path clip-path="url(#p4750ecd8f0)" d="
M58.7063 135.547
L68.0844 55.8309
L77.4626 90.1952
L86.8407 131.87
L96.2189 163.659
L105.597 180.209
L114.975 200.713
L124.353 216.772
L133.731 221.47
L143.11 217.725
L152.488 211.409
L161.866 205.792
L171.244 194.378
L180.622 182.047
L190 167.161
L199.379 149.482
L208.757 130.8
L218.135 108.01
L227.513 85.8119
L236.891 65.4978
L246.269 53.5606
L255.647 46.3549
L265.026 40.9146
L274.404 38.3422
L283.782 41.3412
L293.16 42.8366
L302.538 47.0676
L311.916 50.9515
L321.294 50.2095" style="fill:none;stroke:#008000;stroke-linecap:square;"/>
   </g>
   <g id="line2d_3">
    <path clip-path="url(#p4750ecd8f0)" d="
M58.7063 -45.3948
M62.9239 -1
L68.0844 53.3194
L77.4626 89.218
L86.8407 135.333
L96.2189 154.926
L105.597 177.053
L114.975 194.139
L124.353 201.031
L133.731 200.128
L143.11 194.334
L152.488 182.777
L161.866 170.118
L171.244 152.911
L180.622 130.86
L190 112.234
L199.379 98.4152
L208.757 90.8197
L218.135 73.8595
L227.513 61.4431
L236.891 50.873
L246.269 45.348" style="fill:none;stroke:#ff0000;stroke-dasharray:6.000000,6.000000;stroke-dashoffset:0.0;"/>
   </g>
   <g id="line2d_4">
    <path clip-path="url(#p4750ecd8f0)" d="
M58.7063 -51.9882
M64.6739 -1
L68.0844 28.1393
L77.4626 92.0836
L86.8407 126.984
L96.2189 144.312
L105.597 158.7
L114.975 178.128
L124.353 192.469
L133.731 198.41
L143.11 195.304
L152.488 180.042
L161.866 168.243
L171.244 151.73
L180.622 139.521
L190 124.612
L199.379 104.35
L208.757 88.0079
L218.135 71.8064
L227.513 51.8449
L236.891 44.2434
L246.269 39.0714
L255.647 37.9112
L265.026 37.1506
L274.404 39.3632
L283.782 42.9944
L293.16 46.3367
L302.538 47.6669
L311.916 48.2567
L321.294 49.0521" style="fill:none;stroke:#00bfbf;stroke-dasharray:6.000000,6.000000;stroke-dashoffset:0.0;"/>
   </g>
   <g id="matplotlib.axis_1">
    <g id="xtick_1">
     <g id="line2d_5">
      <defs>
       <path d="
M0 0
L0 -4" id="m93b0483c22" style="stroke:#000000;stroke-width:0.5;"/>
      </defs>
      <g>
       <use style="stroke:#000000;stroke-width:0.5;" x="58.70625" xlink:href="#m93b0483c22" y="226.435867647"/>
      </g>
     </g>
     <g id="line2d_6">
      <defs>
       <path d="
M0 0
L0 4" id="m741efc42ff" style="stroke:#000000;stroke-width:0.5;"/>
      </defs>
      <g>
       <use style="stroke:#000000;stroke-width:0.5;" x="58.70625" xlink:href="#m741efc42ff" y="23.14175"/>
      </g>
     </g>
     <g id="text_1">
      <text style="font-family:DejaVu Sans;font-size:12.0px;font-style:normal;text-anchor:middle;" transform="rotate(-0.000000, 58.706250, 239.553993)" x="58.70625" y="239.553992647">3</text>
     </g>
    </g>
    <g id="xtick_2">
     <g id="line2d_7">
      <g>
       <use style="stroke:#000000;stroke-width:0.5;" x="96.218855042" xlink:href="#m93b0483c22" y="226.435867647"/>
      </g>
     </g>
     <g id="line2d_8">
      <g>
       <use style="stroke:#000000;stroke-width:0.5;" x="96.218855042" xlink:href="#m741efc42ff" y="23.14175"/>
      </g>
     </g>
     <g id="text_2">
      <text style="font-family:DejaVu Sans;font-size:12.0px;font-style:normal;text-anchor:middle;" transform="rotate(-0.000000, 96.218855, 239.553993)" x="96.218855042" y="239.553992647">4</text>
     </g>
    </g>
    <g id="xtick_3">
     <g id="line2d_9">
      <g>
       <use style="stroke:#000000;stroke-width:0.5;" x="133.731460084" xlink:href="#m93b0483c22" y="226.435867647"/>
      </g>
     </g>
     <g id="line2d_10">
      <g>
       <use style="stroke:#000000;stroke-width:0.5;" x="133.731460084" xlink:href="#m741efc42ff" y="23.14175"/>
      </g>
     </g>
     <g id="text_3">
      <text style="font-family:DejaVu Sans;font-size:12.0px;font-style:normal;text-anchor:middle;" transform="rotate(-0.000000, 133.731460, 239.553993)" x="133.731460084" y="239.553992647">5</text>
     </g>
    </g>
    <g id="xtick_4">
     <g id="line2d_11">
      <g>
       <use style="stroke:#000000;stroke-width:0.5;" x="171.244065126" xlink:href="#m93b0483c22" y="226.435867647"/>
      </g>
     </g>
     <g id="line2d_12">
      <g>
       <use style="stroke:#000000;stroke-width:0.5;" x="171.244065126" xlink:href="#m741efc42ff" y="23.14175"/>
      </g>
     </g>
     <g id="text_4">
      <text style="font-family:DejaVu Sans;font-size:12.0px;font-style:normal;text-anchor:middle;" transform="rotate(-0.000000, 171.244065, 239.553993)" x="171.244065126" y="239.553992647">6</text>
     </g>
    </g>
    <g id="xtick_5">
     <g id="line2d_13">
      <g>
       <use style="stroke:#000000;stroke-width:0.5;" x="208.756670168" xlink:href="#m93b0483c22" y="226.435867647"/>
      </g>
     </g>
     <g id="line2d_14">
      <g>
       <use style="stroke:#000000;stroke-width:0.5;" x="208.756670168" xlink:href="#m741efc42ff" y="23.14175"/>
      </g>
     </g>
     <g id="text_5">
      <text style="font-family:DejaVu Sans;font-size:12.0px;font-style:normal;text-anchor:middle;" transform="rotate(-0.000000, 208.756670, 239.553993)" x="208.756670168" y="239.553992647">7</text>
     </g>
    </g>
    <g id="xtick_6">
     <g id="line2d_15">
      <g>
       <use style="stroke:#000000;stroke-width:0.5;" x="246.26927521" xlink:href="#m93b0483c22" y="226.435867647"/>
      </g>
     </g>
     <g id="line2d_16">
      <g>
       <use style="stroke:#000000;stroke-width:0.5;" x="246.26927521" xlink:href="#m741efc42ff" y="23.14175"/>
      </g>
     </g>
     <g id="text_6">
      <text style="font-family:DejaVu Sans;font-size:12.0px;font-style:normal;text-anchor:middle;" transform="rotate(-0.000000, 246.269275, 239.553993)" x="246.26927521" y="239.553992647">8</text>
     </g>
    </g>
    <g id="xtick_7">
     <g id="line2d_17">
      <g>
       <use style="stroke:#000000;stroke-width:0.5;" x="283.781880252" xlink:href="#m93b0483c22" y="226.435867647"/>
      </g>
     </g>
     <g id="line2d_18">
      <g>
       <use style="stroke:#000000;stroke-width:0.5;" x="283.781880252" xlink:href="#m741efc42ff" y="23.14175"/>
      </g>
     </g>
     <g id="text_7">
      <text style="font-family:DejaVu Sans;font-size:12.0px;font-style:normal;text-anchor:middle;" transform="rotate(-0.000000, 283.781880, 239.553993)" x="283.781880252" y="239.553992647">9</text>
     </g>
    </g>
    <g id="xtick_8">
     <g id="line2d_19">
      <g>
       <use style="stroke:#000000;stroke-width:0.5;" x="321.294485294" xlink:href="#m93b0483c22" y="226.435867647"/>
      </g>
     </g>
     <g id="line2d_20">
      <g>
       <use style="stroke:#000000;stroke-width:0.5;" x="321.294485294" xlink:href="#m741efc42ff" y="23.14175"/>
      </g>
     </g>
     <g id="text_8">
      <text style="font-family:DejaVu Sans;font-size:12.0px;font-style:normal;text-anchor:middle;" transform="rotate(-0.000000, 321.294485, 239.553993)" x="321.294485294" y="239.553992647">10</text>
     </g>
    </g>
    <g id="text_9">
     <text style="font-family:DejaVu Sans;font-size:12.0px;font-style:normal;text-anchor:middle;" transform="rotate(-0.000000, 190.000368, 256.167743)" x="190.000367647" y="256.167742647">$r\text{ [\AA]}$</text>
    </g>
   </g>
   <g id="matplotlib.axis_2">
    <g id="ytick_1">
     <g id="line2d_21">
      <defs>
       <path d="
M0 0
L4 0" id="m728421d6d4" style="stroke:#000000;stroke-width:0.5;"/>
      </defs>
      <g>
       <use style="stroke:#000000;stroke-width:0.5;" x="58.70625" xlink:href="#m728421d6d4" y="214.477390138"/>
      </g>
     </g>
     <g id="line2d_22">
      <defs>
       <path d="
M0 0
L-4 0" id="mcb0005524f" style="stroke:#000000;stroke-width:0.5;"/>
      </defs>
      <g>
       <use style="stroke:#000000;stroke-width:0.5;" x="321.294485294" xlink:href="#mcb0005524f" y="214.477390138"/>
      </g>
     </g>
     <g id="text_10">
      <text style="font-family:DejaVu Sans;font-size:12.0px;font-style:normal;text-anchor:end;" transform="rotate(-0.000000, 54.706250, 217.788640)" x="54.70625" y="217.788640138">−140</text>
     </g>
    </g>
    <g id="ytick_2">
     <g id="line2d_23">
      <g>
       <use style="stroke:#000000;stroke-width:0.5;" x="58.70625" xlink:href="#m728421d6d4" y="190.560435121"/>
      </g>
     </g>
     <g id="line2d_24">
      <g>
       <use style="stroke:#000000;stroke-width:0.5;" x="321.294485294" xlink:href="#mcb0005524f" y="190.560435121"/>
      </g>
     </g>
     <g id="text_11">
      <text style="font-family:DejaVu Sans;font-size:12.0px;font-style:normal;text-anchor:end;" transform="rotate(-0.000000, 54.706250, 193.871685)" x="54.70625" y="193.871685121">−120</text>
     </g>
    </g>
    <g id="ytick_3">
     <g id="line2d_25">
      <g>
       <use style="stroke:#000000;stroke-width:0.5;" x="58.70625" xlink:href="#m728421d6d4" y="166.643480104"/>
      </g>
     </g>
     <g id="line2d_26">
      <g>
       <use style="stroke:#000000;stroke-width:0.5;" x="321.294485294" xlink:href="#mcb0005524f" y="166.643480104"/>
      </g>
     </g>
     <g id="text_12">
      <text style="font-family:DejaVu Sans;font-size:12.0px;font-style:normal;text-anchor:end;" transform="rotate(-0.000000, 54.706250, 169.954730)" x="54.70625" y="169.954730104">−100</text>
     </g>
    </g>
    <g id="ytick_4">
     <g id="line2d_27">
      <g>
       <use style="stroke:#000000;stroke-width:0.5;" x="58.70625" xlink:href="#m728421d6d4" y="142.726525087"/>
      </g>
     </g>
     <g id="line2d_28">
      <g>
       <use style="stroke:#000000;stroke-width:0.5;" x="321.294485294" xlink:href="#mcb0005524f" y="142.726525087"/>
      </g>
     </g>
     <g id="text_13">
      <text style="font-family:DejaVu Sans;font-size:12.0px;font-style:normal;text-anchor:end;" transform="rotate(-0.000000, 54.706250, 146.037775)" x="54.70625" y="146.037775087">−80</text>
     </g>
    </g>
    <g id="ytick_5">
     <g id="line2d_29">
      <g>
       <use style="stroke:#000000;stroke-width:0.5;" x="58.70625" xlink:href="#m728421d6d4" y="118.809570069"/>
      </g>
     </g>
     <g id="line2d_30">
      <g>
       <use style="stroke:#000000;stroke-width:0.5;" x="321.294485294" xlink:href="#mcb0005524f" y="118.809570069"/>
      </g>
     </g>
     <g id="text_14">
      <text style="font-family:DejaVu Sans;font-size:12.0px;font-style:normal;text-anchor:end;" transform="rotate(-0.000000, 54.706250, 122.120820)" x="54.70625" y="122.120820069">−60</text>
     </g>
    </g>
    <g id="ytick_6">
     <g id="line2d_31">
      <g>
       <use style="stroke:#000000;stroke-width:0.5;" x="58.70625" xlink:href="#m728421d6d4" y="94.8926150519"/>
      </g>
     </g>
     <g id="line2d_32">
      <g>
       <use style="stroke:#000000;stroke-width:0.5;" x="321.294485294" xlink:href="#mcb0005524f" y="94.8926150519"/>
      </g>
     </g>
     <g id="text_15">
      <text style="font-family:DejaVu Sans;font-size:12.0px;font-style:normal;text-anchor:end;" transform="rotate(-0.000000, 54.706250, 98.203865)" x="54.70625" y="98.2038650519">−40</text>
     </g>
    </g>
    <g id="ytick_7">
     <g id="line2d_33">
      <g>
       <use style="stroke:#000000;stroke-width:0.5;" x="58.70625" xlink:href="#m728421d6d4" y="70.9756600346"/>
      </g>
     </g>
     <g id="line2d_34">
      <g>
       <use style="stroke:#000000;stroke-width:0.5;" x="321.294485294" xlink:href="#mcb0005524f" y="70.9756600346"/>
      </g>
     </g>
     <g id="text_16">
      <text style="font-family:DejaVu Sans;font-size:12.0px;font-style:normal;text-anchor:end;" transform="rotate(-0.000000, 54.706250, 74.286910)" x="54.70625" y="74.2869100346">−20</text>
     </g>
    </g>
    <g id="ytick_8">
     <g id="line2d_35">
      <g>
       <use style="stroke:#000000;stroke-width:0.5;" x="58.70625" xlink:href="#m728421d6d4" y="47.0587050173"/>
      </g>
     </g>
     <g id="line2d_36">
      <g>
       <use style="stroke:#000000;stroke-width:0.5;" x="321.294485294" xlink:href="#mcb0005524f" y="47.0587050173"/>
      </g>
     </g>
     <g id="text_17">
      <text style="font-family:DejaVu Sans;font-size:12.0px;font-style:normal;text-anchor:end;" transform="rotate(-0.000000, 54.706250, 50.369955)" x="54.70625" y="50.3699550173">0</text>
     </g>
    </g>
    <g id="ytick_9">
     <g id="line2d_37">
      <g>
       <use style="stroke:#000000;stroke-width:0.5;" x="58.70625" xlink:href="#m728421d6d4" y="23.14175"/>
      </g>
     </g>
     <g id="line2d_38">
      <g>
       <use style="stroke:#000000;stroke-width:0.5;" x="321.294485294" xlink:href="#mcb0005524f" y="23.14175"/>
      </g>
     </g>
     <g id="text_18">
      <text style="font-family:DejaVu Sans;font-size:12.0px;font-style:normal;text-anchor:end;" transform="rotate(-0.000000, 54.706250, 26.453000)" x="54.70625" y="26.453">20</text>
     </g>
    </g>
    <g id="text_19">
     <text style="font-family:DejaVu Sans;font-size:12.0px;font-style:normal;text-anchor:middle;" transform="rotate(-90.000000, 16.318125, 124.788809)" x="16.318125" y="124.788808824">$\Delta \rho$ [kg/m$^3$]</text>
    </g>
   </g>
   <g id="patch_3">
    <path d="
M58.7063 23.1417
L321.294 23.1417" style="fill:none;stroke:#000000;"/>
   </g>
   <g id="patch_4">
    <path d="
M321.294 226.436
L321.294 23.1417" style="fill:none;stroke:#000000;"/>
   </g>
   <g id="patch_5">
    <path d="
M58.7063 226.436
L321.294 226.436" style="fill:none;stroke:#000000;"/>
   </g>
   <g id="patch_6">
    <path d="
M58.7063 226.436
L58.7063 23.1417" style="fill:none;stroke:#000000;"/>
   </g>
   <g id="text_20">
    <text style="font-family:DejaVu Sans;font-size:14.4px;font-style:normal;text-anchor:middle;" transform="rotate(-0.000000, 190.000368, 18.141750)" x="190.000367647" y="18.14175">Relative density of water</text>
   </g>
   <g id="legend_1">
    <g id="patch_7">
     <path d="
M239.862 219.236
L311.214 219.236
Q314.094 219.236 314.094 216.356
L314.094 133.25
Q314.094 130.37 311.214 130.37
L239.862 130.37
Q236.982 130.37 236.982 133.25
L236.982 216.356
Q236.982 219.236 239.862 219.236
z
" style="fill:#ffffff;stroke:#000000;"/>
    </g>
    <g id="line2d_39">
     <path d="
M247.062 142.032
L267.222 142.032" style="fill:none;stroke:#0000ff;stroke-linecap:square;"/>
    </g>
    <g id="line2d_40"/>
    <g id="text_21">
     <text style="font-family:DejaVu Sans;font-size:14.4px;font-style:normal;text-anchor:start;" transform="rotate(-0.000000, 283.062485, 147.071618)" x="283.062485294" y="147.071617647">\#1</text>
    </g>
    <g id="line2d_41">
     <path d="
M247.062 163.168
L267.222 163.168" style="fill:none;stroke:#008000;stroke-linecap:square;"/>
    </g>
    <g id="line2d_42"/>
    <g id="text_22">
     <text style="font-family:DejaVu Sans;font-size:14.4px;font-style:normal;text-anchor:start;" transform="rotate(-0.000000, 283.062485, 168.208118)" x="283.062485294" y="168.208117647">\#2</text>
    </g>
    <g id="line2d_43">
     <path d="
M247.062 184.305
L267.222 184.305" style="fill:none;stroke:#ff0000;stroke-dasharray:6.000000,6.000000;stroke-dashoffset:0.0;"/>
    </g>
    <g id="line2d_44"/>
    <g id="text_23">
     <text style="font-family:DejaVu Sans;font-size:14.4px;font-style:normal;text-anchor:start;" transform="rotate(-0.000000, 283.062485, 189.344618)" x="283.062485294" y="189.344617647">\#3</text>
    </g>
    <g id="line2d_45">
     <path d="
M247.062 205.441
L267.222 205.441" style="fill:none;stroke:#00bfbf;stroke-dasharray:6.000000,6.000000;stroke-dashoffset:0.0;"/>
    </g>
    <g id="line2d_46"/>
    <g id="text_24">
     <text style="font-family:DejaVu Sans;font-size:14.4px;font-style:normal;text-anchor:start;" transform="rotate(-0.000000, 283.062485, 210.481118)" x="283.062485294" y="210.481117647">\#4</text>
    </g>
   </g>
  </g>
 </g>
 <defs>
  <clipPath id="p4750ecd8f0">
   <rect height="203.294117647" width="262.588235294" x="58.70625" y="23.14175"/>
  </clipPath>
 </defs>
</svg>
