<?xml version="1.0" encoding="utf-8" standalone="no"?>
<!DOCTYPE svg PUBLIC "-//W3C//DTD SVG 1.1//EN"
  "http://www.w3.org/Graphics/SVG/1.1/DTD/svg11.dtd">
<!-- Created with matplotlib (http://matplotlib.org/) -->
<svg height="376pt" version="1.1" viewBox="0 0 477 376" width="477pt" xmlns="http://www.w3.org/2000/svg" xmlns:xlink="http://www.w3.org/1999/xlink">
 <defs>
  <style type="text/css">
*{stroke-linecap:butt;stroke-linejoin:round;}
  </style>
 </defs>
 <g id="figure_1">
  <g id="patch_1">
   <path d="
M0 376.489
L477.731 376.489
L477.731 0
L0 0
z
" style="fill:#ffffff;"/>
  </g>
  <g id="axes_1">
   <g id="patch_2">
    <path d="
M58.7063 337.062
L463.954 337.062
L463.954 23.1418
L58.7063 23.1418
z
" style="fill:#ffffff;"/>
   </g>
   <g id="line2d_1">
    <path clip-path="url(#pea186daadd)" d="
M73.1794 74.2507
L87.6525 135.049
L102.126 213.149
L116.599 246.332
L131.072 283.806
L145.545 312.744
L160.018 324.416
L174.491 322.886
L188.964 313.073
L203.438 293.501
L217.911 272.061
L232.384 242.919
L246.857 205.574
L261.33 174.029
L275.803 150.625
L290.276 137.761
L304.749 109.038
L319.222 88.0089
L333.696 70.1074
L348.169 60.7503
L362.642 53.4725
L377.115 51.1137
L391.588 54.52
L406.061 63.9391
L420.534 62.3526
L435.008 52.6775
L449.481 38.6867
L463.954 95.6003" style="fill:none;stroke:#0000ff;stroke-linecap:square;"/>
   </g>
   <g id="line2d_2">
    <path clip-path="url(#pea186daadd)" d="
M73.1794 31.6057
L87.6525 139.902
L102.126 199.009
L116.599 228.357
L131.072 252.724
L145.545 285.626
L160.018 309.915
L174.491 319.977
L188.964 314.716
L203.438 288.869
L217.911 268.886
L232.384 240.92
L246.857 220.242
L261.33 194.993
L275.803 160.676
L290.276 132.999
L304.749 105.56
L319.222 71.7535
L333.696 58.8796
L348.169 50.1202
L362.642 48.1554
L377.115 46.8671
L391.588 50.6144
L406.061 56.7643
L420.534 62.4248
L435.008 64.6776
L449.481 65.6765
L463.954 67.0235" style="fill:none;stroke:#008000;stroke-linecap:square;"/>
   </g>
   <g id="line2d_3">
    <path clip-path="url(#pea186daadd)" d="
M73.1794 38.7854
L87.6525 141.468
L102.126 214.519
L116.599 250.195
L131.072 267.082
L145.545 279.748
L160.018 288.68
L174.491 284.978
L188.964 269.451
L203.438 255.612
L217.911 232.36
L232.384 203.733
L246.857 173.29
L261.33 143.87
L275.803 116.76
L290.276 95.4749
L304.749 78.4753
L319.222 71.5363
L333.696 65.1903
L348.169 60.8734
L362.642 60.4163
L377.115 63.1751
L391.588 59.6558
L406.061 61.4508
L420.534 65.2439
L435.008 64.6111
L449.481 83.1523
L452.371 377.489" style="fill:none;stroke:#ff0000;stroke-dasharray:6.000000,6.000000;stroke-dashoffset:0.0;"/>
   </g>
   <g id="line2d_4">
    <path clip-path="url(#pea186daadd)" d="
M73.1794 2.60196
L87.6525 106.829
L102.126 171.741
L116.599 199.714
L131.072 210.77
L145.545 213.756
L160.018 213.538
L174.491 202.016
L188.964 189.712
L203.438 165.706
L217.911 135.249
L232.384 109.29
L246.857 86.8267
L261.33 72.5386
L275.803 61.1708
L290.276 55.7302
L304.749 54.4247
L319.222 53.5232
L333.696 54.677
L348.169 55.2691
L362.642 57.1418
L377.115 58.8459
L391.588 59.3187
L406.061 59.4154
L420.534 62.2185
L435.008 63.9993
L449.481 65.1693
L463.954 63.7727" style="fill:none;stroke:#00bfbf;stroke-dasharray:6.000000,6.000000;stroke-dashoffset:0.0;"/>
   </g>
   <g id="line2d_5">
    <path clip-path="url(#pea186daadd)" d="
M73.1794 -34.7512
M76.8804 -1
L87.6525 97.235
L102.126 171.305
L116.599 202.786
L131.072 216.15
L145.545 227.763
L160.018 239.506
L174.491 239.5
L188.964 227.334
L203.438 203.152
L217.911 179.552
L232.384 151.117
L246.857 123.427
L261.33 99.9519
L275.803 81.4575
L290.276 69.7468
L304.749 60.8388
L319.222 54.9532
L333.696 53.1188
L348.169 54.0118
L362.642 54.5361
L377.115 56.6699
L391.588 59.422
L406.061 61.1441
L420.534 61.6882
L435.008 62.9639
L449.481 61.1517
L463.954 61.2176" style="fill:none;stroke:#bf00bf;stroke-dasharray:6.000000,6.000000;stroke-dashoffset:0.0;"/>
   </g>
   <g id="matplotlib.axis_1">
    <g id="xtick_1">
     <g id="line2d_6">
      <defs>
       <path d="
M0 0
L0 -4" id="m93b0483c22" style="stroke:#000000;stroke-width:0.5;"/>
      </defs>
      <g>
       <use style="stroke:#000000;stroke-width:0.5;" x="58.70625" xlink:href="#m93b0483c22" y="337.06175"/>
      </g>
     </g>
     <g id="line2d_7">
      <defs>
       <path d="
M0 0
L0 4" id="m741efc42ff" style="stroke:#000000;stroke-width:0.5;"/>
      </defs>
      <g>
       <use style="stroke:#000000;stroke-width:0.5;" x="58.70625" xlink:href="#m741efc42ff" y="23.14175"/>
      </g>
     </g>
     <g id="text_1">
      <text style="font-family:DejaVu Sans;font-size:12.0px;font-style:normal;text-anchor:middle;" transform="rotate(-0.000000, 58.706250, 350.179875)" x="58.70625" y="350.179875">3</text>
     </g>
    </g>
    <g id="xtick_2">
     <g id="line2d_8">
      <g>
       <use style="stroke:#000000;stroke-width:0.5;" x="116.59875" xlink:href="#m93b0483c22" y="337.06175"/>
      </g>
     </g>
     <g id="line2d_9">
      <g>
       <use style="stroke:#000000;stroke-width:0.5;" x="116.59875" xlink:href="#m741efc42ff" y="23.14175"/>
      </g>
     </g>
     <g id="text_2">
      <text style="font-family:DejaVu Sans;font-size:12.0px;font-style:normal;text-anchor:middle;" transform="rotate(-0.000000, 116.598750, 350.179875)" x="116.59875" y="350.179875">4</text>
     </g>
    </g>
    <g id="xtick_3">
     <g id="line2d_10">
      <g>
       <use style="stroke:#000000;stroke-width:0.5;" x="174.49125" xlink:href="#m93b0483c22" y="337.06175"/>
      </g>
     </g>
     <g id="line2d_11">
      <g>
       <use style="stroke:#000000;stroke-width:0.5;" x="174.49125" xlink:href="#m741efc42ff" y="23.14175"/>
      </g>
     </g>
     <g id="text_3">
      <text style="font-family:DejaVu Sans;font-size:12.0px;font-style:normal;text-anchor:middle;" transform="rotate(-0.000000, 174.491250, 350.179875)" x="174.49125" y="350.179875">5</text>
     </g>
    </g>
    <g id="xtick_4">
     <g id="line2d_12">
      <g>
       <use style="stroke:#000000;stroke-width:0.5;" x="232.38375" xlink:href="#m93b0483c22" y="337.06175"/>
      </g>
     </g>
     <g id="line2d_13">
      <g>
       <use style="stroke:#000000;stroke-width:0.5;" x="232.38375" xlink:href="#m741efc42ff" y="23.14175"/>
      </g>
     </g>
     <g id="text_4">
      <text style="font-family:DejaVu Sans;font-size:12.0px;font-style:normal;text-anchor:middle;" transform="rotate(-0.000000, 232.383750, 350.179875)" x="232.38375" y="350.179875">6</text>
     </g>
    </g>
    <g id="xtick_5">
     <g id="line2d_14">
      <g>
       <use style="stroke:#000000;stroke-width:0.5;" x="290.27625" xlink:href="#m93b0483c22" y="337.06175"/>
      </g>
     </g>
     <g id="line2d_15">
      <g>
       <use style="stroke:#000000;stroke-width:0.5;" x="290.27625" xlink:href="#m741efc42ff" y="23.14175"/>
      </g>
     </g>
     <g id="text_5">
      <text style="font-family:DejaVu Sans;font-size:12.0px;font-style:normal;text-anchor:middle;" transform="rotate(-0.000000, 290.276250, 350.179875)" x="290.27625" y="350.179875">7</text>
     </g>
    </g>
    <g id="xtick_6">
     <g id="line2d_16">
      <g>
       <use style="stroke:#000000;stroke-width:0.5;" x="348.16875" xlink:href="#m93b0483c22" y="337.06175"/>
      </g>
     </g>
     <g id="line2d_17">
      <g>
       <use style="stroke:#000000;stroke-width:0.5;" x="348.16875" xlink:href="#m741efc42ff" y="23.14175"/>
      </g>
     </g>
     <g id="text_6">
      <text style="font-family:DejaVu Sans;font-size:12.0px;font-style:normal;text-anchor:middle;" transform="rotate(-0.000000, 348.168750, 350.179875)" x="348.16875" y="350.179875">8</text>
     </g>
    </g>
    <g id="xtick_7">
     <g id="line2d_18">
      <g>
       <use style="stroke:#000000;stroke-width:0.5;" x="406.06125" xlink:href="#m93b0483c22" y="337.06175"/>
      </g>
     </g>
     <g id="line2d_19">
      <g>
       <use style="stroke:#000000;stroke-width:0.5;" x="406.06125" xlink:href="#m741efc42ff" y="23.14175"/>
      </g>
     </g>
     <g id="text_7">
      <text style="font-family:DejaVu Sans;font-size:12.0px;font-style:normal;text-anchor:middle;" transform="rotate(-0.000000, 406.061250, 350.179875)" x="406.06125" y="350.179875">9</text>
     </g>
    </g>
    <g id="xtick_8">
     <g id="line2d_20">
      <g>
       <use style="stroke:#000000;stroke-width:0.5;" x="463.95375" xlink:href="#m93b0483c22" y="337.06175"/>
      </g>
     </g>
     <g id="line2d_21">
      <g>
       <use style="stroke:#000000;stroke-width:0.5;" x="463.95375" xlink:href="#m741efc42ff" y="23.14175"/>
      </g>
     </g>
     <g id="text_8">
      <text style="font-family:DejaVu Sans;font-size:12.0px;font-style:normal;text-anchor:middle;" transform="rotate(-0.000000, 463.953750, 350.179875)" x="463.95375" y="350.179875">10</text>
     </g>
    </g>
    <g id="text_9">
     <text style="font-family:DejaVu Sans;font-size:12.0px;font-style:normal;text-anchor:middle;" transform="rotate(-0.000000, 261.330000, 366.793625)" x="261.33" y="366.793625">$r\text{ [\AA]}$</text>
    </g>
   </g>
   <g id="matplotlib.axis_2">
    <g id="ytick_1">
     <g id="line2d_22">
      <defs>
       <path d="
M0 0
L4 0" id="m728421d6d4" style="stroke:#000000;stroke-width:0.5;"/>
      </defs>
      <g>
       <use style="stroke:#000000;stroke-width:0.5;" x="58.70625" xlink:href="#m728421d6d4" y="306.682395161"/>
      </g>
     </g>
     <g id="line2d_23">
      <defs>
       <path d="
M0 0
L-4 0" id="mcb0005524f" style="stroke:#000000;stroke-width:0.5;"/>
      </defs>
      <g>
       <use style="stroke:#000000;stroke-width:0.5;" x="463.95375" xlink:href="#mcb0005524f" y="306.682395161"/>
      </g>
     </g>
     <g id="text_10">
      <text style="font-family:DejaVu Sans;font-size:12.0px;font-style:normal;text-anchor:end;" transform="rotate(-0.000000, 54.706250, 309.993645)" x="54.70625" y="309.993645161">−120</text>
     </g>
    </g>
    <g id="ytick_2">
     <g id="line2d_24">
      <g>
       <use style="stroke:#000000;stroke-width:0.5;" x="58.70625" xlink:href="#m728421d6d4" y="266.17658871"/>
      </g>
     </g>
     <g id="line2d_25">
      <g>
       <use style="stroke:#000000;stroke-width:0.5;" x="463.95375" xlink:href="#mcb0005524f" y="266.17658871"/>
      </g>
     </g>
     <g id="text_11">
      <text style="font-family:DejaVu Sans;font-size:12.0px;font-style:normal;text-anchor:end;" transform="rotate(-0.000000, 54.706250, 269.487839)" x="54.70625" y="269.48783871">−100</text>
     </g>
    </g>
    <g id="ytick_3">
     <g id="line2d_26">
      <g>
       <use style="stroke:#000000;stroke-width:0.5;" x="58.70625" xlink:href="#m728421d6d4" y="225.670782258"/>
      </g>
     </g>
     <g id="line2d_27">
      <g>
       <use style="stroke:#000000;stroke-width:0.5;" x="463.95375" xlink:href="#mcb0005524f" y="225.670782258"/>
      </g>
     </g>
     <g id="text_12">
      <text style="font-family:DejaVu Sans;font-size:12.0px;font-style:normal;text-anchor:end;" transform="rotate(-0.000000, 54.706250, 228.982032)" x="54.70625" y="228.982032258">−80</text>
     </g>
    </g>
    <g id="ytick_4">
     <g id="line2d_28">
      <g>
       <use style="stroke:#000000;stroke-width:0.5;" x="58.70625" xlink:href="#m728421d6d4" y="185.164975806"/>
      </g>
     </g>
     <g id="line2d_29">
      <g>
       <use style="stroke:#000000;stroke-width:0.5;" x="463.95375" xlink:href="#mcb0005524f" y="185.164975806"/>
      </g>
     </g>
     <g id="text_13">
      <text style="font-family:DejaVu Sans;font-size:12.0px;font-style:normal;text-anchor:end;" transform="rotate(-0.000000, 54.706250, 188.476226)" x="54.70625" y="188.476225806">−60</text>
     </g>
    </g>
    <g id="ytick_5">
     <g id="line2d_30">
      <g>
       <use style="stroke:#000000;stroke-width:0.5;" x="58.70625" xlink:href="#m728421d6d4" y="144.659169355"/>
      </g>
     </g>
     <g id="line2d_31">
      <g>
       <use style="stroke:#000000;stroke-width:0.5;" x="463.95375" xlink:href="#mcb0005524f" y="144.659169355"/>
      </g>
     </g>
     <g id="text_14">
      <text style="font-family:DejaVu Sans;font-size:12.0px;font-style:normal;text-anchor:end;" transform="rotate(-0.000000, 54.706250, 147.970419)" x="54.70625" y="147.970419355">−40</text>
     </g>
    </g>
    <g id="ytick_6">
     <g id="line2d_32">
      <g>
       <use style="stroke:#000000;stroke-width:0.5;" x="58.70625" xlink:href="#m728421d6d4" y="104.153362903"/>
      </g>
     </g>
     <g id="line2d_33">
      <g>
       <use style="stroke:#000000;stroke-width:0.5;" x="463.95375" xlink:href="#mcb0005524f" y="104.153362903"/>
      </g>
     </g>
     <g id="text_15">
      <text style="font-family:DejaVu Sans;font-size:12.0px;font-style:normal;text-anchor:end;" transform="rotate(-0.000000, 54.706250, 107.464613)" x="54.70625" y="107.464612903">−20</text>
     </g>
    </g>
    <g id="ytick_7">
     <g id="line2d_34">
      <g>
       <use style="stroke:#000000;stroke-width:0.5;" x="58.70625" xlink:href="#m728421d6d4" y="63.6475564516"/>
      </g>
     </g>
     <g id="line2d_35">
      <g>
       <use style="stroke:#000000;stroke-width:0.5;" x="463.95375" xlink:href="#mcb0005524f" y="63.6475564516"/>
      </g>
     </g>
     <g id="text_16">
      <text style="font-family:DejaVu Sans;font-size:12.0px;font-style:normal;text-anchor:end;" transform="rotate(-0.000000, 54.706250, 66.958806)" x="54.70625" y="66.9588064516">0</text>
     </g>
    </g>
    <g id="ytick_8">
     <g id="line2d_36">
      <g>
       <use style="stroke:#000000;stroke-width:0.5;" x="58.70625" xlink:href="#m728421d6d4" y="23.14175"/>
      </g>
     </g>
     <g id="line2d_37">
      <g>
       <use style="stroke:#000000;stroke-width:0.5;" x="463.95375" xlink:href="#mcb0005524f" y="23.14175"/>
      </g>
     </g>
     <g id="text_17">
      <text style="font-family:DejaVu Sans;font-size:12.0px;font-style:normal;text-anchor:end;" transform="rotate(-0.000000, 54.706250, 26.453000)" x="54.70625" y="26.453">20</text>
     </g>
    </g>
    <g id="text_18">
     <text style="font-family:DejaVu Sans;font-size:12.0px;font-style:normal;text-anchor:middle;" transform="rotate(-90.000000, 16.318125, 180.101750)" x="16.318125" y="180.10175">$\Delta \rho$ [kg/m$^3$]</text>
    </g>
   </g>
   <g id="patch_3">
    <path d="
M58.7063 23.1418
L463.954 23.1418" style="fill:none;stroke:#000000;"/>
   </g>
   <g id="patch_4">
    <path d="
M463.954 337.062
L463.954 23.1417" style="fill:none;stroke:#000000;"/>
   </g>
   <g id="patch_5">
    <path d="
M58.7063 337.062
L463.954 337.062" style="fill:none;stroke:#000000;"/>
   </g>
   <g id="patch_6">
    <path d="
M58.7063 337.062
L58.7063 23.1417" style="fill:none;stroke:#000000;"/>
   </g>
   <g id="text_19">
    <text style="font-family:DejaVu Sans;font-size:14.4px;font-style:normal;text-anchor:middle;" transform="rotate(-0.000000, 261.330000, 18.141750)" x="261.33" y="18.14175">Relative density of water</text>
   </g>
   <g id="legend_1">
    <g id="patch_7">
     <path d="
M332.383 329.862
L453.874 329.862
Q456.754 329.862 456.754 326.982
L456.754 222.739
Q456.754 219.859 453.874 219.859
L332.383 219.859
Q329.503 219.859 329.503 222.739
L329.503 326.982
Q329.503 329.862 332.383 329.862
z
" style="fill:#ffffff;stroke:#000000;"/>
    </g>
    <g id="line2d_38">
     <path d="
M339.583 231.521
L359.743 231.521" style="fill:none;stroke:#0000ff;stroke-linecap:square;"/>
    </g>
    <g id="line2d_39"/>
    <g id="text_20">
     <text style="font-family:DejaVu Sans;font-size:14.4px;font-style:normal;text-anchor:start;" transform="rotate(-0.000000, 375.582750, 236.561000)" x="375.58275" y="236.561">Rough \#3</text>
    </g>
    <g id="line2d_40">
     <path d="
M339.583 252.658
L359.743 252.658" style="fill:none;stroke:#008000;stroke-linecap:square;"/>
    </g>
    <g id="line2d_41"/>
    <g id="text_21">
     <text style="font-family:DejaVu Sans;font-size:14.4px;font-style:normal;text-anchor:start;" transform="rotate(-0.000000, 375.582750, 257.697500)" x="375.58275" y="257.6975">Rough \#4</text>
    </g>
    <g id="line2d_42">
     <path d="
M339.583 273.794
L359.743 273.794" style="fill:none;stroke:#ff0000;stroke-dasharray:6.000000,6.000000;stroke-dashoffset:0.0;"/>
    </g>
    <g id="line2d_43"/>
    <g id="text_22">
     <text style="font-family:DejaVu Sans;font-size:14.4px;font-style:normal;text-anchor:start;" transform="rotate(-0.000000, 375.582750, 278.834000)" x="375.58275" y="278.834">Flat \#1</text>
    </g>
    <g id="line2d_44">
     <path d="
M339.583 294.93
L359.743 294.93" style="fill:none;stroke:#00bfbf;stroke-dasharray:6.000000,6.000000;stroke-dashoffset:0.0;"/>
    </g>
    <g id="line2d_45"/>
    <g id="text_23">
     <text style="font-family:DejaVu Sans;font-size:14.4px;font-style:normal;text-anchor:start;" transform="rotate(-0.000000, 375.582750, 299.970500)" x="375.58275" y="299.9705">Flat \#2</text>
    </g>
    <g id="line2d_46">
     <path d="
M339.583 316.067
L359.743 316.067" style="fill:none;stroke:#bf00bf;stroke-dasharray:6.000000,6.000000;stroke-dashoffset:0.0;"/>
    </g>
    <g id="line2d_47"/>
    <g id="text_24">
     <text style="font-family:DejaVu Sans;font-size:14.4px;font-style:normal;text-anchor:start;" transform="rotate(-0.000000, 375.582750, 321.107000)" x="375.58275" y="321.107">Flat \#4</text>
    </g>
   </g>
  </g>
 </g>
 <defs>
  <clipPath id="pea186daadd">
   <rect height="313.92" width="405.2475" x="58.70625" y="23.14175"/>
  </clipPath>
 </defs>
</svg>
