<?xml version="1.0" encoding="UTF-8" standalone="no"?>
<!-- Created with Inkscape (http://www.inkscape.org/) -->

<svg
   xmlns:dc="http://purl.org/dc/elements/1.1/"
   xmlns:cc="http://creativecommons.org/ns#"
   xmlns:rdf="http://www.w3.org/1999/02/22-rdf-syntax-ns#"
   xmlns:svg="http://www.w3.org/2000/svg"
   xmlns="http://www.w3.org/2000/svg"
   xmlns:xlink="http://www.w3.org/1999/xlink"
   xmlns:sodipodi="http://sodipodi.sourceforge.net/DTD/sodipodi-0.dtd"
   xmlns:inkscape="http://www.inkscape.org/namespaces/inkscape"
   width="744.09448819"
   height="1052.3622047"
   id="svg2"
   version="1.1"
   inkscape:version="0.48.4 r9939"
   sodipodi:docname="cell_list.svg">
  <defs
     id="defs4" />
  <sodipodi:namedview
     id="base"
     pagecolor="#ffffff"
     bordercolor="#666666"
     borderopacity="1.0"
     inkscape:pageopacity="0.0"
     inkscape:pageshadow="2"
     inkscape:zoom="1.4"
     inkscape:cx="511.18172"
     inkscape:cy="590.52143"
     inkscape:document-units="px"
     inkscape:current-layer="layer1"
     showgrid="true"
     inkscape:snap-global="false"
     inkscape:snap-bbox="false"
     inkscape:window-width="1912"
     inkscape:window-height="1155"
     inkscape:window-x="0"
     inkscape:window-y="220"
     inkscape:window-maximized="0">
    <inkscape:grid
       type="xygrid"
       id="grid2985"
       empspacing="5"
       visible="true"
       enabled="true"
       snapvisiblegridlinesonly="true" />
  </sodipodi:namedview>
  <metadata
     id="metadata7">
    <rdf:RDF>
      <cc:Work
         rdf:about="">
        <dc:format>image/svg+xml</dc:format>
        <dc:type
           rdf:resource="http://purl.org/dc/dcmitype/StillImage" />
        <dc:title></dc:title>
      </cc:Work>
    </rdf:RDF>
  </metadata>
  <g
     inkscape:label="Layer 1"
     inkscape:groupmode="layer"
     id="layer1">
    <g
       transform="translate(70,480)"
       id="g6192">
      <path
         sodipodi:type="arc"
         style="fill:#268bd2;fill-opacity:1;stroke:none"
         id="path4057-8"
         sodipodi:cx="225"
         sodipodi:cy="342.36218"
         sodipodi:rx="5"
         sodipodi:ry="5"
         d="m 230,342.36218 c 0,2.76143 -2.23858,5 -5,5 -2.76142,0 -5,-2.23857 -5,-5 0,-2.76142 2.23858,-5 5,-5 2.76142,0 5,2.23858 5,5 z"
         transform="matrix(1.5,0,0,1.5,-230,-683.68109)" />
      <use
         height="1052.3622"
         width="744.09448"
         transform="translate(35,15)"
         id="use6126"
         xlink:href="#path4057-8"
         y="0"
         x="0" />
      <use
         height="1052.3622"
         width="744.09448"
         transform="translate(10,55)"
         id="use6128"
         xlink:href="#path4057-8"
         y="0"
         x="0" />
      <use
         height="1052.3622"
         width="744.09448"
         transform="translate(60,75)"
         id="use6130"
         xlink:href="#path4057-8"
         y="0"
         x="0" />
      <use
         height="1052.3622"
         width="744.09448"
         transform="translate(135,10)"
         id="use6132"
         xlink:href="#path4057-8"
         y="0"
         x="0" />
      <use
         height="1052.3622"
         width="744.09448"
         transform="translate(125,95)"
         id="use6134"
         xlink:href="#path4057-8"
         y="0"
         x="0" />
      <use
         height="1052.3622"
         width="744.09448"
         transform="translate(265,0)"
         id="use6136"
         xlink:href="#path4057-8"
         y="0"
         x="0" />
      <use
         height="1052.3622"
         width="744.09448"
         transform="translate(230,45)"
         id="use6138"
         xlink:href="#path4057-8"
         y="0"
         x="0" />
      <use
         height="1052.3622"
         width="744.09448"
         transform="translate(285,80)"
         id="use6140"
         xlink:href="#path4057-8"
         y="0"
         x="0" />
      <use
         height="1052.3622"
         width="744.09448"
         transform="translate(45,135)"
         id="use6142"
         xlink:href="#path4057-8"
         y="0"
         x="0" />
      <use
         height="1052.3622"
         width="744.09448"
         transform="translate(0,190)"
         id="use6144"
         xlink:href="#path4057-8"
         y="0"
         x="0" />
      <use
         height="1052.3622"
         width="744.09448"
         transform="translate(90,160)"
         id="use6146"
         xlink:href="#path4057-8"
         y="0"
         x="0" />
      <use
         height="1052.3622"
         width="744.09448"
         transform="translate(145,125)"
         id="use6148"
         xlink:href="#path4057-8"
         y="0"
         x="0" />
      <use
         height="1052.3622"
         width="744.09448"
         transform="translate(110,175)"
         id="use6150"
         xlink:href="#path4057-8"
         y="0"
         x="0" />
      <use
         height="1052.3622"
         width="744.09448"
         transform="translate(210,165)"
         id="use6152"
         xlink:href="#path4057-8"
         y="0"
         x="0" />
      <use
         height="1052.3622"
         width="744.09448"
         transform="translate(160,205)"
         id="use6154"
         xlink:href="#path4057-8"
         y="0"
         x="0" />
      <use
         height="1052.3622"
         width="744.09448"
         transform="translate(185,115)"
         id="use6156"
         xlink:href="#path4057-8"
         y="0"
         x="0" />
      <use
         height="1052.3622"
         width="744.09448"
         transform="translate(250,115)"
         id="use6158"
         xlink:href="#path4057-8"
         y="0"
         x="0" />
      <use
         height="1052.3622"
         width="744.09448"
         transform="translate(240,180)"
         id="use6160"
         xlink:href="#path4057-8"
         y="0"
         x="0" />
      <use
         height="1052.3622"
         width="744.09448"
         transform="translate(315,110)"
         id="use6162"
         xlink:href="#path4057-8"
         y="0"
         x="0" />
      <use
         height="1052.3622"
         width="744.09448"
         transform="translate(290,210)"
         id="use6164"
         xlink:href="#path4057-8"
         y="0"
         x="0" />
      <use
         height="1052.3622"
         width="744.09448"
         transform="translate(305,160)"
         id="use6166"
         xlink:href="#path4057-8"
         y="0"
         x="0" />
      <use
         height="1052.3622"
         width="744.09448"
         transform="translate(175,60)"
         id="use6168"
         xlink:href="#path4057-8"
         y="0"
         x="0" />
      <use
         height="1052.3622"
         width="744.09448"
         transform="translate(-5,240)"
         id="use6170"
         xlink:href="#path4057-8"
         y="0"
         x="0" />
      <use
         height="1052.3622"
         width="744.09448"
         transform="translate(65,230)"
         id="use6172"
         xlink:href="#path4057-8"
         y="0"
         x="0" />
      <use
         height="1052.3622"
         width="744.09448"
         transform="translate(50,305)"
         id="use6174"
         xlink:href="#path4057-8"
         y="0"
         x="0" />
      <use
         height="1052.3622"
         width="744.09448"
         transform="translate(0,330)"
         id="use6176"
         xlink:href="#path4057-8"
         y="0"
         x="0" />
      <use
         height="1052.3622"
         width="744.09448"
         transform="translate(155,235)"
         id="use6178"
         xlink:href="#path4057-8"
         y="0"
         x="0" />
      <use
         height="1052.3622"
         width="744.09448"
         transform="translate(125,300)"
         id="use6180"
         xlink:href="#path4057-8"
         y="0"
         x="0" />
      <use
         height="1052.3622"
         width="744.09448"
         transform="translate(135,255)"
         id="use6182"
         xlink:href="#path4057-8"
         y="0"
         x="0" />
      <use
         height="1052.3622"
         width="744.09448"
         transform="translate(250,250)"
         id="use6184"
         xlink:href="#path4057-8"
         y="0"
         x="0" />
      <use
         height="1052.3622"
         width="744.09448"
         transform="translate(260,340)"
         id="use6186"
         xlink:href="#path4057-8"
         y="0"
         x="0" />
      <use
         height="1052.3622"
         width="744.09448"
         transform="translate(300,260)"
         id="use6188"
         xlink:href="#path4057-8"
         y="0"
         x="0" />
      <use
         height="1052.3622"
         width="744.09448"
         transform="translate(325,320)"
         id="use6190"
         xlink:href="#path4057-8"
         y="0"
         x="0" />
    </g>
    <g
       id="g6053">
      <rect
         y="292.36218"
         x="160"
         height="120"
         width="120"
         id="rect3775"
         style="fill:none;stroke:#000000;stroke-width:4;stroke-linejoin:miter;stroke-miterlimit:4;stroke-opacity:1;stroke-dasharray:none;stroke-dashoffset:1.39999999999999991" />
      <rect
         y="292.36218"
         x="280"
         height="120"
         width="120"
         id="rect3777"
         style="fill:none;stroke:#000000;stroke-width:4;stroke-linejoin:miter;stroke-miterlimit:4;stroke-opacity:1;stroke-dasharray:none;stroke-dashoffset:1.39999999999999991" />
      <rect
         y="292.36218"
         x="400"
         height="120"
         width="120"
         id="rect3779"
         style="fill:none;stroke:#000000;stroke-width:4;stroke-linejoin:miter;stroke-miterlimit:4;stroke-opacity:1;stroke-dasharray:none;stroke-dashoffset:1.39999999999999991" />
      <rect
         y="412.36218"
         x="160"
         height="120"
         width="120"
         id="rect3781"
         style="fill:none;stroke:#000000;stroke-width:4;stroke-linejoin:miter;stroke-miterlimit:4;stroke-opacity:1;stroke-dasharray:none;stroke-dashoffset:1.39999999999999991" />
      <rect
         y="412.36218"
         x="280"
         height="120"
         width="120"
         id="rect3786"
         style="fill:none;stroke:#000000;stroke-width:4;stroke-linejoin:miter;stroke-miterlimit:4;stroke-opacity:1;stroke-dasharray:none;stroke-dashoffset:1.39999999999999991" />
      <rect
         y="412.36218"
         x="400"
         height="120"
         width="120"
         id="rect3788"
         style="fill:none;stroke:#000000;stroke-width:4;stroke-linejoin:miter;stroke-miterlimit:4;stroke-opacity:1;stroke-dasharray:none;stroke-dashoffset:1.39999999999999991" />
      <rect
         y="532.36218"
         x="160"
         height="120"
         width="120"
         id="rect3790"
         style="fill:none;stroke:#000000;stroke-width:4;stroke-linejoin:miter;stroke-miterlimit:4;stroke-opacity:1;stroke-dasharray:none;stroke-dashoffset:1.39999999999999991" />
      <rect
         y="532.36218"
         x="280"
         height="120"
         width="120"
         id="rect3795"
         style="fill:none;stroke:#000000;stroke-width:4;stroke-linejoin:miter;stroke-miterlimit:4;stroke-opacity:1;stroke-dasharray:none;stroke-dashoffset:1.39999999999999991" />
      <rect
         y="532.36218"
         x="400"
         height="120"
         width="120"
         id="rect3797"
         style="fill:none;stroke:#000000;stroke-width:4;stroke-linejoin:miter;stroke-miterlimit:4;stroke-opacity:1;stroke-dasharray:none;stroke-dashoffset:1.39999999999999991" />
    </g>
    <g
       id="g3829">
      <path
         inkscape:connector-curvature="0"
         id="path3799"
         d="m 160,292.36218 0,-40"
         style="fill:none;stroke:#000000;stroke-width:4;stroke-linecap:butt;stroke-linejoin:miter;stroke-opacity:1;stroke-miterlimit:4;stroke-dasharray:8,4;stroke-dashoffset:0" />
      <path
         inkscape:connector-curvature="0"
         id="path3801"
         d="m 120,292.36218 40,0"
         style="fill:none;stroke:#000000;stroke-width:4;stroke-linecap:butt;stroke-linejoin:miter;stroke-opacity:1;stroke-miterlimit:4;stroke-dasharray:8,4;stroke-dashoffset:0" />
      <path
         inkscape:connector-curvature="0"
         id="path3803"
         d="m 280,292.36218 0,-40"
         style="fill:none;stroke:#000000;stroke-width:4;stroke-linecap:butt;stroke-linejoin:miter;stroke-opacity:1;stroke-miterlimit:4;stroke-dasharray:8,4;stroke-dashoffset:0" />
      <path
         inkscape:connector-curvature="0"
         id="path3805"
         d="m 400,292.36218 0,-40"
         style="fill:none;stroke:#000000;stroke-width:4;stroke-linecap:butt;stroke-linejoin:miter;stroke-opacity:1;stroke-miterlimit:4;stroke-dasharray:8,4;stroke-dashoffset:0" />
      <path
         inkscape:connector-curvature="0"
         id="path3807"
         d="m 520,252.36218 0,40 40,0"
         style="fill:none;stroke:#000000;stroke-width:4;stroke-linecap:butt;stroke-linejoin:miter;stroke-opacity:1;stroke-miterlimit:4;stroke-dasharray:8,4;stroke-dashoffset:0" />
      <path
         inkscape:connector-curvature="0"
         id="path3809"
         d="m 520,412.36218 40,0"
         style="fill:none;stroke:#000000;stroke-width:4;stroke-linecap:butt;stroke-linejoin:miter;stroke-opacity:1;stroke-miterlimit:4;stroke-dasharray:8,4;stroke-dashoffset:0" />
      <path
         inkscape:connector-curvature="0"
         id="path3811"
         d="m 520,532.36218 40,0"
         style="fill:none;stroke:#000000;stroke-width:4;stroke-linecap:butt;stroke-linejoin:miter;stroke-opacity:1;stroke-miterlimit:4;stroke-dasharray:8,4;stroke-dashoffset:0" />
      <path
         inkscape:connector-curvature="0"
         id="path3815"
         d="m 560,652.36218 -40,0 0,40"
         style="fill:none;stroke:#000000;stroke-width:4;stroke-linecap:butt;stroke-linejoin:miter;stroke-opacity:1;stroke-miterlimit:4;stroke-dasharray:8,4;stroke-dashoffset:0" />
      <path
         inkscape:connector-curvature="0"
         id="path3817"
         d="m 400,652.36218 0,40"
         style="fill:none;stroke:#000000;stroke-width:4;stroke-linecap:butt;stroke-linejoin:miter;stroke-opacity:1;stroke-miterlimit:4;stroke-dasharray:8,4;stroke-dashoffset:0" />
      <path
         inkscape:connector-curvature="0"
         id="path3819"
         d="m 280,652.36218 0,40"
         style="fill:none;stroke:#000000;stroke-width:4;stroke-linecap:butt;stroke-linejoin:miter;stroke-opacity:1;stroke-miterlimit:4;stroke-dasharray:8,4;stroke-dashoffset:0" />
      <path
         inkscape:connector-curvature="0"
         id="path3821"
         d="m 160,652.36218 0,40"
         style="fill:none;stroke:#000000;stroke-width:4;stroke-linecap:butt;stroke-linejoin:miter;stroke-opacity:1;stroke-miterlimit:4;stroke-dasharray:8,4;stroke-dashoffset:0" />
      <path
         inkscape:connector-curvature="0"
         id="path3823"
         d="m 160,652.36218 -40,0"
         style="fill:none;stroke:#000000;stroke-width:4;stroke-linecap:butt;stroke-linejoin:miter;stroke-opacity:1;stroke-miterlimit:4;stroke-dasharray:8,4;stroke-dashoffset:0" />
      <path
         inkscape:connector-curvature="0"
         id="path3825"
         d="m 160,532.36218 -40,0"
         style="fill:none;stroke:#000000;stroke-width:4;stroke-linecap:butt;stroke-linejoin:miter;stroke-opacity:1;stroke-miterlimit:4;stroke-dasharray:8,4;stroke-dashoffset:0" />
      <path
         inkscape:connector-curvature="0"
         id="path3827"
         d="m 160,412.36218 -40,0"
         style="fill:none;stroke:#000000;stroke-width:4;stroke-linecap:butt;stroke-linejoin:miter;stroke-opacity:1;stroke-miterlimit:4;stroke-dasharray:8,4;stroke-dashoffset:0" />
    </g>
    <g
       transform="matrix(-0.96162001,0,0,-1.0685403,0,-9.6558035)"
       style="font-size:139.42640686px;font-style:normal;font-variant:normal;font-weight:normal;font-stretch:normal;text-align:start;line-height:125%;letter-spacing:0px;word-spacing:0px;text-anchor:start;fill:#000000;fill-opacity:1;stroke:none;font-family:Liberation Serif;-inkscape-font-specification:Liberation Serif"
       id="text4053">
      <path
         d="m -599.6768,-281.14132 c -2.95015,-10e-6 -5.53716,-0.47657 -7.76104,-1.42966 -2.22396,-0.90774 -4.0848,-2.24663 -5.58251,-4.01668 -1.45239,-1.72469 -2.56435,-3.81245 -3.33588,-6.2633 -0.72621,-2.45085 -1.0893,-5.21941 -1.08927,-8.30567 l 0,-20.08339 c -3e-5,-2.85931 -0.34042,-5.28747 -1.02119,-7.28449 -0.63543,-1.99696 -1.58854,-3.63086 -2.85933,-4.90171 -1.22545,-1.31616 -2.74589,-2.29197 -4.56131,-2.92741 -1.81547,-0.63537 -3.88054,-0.99846 -6.19522,-1.08927 l 0,-3.06357 c 2.31468,-0.0453 4.37975,-0.38574 6.19522,-1.02118 1.81542,-0.63537 3.33586,-1.58848 4.56131,-2.85934 1.27079,-1.31615 2.2239,-2.97274 2.85933,-4.96978 0.68077,-1.99695 1.02116,-4.40241 1.02119,-7.21641 l 0,-20.01531 c -3e-5,-6.39938 1.47502,-11.32377 4.42515,-14.77321 2.95007,-3.44926 7.39792,-5.17393 13.34355,-5.17403 l 3.80734,0 0,3.07439 -4.08635,0.0367 c -4.13019,9e-5 -7.03105,1.33684 -8.80107,3.83299 -1.72472,2.45094 -2.58702,6.08183 -2.58702,10.89269 l 0,22.46617 c -4e-5,2.26936 -0.34043,4.35712 -1.02119,6.26329 -0.63544,1.90627 -1.54316,3.60825 -2.72317,5.10595 -1.13469,1.4524 -2.51897,2.67783 -4.15284,3.67628 -1.58854,0.95315 -3.31322,1.63394 -5.17402,2.04238 l 0,0.20424 c 1.95158,0.4539 3.72164,1.18008 5.31018,2.17854 1.58849,0.95314 2.95007,2.17857 4.08476,3.67628 1.18001,1.45239 2.08773,3.13168 2.72317,5.03787 0.63537,1.90624 0.95307,4.0167 0.95311,6.33137 l 0,22.73849 c 0,4.81093 0.8623,8.44182 2.58702,10.89269 1.77002,2.49622 4.76989,3.74409 8.89955,3.80344 l 3.98787,0.0573 0,3.08332 -3.80734,0"
         id="path6448"
         inkscape:connector-curvature="0"
         sodipodi:nodetypes="ccccssccccccccssccccccsccccccccccscsccc" />
    </g>
    <text
       xml:space="preserve"
       style="font-size:15px;font-style:normal;font-variant:normal;font-weight:normal;font-stretch:normal;text-align:start;line-height:125%;letter-spacing:0px;word-spacing:0px;text-anchor:start;fill:#000000;fill-opacity:1;stroke:none;font-family:Liberation Serif;-inkscape-font-specification:Liberation Serif"
       x="620"
       y="362.36218"
       id="text6414"
       sodipodi:linespacing="125%"><tspan
         sodipodi:role="line"
         id="tspan6416"
         x="620"
         y="362.36218"
         style="font-size:36px">$r_\text{cutoff}$</tspan></text>
  </g>
</svg>
