<?xml version="1.0" encoding="utf-8" standalone="no"?>
<!DOCTYPE svg PUBLIC "-//W3C//DTD SVG 1.1//EN"
  "http://www.w3.org/Graphics/SVG/1.1/DTD/svg11.dtd">
<!-- Created with matplotlib (http://matplotlib.org/) -->
<svg height="659pt" version="1.1" viewBox="0 0 514 659" width="514pt" xmlns="http://www.w3.org/2000/svg" xmlns:xlink="http://www.w3.org/1999/xlink">
 <defs>
  <style type="text/css">
*{stroke-linecap:butt;stroke-linejoin:round;}
  </style>
 </defs>
 <g id="figure_1">
  <g id="patch_1">
   <path d="
M0 659.056
L514.179 659.056
L514.179 0
L0 0
z
" style="fill:#ffffff;"/>
  </g>
  <g id="axes_1">
   <g id="patch_2">
    <path d="
M60.5794 583.2
L283.779 583.2
L283.779 439.2
L60.5794 439.2
z
" style="fill:#ffffff;"/>
   </g>
   <g id="line2d_1">
    <path clip-path="url(#pdb6e15b78b)" d="
M73.7088 583.2
L113.097 583.2
L114.41 582.545
L115.723 582.545
L117.036 583.2
L118.349 582.545
L124.913 582.545
L126.226 581.891
L127.539 582.545
L128.852 581.891
L131.478 581.891
L132.791 581.236
L134.104 581.891
L135.417 581.236
L136.73 581.236
L138.043 580.582
L141.982 580.582
L143.295 579.273
L144.608 579.273
L145.921 578.618
L147.233 577.309
L148.546 577.964
L149.859 577.964
L151.172 576
L152.485 576
L153.798 575.345
L156.424 575.345
L157.737 573.382
L159.05 573.382
L161.676 570.764
L165.615 568.8
L166.928 567.491
L169.553 563.564
L170.866 564.218
L172.179 560.945
L173.492 562.255
L174.805 558.327
L176.118 557.018
L177.431 554.4
L178.744 553.745
L180.057 549.164
L181.37 548.509
L183.996 543.273
L185.309 541.309
L187.935 533.455
L189.248 530.182
L190.561 528.218
L191.873 523.636
L193.186 517.091
L194.499 513.164
L195.812 507.273
L197.125 502.691
L198.438 496.145
L199.751 492.873
L201.064 480.436
L202.377 475.855
L203.69 472.582
L205.003 471.273
L206.316 466.036
L207.629 462.764
L208.942 462.764
L210.255 464.727
L211.568 464.073
L212.881 467.345
L214.193 468
L216.819 464.073
L218.132 459.491
L219.445 463.418
L220.758 458.836
L222.071 460.145
L223.384 460.8
L224.697 458.182
L226.01 458.836
L228.636 457.527
L229.949 454.255
L232.575 456.873
L233.888 454.255
L235.201 456.218
L236.513 455.564
L237.826 459.491
L239.139 456.218
L240.452 458.182
L241.765 464.073
L243.078 465.382
L244.391 469.309
L245.704 471.927
L248.33 482.4
L249.643 481.745
L250.956 492.218
L252.269 494.182
L253.582 503.345
L254.895 508.582
L256.208 515.782
L257.521 521.018
L258.833 530.836
L260.146 538.036
L261.459 543.927
L262.772 551.127
L265.398 564.218
L266.711 571.418
L269.337 581.891
L269.337 581.891" style="fill:none;stroke:#0000ff;stroke-linecap:square;"/>
   </g>
   <g id="line2d_2">
    <path clip-path="url(#pdb6e15b78b)" d="
M73.7088 583.2
L93.4029 583.2
L94.7158 582.545
L99.9676 582.545
L101.281 583.2
L102.593 582.545
L111.784 582.545
L113.097 581.891
L114.41 581.891
L115.723 582.545
L117.036 581.891
L118.349 581.891
L119.662 581.236
L120.975 581.891
L122.288 581.236
L126.226 581.236
L127.539 580.582
L130.165 580.582
L132.791 579.273
L135.417 579.273
L136.73 578.618
L139.356 578.618
L140.669 577.964
L141.982 576.655
L143.295 576
L144.608 576.655
L147.233 575.345
L148.546 574.036
L149.859 574.036
L151.172 572.727
L152.485 572.727
L153.798 571.418
L155.111 570.764
L156.424 569.455
L157.737 568.8
L159.05 567.491
L160.363 567.491
L161.676 566.182
L162.989 564.218
L164.302 563.564
L165.615 563.564
L166.928 560.945
L168.241 560.945
L170.866 558.327
L172.179 553.745
L173.492 554.4
L176.118 549.164
L177.431 547.2
L178.744 546.545
L180.057 544.582
L181.37 540
L182.683 538.691
L183.996 538.036
L185.309 534.109
L186.622 530.836
L187.935 525.6
L189.248 522.982
L190.561 519.709
L191.873 512.509
L194.499 507.273
L195.812 500.727
L197.125 497.455
L201.064 479.782
L202.377 481.091
L203.69 471.927
L205.003 468.655
L206.316 469.309
L207.629 466.036
L208.942 471.927
L210.255 472.582
L211.568 469.309
L212.881 473.236
L214.193 470.618
L215.506 471.927
L216.819 473.891
L218.132 469.309
L219.445 469.964
L220.758 469.964
L222.071 467.345
L223.384 466.036
L224.697 466.036
L226.01 464.073
L227.323 466.036
L228.636 463.418
L229.949 463.418
L231.262 462.764
L233.888 464.073
L235.201 464.073
L236.513 464.727
L237.826 464.727
L239.139 466.691
L240.452 471.273
L241.765 472.582
L243.078 471.927
L244.391 477.164
L245.704 480.436
L247.017 481.745
L248.33 489.6
L249.643 491.564
L250.956 499.418
L252.269 502.036
L253.582 509.236
L254.895 511.855
L256.208 519.055
L257.521 526.909
L258.833 531.491
L261.459 545.891
L262.772 553.745
L264.085 558.327
L265.398 565.527
L266.711 571.418
L269.337 581.891
L269.337 581.891" style="fill:none;stroke:#008000;stroke-linecap:square;"/>
   </g>
   <g id="matplotlib.axis_1">
    <g id="xtick_1">
     <g id="line2d_3">
      <defs>
       <path d="
M0 0
L0 -4" id="m93b0483c22" style="stroke:#000000;stroke-width:0.5;"/>
      </defs>
      <g>
       <use style="stroke:#000000;stroke-width:0.5;" x="73.7087867647" xlink:href="#m93b0483c22" y="583.2"/>
      </g>
     </g>
     <g id="line2d_4">
      <defs>
       <path d="
M0 0
L0 4" id="m741efc42ff" style="stroke:#000000;stroke-width:0.5;"/>
      </defs>
      <g>
       <use style="stroke:#000000;stroke-width:0.5;" x="73.7087867647" xlink:href="#m741efc42ff" y="439.2"/>
      </g>
     </g>
     <g id="text_1">
      <text style="font-family:DejaVu Sans;font-size:12.0px;font-style:normal;text-anchor:middle;" transform="rotate(-0.000000, 73.708787, 596.318125)" x="73.7087867647" y="596.318125">−0.5</text>
     </g>
    </g>
    <g id="xtick_2">
     <g id="line2d_5">
      <g>
       <use style="stroke:#000000;stroke-width:0.5;" x="139.355845588" xlink:href="#m93b0483c22" y="583.2"/>
      </g>
     </g>
     <g id="line2d_6">
      <g>
       <use style="stroke:#000000;stroke-width:0.5;" x="139.355845588" xlink:href="#m741efc42ff" y="439.2"/>
      </g>
     </g>
     <g id="text_2">
      <text style="font-family:DejaVu Sans;font-size:12.0px;font-style:normal;text-anchor:middle;" transform="rotate(-0.000000, 139.355846, 596.318125)" x="139.355845588" y="596.318125">0.0</text>
     </g>
    </g>
    <g id="xtick_3">
     <g id="line2d_7">
      <g>
       <use style="stroke:#000000;stroke-width:0.5;" x="205.002904412" xlink:href="#m93b0483c22" y="583.2"/>
      </g>
     </g>
     <g id="line2d_8">
      <g>
       <use style="stroke:#000000;stroke-width:0.5;" x="205.002904412" xlink:href="#m741efc42ff" y="439.2"/>
      </g>
     </g>
     <g id="text_3">
      <text style="font-family:DejaVu Sans;font-size:12.0px;font-style:normal;text-anchor:middle;" transform="rotate(-0.000000, 205.002904, 596.318125)" x="205.002904412" y="596.318125">0.5</text>
     </g>
    </g>
    <g id="xtick_4">
     <g id="line2d_9">
      <g>
       <use style="stroke:#000000;stroke-width:0.5;" x="270.649963235" xlink:href="#m93b0483c22" y="583.2"/>
      </g>
     </g>
     <g id="line2d_10">
      <g>
       <use style="stroke:#000000;stroke-width:0.5;" x="270.649963235" xlink:href="#m741efc42ff" y="439.2"/>
      </g>
     </g>
     <g id="text_4">
      <text style="font-family:DejaVu Sans;font-size:12.0px;font-style:normal;text-anchor:middle;" transform="rotate(-0.000000, 270.649963, 596.318125)" x="270.649963235" y="596.318125">1.0</text>
     </g>
    </g>
    <g id="text_5">
     <text style="font-family:DejaVu Sans;font-size:12.0px;font-style:normal;text-anchor:middle;" transform="rotate(-0.000000, 172.179375, 612.931875)" x="172.179375" y="612.931875">Q</text>
    </g>
   </g>
   <g id="matplotlib.axis_2">
    <g id="ytick_1">
     <g id="line2d_11">
      <defs>
       <path d="
M0 0
L4 0" id="m728421d6d4" style="stroke:#000000;stroke-width:0.5;"/>
      </defs>
      <g>
       <use style="stroke:#000000;stroke-width:0.5;" x="60.579375" xlink:href="#m728421d6d4" y="550.472727273"/>
      </g>
     </g>
     <g id="line2d_12">
      <defs>
       <path d="
M0 0
L-4 0" id="mcb0005524f" style="stroke:#000000;stroke-width:0.5;"/>
      </defs>
      <g>
       <use style="stroke:#000000;stroke-width:0.5;" x="283.779375" xlink:href="#mcb0005524f" y="550.472727273"/>
      </g>
     </g>
     <g id="text_6">
      <text style="font-family:DejaVu Sans;font-size:12.0px;font-style:normal;text-anchor:end;" transform="rotate(-0.000000, 56.579375, 553.783977)" x="56.579375" y="553.783977273">0.005</text>
     </g>
    </g>
    <g id="ytick_2">
     <g id="line2d_13">
      <g>
       <use style="stroke:#000000;stroke-width:0.5;" x="60.579375" xlink:href="#m728421d6d4" y="517.745454545"/>
      </g>
     </g>
     <g id="line2d_14">
      <g>
       <use style="stroke:#000000;stroke-width:0.5;" x="283.779375" xlink:href="#mcb0005524f" y="517.745454545"/>
      </g>
     </g>
     <g id="text_7">
      <text style="font-family:DejaVu Sans;font-size:12.0px;font-style:normal;text-anchor:end;" transform="rotate(-0.000000, 56.579375, 521.056705)" x="56.579375" y="521.056704545">0.010</text>
     </g>
    </g>
    <g id="ytick_3">
     <g id="line2d_15">
      <g>
       <use style="stroke:#000000;stroke-width:0.5;" x="60.579375" xlink:href="#m728421d6d4" y="485.018181818"/>
      </g>
     </g>
     <g id="line2d_16">
      <g>
       <use style="stroke:#000000;stroke-width:0.5;" x="283.779375" xlink:href="#mcb0005524f" y="485.018181818"/>
      </g>
     </g>
     <g id="text_8">
      <text style="font-family:DejaVu Sans;font-size:12.0px;font-style:normal;text-anchor:end;" transform="rotate(-0.000000, 56.579375, 488.329432)" x="56.579375" y="488.329431818">0.015</text>
     </g>
    </g>
    <g id="ytick_4">
     <g id="line2d_17">
      <g>
       <use style="stroke:#000000;stroke-width:0.5;" x="60.579375" xlink:href="#m728421d6d4" y="452.290909091"/>
      </g>
     </g>
     <g id="line2d_18">
      <g>
       <use style="stroke:#000000;stroke-width:0.5;" x="283.779375" xlink:href="#mcb0005524f" y="452.290909091"/>
      </g>
     </g>
     <g id="text_9">
      <text style="font-family:DejaVu Sans;font-size:12.0px;font-style:normal;text-anchor:end;" transform="rotate(-0.000000, 56.579375, 455.602159)" x="56.579375" y="455.602159091">0.020</text>
     </g>
    </g>
   </g>
   <g id="patch_3">
    <path d="
M60.5794 439.2
L283.779 439.2" style="fill:none;stroke:#000000;"/>
   </g>
   <g id="patch_4">
    <path d="
M283.779 583.2
L283.779 439.2" style="fill:none;stroke:#000000;"/>
   </g>
   <g id="patch_5">
    <path d="
M60.5794 583.2
L283.779 583.2" style="fill:none;stroke:#000000;"/>
   </g>
   <g id="patch_6">
    <path d="
M60.5794 583.2
L60.5794 439.2" style="fill:none;stroke:#000000;"/>
   </g>
   <g id="text_10">
    <text style="font-family:DejaVu Sans;font-size:12.0px;font-style:normal;text-anchor:start;" transform="rotate(-0.000000, 71.739375, 456.480000)" x="71.739375" y="456.48">$r = 6.5$ \AA</text>
   </g>
   <g id="text_11">
    <text style="font-family:DejaVu Sans;font-size:12.0px;font-style:normal;text-anchor:start;" transform="rotate(-0.000000, 71.739375, 456.480000)" x="71.739375" y="456.48">$r = 6.5$ \AA</text>
   </g>
  </g>
  <g id="axes_2">
   <g id="patch_7">
    <path d="
M60.5794 151.2
L283.779 151.2
L283.779 7.2
L60.5794 7.2
z
" style="fill:#ffffff;"/>
   </g>
   <g id="line2d_19">
    <path clip-path="url(#pc998595b23)" d="
M73.7088 138.109
L75.0217 138.109
L77.6476 135.491
L80.2735 135.491
L81.5864 134.182
L84.2123 132.873
L85.5253 133.527
L86.8382 132.218
L88.1511 131.564
L89.4641 131.564
L90.777 129.6
L92.09 129.6
L93.4029 128.945
L94.7158 128.945
L96.0288 126.327
L97.3417 125.018
L99.9676 123.709
L101.281 121.745
L102.593 121.745
L103.906 121.091
L106.532 117.164
L107.845 115.855
L109.158 116.509
L110.471 113.891
L111.784 111.927
L113.097 112.582
L114.41 110.618
L115.723 110.618
L117.036 108.655
L118.349 105.382
L120.975 104.073
L122.288 102.109
L123.601 102.109
L124.913 98.1818
L126.226 97.5273
L127.539 92.9455
L128.852 94.9091
L130.165 94.2545
L131.478 92.9455
L132.791 89.0182
L134.104 89.6727
L135.417 87.0545
L136.73 85.0909
L138.043 86.4
L139.356 85.7455
L140.669 83.1273
L141.982 82.4727
L143.295 77.8909
L144.608 75.9273
L145.921 77.8909
L147.233 77.8909
L148.546 75.2727
L151.172 75.2727
L152.485 78.5455
L153.798 75.2727
L155.111 70.6909
L156.424 71.3455
L157.737 70.6909
L159.05 68.7273
L160.363 70.6909
L161.676 71.3455
L162.989 68.0727
L164.302 68.0727
L165.615 64.8
L166.928 64.8
L168.241 63.4909
L169.553 62.8364
L170.866 65.4545
L172.179 61.5273
L173.492 60.8727
L174.805 62.8364
L176.118 60.8727
L177.431 60.8727
L178.744 61.5273
L180.057 60.8727
L181.37 61.5273
L182.683 61.5273
L183.996 62.1818
L185.309 60.2182
L186.622 65.4545
L187.935 63.4909
L189.248 65.4545
L190.561 65.4545
L191.873 66.7636
L193.186 69.3818
L194.499 69.3818
L198.438 75.2727
L199.751 81.8182
L201.064 81.8182
L202.377 83.7818
L203.69 89.0182
L205.003 92.2909
L206.316 94.9091
L207.629 98.1818
L208.942 104.073
L210.255 108.655
L211.568 110.618
L212.881 115.2
L214.193 115.855
L215.506 118.473
L216.819 123.055
L220.758 126.982
L222.071 129.6
L223.384 131.564
L224.697 130.255
L226.01 134.182
L227.323 134.836
L228.636 136.145
L229.949 136.8
L231.262 140.073
L232.575 140.727
L233.888 142.036
L241.765 145.964
L243.078 145.964
L247.017 147.927
L250.956 147.927
L253.582 149.236
L254.895 149.236
L256.208 149.891
L257.521 149.891
L258.833 150.545
L264.085 150.545
L265.398 151.2
L269.337 151.2
L269.337 151.2" style="fill:none;stroke:#0000ff;stroke-linecap:square;"/>
   </g>
   <g id="line2d_20">
    <path clip-path="url(#pc998595b23)" d="
M73.7088 130.255
L75.0217 130.255
L76.3347 128.291
L77.6476 128.945
L78.9606 128.291
L80.2735 126.982
L82.8994 126.982
L84.2123 125.673
L86.8382 124.364
L88.1511 123.055
L89.4641 122.4
L90.777 121.091
L92.09 121.745
L93.4029 121.091
L94.7158 119.127
L96.0288 117.818
L97.3417 117.818
L98.6547 115.855
L102.593 113.891
L103.906 112.582
L105.219 112.582
L107.845 109.964
L109.158 108
L110.471 106.691
L115.723 104.073
L117.036 101.455
L118.349 101.455
L119.662 97.5273
L120.975 96.8727
L122.288 94.9091
L123.601 94.2545
L124.913 94.9091
L126.226 93.6
L127.539 92.9455
L128.852 91.6364
L130.165 90.9818
L131.478 89.0182
L134.104 86.4
L135.417 86.4
L136.73 85.0909
L138.043 85.0909
L139.356 83.7818
L140.669 81.1636
L143.295 81.1636
L144.608 79.2
L148.546 77.2364
L149.859 77.2364
L151.172 74.6182
L152.485 75.9273
L153.798 73.9636
L156.424 72.6545
L157.737 71.3455
L159.05 73.3091
L160.363 73.3091
L161.676 70.6909
L162.989 72
L164.302 72
L165.615 70.0364
L166.928 70.0364
L170.866 68.0727
L173.492 68.0727
L174.805 68.7273
L176.118 67.4182
L177.431 70.0364
L178.744 68.7273
L180.057 70.0364
L181.37 70.6909
L182.683 69.3818
L183.996 69.3818
L186.622 70.6909
L187.935 72.6545
L189.248 71.3455
L190.561 71.3455
L191.873 75.2727
L193.186 77.2364
L194.499 78.5455
L195.812 79.2
L197.125 81.1636
L198.438 83.7818
L199.751 85.7455
L201.064 89.0182
L202.377 93.6
L203.69 95.5636
L205.003 98.8364
L206.316 101.455
L207.629 106.036
L208.942 109.309
L210.255 113.236
L211.568 118.473
L212.881 119.782
L214.193 123.055
L215.506 125.018
L218.132 127.636
L219.445 129.6
L224.697 134.836
L226.01 135.491
L227.323 137.455
L229.949 138.764
L231.262 140.073
L232.575 140.727
L233.888 142.691
L235.201 142.691
L239.139 144.655
L240.452 144.655
L241.765 145.964
L243.078 145.964
L245.704 147.273
L247.017 147.273
L249.643 148.582
L252.269 148.582
L253.582 149.236
L254.895 149.236
L256.208 149.891
L258.833 149.891
L260.146 150.545
L264.085 150.545
L265.398 151.2
L269.337 151.2
L269.337 151.2" style="fill:none;stroke:#008000;stroke-linecap:square;"/>
   </g>
   <g id="matplotlib.axis_3">
    <g id="xtick_5">
     <g id="line2d_21">
      <g>
       <use style="stroke:#000000;stroke-width:0.5;" x="73.7087867647" xlink:href="#m93b0483c22" y="151.2"/>
      </g>
     </g>
     <g id="line2d_22">
      <g>
       <use style="stroke:#000000;stroke-width:0.5;" x="73.7087867647" xlink:href="#m741efc42ff" y="7.2"/>
      </g>
     </g>
    </g>
    <g id="xtick_6">
     <g id="line2d_23">
      <g>
       <use style="stroke:#000000;stroke-width:0.5;" x="139.355845588" xlink:href="#m93b0483c22" y="151.2"/>
      </g>
     </g>
     <g id="line2d_24">
      <g>
       <use style="stroke:#000000;stroke-width:0.5;" x="139.355845588" xlink:href="#m741efc42ff" y="7.2"/>
      </g>
     </g>
    </g>
    <g id="xtick_7">
     <g id="line2d_25">
      <g>
       <use style="stroke:#000000;stroke-width:0.5;" x="205.002904412" xlink:href="#m93b0483c22" y="151.2"/>
      </g>
     </g>
     <g id="line2d_26">
      <g>
       <use style="stroke:#000000;stroke-width:0.5;" x="205.002904412" xlink:href="#m741efc42ff" y="7.2"/>
      </g>
     </g>
    </g>
    <g id="xtick_8">
     <g id="line2d_27">
      <g>
       <use style="stroke:#000000;stroke-width:0.5;" x="270.649963235" xlink:href="#m93b0483c22" y="151.2"/>
      </g>
     </g>
     <g id="line2d_28">
      <g>
       <use style="stroke:#000000;stroke-width:0.5;" x="270.649963235" xlink:href="#m741efc42ff" y="7.2"/>
      </g>
     </g>
    </g>
   </g>
   <g id="matplotlib.axis_4">
    <g id="ytick_5">
     <g id="line2d_29">
      <g>
       <use style="stroke:#000000;stroke-width:0.5;" x="60.579375" xlink:href="#m728421d6d4" y="118.472727273"/>
      </g>
     </g>
     <g id="line2d_30">
      <g>
       <use style="stroke:#000000;stroke-width:0.5;" x="283.779375" xlink:href="#mcb0005524f" y="118.472727273"/>
      </g>
     </g>
     <g id="text_12">
      <text style="font-family:DejaVu Sans;font-size:12.0px;font-style:normal;text-anchor:end;" transform="rotate(-0.000000, 56.579375, 121.783977)" x="56.579375" y="121.783977273">0.005</text>
     </g>
    </g>
    <g id="ytick_6">
     <g id="line2d_31">
      <g>
       <use style="stroke:#000000;stroke-width:0.5;" x="60.579375" xlink:href="#m728421d6d4" y="85.7454545455"/>
      </g>
     </g>
     <g id="line2d_32">
      <g>
       <use style="stroke:#000000;stroke-width:0.5;" x="283.779375" xlink:href="#mcb0005524f" y="85.7454545455"/>
      </g>
     </g>
     <g id="text_13">
      <text style="font-family:DejaVu Sans;font-size:12.0px;font-style:normal;text-anchor:end;" transform="rotate(-0.000000, 56.579375, 89.056705)" x="56.579375" y="89.0567045455">0.010</text>
     </g>
    </g>
    <g id="ytick_7">
     <g id="line2d_33">
      <g>
       <use style="stroke:#000000;stroke-width:0.5;" x="60.579375" xlink:href="#m728421d6d4" y="53.0181818182"/>
      </g>
     </g>
     <g id="line2d_34">
      <g>
       <use style="stroke:#000000;stroke-width:0.5;" x="283.779375" xlink:href="#mcb0005524f" y="53.0181818182"/>
      </g>
     </g>
     <g id="text_14">
      <text style="font-family:DejaVu Sans;font-size:12.0px;font-style:normal;text-anchor:end;" transform="rotate(-0.000000, 56.579375, 56.329432)" x="56.579375" y="56.3294318182">0.015</text>
     </g>
    </g>
    <g id="ytick_8">
     <g id="line2d_35">
      <g>
       <use style="stroke:#000000;stroke-width:0.5;" x="60.579375" xlink:href="#m728421d6d4" y="20.2909090909"/>
      </g>
     </g>
     <g id="line2d_36">
      <g>
       <use style="stroke:#000000;stroke-width:0.5;" x="283.779375" xlink:href="#mcb0005524f" y="20.2909090909"/>
      </g>
     </g>
     <g id="text_15">
      <text style="font-family:DejaVu Sans;font-size:12.0px;font-style:normal;text-anchor:end;" transform="rotate(-0.000000, 56.579375, 23.602159)" x="56.579375" y="23.6021590909">0.020</text>
     </g>
    </g>
   </g>
   <g id="patch_8">
    <path d="
M60.5794 7.2
L283.779 7.2" style="fill:none;stroke:#000000;"/>
   </g>
   <g id="patch_9">
    <path d="
M283.779 151.2
L283.779 7.2" style="fill:none;stroke:#000000;"/>
   </g>
   <g id="patch_10">
    <path d="
M60.5794 151.2
L283.779 151.2" style="fill:none;stroke:#000000;"/>
   </g>
   <g id="patch_11">
    <path d="
M60.5794 151.2
L60.5794 7.2" style="fill:none;stroke:#000000;"/>
   </g>
   <g id="text_16">
    <text style="font-family:DejaVu Sans;font-size:12.0px;font-style:normal;text-anchor:start;" transform="rotate(-0.000000, 71.739375, 24.480000)" x="71.739375" y="24.48">$r = 2.0$ \AA</text>
   </g>
   <g id="text_17">
    <text style="font-family:DejaVu Sans;font-size:12.0px;font-style:normal;text-anchor:start;" transform="rotate(-0.000000, 71.739375, 24.480000)" x="71.739375" y="24.48">$r = 2.0$ \AA</text>
   </g>
   <g id="legend_1">
    <g id="patch_12">
     <path d="
M306.534 651.856
L515.179 651.856
M515.179 626.4
L306.534 626.4
L306.534 651.856
L306.534 651.856" style="fill:none;opacity:0.0;"/>
    </g>
    <g id="line2d_37">
     <path d="
M316.614 638.062
L336.774 638.062" style="fill:none;stroke:#0000ff;stroke-linecap:square;"/>
    </g>
    <g id="line2d_38"/>
    <g id="text_18">
     <text style="font-family:DejaVu Sans;font-size:14.4px;font-style:normal;text-anchor:start;" transform="rotate(-0.000000, 352.613625, 643.101750)" x="352.613625" y="643.10175">{\footnotesize System \#0}</text>
    </g>
   </g>
   <g id="legend_2">
    <g id="patch_13">
     <path d="
M133.734 651.856
L384.579 651.856
L384.579 626.4
L133.734 626.4
L133.734 651.856
z
" style="fill:none;opacity:0.0;"/>
    </g>
    <g id="line2d_39">
     <path d="
M143.814 638.062
L163.974 638.062" style="fill:none;stroke:#008000;stroke-linecap:square;"/>
    </g>
    <g id="line2d_40"/>
    <g id="text_19">
     <text style="font-family:DejaVu Sans;font-size:14.4px;font-style:normal;text-anchor:start;" transform="rotate(-0.000000, 179.813625, 643.101750)" x="179.813625" y="643.10175">{\footnotesize System \#1}</text>
    </g>
   </g>
  </g>
  <g id="axes_3">
   <g id="patch_14">
    <path d="
M283.779 151.2
L506.979 151.2
L506.979 7.2
L283.779 7.2
z
" style="fill:#ffffff;"/>
   </g>
   <g id="line2d_41">
    <path clip-path="url(#p85849c3a5f)" d="
M296.909 127.636
L298.222 128.945
L299.535 132.218
L300.848 129.6
L302.161 125.673
L303.473 129.6
L304.786 125.018
L306.099 121.091
L307.412 129.6
L308.725 126.327
L310.038 119.782
L311.351 129.6
L312.664 125.018
L313.977 122.4
L315.29 121.091
L316.603 115.855
L317.916 126.327
L319.229 122.4
L320.542 110.618
L321.855 115.855
L323.168 106.036
L324.481 122.4
L325.793 113.891
L327.106 110.618
L328.419 110.618
L329.732 104.727
L331.045 104.073
L332.358 113.236
L333.671 102.109
L334.984 101.455
L336.297 104.727
L337.61 99.4909
L338.923 109.309
L340.236 106.691
L341.549 94.2545
L342.862 100.8
L344.175 100.145
L345.488 98.1818
L346.801 92.9455
L348.113 98.1818
L349.426 83.7818
L350.739 89.6727
L352.052 83.7818
L353.365 82.4727
L354.678 90.3273
L355.991 89.6727
L357.304 85.0909
L358.617 77.2364
L359.93 72.6545
L361.243 89.0182
L362.556 86.4
L363.869 78.5455
L365.182 77.2364
L366.495 79.2
L367.808 75.9273
L369.121 71.3455
L370.433 83.1273
L371.746 68.7273
L373.059 45.8182
L374.372 70.6909
L375.685 72.6545
L376.998 60.2182
L378.311 72.6545
L379.624 70.0364
L380.937 62.1818
L382.25 68.0727
L383.563 62.1818
L384.876 57.6
L386.189 77.2364
L387.502 71.3455
L388.815 67.4182
L391.441 63.4909
L392.753 71.3455
L394.066 60.2182
L395.379 73.9636
L396.692 62.1818
L398.005 58.9091
L399.318 74.6182
L400.631 71.3455
L401.944 70.6909
L403.257 71.3455
L404.57 88.3636
L405.883 62.8364
L408.509 70.6909
L409.822 83.7818
L411.135 73.3091
L412.448 81.1636
L413.761 83.7818
L415.073 89.0182
L416.386 81.8182
L417.699 93.6
L419.012 96.2182
L420.325 79.8545
L421.638 90.9818
L422.951 87.0545
L424.264 92.2909
L425.577 94.9091
L426.89 102.109
L428.203 102.764
L429.516 106.036
L430.829 103.418
L432.142 108
L433.455 117.818
L434.768 119.782
L436.081 118.473
L437.393 119.127
L438.706 128.291
L440.019 122.4
L441.332 130.255
L442.645 131.564
L443.958 128.945
L445.271 134.836
L447.897 141.382
L449.21 139.418
L450.523 139.418
L451.836 144
L453.149 143.345
L454.462 138.764
L455.775 142.691
L457.088 145.964
L458.401 148.582
L459.713 147.927
L461.026 145.309
L462.339 145.309
L463.652 145.964
L464.965 147.927
L466.278 148.582
L467.591 145.309
L468.904 149.236
L470.217 148.582
L471.53 147.273
L474.156 149.891
L475.469 147.927
L476.782 149.891
L478.095 149.236
L479.408 150.545
L480.721 151.2
L482.033 150.545
L485.972 150.545
L487.285 151.2
L492.537 151.2
L492.537 151.2" style="fill:none;stroke:#0000ff;stroke-linecap:square;"/>
   </g>
   <g id="line2d_42">
    <path clip-path="url(#p85849c3a5f)" d="
M296.909 124.364
L298.222 128.291
L299.535 120.436
L300.848 125.018
L302.161 123.709
L303.473 117.818
L304.786 119.127
L306.099 112.582
L307.412 117.164
L308.725 116.509
L310.038 113.891
L311.351 118.473
L312.664 106.036
L313.977 111.927
L315.29 121.091
L316.603 114.545
L317.916 110.618
L319.229 103.418
L320.542 113.236
L321.855 109.309
L323.168 100.145
L324.481 95.5636
L325.793 104.727
L327.106 96.8727
L328.419 96.8727
L329.732 91.6364
L331.045 94.9091
L332.358 90.3273
L333.671 89.6727
L334.984 97.5273
L336.297 89.0182
L337.61 96.8727
L338.923 91.6364
L340.236 97.5273
L341.549 96.8727
L342.862 94.9091
L344.175 93.6
L345.488 99.4909
L346.801 102.109
L348.113 85.7455
L349.426 87.0545
L350.739 87.7091
L352.052 98.1818
L353.365 98.8364
L354.678 90.9818
L355.991 88.3636
L357.304 96.8727
L358.617 100.145
L359.93 89.0182
L361.243 92.9455
L363.869 87.7091
L365.182 89.6727
L366.495 90.3273
L367.808 98.1818
L369.121 104.727
L370.433 89.6727
L371.746 87.0545
L373.059 86.4
L374.372 72
L375.685 89.6727
L376.998 83.1273
L378.311 85.0909
L379.624 95.5636
L380.937 72
L382.25 75.9273
L383.563 83.1273
L384.876 81.1636
L386.189 83.1273
L387.502 82.4727
L388.815 72.6545
L390.128 79.8545
L391.441 66.7636
L392.753 76.5818
L394.066 77.2364
L395.379 76.5818
L396.692 85.0909
L398.005 82.4727
L399.318 70.6909
L400.631 84.4364
L401.944 73.9636
L403.257 66.1091
L404.57 83.1273
L405.883 75.2727
L407.196 64.8
L408.509 73.9636
L409.822 68.0727
L411.135 68.0727
L412.448 77.8909
L413.761 77.8909
L415.073 83.7818
L416.386 73.3091
L417.699 60.2182
L419.012 79.8545
L420.325 85.0909
L421.638 83.7818
L422.951 89.0182
L424.264 107.345
L425.577 103.418
L426.89 96.8727
L428.203 104.073
L429.516 117.164
L430.829 104.073
L432.142 108
L433.455 112.582
L434.768 122.4
L436.081 118.473
L437.393 121.091
L438.706 124.364
L440.019 126.327
L441.332 129.6
L442.645 134.182
L443.958 130.255
L445.271 121.745
L446.584 132.218
L447.897 136.8
L449.21 134.836
L450.523 130.255
L451.836 136.145
L453.149 138.764
L454.462 138.764
L455.775 140.727
L457.088 140.727
L459.713 143.345
L461.026 145.964
L462.339 140.073
L463.652 141.382
L464.965 142.036
L466.278 144
L467.591 144.655
L468.904 141.382
L470.217 145.964
L471.53 144.655
L472.843 147.273
L474.156 147.273
L475.469 149.891
L478.095 149.891
L479.408 149.236
L480.721 149.891
L482.033 151.2
L483.346 149.891
L484.659 150.545
L485.972 150.545
L487.285 151.2
L492.537 151.2
L492.537 151.2" style="fill:none;stroke:#008000;stroke-linecap:square;"/>
   </g>
   <g id="matplotlib.axis_5">
    <g id="xtick_9">
     <g id="line2d_43">
      <g>
       <use style="stroke:#000000;stroke-width:0.5;" x="296.908786765" xlink:href="#m93b0483c22" y="151.2"/>
      </g>
     </g>
     <g id="line2d_44">
      <g>
       <use style="stroke:#000000;stroke-width:0.5;" x="296.908786765" xlink:href="#m741efc42ff" y="7.2"/>
      </g>
     </g>
    </g>
    <g id="xtick_10">
     <g id="line2d_45">
      <g>
       <use style="stroke:#000000;stroke-width:0.5;" x="362.555845588" xlink:href="#m93b0483c22" y="151.2"/>
      </g>
     </g>
     <g id="line2d_46">
      <g>
       <use style="stroke:#000000;stroke-width:0.5;" x="362.555845588" xlink:href="#m741efc42ff" y="7.2"/>
      </g>
     </g>
    </g>
    <g id="xtick_11">
     <g id="line2d_47">
      <g>
       <use style="stroke:#000000;stroke-width:0.5;" x="428.202904412" xlink:href="#m93b0483c22" y="151.2"/>
      </g>
     </g>
     <g id="line2d_48">
      <g>
       <use style="stroke:#000000;stroke-width:0.5;" x="428.202904412" xlink:href="#m741efc42ff" y="7.2"/>
      </g>
     </g>
    </g>
    <g id="xtick_12">
     <g id="line2d_49">
      <g>
       <use style="stroke:#000000;stroke-width:0.5;" x="493.849963235" xlink:href="#m93b0483c22" y="151.2"/>
      </g>
     </g>
     <g id="line2d_50">
      <g>
       <use style="stroke:#000000;stroke-width:0.5;" x="493.849963235" xlink:href="#m741efc42ff" y="7.2"/>
      </g>
     </g>
    </g>
   </g>
   <g id="matplotlib.axis_6">
    <g id="ytick_9">
     <g id="line2d_51">
      <g>
       <use style="stroke:#000000;stroke-width:0.5;" x="283.779375" xlink:href="#m728421d6d4" y="118.472727273"/>
      </g>
     </g>
     <g id="line2d_52">
      <g>
       <use style="stroke:#000000;stroke-width:0.5;" x="506.979375" xlink:href="#mcb0005524f" y="118.472727273"/>
      </g>
     </g>
    </g>
    <g id="ytick_10">
     <g id="line2d_53">
      <g>
       <use style="stroke:#000000;stroke-width:0.5;" x="283.779375" xlink:href="#m728421d6d4" y="85.7454545455"/>
      </g>
     </g>
     <g id="line2d_54">
      <g>
       <use style="stroke:#000000;stroke-width:0.5;" x="506.979375" xlink:href="#mcb0005524f" y="85.7454545455"/>
      </g>
     </g>
    </g>
    <g id="ytick_11">
     <g id="line2d_55">
      <g>
       <use style="stroke:#000000;stroke-width:0.5;" x="283.779375" xlink:href="#m728421d6d4" y="53.0181818182"/>
      </g>
     </g>
     <g id="line2d_56">
      <g>
       <use style="stroke:#000000;stroke-width:0.5;" x="506.979375" xlink:href="#mcb0005524f" y="53.0181818182"/>
      </g>
     </g>
    </g>
    <g id="ytick_12">
     <g id="line2d_57">
      <g>
       <use style="stroke:#000000;stroke-width:0.5;" x="283.779375" xlink:href="#m728421d6d4" y="20.2909090909"/>
      </g>
     </g>
     <g id="line2d_58">
      <g>
       <use style="stroke:#000000;stroke-width:0.5;" x="506.979375" xlink:href="#mcb0005524f" y="20.2909090909"/>
      </g>
     </g>
    </g>
   </g>
   <g id="patch_15">
    <path d="
M283.779 7.2
L506.979 7.2" style="fill:none;stroke:#000000;"/>
   </g>
   <g id="patch_16">
    <path d="
M506.979 151.2
L506.979 7.2" style="fill:none;stroke:#000000;"/>
   </g>
   <g id="patch_17">
    <path d="
M283.779 151.2
L506.979 151.2" style="fill:none;stroke:#000000;"/>
   </g>
   <g id="patch_18">
    <path d="
M283.779 151.2
L283.779 7.2" style="fill:none;stroke:#000000;"/>
   </g>
   <g id="text_20">
    <text style="font-family:DejaVu Sans;font-size:12.0px;font-style:normal;text-anchor:start;" transform="rotate(-0.000000, 294.939375, 24.480000)" x="294.939375" y="24.48">$r = 3.5$ \AA</text>
   </g>
   <g id="text_21">
    <text style="font-family:DejaVu Sans;font-size:12.0px;font-style:normal;text-anchor:start;" transform="rotate(-0.000000, 294.939375, 24.480000)" x="294.939375" y="24.48">$r = 3.5$ \AA</text>
   </g>
  </g>
  <g id="axes_4">
   <g id="patch_19">
    <path d="
M60.5794 295.2
L283.779 295.2
L283.779 151.2
L60.5794 151.2
z
" style="fill:#ffffff;"/>
   </g>
   <g id="line2d_59">
    <path clip-path="url(#p55442a7cc0)" d="
M73.7088 294.545
L75.0217 293.891
L76.3347 294.545
L77.6476 293.891
L84.2123 293.891
L85.5253 293.236
L86.8382 293.891
L88.1511 293.236
L92.09 293.236
L93.4029 292.582
L98.6547 292.582
L99.9676 291.927
L102.593 291.927
L103.906 291.273
L105.219 291.273
L106.532 290.618
L107.845 291.273
L110.471 289.964
L111.784 289.964
L113.097 289.309
L114.41 289.309
L117.036 288
L118.349 288.655
L122.288 286.691
L123.601 284.727
L126.226 284.727
L127.539 282.109
L128.852 282.764
L130.165 282.109
L134.104 278.182
L135.417 277.527
L136.73 278.182
L138.043 274.909
L139.356 274.255
L140.669 272.291
L141.982 272.291
L143.295 271.636
L144.608 269.018
L145.921 267.709
L147.233 267.055
L148.546 265.745
L149.859 265.745
L151.172 261.818
L152.485 261.164
L153.798 258.545
L155.111 256.582
L156.424 257.236
L157.737 255.273
L159.05 252.655
L160.363 249.382
L161.676 246.764
L162.989 248.727
L165.615 244.8
L168.241 243.491
L169.553 238.909
L170.866 234.982
L172.179 236.945
L173.492 231.055
L176.118 229.745
L177.431 225.164
L178.744 225.818
L180.057 225.818
L181.37 219.927
L182.683 217.964
L183.996 210.764
L185.309 211.418
L186.622 206.836
L187.935 204.873
L189.248 201.6
L190.561 193.091
L191.873 192.436
L193.186 191.127
L194.499 186.545
L195.812 185.236
L197.125 183.273
L198.438 181.964
L199.751 181.309
L201.064 176.073
L203.69 177.382
L206.316 182.618
L207.629 186.545
L208.942 183.273
L210.255 191.782
L211.568 196.364
L212.881 202.255
L214.193 202.909
L215.506 206.836
L216.819 208.145
L218.132 214.691
L219.445 212.727
L220.758 216.655
L222.071 219.273
L223.384 217.964
L224.697 219.927
L227.323 225.164
L228.636 222.545
L231.262 226.473
L232.575 229.091
L233.888 225.818
L235.201 226.473
L236.513 229.745
L237.826 232.364
L239.139 231.709
L241.765 235.636
L243.078 235.636
L244.391 238.255
L245.704 240.218
L247.017 242.836
L248.33 247.418
L249.643 248.073
L250.956 249.382
L252.269 253.964
L253.582 255.927
L254.895 259.855
L256.208 261.164
L257.521 265.091
L260.146 271.636
L261.459 276.218
L262.772 279.491
L264.085 282.109
L266.711 289.964
L268.024 292.582
L269.337 294.545
L269.337 294.545" style="fill:none;stroke:#0000ff;stroke-linecap:square;"/>
   </g>
   <g id="line2d_60">
    <path clip-path="url(#p55442a7cc0)" d="
M73.7088 292.582
L75.0217 292.582
L76.3347 291.927
L77.6476 291.927
L78.9606 292.582
L81.5864 291.273
L82.8994 291.927
L85.5253 290.618
L86.8382 291.273
L88.1511 290.618
L90.777 290.618
L92.09 289.964
L93.4029 289.964
L94.7158 288.655
L96.0288 288.655
L97.3417 289.309
L99.9676 288
L103.906 288
L106.532 286.691
L107.845 286.691
L110.471 285.382
L111.784 285.382
L113.097 283.418
L114.41 284.727
L115.723 282.764
L117.036 282.109
L119.662 282.109
L120.975 280.8
L123.601 279.491
L124.913 278.182
L126.226 276.218
L127.539 276.873
L128.852 275.564
L130.165 273.6
L131.478 274.909
L132.791 272.291
L134.104 270.982
L135.417 269.018
L136.73 268.364
L138.043 268.364
L139.356 267.709
L140.669 264.436
L141.982 262.473
L143.295 264.436
L144.608 260.509
L145.921 260.509
L147.233 257.891
L149.859 256.582
L151.172 253.964
L152.485 254.618
L153.798 252
L155.111 250.691
L157.737 245.455
L159.05 246.764
L160.363 244.145
L161.676 240.873
L162.989 239.564
L164.302 239.564
L165.615 238.255
L166.928 234.982
L168.241 233.673
L169.553 233.018
L170.866 229.091
L172.179 228.436
L173.492 229.091
L174.805 223.855
L176.118 221.236
L177.431 221.236
L178.744 218.618
L180.057 216.655
L181.37 216
L182.683 210.109
L183.996 208.145
L185.309 208.145
L186.622 204.218
L187.935 203.564
L189.248 201.6
L190.561 200.291
L191.873 196.364
L193.186 193.091
L195.812 191.782
L197.125 189.164
L199.751 187.855
L201.064 189.818
L202.377 189.818
L203.69 187.855
L205.003 191.782
L206.316 195.055
L207.629 197.018
L208.942 202.255
L210.255 206.836
L211.568 208.145
L212.881 211.418
L214.193 216.655
L215.506 217.964
L216.819 222.545
L218.132 223.855
L219.445 227.127
L220.758 227.127
L222.071 228.436
L223.384 231.709
L224.697 231.055
L227.323 232.364
L228.636 233.673
L229.949 233.018
L231.262 237.6
L232.575 236.291
L235.201 238.909
L236.513 238.909
L239.139 242.836
L240.452 242.182
L241.765 244.8
L243.078 245.455
L244.391 246.764
L245.704 249.382
L247.017 250.691
L250.956 256.582
L252.269 257.236
L256.208 267.055
L257.521 267.709
L260.146 272.945
L261.459 277.527
L262.772 280.145
L264.085 284.073
L265.398 287.345
L268.024 292.582
L269.337 294.545
L269.337 294.545" style="fill:none;stroke:#008000;stroke-linecap:square;"/>
   </g>
   <g id="matplotlib.axis_7">
    <g id="xtick_13">
     <g id="line2d_61">
      <g>
       <use style="stroke:#000000;stroke-width:0.5;" x="73.7087867647" xlink:href="#m93b0483c22" y="295.2"/>
      </g>
     </g>
     <g id="line2d_62">
      <g>
       <use style="stroke:#000000;stroke-width:0.5;" x="73.7087867647" xlink:href="#m741efc42ff" y="151.2"/>
      </g>
     </g>
    </g>
    <g id="xtick_14">
     <g id="line2d_63">
      <g>
       <use style="stroke:#000000;stroke-width:0.5;" x="139.355845588" xlink:href="#m93b0483c22" y="295.2"/>
      </g>
     </g>
     <g id="line2d_64">
      <g>
       <use style="stroke:#000000;stroke-width:0.5;" x="139.355845588" xlink:href="#m741efc42ff" y="151.2"/>
      </g>
     </g>
    </g>
    <g id="xtick_15">
     <g id="line2d_65">
      <g>
       <use style="stroke:#000000;stroke-width:0.5;" x="205.002904412" xlink:href="#m93b0483c22" y="295.2"/>
      </g>
     </g>
     <g id="line2d_66">
      <g>
       <use style="stroke:#000000;stroke-width:0.5;" x="205.002904412" xlink:href="#m741efc42ff" y="151.2"/>
      </g>
     </g>
    </g>
    <g id="xtick_16">
     <g id="line2d_67">
      <g>
       <use style="stroke:#000000;stroke-width:0.5;" x="270.649963235" xlink:href="#m93b0483c22" y="295.2"/>
      </g>
     </g>
     <g id="line2d_68">
      <g>
       <use style="stroke:#000000;stroke-width:0.5;" x="270.649963235" xlink:href="#m741efc42ff" y="151.2"/>
      </g>
     </g>
    </g>
   </g>
   <g id="matplotlib.axis_8">
    <g id="ytick_13">
     <g id="line2d_69">
      <g>
       <use style="stroke:#000000;stroke-width:0.5;" x="60.579375" xlink:href="#m728421d6d4" y="262.472727273"/>
      </g>
     </g>
     <g id="line2d_70">
      <g>
       <use style="stroke:#000000;stroke-width:0.5;" x="283.779375" xlink:href="#mcb0005524f" y="262.472727273"/>
      </g>
     </g>
     <g id="text_22">
      <text style="font-family:DejaVu Sans;font-size:12.0px;font-style:normal;text-anchor:end;" transform="rotate(-0.000000, 56.579375, 265.783977)" x="56.579375" y="265.783977273">0.005</text>
     </g>
    </g>
    <g id="ytick_14">
     <g id="line2d_71">
      <g>
       <use style="stroke:#000000;stroke-width:0.5;" x="60.579375" xlink:href="#m728421d6d4" y="229.745454545"/>
      </g>
     </g>
     <g id="line2d_72">
      <g>
       <use style="stroke:#000000;stroke-width:0.5;" x="283.779375" xlink:href="#mcb0005524f" y="229.745454545"/>
      </g>
     </g>
     <g id="text_23">
      <text style="font-family:DejaVu Sans;font-size:12.0px;font-style:normal;text-anchor:end;" transform="rotate(-0.000000, 56.579375, 233.056705)" x="56.579375" y="233.056704545">0.010</text>
     </g>
    </g>
    <g id="ytick_15">
     <g id="line2d_73">
      <g>
       <use style="stroke:#000000;stroke-width:0.5;" x="60.579375" xlink:href="#m728421d6d4" y="197.018181818"/>
      </g>
     </g>
     <g id="line2d_74">
      <g>
       <use style="stroke:#000000;stroke-width:0.5;" x="283.779375" xlink:href="#mcb0005524f" y="197.018181818"/>
      </g>
     </g>
     <g id="text_24">
      <text style="font-family:DejaVu Sans;font-size:12.0px;font-style:normal;text-anchor:end;" transform="rotate(-0.000000, 56.579375, 200.329432)" x="56.579375" y="200.329431818">0.015</text>
     </g>
    </g>
    <g id="ytick_16">
     <g id="line2d_75">
      <g>
       <use style="stroke:#000000;stroke-width:0.5;" x="60.579375" xlink:href="#m728421d6d4" y="164.290909091"/>
      </g>
     </g>
     <g id="line2d_76">
      <g>
       <use style="stroke:#000000;stroke-width:0.5;" x="283.779375" xlink:href="#mcb0005524f" y="164.290909091"/>
      </g>
     </g>
     <g id="text_25">
      <text style="font-family:DejaVu Sans;font-size:12.0px;font-style:normal;text-anchor:end;" transform="rotate(-0.000000, 56.579375, 167.602159)" x="56.579375" y="167.602159091">0.020</text>
     </g>
    </g>
    <g id="text_26">
     <text style="font-family:DejaVu Sans;font-size:12.0px;font-style:normal;text-anchor:middle;" transform="rotate(-90.000000, 16.318125, 223.200000)" x="16.318125" y="223.2">relative occurrence</text>
    </g>
   </g>
   <g id="patch_20">
    <path d="
M60.5794 151.2
L283.779 151.2" style="fill:none;stroke:#000000;"/>
   </g>
   <g id="patch_21">
    <path d="
M283.779 295.2
L283.779 151.2" style="fill:none;stroke:#000000;"/>
   </g>
   <g id="patch_22">
    <path d="
M60.5794 295.2
L283.779 295.2" style="fill:none;stroke:#000000;"/>
   </g>
   <g id="patch_23">
    <path d="
M60.5794 295.2
L60.5794 151.2" style="fill:none;stroke:#000000;"/>
   </g>
   <g id="text_27">
    <text style="font-family:DejaVu Sans;font-size:12.0px;font-style:normal;text-anchor:start;" transform="rotate(-0.000000, 71.739375, 168.480000)" x="71.739375" y="168.48">$r = 4.5$ \AA</text>
   </g>
   <g id="text_28">
    <text style="font-family:DejaVu Sans;font-size:12.0px;font-style:normal;text-anchor:start;" transform="rotate(-0.000000, 71.739375, 168.480000)" x="71.739375" y="168.48">$r = 4.5$ \AA</text>
   </g>
  </g>
  <g id="axes_5">
   <g id="patch_24">
    <path d="
M283.779 295.2
L506.979 295.2
L506.979 151.2
L283.779 151.2
z
" style="fill:#ffffff;"/>
   </g>
   <g id="line2d_77">
    <path clip-path="url(#p5a71f190ef)" d="
M296.909 295.2
L308.725 295.2
L310.038 294.545
L311.351 295.2
L313.977 295.2
L315.29 294.545
L316.603 295.2
L317.916 294.545
L328.419 294.545
L329.732 293.891
L333.671 293.891
L334.984 294.545
L336.297 293.891
L338.923 293.891
L340.236 293.236
L341.549 293.236
L342.862 292.582
L344.175 292.582
L345.488 293.236
L346.801 292.582
L348.113 292.582
L350.739 291.273
L352.052 291.927
L353.365 290.618
L354.678 291.273
L355.991 290.618
L357.304 289.309
L358.617 289.309
L359.93 288
L361.243 288.655
L362.556 287.345
L363.869 287.345
L365.182 286.691
L366.495 285.382
L367.808 285.382
L369.121 284.727
L370.433 283.418
L371.746 283.418
L373.059 282.109
L374.372 281.455
L375.685 279.491
L376.998 278.836
L378.311 277.527
L379.624 275.564
L380.937 276.218
L382.25 273.6
L383.563 273.6
L384.876 271.636
L386.189 269.018
L388.815 267.709
L390.128 264.436
L391.441 263.782
L392.753 259.855
L394.066 261.164
L395.379 256.582
L396.692 257.236
L398.005 257.236
L399.318 253.309
L400.631 248.727
L401.944 248.073
L403.257 244.145
L405.883 238.909
L407.196 235.636
L408.509 231.709
L409.822 231.055
L411.135 223.855
L412.448 223.2
L413.761 219.273
L415.073 214.691
L416.386 203.564
L417.699 202.255
L419.012 198.982
L420.325 193.091
L421.638 191.127
L422.951 185.236
L424.264 180.655
L425.577 178.036
L426.89 176.073
L428.203 178.036
L429.516 173.455
L430.829 178.691
L432.142 180.655
L433.455 181.309
L434.768 185.891
L436.081 189.818
L437.393 189.164
L438.706 189.818
L440.019 191.782
L441.332 193.091
L442.645 191.782
L443.958 195.055
L445.271 192.436
L446.584 194.4
L447.897 198.327
L449.21 192.436
L450.523 193.745
L451.836 193.091
L453.149 197.018
L454.462 200.291
L455.775 195.055
L457.088 193.091
L458.401 199.636
L459.713 201.6
L461.026 198.327
L462.339 203.564
L463.652 204.873
L467.591 206.836
L468.904 208.8
L470.217 208.8
L471.53 214.036
L472.843 214.691
L474.156 219.273
L475.469 222.545
L476.782 224.509
L478.095 227.127
L479.408 234.982
L480.721 238.909
L482.033 241.527
L483.346 248.727
L484.659 250.691
L485.972 261.818
L487.285 267.055
L489.911 283.418
L492.537 293.891
L492.537 293.891" style="fill:none;stroke:#0000ff;stroke-linecap:square;"/>
   </g>
   <g id="line2d_78">
    <path clip-path="url(#p5a71f190ef)" d="
M296.909 293.891
L298.222 294.545
L299.535 293.891
L303.473 293.891
L304.786 293.236
L306.099 293.891
L308.725 293.891
L310.038 293.236
L313.977 293.236
L315.29 293.891
L316.603 293.236
L319.229 293.236
L320.542 292.582
L324.481 292.582
L325.793 291.927
L327.106 292.582
L328.419 292.582
L329.732 291.927
L331.045 291.927
L333.671 290.618
L334.984 290.618
L336.297 289.964
L337.61 290.618
L338.923 289.964
L340.236 289.964
L341.549 289.309
L342.862 288
L345.488 289.309
L350.739 286.691
L353.365 286.691
L355.991 284.073
L357.304 285.382
L358.617 284.073
L359.93 282.109
L362.556 282.109
L363.869 280.145
L366.495 278.836
L367.808 279.491
L369.121 276.218
L370.433 276.873
L371.746 274.909
L373.059 273.6
L374.372 271.636
L375.685 273.6
L376.998 272.291
L378.311 270.327
L379.624 269.018
L382.25 269.018
L383.563 266.4
L384.876 265.745
L386.189 261.818
L387.502 260.509
L388.815 261.164
L390.128 257.891
L391.441 257.236
L392.753 252.655
L394.066 254.618
L395.379 251.345
L396.692 251.345
L398.005 246.109
L399.318 244.145
L400.631 240.873
L401.944 244.8
L403.257 240.873
L404.57 234.327
L405.883 231.709
L407.196 231.709
L408.509 229.091
L411.135 221.236
L412.448 219.927
L413.761 217.309
L415.073 212.073
L416.386 207.491
L417.699 202.255
L419.012 198.327
L420.325 198.327
L421.638 195.055
L422.951 187.855
L424.264 185.891
L425.577 182.618
L426.89 183.273
L428.203 185.236
L429.516 182.618
L430.829 184.582
L432.142 190.473
L433.455 193.745
L434.768 193.745
L436.081 193.091
L437.393 199.636
L438.706 200.291
L440.019 200.291
L441.332 207.491
L442.645 204.873
L443.958 206.182
L445.271 208.8
L446.584 204.873
L447.897 208.145
L449.21 204.873
L450.523 205.527
L451.836 206.836
L453.149 208.8
L454.462 207.491
L457.088 207.491
L458.401 206.836
L459.713 207.491
L461.026 209.455
L462.339 208.145
L463.652 210.109
L464.965 210.109
L466.278 209.455
L467.591 212.073
L468.904 215.345
L470.217 214.691
L471.53 219.273
L472.843 218.618
L474.156 223.2
L475.469 228.436
L476.782 227.782
L478.095 233.673
L480.721 242.836
L482.033 246.109
L483.346 251.345
L484.659 259.2
L488.598 276.873
L489.911 283.418
L491.224 289.309
L492.537 293.891
L492.537 293.891" style="fill:none;stroke:#008000;stroke-linecap:square;"/>
   </g>
   <g id="matplotlib.axis_9">
    <g id="xtick_17">
     <g id="line2d_79">
      <g>
       <use style="stroke:#000000;stroke-width:0.5;" x="296.908786765" xlink:href="#m93b0483c22" y="295.2"/>
      </g>
     </g>
     <g id="line2d_80">
      <g>
       <use style="stroke:#000000;stroke-width:0.5;" x="296.908786765" xlink:href="#m741efc42ff" y="151.2"/>
      </g>
     </g>
    </g>
    <g id="xtick_18">
     <g id="line2d_81">
      <g>
       <use style="stroke:#000000;stroke-width:0.5;" x="362.555845588" xlink:href="#m93b0483c22" y="295.2"/>
      </g>
     </g>
     <g id="line2d_82">
      <g>
       <use style="stroke:#000000;stroke-width:0.5;" x="362.555845588" xlink:href="#m741efc42ff" y="151.2"/>
      </g>
     </g>
    </g>
    <g id="xtick_19">
     <g id="line2d_83">
      <g>
       <use style="stroke:#000000;stroke-width:0.5;" x="428.202904412" xlink:href="#m93b0483c22" y="295.2"/>
      </g>
     </g>
     <g id="line2d_84">
      <g>
       <use style="stroke:#000000;stroke-width:0.5;" x="428.202904412" xlink:href="#m741efc42ff" y="151.2"/>
      </g>
     </g>
    </g>
    <g id="xtick_20">
     <g id="line2d_85">
      <g>
       <use style="stroke:#000000;stroke-width:0.5;" x="493.849963235" xlink:href="#m93b0483c22" y="295.2"/>
      </g>
     </g>
     <g id="line2d_86">
      <g>
       <use style="stroke:#000000;stroke-width:0.5;" x="493.849963235" xlink:href="#m741efc42ff" y="151.2"/>
      </g>
     </g>
    </g>
   </g>
   <g id="matplotlib.axis_10">
    <g id="ytick_17">
     <g id="line2d_87">
      <g>
       <use style="stroke:#000000;stroke-width:0.5;" x="283.779375" xlink:href="#m728421d6d4" y="262.472727273"/>
      </g>
     </g>
     <g id="line2d_88">
      <g>
       <use style="stroke:#000000;stroke-width:0.5;" x="506.979375" xlink:href="#mcb0005524f" y="262.472727273"/>
      </g>
     </g>
    </g>
    <g id="ytick_18">
     <g id="line2d_89">
      <g>
       <use style="stroke:#000000;stroke-width:0.5;" x="283.779375" xlink:href="#m728421d6d4" y="229.745454545"/>
      </g>
     </g>
     <g id="line2d_90">
      <g>
       <use style="stroke:#000000;stroke-width:0.5;" x="506.979375" xlink:href="#mcb0005524f" y="229.745454545"/>
      </g>
     </g>
    </g>
    <g id="ytick_19">
     <g id="line2d_91">
      <g>
       <use style="stroke:#000000;stroke-width:0.5;" x="283.779375" xlink:href="#m728421d6d4" y="197.018181818"/>
      </g>
     </g>
     <g id="line2d_92">
      <g>
       <use style="stroke:#000000;stroke-width:0.5;" x="506.979375" xlink:href="#mcb0005524f" y="197.018181818"/>
      </g>
     </g>
    </g>
    <g id="ytick_20">
     <g id="line2d_93">
      <g>
       <use style="stroke:#000000;stroke-width:0.5;" x="283.779375" xlink:href="#m728421d6d4" y="164.290909091"/>
      </g>
     </g>
     <g id="line2d_94">
      <g>
       <use style="stroke:#000000;stroke-width:0.5;" x="506.979375" xlink:href="#mcb0005524f" y="164.290909091"/>
      </g>
     </g>
    </g>
   </g>
   <g id="patch_25">
    <path d="
M283.779 151.2
L506.979 151.2" style="fill:none;stroke:#000000;"/>
   </g>
   <g id="patch_26">
    <path d="
M506.979 295.2
L506.979 151.2" style="fill:none;stroke:#000000;"/>
   </g>
   <g id="patch_27">
    <path d="
M283.779 295.2
L506.979 295.2" style="fill:none;stroke:#000000;"/>
   </g>
   <g id="patch_28">
    <path d="
M283.779 295.2
L283.779 151.2" style="fill:none;stroke:#000000;"/>
   </g>
   <g id="text_29">
    <text style="font-family:DejaVu Sans;font-size:12.0px;font-style:normal;text-anchor:start;" transform="rotate(-0.000000, 294.939375, 168.480000)" x="294.939375" y="168.48">$r = 5.0$ \AA</text>
   </g>
   <g id="text_30">
    <text style="font-family:DejaVu Sans;font-size:12.0px;font-style:normal;text-anchor:start;" transform="rotate(-0.000000, 294.939375, 168.480000)" x="294.939375" y="168.48">$r = 5.0$ \AA</text>
   </g>
  </g>
  <g id="axes_6">
   <g id="patch_29">
    <path d="
M60.5794 439.2
L283.779 439.2
L283.779 295.2
L60.5794 295.2
z
" style="fill:#ffffff;"/>
   </g>
   <g id="line2d_95">
    <path clip-path="url(#p58d050f86d)" d="
M73.7088 439.2
L80.2735 439.2
L81.5864 438.545
L82.8994 439.2
L92.09 439.2
L93.4029 438.545
L94.7158 439.2
L96.0288 439.2
L97.3417 438.545
L114.41 438.545
L115.723 437.891
L122.288 437.891
L123.601 436.582
L124.913 437.236
L126.226 436.582
L127.539 437.236
L128.852 435.927
L131.478 435.927
L132.791 435.273
L134.104 435.273
L135.417 434.618
L136.73 434.618
L138.043 433.964
L139.356 433.964
L140.669 432.655
L141.982 432
L143.295 432.655
L144.608 430.691
L145.921 432
L147.233 430.691
L148.546 428.727
L149.859 430.036
L151.172 428.073
L152.485 426.764
L153.798 424.8
L155.111 426.109
L156.424 424.8
L157.737 421.527
L159.05 423.491
L160.363 419.564
L161.676 420.218
L162.989 418.909
L164.302 416.945
L165.615 415.636
L166.928 413.018
L170.866 409.091
L172.179 407.127
L173.492 406.473
L174.805 402.545
L176.118 401.891
L177.431 398.618
L178.744 394.691
L180.057 393.382
L181.37 394.691
L182.683 386.836
L183.996 384.873
L185.309 381.6
L186.622 378.982
L187.935 373.091
L189.248 368.509
L190.561 369.818
L191.873 358.691
L193.186 356.073
L195.812 345.6
L197.125 345.6
L198.438 338.4
L199.751 327.273
L201.064 324.655
L202.377 323.345
L203.69 318.764
L205.003 315.491
L206.316 318.109
L208.942 316.8
L210.255 318.109
L211.568 320.727
L212.881 329.236
L214.193 320.727
L215.506 325.309
L216.819 322.036
L218.132 324
L219.445 327.927
L220.758 325.964
L222.071 323.345
L223.384 324.655
L224.697 320.073
L226.01 327.927
L227.323 319.418
L228.636 326.618
L229.949 332.509
L231.262 324.655
L232.575 329.236
L233.888 329.891
L235.201 332.509
L236.513 334.473
L237.826 331.855
L239.139 335.127
L240.452 340.364
L241.765 342.982
L243.078 343.636
L244.391 345.6
L245.704 349.527
L247.017 356.073
L248.33 359.345
L249.643 361.309
L250.956 366.545
L252.269 373.091
L253.582 373.745
L256.208 388.8
L257.521 388.8
L258.833 398.618
L260.146 399.273
L261.459 406.473
L265.398 424.145
L266.711 431.345
L268.024 435.273
L269.337 438.545
L269.337 438.545" style="fill:none;stroke:#0000ff;stroke-linecap:square;"/>
   </g>
   <g id="line2d_96">
    <path clip-path="url(#p58d050f86d)" d="
M73.7088 438.545
L84.2123 438.545
L85.5253 437.891
L86.8382 438.545
L92.09 438.545
L93.4029 437.891
L94.7158 438.545
L96.0288 438.545
L97.3417 437.891
L102.593 437.891
L103.906 437.236
L105.219 437.236
L106.532 437.891
L107.845 437.891
L109.158 437.236
L111.784 437.236
L114.41 435.927
L115.723 436.582
L117.036 436.582
L119.662 435.273
L120.975 435.273
L122.288 434.618
L123.601 435.273
L124.913 433.964
L126.226 433.309
L127.539 433.964
L128.852 432.655
L130.165 432.655
L131.478 432
L132.791 432
L134.104 431.345
L135.417 431.345
L136.73 429.382
L138.043 429.382
L139.356 430.036
L140.669 427.418
L141.982 429.382
L143.295 428.073
L144.608 425.455
L145.921 424.145
L147.233 425.455
L148.546 421.527
L151.172 420.218
L152.485 418.255
L153.798 419.564
L155.111 419.564
L156.424 416.945
L157.737 416.291
L160.363 413.673
L161.676 413.018
L164.302 410.4
L165.615 409.745
L166.928 407.782
L168.241 405.164
L169.553 401.891
L170.866 399.927
L172.179 398.618
L173.492 396
L174.805 394.691
L176.118 394.691
L177.431 390.764
L178.744 388.145
L180.057 386.836
L181.37 384.218
L182.683 379.636
L183.996 376.364
L185.309 378.982
L187.935 365.891
L189.248 365.236
L190.561 360
L191.873 356.073
L193.186 350.836
L194.499 349.527
L195.812 342.327
L197.125 341.018
L198.438 335.127
L199.751 331.855
L201.064 327.927
L202.377 322.036
L203.69 320.073
L205.003 316.8
L206.316 318.109
L207.629 320.727
L208.942 322.691
L210.255 322.036
L211.568 323.345
L212.881 329.891
L214.193 333.164
L215.506 334.473
L216.819 329.236
L219.445 335.782
L220.758 334.473
L222.071 334.473
L223.384 340.364
L224.697 338.4
L226.01 340.364
L227.323 336.436
L228.636 335.782
L229.949 338.4
L231.262 338.4
L232.575 340.364
L233.888 337.745
L235.201 343.636
L236.513 341.018
L237.826 350.182
L239.139 344.945
L240.452 348.873
L241.765 350.836
L243.078 350.836
L244.391 352.8
L245.704 356.073
L247.017 363.927
L248.33 365.891
L249.643 370.473
L250.956 377.673
L252.269 378.982
L253.582 382.255
L254.895 384.218
L256.208 391.418
L257.521 397.964
L260.146 404.509
L261.459 411.709
L262.772 417.6
L265.398 426.764
L266.711 432
L268.024 435.927
L269.337 438.545
L269.337 438.545" style="fill:none;stroke:#008000;stroke-linecap:square;"/>
   </g>
   <g id="matplotlib.axis_11">
    <g id="xtick_21">
     <g id="line2d_97">
      <g>
       <use style="stroke:#000000;stroke-width:0.5;" x="73.7087867647" xlink:href="#m93b0483c22" y="439.2"/>
      </g>
     </g>
     <g id="line2d_98">
      <g>
       <use style="stroke:#000000;stroke-width:0.5;" x="73.7087867647" xlink:href="#m741efc42ff" y="295.2"/>
      </g>
     </g>
    </g>
    <g id="xtick_22">
     <g id="line2d_99">
      <g>
       <use style="stroke:#000000;stroke-width:0.5;" x="139.355845588" xlink:href="#m93b0483c22" y="439.2"/>
      </g>
     </g>
     <g id="line2d_100">
      <g>
       <use style="stroke:#000000;stroke-width:0.5;" x="139.355845588" xlink:href="#m741efc42ff" y="295.2"/>
      </g>
     </g>
    </g>
    <g id="xtick_23">
     <g id="line2d_101">
      <g>
       <use style="stroke:#000000;stroke-width:0.5;" x="205.002904412" xlink:href="#m93b0483c22" y="439.2"/>
      </g>
     </g>
     <g id="line2d_102">
      <g>
       <use style="stroke:#000000;stroke-width:0.5;" x="205.002904412" xlink:href="#m741efc42ff" y="295.2"/>
      </g>
     </g>
    </g>
    <g id="xtick_24">
     <g id="line2d_103">
      <g>
       <use style="stroke:#000000;stroke-width:0.5;" x="270.649963235" xlink:href="#m93b0483c22" y="439.2"/>
      </g>
     </g>
     <g id="line2d_104">
      <g>
       <use style="stroke:#000000;stroke-width:0.5;" x="270.649963235" xlink:href="#m741efc42ff" y="295.2"/>
      </g>
     </g>
    </g>
   </g>
   <g id="matplotlib.axis_12">
    <g id="ytick_21">
     <g id="line2d_105">
      <g>
       <use style="stroke:#000000;stroke-width:0.5;" x="60.579375" xlink:href="#m728421d6d4" y="406.472727273"/>
      </g>
     </g>
     <g id="line2d_106">
      <g>
       <use style="stroke:#000000;stroke-width:0.5;" x="283.779375" xlink:href="#mcb0005524f" y="406.472727273"/>
      </g>
     </g>
     <g id="text_31">
      <text style="font-family:DejaVu Sans;font-size:12.0px;font-style:normal;text-anchor:end;" transform="rotate(-0.000000, 56.579375, 409.783977)" x="56.579375" y="409.783977273">0.005</text>
     </g>
    </g>
    <g id="ytick_22">
     <g id="line2d_107">
      <g>
       <use style="stroke:#000000;stroke-width:0.5;" x="60.579375" xlink:href="#m728421d6d4" y="373.745454545"/>
      </g>
     </g>
     <g id="line2d_108">
      <g>
       <use style="stroke:#000000;stroke-width:0.5;" x="283.779375" xlink:href="#mcb0005524f" y="373.745454545"/>
      </g>
     </g>
     <g id="text_32">
      <text style="font-family:DejaVu Sans;font-size:12.0px;font-style:normal;text-anchor:end;" transform="rotate(-0.000000, 56.579375, 377.056705)" x="56.579375" y="377.056704545">0.010</text>
     </g>
    </g>
    <g id="ytick_23">
     <g id="line2d_109">
      <g>
       <use style="stroke:#000000;stroke-width:0.5;" x="60.579375" xlink:href="#m728421d6d4" y="341.018181818"/>
      </g>
     </g>
     <g id="line2d_110">
      <g>
       <use style="stroke:#000000;stroke-width:0.5;" x="283.779375" xlink:href="#mcb0005524f" y="341.018181818"/>
      </g>
     </g>
     <g id="text_33">
      <text style="font-family:DejaVu Sans;font-size:12.0px;font-style:normal;text-anchor:end;" transform="rotate(-0.000000, 56.579375, 344.329432)" x="56.579375" y="344.329431818">0.015</text>
     </g>
    </g>
    <g id="ytick_24">
     <g id="line2d_111">
      <g>
       <use style="stroke:#000000;stroke-width:0.5;" x="60.579375" xlink:href="#m728421d6d4" y="308.290909091"/>
      </g>
     </g>
     <g id="line2d_112">
      <g>
       <use style="stroke:#000000;stroke-width:0.5;" x="283.779375" xlink:href="#mcb0005524f" y="308.290909091"/>
      </g>
     </g>
     <g id="text_34">
      <text style="font-family:DejaVu Sans;font-size:12.0px;font-style:normal;text-anchor:end;" transform="rotate(-0.000000, 56.579375, 311.602159)" x="56.579375" y="311.602159091">0.020</text>
     </g>
    </g>
   </g>
   <g id="patch_30">
    <path d="
M60.5794 295.2
L283.779 295.2" style="fill:none;stroke:#000000;"/>
   </g>
   <g id="patch_31">
    <path d="
M283.779 439.2
L283.779 295.2" style="fill:none;stroke:#000000;"/>
   </g>
   <g id="patch_32">
    <path d="
M60.5794 439.2
L283.779 439.2" style="fill:none;stroke:#000000;"/>
   </g>
   <g id="patch_33">
    <path d="
M60.5794 439.2
L60.5794 295.2" style="fill:none;stroke:#000000;"/>
   </g>
   <g id="text_35">
    <text style="font-family:DejaVu Sans;font-size:12.0px;font-style:normal;text-anchor:start;" transform="rotate(-0.000000, 71.739375, 312.480000)" x="71.739375" y="312.48">$r = 5.5$ \AA</text>
   </g>
   <g id="text_36">
    <text style="font-family:DejaVu Sans;font-size:12.0px;font-style:normal;text-anchor:start;" transform="rotate(-0.000000, 71.739375, 312.480000)" x="71.739375" y="312.48">$r = 5.5$ \AA</text>
   </g>
  </g>
  <g id="axes_7">
   <g id="patch_34">
    <path d="
M283.779 439.2
L506.979 439.2
L506.979 295.2
L283.779 295.2
z
" style="fill:#ffffff;"/>
   </g>
   <g id="line2d_113">
    <path clip-path="url(#p16b1d7906c)" d="
M296.909 439.2
L328.419 439.2
L329.732 438.545
L340.236 438.545
L341.549 437.891
L342.862 437.891
L344.175 438.545
L345.488 438.545
L346.801 437.891
L349.426 437.891
L350.739 437.236
L352.052 437.236
L353.365 436.582
L354.678 437.236
L355.991 437.236
L357.304 435.927
L362.556 435.927
L363.869 434.618
L365.182 434.618
L369.121 432.655
L370.433 432.655
L379.624 428.073
L380.937 426.109
L382.25 426.109
L383.563 425.455
L384.876 424.145
L386.189 424.145
L387.502 423.491
L388.815 421.527
L391.441 418.909
L394.066 414.982
L395.379 413.673
L396.692 411.709
L398.005 410.4
L399.318 407.127
L400.631 407.127
L401.944 405.164
L403.257 402.545
L404.57 401.236
L405.883 394.691
L407.196 393.382
L409.822 388.145
L411.135 384.218
L412.448 382.255
L413.761 377.673
L416.386 367.2
L417.699 362.618
L419.012 358.691
L420.325 354.109
L421.638 345.6
L422.951 340.364
L424.264 337.745
L425.577 328.582
L426.89 322.036
L428.203 322.691
L429.516 319.418
L430.829 320.727
L432.142 316.145
L433.455 316.8
L434.768 322.036
L436.081 324
L437.393 322.691
L438.706 320.727
L440.019 320.727
L441.332 322.691
L442.645 319.418
L443.958 322.036
L445.271 316.8
L446.584 314.182
L447.897 320.727
L449.21 317.455
L450.523 312.218
L451.836 315.491
L453.149 313.527
L454.462 313.527
L455.775 318.109
L457.088 316.145
L458.401 319.418
L459.713 318.109
L461.026 317.455
L462.339 323.345
L463.652 324
L464.965 330.545
L466.278 329.891
L470.217 341.673
L471.53 348.218
L472.843 350.836
L474.156 352.8
L475.469 363.273
L476.782 365.891
L478.095 375.055
L480.721 386.836
L482.033 392.073
L483.346 395.345
L484.659 404.509
L485.972 409.091
L487.285 416.291
L488.598 422.836
L489.911 428.727
L492.537 437.891
L492.537 437.891" style="fill:none;stroke:#0000ff;stroke-linecap:square;"/>
   </g>
   <g id="line2d_114">
    <path clip-path="url(#p16b1d7906c)" d="
M296.909 439.2
L298.222 439.2
L299.535 438.545
L303.473 438.545
L304.786 439.2
L306.099 438.545
L321.855 438.545
L323.168 437.891
L329.732 437.891
L331.045 438.545
L333.671 437.236
L334.984 437.891
L336.297 437.236
L341.549 437.236
L342.862 435.927
L348.113 435.927
L349.426 434.618
L350.739 435.273
L353.365 433.964
L354.678 434.618
L355.991 433.309
L357.304 433.964
L359.93 432.655
L361.243 431.345
L362.556 430.691
L365.182 430.691
L366.495 429.382
L367.808 429.382
L370.433 428.073
L371.746 426.109
L374.372 426.109
L375.685 424.145
L376.998 424.145
L378.311 422.182
L379.624 422.836
L380.937 420.218
L383.563 417.6
L384.876 416.945
L386.189 416.945
L387.502 414.327
L388.815 413.018
L390.128 412.364
L391.441 409.091
L394.066 407.782
L395.379 405.818
L398.005 400.582
L399.318 399.927
L400.631 396
L401.944 396
L403.257 395.345
L404.57 392.073
L405.883 387.491
L407.196 386.182
L409.822 380.945
L411.135 374.4
L412.448 374.4
L415.073 362.618
L416.386 358.691
L417.699 360.655
L419.012 351.491
L420.325 347.564
L421.638 344.291
L422.951 339.055
L424.264 334.473
L425.577 330.545
L426.89 324.655
L428.203 324
L429.516 325.309
L430.829 321.382
L432.142 324
L433.455 323.345
L434.768 325.309
L436.081 327.927
L437.393 325.309
L438.706 329.891
L440.019 329.891
L441.332 325.964
L442.645 327.927
L443.958 327.273
L445.271 331.2
L446.584 329.891
L447.897 330.545
L449.21 328.582
L451.836 327.273
L453.149 328.582
L454.462 330.545
L455.775 330.545
L457.088 329.236
L458.401 329.236
L459.713 335.127
L461.026 330.545
L462.339 333.164
L463.652 340.364
L464.965 341.673
L466.278 340.364
L467.591 342.982
L468.904 344.945
L470.217 350.836
L471.53 353.455
L472.843 360
L474.156 362.618
L475.469 368.509
L476.782 371.782
L478.095 377.673
L479.408 386.182
L480.721 388.8
L482.033 392.073
L483.346 400.582
L484.659 405.164
L485.972 410.4
L487.285 418.255
L489.911 430.036
L491.224 435.273
L492.537 438.545
L492.537 438.545" style="fill:none;stroke:#008000;stroke-linecap:square;"/>
   </g>
   <g id="matplotlib.axis_13">
    <g id="xtick_25">
     <g id="line2d_115">
      <g>
       <use style="stroke:#000000;stroke-width:0.5;" x="296.908786765" xlink:href="#m93b0483c22" y="439.2"/>
      </g>
     </g>
     <g id="line2d_116">
      <g>
       <use style="stroke:#000000;stroke-width:0.5;" x="296.908786765" xlink:href="#m741efc42ff" y="295.2"/>
      </g>
     </g>
    </g>
    <g id="xtick_26">
     <g id="line2d_117">
      <g>
       <use style="stroke:#000000;stroke-width:0.5;" x="362.555845588" xlink:href="#m93b0483c22" y="439.2"/>
      </g>
     </g>
     <g id="line2d_118">
      <g>
       <use style="stroke:#000000;stroke-width:0.5;" x="362.555845588" xlink:href="#m741efc42ff" y="295.2"/>
      </g>
     </g>
    </g>
    <g id="xtick_27">
     <g id="line2d_119">
      <g>
       <use style="stroke:#000000;stroke-width:0.5;" x="428.202904412" xlink:href="#m93b0483c22" y="439.2"/>
      </g>
     </g>
     <g id="line2d_120">
      <g>
       <use style="stroke:#000000;stroke-width:0.5;" x="428.202904412" xlink:href="#m741efc42ff" y="295.2"/>
      </g>
     </g>
    </g>
    <g id="xtick_28">
     <g id="line2d_121">
      <g>
       <use style="stroke:#000000;stroke-width:0.5;" x="493.849963235" xlink:href="#m93b0483c22" y="439.2"/>
      </g>
     </g>
     <g id="line2d_122">
      <g>
       <use style="stroke:#000000;stroke-width:0.5;" x="493.849963235" xlink:href="#m741efc42ff" y="295.2"/>
      </g>
     </g>
    </g>
   </g>
   <g id="matplotlib.axis_14">
    <g id="ytick_25">
     <g id="line2d_123">
      <g>
       <use style="stroke:#000000;stroke-width:0.5;" x="283.779375" xlink:href="#m728421d6d4" y="406.472727273"/>
      </g>
     </g>
     <g id="line2d_124">
      <g>
       <use style="stroke:#000000;stroke-width:0.5;" x="506.979375" xlink:href="#mcb0005524f" y="406.472727273"/>
      </g>
     </g>
    </g>
    <g id="ytick_26">
     <g id="line2d_125">
      <g>
       <use style="stroke:#000000;stroke-width:0.5;" x="283.779375" xlink:href="#m728421d6d4" y="373.745454545"/>
      </g>
     </g>
     <g id="line2d_126">
      <g>
       <use style="stroke:#000000;stroke-width:0.5;" x="506.979375" xlink:href="#mcb0005524f" y="373.745454545"/>
      </g>
     </g>
    </g>
    <g id="ytick_27">
     <g id="line2d_127">
      <g>
       <use style="stroke:#000000;stroke-width:0.5;" x="283.779375" xlink:href="#m728421d6d4" y="341.018181818"/>
      </g>
     </g>
     <g id="line2d_128">
      <g>
       <use style="stroke:#000000;stroke-width:0.5;" x="506.979375" xlink:href="#mcb0005524f" y="341.018181818"/>
      </g>
     </g>
    </g>
    <g id="ytick_28">
     <g id="line2d_129">
      <g>
       <use style="stroke:#000000;stroke-width:0.5;" x="283.779375" xlink:href="#m728421d6d4" y="308.290909091"/>
      </g>
     </g>
     <g id="line2d_130">
      <g>
       <use style="stroke:#000000;stroke-width:0.5;" x="506.979375" xlink:href="#mcb0005524f" y="308.290909091"/>
      </g>
     </g>
    </g>
   </g>
   <g id="patch_35">
    <path d="
M283.779 295.2
L506.979 295.2" style="fill:none;stroke:#000000;"/>
   </g>
   <g id="patch_36">
    <path d="
M506.979 439.2
L506.979 295.2" style="fill:none;stroke:#000000;"/>
   </g>
   <g id="patch_37">
    <path d="
M283.779 439.2
L506.979 439.2" style="fill:none;stroke:#000000;"/>
   </g>
   <g id="patch_38">
    <path d="
M283.779 439.2
L283.779 295.2" style="fill:none;stroke:#000000;"/>
   </g>
   <g id="text_37">
    <text style="font-family:DejaVu Sans;font-size:12.0px;font-style:normal;text-anchor:start;" transform="rotate(-0.000000, 294.939375, 312.480000)" x="294.939375" y="312.48">$r = 6.0$ \AA</text>
   </g>
   <g id="text_38">
    <text style="font-family:DejaVu Sans;font-size:12.0px;font-style:normal;text-anchor:start;" transform="rotate(-0.000000, 294.939375, 312.480000)" x="294.939375" y="312.48">$r = 6.0$ \AA</text>
   </g>
  </g>
  <g id="axes_8">
   <g id="patch_39">
    <path d="
M283.779 583.2
L506.979 583.2
L506.979 439.2
L283.779 439.2
z
" style="fill:#ffffff;"/>
   </g>
   <g id="line2d_131">
    <path clip-path="url(#p75dfaedb2f)" d="
M296.909 583.2
L338.923 583.2
L340.236 582.545
L341.549 583.2
L342.862 583.2
L344.175 582.545
L345.488 583.2
L346.801 583.2
L348.113 582.545
L352.052 582.545
L353.365 581.891
L354.678 581.891
L355.991 582.545
L357.304 581.891
L359.93 581.891
L362.556 580.582
L363.869 581.236
L365.182 580.582
L369.121 580.582
L370.433 579.273
L373.059 577.964
L374.372 578.618
L375.685 578.618
L376.998 576.655
L378.311 576.655
L380.937 575.345
L382.25 574.036
L383.563 574.036
L384.876 572.073
L386.189 570.764
L387.502 571.418
L388.815 570.109
L390.128 567.491
L391.441 569.455
L392.753 565.527
L395.379 565.527
L398.005 558.982
L400.631 558.982
L401.944 553.745
L403.257 552.436
L404.57 550.473
L405.883 546.545
L407.196 545.891
L408.509 542.618
L409.822 540
L411.135 534.764
L413.761 529.527
L415.073 522.327
L416.386 519.709
L417.699 511.855
L419.012 507.273
L420.325 500.073
L421.638 496.145
L422.951 491.564
L424.264 484.364
L425.577 478.473
L426.89 469.309
L428.203 470.618
L429.516 466.036
L432.142 462.109
L433.455 463.418
L434.768 466.036
L436.081 464.727
L437.393 462.764
L438.706 465.382
L440.019 464.727
L441.332 464.727
L442.645 460.8
L443.958 462.764
L445.271 456.873
L446.584 463.418
L447.897 459.491
L449.21 458.182
L450.523 454.909
L451.836 457.527
L453.149 452.291
L454.462 457.527
L455.775 452.945
L457.088 451.636
L458.401 454.909
L459.713 452.291
L461.026 454.255
L462.339 458.836
L463.652 452.945
L464.965 460.8
L466.278 462.109
L467.591 466.691
L468.904 469.964
L470.217 475.2
L471.53 478.473
L472.843 484.364
L474.156 484.364
L476.782 501.382
L478.095 506.618
L479.408 513.164
L480.721 519.055
L483.346 533.455
L484.659 542.618
L485.972 547.2
L487.285 557.018
L488.598 565.527
L491.224 577.309
L492.537 581.891
L492.537 581.891" style="fill:none;stroke:#0000ff;stroke-linecap:square;"/>
   </g>
   <g id="line2d_132">
    <path clip-path="url(#p75dfaedb2f)" d="
M296.909 583.2
L320.542 583.2
L321.855 582.545
L323.168 583.2
L324.481 583.2
L325.793 582.545
L327.106 583.2
L331.045 583.2
L332.358 582.545
L349.426 582.545
L350.739 581.891
L353.365 581.891
L354.678 581.236
L357.304 581.236
L358.617 580.582
L361.243 580.582
L362.556 579.273
L365.182 579.273
L366.495 578.618
L367.808 578.618
L369.121 577.309
L370.433 577.309
L371.746 576.655
L373.059 576.655
L375.685 574.036
L376.998 573.382
L378.311 574.691
L380.937 572.073
L382.25 572.073
L383.563 571.418
L384.876 569.455
L386.189 569.455
L387.502 566.836
L388.815 564.873
L390.128 565.527
L391.441 562.909
L392.753 562.909
L394.066 562.255
L395.379 558.982
L396.692 557.673
L398.005 557.018
L399.318 555.709
L400.631 551.782
L401.944 551.127
L403.257 548.509
L404.57 546.545
L405.883 543.927
L407.196 539.345
L408.509 537.382
L409.822 536.727
L411.135 531.491
L412.448 528.873
L413.761 522.327
L415.073 517.745
L416.386 517.745
L417.699 508.582
L419.012 502.691
L420.325 501.382
L421.638 492.218
L422.951 484.364
L424.264 483.709
L426.89 474.545
L428.203 469.309
L429.516 466.691
L432.142 466.691
L433.455 468.655
L434.768 463.418
L436.081 469.309
L437.393 465.382
L438.706 467.345
L440.019 466.691
L441.332 462.764
L442.645 468
L443.958 462.764
L445.271 466.691
L446.584 461.455
L447.897 461.455
L449.21 460.8
L450.523 458.182
L451.836 460.145
L453.149 460.8
L454.462 459.491
L455.775 461.455
L457.088 460.8
L458.401 462.764
L459.713 459.491
L461.026 462.109
L462.339 460.8
L463.652 462.109
L464.965 462.764
L466.278 469.309
L467.591 471.273
L468.904 473.891
L470.217 479.782
L471.53 481.745
L472.843 485.673
L474.156 494.836
L475.469 498.764
L476.782 500.727
L478.095 510.545
L479.408 514.473
L480.721 521.673
L482.033 526.909
L484.659 545.236
L485.972 551.782
L487.285 557.673
L488.598 564.218
L489.911 572.727
L491.224 578.618
L492.537 581.891
L492.537 581.891" style="fill:none;stroke:#008000;stroke-linecap:square;"/>
   </g>
   <g id="matplotlib.axis_15">
    <g id="xtick_29">
     <g id="line2d_133">
      <g>
       <use style="stroke:#000000;stroke-width:0.5;" x="296.908786765" xlink:href="#m93b0483c22" y="583.2"/>
      </g>
     </g>
     <g id="line2d_134">
      <g>
       <use style="stroke:#000000;stroke-width:0.5;" x="296.908786765" xlink:href="#m741efc42ff" y="439.2"/>
      </g>
     </g>
     <g id="text_39">
      <text style="font-family:DejaVu Sans;font-size:12.0px;font-style:normal;text-anchor:middle;" transform="rotate(-0.000000, 296.908787, 596.318125)" x="296.908786765" y="596.318125">−0.5</text>
     </g>
    </g>
    <g id="xtick_30">
     <g id="line2d_135">
      <g>
       <use style="stroke:#000000;stroke-width:0.5;" x="362.555845588" xlink:href="#m93b0483c22" y="583.2"/>
      </g>
     </g>
     <g id="line2d_136">
      <g>
       <use style="stroke:#000000;stroke-width:0.5;" x="362.555845588" xlink:href="#m741efc42ff" y="439.2"/>
      </g>
     </g>
     <g id="text_40">
      <text style="font-family:DejaVu Sans;font-size:12.0px;font-style:normal;text-anchor:middle;" transform="rotate(-0.000000, 362.555846, 596.318125)" x="362.555845588" y="596.318125">0.0</text>
     </g>
    </g>
    <g id="xtick_31">
     <g id="line2d_137">
      <g>
       <use style="stroke:#000000;stroke-width:0.5;" x="428.202904412" xlink:href="#m93b0483c22" y="583.2"/>
      </g>
     </g>
     <g id="line2d_138">
      <g>
       <use style="stroke:#000000;stroke-width:0.5;" x="428.202904412" xlink:href="#m741efc42ff" y="439.2"/>
      </g>
     </g>
     <g id="text_41">
      <text style="font-family:DejaVu Sans;font-size:12.0px;font-style:normal;text-anchor:middle;" transform="rotate(-0.000000, 428.202904, 596.318125)" x="428.202904412" y="596.318125">0.5</text>
     </g>
    </g>
    <g id="xtick_32">
     <g id="line2d_139">
      <g>
       <use style="stroke:#000000;stroke-width:0.5;" x="493.849963235" xlink:href="#m93b0483c22" y="583.2"/>
      </g>
     </g>
     <g id="line2d_140">
      <g>
       <use style="stroke:#000000;stroke-width:0.5;" x="493.849963235" xlink:href="#m741efc42ff" y="439.2"/>
      </g>
     </g>
     <g id="text_42">
      <text style="font-family:DejaVu Sans;font-size:12.0px;font-style:normal;text-anchor:middle;" transform="rotate(-0.000000, 493.849963, 596.318125)" x="493.849963235" y="596.318125">1.0</text>
     </g>
    </g>
    <g id="text_43">
     <text style="font-family:DejaVu Sans;font-size:12.0px;font-style:normal;text-anchor:middle;" transform="rotate(-0.000000, 395.379375, 612.931875)" x="395.379375" y="612.931875">Q</text>
    </g>
   </g>
   <g id="matplotlib.axis_16">
    <g id="ytick_29">
     <g id="line2d_141">
      <g>
       <use style="stroke:#000000;stroke-width:0.5;" x="283.779375" xlink:href="#m728421d6d4" y="550.472727273"/>
      </g>
     </g>
     <g id="line2d_142">
      <g>
       <use style="stroke:#000000;stroke-width:0.5;" x="506.979375" xlink:href="#mcb0005524f" y="550.472727273"/>
      </g>
     </g>
    </g>
    <g id="ytick_30">
     <g id="line2d_143">
      <g>
       <use style="stroke:#000000;stroke-width:0.5;" x="283.779375" xlink:href="#m728421d6d4" y="517.745454545"/>
      </g>
     </g>
     <g id="line2d_144">
      <g>
       <use style="stroke:#000000;stroke-width:0.5;" x="506.979375" xlink:href="#mcb0005524f" y="517.745454545"/>
      </g>
     </g>
    </g>
    <g id="ytick_31">
     <g id="line2d_145">
      <g>
       <use style="stroke:#000000;stroke-width:0.5;" x="283.779375" xlink:href="#m728421d6d4" y="485.018181818"/>
      </g>
     </g>
     <g id="line2d_146">
      <g>
       <use style="stroke:#000000;stroke-width:0.5;" x="506.979375" xlink:href="#mcb0005524f" y="485.018181818"/>
      </g>
     </g>
    </g>
    <g id="ytick_32">
     <g id="line2d_147">
      <g>
       <use style="stroke:#000000;stroke-width:0.5;" x="283.779375" xlink:href="#m728421d6d4" y="452.290909091"/>
      </g>
     </g>
     <g id="line2d_148">
      <g>
       <use style="stroke:#000000;stroke-width:0.5;" x="506.979375" xlink:href="#mcb0005524f" y="452.290909091"/>
      </g>
     </g>
    </g>
   </g>
   <g id="patch_40">
    <path d="
M283.779 439.2
L506.979 439.2" style="fill:none;stroke:#000000;"/>
   </g>
   <g id="patch_41">
    <path d="
M506.979 583.2
L506.979 439.2" style="fill:none;stroke:#000000;"/>
   </g>
   <g id="patch_42">
    <path d="
M283.779 583.2
L506.979 583.2" style="fill:none;stroke:#000000;"/>
   </g>
   <g id="patch_43">
    <path d="
M283.779 583.2
L283.779 439.2" style="fill:none;stroke:#000000;"/>
   </g>
   <g id="text_44">
    <text style="font-family:DejaVu Sans;font-size:12.0px;font-style:normal;text-anchor:start;" transform="rotate(-0.000000, 294.939375, 456.480000)" x="294.939375" y="456.48">$r = 7.0$ \AA</text>
   </g>
   <g id="text_45">
    <text style="font-family:DejaVu Sans;font-size:12.0px;font-style:normal;text-anchor:start;" transform="rotate(-0.000000, 294.939375, 456.480000)" x="294.939375" y="456.48">$r = 7.0$ \AA</text>
   </g>
  </g>
 </g>
 <defs>
  <clipPath id="p58d050f86d">
   <rect height="144.0" width="223.2" x="60.579375" y="295.2"/>
  </clipPath>
  <clipPath id="p55442a7cc0">
   <rect height="144.0" width="223.2" x="60.579375" y="151.2"/>
  </clipPath>
  <clipPath id="p85849c3a5f">
   <rect height="144.0" width="223.2" x="283.779375" y="7.2"/>
  </clipPath>
  <clipPath id="p75dfaedb2f">
   <rect height="144.0" width="223.2" x="283.779375" y="439.2"/>
  </clipPath>
  <clipPath id="p16b1d7906c">
   <rect height="144.0" width="223.2" x="283.779375" y="295.2"/>
  </clipPath>
  <clipPath id="p5a71f190ef">
   <rect height="144.0" width="223.2" x="283.779375" y="151.2"/>
  </clipPath>
  <clipPath id="pc998595b23">
   <rect height="144.0" width="223.2" x="60.579375" y="7.2"/>
  </clipPath>
  <clipPath id="pdb6e15b78b">
   <rect height="144.0" width="223.2" x="60.579375" y="439.2"/>
  </clipPath>
 </defs>
</svg>
