<?xml version="1.0" encoding="utf-8" standalone="no"?>
<!DOCTYPE svg PUBLIC "-//W3C//DTD SVG 1.1//EN"
  "http://www.w3.org/Graphics/SVG/1.1/DTD/svg11.dtd">
<!-- Created with matplotlib (http://matplotlib.org/) -->
<svg height="680pt" version="1.1" viewBox="0 0 515 680" width="515pt" xmlns="http://www.w3.org/2000/svg" xmlns:xlink="http://www.w3.org/1999/xlink">
 <defs>
  <style type="text/css">
*{stroke-linecap:butt;stroke-linejoin:round;}
  </style>
 </defs>
 <g id="figure_1">
  <g id="patch_1">
   <path d="
M0 680.656
L515.567 680.656
L515.567 0
L0 0
z
" style="fill:#ffffff;"/>
  </g>
  <g id="axes_1">
   <g id="patch_2">
    <path d="
M61.9669 604.8
L285.167 604.8
L285.167 460.8
L61.9669 460.8
z
" style="fill:#ffffff;"/>
   </g>
   <g id="line2d_1">
    <path clip-path="url(#pb6c146f3bb)" d="
M75.0963 604.8
L114.485 604.8
L115.797 604.145
L117.11 604.145
L118.423 604.8
L119.736 604.145
L126.301 604.145
L127.614 603.491
L128.927 604.145
L130.24 603.491
L132.866 603.491
L134.179 602.836
L135.492 603.491
L136.805 602.836
L138.117 602.836
L139.43 602.182
L143.369 602.182
L144.682 600.873
L145.995 600.873
L147.308 600.218
L148.621 598.909
L149.934 599.564
L151.247 599.564
L152.56 597.6
L153.873 597.6
L155.186 596.945
L157.812 596.945
L159.125 594.982
L160.437 594.982
L163.063 592.364
L167.002 590.4
L168.315 589.091
L170.941 585.164
L172.254 585.818
L173.567 582.545
L174.88 583.855
L176.193 579.927
L177.506 578.618
L178.819 576
L180.132 575.345
L181.445 570.764
L182.757 570.109
L185.383 564.873
L186.696 562.909
L189.322 555.055
L190.635 551.782
L191.948 549.818
L193.261 545.236
L194.574 538.691
L195.887 534.764
L197.2 528.873
L198.513 524.291
L199.826 517.745
L201.139 514.473
L202.452 502.036
L203.765 497.455
L205.077 494.182
L206.39 492.873
L207.703 487.636
L209.016 484.364
L210.329 484.364
L211.642 486.327
L212.955 485.673
L214.268 488.945
L215.581 489.6
L218.207 485.673
L219.52 481.091
L220.833 485.018
L222.146 480.436
L223.459 481.745
L224.772 482.4
L226.085 479.782
L227.397 480.436
L230.023 479.127
L231.336 475.855
L233.962 478.473
L235.275 475.855
L236.588 477.818
L237.901 477.164
L239.214 481.091
L240.527 477.818
L241.84 479.782
L243.153 485.673
L244.466 486.982
L245.779 490.909
L247.092 493.527
L249.717 504
L251.03 503.345
L252.343 513.818
L253.656 515.782
L254.969 524.945
L256.282 530.182
L257.595 537.382
L258.908 542.618
L260.221 552.436
L261.534 559.636
L262.847 565.527
L264.16 572.727
L266.786 585.818
L268.099 593.018
L270.725 603.491
L270.725 603.491" style="fill:none;stroke:#0000ff;stroke-linecap:square;"/>
   </g>
   <g id="line2d_2">
    <path clip-path="url(#pb6c146f3bb)" d="
M75.0963 604.8
L94.7904 604.8
L96.1033 604.145
L101.355 604.145
L102.668 604.8
L103.981 604.145
L113.172 604.145
L114.485 603.491
L115.797 603.491
L117.11 604.145
L118.423 603.491
L119.736 603.491
L121.049 602.836
L122.362 603.491
L123.675 602.836
L127.614 602.836
L128.927 602.182
L131.553 602.182
L134.179 600.873
L136.805 600.873
L138.117 600.218
L140.743 600.218
L142.056 599.564
L143.369 598.255
L144.682 597.6
L145.995 598.255
L148.621 596.945
L149.934 595.636
L151.247 595.636
L152.56 594.327
L153.873 594.327
L155.186 593.018
L156.499 592.364
L157.812 591.055
L159.125 590.4
L160.437 589.091
L161.75 589.091
L163.063 587.782
L164.376 585.818
L165.689 585.164
L167.002 585.164
L168.315 582.545
L169.628 582.545
L172.254 579.927
L173.567 575.345
L174.88 576
L177.506 570.764
L178.819 568.8
L180.132 568.145
L181.445 566.182
L182.757 561.6
L184.07 560.291
L185.383 559.636
L186.696 555.709
L188.009 552.436
L189.322 547.2
L190.635 544.582
L191.948 541.309
L193.261 534.109
L195.887 528.873
L197.2 522.327
L198.513 519.055
L202.452 501.382
L203.765 502.691
L205.077 493.527
L206.39 490.255
L207.703 490.909
L209.016 487.636
L210.329 493.527
L211.642 494.182
L212.955 490.909
L214.268 494.836
L215.581 492.218
L216.894 493.527
L218.207 495.491
L219.52 490.909
L220.833 491.564
L222.146 491.564
L223.459 488.945
L224.772 487.636
L226.085 487.636
L227.397 485.673
L228.71 487.636
L230.023 485.018
L231.336 485.018
L232.649 484.364
L235.275 485.673
L236.588 485.673
L237.901 486.327
L239.214 486.327
L240.527 488.291
L241.84 492.873
L243.153 494.182
L244.466 493.527
L245.779 498.764
L247.092 502.036
L248.405 503.345
L249.717 511.2
L251.03 513.164
L252.343 521.018
L253.656 523.636
L254.969 530.836
L256.282 533.455
L257.595 540.655
L258.908 548.509
L260.221 553.091
L262.847 567.491
L264.16 575.345
L265.473 579.927
L266.786 587.127
L268.099 593.018
L270.725 603.491
L270.725 603.491" style="fill:none;stroke:#008000;stroke-linecap:square;"/>
   </g>
   <g id="matplotlib.axis_1">
    <g id="xtick_1">
     <g id="line2d_3">
      <defs>
       <path d="
M0 0
L0 -4" id="m93b0483c22" style="stroke:#000000;stroke-width:0.5;"/>
      </defs>
      <g>
       <use style="stroke:#000000;stroke-width:0.5;" x="75.0962867647" xlink:href="#m93b0483c22" y="604.8"/>
      </g>
     </g>
     <g id="line2d_4">
      <defs>
       <path d="
M0 0
L0 4" id="m741efc42ff" style="stroke:#000000;stroke-width:0.5;"/>
      </defs>
      <g>
       <use style="stroke:#000000;stroke-width:0.5;" x="75.0962867647" xlink:href="#m741efc42ff" y="460.8"/>
      </g>
     </g>
     <g id="text_1">
      <text style="font-family:DejaVu Sans;font-size:12.0px;font-style:normal;text-anchor:middle;" transform="rotate(-0.000000, 75.096287, 617.918125)" x="75.0962867647" y="617.918125">−0.5</text>
     </g>
    </g>
    <g id="xtick_2">
     <g id="line2d_5">
      <g>
       <use style="stroke:#000000;stroke-width:0.5;" x="140.743345588" xlink:href="#m93b0483c22" y="604.8"/>
      </g>
     </g>
     <g id="line2d_6">
      <g>
       <use style="stroke:#000000;stroke-width:0.5;" x="140.743345588" xlink:href="#m741efc42ff" y="460.8"/>
      </g>
     </g>
     <g id="text_2">
      <text style="font-family:DejaVu Sans;font-size:12.0px;font-style:normal;text-anchor:middle;" transform="rotate(-0.000000, 140.743346, 617.918125)" x="140.743345588" y="617.918125">0.0</text>
     </g>
    </g>
    <g id="xtick_3">
     <g id="line2d_7">
      <g>
       <use style="stroke:#000000;stroke-width:0.5;" x="206.390404412" xlink:href="#m93b0483c22" y="604.8"/>
      </g>
     </g>
     <g id="line2d_8">
      <g>
       <use style="stroke:#000000;stroke-width:0.5;" x="206.390404412" xlink:href="#m741efc42ff" y="460.8"/>
      </g>
     </g>
     <g id="text_3">
      <text style="font-family:DejaVu Sans;font-size:12.0px;font-style:normal;text-anchor:middle;" transform="rotate(-0.000000, 206.390404, 617.918125)" x="206.390404412" y="617.918125">0.5</text>
     </g>
    </g>
    <g id="xtick_4">
     <g id="line2d_9">
      <g>
       <use style="stroke:#000000;stroke-width:0.5;" x="272.037463235" xlink:href="#m93b0483c22" y="604.8"/>
      </g>
     </g>
     <g id="line2d_10">
      <g>
       <use style="stroke:#000000;stroke-width:0.5;" x="272.037463235" xlink:href="#m741efc42ff" y="460.8"/>
      </g>
     </g>
     <g id="text_4">
      <text style="font-family:DejaVu Sans;font-size:12.0px;font-style:normal;text-anchor:middle;" transform="rotate(-0.000000, 272.037463, 617.918125)" x="272.037463235" y="617.918125">1.0</text>
     </g>
    </g>
   </g>
   <g id="matplotlib.axis_2">
    <g id="ytick_1">
     <g id="line2d_11">
      <defs>
       <path d="
M0 0
L4 0" id="m728421d6d4" style="stroke:#000000;stroke-width:0.5;"/>
      </defs>
      <g>
       <use style="stroke:#000000;stroke-width:0.5;" x="61.966875" xlink:href="#m728421d6d4" y="572.072727273"/>
      </g>
     </g>
     <g id="line2d_12">
      <defs>
       <path d="
M0 0
L-4 0" id="mcb0005524f" style="stroke:#000000;stroke-width:0.5;"/>
      </defs>
      <g>
       <use style="stroke:#000000;stroke-width:0.5;" x="285.166875" xlink:href="#mcb0005524f" y="572.072727273"/>
      </g>
     </g>
     <g id="text_5">
      <text style="font-family:DejaVu Sans;font-size:12.0px;font-style:normal;text-anchor:end;" transform="rotate(-0.000000, 57.966875, 575.383977)" x="57.966875" y="575.383977273">0.005</text>
     </g>
    </g>
    <g id="ytick_2">
     <g id="line2d_13">
      <g>
       <use style="stroke:#000000;stroke-width:0.5;" x="61.966875" xlink:href="#m728421d6d4" y="539.345454545"/>
      </g>
     </g>
     <g id="line2d_14">
      <g>
       <use style="stroke:#000000;stroke-width:0.5;" x="285.166875" xlink:href="#mcb0005524f" y="539.345454545"/>
      </g>
     </g>
     <g id="text_6">
      <text style="font-family:DejaVu Sans;font-size:12.0px;font-style:normal;text-anchor:end;" transform="rotate(-0.000000, 57.966875, 542.656705)" x="57.966875" y="542.656704545">0.010</text>
     </g>
    </g>
    <g id="ytick_3">
     <g id="line2d_15">
      <g>
       <use style="stroke:#000000;stroke-width:0.5;" x="61.966875" xlink:href="#m728421d6d4" y="506.618181818"/>
      </g>
     </g>
     <g id="line2d_16">
      <g>
       <use style="stroke:#000000;stroke-width:0.5;" x="285.166875" xlink:href="#mcb0005524f" y="506.618181818"/>
      </g>
     </g>
     <g id="text_7">
      <text style="font-family:DejaVu Sans;font-size:12.0px;font-style:normal;text-anchor:end;" transform="rotate(-0.000000, 57.966875, 509.929432)" x="57.966875" y="509.929431818">0.015</text>
     </g>
    </g>
    <g id="ytick_4">
     <g id="line2d_17">
      <g>
       <use style="stroke:#000000;stroke-width:0.5;" x="61.966875" xlink:href="#m728421d6d4" y="473.890909091"/>
      </g>
     </g>
     <g id="line2d_18">
      <g>
       <use style="stroke:#000000;stroke-width:0.5;" x="285.166875" xlink:href="#mcb0005524f" y="473.890909091"/>
      </g>
     </g>
     <g id="text_8">
      <text style="font-family:DejaVu Sans;font-size:12.0px;font-style:normal;text-anchor:end;" transform="rotate(-0.000000, 57.966875, 477.202159)" x="57.966875" y="477.202159091">0.020</text>
     </g>
    </g>
   </g>
   <g id="patch_3">
    <path d="
M61.9669 460.8
L285.167 460.8" style="fill:none;stroke:#000000;"/>
   </g>
   <g id="patch_4">
    <path d="
M285.167 604.8
L285.167 460.8" style="fill:none;stroke:#000000;"/>
   </g>
   <g id="patch_5">
    <path d="
M61.9669 604.8
L285.167 604.8" style="fill:none;stroke:#000000;"/>
   </g>
   <g id="patch_6">
    <path d="
M61.9669 604.8
L61.9669 460.8" style="fill:none;stroke:#000000;"/>
   </g>
   <g id="text_9">
    <text style="font-family:DejaVu Sans;font-size:12.0px;font-style:normal;text-anchor:start;" transform="rotate(-0.000000, 73.126875, 478.080000)" x="73.126875" y="478.08">$r = 6.5$ \AA</text>
   </g>
  </g>
  <g id="axes_2">
   <g id="patch_7">
    <path d="
M61.9669 172.8
L285.167 172.8
L285.167 28.8
L61.9669 28.8
z
" style="fill:#ffffff;"/>
   </g>
   <g id="line2d_19">
    <path clip-path="url(#p55297d57d8)" d="
M75.0963 159.709
L76.4092 159.709
L79.0351 157.091
L81.661 157.091
L82.9739 155.782
L85.5998 154.473
L86.9128 155.127
L88.2257 153.818
L89.5386 153.164
L90.8516 153.164
L92.1645 151.2
L93.4775 151.2
L94.7904 150.545
L96.1033 150.545
L97.4163 147.927
L98.7292 146.618
L101.355 145.309
L102.668 143.345
L103.981 143.345
L105.294 142.691
L107.92 138.764
L109.233 137.455
L110.546 138.109
L111.859 135.491
L113.172 133.527
L114.485 134.182
L115.797 132.218
L117.11 132.218
L118.423 130.255
L119.736 126.982
L122.362 125.673
L123.675 123.709
L124.988 123.709
L126.301 119.782
L127.614 119.127
L128.927 114.545
L130.24 116.509
L131.553 115.855
L132.866 114.545
L134.179 110.618
L135.492 111.273
L136.805 108.655
L138.117 106.691
L139.43 108
L140.743 107.345
L142.056 104.727
L143.369 104.073
L144.682 99.4909
L145.995 97.5273
L147.308 99.4909
L148.621 99.4909
L149.934 96.8727
L152.56 96.8727
L153.873 100.145
L155.186 96.8727
L156.499 92.2909
L157.812 92.9455
L159.125 92.2909
L160.437 90.3273
L161.75 92.2909
L163.063 92.9455
L164.376 89.6727
L165.689 89.6727
L167.002 86.4
L168.315 86.4
L169.628 85.0909
L170.941 84.4364
L172.254 87.0545
L173.567 83.1273
L174.88 82.4727
L176.193 84.4364
L177.506 82.4727
L178.819 82.4727
L180.132 83.1273
L181.445 82.4727
L182.757 83.1273
L184.07 83.1273
L185.383 83.7818
L186.696 81.8182
L188.009 87.0545
L189.322 85.0909
L190.635 87.0545
L191.948 87.0545
L193.261 88.3636
L194.574 90.9818
L195.887 90.9818
L199.826 96.8727
L201.139 103.418
L202.452 103.418
L203.765 105.382
L205.077 110.618
L206.39 113.891
L207.703 116.509
L209.016 119.782
L210.329 125.673
L211.642 130.255
L212.955 132.218
L214.268 136.8
L215.581 137.455
L216.894 140.073
L218.207 144.655
L222.146 148.582
L223.459 151.2
L224.772 153.164
L226.085 151.855
L227.397 155.782
L228.71 156.436
L230.023 157.745
L231.336 158.4
L232.649 161.673
L233.962 162.327
L235.275 163.636
L243.153 167.564
L244.466 167.564
L248.405 169.527
L252.343 169.527
L254.969 170.836
L256.282 170.836
L257.595 171.491
L258.908 171.491
L260.221 172.145
L265.473 172.145
L266.786 172.8
L270.725 172.8
L270.725 172.8" style="fill:none;stroke:#0000ff;stroke-linecap:square;"/>
   </g>
   <g id="line2d_20">
    <path clip-path="url(#p55297d57d8)" d="
M75.0963 151.855
L76.4092 151.855
L77.7222 149.891
L79.0351 150.545
L80.3481 149.891
L81.661 148.582
L84.2869 148.582
L85.5998 147.273
L88.2257 145.964
L89.5386 144.655
L90.8516 144
L92.1645 142.691
L93.4775 143.345
L94.7904 142.691
L96.1033 140.727
L97.4163 139.418
L98.7292 139.418
L100.042 137.455
L103.981 135.491
L105.294 134.182
L106.607 134.182
L109.233 131.564
L110.546 129.6
L111.859 128.291
L117.11 125.673
L118.423 123.055
L119.736 123.055
L121.049 119.127
L122.362 118.473
L123.675 116.509
L124.988 115.855
L126.301 116.509
L127.614 115.2
L128.927 114.545
L130.24 113.236
L131.553 112.582
L132.866 110.618
L135.492 108
L136.805 108
L138.117 106.691
L139.43 106.691
L140.743 105.382
L142.056 102.764
L144.682 102.764
L145.995 100.8
L149.934 98.8364
L151.247 98.8364
L152.56 96.2182
L153.873 97.5273
L155.186 95.5636
L157.812 94.2545
L159.125 92.9455
L160.437 94.9091
L161.75 94.9091
L163.063 92.2909
L164.376 93.6
L165.689 93.6
L167.002 91.6364
L168.315 91.6364
L172.254 89.6727
L174.88 89.6727
L176.193 90.3273
L177.506 89.0182
L178.819 91.6364
L180.132 90.3273
L181.445 91.6364
L182.757 92.2909
L184.07 90.9818
L185.383 90.9818
L188.009 92.2909
L189.322 94.2545
L190.635 92.9455
L191.948 92.9455
L193.261 96.8727
L194.574 98.8364
L195.887 100.145
L197.2 100.8
L198.513 102.764
L199.826 105.382
L201.139 107.345
L202.452 110.618
L203.765 115.2
L205.077 117.164
L206.39 120.436
L207.703 123.055
L209.016 127.636
L210.329 130.909
L211.642 134.836
L212.955 140.073
L214.268 141.382
L215.581 144.655
L216.894 146.618
L219.52 149.236
L220.833 151.2
L226.085 156.436
L227.397 157.091
L228.71 159.055
L231.336 160.364
L232.649 161.673
L233.962 162.327
L235.275 164.291
L236.588 164.291
L240.527 166.255
L241.84 166.255
L243.153 167.564
L244.466 167.564
L247.092 168.873
L248.405 168.873
L251.03 170.182
L253.656 170.182
L254.969 170.836
L256.282 170.836
L257.595 171.491
L260.221 171.491
L261.534 172.145
L265.473 172.145
L266.786 172.8
L270.725 172.8
L270.725 172.8" style="fill:none;stroke:#008000;stroke-linecap:square;"/>
   </g>
   <g id="matplotlib.axis_3">
    <g id="xtick_5">
     <g id="line2d_21">
      <g>
       <use style="stroke:#000000;stroke-width:0.5;" x="75.0962867647" xlink:href="#m93b0483c22" y="172.8"/>
      </g>
     </g>
     <g id="line2d_22">
      <g>
       <use style="stroke:#000000;stroke-width:0.5;" x="75.0962867647" xlink:href="#m741efc42ff" y="28.8"/>
      </g>
     </g>
    </g>
    <g id="xtick_6">
     <g id="line2d_23">
      <g>
       <use style="stroke:#000000;stroke-width:0.5;" x="140.743345588" xlink:href="#m93b0483c22" y="172.8"/>
      </g>
     </g>
     <g id="line2d_24">
      <g>
       <use style="stroke:#000000;stroke-width:0.5;" x="140.743345588" xlink:href="#m741efc42ff" y="28.8"/>
      </g>
     </g>
    </g>
    <g id="xtick_7">
     <g id="line2d_25">
      <g>
       <use style="stroke:#000000;stroke-width:0.5;" x="206.390404412" xlink:href="#m93b0483c22" y="172.8"/>
      </g>
     </g>
     <g id="line2d_26">
      <g>
       <use style="stroke:#000000;stroke-width:0.5;" x="206.390404412" xlink:href="#m741efc42ff" y="28.8"/>
      </g>
     </g>
    </g>
    <g id="xtick_8">
     <g id="line2d_27">
      <g>
       <use style="stroke:#000000;stroke-width:0.5;" x="272.037463235" xlink:href="#m93b0483c22" y="172.8"/>
      </g>
     </g>
     <g id="line2d_28">
      <g>
       <use style="stroke:#000000;stroke-width:0.5;" x="272.037463235" xlink:href="#m741efc42ff" y="28.8"/>
      </g>
     </g>
    </g>
   </g>
   <g id="matplotlib.axis_4">
    <g id="ytick_5">
     <g id="line2d_29">
      <g>
       <use style="stroke:#000000;stroke-width:0.5;" x="61.966875" xlink:href="#m728421d6d4" y="140.072727273"/>
      </g>
     </g>
     <g id="line2d_30">
      <g>
       <use style="stroke:#000000;stroke-width:0.5;" x="285.166875" xlink:href="#mcb0005524f" y="140.072727273"/>
      </g>
     </g>
     <g id="text_10">
      <text style="font-family:DejaVu Sans;font-size:12.0px;font-style:normal;text-anchor:end;" transform="rotate(-0.000000, 57.966875, 143.383977)" x="57.966875" y="143.383977273">0.005</text>
     </g>
    </g>
    <g id="ytick_6">
     <g id="line2d_31">
      <g>
       <use style="stroke:#000000;stroke-width:0.5;" x="61.966875" xlink:href="#m728421d6d4" y="107.345454545"/>
      </g>
     </g>
     <g id="line2d_32">
      <g>
       <use style="stroke:#000000;stroke-width:0.5;" x="285.166875" xlink:href="#mcb0005524f" y="107.345454545"/>
      </g>
     </g>
     <g id="text_11">
      <text style="font-family:DejaVu Sans;font-size:12.0px;font-style:normal;text-anchor:end;" transform="rotate(-0.000000, 57.966875, 110.656705)" x="57.966875" y="110.656704545">0.010</text>
     </g>
    </g>
    <g id="ytick_7">
     <g id="line2d_33">
      <g>
       <use style="stroke:#000000;stroke-width:0.5;" x="61.966875" xlink:href="#m728421d6d4" y="74.6181818182"/>
      </g>
     </g>
     <g id="line2d_34">
      <g>
       <use style="stroke:#000000;stroke-width:0.5;" x="285.166875" xlink:href="#mcb0005524f" y="74.6181818182"/>
      </g>
     </g>
     <g id="text_12">
      <text style="font-family:DejaVu Sans;font-size:12.0px;font-style:normal;text-anchor:end;" transform="rotate(-0.000000, 57.966875, 77.929432)" x="57.966875" y="77.9294318182">0.015</text>
     </g>
    </g>
    <g id="ytick_8">
     <g id="line2d_35">
      <g>
       <use style="stroke:#000000;stroke-width:0.5;" x="61.966875" xlink:href="#m728421d6d4" y="41.8909090909"/>
      </g>
     </g>
     <g id="line2d_36">
      <g>
       <use style="stroke:#000000;stroke-width:0.5;" x="285.166875" xlink:href="#mcb0005524f" y="41.8909090909"/>
      </g>
     </g>
     <g id="text_13">
      <text style="font-family:DejaVu Sans;font-size:12.0px;font-style:normal;text-anchor:end;" transform="rotate(-0.000000, 57.966875, 45.202159)" x="57.966875" y="45.2021590909">0.020</text>
     </g>
    </g>
   </g>
   <g id="patch_8">
    <path d="
M61.9669 28.8
L285.167 28.8" style="fill:none;stroke:#000000;"/>
   </g>
   <g id="patch_9">
    <path d="
M285.167 172.8
L285.167 28.8" style="fill:none;stroke:#000000;"/>
   </g>
   <g id="patch_10">
    <path d="
M61.9669 172.8
L285.167 172.8" style="fill:none;stroke:#000000;"/>
   </g>
   <g id="patch_11">
    <path d="
M61.9669 172.8
L61.9669 28.8" style="fill:none;stroke:#000000;"/>
   </g>
   <g id="text_14">
    <text style="font-family:DejaVu Sans;font-size:12.0px;font-style:normal;text-anchor:start;" transform="rotate(-0.000000, 73.126875, 46.080000)" x="73.126875" y="46.08">$r = 2.0$ \AA</text>
   </g>
   <g id="legend_1">
    <g id="patch_12">
     <path d="
M133.076 673.456
L442.127 673.456
Q445.007 673.456 445.007 670.576
L445.007 650.88
Q445.007 648 442.127 648
L133.076 648
Q130.196 648 130.196 650.88
L130.196 670.576
Q130.196 673.456 133.076 673.456
z
" style="fill:#ffffff;stroke:#000000;"/>
    </g>
    <g id="line2d_37">
     <path d="
M140.276 659.662
L160.436 659.662" style="fill:none;stroke:#0000ff;stroke-linecap:square;"/>
    </g>
    <g id="line2d_38"/>
    <g id="text_15">
     <text style="font-family:DejaVu Sans;font-size:14.4px;font-style:normal;text-anchor:start;" transform="rotate(-0.000000, 176.275875, 664.701750)" x="176.275875" y="664.70175">Flat fracture</text>
    </g>
    <g id="line2d_39">
     <path d="
M296.916 659.662
L317.076 659.662" style="fill:none;stroke:#008000;stroke-linecap:square;"/>
    </g>
    <g id="line2d_40"/>
    <g id="text_16">
     <text style="font-family:DejaVu Sans;font-size:14.4px;font-style:normal;text-anchor:start;" transform="rotate(-0.000000, 332.916375, 664.701750)" x="332.916375" y="664.70175">Rough fracture</text>
    </g>
   </g>
  </g>
  <g id="axes_3">
   <g id="patch_13">
    <path d="
M285.167 172.8
L508.367 172.8
L508.367 28.8
L285.167 28.8
z
" style="fill:#ffffff;"/>
   </g>
   <g id="line2d_41">
    <path clip-path="url(#p80afbbe4f7)" d="
M298.296 149.236
L299.609 150.545
L300.922 153.818
L302.235 151.2
L303.548 147.273
L304.861 151.2
L306.174 146.618
L307.487 142.691
L308.8 151.2
L310.113 147.927
L311.426 141.382
L312.739 151.2
L314.052 146.618
L315.365 144
L316.677 142.691
L317.99 137.455
L319.303 147.927
L320.616 144
L321.929 132.218
L323.242 137.455
L324.555 127.636
L325.868 144
L327.181 135.491
L328.494 132.218
L329.807 132.218
L331.12 126.327
L332.433 125.673
L333.746 134.836
L335.059 123.709
L336.372 123.055
L337.685 126.327
L338.997 121.091
L340.31 130.909
L341.623 128.291
L342.936 115.855
L344.249 122.4
L345.562 121.745
L346.875 119.782
L348.188 114.545
L349.501 119.782
L350.814 105.382
L352.127 111.273
L353.44 105.382
L354.753 104.073
L356.066 111.927
L357.379 111.273
L358.692 106.691
L360.005 98.8364
L361.317 94.2545
L362.63 110.618
L363.943 108
L365.256 100.145
L366.569 98.8364
L367.882 100.8
L369.195 97.5273
L370.508 92.9455
L371.821 104.727
L373.134 90.3273
L374.447 67.4182
L375.76 92.2909
L377.073 94.2545
L378.386 81.8182
L379.699 94.2545
L381.012 91.6364
L382.325 83.7818
L383.637 89.6727
L384.95 83.7818
L386.263 79.2
L387.576 98.8364
L388.889 92.9455
L390.202 89.0182
L392.828 85.0909
L394.141 92.9455
L395.454 81.8182
L396.767 95.5636
L398.08 83.7818
L399.393 80.5091
L400.706 96.2182
L402.019 92.9455
L403.332 92.2909
L404.645 92.9455
L405.957 109.964
L407.27 84.4364
L409.896 92.2909
L411.209 105.382
L412.522 94.9091
L413.835 102.764
L415.148 105.382
L416.461 110.618
L417.774 103.418
L419.087 115.2
L420.4 117.818
L421.713 101.455
L423.026 112.582
L424.339 108.655
L425.652 113.891
L426.965 116.509
L428.277 123.709
L429.59 124.364
L430.903 127.636
L432.216 125.018
L433.529 129.6
L434.842 139.418
L436.155 141.382
L437.468 140.073
L438.781 140.727
L440.094 149.891
L441.407 144
L442.72 151.855
L444.033 153.164
L445.346 150.545
L446.659 156.436
L449.285 162.982
L450.597 161.018
L451.91 161.018
L453.223 165.6
L454.536 164.945
L455.849 160.364
L457.162 164.291
L458.475 167.564
L459.788 170.182
L461.101 169.527
L462.414 166.909
L463.727 166.909
L465.04 167.564
L466.353 169.527
L467.666 170.182
L468.979 166.909
L470.292 170.836
L471.605 170.182
L472.917 168.873
L475.543 171.491
L476.856 169.527
L478.169 171.491
L479.482 170.836
L480.795 172.145
L482.108 172.8
L483.421 172.145
L487.36 172.145
L488.673 172.8
L493.925 172.8
L493.925 172.8" style="fill:none;stroke:#0000ff;stroke-linecap:square;"/>
   </g>
   <g id="line2d_42">
    <path clip-path="url(#p80afbbe4f7)" d="
M298.296 145.964
L299.609 149.891
L300.922 142.036
L302.235 146.618
L303.548 145.309
L304.861 139.418
L306.174 140.727
L307.487 134.182
L308.8 138.764
L310.113 138.109
L311.426 135.491
L312.739 140.073
L314.052 127.636
L315.365 133.527
L316.677 142.691
L317.99 136.145
L319.303 132.218
L320.616 125.018
L321.929 134.836
L323.242 130.909
L324.555 121.745
L325.868 117.164
L327.181 126.327
L328.494 118.473
L329.807 118.473
L331.12 113.236
L332.433 116.509
L333.746 111.927
L335.059 111.273
L336.372 119.127
L337.685 110.618
L338.997 118.473
L340.31 113.236
L341.623 119.127
L342.936 118.473
L344.249 116.509
L345.562 115.2
L346.875 121.091
L348.188 123.709
L349.501 107.345
L350.814 108.655
L352.127 109.309
L353.44 119.782
L354.753 120.436
L356.066 112.582
L357.379 109.964
L358.692 118.473
L360.005 121.745
L361.317 110.618
L362.63 114.545
L365.256 109.309
L366.569 111.273
L367.882 111.927
L369.195 119.782
L370.508 126.327
L371.821 111.273
L373.134 108.655
L374.447 108
L375.76 93.6
L377.073 111.273
L378.386 104.727
L379.699 106.691
L381.012 117.164
L382.325 93.6
L383.637 97.5273
L384.95 104.727
L386.263 102.764
L387.576 104.727
L388.889 104.073
L390.202 94.2545
L391.515 101.455
L392.828 88.3636
L394.141 98.1818
L395.454 98.8364
L396.767 98.1818
L398.08 106.691
L399.393 104.073
L400.706 92.2909
L402.019 106.036
L403.332 95.5636
L404.645 87.7091
L405.957 104.727
L407.27 96.8727
L408.583 86.4
L409.896 95.5636
L411.209 89.6727
L412.522 89.6727
L413.835 99.4909
L415.148 99.4909
L416.461 105.382
L417.774 94.9091
L419.087 81.8182
L420.4 101.455
L421.713 106.691
L423.026 105.382
L424.339 110.618
L425.652 128.945
L426.965 125.018
L428.277 118.473
L429.59 125.673
L430.903 138.764
L432.216 125.673
L433.529 129.6
L434.842 134.182
L436.155 144
L437.468 140.073
L438.781 142.691
L440.094 145.964
L441.407 147.927
L442.72 151.2
L444.033 155.782
L445.346 151.855
L446.659 143.345
L447.972 153.818
L449.285 158.4
L450.597 156.436
L451.91 151.855
L453.223 157.745
L454.536 160.364
L455.849 160.364
L457.162 162.327
L458.475 162.327
L461.101 164.945
L462.414 167.564
L463.727 161.673
L465.04 162.982
L466.353 163.636
L467.666 165.6
L468.979 166.255
L470.292 162.982
L471.605 167.564
L472.917 166.255
L474.23 168.873
L475.543 168.873
L476.856 171.491
L479.482 171.491
L480.795 170.836
L482.108 171.491
L483.421 172.8
L484.734 171.491
L486.047 172.145
L487.36 172.145
L488.673 172.8
L493.925 172.8
L493.925 172.8" style="fill:none;stroke:#008000;stroke-linecap:square;"/>
   </g>
   <g id="matplotlib.axis_5">
    <g id="xtick_9">
     <g id="line2d_43">
      <g>
       <use style="stroke:#000000;stroke-width:0.5;" x="298.296286765" xlink:href="#m93b0483c22" y="172.8"/>
      </g>
     </g>
     <g id="line2d_44">
      <g>
       <use style="stroke:#000000;stroke-width:0.5;" x="298.296286765" xlink:href="#m741efc42ff" y="28.8"/>
      </g>
     </g>
    </g>
    <g id="xtick_10">
     <g id="line2d_45">
      <g>
       <use style="stroke:#000000;stroke-width:0.5;" x="363.943345588" xlink:href="#m93b0483c22" y="172.8"/>
      </g>
     </g>
     <g id="line2d_46">
      <g>
       <use style="stroke:#000000;stroke-width:0.5;" x="363.943345588" xlink:href="#m741efc42ff" y="28.8"/>
      </g>
     </g>
    </g>
    <g id="xtick_11">
     <g id="line2d_47">
      <g>
       <use style="stroke:#000000;stroke-width:0.5;" x="429.590404412" xlink:href="#m93b0483c22" y="172.8"/>
      </g>
     </g>
     <g id="line2d_48">
      <g>
       <use style="stroke:#000000;stroke-width:0.5;" x="429.590404412" xlink:href="#m741efc42ff" y="28.8"/>
      </g>
     </g>
    </g>
    <g id="xtick_12">
     <g id="line2d_49">
      <g>
       <use style="stroke:#000000;stroke-width:0.5;" x="495.237463235" xlink:href="#m93b0483c22" y="172.8"/>
      </g>
     </g>
     <g id="line2d_50">
      <g>
       <use style="stroke:#000000;stroke-width:0.5;" x="495.237463235" xlink:href="#m741efc42ff" y="28.8"/>
      </g>
     </g>
    </g>
   </g>
   <g id="matplotlib.axis_6">
    <g id="ytick_9">
     <g id="line2d_51">
      <g>
       <use style="stroke:#000000;stroke-width:0.5;" x="285.166875" xlink:href="#m728421d6d4" y="140.072727273"/>
      </g>
     </g>
     <g id="line2d_52">
      <g>
       <use style="stroke:#000000;stroke-width:0.5;" x="508.366875" xlink:href="#mcb0005524f" y="140.072727273"/>
      </g>
     </g>
    </g>
    <g id="ytick_10">
     <g id="line2d_53">
      <g>
       <use style="stroke:#000000;stroke-width:0.5;" x="285.166875" xlink:href="#m728421d6d4" y="107.345454545"/>
      </g>
     </g>
     <g id="line2d_54">
      <g>
       <use style="stroke:#000000;stroke-width:0.5;" x="508.366875" xlink:href="#mcb0005524f" y="107.345454545"/>
      </g>
     </g>
    </g>
    <g id="ytick_11">
     <g id="line2d_55">
      <g>
       <use style="stroke:#000000;stroke-width:0.5;" x="285.166875" xlink:href="#m728421d6d4" y="74.6181818182"/>
      </g>
     </g>
     <g id="line2d_56">
      <g>
       <use style="stroke:#000000;stroke-width:0.5;" x="508.366875" xlink:href="#mcb0005524f" y="74.6181818182"/>
      </g>
     </g>
    </g>
    <g id="ytick_12">
     <g id="line2d_57">
      <g>
       <use style="stroke:#000000;stroke-width:0.5;" x="285.166875" xlink:href="#m728421d6d4" y="41.8909090909"/>
      </g>
     </g>
     <g id="line2d_58">
      <g>
       <use style="stroke:#000000;stroke-width:0.5;" x="508.366875" xlink:href="#mcb0005524f" y="41.8909090909"/>
      </g>
     </g>
    </g>
   </g>
   <g id="patch_14">
    <path d="
M285.167 28.8
L508.367 28.8" style="fill:none;stroke:#000000;"/>
   </g>
   <g id="patch_15">
    <path d="
M508.367 172.8
L508.367 28.8" style="fill:none;stroke:#000000;"/>
   </g>
   <g id="patch_16">
    <path d="
M285.167 172.8
L508.367 172.8" style="fill:none;stroke:#000000;"/>
   </g>
   <g id="patch_17">
    <path d="
M285.167 172.8
L285.167 28.8" style="fill:none;stroke:#000000;"/>
   </g>
   <g id="text_17">
    <text style="font-family:DejaVu Sans;font-size:12.0px;font-style:normal;text-anchor:start;" transform="rotate(-0.000000, 296.326875, 46.080000)" x="296.326875" y="46.08">$r = 3.5$ \AA</text>
   </g>
  </g>
  <g id="axes_4">
   <g id="patch_18">
    <path d="
M61.9669 316.8
L285.167 316.8
L285.167 172.8
L61.9669 172.8
z
" style="fill:#ffffff;"/>
   </g>
   <g id="line2d_59">
    <path clip-path="url(#p0e171917b9)" d="
M75.0963 316.145
L76.4092 315.491
L77.7222 316.145
L79.0351 315.491
L85.5998 315.491
L86.9128 314.836
L88.2257 315.491
L89.5386 314.836
L93.4775 314.836
L94.7904 314.182
L100.042 314.182
L101.355 313.527
L103.981 313.527
L105.294 312.873
L106.607 312.873
L107.92 312.218
L109.233 312.873
L111.859 311.564
L113.172 311.564
L114.485 310.909
L115.797 310.909
L118.423 309.6
L119.736 310.255
L123.675 308.291
L124.988 306.327
L127.614 306.327
L128.927 303.709
L130.24 304.364
L131.553 303.709
L135.492 299.782
L136.805 299.127
L138.117 299.782
L139.43 296.509
L140.743 295.855
L142.056 293.891
L143.369 293.891
L144.682 293.236
L145.995 290.618
L147.308 289.309
L148.621 288.655
L149.934 287.345
L151.247 287.345
L152.56 283.418
L153.873 282.764
L155.186 280.145
L156.499 278.182
L157.812 278.836
L159.125 276.873
L160.437 274.255
L161.75 270.982
L163.063 268.364
L164.376 270.327
L167.002 266.4
L169.628 265.091
L170.941 260.509
L172.254 256.582
L173.567 258.545
L174.88 252.655
L177.506 251.345
L178.819 246.764
L180.132 247.418
L181.445 247.418
L182.757 241.527
L184.07 239.564
L185.383 232.364
L186.696 233.018
L188.009 228.436
L189.322 226.473
L190.635 223.2
L191.948 214.691
L193.261 214.036
L194.574 212.727
L195.887 208.145
L197.2 206.836
L198.513 204.873
L199.826 203.564
L201.139 202.909
L202.452 197.673
L205.077 198.982
L207.703 204.218
L209.016 208.145
L210.329 204.873
L211.642 213.382
L212.955 217.964
L214.268 223.855
L215.581 224.509
L216.894 228.436
L218.207 229.745
L219.52 236.291
L220.833 234.327
L222.146 238.255
L223.459 240.873
L224.772 239.564
L226.085 241.527
L228.71 246.764
L230.023 244.145
L232.649 248.073
L233.962 250.691
L235.275 247.418
L236.588 248.073
L237.901 251.345
L239.214 253.964
L240.527 253.309
L243.153 257.236
L244.466 257.236
L245.779 259.855
L247.092 261.818
L248.405 264.436
L249.717 269.018
L251.03 269.673
L252.343 270.982
L253.656 275.564
L254.969 277.527
L256.282 281.455
L257.595 282.764
L258.908 286.691
L261.534 293.236
L262.847 297.818
L264.16 301.091
L265.473 303.709
L268.099 311.564
L269.412 314.182
L270.725 316.145
L270.725 316.145" style="fill:none;stroke:#0000ff;stroke-linecap:square;"/>
   </g>
   <g id="line2d_60">
    <path clip-path="url(#p0e171917b9)" d="
M75.0963 314.182
L76.4092 314.182
L77.7222 313.527
L79.0351 313.527
L80.3481 314.182
L82.9739 312.873
L84.2869 313.527
L86.9128 312.218
L88.2257 312.873
L89.5386 312.218
L92.1645 312.218
L93.4775 311.564
L94.7904 311.564
L96.1033 310.255
L97.4163 310.255
L98.7292 310.909
L101.355 309.6
L105.294 309.6
L107.92 308.291
L109.233 308.291
L111.859 306.982
L113.172 306.982
L114.485 305.018
L115.797 306.327
L117.11 304.364
L118.423 303.709
L121.049 303.709
L122.362 302.4
L124.988 301.091
L126.301 299.782
L127.614 297.818
L128.927 298.473
L130.24 297.164
L131.553 295.2
L132.866 296.509
L134.179 293.891
L135.492 292.582
L136.805 290.618
L138.117 289.964
L139.43 289.964
L140.743 289.309
L142.056 286.036
L143.369 284.073
L144.682 286.036
L145.995 282.109
L147.308 282.109
L148.621 279.491
L151.247 278.182
L152.56 275.564
L153.873 276.218
L155.186 273.6
L156.499 272.291
L159.125 267.055
L160.437 268.364
L161.75 265.745
L163.063 262.473
L164.376 261.164
L165.689 261.164
L167.002 259.855
L168.315 256.582
L169.628 255.273
L170.941 254.618
L172.254 250.691
L173.567 250.036
L174.88 250.691
L176.193 245.455
L177.506 242.836
L178.819 242.836
L180.132 240.218
L181.445 238.255
L182.757 237.6
L184.07 231.709
L185.383 229.745
L186.696 229.745
L188.009 225.818
L189.322 225.164
L190.635 223.2
L191.948 221.891
L193.261 217.964
L194.574 214.691
L197.2 213.382
L198.513 210.764
L201.139 209.455
L202.452 211.418
L203.765 211.418
L205.077 209.455
L206.39 213.382
L207.703 216.655
L209.016 218.618
L210.329 223.855
L211.642 228.436
L212.955 229.745
L214.268 233.018
L215.581 238.255
L216.894 239.564
L218.207 244.145
L219.52 245.455
L220.833 248.727
L222.146 248.727
L223.459 250.036
L224.772 253.309
L226.085 252.655
L228.71 253.964
L230.023 255.273
L231.336 254.618
L232.649 259.2
L233.962 257.891
L236.588 260.509
L237.901 260.509
L240.527 264.436
L241.84 263.782
L243.153 266.4
L244.466 267.055
L245.779 268.364
L247.092 270.982
L248.405 272.291
L252.343 278.182
L253.656 278.836
L257.595 288.655
L258.908 289.309
L261.534 294.545
L262.847 299.127
L264.16 301.745
L265.473 305.673
L266.786 308.945
L269.412 314.182
L270.725 316.145
L270.725 316.145" style="fill:none;stroke:#008000;stroke-linecap:square;"/>
   </g>
   <g id="matplotlib.axis_7">
    <g id="xtick_13">
     <g id="line2d_61">
      <g>
       <use style="stroke:#000000;stroke-width:0.5;" x="75.0962867647" xlink:href="#m93b0483c22" y="316.8"/>
      </g>
     </g>
     <g id="line2d_62">
      <g>
       <use style="stroke:#000000;stroke-width:0.5;" x="75.0962867647" xlink:href="#m741efc42ff" y="172.8"/>
      </g>
     </g>
    </g>
    <g id="xtick_14">
     <g id="line2d_63">
      <g>
       <use style="stroke:#000000;stroke-width:0.5;" x="140.743345588" xlink:href="#m93b0483c22" y="316.8"/>
      </g>
     </g>
     <g id="line2d_64">
      <g>
       <use style="stroke:#000000;stroke-width:0.5;" x="140.743345588" xlink:href="#m741efc42ff" y="172.8"/>
      </g>
     </g>
    </g>
    <g id="xtick_15">
     <g id="line2d_65">
      <g>
       <use style="stroke:#000000;stroke-width:0.5;" x="206.390404412" xlink:href="#m93b0483c22" y="316.8"/>
      </g>
     </g>
     <g id="line2d_66">
      <g>
       <use style="stroke:#000000;stroke-width:0.5;" x="206.390404412" xlink:href="#m741efc42ff" y="172.8"/>
      </g>
     </g>
    </g>
    <g id="xtick_16">
     <g id="line2d_67">
      <g>
       <use style="stroke:#000000;stroke-width:0.5;" x="272.037463235" xlink:href="#m93b0483c22" y="316.8"/>
      </g>
     </g>
     <g id="line2d_68">
      <g>
       <use style="stroke:#000000;stroke-width:0.5;" x="272.037463235" xlink:href="#m741efc42ff" y="172.8"/>
      </g>
     </g>
    </g>
   </g>
   <g id="matplotlib.axis_8">
    <g id="ytick_13">
     <g id="line2d_69">
      <g>
       <use style="stroke:#000000;stroke-width:0.5;" x="61.966875" xlink:href="#m728421d6d4" y="284.072727273"/>
      </g>
     </g>
     <g id="line2d_70">
      <g>
       <use style="stroke:#000000;stroke-width:0.5;" x="285.166875" xlink:href="#mcb0005524f" y="284.072727273"/>
      </g>
     </g>
     <g id="text_18">
      <text style="font-family:DejaVu Sans;font-size:12.0px;font-style:normal;text-anchor:end;" transform="rotate(-0.000000, 57.966875, 287.383977)" x="57.966875" y="287.383977273">0.005</text>
     </g>
    </g>
    <g id="ytick_14">
     <g id="line2d_71">
      <g>
       <use style="stroke:#000000;stroke-width:0.5;" x="61.966875" xlink:href="#m728421d6d4" y="251.345454545"/>
      </g>
     </g>
     <g id="line2d_72">
      <g>
       <use style="stroke:#000000;stroke-width:0.5;" x="285.166875" xlink:href="#mcb0005524f" y="251.345454545"/>
      </g>
     </g>
     <g id="text_19">
      <text style="font-family:DejaVu Sans;font-size:12.0px;font-style:normal;text-anchor:end;" transform="rotate(-0.000000, 57.966875, 254.656705)" x="57.966875" y="254.656704545">0.010</text>
     </g>
    </g>
    <g id="ytick_15">
     <g id="line2d_73">
      <g>
       <use style="stroke:#000000;stroke-width:0.5;" x="61.966875" xlink:href="#m728421d6d4" y="218.618181818"/>
      </g>
     </g>
     <g id="line2d_74">
      <g>
       <use style="stroke:#000000;stroke-width:0.5;" x="285.166875" xlink:href="#mcb0005524f" y="218.618181818"/>
      </g>
     </g>
     <g id="text_20">
      <text style="font-family:DejaVu Sans;font-size:12.0px;font-style:normal;text-anchor:end;" transform="rotate(-0.000000, 57.966875, 221.929432)" x="57.966875" y="221.929431818">0.015</text>
     </g>
    </g>
    <g id="ytick_16">
     <g id="line2d_75">
      <g>
       <use style="stroke:#000000;stroke-width:0.5;" x="61.966875" xlink:href="#m728421d6d4" y="185.890909091"/>
      </g>
     </g>
     <g id="line2d_76">
      <g>
       <use style="stroke:#000000;stroke-width:0.5;" x="285.166875" xlink:href="#mcb0005524f" y="185.890909091"/>
      </g>
     </g>
     <g id="text_21">
      <text style="font-family:DejaVu Sans;font-size:12.0px;font-style:normal;text-anchor:end;" transform="rotate(-0.000000, 57.966875, 189.202159)" x="57.966875" y="189.202159091">0.020</text>
     </g>
    </g>
   </g>
   <g id="patch_19">
    <path d="
M61.9669 172.8
L285.167 172.8" style="fill:none;stroke:#000000;"/>
   </g>
   <g id="patch_20">
    <path d="
M285.167 316.8
L285.167 172.8" style="fill:none;stroke:#000000;"/>
   </g>
   <g id="patch_21">
    <path d="
M61.9669 316.8
L285.167 316.8" style="fill:none;stroke:#000000;"/>
   </g>
   <g id="patch_22">
    <path d="
M61.9669 316.8
L61.9669 172.8" style="fill:none;stroke:#000000;"/>
   </g>
   <g id="text_22">
    <text style="font-family:DejaVu Sans;font-size:12.0px;font-style:normal;text-anchor:start;" transform="rotate(-0.000000, 73.126875, 190.080000)" x="73.126875" y="190.08">$r = 4.5$ \AA</text>
   </g>
  </g>
  <g id="axes_5">
   <g id="patch_23">
    <path d="
M285.167 316.8
L508.367 316.8
L508.367 172.8
L285.167 172.8
z
" style="fill:#ffffff;"/>
   </g>
   <g id="line2d_77">
    <path clip-path="url(#p2345f084b4)" d="
M298.296 316.8
L310.113 316.8
L311.426 316.145
L312.739 316.8
L315.365 316.8
L316.677 316.145
L317.99 316.8
L319.303 316.145
L329.807 316.145
L331.12 315.491
L335.059 315.491
L336.372 316.145
L337.685 315.491
L340.31 315.491
L341.623 314.836
L342.936 314.836
L344.249 314.182
L345.562 314.182
L346.875 314.836
L348.188 314.182
L349.501 314.182
L352.127 312.873
L353.44 313.527
L354.753 312.218
L356.066 312.873
L357.379 312.218
L358.692 310.909
L360.005 310.909
L361.317 309.6
L362.63 310.255
L363.943 308.945
L365.256 308.945
L366.569 308.291
L367.882 306.982
L369.195 306.982
L370.508 306.327
L371.821 305.018
L373.134 305.018
L374.447 303.709
L375.76 303.055
L377.073 301.091
L378.386 300.436
L379.699 299.127
L381.012 297.164
L382.325 297.818
L383.637 295.2
L384.95 295.2
L386.263 293.236
L387.576 290.618
L390.202 289.309
L391.515 286.036
L392.828 285.382
L394.141 281.455
L395.454 282.764
L396.767 278.182
L398.08 278.836
L399.393 278.836
L400.706 274.909
L402.019 270.327
L403.332 269.673
L404.645 265.745
L407.27 260.509
L408.583 257.236
L409.896 253.309
L411.209 252.655
L412.522 245.455
L413.835 244.8
L415.148 240.873
L416.461 236.291
L417.774 225.164
L419.087 223.855
L420.4 220.582
L421.713 214.691
L423.026 212.727
L424.339 206.836
L425.652 202.255
L426.965 199.636
L428.277 197.673
L429.59 199.636
L430.903 195.055
L432.216 200.291
L433.529 202.255
L434.842 202.909
L436.155 207.491
L437.468 211.418
L438.781 210.764
L440.094 211.418
L441.407 213.382
L442.72 214.691
L444.033 213.382
L445.346 216.655
L446.659 214.036
L447.972 216
L449.285 219.927
L450.597 214.036
L451.91 215.345
L453.223 214.691
L454.536 218.618
L455.849 221.891
L457.162 216.655
L458.475 214.691
L459.788 221.236
L461.101 223.2
L462.414 219.927
L463.727 225.164
L465.04 226.473
L468.979 228.436
L470.292 230.4
L471.605 230.4
L472.917 235.636
L474.23 236.291
L475.543 240.873
L476.856 244.145
L478.169 246.109
L479.482 248.727
L480.795 256.582
L482.108 260.509
L483.421 263.127
L484.734 270.327
L486.047 272.291
L487.36 283.418
L488.673 288.655
L491.299 305.018
L493.925 315.491
L493.925 315.491" style="fill:none;stroke:#0000ff;stroke-linecap:square;"/>
   </g>
   <g id="line2d_78">
    <path clip-path="url(#p2345f084b4)" d="
M298.296 315.491
L299.609 316.145
L300.922 315.491
L304.861 315.491
L306.174 314.836
L307.487 315.491
L310.113 315.491
L311.426 314.836
L315.365 314.836
L316.677 315.491
L317.99 314.836
L320.616 314.836
L321.929 314.182
L325.868 314.182
L327.181 313.527
L328.494 314.182
L329.807 314.182
L331.12 313.527
L332.433 313.527
L335.059 312.218
L336.372 312.218
L337.685 311.564
L338.997 312.218
L340.31 311.564
L341.623 311.564
L342.936 310.909
L344.249 309.6
L346.875 310.909
L352.127 308.291
L354.753 308.291
L357.379 305.673
L358.692 306.982
L360.005 305.673
L361.317 303.709
L363.943 303.709
L365.256 301.745
L367.882 300.436
L369.195 301.091
L370.508 297.818
L371.821 298.473
L373.134 296.509
L374.447 295.2
L375.76 293.236
L377.073 295.2
L378.386 293.891
L379.699 291.927
L381.012 290.618
L383.637 290.618
L384.95 288
L386.263 287.345
L387.576 283.418
L388.889 282.109
L390.202 282.764
L391.515 279.491
L392.828 278.836
L394.141 274.255
L395.454 276.218
L396.767 272.945
L398.08 272.945
L399.393 267.709
L400.706 265.745
L402.019 262.473
L403.332 266.4
L404.645 262.473
L405.957 255.927
L407.27 253.309
L408.583 253.309
L409.896 250.691
L412.522 242.836
L413.835 241.527
L415.148 238.909
L416.461 233.673
L417.774 229.091
L419.087 223.855
L420.4 219.927
L421.713 219.927
L423.026 216.655
L424.339 209.455
L425.652 207.491
L426.965 204.218
L428.277 204.873
L429.59 206.836
L430.903 204.218
L432.216 206.182
L433.529 212.073
L434.842 215.345
L436.155 215.345
L437.468 214.691
L438.781 221.236
L440.094 221.891
L441.407 221.891
L442.72 229.091
L444.033 226.473
L445.346 227.782
L446.659 230.4
L447.972 226.473
L449.285 229.745
L450.597 226.473
L451.91 227.127
L453.223 228.436
L454.536 230.4
L455.849 229.091
L458.475 229.091
L459.788 228.436
L461.101 229.091
L462.414 231.055
L463.727 229.745
L465.04 231.709
L466.353 231.709
L467.666 231.055
L468.979 233.673
L470.292 236.945
L471.605 236.291
L472.917 240.873
L474.23 240.218
L475.543 244.8
L476.856 250.036
L478.169 249.382
L479.482 255.273
L482.108 264.436
L483.421 267.709
L484.734 272.945
L486.047 280.8
L489.986 298.473
L491.299 305.018
L492.612 310.909
L493.925 315.491
L493.925 315.491" style="fill:none;stroke:#008000;stroke-linecap:square;"/>
   </g>
   <g id="matplotlib.axis_9">
    <g id="xtick_17">
     <g id="line2d_79">
      <g>
       <use style="stroke:#000000;stroke-width:0.5;" x="298.296286765" xlink:href="#m93b0483c22" y="316.8"/>
      </g>
     </g>
     <g id="line2d_80">
      <g>
       <use style="stroke:#000000;stroke-width:0.5;" x="298.296286765" xlink:href="#m741efc42ff" y="172.8"/>
      </g>
     </g>
    </g>
    <g id="xtick_18">
     <g id="line2d_81">
      <g>
       <use style="stroke:#000000;stroke-width:0.5;" x="363.943345588" xlink:href="#m93b0483c22" y="316.8"/>
      </g>
     </g>
     <g id="line2d_82">
      <g>
       <use style="stroke:#000000;stroke-width:0.5;" x="363.943345588" xlink:href="#m741efc42ff" y="172.8"/>
      </g>
     </g>
    </g>
    <g id="xtick_19">
     <g id="line2d_83">
      <g>
       <use style="stroke:#000000;stroke-width:0.5;" x="429.590404412" xlink:href="#m93b0483c22" y="316.8"/>
      </g>
     </g>
     <g id="line2d_84">
      <g>
       <use style="stroke:#000000;stroke-width:0.5;" x="429.590404412" xlink:href="#m741efc42ff" y="172.8"/>
      </g>
     </g>
    </g>
    <g id="xtick_20">
     <g id="line2d_85">
      <g>
       <use style="stroke:#000000;stroke-width:0.5;" x="495.237463235" xlink:href="#m93b0483c22" y="316.8"/>
      </g>
     </g>
     <g id="line2d_86">
      <g>
       <use style="stroke:#000000;stroke-width:0.5;" x="495.237463235" xlink:href="#m741efc42ff" y="172.8"/>
      </g>
     </g>
    </g>
   </g>
   <g id="matplotlib.axis_10">
    <g id="ytick_17">
     <g id="line2d_87">
      <g>
       <use style="stroke:#000000;stroke-width:0.5;" x="285.166875" xlink:href="#m728421d6d4" y="284.072727273"/>
      </g>
     </g>
     <g id="line2d_88">
      <g>
       <use style="stroke:#000000;stroke-width:0.5;" x="508.366875" xlink:href="#mcb0005524f" y="284.072727273"/>
      </g>
     </g>
    </g>
    <g id="ytick_18">
     <g id="line2d_89">
      <g>
       <use style="stroke:#000000;stroke-width:0.5;" x="285.166875" xlink:href="#m728421d6d4" y="251.345454545"/>
      </g>
     </g>
     <g id="line2d_90">
      <g>
       <use style="stroke:#000000;stroke-width:0.5;" x="508.366875" xlink:href="#mcb0005524f" y="251.345454545"/>
      </g>
     </g>
    </g>
    <g id="ytick_19">
     <g id="line2d_91">
      <g>
       <use style="stroke:#000000;stroke-width:0.5;" x="285.166875" xlink:href="#m728421d6d4" y="218.618181818"/>
      </g>
     </g>
     <g id="line2d_92">
      <g>
       <use style="stroke:#000000;stroke-width:0.5;" x="508.366875" xlink:href="#mcb0005524f" y="218.618181818"/>
      </g>
     </g>
    </g>
    <g id="ytick_20">
     <g id="line2d_93">
      <g>
       <use style="stroke:#000000;stroke-width:0.5;" x="285.166875" xlink:href="#m728421d6d4" y="185.890909091"/>
      </g>
     </g>
     <g id="line2d_94">
      <g>
       <use style="stroke:#000000;stroke-width:0.5;" x="508.366875" xlink:href="#mcb0005524f" y="185.890909091"/>
      </g>
     </g>
    </g>
   </g>
   <g id="patch_24">
    <path d="
M285.167 172.8
L508.367 172.8" style="fill:none;stroke:#000000;"/>
   </g>
   <g id="patch_25">
    <path d="
M508.367 316.8
L508.367 172.8" style="fill:none;stroke:#000000;"/>
   </g>
   <g id="patch_26">
    <path d="
M285.167 316.8
L508.367 316.8" style="fill:none;stroke:#000000;"/>
   </g>
   <g id="patch_27">
    <path d="
M285.167 316.8
L285.167 172.8" style="fill:none;stroke:#000000;"/>
   </g>
   <g id="text_23">
    <text style="font-family:DejaVu Sans;font-size:12.0px;font-style:normal;text-anchor:start;" transform="rotate(-0.000000, 296.326875, 190.080000)" x="296.326875" y="190.08">$r = 5.0$ \AA</text>
   </g>
  </g>
  <g id="axes_6">
   <g id="patch_28">
    <path d="
M61.9669 460.8
L285.167 460.8
L285.167 316.8
L61.9669 316.8
z
" style="fill:#ffffff;"/>
   </g>
   <g id="line2d_95">
    <path clip-path="url(#p984218ab3b)" d="
M75.0963 460.8
L81.661 460.8
L82.9739 460.145
L84.2869 460.8
L93.4775 460.8
L94.7904 460.145
L96.1033 460.8
L97.4163 460.8
L98.7292 460.145
L115.797 460.145
L117.11 459.491
L123.675 459.491
L124.988 458.182
L126.301 458.836
L127.614 458.182
L128.927 458.836
L130.24 457.527
L132.866 457.527
L134.179 456.873
L135.492 456.873
L136.805 456.218
L138.117 456.218
L139.43 455.564
L140.743 455.564
L142.056 454.255
L143.369 453.6
L144.682 454.255
L145.995 452.291
L147.308 453.6
L148.621 452.291
L149.934 450.327
L151.247 451.636
L152.56 449.673
L153.873 448.364
L155.186 446.4
L156.499 447.709
L157.812 446.4
L159.125 443.127
L160.437 445.091
L161.75 441.164
L163.063 441.818
L164.376 440.509
L165.689 438.545
L167.002 437.236
L168.315 434.618
L172.254 430.691
L173.567 428.727
L174.88 428.073
L176.193 424.145
L177.506 423.491
L178.819 420.218
L180.132 416.291
L181.445 414.982
L182.757 416.291
L184.07 408.436
L185.383 406.473
L186.696 403.2
L188.009 400.582
L189.322 394.691
L190.635 390.109
L191.948 391.418
L193.261 380.291
L194.574 377.673
L197.2 367.2
L198.513 367.2
L199.826 360
L201.139 348.873
L202.452 346.255
L203.765 344.945
L205.077 340.364
L206.39 337.091
L207.703 339.709
L210.329 338.4
L211.642 339.709
L212.955 342.327
L214.268 350.836
L215.581 342.327
L216.894 346.909
L218.207 343.636
L219.52 345.6
L220.833 349.527
L222.146 347.564
L223.459 344.945
L224.772 346.255
L226.085 341.673
L227.397 349.527
L228.71 341.018
L230.023 348.218
L231.336 354.109
L232.649 346.255
L233.962 350.836
L235.275 351.491
L236.588 354.109
L237.901 356.073
L239.214 353.455
L240.527 356.727
L241.84 361.964
L243.153 364.582
L244.466 365.236
L245.779 367.2
L247.092 371.127
L248.405 377.673
L249.717 380.945
L251.03 382.909
L252.343 388.145
L253.656 394.691
L254.969 395.345
L257.595 410.4
L258.908 410.4
L260.221 420.218
L261.534 420.873
L262.847 428.073
L266.786 445.745
L268.099 452.945
L269.412 456.873
L270.725 460.145
L270.725 460.145" style="fill:none;stroke:#0000ff;stroke-linecap:square;"/>
   </g>
   <g id="line2d_96">
    <path clip-path="url(#p984218ab3b)" d="
M75.0963 460.145
L85.5998 460.145
L86.9128 459.491
L88.2257 460.145
L93.4775 460.145
L94.7904 459.491
L96.1033 460.145
L97.4163 460.145
L98.7292 459.491
L103.981 459.491
L105.294 458.836
L106.607 458.836
L107.92 459.491
L109.233 459.491
L110.546 458.836
L113.172 458.836
L115.797 457.527
L117.11 458.182
L118.423 458.182
L121.049 456.873
L122.362 456.873
L123.675 456.218
L124.988 456.873
L126.301 455.564
L127.614 454.909
L128.927 455.564
L130.24 454.255
L131.553 454.255
L132.866 453.6
L134.179 453.6
L135.492 452.945
L136.805 452.945
L138.117 450.982
L139.43 450.982
L140.743 451.636
L142.056 449.018
L143.369 450.982
L144.682 449.673
L145.995 447.055
L147.308 445.745
L148.621 447.055
L149.934 443.127
L152.56 441.818
L153.873 439.855
L155.186 441.164
L156.499 441.164
L157.812 438.545
L159.125 437.891
L161.75 435.273
L163.063 434.618
L165.689 432
L167.002 431.345
L168.315 429.382
L169.628 426.764
L170.941 423.491
L172.254 421.527
L173.567 420.218
L174.88 417.6
L176.193 416.291
L177.506 416.291
L178.819 412.364
L180.132 409.745
L181.445 408.436
L182.757 405.818
L184.07 401.236
L185.383 397.964
L186.696 400.582
L189.322 387.491
L190.635 386.836
L191.948 381.6
L193.261 377.673
L194.574 372.436
L195.887 371.127
L197.2 363.927
L198.513 362.618
L199.826 356.727
L201.139 353.455
L202.452 349.527
L203.765 343.636
L205.077 341.673
L206.39 338.4
L207.703 339.709
L209.016 342.327
L210.329 344.291
L211.642 343.636
L212.955 344.945
L214.268 351.491
L215.581 354.764
L216.894 356.073
L218.207 350.836
L220.833 357.382
L222.146 356.073
L223.459 356.073
L224.772 361.964
L226.085 360
L227.397 361.964
L228.71 358.036
L230.023 357.382
L231.336 360
L232.649 360
L233.962 361.964
L235.275 359.345
L236.588 365.236
L237.901 362.618
L239.214 371.782
L240.527 366.545
L241.84 370.473
L243.153 372.436
L244.466 372.436
L245.779 374.4
L247.092 377.673
L248.405 385.527
L249.717 387.491
L251.03 392.073
L252.343 399.273
L253.656 400.582
L254.969 403.855
L256.282 405.818
L257.595 413.018
L258.908 419.564
L261.534 426.109
L262.847 433.309
L264.16 439.2
L266.786 448.364
L268.099 453.6
L269.412 457.527
L270.725 460.145
L270.725 460.145" style="fill:none;stroke:#008000;stroke-linecap:square;"/>
   </g>
   <g id="matplotlib.axis_11">
    <g id="xtick_21">
     <g id="line2d_97">
      <g>
       <use style="stroke:#000000;stroke-width:0.5;" x="75.0962867647" xlink:href="#m93b0483c22" y="460.8"/>
      </g>
     </g>
     <g id="line2d_98">
      <g>
       <use style="stroke:#000000;stroke-width:0.5;" x="75.0962867647" xlink:href="#m741efc42ff" y="316.8"/>
      </g>
     </g>
    </g>
    <g id="xtick_22">
     <g id="line2d_99">
      <g>
       <use style="stroke:#000000;stroke-width:0.5;" x="140.743345588" xlink:href="#m93b0483c22" y="460.8"/>
      </g>
     </g>
     <g id="line2d_100">
      <g>
       <use style="stroke:#000000;stroke-width:0.5;" x="140.743345588" xlink:href="#m741efc42ff" y="316.8"/>
      </g>
     </g>
    </g>
    <g id="xtick_23">
     <g id="line2d_101">
      <g>
       <use style="stroke:#000000;stroke-width:0.5;" x="206.390404412" xlink:href="#m93b0483c22" y="460.8"/>
      </g>
     </g>
     <g id="line2d_102">
      <g>
       <use style="stroke:#000000;stroke-width:0.5;" x="206.390404412" xlink:href="#m741efc42ff" y="316.8"/>
      </g>
     </g>
    </g>
    <g id="xtick_24">
     <g id="line2d_103">
      <g>
       <use style="stroke:#000000;stroke-width:0.5;" x="272.037463235" xlink:href="#m93b0483c22" y="460.8"/>
      </g>
     </g>
     <g id="line2d_104">
      <g>
       <use style="stroke:#000000;stroke-width:0.5;" x="272.037463235" xlink:href="#m741efc42ff" y="316.8"/>
      </g>
     </g>
    </g>
   </g>
   <g id="matplotlib.axis_12">
    <g id="ytick_21">
     <g id="line2d_105">
      <g>
       <use style="stroke:#000000;stroke-width:0.5;" x="61.966875" xlink:href="#m728421d6d4" y="428.072727273"/>
      </g>
     </g>
     <g id="line2d_106">
      <g>
       <use style="stroke:#000000;stroke-width:0.5;" x="285.166875" xlink:href="#mcb0005524f" y="428.072727273"/>
      </g>
     </g>
     <g id="text_24">
      <text style="font-family:DejaVu Sans;font-size:12.0px;font-style:normal;text-anchor:end;" transform="rotate(-0.000000, 57.966875, 431.383977)" x="57.966875" y="431.383977273">0.005</text>
     </g>
    </g>
    <g id="ytick_22">
     <g id="line2d_107">
      <g>
       <use style="stroke:#000000;stroke-width:0.5;" x="61.966875" xlink:href="#m728421d6d4" y="395.345454545"/>
      </g>
     </g>
     <g id="line2d_108">
      <g>
       <use style="stroke:#000000;stroke-width:0.5;" x="285.166875" xlink:href="#mcb0005524f" y="395.345454545"/>
      </g>
     </g>
     <g id="text_25">
      <text style="font-family:DejaVu Sans;font-size:12.0px;font-style:normal;text-anchor:end;" transform="rotate(-0.000000, 57.966875, 398.656705)" x="57.966875" y="398.656704545">0.010</text>
     </g>
    </g>
    <g id="ytick_23">
     <g id="line2d_109">
      <g>
       <use style="stroke:#000000;stroke-width:0.5;" x="61.966875" xlink:href="#m728421d6d4" y="362.618181818"/>
      </g>
     </g>
     <g id="line2d_110">
      <g>
       <use style="stroke:#000000;stroke-width:0.5;" x="285.166875" xlink:href="#mcb0005524f" y="362.618181818"/>
      </g>
     </g>
     <g id="text_26">
      <text style="font-family:DejaVu Sans;font-size:12.0px;font-style:normal;text-anchor:end;" transform="rotate(-0.000000, 57.966875, 365.929432)" x="57.966875" y="365.929431818">0.015</text>
     </g>
    </g>
    <g id="ytick_24">
     <g id="line2d_111">
      <g>
       <use style="stroke:#000000;stroke-width:0.5;" x="61.966875" xlink:href="#m728421d6d4" y="329.890909091"/>
      </g>
     </g>
     <g id="line2d_112">
      <g>
       <use style="stroke:#000000;stroke-width:0.5;" x="285.166875" xlink:href="#mcb0005524f" y="329.890909091"/>
      </g>
     </g>
     <g id="text_27">
      <text style="font-family:DejaVu Sans;font-size:12.0px;font-style:normal;text-anchor:end;" transform="rotate(-0.000000, 57.966875, 333.202159)" x="57.966875" y="333.202159091">0.020</text>
     </g>
    </g>
   </g>
   <g id="patch_29">
    <path d="
M61.9669 316.8
L285.167 316.8" style="fill:none;stroke:#000000;"/>
   </g>
   <g id="patch_30">
    <path d="
M285.167 460.8
L285.167 316.8" style="fill:none;stroke:#000000;"/>
   </g>
   <g id="patch_31">
    <path d="
M61.9669 460.8
L285.167 460.8" style="fill:none;stroke:#000000;"/>
   </g>
   <g id="patch_32">
    <path d="
M61.9669 460.8
L61.9669 316.8" style="fill:none;stroke:#000000;"/>
   </g>
   <g id="text_28">
    <text style="font-family:DejaVu Sans;font-size:12.0px;font-style:normal;text-anchor:start;" transform="rotate(-0.000000, 73.126875, 334.080000)" x="73.126875" y="334.08">$r = 5.5$ \AA</text>
   </g>
  </g>
  <g id="axes_7">
   <g id="patch_33">
    <path d="
M285.167 460.8
L508.367 460.8
L508.367 316.8
L285.167 316.8
z
" style="fill:#ffffff;"/>
   </g>
   <g id="line2d_113">
    <path clip-path="url(#pcfef4731df)" d="
M298.296 460.8
L329.807 460.8
L331.12 460.145
L341.623 460.145
L342.936 459.491
L344.249 459.491
L345.562 460.145
L346.875 460.145
L348.188 459.491
L350.814 459.491
L352.127 458.836
L353.44 458.836
L354.753 458.182
L356.066 458.836
L357.379 458.836
L358.692 457.527
L363.943 457.527
L365.256 456.218
L366.569 456.218
L370.508 454.255
L371.821 454.255
L381.012 449.673
L382.325 447.709
L383.637 447.709
L384.95 447.055
L386.263 445.745
L387.576 445.745
L388.889 445.091
L390.202 443.127
L392.828 440.509
L395.454 436.582
L396.767 435.273
L398.08 433.309
L399.393 432
L400.706 428.727
L402.019 428.727
L403.332 426.764
L404.645 424.145
L405.957 422.836
L407.27 416.291
L408.583 414.982
L411.209 409.745
L412.522 405.818
L413.835 403.855
L415.148 399.273
L417.774 388.8
L419.087 384.218
L420.4 380.291
L421.713 375.709
L423.026 367.2
L424.339 361.964
L425.652 359.345
L426.965 350.182
L428.277 343.636
L429.59 344.291
L430.903 341.018
L432.216 342.327
L433.529 337.745
L434.842 338.4
L436.155 343.636
L437.468 345.6
L438.781 344.291
L440.094 342.327
L441.407 342.327
L442.72 344.291
L444.033 341.018
L445.346 343.636
L446.659 338.4
L447.972 335.782
L449.285 342.327
L450.597 339.055
L451.91 333.818
L453.223 337.091
L454.536 335.127
L455.849 335.127
L457.162 339.709
L458.475 337.745
L459.788 341.018
L461.101 339.709
L462.414 339.055
L463.727 344.945
L465.04 345.6
L466.353 352.145
L467.666 351.491
L471.605 363.273
L472.917 369.818
L474.23 372.436
L475.543 374.4
L476.856 384.873
L478.169 387.491
L479.482 396.655
L482.108 408.436
L483.421 413.673
L484.734 416.945
L486.047 426.109
L487.36 430.691
L488.673 437.891
L489.986 444.436
L491.299 450.327
L493.925 459.491
L493.925 459.491" style="fill:none;stroke:#0000ff;stroke-linecap:square;"/>
   </g>
   <g id="line2d_114">
    <path clip-path="url(#pcfef4731df)" d="
M298.296 460.8
L299.609 460.8
L300.922 460.145
L304.861 460.145
L306.174 460.8
L307.487 460.145
L323.242 460.145
L324.555 459.491
L331.12 459.491
L332.433 460.145
L335.059 458.836
L336.372 459.491
L337.685 458.836
L342.936 458.836
L344.249 457.527
L349.501 457.527
L350.814 456.218
L352.127 456.873
L354.753 455.564
L356.066 456.218
L357.379 454.909
L358.692 455.564
L361.317 454.255
L362.63 452.945
L363.943 452.291
L366.569 452.291
L367.882 450.982
L369.195 450.982
L371.821 449.673
L373.134 447.709
L375.76 447.709
L377.073 445.745
L378.386 445.745
L379.699 443.782
L381.012 444.436
L382.325 441.818
L384.95 439.2
L386.263 438.545
L387.576 438.545
L388.889 435.927
L390.202 434.618
L391.515 433.964
L392.828 430.691
L395.454 429.382
L396.767 427.418
L399.393 422.182
L400.706 421.527
L402.019 417.6
L403.332 417.6
L404.645 416.945
L405.957 413.673
L407.27 409.091
L408.583 407.782
L411.209 402.545
L412.522 396
L413.835 396
L416.461 384.218
L417.774 380.291
L419.087 382.255
L420.4 373.091
L421.713 369.164
L423.026 365.891
L424.339 360.655
L425.652 356.073
L426.965 352.145
L428.277 346.255
L429.59 345.6
L430.903 346.909
L432.216 342.982
L433.529 345.6
L434.842 344.945
L436.155 346.909
L437.468 349.527
L438.781 346.909
L440.094 351.491
L441.407 351.491
L442.72 347.564
L444.033 349.527
L445.346 348.873
L446.659 352.8
L447.972 351.491
L449.285 352.145
L450.597 350.182
L453.223 348.873
L454.536 350.182
L455.849 352.145
L457.162 352.145
L458.475 350.836
L459.788 350.836
L461.101 356.727
L462.414 352.145
L463.727 354.764
L465.04 361.964
L466.353 363.273
L467.666 361.964
L468.979 364.582
L470.292 366.545
L471.605 372.436
L472.917 375.055
L474.23 381.6
L475.543 384.218
L476.856 390.109
L478.169 393.382
L479.482 399.273
L480.795 407.782
L482.108 410.4
L483.421 413.673
L484.734 422.182
L486.047 426.764
L487.36 432
L488.673 439.855
L491.299 451.636
L492.612 456.873
L493.925 460.145
L493.925 460.145" style="fill:none;stroke:#008000;stroke-linecap:square;"/>
   </g>
   <g id="matplotlib.axis_13">
    <g id="xtick_25">
     <g id="line2d_115">
      <g>
       <use style="stroke:#000000;stroke-width:0.5;" x="298.296286765" xlink:href="#m93b0483c22" y="460.8"/>
      </g>
     </g>
     <g id="line2d_116">
      <g>
       <use style="stroke:#000000;stroke-width:0.5;" x="298.296286765" xlink:href="#m741efc42ff" y="316.8"/>
      </g>
     </g>
    </g>
    <g id="xtick_26">
     <g id="line2d_117">
      <g>
       <use style="stroke:#000000;stroke-width:0.5;" x="363.943345588" xlink:href="#m93b0483c22" y="460.8"/>
      </g>
     </g>
     <g id="line2d_118">
      <g>
       <use style="stroke:#000000;stroke-width:0.5;" x="363.943345588" xlink:href="#m741efc42ff" y="316.8"/>
      </g>
     </g>
    </g>
    <g id="xtick_27">
     <g id="line2d_119">
      <g>
       <use style="stroke:#000000;stroke-width:0.5;" x="429.590404412" xlink:href="#m93b0483c22" y="460.8"/>
      </g>
     </g>
     <g id="line2d_120">
      <g>
       <use style="stroke:#000000;stroke-width:0.5;" x="429.590404412" xlink:href="#m741efc42ff" y="316.8"/>
      </g>
     </g>
    </g>
    <g id="xtick_28">
     <g id="line2d_121">
      <g>
       <use style="stroke:#000000;stroke-width:0.5;" x="495.237463235" xlink:href="#m93b0483c22" y="460.8"/>
      </g>
     </g>
     <g id="line2d_122">
      <g>
       <use style="stroke:#000000;stroke-width:0.5;" x="495.237463235" xlink:href="#m741efc42ff" y="316.8"/>
      </g>
     </g>
    </g>
   </g>
   <g id="matplotlib.axis_14">
    <g id="ytick_25">
     <g id="line2d_123">
      <g>
       <use style="stroke:#000000;stroke-width:0.5;" x="285.166875" xlink:href="#m728421d6d4" y="428.072727273"/>
      </g>
     </g>
     <g id="line2d_124">
      <g>
       <use style="stroke:#000000;stroke-width:0.5;" x="508.366875" xlink:href="#mcb0005524f" y="428.072727273"/>
      </g>
     </g>
    </g>
    <g id="ytick_26">
     <g id="line2d_125">
      <g>
       <use style="stroke:#000000;stroke-width:0.5;" x="285.166875" xlink:href="#m728421d6d4" y="395.345454545"/>
      </g>
     </g>
     <g id="line2d_126">
      <g>
       <use style="stroke:#000000;stroke-width:0.5;" x="508.366875" xlink:href="#mcb0005524f" y="395.345454545"/>
      </g>
     </g>
    </g>
    <g id="ytick_27">
     <g id="line2d_127">
      <g>
       <use style="stroke:#000000;stroke-width:0.5;" x="285.166875" xlink:href="#m728421d6d4" y="362.618181818"/>
      </g>
     </g>
     <g id="line2d_128">
      <g>
       <use style="stroke:#000000;stroke-width:0.5;" x="508.366875" xlink:href="#mcb0005524f" y="362.618181818"/>
      </g>
     </g>
    </g>
    <g id="ytick_28">
     <g id="line2d_129">
      <g>
       <use style="stroke:#000000;stroke-width:0.5;" x="285.166875" xlink:href="#m728421d6d4" y="329.890909091"/>
      </g>
     </g>
     <g id="line2d_130">
      <g>
       <use style="stroke:#000000;stroke-width:0.5;" x="508.366875" xlink:href="#mcb0005524f" y="329.890909091"/>
      </g>
     </g>
    </g>
   </g>
   <g id="patch_34">
    <path d="
M285.167 316.8
L508.367 316.8" style="fill:none;stroke:#000000;"/>
   </g>
   <g id="patch_35">
    <path d="
M508.367 460.8
L508.367 316.8" style="fill:none;stroke:#000000;"/>
   </g>
   <g id="patch_36">
    <path d="
M285.167 460.8
L508.367 460.8" style="fill:none;stroke:#000000;"/>
   </g>
   <g id="patch_37">
    <path d="
M285.167 460.8
L285.167 316.8" style="fill:none;stroke:#000000;"/>
   </g>
   <g id="text_29">
    <text style="font-family:DejaVu Sans;font-size:12.0px;font-style:normal;text-anchor:start;" transform="rotate(-0.000000, 296.326875, 334.080000)" x="296.326875" y="334.08">$r = 6.0$ \AA</text>
   </g>
  </g>
  <g id="axes_8">
   <g id="patch_38">
    <path d="
M285.167 604.8
L508.367 604.8
L508.367 460.8
L285.167 460.8
z
" style="fill:#ffffff;"/>
   </g>
   <g id="line2d_131">
    <path clip-path="url(#p86a2161d21)" d="
M298.296 604.8
L340.31 604.8
L341.623 604.145
L342.936 604.8
L344.249 604.8
L345.562 604.145
L346.875 604.8
L348.188 604.8
L349.501 604.145
L353.44 604.145
L354.753 603.491
L356.066 603.491
L357.379 604.145
L358.692 603.491
L361.317 603.491
L363.943 602.182
L365.256 602.836
L366.569 602.182
L370.508 602.182
L371.821 600.873
L374.447 599.564
L375.76 600.218
L377.073 600.218
L378.386 598.255
L379.699 598.255
L382.325 596.945
L383.637 595.636
L384.95 595.636
L386.263 593.673
L387.576 592.364
L388.889 593.018
L390.202 591.709
L391.515 589.091
L392.828 591.055
L394.141 587.127
L396.767 587.127
L399.393 580.582
L402.019 580.582
L403.332 575.345
L404.645 574.036
L405.957 572.073
L407.27 568.145
L408.583 567.491
L409.896 564.218
L411.209 561.6
L412.522 556.364
L415.148 551.127
L416.461 543.927
L417.774 541.309
L419.087 533.455
L420.4 528.873
L421.713 521.673
L423.026 517.745
L424.339 513.164
L425.652 505.964
L426.965 500.073
L428.277 490.909
L429.59 492.218
L430.903 487.636
L433.529 483.709
L434.842 485.018
L436.155 487.636
L437.468 486.327
L438.781 484.364
L440.094 486.982
L441.407 486.327
L442.72 486.327
L444.033 482.4
L445.346 484.364
L446.659 478.473
L447.972 485.018
L449.285 481.091
L450.597 479.782
L451.91 476.509
L453.223 479.127
L454.536 473.891
L455.849 479.127
L457.162 474.545
L458.475 473.236
L459.788 476.509
L461.101 473.891
L462.414 475.855
L463.727 480.436
L465.04 474.545
L466.353 482.4
L467.666 483.709
L468.979 488.291
L470.292 491.564
L471.605 496.8
L472.917 500.073
L474.23 505.964
L475.543 505.964
L478.169 522.982
L479.482 528.218
L480.795 534.764
L482.108 540.655
L484.734 555.055
L486.047 564.218
L487.36 568.8
L488.673 578.618
L489.986 587.127
L492.612 598.909
L493.925 603.491
L493.925 603.491" style="fill:none;stroke:#0000ff;stroke-linecap:square;"/>
   </g>
   <g id="line2d_132">
    <path clip-path="url(#p86a2161d21)" d="
M298.296 604.8
L321.929 604.8
L323.242 604.145
L324.555 604.8
L325.868 604.8
L327.181 604.145
L328.494 604.8
L332.433 604.8
L333.746 604.145
L350.814 604.145
L352.127 603.491
L354.753 603.491
L356.066 602.836
L358.692 602.836
L360.005 602.182
L362.63 602.182
L363.943 600.873
L366.569 600.873
L367.882 600.218
L369.195 600.218
L370.508 598.909
L371.821 598.909
L373.134 598.255
L374.447 598.255
L377.073 595.636
L378.386 594.982
L379.699 596.291
L382.325 593.673
L383.637 593.673
L384.95 593.018
L386.263 591.055
L387.576 591.055
L388.889 588.436
L390.202 586.473
L391.515 587.127
L392.828 584.509
L394.141 584.509
L395.454 583.855
L396.767 580.582
L398.08 579.273
L399.393 578.618
L400.706 577.309
L402.019 573.382
L403.332 572.727
L404.645 570.109
L405.957 568.145
L407.27 565.527
L408.583 560.945
L409.896 558.982
L411.209 558.327
L412.522 553.091
L413.835 550.473
L415.148 543.927
L416.461 539.345
L417.774 539.345
L419.087 530.182
L420.4 524.291
L421.713 522.982
L423.026 513.818
L424.339 505.964
L425.652 505.309
L428.277 496.145
L429.59 490.909
L430.903 488.291
L433.529 488.291
L434.842 490.255
L436.155 485.018
L437.468 490.909
L438.781 486.982
L440.094 488.945
L441.407 488.291
L442.72 484.364
L444.033 489.6
L445.346 484.364
L446.659 488.291
L447.972 483.055
L449.285 483.055
L450.597 482.4
L451.91 479.782
L453.223 481.745
L454.536 482.4
L455.849 481.091
L457.162 483.055
L458.475 482.4
L459.788 484.364
L461.101 481.091
L462.414 483.709
L463.727 482.4
L465.04 483.709
L466.353 484.364
L467.666 490.909
L468.979 492.873
L470.292 495.491
L471.605 501.382
L472.917 503.345
L474.23 507.273
L475.543 516.436
L476.856 520.364
L478.169 522.327
L479.482 532.145
L480.795 536.073
L482.108 543.273
L483.421 548.509
L486.047 566.836
L487.36 573.382
L488.673 579.273
L489.986 585.818
L491.299 594.327
L492.612 600.218
L493.925 603.491
L493.925 603.491" style="fill:none;stroke:#008000;stroke-linecap:square;"/>
   </g>
   <g id="matplotlib.axis_15">
    <g id="xtick_29">
     <g id="line2d_133">
      <g>
       <use style="stroke:#000000;stroke-width:0.5;" x="298.296286765" xlink:href="#m93b0483c22" y="604.8"/>
      </g>
     </g>
     <g id="line2d_134">
      <g>
       <use style="stroke:#000000;stroke-width:0.5;" x="298.296286765" xlink:href="#m741efc42ff" y="460.8"/>
      </g>
     </g>
     <g id="text_30">
      <text style="font-family:DejaVu Sans;font-size:12.0px;font-style:normal;text-anchor:middle;" transform="rotate(-0.000000, 298.296287, 617.918125)" x="298.296286765" y="617.918125">−0.5</text>
     </g>
    </g>
    <g id="xtick_30">
     <g id="line2d_135">
      <g>
       <use style="stroke:#000000;stroke-width:0.5;" x="363.943345588" xlink:href="#m93b0483c22" y="604.8"/>
      </g>
     </g>
     <g id="line2d_136">
      <g>
       <use style="stroke:#000000;stroke-width:0.5;" x="363.943345588" xlink:href="#m741efc42ff" y="460.8"/>
      </g>
     </g>
     <g id="text_31">
      <text style="font-family:DejaVu Sans;font-size:12.0px;font-style:normal;text-anchor:middle;" transform="rotate(-0.000000, 363.943346, 617.918125)" x="363.943345588" y="617.918125">0.0</text>
     </g>
    </g>
    <g id="xtick_31">
     <g id="line2d_137">
      <g>
       <use style="stroke:#000000;stroke-width:0.5;" x="429.590404412" xlink:href="#m93b0483c22" y="604.8"/>
      </g>
     </g>
     <g id="line2d_138">
      <g>
       <use style="stroke:#000000;stroke-width:0.5;" x="429.590404412" xlink:href="#m741efc42ff" y="460.8"/>
      </g>
     </g>
     <g id="text_32">
      <text style="font-family:DejaVu Sans;font-size:12.0px;font-style:normal;text-anchor:middle;" transform="rotate(-0.000000, 429.590404, 617.918125)" x="429.590404412" y="617.918125">0.5</text>
     </g>
    </g>
    <g id="xtick_32">
     <g id="line2d_139">
      <g>
       <use style="stroke:#000000;stroke-width:0.5;" x="495.237463235" xlink:href="#m93b0483c22" y="604.8"/>
      </g>
     </g>
     <g id="line2d_140">
      <g>
       <use style="stroke:#000000;stroke-width:0.5;" x="495.237463235" xlink:href="#m741efc42ff" y="460.8"/>
      </g>
     </g>
     <g id="text_33">
      <text style="font-family:DejaVu Sans;font-size:12.0px;font-style:normal;text-anchor:middle;" transform="rotate(-0.000000, 495.237463, 617.918125)" x="495.237463235" y="617.918125">1.0</text>
     </g>
    </g>
   </g>
   <g id="matplotlib.axis_16">
    <g id="ytick_29">
     <g id="line2d_141">
      <g>
       <use style="stroke:#000000;stroke-width:0.5;" x="285.166875" xlink:href="#m728421d6d4" y="572.072727273"/>
      </g>
     </g>
     <g id="line2d_142">
      <g>
       <use style="stroke:#000000;stroke-width:0.5;" x="508.366875" xlink:href="#mcb0005524f" y="572.072727273"/>
      </g>
     </g>
    </g>
    <g id="ytick_30">
     <g id="line2d_143">
      <g>
       <use style="stroke:#000000;stroke-width:0.5;" x="285.166875" xlink:href="#m728421d6d4" y="539.345454545"/>
      </g>
     </g>
     <g id="line2d_144">
      <g>
       <use style="stroke:#000000;stroke-width:0.5;" x="508.366875" xlink:href="#mcb0005524f" y="539.345454545"/>
      </g>
     </g>
    </g>
    <g id="ytick_31">
     <g id="line2d_145">
      <g>
       <use style="stroke:#000000;stroke-width:0.5;" x="285.166875" xlink:href="#m728421d6d4" y="506.618181818"/>
      </g>
     </g>
     <g id="line2d_146">
      <g>
       <use style="stroke:#000000;stroke-width:0.5;" x="508.366875" xlink:href="#mcb0005524f" y="506.618181818"/>
      </g>
     </g>
    </g>
    <g id="ytick_32">
     <g id="line2d_147">
      <g>
       <use style="stroke:#000000;stroke-width:0.5;" x="285.166875" xlink:href="#m728421d6d4" y="473.890909091"/>
      </g>
     </g>
     <g id="line2d_148">
      <g>
       <use style="stroke:#000000;stroke-width:0.5;" x="508.366875" xlink:href="#mcb0005524f" y="473.890909091"/>
      </g>
     </g>
    </g>
   </g>
   <g id="patch_39">
    <path d="
M285.167 460.8
L508.367 460.8" style="fill:none;stroke:#000000;"/>
   </g>
   <g id="patch_40">
    <path d="
M508.367 604.8
L508.367 460.8" style="fill:none;stroke:#000000;"/>
   </g>
   <g id="patch_41">
    <path d="
M285.167 604.8
L508.367 604.8" style="fill:none;stroke:#000000;"/>
   </g>
   <g id="patch_42">
    <path d="
M285.167 604.8
L285.167 460.8" style="fill:none;stroke:#000000;"/>
   </g>
   <g id="text_34">
    <text style="font-family:DejaVu Sans;font-size:12.0px;font-style:normal;text-anchor:start;" transform="rotate(-0.000000, 296.326875, 478.080000)" x="296.326875" y="478.08">$r = 7.0$ \AA</text>
   </g>
  </g>
  <g id="text_35">
   <text style="font-family:DejaVu Sans;font-size:12.0px;font-style:normal;text-anchor:middle;" transform="rotate(-0.000000, 277.966875, 16.318125)" x="277.966875" y="16.318125">Tetrahedral order parameter</text>
  </g>
  <g id="text_36">
   <text style="font-family:DejaVu Sans;font-size:12.0px;font-style:normal;text-anchor:middle;" transform="rotate(-0.000000, 277.966875, 636.911250)" x="277.966875" y="636.91125">Q \hl{???}</text>
  </g>
  <g id="text_37">
   <text style="font-family:DejaVu Sans;font-size:12.0px;font-style:normal;" transform="translate(16.318125 375.834375)rotate(-90.0)">Relative occurrence</text>
  </g>
 </g>
 <defs>
  <clipPath id="p984218ab3b">
   <rect height="144.0" width="223.2" x="61.966875" y="316.8"/>
  </clipPath>
  <clipPath id="p86a2161d21">
   <rect height="144.0" width="223.2" x="285.166875" y="460.8"/>
  </clipPath>
  <clipPath id="p2345f084b4">
   <rect height="144.0" width="223.2" x="285.166875" y="172.8"/>
  </clipPath>
  <clipPath id="p55297d57d8">
   <rect height="144.0" width="223.2" x="61.966875" y="28.8"/>
  </clipPath>
  <clipPath id="p0e171917b9">
   <rect height="144.0" width="223.2" x="61.966875" y="172.8"/>
  </clipPath>
  <clipPath id="p80afbbe4f7">
   <rect height="144.0" width="223.2" x="285.166875" y="28.8"/>
  </clipPath>
  <clipPath id="pb6c146f3bb">
   <rect height="144.0" width="223.2" x="61.966875" y="460.8"/>
  </clipPath>
  <clipPath id="pcfef4731df">
   <rect height="144.0" width="223.2" x="285.166875" y="316.8"/>
  </clipPath>
 </defs>
</svg>
