<?xml version="1.0" encoding="utf-8" standalone="no"?>
<!DOCTYPE svg PUBLIC "-//W3C//DTD SVG 1.1//EN"
  "http://www.w3.org/Graphics/SVG/1.1/DTD/svg11.dtd">
<!-- Created with matplotlib (http://matplotlib.org/) -->
<svg height="680pt" version="1.1" viewBox="0 0 515 680" width="515pt" xmlns="http://www.w3.org/2000/svg" xmlns:xlink="http://www.w3.org/1999/xlink">
 <defs>
  <style type="text/css">
*{stroke-linecap:butt;stroke-linejoin:round;}
  </style>
 </defs>
 <g id="figure_1">
  <g id="patch_1">
   <path d="
M0 680.656
L515.567 680.656
L515.567 0
L0 0
z
" style="fill:#ffffff;"/>
  </g>
  <g id="axes_1">
   <g id="patch_2">
    <path d="
M61.9669 604.8
L281.868 604.8
L281.868 466.005
L61.9669 466.005
z
" style="fill:#ffffff;"/>
   </g>
   <g id="line2d_1">
    <path clip-path="url(#p27b74cd5b9)" d="
M74.9023 593.234
L113.708 593.234
L115.002 592.655
L116.295 592.655
L117.589 593.234
L118.883 592.655
L125.35 592.655
L126.644 592.077
L127.937 592.655
L129.231 592.077
L131.818 592.077
L133.111 591.499
L134.405 592.077
L135.699 591.499
L136.992 591.499
L138.286 590.92
L142.166 590.92
L143.46 589.764
L144.753 589.764
L146.047 589.186
L147.34 588.029
L148.634 588.607
L149.927 588.607
L151.221 586.872
L152.515 586.872
L153.808 586.294
L156.395 586.294
L157.689 584.559
L158.982 584.559
L161.569 582.246
L165.45 580.511
L166.743 579.354
L169.331 575.884
L170.624 576.463
L171.918 573.571
L173.211 574.728
L174.505 571.258
L175.798 570.101
L177.092 567.788
L178.385 567.21
L179.679 563.161
L180.972 562.583
L183.559 557.957
L184.853 556.222
L187.44 549.282
L188.734 546.39
L190.027 544.655
L191.321 540.607
L192.614 534.824
L193.908 531.354
L195.201 526.149
L196.495 522.101
L197.788 516.318
L199.082 513.427
L200.375 502.439
L201.669 498.39
L202.963 495.499
L204.256 494.342
L205.55 489.716
L206.843 486.824
L208.137 486.824
L209.43 488.559
L210.724 487.981
L212.017 490.872
L213.311 491.451
L215.898 487.981
L217.191 483.933
L218.485 487.402
L219.779 483.354
L221.072 484.511
L222.366 485.089
L223.659 482.776
L224.953 483.354
L227.54 482.198
L228.833 479.306
L231.42 481.619
L232.714 479.306
L234.007 481.041
L235.301 480.463
L236.595 483.933
L237.888 481.041
L239.182 482.776
L240.475 487.981
L241.769 489.137
L243.062 492.607
L244.356 494.92
L246.943 504.173
L248.236 503.595
L249.53 512.848
L250.823 514.583
L252.117 522.68
L253.411 527.306
L254.704 533.667
L255.998 538.294
L257.291 546.969
L258.585 553.33
L259.878 558.535
L261.172 564.896
L263.759 576.463
L265.052 582.824
L267.639 592.077
L267.639 592.077" style="fill:none;stroke:#0000ff;stroke-linecap:square;"/>
   </g>
   <g id="line2d_2">
    <path clip-path="url(#p27b74cd5b9)" d="
M74.9023 593.234
L94.3053 593.234
L95.5989 592.655
L100.773 592.655
L102.067 593.234
L103.36 592.655
L112.415 592.655
L113.708 592.077
L115.002 592.077
L116.295 592.655
L117.589 592.077
L118.883 592.077
L120.176 591.499
L121.47 592.077
L122.763 591.499
L126.644 591.499
L127.937 590.92
L130.524 590.92
L133.111 589.764
L135.699 589.764
L136.992 589.186
L139.579 589.186
L140.873 588.607
L142.166 587.451
L143.46 586.872
L144.753 587.451
L147.34 586.294
L148.634 585.137
L149.927 585.137
L151.221 583.981
L152.515 583.981
L153.808 582.824
L155.102 582.246
L156.395 581.089
L157.689 580.511
L158.982 579.354
L160.276 579.354
L161.569 578.198
L162.863 576.463
L164.156 575.884
L165.45 575.884
L166.743 573.571
L168.037 573.571
L170.624 571.258
L171.918 567.21
L173.211 567.788
L175.798 563.161
L177.092 561.427
L178.385 560.848
L179.679 559.113
L180.972 555.065
L182.266 553.908
L183.559 553.33
L184.853 549.86
L186.147 546.969
L187.44 542.342
L188.734 540.029
L190.027 537.137
L191.321 530.776
L193.908 526.149
L195.201 520.366
L196.495 517.475
L200.375 501.86
L201.669 503.017
L202.963 494.92
L204.256 492.029
L205.55 492.607
L206.843 489.716
L208.137 494.92
L209.43 495.499
L210.724 492.607
L212.017 496.077
L213.311 493.764
L214.604 494.92
L215.898 496.655
L217.191 492.607
L218.485 493.186
L219.779 493.186
L221.072 490.872
L222.366 489.716
L223.659 489.716
L224.953 487.981
L226.246 489.716
L227.54 487.402
L228.833 487.402
L230.127 486.824
L232.714 487.981
L234.007 487.981
L235.301 488.559
L236.595 488.559
L237.888 490.294
L239.182 494.342
L240.475 495.499
L241.769 494.92
L243.062 499.547
L244.356 502.439
L245.649 503.595
L246.943 510.535
L248.236 512.27
L249.53 519.21
L250.823 521.523
L252.117 527.884
L253.411 530.198
L254.704 536.559
L255.998 543.499
L257.291 547.547
L259.878 560.27
L261.172 567.21
L262.465 571.258
L263.759 577.619
L265.052 582.824
L267.639 592.077
L267.639 592.077" style="fill:none;stroke:#008000;stroke-linecap:square;"/>
   </g>
   <g id="matplotlib.axis_1">
    <g id="xtick_1">
     <g id="line2d_3">
      <defs>
       <path d="
M0 0
L0 -4" id="m93b0483c22" style="stroke:#000000;stroke-width:0.5;"/>
      </defs>
      <g>
       <use style="stroke:#000000;stroke-width:0.5;" x="74.902256049" xlink:href="#m93b0483c22" y="604.8"/>
      </g>
     </g>
     <g id="line2d_4">
      <defs>
       <path d="
M0 0
L0 4" id="m741efc42ff" style="stroke:#000000;stroke-width:0.5;"/>
      </defs>
      <g>
       <use style="stroke:#000000;stroke-width:0.5;" x="74.902256049" xlink:href="#m741efc42ff" y="466.004819277"/>
      </g>
     </g>
     <g id="text_1">
      <text style="font-family:DejaVu Sans;font-size:12.0px;font-style:normal;text-anchor:middle;" transform="rotate(-0.000000, 74.902256, 617.918125)" x="74.902256049" y="617.918125">−0.50</text>
     </g>
    </g>
    <g id="xtick_2">
     <g id="line2d_5">
      <g>
       <use style="stroke:#000000;stroke-width:0.5;" x="107.240708671" xlink:href="#m93b0483c22" y="604.8"/>
      </g>
     </g>
     <g id="line2d_6">
      <g>
       <use style="stroke:#000000;stroke-width:0.5;" x="107.240708671" xlink:href="#m741efc42ff" y="466.004819277"/>
      </g>
     </g>
    </g>
    <g id="xtick_3">
     <g id="line2d_7">
      <g>
       <use style="stroke:#000000;stroke-width:0.5;" x="139.579161294" xlink:href="#m93b0483c22" y="604.8"/>
      </g>
     </g>
     <g id="line2d_8">
      <g>
       <use style="stroke:#000000;stroke-width:0.5;" x="139.579161294" xlink:href="#m741efc42ff" y="466.004819277"/>
      </g>
     </g>
     <g id="text_2">
      <text style="font-family:DejaVu Sans;font-size:12.0px;font-style:normal;text-anchor:middle;" transform="rotate(-0.000000, 139.579161, 617.918125)" x="139.579161294" y="617.918125">0.00</text>
     </g>
    </g>
    <g id="xtick_4">
     <g id="line2d_9">
      <g>
       <use style="stroke:#000000;stroke-width:0.5;" x="171.917613916" xlink:href="#m93b0483c22" y="604.8"/>
      </g>
     </g>
     <g id="line2d_10">
      <g>
       <use style="stroke:#000000;stroke-width:0.5;" x="171.917613916" xlink:href="#m741efc42ff" y="466.004819277"/>
      </g>
     </g>
    </g>
    <g id="xtick_5">
     <g id="line2d_11">
      <g>
       <use style="stroke:#000000;stroke-width:0.5;" x="204.256066539" xlink:href="#m93b0483c22" y="604.8"/>
      </g>
     </g>
     <g id="line2d_12">
      <g>
       <use style="stroke:#000000;stroke-width:0.5;" x="204.256066539" xlink:href="#m741efc42ff" y="466.004819277"/>
      </g>
     </g>
     <g id="text_3">
      <text style="font-family:DejaVu Sans;font-size:12.0px;font-style:normal;text-anchor:middle;" transform="rotate(-0.000000, 204.256067, 617.918125)" x="204.256066539" y="617.918125">0.50</text>
     </g>
    </g>
    <g id="xtick_6">
     <g id="line2d_13">
      <g>
       <use style="stroke:#000000;stroke-width:0.5;" x="236.594519161" xlink:href="#m93b0483c22" y="604.8"/>
      </g>
     </g>
     <g id="line2d_14">
      <g>
       <use style="stroke:#000000;stroke-width:0.5;" x="236.594519161" xlink:href="#m741efc42ff" y="466.004819277"/>
      </g>
     </g>
    </g>
    <g id="xtick_7">
     <g id="line2d_15">
      <g>
       <use style="stroke:#000000;stroke-width:0.5;" x="268.932971784" xlink:href="#m93b0483c22" y="604.8"/>
      </g>
     </g>
     <g id="line2d_16">
      <g>
       <use style="stroke:#000000;stroke-width:0.5;" x="268.932971784" xlink:href="#m741efc42ff" y="466.004819277"/>
      </g>
     </g>
     <g id="text_4">
      <text style="font-family:DejaVu Sans;font-size:12.0px;font-style:normal;text-anchor:middle;" transform="rotate(-0.000000, 268.932972, 617.918125)" x="268.932971784" y="617.918125">1.00</text>
     </g>
    </g>
   </g>
   <g id="matplotlib.axis_2">
    <g id="ytick_1">
     <g id="line2d_17">
      <defs>
       <path d="
M0 0
L4 0" id="m728421d6d4" style="stroke:#000000;stroke-width:0.5;"/>
      </defs>
      <g>
       <use style="stroke:#000000;stroke-width:0.5;" x="61.966875" xlink:href="#m728421d6d4" y="593.23373494"/>
      </g>
     </g>
     <g id="line2d_18">
      <defs>
       <path d="
M0 0
L-4 0" id="mcb0005524f" style="stroke:#000000;stroke-width:0.5;"/>
      </defs>
      <g>
       <use style="stroke:#000000;stroke-width:0.5;" x="281.868352833" xlink:href="#mcb0005524f" y="593.23373494"/>
      </g>
     </g>
     <g id="text_5">
      <text style="font-family:DejaVu Sans;font-size:12.0px;font-style:normal;text-anchor:end;" transform="rotate(-0.000000, 57.966875, 596.544985)" x="57.966875" y="596.54498494">0.000</text>
     </g>
    </g>
    <g id="ytick_2">
     <g id="line2d_19">
      <g>
       <use style="stroke:#000000;stroke-width:0.5;" x="61.966875" xlink:href="#m728421d6d4" y="578.775903614"/>
      </g>
     </g>
     <g id="line2d_20">
      <g>
       <use style="stroke:#000000;stroke-width:0.5;" x="281.868352833" xlink:href="#mcb0005524f" y="578.775903614"/>
      </g>
     </g>
    </g>
    <g id="ytick_3">
     <g id="line2d_21">
      <g>
       <use style="stroke:#000000;stroke-width:0.5;" x="61.966875" xlink:href="#m728421d6d4" y="564.318072289"/>
      </g>
     </g>
     <g id="line2d_22">
      <g>
       <use style="stroke:#000000;stroke-width:0.5;" x="281.868352833" xlink:href="#mcb0005524f" y="564.318072289"/>
      </g>
     </g>
     <g id="text_6">
      <text style="font-family:DejaVu Sans;font-size:12.0px;font-style:normal;text-anchor:end;" transform="rotate(-0.000000, 57.966875, 567.629322)" x="57.966875" y="567.629322289">0.005</text>
     </g>
    </g>
    <g id="ytick_4">
     <g id="line2d_23">
      <g>
       <use style="stroke:#000000;stroke-width:0.5;" x="61.966875" xlink:href="#m728421d6d4" y="549.860240964"/>
      </g>
     </g>
     <g id="line2d_24">
      <g>
       <use style="stroke:#000000;stroke-width:0.5;" x="281.868352833" xlink:href="#mcb0005524f" y="549.860240964"/>
      </g>
     </g>
    </g>
    <g id="ytick_5">
     <g id="line2d_25">
      <g>
       <use style="stroke:#000000;stroke-width:0.5;" x="61.966875" xlink:href="#m728421d6d4" y="535.402409639"/>
      </g>
     </g>
     <g id="line2d_26">
      <g>
       <use style="stroke:#000000;stroke-width:0.5;" x="281.868352833" xlink:href="#mcb0005524f" y="535.402409639"/>
      </g>
     </g>
     <g id="text_7">
      <text style="font-family:DejaVu Sans;font-size:12.0px;font-style:normal;text-anchor:end;" transform="rotate(-0.000000, 57.966875, 538.713660)" x="57.966875" y="538.713659639">0.010</text>
     </g>
    </g>
    <g id="ytick_6">
     <g id="line2d_27">
      <g>
       <use style="stroke:#000000;stroke-width:0.5;" x="61.966875" xlink:href="#m728421d6d4" y="520.944578313"/>
      </g>
     </g>
     <g id="line2d_28">
      <g>
       <use style="stroke:#000000;stroke-width:0.5;" x="281.868352833" xlink:href="#mcb0005524f" y="520.944578313"/>
      </g>
     </g>
    </g>
    <g id="ytick_7">
     <g id="line2d_29">
      <g>
       <use style="stroke:#000000;stroke-width:0.5;" x="61.966875" xlink:href="#m728421d6d4" y="506.486746988"/>
      </g>
     </g>
     <g id="line2d_30">
      <g>
       <use style="stroke:#000000;stroke-width:0.5;" x="281.868352833" xlink:href="#mcb0005524f" y="506.486746988"/>
      </g>
     </g>
     <g id="text_8">
      <text style="font-family:DejaVu Sans;font-size:12.0px;font-style:normal;text-anchor:end;" transform="rotate(-0.000000, 57.966875, 509.797997)" x="57.966875" y="509.797996988">0.015</text>
     </g>
    </g>
    <g id="ytick_8">
     <g id="line2d_31">
      <g>
       <use style="stroke:#000000;stroke-width:0.5;" x="61.966875" xlink:href="#m728421d6d4" y="492.028915663"/>
      </g>
     </g>
     <g id="line2d_32">
      <g>
       <use style="stroke:#000000;stroke-width:0.5;" x="281.868352833" xlink:href="#mcb0005524f" y="492.028915663"/>
      </g>
     </g>
    </g>
    <g id="ytick_9">
     <g id="line2d_33">
      <g>
       <use style="stroke:#000000;stroke-width:0.5;" x="61.966875" xlink:href="#m728421d6d4" y="477.571084337"/>
      </g>
     </g>
     <g id="line2d_34">
      <g>
       <use style="stroke:#000000;stroke-width:0.5;" x="281.868352833" xlink:href="#mcb0005524f" y="477.571084337"/>
      </g>
     </g>
     <g id="text_9">
      <text style="font-family:DejaVu Sans;font-size:12.0px;font-style:normal;text-anchor:end;" transform="rotate(-0.000000, 57.966875, 480.882334)" x="57.966875" y="480.882334337">0.020</text>
     </g>
    </g>
   </g>
   <g id="patch_3">
    <path d="
M61.9669 466.005
L281.868 466.005" style="fill:none;stroke:#000000;"/>
   </g>
   <g id="patch_4">
    <path d="
M281.868 604.8
L281.868 466.005" style="fill:none;stroke:#000000;"/>
   </g>
   <g id="patch_5">
    <path d="
M61.9669 604.8
L281.868 604.8" style="fill:none;stroke:#000000;"/>
   </g>
   <g id="patch_6">
    <path d="
M61.9669 604.8
L61.9669 466.005" style="fill:none;stroke:#000000;"/>
   </g>
   <g id="text_10">
    <text style="font-family:DejaVu Sans;font-size:12.0px;font-style:normal;text-anchor:start;" transform="rotate(-0.000000, 72.961949, 482.660241)" x="72.9619488916" y="482.660240964">$r = 6.5$ \AA</text>
   </g>
  </g>
  <g id="axes_2">
   <g id="patch_7">
    <path d="
M61.9669 167.595
L281.868 167.595
L281.868 28.8
L61.9669 28.8
z
" style="fill:#ffffff;"/>
   </g>
   <g id="line2d_35">
    <path clip-path="url(#p5ff848af41)" d="
M74.9023 144.463
L76.1958 144.463
L78.7829 142.149
L81.3699 142.149
L82.6635 140.993
L85.2506 139.836
L86.5441 140.414
L87.8376 139.258
L89.1312 138.68
L90.4247 138.68
L91.7183 136.945
L93.0118 136.945
L94.3053 136.366
L95.5989 136.366
L96.8924 134.053
L98.1859 132.896
L100.773 131.74
L102.067 130.005
L103.36 130.005
L104.654 129.427
L107.241 125.957
L108.534 124.8
L109.828 125.378
L111.121 123.065
L112.415 121.33
L113.708 121.908
L115.002 120.173
L116.295 120.173
L117.589 118.439
L118.883 115.547
L121.47 114.39
L122.763 112.655
L124.057 112.655
L125.35 109.186
L126.644 108.607
L127.937 104.559
L129.231 106.294
L130.524 105.716
L131.818 104.559
L133.111 101.089
L134.405 101.667
L135.699 99.3542
L136.992 97.6193
L138.286 98.7759
L139.579 98.1976
L140.873 95.8843
L142.166 95.306
L143.46 91.2578
L144.753 89.5229
L146.047 91.2578
L147.34 91.2578
L148.634 88.9446
L151.221 88.9446
L152.515 91.8361
L153.808 88.9446
L155.102 84.8964
L156.395 85.4747
L157.689 84.8964
L158.982 83.1614
L160.276 84.8964
L161.569 85.4747
L162.863 82.5831
L164.156 82.5831
L165.45 79.6916
L166.743 79.6916
L168.037 78.5349
L169.331 77.9566
L170.624 80.2699
L171.918 76.8
L173.211 76.2217
L174.505 77.9566
L175.798 76.2217
L177.092 76.2217
L178.385 76.8
L179.679 76.2217
L180.972 76.8
L182.266 76.8
L183.559 77.3783
L184.853 75.6434
L186.147 80.2699
L187.44 78.5349
L188.734 80.2699
L190.027 80.2699
L191.321 81.4265
L192.614 83.7398
L193.908 83.7398
L197.788 88.9446
L199.082 94.7277
L200.375 94.7277
L201.669 96.4627
L202.963 101.089
L204.256 103.981
L205.55 106.294
L206.843 109.186
L208.137 114.39
L209.43 118.439
L210.724 120.173
L212.017 124.222
L213.311 124.8
L214.604 127.113
L215.898 131.161
L219.779 134.631
L221.072 136.945
L222.366 138.68
L223.659 137.523
L224.953 140.993
L226.246 141.571
L227.54 142.728
L228.833 143.306
L230.127 146.198
L231.42 146.776
L232.714 147.933
L240.475 151.402
L241.769 151.402
L245.649 153.137
L249.53 153.137
L252.117 154.294
L253.411 154.294
L254.704 154.872
L255.998 154.872
L257.291 155.451
L262.465 155.451
L263.759 156.029
L267.639 156.029
L267.639 156.029" style="fill:none;stroke:#0000ff;stroke-linecap:square;"/>
   </g>
   <g id="line2d_36">
    <path clip-path="url(#p5ff848af41)" d="
M74.9023 137.523
L76.1958 137.523
L77.4893 135.788
L78.7829 136.366
L80.0764 135.788
L81.3699 134.631
L83.957 134.631
L85.2506 133.475
L87.8376 132.318
L89.1312 131.161
L90.4247 130.583
L91.7183 129.427
L93.0118 130.005
L94.3053 129.427
L95.5989 127.692
L96.8924 126.535
L98.1859 126.535
L99.4795 124.8
L103.36 123.065
L104.654 121.908
L105.947 121.908
L108.534 119.595
L109.828 117.86
L111.121 116.704
L116.295 114.39
L117.589 112.077
L118.883 112.077
L120.176 108.607
L121.47 108.029
L122.763 106.294
L124.057 105.716
L125.35 106.294
L126.644 105.137
L127.937 104.559
L129.231 103.402
L130.524 102.824
L131.818 101.089
L134.405 98.7759
L135.699 98.7759
L136.992 97.6193
L138.286 97.6193
L139.579 96.4627
L140.873 94.1494
L143.46 94.1494
L144.753 92.4145
L148.634 90.6795
L149.927 90.6795
L151.221 88.3663
L152.515 89.5229
L153.808 87.788
L156.395 86.6313
L157.689 85.4747
L158.982 87.2096
L160.276 87.2096
L161.569 84.8964
L162.863 86.053
L164.156 86.053
L165.45 84.3181
L166.743 84.3181
L170.624 82.5831
L173.211 82.5831
L174.505 83.1614
L175.798 82.0048
L177.092 84.3181
L178.385 83.1614
L179.679 84.3181
L180.972 84.8964
L182.266 83.7398
L183.559 83.7398
L186.147 84.8964
L187.44 86.6313
L188.734 85.4747
L190.027 85.4747
L191.321 88.9446
L192.614 90.6795
L193.908 91.8361
L195.201 92.4145
L196.495 94.1494
L197.788 96.4627
L199.082 98.1976
L200.375 101.089
L201.669 105.137
L202.963 106.872
L204.256 109.764
L205.55 112.077
L206.843 116.125
L208.137 119.017
L209.43 122.487
L210.724 127.113
L212.017 128.27
L213.311 131.161
L214.604 132.896
L217.191 135.21
L218.485 136.945
L223.659 141.571
L224.953 142.149
L226.246 143.884
L228.833 145.041
L230.127 146.198
L231.42 146.776
L232.714 148.511
L234.007 148.511
L237.888 150.246
L239.182 150.246
L240.475 151.402
L241.769 151.402
L244.356 152.559
L245.649 152.559
L248.236 153.716
L250.823 153.716
L252.117 154.294
L253.411 154.294
L254.704 154.872
L257.291 154.872
L258.585 155.451
L262.465 155.451
L263.759 156.029
L267.639 156.029
L267.639 156.029" style="fill:none;stroke:#008000;stroke-linecap:square;"/>
   </g>
   <g id="matplotlib.axis_3">
    <g id="xtick_8">
     <g id="line2d_37">
      <g>
       <use style="stroke:#000000;stroke-width:0.5;" x="74.902256049" xlink:href="#m93b0483c22" y="167.595180723"/>
      </g>
     </g>
     <g id="line2d_38">
      <g>
       <use style="stroke:#000000;stroke-width:0.5;" x="74.902256049" xlink:href="#m741efc42ff" y="28.8"/>
      </g>
     </g>
    </g>
    <g id="xtick_9">
     <g id="line2d_39">
      <g>
       <use style="stroke:#000000;stroke-width:0.5;" x="107.240708671" xlink:href="#m93b0483c22" y="167.595180723"/>
      </g>
     </g>
     <g id="line2d_40">
      <g>
       <use style="stroke:#000000;stroke-width:0.5;" x="107.240708671" xlink:href="#m741efc42ff" y="28.8"/>
      </g>
     </g>
    </g>
    <g id="xtick_10">
     <g id="line2d_41">
      <g>
       <use style="stroke:#000000;stroke-width:0.5;" x="139.579161294" xlink:href="#m93b0483c22" y="167.595180723"/>
      </g>
     </g>
     <g id="line2d_42">
      <g>
       <use style="stroke:#000000;stroke-width:0.5;" x="139.579161294" xlink:href="#m741efc42ff" y="28.8"/>
      </g>
     </g>
    </g>
    <g id="xtick_11">
     <g id="line2d_43">
      <g>
       <use style="stroke:#000000;stroke-width:0.5;" x="171.917613916" xlink:href="#m93b0483c22" y="167.595180723"/>
      </g>
     </g>
     <g id="line2d_44">
      <g>
       <use style="stroke:#000000;stroke-width:0.5;" x="171.917613916" xlink:href="#m741efc42ff" y="28.8"/>
      </g>
     </g>
    </g>
    <g id="xtick_12">
     <g id="line2d_45">
      <g>
       <use style="stroke:#000000;stroke-width:0.5;" x="204.256066539" xlink:href="#m93b0483c22" y="167.595180723"/>
      </g>
     </g>
     <g id="line2d_46">
      <g>
       <use style="stroke:#000000;stroke-width:0.5;" x="204.256066539" xlink:href="#m741efc42ff" y="28.8"/>
      </g>
     </g>
    </g>
    <g id="xtick_13">
     <g id="line2d_47">
      <g>
       <use style="stroke:#000000;stroke-width:0.5;" x="236.594519161" xlink:href="#m93b0483c22" y="167.595180723"/>
      </g>
     </g>
     <g id="line2d_48">
      <g>
       <use style="stroke:#000000;stroke-width:0.5;" x="236.594519161" xlink:href="#m741efc42ff" y="28.8"/>
      </g>
     </g>
    </g>
    <g id="xtick_14">
     <g id="line2d_49">
      <g>
       <use style="stroke:#000000;stroke-width:0.5;" x="268.932971784" xlink:href="#m93b0483c22" y="167.595180723"/>
      </g>
     </g>
     <g id="line2d_50">
      <g>
       <use style="stroke:#000000;stroke-width:0.5;" x="268.932971784" xlink:href="#m741efc42ff" y="28.8"/>
      </g>
     </g>
    </g>
   </g>
   <g id="matplotlib.axis_4">
    <g id="ytick_10">
     <g id="line2d_51">
      <g>
       <use style="stroke:#000000;stroke-width:0.5;" x="61.966875" xlink:href="#m728421d6d4" y="156.028915663"/>
      </g>
     </g>
     <g id="line2d_52">
      <g>
       <use style="stroke:#000000;stroke-width:0.5;" x="281.868352833" xlink:href="#mcb0005524f" y="156.028915663"/>
      </g>
     </g>
     <g id="text_11">
      <text style="font-family:DejaVu Sans;font-size:12.0px;font-style:normal;text-anchor:end;" transform="rotate(-0.000000, 57.966875, 159.340166)" x="57.966875" y="159.340165663">0.000</text>
     </g>
    </g>
    <g id="ytick_11">
     <g id="line2d_53">
      <g>
       <use style="stroke:#000000;stroke-width:0.5;" x="61.966875" xlink:href="#m728421d6d4" y="141.571084337"/>
      </g>
     </g>
     <g id="line2d_54">
      <g>
       <use style="stroke:#000000;stroke-width:0.5;" x="281.868352833" xlink:href="#mcb0005524f" y="141.571084337"/>
      </g>
     </g>
    </g>
    <g id="ytick_12">
     <g id="line2d_55">
      <g>
       <use style="stroke:#000000;stroke-width:0.5;" x="61.966875" xlink:href="#m728421d6d4" y="127.113253012"/>
      </g>
     </g>
     <g id="line2d_56">
      <g>
       <use style="stroke:#000000;stroke-width:0.5;" x="281.868352833" xlink:href="#mcb0005524f" y="127.113253012"/>
      </g>
     </g>
     <g id="text_12">
      <text style="font-family:DejaVu Sans;font-size:12.0px;font-style:normal;text-anchor:end;" transform="rotate(-0.000000, 57.966875, 130.424503)" x="57.966875" y="130.424503012">0.005</text>
     </g>
    </g>
    <g id="ytick_13">
     <g id="line2d_57">
      <g>
       <use style="stroke:#000000;stroke-width:0.5;" x="61.966875" xlink:href="#m728421d6d4" y="112.655421687"/>
      </g>
     </g>
     <g id="line2d_58">
      <g>
       <use style="stroke:#000000;stroke-width:0.5;" x="281.868352833" xlink:href="#mcb0005524f" y="112.655421687"/>
      </g>
     </g>
    </g>
    <g id="ytick_14">
     <g id="line2d_59">
      <g>
       <use style="stroke:#000000;stroke-width:0.5;" x="61.966875" xlink:href="#m728421d6d4" y="98.1975903614"/>
      </g>
     </g>
     <g id="line2d_60">
      <g>
       <use style="stroke:#000000;stroke-width:0.5;" x="281.868352833" xlink:href="#mcb0005524f" y="98.1975903614"/>
      </g>
     </g>
     <g id="text_13">
      <text style="font-family:DejaVu Sans;font-size:12.0px;font-style:normal;text-anchor:end;" transform="rotate(-0.000000, 57.966875, 101.508840)" x="57.966875" y="101.508840361">0.010</text>
     </g>
    </g>
    <g id="ytick_15">
     <g id="line2d_61">
      <g>
       <use style="stroke:#000000;stroke-width:0.5;" x="61.966875" xlink:href="#m728421d6d4" y="83.7397590361"/>
      </g>
     </g>
     <g id="line2d_62">
      <g>
       <use style="stroke:#000000;stroke-width:0.5;" x="281.868352833" xlink:href="#mcb0005524f" y="83.7397590361"/>
      </g>
     </g>
    </g>
    <g id="ytick_16">
     <g id="line2d_63">
      <g>
       <use style="stroke:#000000;stroke-width:0.5;" x="61.966875" xlink:href="#m728421d6d4" y="69.2819277108"/>
      </g>
     </g>
     <g id="line2d_64">
      <g>
       <use style="stroke:#000000;stroke-width:0.5;" x="281.868352833" xlink:href="#mcb0005524f" y="69.2819277108"/>
      </g>
     </g>
     <g id="text_14">
      <text style="font-family:DejaVu Sans;font-size:12.0px;font-style:normal;text-anchor:end;" transform="rotate(-0.000000, 57.966875, 72.593178)" x="57.966875" y="72.5931777108">0.015</text>
     </g>
    </g>
    <g id="ytick_17">
     <g id="line2d_65">
      <g>
       <use style="stroke:#000000;stroke-width:0.5;" x="61.966875" xlink:href="#m728421d6d4" y="54.8240963855"/>
      </g>
     </g>
     <g id="line2d_66">
      <g>
       <use style="stroke:#000000;stroke-width:0.5;" x="281.868352833" xlink:href="#mcb0005524f" y="54.8240963855"/>
      </g>
     </g>
    </g>
    <g id="ytick_18">
     <g id="line2d_67">
      <g>
       <use style="stroke:#000000;stroke-width:0.5;" x="61.966875" xlink:href="#m728421d6d4" y="40.3662650602"/>
      </g>
     </g>
     <g id="line2d_68">
      <g>
       <use style="stroke:#000000;stroke-width:0.5;" x="281.868352833" xlink:href="#mcb0005524f" y="40.3662650602"/>
      </g>
     </g>
     <g id="text_15">
      <text style="font-family:DejaVu Sans;font-size:12.0px;font-style:normal;text-anchor:end;" transform="rotate(-0.000000, 57.966875, 43.677515)" x="57.966875" y="43.6775150602">0.020</text>
     </g>
    </g>
   </g>
   <g id="patch_8">
    <path d="
M61.9669 28.8
L281.868 28.8" style="fill:none;stroke:#000000;"/>
   </g>
   <g id="patch_9">
    <path d="
M281.868 167.595
L281.868 28.8" style="fill:none;stroke:#000000;"/>
   </g>
   <g id="patch_10">
    <path d="
M61.9669 167.595
L281.868 167.595" style="fill:none;stroke:#000000;"/>
   </g>
   <g id="patch_11">
    <path d="
M61.9669 167.595
L61.9669 28.8" style="fill:none;stroke:#000000;"/>
   </g>
   <g id="text_16">
    <text style="font-family:DejaVu Sans;font-size:12.0px;font-style:normal;text-anchor:start;" transform="rotate(-0.000000, 72.961949, 45.455422)" x="72.9619488916" y="45.4554216867">$r = 2.0$ \AA</text>
   </g>
   <g id="legend_1">
    <g id="patch_12">
     <path d="
M133.076 673.456
L442.127 673.456
Q445.007 673.456 445.007 670.576
L445.007 650.88
Q445.007 648 442.127 648
L133.076 648
Q130.196 648 130.196 650.88
L130.196 670.576
Q130.196 673.456 133.076 673.456
z
" style="fill:#ffffff;stroke:#000000;"/>
    </g>
    <g id="line2d_69">
     <path d="
M140.276 659.662
L160.436 659.662" style="fill:none;stroke:#0000ff;stroke-linecap:square;"/>
    </g>
    <g id="line2d_70"/>
    <g id="text_17">
     <text style="font-family:DejaVu Sans;font-size:14.4px;font-style:normal;text-anchor:start;" transform="rotate(-0.000000, 176.275875, 664.701750)" x="176.275875" y="664.70175">Flat fracture</text>
    </g>
    <g id="line2d_71">
     <path d="
M296.916 659.662
L317.076 659.662" style="fill:none;stroke:#008000;stroke-linecap:square;"/>
    </g>
    <g id="line2d_72"/>
    <g id="text_18">
     <text style="font-family:DejaVu Sans;font-size:14.4px;font-style:normal;text-anchor:start;" transform="rotate(-0.000000, 332.916375, 664.701750)" x="332.916375" y="664.70175">Rough fracture</text>
    </g>
   </g>
  </g>
  <g id="axes_3">
   <g id="patch_13">
    <path d="
M288.465 167.595
L508.367 167.595
L508.367 28.8
L288.465 28.8
z
" style="fill:#ffffff;"/>
   </g>
   <g id="line2d_73">
    <path clip-path="url(#p108575e4b0)" d="
M301.401 135.21
L302.694 136.366
L303.988 139.258
L305.281 136.945
L306.575 133.475
L307.868 136.945
L309.162 132.896
L310.456 129.427
L311.749 136.945
L313.043 134.053
L314.336 128.27
L315.63 136.945
L316.923 132.896
L318.217 130.583
L319.51 129.427
L320.804 124.8
L322.097 134.053
L323.391 130.583
L324.684 120.173
L325.978 124.8
L327.272 116.125
L328.565 130.583
L329.859 123.065
L331.152 120.173
L332.446 120.173
L333.739 114.969
L335.033 114.39
L336.326 122.487
L337.62 112.655
L338.913 112.077
L340.207 114.969
L341.5 110.342
L342.794 119.017
L344.088 116.704
L345.381 105.716
L346.675 111.499
L347.968 110.92
L349.262 109.186
L350.555 104.559
L351.849 109.186
L353.142 96.4627
L354.436 101.667
L355.729 96.4627
L357.023 95.306
L358.316 102.246
L359.61 101.667
L360.904 97.6193
L362.197 90.6795
L363.491 86.6313
L364.784 101.089
L366.078 98.7759
L367.371 91.8361
L368.665 90.6795
L369.958 92.4145
L371.252 89.5229
L372.545 85.4747
L373.839 95.8843
L375.132 83.1614
L376.426 62.9205
L377.72 84.8964
L379.013 86.6313
L380.307 75.6434
L381.6 86.6313
L382.894 84.3181
L384.187 77.3783
L385.481 82.5831
L386.774 77.3783
L388.068 73.3301
L389.361 90.6795
L390.655 85.4747
L391.948 82.0048
L394.536 78.5349
L395.829 85.4747
L397.123 75.6434
L398.416 87.788
L399.71 77.3783
L401.003 74.4867
L402.297 88.3663
L403.59 85.4747
L404.884 84.8964
L406.177 85.4747
L407.471 100.511
L408.764 77.9566
L411.352 84.8964
L412.645 96.4627
L413.939 87.2096
L415.232 94.1494
L416.526 96.4627
L417.819 101.089
L419.113 94.7277
L420.406 105.137
L421.7 107.451
L422.993 92.9928
L424.287 102.824
L425.58 99.3542
L426.874 103.981
L428.168 106.294
L429.461 112.655
L430.755 113.234
L432.048 116.125
L433.342 113.812
L434.635 117.86
L435.929 126.535
L437.222 128.27
L438.516 127.113
L439.809 127.692
L441.103 135.788
L442.396 130.583
L443.69 137.523
L444.984 138.68
L446.277 136.366
L447.571 141.571
L450.158 147.354
L451.451 145.619
L452.745 145.619
L454.038 149.667
L455.332 149.089
L456.625 145.041
L457.919 148.511
L459.212 151.402
L460.506 153.716
L461.8 153.137
L463.093 150.824
L464.387 150.824
L465.68 151.402
L466.974 153.137
L468.267 153.716
L469.561 150.824
L470.854 154.294
L472.148 153.716
L473.441 152.559
L476.028 154.872
L477.322 153.137
L478.615 154.872
L479.909 154.294
L481.203 155.451
L482.496 156.029
L483.79 155.451
L487.67 155.451
L488.964 156.029
L494.138 156.029
L494.138 156.029" style="fill:none;stroke:#0000ff;stroke-linecap:square;"/>
   </g>
   <g id="line2d_74">
    <path clip-path="url(#p108575e4b0)" d="
M301.401 132.318
L302.694 135.788
L303.988 128.848
L305.281 132.896
L306.575 131.74
L307.868 126.535
L309.162 127.692
L310.456 121.908
L311.749 125.957
L313.043 125.378
L314.336 123.065
L315.63 127.113
L316.923 116.125
L318.217 121.33
L319.51 129.427
L320.804 123.643
L322.097 120.173
L323.391 113.812
L324.684 122.487
L325.978 119.017
L327.272 110.92
L328.565 106.872
L329.859 114.969
L331.152 108.029
L332.446 108.029
L333.739 103.402
L335.033 106.294
L336.326 102.246
L337.62 101.667
L338.913 108.607
L340.207 101.089
L341.5 108.029
L342.794 103.402
L344.088 108.607
L345.381 108.029
L346.675 106.294
L347.968 105.137
L349.262 110.342
L350.555 112.655
L351.849 98.1976
L353.142 99.3542
L354.436 99.9325
L355.729 109.186
L357.023 109.764
L358.316 102.824
L359.61 100.511
L360.904 108.029
L362.197 110.92
L363.491 101.089
L364.784 104.559
L367.371 99.9325
L368.665 101.667
L369.958 102.246
L371.252 109.186
L372.545 114.969
L373.839 101.667
L375.132 99.3542
L376.426 98.7759
L377.72 86.053
L379.013 101.667
L380.307 95.8843
L381.6 97.6193
L382.894 106.872
L384.187 86.053
L385.481 89.5229
L386.774 95.8843
L388.068 94.1494
L389.361 95.8843
L390.655 95.306
L391.948 86.6313
L393.242 92.9928
L394.536 81.4265
L395.829 90.1012
L397.123 90.6795
L398.416 90.1012
L399.71 97.6193
L401.003 95.306
L402.297 84.8964
L403.59 97.041
L404.884 87.788
L406.177 80.8482
L407.471 95.8843
L408.764 88.9446
L410.058 79.6916
L411.352 87.788
L412.645 82.5831
L413.939 82.5831
L415.232 91.2578
L416.526 91.2578
L417.819 96.4627
L419.113 87.2096
L420.406 75.6434
L421.7 92.9928
L422.993 97.6193
L424.287 96.4627
L425.58 101.089
L426.874 117.282
L428.168 113.812
L429.461 108.029
L430.755 114.39
L432.048 125.957
L433.342 114.39
L434.635 117.86
L435.929 121.908
L437.222 130.583
L438.516 127.113
L439.809 129.427
L441.103 132.318
L442.396 134.053
L443.69 136.945
L444.984 140.993
L446.277 137.523
L447.571 130.005
L448.864 139.258
L450.158 143.306
L451.451 141.571
L452.745 137.523
L454.038 142.728
L455.332 145.041
L456.625 145.041
L457.919 146.776
L459.212 146.776
L461.8 149.089
L463.093 151.402
L464.387 146.198
L465.68 147.354
L466.974 147.933
L468.267 149.667
L469.561 150.246
L470.854 147.354
L472.148 151.402
L473.441 150.246
L474.735 152.559
L476.028 152.559
L477.322 154.872
L479.909 154.872
L481.203 154.294
L482.496 154.872
L483.79 156.029
L485.083 154.872
L486.377 155.451
L487.67 155.451
L488.964 156.029
L494.138 156.029
L494.138 156.029" style="fill:none;stroke:#008000;stroke-linecap:square;"/>
   </g>
   <g id="matplotlib.axis_5">
    <g id="xtick_15">
     <g id="line2d_75">
      <g>
       <use style="stroke:#000000;stroke-width:0.5;" x="301.400778216" xlink:href="#m93b0483c22" y="167.595180723"/>
      </g>
     </g>
     <g id="line2d_76">
      <g>
       <use style="stroke:#000000;stroke-width:0.5;" x="301.400778216" xlink:href="#m741efc42ff" y="28.8"/>
      </g>
     </g>
    </g>
    <g id="xtick_16">
     <g id="line2d_77">
      <g>
       <use style="stroke:#000000;stroke-width:0.5;" x="333.739230839" xlink:href="#m93b0483c22" y="167.595180723"/>
      </g>
     </g>
     <g id="line2d_78">
      <g>
       <use style="stroke:#000000;stroke-width:0.5;" x="333.739230839" xlink:href="#m741efc42ff" y="28.8"/>
      </g>
     </g>
    </g>
    <g id="xtick_17">
     <g id="line2d_79">
      <g>
       <use style="stroke:#000000;stroke-width:0.5;" x="366.077683461" xlink:href="#m93b0483c22" y="167.595180723"/>
      </g>
     </g>
     <g id="line2d_80">
      <g>
       <use style="stroke:#000000;stroke-width:0.5;" x="366.077683461" xlink:href="#m741efc42ff" y="28.8"/>
      </g>
     </g>
    </g>
    <g id="xtick_18">
     <g id="line2d_81">
      <g>
       <use style="stroke:#000000;stroke-width:0.5;" x="398.416136084" xlink:href="#m93b0483c22" y="167.595180723"/>
      </g>
     </g>
     <g id="line2d_82">
      <g>
       <use style="stroke:#000000;stroke-width:0.5;" x="398.416136084" xlink:href="#m741efc42ff" y="28.8"/>
      </g>
     </g>
    </g>
    <g id="xtick_19">
     <g id="line2d_83">
      <g>
       <use style="stroke:#000000;stroke-width:0.5;" x="430.754588706" xlink:href="#m93b0483c22" y="167.595180723"/>
      </g>
     </g>
     <g id="line2d_84">
      <g>
       <use style="stroke:#000000;stroke-width:0.5;" x="430.754588706" xlink:href="#m741efc42ff" y="28.8"/>
      </g>
     </g>
    </g>
    <g id="xtick_20">
     <g id="line2d_85">
      <g>
       <use style="stroke:#000000;stroke-width:0.5;" x="463.093041329" xlink:href="#m93b0483c22" y="167.595180723"/>
      </g>
     </g>
     <g id="line2d_86">
      <g>
       <use style="stroke:#000000;stroke-width:0.5;" x="463.093041329" xlink:href="#m741efc42ff" y="28.8"/>
      </g>
     </g>
    </g>
    <g id="xtick_21">
     <g id="line2d_87">
      <g>
       <use style="stroke:#000000;stroke-width:0.5;" x="495.431493951" xlink:href="#m93b0483c22" y="167.595180723"/>
      </g>
     </g>
     <g id="line2d_88">
      <g>
       <use style="stroke:#000000;stroke-width:0.5;" x="495.431493951" xlink:href="#m741efc42ff" y="28.8"/>
      </g>
     </g>
    </g>
   </g>
   <g id="matplotlib.axis_6">
    <g id="ytick_19">
     <g id="line2d_89">
      <g>
       <use style="stroke:#000000;stroke-width:0.5;" x="288.465397167" xlink:href="#m728421d6d4" y="156.028915663"/>
      </g>
     </g>
     <g id="line2d_90">
      <g>
       <use style="stroke:#000000;stroke-width:0.5;" x="508.366875" xlink:href="#mcb0005524f" y="156.028915663"/>
      </g>
     </g>
    </g>
    <g id="ytick_20">
     <g id="line2d_91">
      <g>
       <use style="stroke:#000000;stroke-width:0.5;" x="288.465397167" xlink:href="#m728421d6d4" y="141.571084337"/>
      </g>
     </g>
     <g id="line2d_92">
      <g>
       <use style="stroke:#000000;stroke-width:0.5;" x="508.366875" xlink:href="#mcb0005524f" y="141.571084337"/>
      </g>
     </g>
    </g>
    <g id="ytick_21">
     <g id="line2d_93">
      <g>
       <use style="stroke:#000000;stroke-width:0.5;" x="288.465397167" xlink:href="#m728421d6d4" y="127.113253012"/>
      </g>
     </g>
     <g id="line2d_94">
      <g>
       <use style="stroke:#000000;stroke-width:0.5;" x="508.366875" xlink:href="#mcb0005524f" y="127.113253012"/>
      </g>
     </g>
    </g>
    <g id="ytick_22">
     <g id="line2d_95">
      <g>
       <use style="stroke:#000000;stroke-width:0.5;" x="288.465397167" xlink:href="#m728421d6d4" y="112.655421687"/>
      </g>
     </g>
     <g id="line2d_96">
      <g>
       <use style="stroke:#000000;stroke-width:0.5;" x="508.366875" xlink:href="#mcb0005524f" y="112.655421687"/>
      </g>
     </g>
    </g>
    <g id="ytick_23">
     <g id="line2d_97">
      <g>
       <use style="stroke:#000000;stroke-width:0.5;" x="288.465397167" xlink:href="#m728421d6d4" y="98.1975903614"/>
      </g>
     </g>
     <g id="line2d_98">
      <g>
       <use style="stroke:#000000;stroke-width:0.5;" x="508.366875" xlink:href="#mcb0005524f" y="98.1975903614"/>
      </g>
     </g>
    </g>
    <g id="ytick_24">
     <g id="line2d_99">
      <g>
       <use style="stroke:#000000;stroke-width:0.5;" x="288.465397167" xlink:href="#m728421d6d4" y="83.7397590361"/>
      </g>
     </g>
     <g id="line2d_100">
      <g>
       <use style="stroke:#000000;stroke-width:0.5;" x="508.366875" xlink:href="#mcb0005524f" y="83.7397590361"/>
      </g>
     </g>
    </g>
    <g id="ytick_25">
     <g id="line2d_101">
      <g>
       <use style="stroke:#000000;stroke-width:0.5;" x="288.465397167" xlink:href="#m728421d6d4" y="69.2819277108"/>
      </g>
     </g>
     <g id="line2d_102">
      <g>
       <use style="stroke:#000000;stroke-width:0.5;" x="508.366875" xlink:href="#mcb0005524f" y="69.2819277108"/>
      </g>
     </g>
    </g>
    <g id="ytick_26">
     <g id="line2d_103">
      <g>
       <use style="stroke:#000000;stroke-width:0.5;" x="288.465397167" xlink:href="#m728421d6d4" y="54.8240963855"/>
      </g>
     </g>
     <g id="line2d_104">
      <g>
       <use style="stroke:#000000;stroke-width:0.5;" x="508.366875" xlink:href="#mcb0005524f" y="54.8240963855"/>
      </g>
     </g>
    </g>
    <g id="ytick_27">
     <g id="line2d_105">
      <g>
       <use style="stroke:#000000;stroke-width:0.5;" x="288.465397167" xlink:href="#m728421d6d4" y="40.3662650602"/>
      </g>
     </g>
     <g id="line2d_106">
      <g>
       <use style="stroke:#000000;stroke-width:0.5;" x="508.366875" xlink:href="#mcb0005524f" y="40.3662650602"/>
      </g>
     </g>
    </g>
   </g>
   <g id="patch_14">
    <path d="
M288.465 28.8
L508.367 28.8" style="fill:none;stroke:#000000;"/>
   </g>
   <g id="patch_15">
    <path d="
M508.367 167.595
L508.367 28.8" style="fill:none;stroke:#000000;"/>
   </g>
   <g id="patch_16">
    <path d="
M288.465 167.595
L508.367 167.595" style="fill:none;stroke:#000000;"/>
   </g>
   <g id="patch_17">
    <path d="
M288.465 167.595
L288.465 28.8" style="fill:none;stroke:#000000;"/>
   </g>
   <g id="text_19">
    <text style="font-family:DejaVu Sans;font-size:12.0px;font-style:normal;text-anchor:start;" transform="rotate(-0.000000, 299.460471, 45.455422)" x="299.460471059" y="45.4554216867">$r = 3.5$ \AA</text>
   </g>
  </g>
  <g id="axes_4">
   <g id="patch_18">
    <path d="
M61.9669 313.33
L281.868 313.33
L281.868 174.535
L61.9669 174.535
z
" style="fill:#ffffff;"/>
   </g>
   <g id="line2d_107">
    <path clip-path="url(#p3e0da3d9b8)" d="
M74.9023 301.186
L76.1958 300.607
L77.4893 301.186
L78.7829 300.607
L85.2506 300.607
L86.5441 300.029
L87.8376 300.607
L89.1312 300.029
L93.0118 300.029
L94.3053 299.451
L99.4795 299.451
L100.773 298.872
L103.36 298.872
L104.654 298.294
L105.947 298.294
L107.241 297.716
L108.534 298.294
L111.121 297.137
L112.415 297.137
L113.708 296.559
L115.002 296.559
L117.589 295.402
L118.883 295.981
L122.763 294.246
L124.057 292.511
L126.644 292.511
L127.937 290.198
L129.231 290.776
L130.524 290.198
L134.405 286.728
L135.699 286.149
L136.992 286.728
L138.286 283.836
L139.579 283.258
L140.873 281.523
L142.166 281.523
L143.46 280.945
L144.753 278.631
L146.047 277.475
L147.34 276.896
L148.634 275.74
L149.927 275.74
L151.221 272.27
L152.515 271.692
L153.808 269.378
L155.102 267.643
L156.395 268.222
L157.689 266.487
L158.982 264.173
L160.276 261.282
L161.569 258.969
L162.863 260.704
L165.45 257.234
L168.037 256.077
L169.331 252.029
L170.624 248.559
L171.918 250.294
L173.211 245.089
L175.798 243.933
L177.092 239.884
L178.385 240.463
L179.679 240.463
L180.972 235.258
L182.266 233.523
L183.559 227.161
L184.853 227.74
L186.147 223.692
L187.44 221.957
L188.734 219.065
L190.027 211.547
L191.321 210.969
L192.614 209.812
L193.908 205.764
L195.201 204.607
L196.495 202.872
L197.788 201.716
L199.082 201.137
L200.375 196.511
L202.963 197.667
L205.55 202.294
L206.843 205.764
L208.137 202.872
L209.43 210.39
L210.724 214.439
L212.017 219.643
L213.311 220.222
L214.604 223.692
L215.898 224.848
L217.191 230.631
L218.485 228.896
L219.779 232.366
L221.072 234.68
L222.366 233.523
L223.659 235.258
L226.246 239.884
L227.54 237.571
L230.127 241.041
L231.42 243.354
L232.714 240.463
L234.007 241.041
L235.301 243.933
L236.595 246.246
L237.888 245.667
L240.475 249.137
L241.769 249.137
L243.062 251.451
L244.356 253.186
L245.649 255.499
L246.943 259.547
L248.236 260.125
L249.53 261.282
L250.823 265.33
L252.117 267.065
L253.411 270.535
L254.704 271.692
L255.998 275.161
L258.585 280.945
L259.878 284.993
L261.172 287.884
L262.465 290.198
L265.052 297.137
L266.346 299.451
L267.639 301.186
L267.639 301.186" style="fill:none;stroke:#0000ff;stroke-linecap:square;"/>
   </g>
   <g id="line2d_108">
    <path clip-path="url(#p3e0da3d9b8)" d="
M74.9023 299.451
L76.1958 299.451
L77.4893 298.872
L78.7829 298.872
L80.0764 299.451
L82.6635 298.294
L83.957 298.872
L86.5441 297.716
L87.8376 298.294
L89.1312 297.716
L91.7183 297.716
L93.0118 297.137
L94.3053 297.137
L95.5989 295.981
L96.8924 295.981
L98.1859 296.559
L100.773 295.402
L104.654 295.402
L107.241 294.246
L108.534 294.246
L111.121 293.089
L112.415 293.089
L113.708 291.354
L115.002 292.511
L116.295 290.776
L117.589 290.198
L120.176 290.198
L121.47 289.041
L124.057 287.884
L125.35 286.728
L126.644 284.993
L127.937 285.571
L129.231 284.414
L130.524 282.68
L131.818 283.836
L133.111 281.523
L134.405 280.366
L135.699 278.631
L136.992 278.053
L138.286 278.053
L139.579 277.475
L140.873 274.583
L142.166 272.848
L143.46 274.583
L144.753 271.113
L146.047 271.113
L147.34 268.8
L149.927 267.643
L151.221 265.33
L152.515 265.908
L153.808 263.595
L155.102 262.439
L157.689 257.812
L158.982 258.969
L160.276 256.655
L161.569 253.764
L162.863 252.607
L164.156 252.607
L165.45 251.451
L166.743 248.559
L168.037 247.402
L169.331 246.824
L170.624 243.354
L171.918 242.776
L173.211 243.354
L174.505 238.728
L175.798 236.414
L177.092 236.414
L178.385 234.101
L179.679 232.366
L180.972 231.788
L182.266 226.583
L183.559 224.848
L184.853 224.848
L186.147 221.378
L187.44 220.8
L188.734 219.065
L190.027 217.908
L191.321 214.439
L192.614 211.547
L195.201 210.39
L196.495 208.077
L199.082 206.92
L200.375 208.655
L201.669 208.655
L202.963 206.92
L204.256 210.39
L205.55 213.282
L206.843 215.017
L208.137 219.643
L209.43 223.692
L210.724 224.848
L212.017 227.74
L213.311 232.366
L214.604 233.523
L215.898 237.571
L217.191 238.728
L218.485 241.619
L219.779 241.619
L221.072 242.776
L222.366 245.667
L223.659 245.089
L226.246 246.246
L227.54 247.402
L228.833 246.824
L230.127 250.872
L231.42 249.716
L234.007 252.029
L235.301 252.029
L237.888 255.499
L239.182 254.92
L240.475 257.234
L241.769 257.812
L243.062 258.969
L244.356 261.282
L245.649 262.439
L249.53 267.643
L250.823 268.222
L254.704 276.896
L255.998 277.475
L258.585 282.101
L259.878 286.149
L261.172 288.463
L262.465 291.933
L263.759 294.824
L266.346 299.451
L267.639 301.186
L267.639 301.186" style="fill:none;stroke:#008000;stroke-linecap:square;"/>
   </g>
   <g id="matplotlib.axis_7">
    <g id="xtick_22">
     <g id="line2d_109">
      <g>
       <use style="stroke:#000000;stroke-width:0.5;" x="74.902256049" xlink:href="#m93b0483c22" y="313.330120482"/>
      </g>
     </g>
     <g id="line2d_110">
      <g>
       <use style="stroke:#000000;stroke-width:0.5;" x="74.902256049" xlink:href="#m741efc42ff" y="174.534939759"/>
      </g>
     </g>
    </g>
    <g id="xtick_23">
     <g id="line2d_111">
      <g>
       <use style="stroke:#000000;stroke-width:0.5;" x="107.240708671" xlink:href="#m93b0483c22" y="313.330120482"/>
      </g>
     </g>
     <g id="line2d_112">
      <g>
       <use style="stroke:#000000;stroke-width:0.5;" x="107.240708671" xlink:href="#m741efc42ff" y="174.534939759"/>
      </g>
     </g>
    </g>
    <g id="xtick_24">
     <g id="line2d_113">
      <g>
       <use style="stroke:#000000;stroke-width:0.5;" x="139.579161294" xlink:href="#m93b0483c22" y="313.330120482"/>
      </g>
     </g>
     <g id="line2d_114">
      <g>
       <use style="stroke:#000000;stroke-width:0.5;" x="139.579161294" xlink:href="#m741efc42ff" y="174.534939759"/>
      </g>
     </g>
    </g>
    <g id="xtick_25">
     <g id="line2d_115">
      <g>
       <use style="stroke:#000000;stroke-width:0.5;" x="171.917613916" xlink:href="#m93b0483c22" y="313.330120482"/>
      </g>
     </g>
     <g id="line2d_116">
      <g>
       <use style="stroke:#000000;stroke-width:0.5;" x="171.917613916" xlink:href="#m741efc42ff" y="174.534939759"/>
      </g>
     </g>
    </g>
    <g id="xtick_26">
     <g id="line2d_117">
      <g>
       <use style="stroke:#000000;stroke-width:0.5;" x="204.256066539" xlink:href="#m93b0483c22" y="313.330120482"/>
      </g>
     </g>
     <g id="line2d_118">
      <g>
       <use style="stroke:#000000;stroke-width:0.5;" x="204.256066539" xlink:href="#m741efc42ff" y="174.534939759"/>
      </g>
     </g>
    </g>
    <g id="xtick_27">
     <g id="line2d_119">
      <g>
       <use style="stroke:#000000;stroke-width:0.5;" x="236.594519161" xlink:href="#m93b0483c22" y="313.330120482"/>
      </g>
     </g>
     <g id="line2d_120">
      <g>
       <use style="stroke:#000000;stroke-width:0.5;" x="236.594519161" xlink:href="#m741efc42ff" y="174.534939759"/>
      </g>
     </g>
    </g>
    <g id="xtick_28">
     <g id="line2d_121">
      <g>
       <use style="stroke:#000000;stroke-width:0.5;" x="268.932971784" xlink:href="#m93b0483c22" y="313.330120482"/>
      </g>
     </g>
     <g id="line2d_122">
      <g>
       <use style="stroke:#000000;stroke-width:0.5;" x="268.932971784" xlink:href="#m741efc42ff" y="174.534939759"/>
      </g>
     </g>
    </g>
   </g>
   <g id="matplotlib.axis_8">
    <g id="ytick_28">
     <g id="line2d_123">
      <g>
       <use style="stroke:#000000;stroke-width:0.5;" x="61.966875" xlink:href="#m728421d6d4" y="301.763855422"/>
      </g>
     </g>
     <g id="line2d_124">
      <g>
       <use style="stroke:#000000;stroke-width:0.5;" x="281.868352833" xlink:href="#mcb0005524f" y="301.763855422"/>
      </g>
     </g>
     <g id="text_20">
      <text style="font-family:DejaVu Sans;font-size:12.0px;font-style:normal;text-anchor:end;" transform="rotate(-0.000000, 57.966875, 305.075105)" x="57.966875" y="305.075105422">0.000</text>
     </g>
    </g>
    <g id="ytick_29">
     <g id="line2d_125">
      <g>
       <use style="stroke:#000000;stroke-width:0.5;" x="61.966875" xlink:href="#m728421d6d4" y="287.306024096"/>
      </g>
     </g>
     <g id="line2d_126">
      <g>
       <use style="stroke:#000000;stroke-width:0.5;" x="281.868352833" xlink:href="#mcb0005524f" y="287.306024096"/>
      </g>
     </g>
    </g>
    <g id="ytick_30">
     <g id="line2d_127">
      <g>
       <use style="stroke:#000000;stroke-width:0.5;" x="61.966875" xlink:href="#m728421d6d4" y="272.848192771"/>
      </g>
     </g>
     <g id="line2d_128">
      <g>
       <use style="stroke:#000000;stroke-width:0.5;" x="281.868352833" xlink:href="#mcb0005524f" y="272.848192771"/>
      </g>
     </g>
     <g id="text_21">
      <text style="font-family:DejaVu Sans;font-size:12.0px;font-style:normal;text-anchor:end;" transform="rotate(-0.000000, 57.966875, 276.159443)" x="57.966875" y="276.159442771">0.005</text>
     </g>
    </g>
    <g id="ytick_31">
     <g id="line2d_129">
      <g>
       <use style="stroke:#000000;stroke-width:0.5;" x="61.966875" xlink:href="#m728421d6d4" y="258.390361446"/>
      </g>
     </g>
     <g id="line2d_130">
      <g>
       <use style="stroke:#000000;stroke-width:0.5;" x="281.868352833" xlink:href="#mcb0005524f" y="258.390361446"/>
      </g>
     </g>
    </g>
    <g id="ytick_32">
     <g id="line2d_131">
      <g>
       <use style="stroke:#000000;stroke-width:0.5;" x="61.966875" xlink:href="#m728421d6d4" y="243.93253012"/>
      </g>
     </g>
     <g id="line2d_132">
      <g>
       <use style="stroke:#000000;stroke-width:0.5;" x="281.868352833" xlink:href="#mcb0005524f" y="243.93253012"/>
      </g>
     </g>
     <g id="text_22">
      <text style="font-family:DejaVu Sans;font-size:12.0px;font-style:normal;text-anchor:end;" transform="rotate(-0.000000, 57.966875, 247.243780)" x="57.966875" y="247.24378012">0.010</text>
     </g>
    </g>
    <g id="ytick_33">
     <g id="line2d_133">
      <g>
       <use style="stroke:#000000;stroke-width:0.5;" x="61.966875" xlink:href="#m728421d6d4" y="229.474698795"/>
      </g>
     </g>
     <g id="line2d_134">
      <g>
       <use style="stroke:#000000;stroke-width:0.5;" x="281.868352833" xlink:href="#mcb0005524f" y="229.474698795"/>
      </g>
     </g>
    </g>
    <g id="ytick_34">
     <g id="line2d_135">
      <g>
       <use style="stroke:#000000;stroke-width:0.5;" x="61.966875" xlink:href="#m728421d6d4" y="215.01686747"/>
      </g>
     </g>
     <g id="line2d_136">
      <g>
       <use style="stroke:#000000;stroke-width:0.5;" x="281.868352833" xlink:href="#mcb0005524f" y="215.01686747"/>
      </g>
     </g>
     <g id="text_23">
      <text style="font-family:DejaVu Sans;font-size:12.0px;font-style:normal;text-anchor:end;" transform="rotate(-0.000000, 57.966875, 218.328117)" x="57.966875" y="218.32811747">0.015</text>
     </g>
    </g>
    <g id="ytick_35">
     <g id="line2d_137">
      <g>
       <use style="stroke:#000000;stroke-width:0.5;" x="61.966875" xlink:href="#m728421d6d4" y="200.559036145"/>
      </g>
     </g>
     <g id="line2d_138">
      <g>
       <use style="stroke:#000000;stroke-width:0.5;" x="281.868352833" xlink:href="#mcb0005524f" y="200.559036145"/>
      </g>
     </g>
    </g>
    <g id="ytick_36">
     <g id="line2d_139">
      <g>
       <use style="stroke:#000000;stroke-width:0.5;" x="61.966875" xlink:href="#m728421d6d4" y="186.101204819"/>
      </g>
     </g>
     <g id="line2d_140">
      <g>
       <use style="stroke:#000000;stroke-width:0.5;" x="281.868352833" xlink:href="#mcb0005524f" y="186.101204819"/>
      </g>
     </g>
     <g id="text_24">
      <text style="font-family:DejaVu Sans;font-size:12.0px;font-style:normal;text-anchor:end;" transform="rotate(-0.000000, 57.966875, 189.412455)" x="57.966875" y="189.412454819">0.020</text>
     </g>
    </g>
   </g>
   <g id="patch_19">
    <path d="
M61.9669 174.535
L281.868 174.535" style="fill:none;stroke:#000000;"/>
   </g>
   <g id="patch_20">
    <path d="
M281.868 313.33
L281.868 174.535" style="fill:none;stroke:#000000;"/>
   </g>
   <g id="patch_21">
    <path d="
M61.9669 313.33
L281.868 313.33" style="fill:none;stroke:#000000;"/>
   </g>
   <g id="patch_22">
    <path d="
M61.9669 313.33
L61.9669 174.535" style="fill:none;stroke:#000000;"/>
   </g>
   <g id="text_25">
    <text style="font-family:DejaVu Sans;font-size:12.0px;font-style:normal;text-anchor:start;" transform="rotate(-0.000000, 72.961949, 191.190361)" x="72.9619488916" y="191.190361446">$r = 4.5$ \AA</text>
   </g>
  </g>
  <g id="axes_5">
   <g id="patch_23">
    <path d="
M288.465 313.33
L508.367 313.33
L508.367 174.535
L288.465 174.535
z
" style="fill:#ffffff;"/>
   </g>
   <g id="line2d_141">
    <path clip-path="url(#p1588c2aa0a)" d="
M301.401 301.764
L313.043 301.764
L314.336 301.186
L315.63 301.764
L318.217 301.764
L319.51 301.186
L320.804 301.764
L322.097 301.186
L332.446 301.186
L333.739 300.607
L337.62 300.607
L338.913 301.186
L340.207 300.607
L342.794 300.607
L344.088 300.029
L345.381 300.029
L346.675 299.451
L347.968 299.451
L349.262 300.029
L350.555 299.451
L351.849 299.451
L354.436 298.294
L355.729 298.872
L357.023 297.716
L358.316 298.294
L359.61 297.716
L360.904 296.559
L362.197 296.559
L363.491 295.402
L364.784 295.981
L366.078 294.824
L367.371 294.824
L368.665 294.246
L369.958 293.089
L371.252 293.089
L372.545 292.511
L373.839 291.354
L375.132 291.354
L376.426 290.198
L377.72 289.619
L379.013 287.884
L380.307 287.306
L381.6 286.149
L382.894 284.414
L384.187 284.993
L385.481 282.68
L386.774 282.68
L388.068 280.945
L389.361 278.631
L391.948 277.475
L393.242 274.583
L394.536 274.005
L395.829 270.535
L397.123 271.692
L398.416 267.643
L399.71 268.222
L401.003 268.222
L402.297 264.752
L403.59 260.704
L404.884 260.125
L406.177 256.655
L408.764 252.029
L410.058 249.137
L411.352 245.667
L412.645 245.089
L413.939 238.728
L415.232 238.149
L416.526 234.68
L417.819 230.631
L419.113 220.8
L420.406 219.643
L421.7 216.752
L422.993 211.547
L424.287 209.812
L425.58 204.607
L426.874 200.559
L428.168 198.246
L429.461 196.511
L430.755 198.246
L432.048 194.198
L433.342 198.824
L434.635 200.559
L435.929 201.137
L437.222 205.186
L438.516 208.655
L439.809 208.077
L441.103 208.655
L442.396 210.39
L443.69 211.547
L444.984 210.39
L446.277 213.282
L447.571 210.969
L448.864 212.704
L450.158 216.173
L451.451 210.969
L452.745 212.125
L454.038 211.547
L455.332 215.017
L456.625 217.908
L457.919 213.282
L459.212 211.547
L460.506 217.33
L461.8 219.065
L463.093 216.173
L464.387 220.8
L465.68 221.957
L469.561 223.692
L470.854 225.427
L472.148 225.427
L473.441 230.053
L474.735 230.631
L476.028 234.68
L477.322 237.571
L478.615 239.306
L479.909 241.619
L481.203 248.559
L482.496 252.029
L483.79 254.342
L485.083 260.704
L486.377 262.439
L487.67 272.27
L488.964 276.896
L491.551 291.354
L494.138 300.607
L494.138 300.607" style="fill:none;stroke:#0000ff;stroke-linecap:square;"/>
   </g>
   <g id="line2d_142">
    <path clip-path="url(#p1588c2aa0a)" d="
M301.401 300.607
L302.694 301.186
L303.988 300.607
L307.868 300.607
L309.162 300.029
L310.456 300.607
L313.043 300.607
L314.336 300.029
L318.217 300.029
L319.51 300.607
L320.804 300.029
L323.391 300.029
L324.684 299.451
L328.565 299.451
L329.859 298.872
L331.152 299.451
L332.446 299.451
L333.739 298.872
L335.033 298.872
L337.62 297.716
L338.913 297.716
L340.207 297.137
L341.5 297.716
L342.794 297.137
L344.088 297.137
L345.381 296.559
L346.675 295.402
L349.262 296.559
L354.436 294.246
L357.023 294.246
L359.61 291.933
L360.904 293.089
L362.197 291.933
L363.491 290.198
L366.078 290.198
L367.371 288.463
L369.958 287.306
L371.252 287.884
L372.545 284.993
L373.839 285.571
L375.132 283.836
L376.426 282.68
L377.72 280.945
L379.013 282.68
L380.307 281.523
L381.6 279.788
L382.894 278.631
L385.481 278.631
L386.774 276.318
L388.068 275.74
L389.361 272.27
L390.655 271.113
L391.948 271.692
L393.242 268.8
L394.536 268.222
L395.829 264.173
L397.123 265.908
L398.416 263.017
L399.71 263.017
L401.003 258.39
L402.297 256.655
L403.59 253.764
L404.884 257.234
L406.177 253.764
L407.471 247.981
L408.764 245.667
L410.058 245.667
L411.352 243.354
L413.939 236.414
L415.232 235.258
L416.526 232.945
L417.819 228.318
L419.113 224.27
L420.406 219.643
L421.7 216.173
L422.993 216.173
L424.287 213.282
L425.58 206.92
L426.874 205.186
L428.168 202.294
L429.461 202.872
L430.755 204.607
L432.048 202.294
L433.342 204.029
L434.635 209.234
L435.929 212.125
L437.222 212.125
L438.516 211.547
L439.809 217.33
L441.103 217.908
L442.396 217.908
L443.69 224.27
L444.984 221.957
L446.277 223.113
L447.571 225.427
L448.864 221.957
L450.158 224.848
L451.451 221.957
L452.745 222.535
L454.038 223.692
L455.332 225.427
L456.625 224.27
L459.212 224.27
L460.506 223.692
L461.8 224.27
L463.093 226.005
L464.387 224.848
L465.68 226.583
L466.974 226.583
L468.267 226.005
L469.561 228.318
L470.854 231.21
L472.148 230.631
L473.441 234.68
L474.735 234.101
L476.028 238.149
L477.322 242.776
L478.615 242.198
L479.909 247.402
L482.496 255.499
L483.79 258.39
L485.083 263.017
L486.377 269.957
L490.257 285.571
L491.551 291.354
L492.844 296.559
L494.138 300.607
L494.138 300.607" style="fill:none;stroke:#008000;stroke-linecap:square;"/>
   </g>
   <g id="matplotlib.axis_9">
    <g id="xtick_29">
     <g id="line2d_143">
      <g>
       <use style="stroke:#000000;stroke-width:0.5;" x="301.400778216" xlink:href="#m93b0483c22" y="313.330120482"/>
      </g>
     </g>
     <g id="line2d_144">
      <g>
       <use style="stroke:#000000;stroke-width:0.5;" x="301.400778216" xlink:href="#m741efc42ff" y="174.534939759"/>
      </g>
     </g>
    </g>
    <g id="xtick_30">
     <g id="line2d_145">
      <g>
       <use style="stroke:#000000;stroke-width:0.5;" x="333.739230839" xlink:href="#m93b0483c22" y="313.330120482"/>
      </g>
     </g>
     <g id="line2d_146">
      <g>
       <use style="stroke:#000000;stroke-width:0.5;" x="333.739230839" xlink:href="#m741efc42ff" y="174.534939759"/>
      </g>
     </g>
    </g>
    <g id="xtick_31">
     <g id="line2d_147">
      <g>
       <use style="stroke:#000000;stroke-width:0.5;" x="366.077683461" xlink:href="#m93b0483c22" y="313.330120482"/>
      </g>
     </g>
     <g id="line2d_148">
      <g>
       <use style="stroke:#000000;stroke-width:0.5;" x="366.077683461" xlink:href="#m741efc42ff" y="174.534939759"/>
      </g>
     </g>
    </g>
    <g id="xtick_32">
     <g id="line2d_149">
      <g>
       <use style="stroke:#000000;stroke-width:0.5;" x="398.416136084" xlink:href="#m93b0483c22" y="313.330120482"/>
      </g>
     </g>
     <g id="line2d_150">
      <g>
       <use style="stroke:#000000;stroke-width:0.5;" x="398.416136084" xlink:href="#m741efc42ff" y="174.534939759"/>
      </g>
     </g>
    </g>
    <g id="xtick_33">
     <g id="line2d_151">
      <g>
       <use style="stroke:#000000;stroke-width:0.5;" x="430.754588706" xlink:href="#m93b0483c22" y="313.330120482"/>
      </g>
     </g>
     <g id="line2d_152">
      <g>
       <use style="stroke:#000000;stroke-width:0.5;" x="430.754588706" xlink:href="#m741efc42ff" y="174.534939759"/>
      </g>
     </g>
    </g>
    <g id="xtick_34">
     <g id="line2d_153">
      <g>
       <use style="stroke:#000000;stroke-width:0.5;" x="463.093041329" xlink:href="#m93b0483c22" y="313.330120482"/>
      </g>
     </g>
     <g id="line2d_154">
      <g>
       <use style="stroke:#000000;stroke-width:0.5;" x="463.093041329" xlink:href="#m741efc42ff" y="174.534939759"/>
      </g>
     </g>
    </g>
    <g id="xtick_35">
     <g id="line2d_155">
      <g>
       <use style="stroke:#000000;stroke-width:0.5;" x="495.431493951" xlink:href="#m93b0483c22" y="313.330120482"/>
      </g>
     </g>
     <g id="line2d_156">
      <g>
       <use style="stroke:#000000;stroke-width:0.5;" x="495.431493951" xlink:href="#m741efc42ff" y="174.534939759"/>
      </g>
     </g>
    </g>
   </g>
   <g id="matplotlib.axis_10">
    <g id="ytick_37">
     <g id="line2d_157">
      <g>
       <use style="stroke:#000000;stroke-width:0.5;" x="288.465397167" xlink:href="#m728421d6d4" y="301.763855422"/>
      </g>
     </g>
     <g id="line2d_158">
      <g>
       <use style="stroke:#000000;stroke-width:0.5;" x="508.366875" xlink:href="#mcb0005524f" y="301.763855422"/>
      </g>
     </g>
    </g>
    <g id="ytick_38">
     <g id="line2d_159">
      <g>
       <use style="stroke:#000000;stroke-width:0.5;" x="288.465397167" xlink:href="#m728421d6d4" y="287.306024096"/>
      </g>
     </g>
     <g id="line2d_160">
      <g>
       <use style="stroke:#000000;stroke-width:0.5;" x="508.366875" xlink:href="#mcb0005524f" y="287.306024096"/>
      </g>
     </g>
    </g>
    <g id="ytick_39">
     <g id="line2d_161">
      <g>
       <use style="stroke:#000000;stroke-width:0.5;" x="288.465397167" xlink:href="#m728421d6d4" y="272.848192771"/>
      </g>
     </g>
     <g id="line2d_162">
      <g>
       <use style="stroke:#000000;stroke-width:0.5;" x="508.366875" xlink:href="#mcb0005524f" y="272.848192771"/>
      </g>
     </g>
    </g>
    <g id="ytick_40">
     <g id="line2d_163">
      <g>
       <use style="stroke:#000000;stroke-width:0.5;" x="288.465397167" xlink:href="#m728421d6d4" y="258.390361446"/>
      </g>
     </g>
     <g id="line2d_164">
      <g>
       <use style="stroke:#000000;stroke-width:0.5;" x="508.366875" xlink:href="#mcb0005524f" y="258.390361446"/>
      </g>
     </g>
    </g>
    <g id="ytick_41">
     <g id="line2d_165">
      <g>
       <use style="stroke:#000000;stroke-width:0.5;" x="288.465397167" xlink:href="#m728421d6d4" y="243.93253012"/>
      </g>
     </g>
     <g id="line2d_166">
      <g>
       <use style="stroke:#000000;stroke-width:0.5;" x="508.366875" xlink:href="#mcb0005524f" y="243.93253012"/>
      </g>
     </g>
    </g>
    <g id="ytick_42">
     <g id="line2d_167">
      <g>
       <use style="stroke:#000000;stroke-width:0.5;" x="288.465397167" xlink:href="#m728421d6d4" y="229.474698795"/>
      </g>
     </g>
     <g id="line2d_168">
      <g>
       <use style="stroke:#000000;stroke-width:0.5;" x="508.366875" xlink:href="#mcb0005524f" y="229.474698795"/>
      </g>
     </g>
    </g>
    <g id="ytick_43">
     <g id="line2d_169">
      <g>
       <use style="stroke:#000000;stroke-width:0.5;" x="288.465397167" xlink:href="#m728421d6d4" y="215.01686747"/>
      </g>
     </g>
     <g id="line2d_170">
      <g>
       <use style="stroke:#000000;stroke-width:0.5;" x="508.366875" xlink:href="#mcb0005524f" y="215.01686747"/>
      </g>
     </g>
    </g>
    <g id="ytick_44">
     <g id="line2d_171">
      <g>
       <use style="stroke:#000000;stroke-width:0.5;" x="288.465397167" xlink:href="#m728421d6d4" y="200.559036145"/>
      </g>
     </g>
     <g id="line2d_172">
      <g>
       <use style="stroke:#000000;stroke-width:0.5;" x="508.366875" xlink:href="#mcb0005524f" y="200.559036145"/>
      </g>
     </g>
    </g>
    <g id="ytick_45">
     <g id="line2d_173">
      <g>
       <use style="stroke:#000000;stroke-width:0.5;" x="288.465397167" xlink:href="#m728421d6d4" y="186.101204819"/>
      </g>
     </g>
     <g id="line2d_174">
      <g>
       <use style="stroke:#000000;stroke-width:0.5;" x="508.366875" xlink:href="#mcb0005524f" y="186.101204819"/>
      </g>
     </g>
    </g>
   </g>
   <g id="patch_24">
    <path d="
M288.465 174.535
L508.367 174.535" style="fill:none;stroke:#000000;"/>
   </g>
   <g id="patch_25">
    <path d="
M508.367 313.33
L508.367 174.535" style="fill:none;stroke:#000000;"/>
   </g>
   <g id="patch_26">
    <path d="
M288.465 313.33
L508.367 313.33" style="fill:none;stroke:#000000;"/>
   </g>
   <g id="patch_27">
    <path d="
M288.465 313.33
L288.465 174.535" style="fill:none;stroke:#000000;"/>
   </g>
   <g id="text_26">
    <text style="font-family:DejaVu Sans;font-size:12.0px;font-style:normal;text-anchor:start;" transform="rotate(-0.000000, 299.460471, 191.190361)" x="299.460471059" y="191.190361446">$r = 5.0$ \AA</text>
   </g>
  </g>
  <g id="axes_6">
   <g id="patch_28">
    <path d="
M61.9669 459.065
L281.868 459.065
L281.868 320.27
L61.9669 320.27
z
" style="fill:#ffffff;"/>
   </g>
   <g id="line2d_175">
    <path clip-path="url(#p02311a8770)" d="
M74.9023 447.499
L81.3699 447.499
L82.6635 446.92
L83.957 447.499
L93.0118 447.499
L94.3053 446.92
L95.5989 447.499
L96.8924 447.499
L98.1859 446.92
L115.002 446.92
L116.295 446.342
L122.763 446.342
L124.057 445.186
L125.35 445.764
L126.644 445.186
L127.937 445.764
L129.231 444.607
L131.818 444.607
L133.111 444.029
L134.405 444.029
L135.699 443.451
L136.992 443.451
L138.286 442.872
L139.579 442.872
L140.873 441.716
L142.166 441.137
L143.46 441.716
L144.753 439.981
L146.047 441.137
L147.34 439.981
L148.634 438.246
L149.927 439.402
L151.221 437.667
L152.515 436.511
L153.808 434.776
L155.102 435.933
L156.395 434.776
L157.689 431.884
L158.982 433.619
L160.276 430.149
L161.569 430.728
L162.863 429.571
L164.156 427.836
L165.45 426.68
L166.743 424.366
L170.624 420.896
L171.918 419.161
L173.211 418.583
L174.505 415.113
L175.798 414.535
L177.092 411.643
L178.385 408.173
L179.679 407.017
L180.972 408.173
L182.266 401.234
L183.559 399.499
L184.853 396.607
L186.147 394.294
L187.44 389.089
L188.734 385.041
L190.027 386.198
L191.321 376.366
L192.614 374.053
L195.201 364.8
L196.495 364.8
L197.788 358.439
L199.082 348.607
L200.375 346.294
L201.669 345.137
L202.963 341.089
L204.256 338.198
L205.55 340.511
L208.137 339.354
L209.43 340.511
L210.724 342.824
L212.017 350.342
L213.311 342.824
L214.604 346.872
L215.898 343.981
L217.191 345.716
L218.485 349.186
L219.779 347.451
L221.072 345.137
L222.366 346.294
L223.659 342.246
L224.953 349.186
L226.246 341.667
L227.54 348.029
L228.833 353.234
L230.127 346.294
L231.42 350.342
L232.714 350.92
L234.007 353.234
L235.301 354.969
L236.595 352.655
L237.888 355.547
L239.182 360.173
L240.475 362.487
L241.769 363.065
L243.062 364.8
L244.356 368.27
L245.649 374.053
L246.943 376.945
L248.236 378.68
L249.53 383.306
L250.823 389.089
L252.117 389.667
L254.704 402.969
L255.998 402.969
L257.291 411.643
L258.585 412.222
L259.878 418.583
L263.759 434.198
L265.052 440.559
L266.346 444.029
L267.639 446.92
L267.639 446.92" style="fill:none;stroke:#0000ff;stroke-linecap:square;"/>
   </g>
   <g id="line2d_176">
    <path clip-path="url(#p02311a8770)" d="
M74.9023 446.92
L85.2506 446.92
L86.5441 446.342
L87.8376 446.92
L93.0118 446.92
L94.3053 446.342
L95.5989 446.92
L96.8924 446.92
L98.1859 446.342
L103.36 446.342
L104.654 445.764
L105.947 445.764
L107.241 446.342
L108.534 446.342
L109.828 445.764
L112.415 445.764
L115.002 444.607
L116.295 445.186
L117.589 445.186
L120.176 444.029
L121.47 444.029
L122.763 443.451
L124.057 444.029
L125.35 442.872
L126.644 442.294
L127.937 442.872
L129.231 441.716
L130.524 441.716
L131.818 441.137
L133.111 441.137
L134.405 440.559
L135.699 440.559
L136.992 438.824
L138.286 438.824
L139.579 439.402
L140.873 437.089
L142.166 438.824
L143.46 437.667
L144.753 435.354
L146.047 434.198
L147.34 435.354
L148.634 431.884
L151.221 430.728
L152.515 428.993
L153.808 430.149
L155.102 430.149
L156.395 427.836
L157.689 427.258
L160.276 424.945
L161.569 424.366
L164.156 422.053
L165.45 421.475
L166.743 419.74
L168.037 417.427
L169.331 414.535
L170.624 412.8
L171.918 411.643
L173.211 409.33
L174.505 408.173
L175.798 408.173
L177.092 404.704
L178.385 402.39
L179.679 401.234
L180.972 398.92
L182.266 394.872
L183.559 391.981
L184.853 394.294
L187.44 382.728
L188.734 382.149
L190.027 377.523
L191.321 374.053
L192.614 369.427
L193.908 368.27
L195.201 361.908
L196.495 360.752
L197.788 355.547
L199.082 352.655
L200.375 349.186
L201.669 343.981
L202.963 342.246
L204.256 339.354
L205.55 340.511
L206.843 342.824
L208.137 344.559
L209.43 343.981
L210.724 345.137
L212.017 350.92
L213.311 353.812
L214.604 354.969
L215.898 350.342
L218.485 356.125
L219.779 354.969
L221.072 354.969
L222.366 360.173
L223.659 358.439
L224.953 360.173
L226.246 356.704
L227.54 356.125
L228.833 358.439
L230.127 358.439
L231.42 360.173
L232.714 357.86
L234.007 363.065
L235.301 360.752
L236.595 368.848
L237.888 364.222
L239.182 367.692
L240.475 369.427
L241.769 369.427
L243.062 371.161
L244.356 374.053
L245.649 380.993
L246.943 382.728
L248.236 386.776
L249.53 393.137
L250.823 394.294
L252.117 397.186
L253.411 398.92
L254.704 405.282
L255.998 411.065
L258.585 416.848
L259.878 423.21
L261.172 428.414
L263.759 436.511
L265.052 441.137
L266.346 444.607
L267.639 446.92
L267.639 446.92" style="fill:none;stroke:#008000;stroke-linecap:square;"/>
   </g>
   <g id="matplotlib.axis_11">
    <g id="xtick_36">
     <g id="line2d_177">
      <g>
       <use style="stroke:#000000;stroke-width:0.5;" x="74.902256049" xlink:href="#m93b0483c22" y="459.065060241"/>
      </g>
     </g>
     <g id="line2d_178">
      <g>
       <use style="stroke:#000000;stroke-width:0.5;" x="74.902256049" xlink:href="#m741efc42ff" y="320.269879518"/>
      </g>
     </g>
    </g>
    <g id="xtick_37">
     <g id="line2d_179">
      <g>
       <use style="stroke:#000000;stroke-width:0.5;" x="107.240708671" xlink:href="#m93b0483c22" y="459.065060241"/>
      </g>
     </g>
     <g id="line2d_180">
      <g>
       <use style="stroke:#000000;stroke-width:0.5;" x="107.240708671" xlink:href="#m741efc42ff" y="320.269879518"/>
      </g>
     </g>
    </g>
    <g id="xtick_38">
     <g id="line2d_181">
      <g>
       <use style="stroke:#000000;stroke-width:0.5;" x="139.579161294" xlink:href="#m93b0483c22" y="459.065060241"/>
      </g>
     </g>
     <g id="line2d_182">
      <g>
       <use style="stroke:#000000;stroke-width:0.5;" x="139.579161294" xlink:href="#m741efc42ff" y="320.269879518"/>
      </g>
     </g>
    </g>
    <g id="xtick_39">
     <g id="line2d_183">
      <g>
       <use style="stroke:#000000;stroke-width:0.5;" x="171.917613916" xlink:href="#m93b0483c22" y="459.065060241"/>
      </g>
     </g>
     <g id="line2d_184">
      <g>
       <use style="stroke:#000000;stroke-width:0.5;" x="171.917613916" xlink:href="#m741efc42ff" y="320.269879518"/>
      </g>
     </g>
    </g>
    <g id="xtick_40">
     <g id="line2d_185">
      <g>
       <use style="stroke:#000000;stroke-width:0.5;" x="204.256066539" xlink:href="#m93b0483c22" y="459.065060241"/>
      </g>
     </g>
     <g id="line2d_186">
      <g>
       <use style="stroke:#000000;stroke-width:0.5;" x="204.256066539" xlink:href="#m741efc42ff" y="320.269879518"/>
      </g>
     </g>
    </g>
    <g id="xtick_41">
     <g id="line2d_187">
      <g>
       <use style="stroke:#000000;stroke-width:0.5;" x="236.594519161" xlink:href="#m93b0483c22" y="459.065060241"/>
      </g>
     </g>
     <g id="line2d_188">
      <g>
       <use style="stroke:#000000;stroke-width:0.5;" x="236.594519161" xlink:href="#m741efc42ff" y="320.269879518"/>
      </g>
     </g>
    </g>
    <g id="xtick_42">
     <g id="line2d_189">
      <g>
       <use style="stroke:#000000;stroke-width:0.5;" x="268.932971784" xlink:href="#m93b0483c22" y="459.065060241"/>
      </g>
     </g>
     <g id="line2d_190">
      <g>
       <use style="stroke:#000000;stroke-width:0.5;" x="268.932971784" xlink:href="#m741efc42ff" y="320.269879518"/>
      </g>
     </g>
    </g>
   </g>
   <g id="matplotlib.axis_12">
    <g id="ytick_46">
     <g id="line2d_191">
      <g>
       <use style="stroke:#000000;stroke-width:0.5;" x="61.966875" xlink:href="#m728421d6d4" y="447.498795181"/>
      </g>
     </g>
     <g id="line2d_192">
      <g>
       <use style="stroke:#000000;stroke-width:0.5;" x="281.868352833" xlink:href="#mcb0005524f" y="447.498795181"/>
      </g>
     </g>
     <g id="text_27">
      <text style="font-family:DejaVu Sans;font-size:12.0px;font-style:normal;text-anchor:end;" transform="rotate(-0.000000, 57.966875, 450.810045)" x="57.966875" y="450.810045181">0.000</text>
     </g>
    </g>
    <g id="ytick_47">
     <g id="line2d_193">
      <g>
       <use style="stroke:#000000;stroke-width:0.5;" x="61.966875" xlink:href="#m728421d6d4" y="433.040963855"/>
      </g>
     </g>
     <g id="line2d_194">
      <g>
       <use style="stroke:#000000;stroke-width:0.5;" x="281.868352833" xlink:href="#mcb0005524f" y="433.040963855"/>
      </g>
     </g>
    </g>
    <g id="ytick_48">
     <g id="line2d_195">
      <g>
       <use style="stroke:#000000;stroke-width:0.5;" x="61.966875" xlink:href="#m728421d6d4" y="418.58313253"/>
      </g>
     </g>
     <g id="line2d_196">
      <g>
       <use style="stroke:#000000;stroke-width:0.5;" x="281.868352833" xlink:href="#mcb0005524f" y="418.58313253"/>
      </g>
     </g>
     <g id="text_28">
      <text style="font-family:DejaVu Sans;font-size:12.0px;font-style:normal;text-anchor:end;" transform="rotate(-0.000000, 57.966875, 421.894383)" x="57.966875" y="421.89438253">0.005</text>
     </g>
    </g>
    <g id="ytick_49">
     <g id="line2d_197">
      <g>
       <use style="stroke:#000000;stroke-width:0.5;" x="61.966875" xlink:href="#m728421d6d4" y="404.125301205"/>
      </g>
     </g>
     <g id="line2d_198">
      <g>
       <use style="stroke:#000000;stroke-width:0.5;" x="281.868352833" xlink:href="#mcb0005524f" y="404.125301205"/>
      </g>
     </g>
    </g>
    <g id="ytick_50">
     <g id="line2d_199">
      <g>
       <use style="stroke:#000000;stroke-width:0.5;" x="61.966875" xlink:href="#m728421d6d4" y="389.66746988"/>
      </g>
     </g>
     <g id="line2d_200">
      <g>
       <use style="stroke:#000000;stroke-width:0.5;" x="281.868352833" xlink:href="#mcb0005524f" y="389.66746988"/>
      </g>
     </g>
     <g id="text_29">
      <text style="font-family:DejaVu Sans;font-size:12.0px;font-style:normal;text-anchor:end;" transform="rotate(-0.000000, 57.966875, 392.978720)" x="57.966875" y="392.97871988">0.010</text>
     </g>
    </g>
    <g id="ytick_51">
     <g id="line2d_201">
      <g>
       <use style="stroke:#000000;stroke-width:0.5;" x="61.966875" xlink:href="#m728421d6d4" y="375.209638554"/>
      </g>
     </g>
     <g id="line2d_202">
      <g>
       <use style="stroke:#000000;stroke-width:0.5;" x="281.868352833" xlink:href="#mcb0005524f" y="375.209638554"/>
      </g>
     </g>
    </g>
    <g id="ytick_52">
     <g id="line2d_203">
      <g>
       <use style="stroke:#000000;stroke-width:0.5;" x="61.966875" xlink:href="#m728421d6d4" y="360.751807229"/>
      </g>
     </g>
     <g id="line2d_204">
      <g>
       <use style="stroke:#000000;stroke-width:0.5;" x="281.868352833" xlink:href="#mcb0005524f" y="360.751807229"/>
      </g>
     </g>
     <g id="text_30">
      <text style="font-family:DejaVu Sans;font-size:12.0px;font-style:normal;text-anchor:end;" transform="rotate(-0.000000, 57.966875, 364.063057)" x="57.966875" y="364.063057229">0.015</text>
     </g>
    </g>
    <g id="ytick_53">
     <g id="line2d_205">
      <g>
       <use style="stroke:#000000;stroke-width:0.5;" x="61.966875" xlink:href="#m728421d6d4" y="346.293975904"/>
      </g>
     </g>
     <g id="line2d_206">
      <g>
       <use style="stroke:#000000;stroke-width:0.5;" x="281.868352833" xlink:href="#mcb0005524f" y="346.293975904"/>
      </g>
     </g>
    </g>
    <g id="ytick_54">
     <g id="line2d_207">
      <g>
       <use style="stroke:#000000;stroke-width:0.5;" x="61.966875" xlink:href="#m728421d6d4" y="331.836144578"/>
      </g>
     </g>
     <g id="line2d_208">
      <g>
       <use style="stroke:#000000;stroke-width:0.5;" x="281.868352833" xlink:href="#mcb0005524f" y="331.836144578"/>
      </g>
     </g>
     <g id="text_31">
      <text style="font-family:DejaVu Sans;font-size:12.0px;font-style:normal;text-anchor:end;" transform="rotate(-0.000000, 57.966875, 335.147395)" x="57.966875" y="335.147394578">0.020</text>
     </g>
    </g>
   </g>
   <g id="patch_29">
    <path d="
M61.9669 320.27
L281.868 320.27" style="fill:none;stroke:#000000;"/>
   </g>
   <g id="patch_30">
    <path d="
M281.868 459.065
L281.868 320.27" style="fill:none;stroke:#000000;"/>
   </g>
   <g id="patch_31">
    <path d="
M61.9669 459.065
L281.868 459.065" style="fill:none;stroke:#000000;"/>
   </g>
   <g id="patch_32">
    <path d="
M61.9669 459.065
L61.9669 320.27" style="fill:none;stroke:#000000;"/>
   </g>
   <g id="text_32">
    <text style="font-family:DejaVu Sans;font-size:12.0px;font-style:normal;text-anchor:start;" transform="rotate(-0.000000, 72.961949, 336.925301)" x="72.9619488916" y="336.925301205">$r = 5.5$ \AA</text>
   </g>
  </g>
  <g id="axes_7">
   <g id="patch_33">
    <path d="
M288.465 459.065
L508.367 459.065
L508.367 320.27
L288.465 320.27
z
" style="fill:#ffffff;"/>
   </g>
   <g id="line2d_209">
    <path clip-path="url(#pa26d6af028)" d="
M301.401 447.499
L332.446 447.499
L333.739 446.92
L344.088 446.92
L345.381 446.342
L346.675 446.342
L347.968 446.92
L349.262 446.92
L350.555 446.342
L353.142 446.342
L354.436 445.764
L355.729 445.764
L357.023 445.186
L358.316 445.764
L359.61 445.764
L360.904 444.607
L366.078 444.607
L367.371 443.451
L368.665 443.451
L372.545 441.716
L373.839 441.716
L382.894 437.667
L384.187 435.933
L385.481 435.933
L386.774 435.354
L388.068 434.198
L389.361 434.198
L390.655 433.619
L391.948 431.884
L394.536 429.571
L397.123 426.101
L398.416 424.945
L399.71 423.21
L401.003 422.053
L402.297 419.161
L403.59 419.161
L404.884 417.427
L406.177 415.113
L407.471 413.957
L408.764 408.173
L410.058 407.017
L412.645 402.39
L413.939 398.92
L415.232 397.186
L416.526 393.137
L419.113 383.884
L420.406 379.836
L421.7 376.366
L422.993 372.318
L424.287 364.8
L425.58 360.173
L426.874 357.86
L428.168 349.764
L429.461 343.981
L430.755 344.559
L432.048 341.667
L433.342 342.824
L434.635 338.776
L435.929 339.354
L437.222 343.981
L438.516 345.716
L439.809 344.559
L441.103 342.824
L442.396 342.824
L443.69 344.559
L444.984 341.667
L446.277 343.981
L447.571 339.354
L448.864 337.041
L450.158 342.824
L451.451 339.933
L452.745 335.306
L454.038 338.198
L455.332 336.463
L456.625 336.463
L457.919 340.511
L459.212 338.776
L460.506 341.667
L461.8 340.511
L463.093 339.933
L464.387 345.137
L465.68 345.716
L466.974 351.499
L468.267 350.92
L472.148 361.33
L473.441 367.113
L474.735 369.427
L476.028 371.161
L477.322 380.414
L478.615 382.728
L479.909 390.824
L482.496 401.234
L483.79 405.86
L485.083 408.752
L486.377 416.848
L487.67 420.896
L488.964 427.258
L490.257 433.041
L491.551 438.246
L494.138 446.342
L494.138 446.342" style="fill:none;stroke:#0000ff;stroke-linecap:square;"/>
   </g>
   <g id="line2d_210">
    <path clip-path="url(#pa26d6af028)" d="
M301.401 447.499
L302.694 447.499
L303.988 446.92
L307.868 446.92
L309.162 447.499
L310.456 446.92
L325.978 446.92
L327.272 446.342
L333.739 446.342
L335.033 446.92
L337.62 445.764
L338.913 446.342
L340.207 445.764
L345.381 445.764
L346.675 444.607
L351.849 444.607
L353.142 443.451
L354.436 444.029
L357.023 442.872
L358.316 443.451
L359.61 442.294
L360.904 442.872
L363.491 441.716
L364.784 440.559
L366.078 439.981
L368.665 439.981
L369.958 438.824
L371.252 438.824
L373.839 437.667
L375.132 435.933
L377.72 435.933
L379.013 434.198
L380.307 434.198
L381.6 432.463
L382.894 433.041
L384.187 430.728
L386.774 428.414
L388.068 427.836
L389.361 427.836
L390.655 425.523
L391.948 424.366
L393.242 423.788
L394.536 420.896
L397.123 419.74
L398.416 418.005
L401.003 413.378
L402.297 412.8
L403.59 409.33
L404.884 409.33
L406.177 408.752
L407.471 405.86
L408.764 401.812
L410.058 400.655
L412.645 396.029
L413.939 390.246
L415.232 390.246
L417.819 379.836
L419.113 376.366
L420.406 378.101
L421.7 370.005
L422.993 366.535
L424.287 363.643
L425.58 359.017
L426.874 354.969
L428.168 351.499
L429.461 346.294
L430.755 345.716
L432.048 346.872
L433.342 343.402
L434.635 345.716
L435.929 345.137
L437.222 346.872
L438.516 349.186
L439.809 346.872
L441.103 350.92
L442.396 350.92
L443.69 347.451
L444.984 349.186
L446.277 348.607
L447.571 352.077
L448.864 350.92
L450.158 351.499
L451.451 349.764
L454.038 348.607
L455.332 349.764
L456.625 351.499
L457.919 351.499
L459.212 350.342
L460.506 350.342
L461.8 355.547
L463.093 351.499
L464.387 353.812
L465.68 360.173
L466.974 361.33
L468.267 360.173
L469.561 362.487
L470.854 364.222
L472.148 369.427
L473.441 371.74
L474.735 377.523
L476.028 379.836
L477.322 385.041
L478.615 387.933
L479.909 393.137
L481.203 400.655
L482.496 402.969
L483.79 405.86
L485.083 413.378
L486.377 417.427
L487.67 422.053
L488.964 428.993
L491.551 439.402
L492.844 444.029
L494.138 446.92
L494.138 446.92" style="fill:none;stroke:#008000;stroke-linecap:square;"/>
   </g>
   <g id="matplotlib.axis_13">
    <g id="xtick_43">
     <g id="line2d_211">
      <g>
       <use style="stroke:#000000;stroke-width:0.5;" x="301.400778216" xlink:href="#m93b0483c22" y="459.065060241"/>
      </g>
     </g>
     <g id="line2d_212">
      <g>
       <use style="stroke:#000000;stroke-width:0.5;" x="301.400778216" xlink:href="#m741efc42ff" y="320.269879518"/>
      </g>
     </g>
    </g>
    <g id="xtick_44">
     <g id="line2d_213">
      <g>
       <use style="stroke:#000000;stroke-width:0.5;" x="333.739230839" xlink:href="#m93b0483c22" y="459.065060241"/>
      </g>
     </g>
     <g id="line2d_214">
      <g>
       <use style="stroke:#000000;stroke-width:0.5;" x="333.739230839" xlink:href="#m741efc42ff" y="320.269879518"/>
      </g>
     </g>
    </g>
    <g id="xtick_45">
     <g id="line2d_215">
      <g>
       <use style="stroke:#000000;stroke-width:0.5;" x="366.077683461" xlink:href="#m93b0483c22" y="459.065060241"/>
      </g>
     </g>
     <g id="line2d_216">
      <g>
       <use style="stroke:#000000;stroke-width:0.5;" x="366.077683461" xlink:href="#m741efc42ff" y="320.269879518"/>
      </g>
     </g>
    </g>
    <g id="xtick_46">
     <g id="line2d_217">
      <g>
       <use style="stroke:#000000;stroke-width:0.5;" x="398.416136084" xlink:href="#m93b0483c22" y="459.065060241"/>
      </g>
     </g>
     <g id="line2d_218">
      <g>
       <use style="stroke:#000000;stroke-width:0.5;" x="398.416136084" xlink:href="#m741efc42ff" y="320.269879518"/>
      </g>
     </g>
    </g>
    <g id="xtick_47">
     <g id="line2d_219">
      <g>
       <use style="stroke:#000000;stroke-width:0.5;" x="430.754588706" xlink:href="#m93b0483c22" y="459.065060241"/>
      </g>
     </g>
     <g id="line2d_220">
      <g>
       <use style="stroke:#000000;stroke-width:0.5;" x="430.754588706" xlink:href="#m741efc42ff" y="320.269879518"/>
      </g>
     </g>
    </g>
    <g id="xtick_48">
     <g id="line2d_221">
      <g>
       <use style="stroke:#000000;stroke-width:0.5;" x="463.093041329" xlink:href="#m93b0483c22" y="459.065060241"/>
      </g>
     </g>
     <g id="line2d_222">
      <g>
       <use style="stroke:#000000;stroke-width:0.5;" x="463.093041329" xlink:href="#m741efc42ff" y="320.269879518"/>
      </g>
     </g>
    </g>
    <g id="xtick_49">
     <g id="line2d_223">
      <g>
       <use style="stroke:#000000;stroke-width:0.5;" x="495.431493951" xlink:href="#m93b0483c22" y="459.065060241"/>
      </g>
     </g>
     <g id="line2d_224">
      <g>
       <use style="stroke:#000000;stroke-width:0.5;" x="495.431493951" xlink:href="#m741efc42ff" y="320.269879518"/>
      </g>
     </g>
    </g>
   </g>
   <g id="matplotlib.axis_14">
    <g id="ytick_55">
     <g id="line2d_225">
      <g>
       <use style="stroke:#000000;stroke-width:0.5;" x="288.465397167" xlink:href="#m728421d6d4" y="447.498795181"/>
      </g>
     </g>
     <g id="line2d_226">
      <g>
       <use style="stroke:#000000;stroke-width:0.5;" x="508.366875" xlink:href="#mcb0005524f" y="447.498795181"/>
      </g>
     </g>
    </g>
    <g id="ytick_56">
     <g id="line2d_227">
      <g>
       <use style="stroke:#000000;stroke-width:0.5;" x="288.465397167" xlink:href="#m728421d6d4" y="433.040963855"/>
      </g>
     </g>
     <g id="line2d_228">
      <g>
       <use style="stroke:#000000;stroke-width:0.5;" x="508.366875" xlink:href="#mcb0005524f" y="433.040963855"/>
      </g>
     </g>
    </g>
    <g id="ytick_57">
     <g id="line2d_229">
      <g>
       <use style="stroke:#000000;stroke-width:0.5;" x="288.465397167" xlink:href="#m728421d6d4" y="418.58313253"/>
      </g>
     </g>
     <g id="line2d_230">
      <g>
       <use style="stroke:#000000;stroke-width:0.5;" x="508.366875" xlink:href="#mcb0005524f" y="418.58313253"/>
      </g>
     </g>
    </g>
    <g id="ytick_58">
     <g id="line2d_231">
      <g>
       <use style="stroke:#000000;stroke-width:0.5;" x="288.465397167" xlink:href="#m728421d6d4" y="404.125301205"/>
      </g>
     </g>
     <g id="line2d_232">
      <g>
       <use style="stroke:#000000;stroke-width:0.5;" x="508.366875" xlink:href="#mcb0005524f" y="404.125301205"/>
      </g>
     </g>
    </g>
    <g id="ytick_59">
     <g id="line2d_233">
      <g>
       <use style="stroke:#000000;stroke-width:0.5;" x="288.465397167" xlink:href="#m728421d6d4" y="389.66746988"/>
      </g>
     </g>
     <g id="line2d_234">
      <g>
       <use style="stroke:#000000;stroke-width:0.5;" x="508.366875" xlink:href="#mcb0005524f" y="389.66746988"/>
      </g>
     </g>
    </g>
    <g id="ytick_60">
     <g id="line2d_235">
      <g>
       <use style="stroke:#000000;stroke-width:0.5;" x="288.465397167" xlink:href="#m728421d6d4" y="375.209638554"/>
      </g>
     </g>
     <g id="line2d_236">
      <g>
       <use style="stroke:#000000;stroke-width:0.5;" x="508.366875" xlink:href="#mcb0005524f" y="375.209638554"/>
      </g>
     </g>
    </g>
    <g id="ytick_61">
     <g id="line2d_237">
      <g>
       <use style="stroke:#000000;stroke-width:0.5;" x="288.465397167" xlink:href="#m728421d6d4" y="360.751807229"/>
      </g>
     </g>
     <g id="line2d_238">
      <g>
       <use style="stroke:#000000;stroke-width:0.5;" x="508.366875" xlink:href="#mcb0005524f" y="360.751807229"/>
      </g>
     </g>
    </g>
    <g id="ytick_62">
     <g id="line2d_239">
      <g>
       <use style="stroke:#000000;stroke-width:0.5;" x="288.465397167" xlink:href="#m728421d6d4" y="346.293975904"/>
      </g>
     </g>
     <g id="line2d_240">
      <g>
       <use style="stroke:#000000;stroke-width:0.5;" x="508.366875" xlink:href="#mcb0005524f" y="346.293975904"/>
      </g>
     </g>
    </g>
    <g id="ytick_63">
     <g id="line2d_241">
      <g>
       <use style="stroke:#000000;stroke-width:0.5;" x="288.465397167" xlink:href="#m728421d6d4" y="331.836144578"/>
      </g>
     </g>
     <g id="line2d_242">
      <g>
       <use style="stroke:#000000;stroke-width:0.5;" x="508.366875" xlink:href="#mcb0005524f" y="331.836144578"/>
      </g>
     </g>
    </g>
   </g>
   <g id="patch_34">
    <path d="
M288.465 320.27
L508.367 320.27" style="fill:none;stroke:#000000;"/>
   </g>
   <g id="patch_35">
    <path d="
M508.367 459.065
L508.367 320.27" style="fill:none;stroke:#000000;"/>
   </g>
   <g id="patch_36">
    <path d="
M288.465 459.065
L508.367 459.065" style="fill:none;stroke:#000000;"/>
   </g>
   <g id="patch_37">
    <path d="
M288.465 459.065
L288.465 320.27" style="fill:none;stroke:#000000;"/>
   </g>
   <g id="text_33">
    <text style="font-family:DejaVu Sans;font-size:12.0px;font-style:normal;text-anchor:start;" transform="rotate(-0.000000, 299.460471, 336.925301)" x="299.460471059" y="336.925301205">$r = 6.0$ \AA</text>
   </g>
  </g>
  <g id="axes_8">
   <g id="patch_38">
    <path d="
M288.465 604.8
L508.367 604.8
L508.367 466.005
L288.465 466.005
z
" style="fill:#ffffff;"/>
   </g>
   <g id="line2d_243">
    <path clip-path="url(#p2638182283)" d="
M301.401 593.234
L342.794 593.234
L344.088 592.655
L345.381 593.234
L346.675 593.234
L347.968 592.655
L349.262 593.234
L350.555 593.234
L351.849 592.655
L355.729 592.655
L357.023 592.077
L358.316 592.077
L359.61 592.655
L360.904 592.077
L363.491 592.077
L366.078 590.92
L367.371 591.499
L368.665 590.92
L372.545 590.92
L373.839 589.764
L376.426 588.607
L377.72 589.186
L379.013 589.186
L380.307 587.451
L381.6 587.451
L384.187 586.294
L385.481 585.137
L386.774 585.137
L388.068 583.402
L389.361 582.246
L390.655 582.824
L391.948 581.667
L393.242 579.354
L394.536 581.089
L395.829 577.619
L398.416 577.619
L401.003 571.836
L403.59 571.836
L404.884 567.21
L406.177 566.053
L407.471 564.318
L408.764 560.848
L410.058 560.27
L411.352 557.378
L412.645 555.065
L413.939 550.439
L416.526 545.812
L417.819 539.451
L419.113 537.137
L420.406 530.198
L421.7 526.149
L422.993 519.788
L424.287 516.318
L425.58 512.27
L426.874 505.908
L428.168 500.704
L429.461 492.607
L430.755 493.764
L432.048 489.716
L434.635 486.246
L435.929 487.402
L437.222 489.716
L438.516 488.559
L439.809 486.824
L441.103 489.137
L442.396 488.559
L443.69 488.559
L444.984 485.089
L446.277 486.824
L447.571 481.619
L448.864 487.402
L450.158 483.933
L451.451 482.776
L452.745 479.884
L454.038 482.198
L455.332 477.571
L456.625 482.198
L457.919 478.149
L459.212 476.993
L460.506 479.884
L461.8 477.571
L463.093 479.306
L464.387 483.354
L465.68 478.149
L466.974 485.089
L468.267 486.246
L469.561 490.294
L470.854 493.186
L472.148 497.812
L473.441 500.704
L474.735 505.908
L476.028 505.908
L478.615 520.945
L479.909 525.571
L481.203 531.354
L482.496 536.559
L485.083 549.282
L486.377 557.378
L487.67 561.427
L488.964 570.101
L490.257 577.619
L492.844 588.029
L494.138 592.077
L494.138 592.077" style="fill:none;stroke:#0000ff;stroke-linecap:square;"/>
   </g>
   <g id="line2d_244">
    <path clip-path="url(#p2638182283)" d="
M301.401 593.234
L324.684 593.234
L325.978 592.655
L327.272 593.234
L328.565 593.234
L329.859 592.655
L331.152 593.234
L335.033 593.234
L336.326 592.655
L353.142 592.655
L354.436 592.077
L357.023 592.077
L358.316 591.499
L360.904 591.499
L362.197 590.92
L364.784 590.92
L366.078 589.764
L368.665 589.764
L369.958 589.186
L371.252 589.186
L372.545 588.029
L373.839 588.029
L375.132 587.451
L376.426 587.451
L379.013 585.137
L380.307 584.559
L381.6 585.716
L384.187 583.402
L385.481 583.402
L386.774 582.824
L388.068 581.089
L389.361 581.089
L390.655 578.776
L391.948 577.041
L393.242 577.619
L394.536 575.306
L395.829 575.306
L397.123 574.728
L398.416 571.836
L399.71 570.68
L401.003 570.101
L402.297 568.945
L403.59 565.475
L404.884 564.896
L406.177 562.583
L407.471 560.848
L408.764 558.535
L410.058 554.487
L411.352 552.752
L412.645 552.173
L413.939 547.547
L415.232 545.234
L416.526 539.451
L417.819 535.402
L419.113 535.402
L420.406 527.306
L421.7 522.101
L422.993 520.945
L424.287 512.848
L425.58 505.908
L426.874 505.33
L429.461 497.234
L430.755 492.607
L432.048 490.294
L434.635 490.294
L435.929 492.029
L437.222 487.402
L438.516 492.607
L439.809 489.137
L441.103 490.872
L442.396 490.294
L443.69 486.824
L444.984 491.451
L446.277 486.824
L447.571 490.294
L448.864 485.667
L450.158 485.667
L451.451 485.089
L452.745 482.776
L454.038 484.511
L455.332 485.089
L456.625 483.933
L457.919 485.667
L459.212 485.089
L460.506 486.824
L461.8 483.933
L463.093 486.246
L464.387 485.089
L465.68 486.246
L466.974 486.824
L468.267 492.607
L469.561 494.342
L470.854 496.655
L472.148 501.86
L473.441 503.595
L474.735 507.065
L476.028 515.161
L477.322 518.631
L478.615 520.366
L479.909 529.041
L481.203 532.511
L482.496 538.872
L483.79 543.499
L486.377 559.692
L487.67 565.475
L488.964 570.68
L490.257 576.463
L491.551 583.981
L492.844 589.186
L494.138 592.077
L494.138 592.077" style="fill:none;stroke:#008000;stroke-linecap:square;"/>
   </g>
   <g id="matplotlib.axis_15">
    <g id="xtick_50">
     <g id="line2d_245">
      <g>
       <use style="stroke:#000000;stroke-width:0.5;" x="301.400778216" xlink:href="#m93b0483c22" y="604.8"/>
      </g>
     </g>
     <g id="line2d_246">
      <g>
       <use style="stroke:#000000;stroke-width:0.5;" x="301.400778216" xlink:href="#m741efc42ff" y="466.004819277"/>
      </g>
     </g>
     <g id="text_34">
      <text style="font-family:DejaVu Sans;font-size:12.0px;font-style:normal;text-anchor:middle;" transform="rotate(-0.000000, 301.400778, 617.918125)" x="301.400778216" y="617.918125">−0.50</text>
     </g>
    </g>
    <g id="xtick_51">
     <g id="line2d_247">
      <g>
       <use style="stroke:#000000;stroke-width:0.5;" x="333.739230839" xlink:href="#m93b0483c22" y="604.8"/>
      </g>
     </g>
     <g id="line2d_248">
      <g>
       <use style="stroke:#000000;stroke-width:0.5;" x="333.739230839" xlink:href="#m741efc42ff" y="466.004819277"/>
      </g>
     </g>
    </g>
    <g id="xtick_52">
     <g id="line2d_249">
      <g>
       <use style="stroke:#000000;stroke-width:0.5;" x="366.077683461" xlink:href="#m93b0483c22" y="604.8"/>
      </g>
     </g>
     <g id="line2d_250">
      <g>
       <use style="stroke:#000000;stroke-width:0.5;" x="366.077683461" xlink:href="#m741efc42ff" y="466.004819277"/>
      </g>
     </g>
     <g id="text_35">
      <text style="font-family:DejaVu Sans;font-size:12.0px;font-style:normal;text-anchor:middle;" transform="rotate(-0.000000, 366.077683, 617.918125)" x="366.077683461" y="617.918125">0.00</text>
     </g>
    </g>
    <g id="xtick_53">
     <g id="line2d_251">
      <g>
       <use style="stroke:#000000;stroke-width:0.5;" x="398.416136084" xlink:href="#m93b0483c22" y="604.8"/>
      </g>
     </g>
     <g id="line2d_252">
      <g>
       <use style="stroke:#000000;stroke-width:0.5;" x="398.416136084" xlink:href="#m741efc42ff" y="466.004819277"/>
      </g>
     </g>
    </g>
    <g id="xtick_54">
     <g id="line2d_253">
      <g>
       <use style="stroke:#000000;stroke-width:0.5;" x="430.754588706" xlink:href="#m93b0483c22" y="604.8"/>
      </g>
     </g>
     <g id="line2d_254">
      <g>
       <use style="stroke:#000000;stroke-width:0.5;" x="430.754588706" xlink:href="#m741efc42ff" y="466.004819277"/>
      </g>
     </g>
     <g id="text_36">
      <text style="font-family:DejaVu Sans;font-size:12.0px;font-style:normal;text-anchor:middle;" transform="rotate(-0.000000, 430.754589, 617.918125)" x="430.754588706" y="617.918125">0.50</text>
     </g>
    </g>
    <g id="xtick_55">
     <g id="line2d_255">
      <g>
       <use style="stroke:#000000;stroke-width:0.5;" x="463.093041329" xlink:href="#m93b0483c22" y="604.8"/>
      </g>
     </g>
     <g id="line2d_256">
      <g>
       <use style="stroke:#000000;stroke-width:0.5;" x="463.093041329" xlink:href="#m741efc42ff" y="466.004819277"/>
      </g>
     </g>
    </g>
    <g id="xtick_56">
     <g id="line2d_257">
      <g>
       <use style="stroke:#000000;stroke-width:0.5;" x="495.431493951" xlink:href="#m93b0483c22" y="604.8"/>
      </g>
     </g>
     <g id="line2d_258">
      <g>
       <use style="stroke:#000000;stroke-width:0.5;" x="495.431493951" xlink:href="#m741efc42ff" y="466.004819277"/>
      </g>
     </g>
     <g id="text_37">
      <text style="font-family:DejaVu Sans;font-size:12.0px;font-style:normal;text-anchor:middle;" transform="rotate(-0.000000, 495.431494, 617.918125)" x="495.431493951" y="617.918125">1.00</text>
     </g>
    </g>
   </g>
   <g id="matplotlib.axis_16">
    <g id="ytick_64">
     <g id="line2d_259">
      <g>
       <use style="stroke:#000000;stroke-width:0.5;" x="288.465397167" xlink:href="#m728421d6d4" y="593.23373494"/>
      </g>
     </g>
     <g id="line2d_260">
      <g>
       <use style="stroke:#000000;stroke-width:0.5;" x="508.366875" xlink:href="#mcb0005524f" y="593.23373494"/>
      </g>
     </g>
    </g>
    <g id="ytick_65">
     <g id="line2d_261">
      <g>
       <use style="stroke:#000000;stroke-width:0.5;" x="288.465397167" xlink:href="#m728421d6d4" y="578.775903614"/>
      </g>
     </g>
     <g id="line2d_262">
      <g>
       <use style="stroke:#000000;stroke-width:0.5;" x="508.366875" xlink:href="#mcb0005524f" y="578.775903614"/>
      </g>
     </g>
    </g>
    <g id="ytick_66">
     <g id="line2d_263">
      <g>
       <use style="stroke:#000000;stroke-width:0.5;" x="288.465397167" xlink:href="#m728421d6d4" y="564.318072289"/>
      </g>
     </g>
     <g id="line2d_264">
      <g>
       <use style="stroke:#000000;stroke-width:0.5;" x="508.366875" xlink:href="#mcb0005524f" y="564.318072289"/>
      </g>
     </g>
    </g>
    <g id="ytick_67">
     <g id="line2d_265">
      <g>
       <use style="stroke:#000000;stroke-width:0.5;" x="288.465397167" xlink:href="#m728421d6d4" y="549.860240964"/>
      </g>
     </g>
     <g id="line2d_266">
      <g>
       <use style="stroke:#000000;stroke-width:0.5;" x="508.366875" xlink:href="#mcb0005524f" y="549.860240964"/>
      </g>
     </g>
    </g>
    <g id="ytick_68">
     <g id="line2d_267">
      <g>
       <use style="stroke:#000000;stroke-width:0.5;" x="288.465397167" xlink:href="#m728421d6d4" y="535.402409639"/>
      </g>
     </g>
     <g id="line2d_268">
      <g>
       <use style="stroke:#000000;stroke-width:0.5;" x="508.366875" xlink:href="#mcb0005524f" y="535.402409639"/>
      </g>
     </g>
    </g>
    <g id="ytick_69">
     <g id="line2d_269">
      <g>
       <use style="stroke:#000000;stroke-width:0.5;" x="288.465397167" xlink:href="#m728421d6d4" y="520.944578313"/>
      </g>
     </g>
     <g id="line2d_270">
      <g>
       <use style="stroke:#000000;stroke-width:0.5;" x="508.366875" xlink:href="#mcb0005524f" y="520.944578313"/>
      </g>
     </g>
    </g>
    <g id="ytick_70">
     <g id="line2d_271">
      <g>
       <use style="stroke:#000000;stroke-width:0.5;" x="288.465397167" xlink:href="#m728421d6d4" y="506.486746988"/>
      </g>
     </g>
     <g id="line2d_272">
      <g>
       <use style="stroke:#000000;stroke-width:0.5;" x="508.366875" xlink:href="#mcb0005524f" y="506.486746988"/>
      </g>
     </g>
    </g>
    <g id="ytick_71">
     <g id="line2d_273">
      <g>
       <use style="stroke:#000000;stroke-width:0.5;" x="288.465397167" xlink:href="#m728421d6d4" y="492.028915663"/>
      </g>
     </g>
     <g id="line2d_274">
      <g>
       <use style="stroke:#000000;stroke-width:0.5;" x="508.366875" xlink:href="#mcb0005524f" y="492.028915663"/>
      </g>
     </g>
    </g>
    <g id="ytick_72">
     <g id="line2d_275">
      <g>
       <use style="stroke:#000000;stroke-width:0.5;" x="288.465397167" xlink:href="#m728421d6d4" y="477.571084337"/>
      </g>
     </g>
     <g id="line2d_276">
      <g>
       <use style="stroke:#000000;stroke-width:0.5;" x="508.366875" xlink:href="#mcb0005524f" y="477.571084337"/>
      </g>
     </g>
    </g>
   </g>
   <g id="patch_39">
    <path d="
M288.465 466.005
L508.367 466.005" style="fill:none;stroke:#000000;"/>
   </g>
   <g id="patch_40">
    <path d="
M508.367 604.8
L508.367 466.005" style="fill:none;stroke:#000000;"/>
   </g>
   <g id="patch_41">
    <path d="
M288.465 604.8
L508.367 604.8" style="fill:none;stroke:#000000;"/>
   </g>
   <g id="patch_42">
    <path d="
M288.465 604.8
L288.465 466.005" style="fill:none;stroke:#000000;"/>
   </g>
   <g id="text_38">
    <text style="font-family:DejaVu Sans;font-size:12.0px;font-style:normal;text-anchor:start;" transform="rotate(-0.000000, 299.460471, 482.660241)" x="299.460471059" y="482.660240964">$r = 7.0$ \AA</text>
   </g>
  </g>
  <g id="text_39">
   <text style="font-family:DejaVu Sans;font-size:12.0px;font-style:normal;text-anchor:middle;" transform="rotate(-0.000000, 277.966875, 16.318125)" x="277.966875" y="16.318125">Tetrahedral order parameter</text>
  </g>
  <g id="text_40">
   <text style="font-family:DejaVu Sans;font-size:12.0px;font-style:normal;text-anchor:middle;" transform="rotate(-0.000000, 277.966875, 636.911250)" x="277.966875" y="636.91125">Q \hl{???}</text>
  </g>
  <g id="text_41">
   <text style="font-family:DejaVu Sans;font-size:12.0px;font-style:normal;" transform="translate(16.318125 375.834375)rotate(-90.0)">Relative occurrence</text>
  </g>
 </g>
 <defs>
  <clipPath id="p3e0da3d9b8">
   <rect height="138.795180723" width="219.901477833" x="61.966875" y="174.534939759"/>
  </clipPath>
  <clipPath id="p2638182283">
   <rect height="138.795180723" width="219.901477833" x="288.465397167" y="466.004819277"/>
  </clipPath>
  <clipPath id="p02311a8770">
   <rect height="138.795180723" width="219.901477833" x="61.966875" y="320.269879518"/>
  </clipPath>
  <clipPath id="p1588c2aa0a">
   <rect height="138.795180723" width="219.901477833" x="288.465397167" y="174.534939759"/>
  </clipPath>
  <clipPath id="p27b74cd5b9">
   <rect height="138.795180723" width="219.901477833" x="61.966875" y="466.004819277"/>
  </clipPath>
  <clipPath id="p5ff848af41">
   <rect height="138.795180723" width="219.901477833" x="61.966875" y="28.8"/>
  </clipPath>
  <clipPath id="p108575e4b0">
   <rect height="138.795180723" width="219.901477833" x="288.465397167" y="28.8"/>
  </clipPath>
  <clipPath id="pa26d6af028">
   <rect height="138.795180723" width="219.901477833" x="288.465397167" y="320.269879518"/>
  </clipPath>
 </defs>
</svg>
