<?xml version="1.0" encoding="utf-8" standalone="no"?>
<!DOCTYPE svg PUBLIC "-//W3C//DTD SVG 1.1//EN"
  "http://www.w3.org/Graphics/SVG/1.1/DTD/svg11.dtd">
<!-- Created with matplotlib (http://matplotlib.org/) -->
<svg height="680pt" version="1.1" viewBox="0 0 515 680" width="515pt" xmlns="http://www.w3.org/2000/svg" xmlns:xlink="http://www.w3.org/1999/xlink">
 <defs>
  <style type="text/css">
*{stroke-linecap:butt;stroke-linejoin:round;}
  </style>
 </defs>
 <g id="figure_1">
  <g id="patch_1">
   <path d="
M0 680.656
L515.567 680.656
L515.567 0
L0 0
z
" style="fill:#ffffff;"/>
  </g>
  <g id="axes_1">
   <g id="patch_2">
    <path d="
M61.9669 604.8
L281.868 604.8
L281.868 466.005
L61.9669 466.005
z
" style="fill:#ffffff;"/>
   </g>
   <g id="line2d_1">
    <path clip-path="url(#p27b74cd5b9)" d="
M74.9023 604.8
L113.708 604.8
L115.002 604.169
L116.295 604.169
L117.589 604.8
L118.883 604.169
L125.35 604.169
L126.644 603.538
L127.937 604.169
L129.231 603.538
L131.818 603.538
L133.111 602.907
L134.405 603.538
L135.699 602.907
L136.992 602.907
L138.286 602.276
L142.166 602.276
L143.46 601.015
L144.753 601.015
L146.047 600.384
L147.34 599.122
L148.634 599.753
L149.927 599.753
L151.221 597.86
L152.515 597.86
L153.808 597.229
L156.395 597.229
L157.689 595.337
L158.982 595.337
L161.569 592.813
L165.45 590.92
L166.743 589.659
L169.331 585.873
L170.624 586.504
L171.918 583.35
L173.211 584.612
L174.505 580.826
L175.798 579.565
L177.092 577.041
L178.385 576.41
L179.679 571.994
L180.972 571.363
L183.559 566.316
L184.853 564.423
L187.44 556.853
L188.734 553.698
L190.027 551.805
L191.321 547.389
L192.614 541.08
L193.908 537.295
L195.201 531.617
L196.495 527.201
L197.788 520.892
L199.082 517.738
L200.375 505.751
L201.669 501.335
L202.963 498.18
L204.256 496.918
L205.55 491.871
L206.843 488.717
L208.137 488.717
L209.43 490.609
L210.724 489.979
L212.017 493.133
L213.311 493.764
L215.898 489.979
L217.191 485.562
L218.485 489.348
L219.779 484.931
L221.072 486.193
L222.366 486.824
L223.659 484.301
L224.953 484.931
L227.54 483.67
L228.833 480.515
L231.42 483.039
L232.714 480.515
L234.007 482.408
L235.301 481.777
L236.595 485.562
L237.888 482.408
L239.182 484.301
L240.475 489.979
L241.769 491.24
L243.062 495.026
L244.356 497.549
L246.943 507.643
L248.236 507.012
L249.53 517.107
L250.823 518.999
L252.117 527.832
L253.411 532.879
L254.704 539.819
L255.998 544.866
L257.291 554.329
L258.585 561.269
L259.878 566.947
L261.172 573.887
L263.759 586.504
L265.052 593.444
L267.639 603.538
L267.639 603.538" style="fill:none;stroke:#0000ff;stroke-linecap:square;"/>
   </g>
   <g id="line2d_2">
    <path clip-path="url(#p27b74cd5b9)" d="
M74.9023 604.8
L94.3053 604.8
L95.5989 604.169
L100.773 604.169
L102.067 604.8
L103.36 604.169
L112.415 604.169
L113.708 603.538
L115.002 603.538
L116.295 604.169
L117.589 603.538
L118.883 603.538
L120.176 602.907
L121.47 603.538
L122.763 602.907
L126.644 602.907
L127.937 602.276
L130.524 602.276
L133.111 601.015
L135.699 601.015
L136.992 600.384
L139.579 600.384
L140.873 599.753
L142.166 598.491
L143.46 597.86
L144.753 598.491
L147.34 597.229
L148.634 595.968
L149.927 595.968
L151.221 594.706
L152.515 594.706
L153.808 593.444
L155.102 592.813
L156.395 591.551
L157.689 590.92
L158.982 589.659
L160.276 589.659
L161.569 588.397
L162.863 586.504
L164.156 585.873
L165.45 585.873
L166.743 583.35
L168.037 583.35
L170.624 580.826
L171.918 576.41
L173.211 577.041
L175.798 571.994
L177.092 570.101
L178.385 569.47
L179.679 567.578
L180.972 563.161
L182.266 561.9
L183.559 561.269
L184.853 557.483
L186.147 554.329
L187.44 549.282
L188.734 546.758
L190.027 543.604
L191.321 536.664
L193.908 531.617
L195.201 525.308
L196.495 522.154
L200.375 505.12
L201.669 506.382
L202.963 497.549
L204.256 494.395
L205.55 495.026
L206.843 491.871
L208.137 497.549
L209.43 498.18
L210.724 495.026
L212.017 498.811
L213.311 496.287
L214.604 497.549
L215.898 499.442
L217.191 495.026
L218.485 495.657
L219.779 495.657
L221.072 493.133
L222.366 491.871
L223.659 491.871
L224.953 489.979
L226.246 491.871
L227.54 489.348
L228.833 489.348
L230.127 488.717
L232.714 489.979
L234.007 489.979
L235.301 490.609
L236.595 490.609
L237.888 492.502
L239.182 496.918
L240.475 498.18
L241.769 497.549
L243.062 502.596
L244.356 505.751
L245.649 507.012
L246.943 514.583
L248.236 516.476
L249.53 524.046
L250.823 526.57
L252.117 533.51
L253.411 536.033
L254.704 542.973
L255.998 550.544
L257.291 554.96
L259.878 568.839
L261.172 576.41
L262.465 580.826
L263.759 587.766
L265.052 593.444
L267.639 603.538
L267.639 603.538" style="fill:none;stroke:#008000;stroke-linecap:square;"/>
   </g>
   <g id="matplotlib.axis_1">
    <g id="xtick_1">
     <g id="line2d_3">
      <defs>
       <path d="
M0 0
L0 -4" id="m93b0483c22" style="stroke:#000000;stroke-width:0.5;"/>
      </defs>
      <g>
       <use style="stroke:#000000;stroke-width:0.5;" x="74.902256049" xlink:href="#m93b0483c22" y="604.8"/>
      </g>
     </g>
     <g id="line2d_4">
      <defs>
       <path d="
M0 0
L0 4" id="m741efc42ff" style="stroke:#000000;stroke-width:0.5;"/>
      </defs>
      <g>
       <use style="stroke:#000000;stroke-width:0.5;" x="74.902256049" xlink:href="#m741efc42ff" y="466.004819277"/>
      </g>
     </g>
     <g id="text_1">
      <text style="font-family:DejaVu Sans;font-size:12.0px;font-style:normal;text-anchor:middle;" transform="rotate(-0.000000, 74.902256, 617.918125)" x="74.902256049" y="617.918125">−0.5</text>
     </g>
    </g>
    <g id="xtick_2">
     <g id="line2d_5">
      <g>
       <use style="stroke:#000000;stroke-width:0.5;" x="139.579161294" xlink:href="#m93b0483c22" y="604.8"/>
      </g>
     </g>
     <g id="line2d_6">
      <g>
       <use style="stroke:#000000;stroke-width:0.5;" x="139.579161294" xlink:href="#m741efc42ff" y="466.004819277"/>
      </g>
     </g>
     <g id="text_2">
      <text style="font-family:DejaVu Sans;font-size:12.0px;font-style:normal;text-anchor:middle;" transform="rotate(-0.000000, 139.579161, 617.918125)" x="139.579161294" y="617.918125">0.0</text>
     </g>
    </g>
    <g id="xtick_3">
     <g id="line2d_7">
      <g>
       <use style="stroke:#000000;stroke-width:0.5;" x="204.256066539" xlink:href="#m93b0483c22" y="604.8"/>
      </g>
     </g>
     <g id="line2d_8">
      <g>
       <use style="stroke:#000000;stroke-width:0.5;" x="204.256066539" xlink:href="#m741efc42ff" y="466.004819277"/>
      </g>
     </g>
     <g id="text_3">
      <text style="font-family:DejaVu Sans;font-size:12.0px;font-style:normal;text-anchor:middle;" transform="rotate(-0.000000, 204.256067, 617.918125)" x="204.256066539" y="617.918125">0.5</text>
     </g>
    </g>
    <g id="xtick_4">
     <g id="line2d_9">
      <g>
       <use style="stroke:#000000;stroke-width:0.5;" x="268.932971784" xlink:href="#m93b0483c22" y="604.8"/>
      </g>
     </g>
     <g id="line2d_10">
      <g>
       <use style="stroke:#000000;stroke-width:0.5;" x="268.932971784" xlink:href="#m741efc42ff" y="466.004819277"/>
      </g>
     </g>
     <g id="text_4">
      <text style="font-family:DejaVu Sans;font-size:12.0px;font-style:normal;text-anchor:middle;" transform="rotate(-0.000000, 268.932972, 617.918125)" x="268.932971784" y="617.918125">1.0</text>
     </g>
    </g>
   </g>
   <g id="matplotlib.axis_2">
    <g id="ytick_1">
     <g id="line2d_11">
      <defs>
       <path d="
M0 0
L4 0" id="m728421d6d4" style="stroke:#000000;stroke-width:0.5;"/>
      </defs>
      <g>
       <use style="stroke:#000000;stroke-width:0.5;" x="61.966875" xlink:href="#m728421d6d4" y="573.255640745"/>
      </g>
     </g>
     <g id="line2d_12">
      <defs>
       <path d="
M0 0
L-4 0" id="mcb0005524f" style="stroke:#000000;stroke-width:0.5;"/>
      </defs>
      <g>
       <use style="stroke:#000000;stroke-width:0.5;" x="281.868352833" xlink:href="#mcb0005524f" y="573.255640745"/>
      </g>
     </g>
     <g id="text_5">
      <text style="font-family:DejaVu Sans;font-size:12.0px;font-style:normal;text-anchor:end;" transform="rotate(-0.000000, 57.966875, 576.566891)" x="57.966875" y="576.566890745">0.005</text>
     </g>
    </g>
    <g id="ytick_2">
     <g id="line2d_13">
      <g>
       <use style="stroke:#000000;stroke-width:0.5;" x="61.966875" xlink:href="#m728421d6d4" y="541.71128149"/>
      </g>
     </g>
     <g id="line2d_14">
      <g>
       <use style="stroke:#000000;stroke-width:0.5;" x="281.868352833" xlink:href="#mcb0005524f" y="541.71128149"/>
      </g>
     </g>
     <g id="text_6">
      <text style="font-family:DejaVu Sans;font-size:12.0px;font-style:normal;text-anchor:end;" transform="rotate(-0.000000, 57.966875, 545.022531)" x="57.966875" y="545.02253149">0.010</text>
     </g>
    </g>
    <g id="ytick_3">
     <g id="line2d_15">
      <g>
       <use style="stroke:#000000;stroke-width:0.5;" x="61.966875" xlink:href="#m728421d6d4" y="510.166922234"/>
      </g>
     </g>
     <g id="line2d_16">
      <g>
       <use style="stroke:#000000;stroke-width:0.5;" x="281.868352833" xlink:href="#mcb0005524f" y="510.166922234"/>
      </g>
     </g>
     <g id="text_7">
      <text style="font-family:DejaVu Sans;font-size:12.0px;font-style:normal;text-anchor:end;" transform="rotate(-0.000000, 57.966875, 513.478172)" x="57.966875" y="513.478172234">0.015</text>
     </g>
    </g>
    <g id="ytick_4">
     <g id="line2d_17">
      <g>
       <use style="stroke:#000000;stroke-width:0.5;" x="61.966875" xlink:href="#m728421d6d4" y="478.622562979"/>
      </g>
     </g>
     <g id="line2d_18">
      <g>
       <use style="stroke:#000000;stroke-width:0.5;" x="281.868352833" xlink:href="#mcb0005524f" y="478.622562979"/>
      </g>
     </g>
     <g id="text_8">
      <text style="font-family:DejaVu Sans;font-size:12.0px;font-style:normal;text-anchor:end;" transform="rotate(-0.000000, 57.966875, 481.933813)" x="57.966875" y="481.933812979">0.020</text>
     </g>
    </g>
   </g>
   <g id="patch_3">
    <path d="
M61.9669 466.005
L281.868 466.005" style="fill:none;stroke:#000000;"/>
   </g>
   <g id="patch_4">
    <path d="
M281.868 604.8
L281.868 466.005" style="fill:none;stroke:#000000;"/>
   </g>
   <g id="patch_5">
    <path d="
M61.9669 604.8
L281.868 604.8" style="fill:none;stroke:#000000;"/>
   </g>
   <g id="patch_6">
    <path d="
M61.9669 604.8
L61.9669 466.005" style="fill:none;stroke:#000000;"/>
   </g>
   <g id="text_9">
    <text style="font-family:DejaVu Sans;font-size:12.0px;font-style:normal;text-anchor:start;" transform="rotate(-0.000000, 72.961949, 482.660241)" x="72.9619488916" y="482.660240964">$r = 6.5$ \AA</text>
   </g>
  </g>
  <g id="axes_2">
   <g id="patch_7">
    <path d="
M61.9669 167.595
L281.868 167.595
L281.868 28.8
L61.9669 28.8
z
" style="fill:#ffffff;"/>
   </g>
   <g id="line2d_19">
    <path clip-path="url(#p5ff848af41)" d="
M74.9023 154.977
L76.1958 154.977
L78.7829 152.454
L81.3699 152.454
L82.6635 151.192
L85.2506 149.93
L86.5441 150.561
L87.8376 149.299
L89.1312 148.669
L90.4247 148.669
L91.7183 146.776
L93.0118 146.776
L94.3053 146.145
L95.5989 146.145
L96.8924 143.621
L98.1859 142.36
L100.773 141.098
L102.067 139.205
L103.36 139.205
L104.654 138.574
L107.241 134.789
L108.534 133.527
L109.828 134.158
L111.121 131.635
L112.415 129.742
L113.708 130.373
L115.002 128.48
L116.295 128.48
L117.589 126.588
L118.883 123.433
L121.47 122.171
L122.763 120.279
L124.057 120.279
L125.35 116.493
L126.644 115.862
L127.937 111.446
L129.231 113.339
L130.524 112.708
L131.818 111.446
L133.111 107.661
L134.405 108.292
L135.699 105.768
L136.992 103.876
L138.286 105.137
L139.579 104.506
L140.873 101.983
L142.166 101.352
L143.46 96.9358
L144.753 95.0432
L146.047 96.9358
L147.34 96.9358
L148.634 94.4123
L151.221 94.4123
L152.515 97.5667
L153.808 94.4123
L155.102 89.9961
L156.395 90.6269
L157.689 89.9961
L158.982 88.1034
L160.276 89.9961
L161.569 90.6269
L162.863 87.4725
L164.156 87.4725
L165.45 84.3181
L166.743 84.3181
L168.037 83.0563
L169.331 82.4254
L170.624 84.949
L171.918 81.1636
L173.211 80.5327
L174.505 82.4254
L175.798 80.5327
L177.092 80.5327
L178.385 81.1636
L179.679 80.5327
L180.972 81.1636
L182.266 81.1636
L183.559 81.7945
L184.853 79.9019
L186.147 84.949
L187.44 83.0563
L188.734 84.949
L190.027 84.949
L191.321 86.2107
L192.614 88.7343
L193.908 88.7343
L197.788 94.4123
L199.082 100.721
L200.375 100.721
L201.669 102.614
L202.963 107.661
L204.256 110.815
L205.55 113.339
L206.843 116.493
L208.137 122.171
L209.43 126.588
L210.724 128.48
L212.017 132.896
L213.311 133.527
L214.604 136.051
L215.898 140.467
L219.779 144.252
L221.072 146.776
L222.366 148.669
L223.659 147.407
L224.953 151.192
L226.246 151.823
L227.54 153.085
L228.833 153.716
L230.127 156.87
L231.42 157.501
L232.714 158.763
L240.475 162.548
L241.769 162.548
L245.649 164.441
L249.53 164.441
L252.117 165.703
L253.411 165.703
L254.704 166.333
L255.998 166.333
L257.291 166.964
L262.465 166.964
L263.759 167.595
L267.639 167.595
L267.639 167.595" style="fill:none;stroke:#0000ff;stroke-linecap:square;"/>
   </g>
   <g id="line2d_20">
    <path clip-path="url(#p5ff848af41)" d="
M74.9023 147.407
L76.1958 147.407
L77.4893 145.514
L78.7829 146.145
L80.0764 145.514
L81.3699 144.252
L83.957 144.252
L85.2506 142.991
L87.8376 141.729
L89.1312 140.467
L90.4247 139.836
L91.7183 138.574
L93.0118 139.205
L94.3053 138.574
L95.5989 136.682
L96.8924 135.42
L98.1859 135.42
L99.4795 133.527
L103.36 131.635
L104.654 130.373
L105.947 130.373
L108.534 127.849
L109.828 125.957
L111.121 124.695
L116.295 122.171
L117.589 119.648
L118.883 119.648
L120.176 115.862
L121.47 115.232
L122.763 113.339
L124.057 112.708
L125.35 113.339
L126.644 112.077
L127.937 111.446
L129.231 110.184
L130.524 109.554
L131.818 107.661
L134.405 105.137
L135.699 105.137
L136.992 103.876
L138.286 103.876
L139.579 102.614
L140.873 100.09
L143.46 100.09
L144.753 98.1976
L148.634 96.3049
L149.927 96.3049
L151.221 93.7814
L152.515 95.0432
L153.808 93.1505
L156.395 91.8887
L157.689 90.6269
L158.982 92.5196
L160.276 92.5196
L161.569 89.9961
L162.863 91.2578
L164.156 91.2578
L165.45 89.3652
L166.743 89.3652
L170.624 87.4725
L173.211 87.4725
L174.505 88.1034
L175.798 86.8416
L177.092 89.3652
L178.385 88.1034
L179.679 89.3652
L180.972 89.9961
L182.266 88.7343
L183.559 88.7343
L186.147 89.9961
L187.44 91.8887
L188.734 90.6269
L190.027 90.6269
L191.321 94.4123
L192.614 96.3049
L193.908 97.5667
L195.201 98.1976
L196.495 100.09
L197.788 102.614
L199.082 104.506
L200.375 107.661
L201.669 112.077
L202.963 113.97
L204.256 117.124
L205.55 119.648
L206.843 124.064
L208.137 127.218
L209.43 131.004
L210.724 136.051
L212.017 137.313
L213.311 140.467
L214.604 142.36
L217.191 144.883
L218.485 146.776
L223.659 151.823
L224.953 152.454
L226.246 154.347
L228.833 155.608
L230.127 156.87
L231.42 157.501
L232.714 159.394
L234.007 159.394
L237.888 161.286
L239.182 161.286
L240.475 162.548
L241.769 162.548
L244.356 163.81
L245.649 163.81
L248.236 165.072
L250.823 165.072
L252.117 165.703
L253.411 165.703
L254.704 166.333
L257.291 166.333
L258.585 166.964
L262.465 166.964
L263.759 167.595
L267.639 167.595
L267.639 167.595" style="fill:none;stroke:#008000;stroke-linecap:square;"/>
   </g>
   <g id="matplotlib.axis_3">
    <g id="xtick_5">
     <g id="line2d_21">
      <g>
       <use style="stroke:#000000;stroke-width:0.5;" x="74.902256049" xlink:href="#m93b0483c22" y="167.595180723"/>
      </g>
     </g>
     <g id="line2d_22">
      <g>
       <use style="stroke:#000000;stroke-width:0.5;" x="74.902256049" xlink:href="#m741efc42ff" y="28.8"/>
      </g>
     </g>
    </g>
    <g id="xtick_6">
     <g id="line2d_23">
      <g>
       <use style="stroke:#000000;stroke-width:0.5;" x="139.579161294" xlink:href="#m93b0483c22" y="167.595180723"/>
      </g>
     </g>
     <g id="line2d_24">
      <g>
       <use style="stroke:#000000;stroke-width:0.5;" x="139.579161294" xlink:href="#m741efc42ff" y="28.8"/>
      </g>
     </g>
    </g>
    <g id="xtick_7">
     <g id="line2d_25">
      <g>
       <use style="stroke:#000000;stroke-width:0.5;" x="204.256066539" xlink:href="#m93b0483c22" y="167.595180723"/>
      </g>
     </g>
     <g id="line2d_26">
      <g>
       <use style="stroke:#000000;stroke-width:0.5;" x="204.256066539" xlink:href="#m741efc42ff" y="28.8"/>
      </g>
     </g>
    </g>
    <g id="xtick_8">
     <g id="line2d_27">
      <g>
       <use style="stroke:#000000;stroke-width:0.5;" x="268.932971784" xlink:href="#m93b0483c22" y="167.595180723"/>
      </g>
     </g>
     <g id="line2d_28">
      <g>
       <use style="stroke:#000000;stroke-width:0.5;" x="268.932971784" xlink:href="#m741efc42ff" y="28.8"/>
      </g>
     </g>
    </g>
   </g>
   <g id="matplotlib.axis_4">
    <g id="ytick_5">
     <g id="line2d_29">
      <g>
       <use style="stroke:#000000;stroke-width:0.5;" x="61.966875" xlink:href="#m728421d6d4" y="136.050821468"/>
      </g>
     </g>
     <g id="line2d_30">
      <g>
       <use style="stroke:#000000;stroke-width:0.5;" x="281.868352833" xlink:href="#mcb0005524f" y="136.050821468"/>
      </g>
     </g>
     <g id="text_10">
      <text style="font-family:DejaVu Sans;font-size:12.0px;font-style:normal;text-anchor:end;" transform="rotate(-0.000000, 57.966875, 139.362071)" x="57.966875" y="139.362071468">0.005</text>
     </g>
    </g>
    <g id="ytick_6">
     <g id="line2d_31">
      <g>
       <use style="stroke:#000000;stroke-width:0.5;" x="61.966875" xlink:href="#m728421d6d4" y="104.506462212"/>
      </g>
     </g>
     <g id="line2d_32">
      <g>
       <use style="stroke:#000000;stroke-width:0.5;" x="281.868352833" xlink:href="#mcb0005524f" y="104.506462212"/>
      </g>
     </g>
     <g id="text_11">
      <text style="font-family:DejaVu Sans;font-size:12.0px;font-style:normal;text-anchor:end;" transform="rotate(-0.000000, 57.966875, 107.817712)" x="57.966875" y="107.817712212">0.010</text>
     </g>
    </g>
    <g id="ytick_7">
     <g id="line2d_33">
      <g>
       <use style="stroke:#000000;stroke-width:0.5;" x="61.966875" xlink:href="#m728421d6d4" y="72.9621029573"/>
      </g>
     </g>
     <g id="line2d_34">
      <g>
       <use style="stroke:#000000;stroke-width:0.5;" x="281.868352833" xlink:href="#mcb0005524f" y="72.9621029573"/>
      </g>
     </g>
     <g id="text_12">
      <text style="font-family:DejaVu Sans;font-size:12.0px;font-style:normal;text-anchor:end;" transform="rotate(-0.000000, 57.966875, 76.273353)" x="57.966875" y="76.2733529573">0.015</text>
     </g>
    </g>
    <g id="ytick_8">
     <g id="line2d_35">
      <g>
       <use style="stroke:#000000;stroke-width:0.5;" x="61.966875" xlink:href="#m728421d6d4" y="41.4177437021"/>
      </g>
     </g>
     <g id="line2d_36">
      <g>
       <use style="stroke:#000000;stroke-width:0.5;" x="281.868352833" xlink:href="#mcb0005524f" y="41.4177437021"/>
      </g>
     </g>
     <g id="text_13">
      <text style="font-family:DejaVu Sans;font-size:12.0px;font-style:normal;text-anchor:end;" transform="rotate(-0.000000, 57.966875, 44.728994)" x="57.966875" y="44.7289937021">0.020</text>
     </g>
    </g>
   </g>
   <g id="patch_8">
    <path d="
M61.9669 28.8
L281.868 28.8" style="fill:none;stroke:#000000;"/>
   </g>
   <g id="patch_9">
    <path d="
M281.868 167.595
L281.868 28.8" style="fill:none;stroke:#000000;"/>
   </g>
   <g id="patch_10">
    <path d="
M61.9669 167.595
L281.868 167.595" style="fill:none;stroke:#000000;"/>
   </g>
   <g id="patch_11">
    <path d="
M61.9669 167.595
L61.9669 28.8" style="fill:none;stroke:#000000;"/>
   </g>
   <g id="text_14">
    <text style="font-family:DejaVu Sans;font-size:12.0px;font-style:normal;text-anchor:start;" transform="rotate(-0.000000, 72.961949, 45.455422)" x="72.9619488916" y="45.4554216867">$r = 2.0$ \AA</text>
   </g>
   <g id="legend_1">
    <g id="patch_12">
     <path d="
M133.076 673.456
L442.127 673.456
Q445.007 673.456 445.007 670.576
L445.007 650.88
Q445.007 648 442.127 648
L133.076 648
Q130.196 648 130.196 650.88
L130.196 670.576
Q130.196 673.456 133.076 673.456
z
" style="fill:#ffffff;stroke:#000000;"/>
    </g>
    <g id="line2d_37">
     <path d="
M140.276 659.662
L160.436 659.662" style="fill:none;stroke:#0000ff;stroke-linecap:square;"/>
    </g>
    <g id="line2d_38"/>
    <g id="text_15">
     <text style="font-family:DejaVu Sans;font-size:14.4px;font-style:normal;text-anchor:start;" transform="rotate(-0.000000, 176.275875, 664.701750)" x="176.275875" y="664.70175">Flat fracture</text>
    </g>
    <g id="line2d_39">
     <path d="
M296.916 659.662
L317.076 659.662" style="fill:none;stroke:#008000;stroke-linecap:square;"/>
    </g>
    <g id="line2d_40"/>
    <g id="text_16">
     <text style="font-family:DejaVu Sans;font-size:14.4px;font-style:normal;text-anchor:start;" transform="rotate(-0.000000, 332.916375, 664.701750)" x="332.916375" y="664.70175">Rough fracture</text>
    </g>
   </g>
  </g>
  <g id="axes_3">
   <g id="patch_13">
    <path d="
M288.465 167.595
L508.367 167.595
L508.367 28.8
L288.465 28.8
z
" style="fill:#ffffff;"/>
   </g>
   <g id="line2d_41">
    <path clip-path="url(#p108575e4b0)" d="
M301.401 144.883
L302.694 146.145
L303.988 149.299
L305.281 146.776
L306.575 142.991
L307.868 146.776
L309.162 142.36
L310.456 138.574
L311.749 146.776
L313.043 143.621
L314.336 137.313
L315.63 146.776
L316.923 142.36
L318.217 139.836
L319.51 138.574
L320.804 133.527
L322.097 143.621
L323.391 139.836
L324.684 128.48
L325.978 133.527
L327.272 124.064
L328.565 139.836
L329.859 131.635
L331.152 128.48
L332.446 128.48
L333.739 122.802
L335.033 122.171
L336.326 131.004
L337.62 120.279
L338.913 119.648
L340.207 122.802
L341.5 117.755
L342.794 127.218
L344.088 124.695
L345.381 112.708
L346.675 119.017
L347.968 118.386
L349.262 116.493
L350.555 111.446
L351.849 116.493
L353.142 102.614
L354.436 108.292
L355.729 102.614
L357.023 101.352
L358.316 108.923
L359.61 108.292
L360.904 103.876
L362.197 96.3049
L363.491 91.8887
L364.784 107.661
L366.078 105.137
L367.371 97.5667
L368.665 96.3049
L369.958 98.1976
L371.252 95.0432
L372.545 90.6269
L373.839 101.983
L375.132 88.1034
L376.426 66.0223
L377.72 89.9961
L379.013 91.8887
L380.307 79.9019
L381.6 91.8887
L382.894 89.3652
L384.187 81.7945
L385.481 87.4725
L386.774 81.7945
L388.068 77.3783
L389.361 96.3049
L390.655 90.6269
L391.948 86.8416
L394.536 83.0563
L395.829 90.6269
L397.123 79.9019
L398.416 93.1505
L399.71 81.7945
L401.003 78.6401
L402.297 93.7814
L403.59 90.6269
L404.884 89.9961
L406.177 90.6269
L407.471 107.03
L408.764 82.4254
L411.352 89.9961
L412.645 102.614
L413.939 92.5196
L415.232 100.09
L416.526 102.614
L417.819 107.661
L419.113 100.721
L420.406 112.077
L421.7 114.601
L422.993 98.8285
L424.287 109.554
L425.58 105.768
L426.874 110.815
L428.168 113.339
L429.461 120.279
L430.755 120.91
L432.048 124.064
L433.342 121.54
L434.635 125.957
L435.929 135.42
L437.222 137.313
L438.516 136.051
L439.809 136.682
L441.103 145.514
L442.396 139.836
L443.69 147.407
L444.984 148.669
L446.277 146.145
L447.571 151.823
L450.158 158.132
L451.451 156.239
L452.745 156.239
L454.038 160.655
L455.332 160.025
L456.625 155.608
L457.919 159.394
L459.212 162.548
L460.506 165.072
L461.8 164.441
L463.093 161.917
L464.387 161.917
L465.68 162.548
L466.974 164.441
L468.267 165.072
L469.561 161.917
L470.854 165.703
L472.148 165.072
L473.441 163.81
L476.028 166.333
L477.322 164.441
L478.615 166.333
L479.909 165.703
L481.203 166.964
L482.496 167.595
L483.79 166.964
L487.67 166.964
L488.964 167.595
L494.138 167.595
L494.138 167.595" style="fill:none;stroke:#0000ff;stroke-linecap:square;"/>
   </g>
   <g id="line2d_42">
    <path clip-path="url(#p108575e4b0)" d="
M301.401 141.729
L302.694 145.514
L303.988 137.943
L305.281 142.36
L306.575 141.098
L307.868 135.42
L309.162 136.682
L310.456 130.373
L311.749 134.789
L313.043 134.158
L314.336 131.635
L315.63 136.051
L316.923 124.064
L318.217 129.742
L319.51 138.574
L320.804 132.265
L322.097 128.48
L323.391 121.54
L324.684 131.004
L325.978 127.218
L327.272 118.386
L328.565 113.97
L329.859 122.802
L331.152 115.232
L332.446 115.232
L333.739 110.184
L335.033 113.339
L336.326 108.923
L337.62 108.292
L338.913 115.862
L340.207 107.661
L341.5 115.232
L342.794 110.184
L344.088 115.862
L345.381 115.232
L346.675 113.339
L347.968 112.077
L349.262 117.755
L350.555 120.279
L351.849 104.506
L353.142 105.768
L354.436 106.399
L355.729 116.493
L357.023 117.124
L358.316 109.554
L359.61 107.03
L360.904 115.232
L362.197 118.386
L363.491 107.661
L364.784 111.446
L367.371 106.399
L368.665 108.292
L369.958 108.923
L371.252 116.493
L372.545 122.802
L373.839 108.292
L375.132 105.768
L376.426 105.137
L377.72 91.2578
L379.013 108.292
L380.307 101.983
L381.6 103.876
L382.894 113.97
L384.187 91.2578
L385.481 95.0432
L386.774 101.983
L388.068 100.09
L389.361 101.983
L390.655 101.352
L391.948 91.8887
L393.242 98.8285
L394.536 86.2107
L395.829 95.674
L397.123 96.3049
L398.416 95.674
L399.71 103.876
L401.003 101.352
L402.297 89.9961
L403.59 103.245
L404.884 93.1505
L406.177 85.5798
L407.471 101.983
L408.764 94.4123
L410.058 84.3181
L411.352 93.1505
L412.645 87.4725
L413.939 87.4725
L415.232 96.9358
L416.526 96.9358
L417.819 102.614
L419.113 92.5196
L420.406 79.9019
L421.7 98.8285
L422.993 103.876
L424.287 102.614
L425.58 107.661
L426.874 125.326
L428.168 121.54
L429.461 115.232
L430.755 122.171
L432.048 134.789
L433.342 122.171
L434.635 125.957
L435.929 130.373
L437.222 139.836
L438.516 136.051
L439.809 138.574
L441.103 141.729
L442.396 143.621
L443.69 146.776
L444.984 151.192
L446.277 147.407
L447.571 139.205
L448.864 149.299
L450.158 153.716
L451.451 151.823
L452.745 147.407
L454.038 153.085
L455.332 155.608
L456.625 155.608
L457.919 157.501
L459.212 157.501
L461.8 160.025
L463.093 162.548
L464.387 156.87
L465.68 158.132
L466.974 158.763
L468.267 160.655
L469.561 161.286
L470.854 158.132
L472.148 162.548
L473.441 161.286
L474.735 163.81
L476.028 163.81
L477.322 166.333
L479.909 166.333
L481.203 165.703
L482.496 166.333
L483.79 167.595
L485.083 166.333
L486.377 166.964
L487.67 166.964
L488.964 167.595
L494.138 167.595
L494.138 167.595" style="fill:none;stroke:#008000;stroke-linecap:square;"/>
   </g>
   <g id="matplotlib.axis_5">
    <g id="xtick_9">
     <g id="line2d_43">
      <g>
       <use style="stroke:#000000;stroke-width:0.5;" x="301.400778216" xlink:href="#m93b0483c22" y="167.595180723"/>
      </g>
     </g>
     <g id="line2d_44">
      <g>
       <use style="stroke:#000000;stroke-width:0.5;" x="301.400778216" xlink:href="#m741efc42ff" y="28.8"/>
      </g>
     </g>
    </g>
    <g id="xtick_10">
     <g id="line2d_45">
      <g>
       <use style="stroke:#000000;stroke-width:0.5;" x="366.077683461" xlink:href="#m93b0483c22" y="167.595180723"/>
      </g>
     </g>
     <g id="line2d_46">
      <g>
       <use style="stroke:#000000;stroke-width:0.5;" x="366.077683461" xlink:href="#m741efc42ff" y="28.8"/>
      </g>
     </g>
    </g>
    <g id="xtick_11">
     <g id="line2d_47">
      <g>
       <use style="stroke:#000000;stroke-width:0.5;" x="430.754588706" xlink:href="#m93b0483c22" y="167.595180723"/>
      </g>
     </g>
     <g id="line2d_48">
      <g>
       <use style="stroke:#000000;stroke-width:0.5;" x="430.754588706" xlink:href="#m741efc42ff" y="28.8"/>
      </g>
     </g>
    </g>
    <g id="xtick_12">
     <g id="line2d_49">
      <g>
       <use style="stroke:#000000;stroke-width:0.5;" x="495.431493951" xlink:href="#m93b0483c22" y="167.595180723"/>
      </g>
     </g>
     <g id="line2d_50">
      <g>
       <use style="stroke:#000000;stroke-width:0.5;" x="495.431493951" xlink:href="#m741efc42ff" y="28.8"/>
      </g>
     </g>
    </g>
   </g>
   <g id="matplotlib.axis_6">
    <g id="ytick_9">
     <g id="line2d_51">
      <g>
       <use style="stroke:#000000;stroke-width:0.5;" x="288.465397167" xlink:href="#m728421d6d4" y="136.050821468"/>
      </g>
     </g>
     <g id="line2d_52">
      <g>
       <use style="stroke:#000000;stroke-width:0.5;" x="508.366875" xlink:href="#mcb0005524f" y="136.050821468"/>
      </g>
     </g>
    </g>
    <g id="ytick_10">
     <g id="line2d_53">
      <g>
       <use style="stroke:#000000;stroke-width:0.5;" x="288.465397167" xlink:href="#m728421d6d4" y="104.506462212"/>
      </g>
     </g>
     <g id="line2d_54">
      <g>
       <use style="stroke:#000000;stroke-width:0.5;" x="508.366875" xlink:href="#mcb0005524f" y="104.506462212"/>
      </g>
     </g>
    </g>
    <g id="ytick_11">
     <g id="line2d_55">
      <g>
       <use style="stroke:#000000;stroke-width:0.5;" x="288.465397167" xlink:href="#m728421d6d4" y="72.9621029573"/>
      </g>
     </g>
     <g id="line2d_56">
      <g>
       <use style="stroke:#000000;stroke-width:0.5;" x="508.366875" xlink:href="#mcb0005524f" y="72.9621029573"/>
      </g>
     </g>
    </g>
    <g id="ytick_12">
     <g id="line2d_57">
      <g>
       <use style="stroke:#000000;stroke-width:0.5;" x="288.465397167" xlink:href="#m728421d6d4" y="41.4177437021"/>
      </g>
     </g>
     <g id="line2d_58">
      <g>
       <use style="stroke:#000000;stroke-width:0.5;" x="508.366875" xlink:href="#mcb0005524f" y="41.4177437021"/>
      </g>
     </g>
    </g>
   </g>
   <g id="patch_14">
    <path d="
M288.465 28.8
L508.367 28.8" style="fill:none;stroke:#000000;"/>
   </g>
   <g id="patch_15">
    <path d="
M508.367 167.595
L508.367 28.8" style="fill:none;stroke:#000000;"/>
   </g>
   <g id="patch_16">
    <path d="
M288.465 167.595
L508.367 167.595" style="fill:none;stroke:#000000;"/>
   </g>
   <g id="patch_17">
    <path d="
M288.465 167.595
L288.465 28.8" style="fill:none;stroke:#000000;"/>
   </g>
   <g id="text_17">
    <text style="font-family:DejaVu Sans;font-size:12.0px;font-style:normal;text-anchor:start;" transform="rotate(-0.000000, 299.460471, 45.455422)" x="299.460471059" y="45.4554216867">$r = 3.5$ \AA</text>
   </g>
  </g>
  <g id="axes_4">
   <g id="patch_18">
    <path d="
M61.9669 313.33
L281.868 313.33
L281.868 174.535
L61.9669 174.535
z
" style="fill:#ffffff;"/>
   </g>
   <g id="line2d_59">
    <path clip-path="url(#p3e0da3d9b8)" d="
M74.9023 312.699
L76.1958 312.068
L77.4893 312.699
L78.7829 312.068
L85.2506 312.068
L86.5441 311.437
L87.8376 312.068
L89.1312 311.437
L93.0118 311.437
L94.3053 310.807
L99.4795 310.807
L100.773 310.176
L103.36 310.176
L104.654 309.545
L105.947 309.545
L107.241 308.914
L108.534 309.545
L111.121 308.283
L112.415 308.283
L113.708 307.652
L115.002 307.652
L117.589 306.39
L118.883 307.021
L122.763 305.129
L124.057 303.236
L126.644 303.236
L127.937 300.712
L129.231 301.343
L130.524 300.712
L134.405 296.927
L135.699 296.296
L136.992 296.927
L138.286 293.773
L139.579 293.142
L140.873 291.249
L142.166 291.249
L143.46 290.618
L144.753 288.095
L146.047 286.833
L147.34 286.202
L148.634 284.94
L149.927 284.94
L151.221 281.155
L152.515 280.524
L153.808 278
L155.102 276.108
L156.395 276.739
L157.689 274.846
L158.982 272.322
L160.276 269.168
L161.569 266.644
L162.863 268.537
L165.45 264.752
L168.037 263.49
L169.331 259.074
L170.624 255.288
L171.918 257.181
L173.211 251.503
L175.798 250.241
L177.092 245.825
L178.385 246.456
L179.679 246.456
L180.972 240.778
L182.266 238.885
L183.559 231.946
L184.853 232.577
L186.147 228.16
L187.44 226.268
L188.734 223.113
L190.027 214.912
L191.321 214.281
L192.614 213.019
L193.908 208.603
L195.201 207.341
L196.495 205.448
L197.788 204.187
L199.082 203.556
L200.375 198.509
L202.963 199.77
L205.55 204.818
L206.843 208.603
L208.137 205.448
L209.43 213.65
L210.724 218.066
L212.017 223.744
L213.311 224.375
L214.604 228.16
L215.898 229.422
L217.191 235.731
L218.485 233.838
L219.779 237.624
L221.072 240.147
L222.366 238.885
L223.659 240.778
L226.246 245.825
L227.54 243.302
L230.127 247.087
L231.42 249.611
L232.714 246.456
L234.007 247.087
L235.301 250.241
L236.595 252.765
L237.888 252.134
L240.475 255.919
L241.769 255.919
L243.062 258.443
L244.356 260.336
L245.649 262.859
L246.943 267.275
L248.236 267.906
L249.53 269.168
L250.823 273.584
L252.117 275.477
L253.411 279.262
L254.704 280.524
L255.998 284.309
L258.585 290.618
L259.878 295.034
L261.172 298.189
L262.465 300.712
L265.052 308.283
L266.346 310.807
L267.639 312.699
L267.639 312.699" style="fill:none;stroke:#0000ff;stroke-linecap:square;"/>
   </g>
   <g id="line2d_60">
    <path clip-path="url(#p3e0da3d9b8)" d="
M74.9023 310.807
L76.1958 310.807
L77.4893 310.176
L78.7829 310.176
L80.0764 310.807
L82.6635 309.545
L83.957 310.176
L86.5441 308.914
L87.8376 309.545
L89.1312 308.914
L91.7183 308.914
L93.0118 308.283
L94.3053 308.283
L95.5989 307.021
L96.8924 307.021
L98.1859 307.652
L100.773 306.39
L104.654 306.39
L107.241 305.129
L108.534 305.129
L111.121 303.867
L112.415 303.867
L113.708 301.974
L115.002 303.236
L116.295 301.343
L117.589 300.712
L120.176 300.712
L121.47 299.451
L124.057 298.189
L125.35 296.927
L126.644 295.034
L127.937 295.665
L129.231 294.404
L130.524 292.511
L131.818 293.773
L133.111 291.249
L134.405 289.987
L135.699 288.095
L136.992 287.464
L138.286 287.464
L139.579 286.833
L140.873 283.678
L142.166 281.786
L143.46 283.678
L144.753 279.893
L146.047 279.893
L147.34 277.37
L149.927 276.108
L151.221 273.584
L152.515 274.215
L153.808 271.692
L155.102 270.43
L157.689 265.383
L158.982 266.644
L160.276 264.121
L161.569 260.966
L162.863 259.705
L164.156 259.705
L165.45 258.443
L166.743 255.288
L168.037 254.027
L169.331 253.396
L170.624 249.611
L171.918 248.98
L173.211 249.611
L174.505 244.563
L175.798 242.04
L177.092 242.04
L178.385 239.516
L179.679 237.624
L180.972 236.993
L182.266 231.315
L183.559 229.422
L184.853 229.422
L186.147 225.637
L187.44 225.006
L188.734 223.113
L190.027 221.851
L191.321 218.066
L192.614 214.912
L195.201 213.65
L196.495 211.126
L199.082 209.865
L200.375 211.757
L201.669 211.757
L202.963 209.865
L204.256 213.65
L205.55 216.804
L206.843 218.697
L208.137 223.744
L209.43 228.16
L210.724 229.422
L212.017 232.577
L213.311 237.624
L214.604 238.885
L215.898 243.302
L217.191 244.563
L218.485 247.718
L219.779 247.718
L221.072 248.98
L222.366 252.134
L223.659 251.503
L226.246 252.765
L227.54 254.027
L228.833 253.396
L230.127 257.812
L231.42 256.55
L234.007 259.074
L235.301 259.074
L237.888 262.859
L239.182 262.228
L240.475 264.752
L241.769 265.383
L243.062 266.644
L244.356 269.168
L245.649 270.43
L249.53 276.108
L250.823 276.739
L254.704 286.202
L255.998 286.833
L258.585 291.88
L259.878 296.296
L261.172 298.82
L262.465 302.605
L263.759 305.759
L266.346 310.807
L267.639 312.699
L267.639 312.699" style="fill:none;stroke:#008000;stroke-linecap:square;"/>
   </g>
   <g id="matplotlib.axis_7">
    <g id="xtick_13">
     <g id="line2d_61">
      <g>
       <use style="stroke:#000000;stroke-width:0.5;" x="74.902256049" xlink:href="#m93b0483c22" y="313.330120482"/>
      </g>
     </g>
     <g id="line2d_62">
      <g>
       <use style="stroke:#000000;stroke-width:0.5;" x="74.902256049" xlink:href="#m741efc42ff" y="174.534939759"/>
      </g>
     </g>
    </g>
    <g id="xtick_14">
     <g id="line2d_63">
      <g>
       <use style="stroke:#000000;stroke-width:0.5;" x="139.579161294" xlink:href="#m93b0483c22" y="313.330120482"/>
      </g>
     </g>
     <g id="line2d_64">
      <g>
       <use style="stroke:#000000;stroke-width:0.5;" x="139.579161294" xlink:href="#m741efc42ff" y="174.534939759"/>
      </g>
     </g>
    </g>
    <g id="xtick_15">
     <g id="line2d_65">
      <g>
       <use style="stroke:#000000;stroke-width:0.5;" x="204.256066539" xlink:href="#m93b0483c22" y="313.330120482"/>
      </g>
     </g>
     <g id="line2d_66">
      <g>
       <use style="stroke:#000000;stroke-width:0.5;" x="204.256066539" xlink:href="#m741efc42ff" y="174.534939759"/>
      </g>
     </g>
    </g>
    <g id="xtick_16">
     <g id="line2d_67">
      <g>
       <use style="stroke:#000000;stroke-width:0.5;" x="268.932971784" xlink:href="#m93b0483c22" y="313.330120482"/>
      </g>
     </g>
     <g id="line2d_68">
      <g>
       <use style="stroke:#000000;stroke-width:0.5;" x="268.932971784" xlink:href="#m741efc42ff" y="174.534939759"/>
      </g>
     </g>
    </g>
   </g>
   <g id="matplotlib.axis_8">
    <g id="ytick_13">
     <g id="line2d_69">
      <g>
       <use style="stroke:#000000;stroke-width:0.5;" x="61.966875" xlink:href="#m728421d6d4" y="281.785761227"/>
      </g>
     </g>
     <g id="line2d_70">
      <g>
       <use style="stroke:#000000;stroke-width:0.5;" x="281.868352833" xlink:href="#mcb0005524f" y="281.785761227"/>
      </g>
     </g>
     <g id="text_18">
      <text style="font-family:DejaVu Sans;font-size:12.0px;font-style:normal;text-anchor:end;" transform="rotate(-0.000000, 57.966875, 285.097011)" x="57.966875" y="285.097011227">0.005</text>
     </g>
    </g>
    <g id="ytick_14">
     <g id="line2d_71">
      <g>
       <use style="stroke:#000000;stroke-width:0.5;" x="61.966875" xlink:href="#m728421d6d4" y="250.241401972"/>
      </g>
     </g>
     <g id="line2d_72">
      <g>
       <use style="stroke:#000000;stroke-width:0.5;" x="281.868352833" xlink:href="#mcb0005524f" y="250.241401972"/>
      </g>
     </g>
     <g id="text_19">
      <text style="font-family:DejaVu Sans;font-size:12.0px;font-style:normal;text-anchor:end;" transform="rotate(-0.000000, 57.966875, 253.552652)" x="57.966875" y="253.552651972">0.010</text>
     </g>
    </g>
    <g id="ytick_15">
     <g id="line2d_73">
      <g>
       <use style="stroke:#000000;stroke-width:0.5;" x="61.966875" xlink:href="#m728421d6d4" y="218.697042716"/>
      </g>
     </g>
     <g id="line2d_74">
      <g>
       <use style="stroke:#000000;stroke-width:0.5;" x="281.868352833" xlink:href="#mcb0005524f" y="218.697042716"/>
      </g>
     </g>
     <g id="text_20">
      <text style="font-family:DejaVu Sans;font-size:12.0px;font-style:normal;text-anchor:end;" transform="rotate(-0.000000, 57.966875, 222.008293)" x="57.966875" y="222.008292716">0.015</text>
     </g>
    </g>
    <g id="ytick_16">
     <g id="line2d_75">
      <g>
       <use style="stroke:#000000;stroke-width:0.5;" x="61.966875" xlink:href="#m728421d6d4" y="187.152683461"/>
      </g>
     </g>
     <g id="line2d_76">
      <g>
       <use style="stroke:#000000;stroke-width:0.5;" x="281.868352833" xlink:href="#mcb0005524f" y="187.152683461"/>
      </g>
     </g>
     <g id="text_21">
      <text style="font-family:DejaVu Sans;font-size:12.0px;font-style:normal;text-anchor:end;" transform="rotate(-0.000000, 57.966875, 190.463933)" x="57.966875" y="190.463933461">0.020</text>
     </g>
    </g>
   </g>
   <g id="patch_19">
    <path d="
M61.9669 174.535
L281.868 174.535" style="fill:none;stroke:#000000;"/>
   </g>
   <g id="patch_20">
    <path d="
M281.868 313.33
L281.868 174.535" style="fill:none;stroke:#000000;"/>
   </g>
   <g id="patch_21">
    <path d="
M61.9669 313.33
L281.868 313.33" style="fill:none;stroke:#000000;"/>
   </g>
   <g id="patch_22">
    <path d="
M61.9669 313.33
L61.9669 174.535" style="fill:none;stroke:#000000;"/>
   </g>
   <g id="text_22">
    <text style="font-family:DejaVu Sans;font-size:12.0px;font-style:normal;text-anchor:start;" transform="rotate(-0.000000, 72.961949, 191.190361)" x="72.9619488916" y="191.190361446">$r = 4.5$ \AA</text>
   </g>
  </g>
  <g id="axes_5">
   <g id="patch_23">
    <path d="
M288.465 313.33
L508.367 313.33
L508.367 174.535
L288.465 174.535
z
" style="fill:#ffffff;"/>
   </g>
   <g id="line2d_77">
    <path clip-path="url(#p1588c2aa0a)" d="
M301.401 313.33
L313.043 313.33
L314.336 312.699
L315.63 313.33
L318.217 313.33
L319.51 312.699
L320.804 313.33
L322.097 312.699
L332.446 312.699
L333.739 312.068
L337.62 312.068
L338.913 312.699
L340.207 312.068
L342.794 312.068
L344.088 311.437
L345.381 311.437
L346.675 310.807
L347.968 310.807
L349.262 311.437
L350.555 310.807
L351.849 310.807
L354.436 309.545
L355.729 310.176
L357.023 308.914
L358.316 309.545
L359.61 308.914
L360.904 307.652
L362.197 307.652
L363.491 306.39
L364.784 307.021
L366.078 305.759
L367.371 305.759
L368.665 305.129
L369.958 303.867
L371.252 303.867
L372.545 303.236
L373.839 301.974
L375.132 301.974
L376.426 300.712
L377.72 300.081
L379.013 298.189
L380.307 297.558
L381.6 296.296
L382.894 294.404
L384.187 295.034
L385.481 292.511
L386.774 292.511
L388.068 290.618
L389.361 288.095
L391.948 286.833
L393.242 283.678
L394.536 283.048
L395.829 279.262
L397.123 280.524
L398.416 276.108
L399.71 276.739
L401.003 276.739
L402.297 272.953
L403.59 268.537
L404.884 267.906
L406.177 264.121
L408.764 259.074
L410.058 255.919
L411.352 252.134
L412.645 251.503
L413.939 244.563
L415.232 243.933
L416.526 240.147
L417.819 235.731
L419.113 225.006
L420.406 223.744
L421.7 220.59
L422.993 214.912
L424.287 213.019
L425.58 207.341
L426.874 202.925
L428.168 200.401
L429.461 198.509
L430.755 200.401
L432.048 195.985
L433.342 201.032
L434.635 202.925
L435.929 203.556
L437.222 207.972
L438.516 211.757
L439.809 211.126
L441.103 211.757
L442.396 213.65
L443.69 214.912
L444.984 213.65
L446.277 216.804
L447.571 214.281
L448.864 216.173
L450.158 219.959
L451.451 214.281
L452.745 215.543
L454.038 214.912
L455.332 218.697
L456.625 221.851
L457.919 216.804
L459.212 214.912
L460.506 221.221
L461.8 223.113
L463.093 219.959
L464.387 225.006
L465.68 226.268
L469.561 228.16
L470.854 230.053
L472.148 230.053
L473.441 235.1
L474.735 235.731
L476.028 240.147
L477.322 243.302
L478.615 245.194
L479.909 247.718
L481.203 255.288
L482.496 259.074
L483.79 261.597
L485.083 268.537
L486.377 270.43
L487.67 281.155
L488.964 286.202
L491.551 301.974
L494.138 312.068
L494.138 312.068" style="fill:none;stroke:#0000ff;stroke-linecap:square;"/>
   </g>
   <g id="line2d_78">
    <path clip-path="url(#p1588c2aa0a)" d="
M301.401 312.068
L302.694 312.699
L303.988 312.068
L307.868 312.068
L309.162 311.437
L310.456 312.068
L313.043 312.068
L314.336 311.437
L318.217 311.437
L319.51 312.068
L320.804 311.437
L323.391 311.437
L324.684 310.807
L328.565 310.807
L329.859 310.176
L331.152 310.807
L332.446 310.807
L333.739 310.176
L335.033 310.176
L337.62 308.914
L338.913 308.914
L340.207 308.283
L341.5 308.914
L342.794 308.283
L344.088 308.283
L345.381 307.652
L346.675 306.39
L349.262 307.652
L354.436 305.129
L357.023 305.129
L359.61 302.605
L360.904 303.867
L362.197 302.605
L363.491 300.712
L366.078 300.712
L367.371 298.82
L369.958 297.558
L371.252 298.189
L372.545 295.034
L373.839 295.665
L375.132 293.773
L376.426 292.511
L377.72 290.618
L379.013 292.511
L380.307 291.249
L381.6 289.356
L382.894 288.095
L385.481 288.095
L386.774 285.571
L388.068 284.94
L389.361 281.155
L390.655 279.893
L391.948 280.524
L393.242 277.37
L394.536 276.739
L395.829 272.322
L397.123 274.215
L398.416 271.061
L399.71 271.061
L401.003 266.014
L402.297 264.121
L403.59 260.966
L404.884 264.752
L406.177 260.966
L407.471 254.658
L408.764 252.134
L410.058 252.134
L411.352 249.611
L413.939 242.04
L415.232 240.778
L416.526 238.255
L417.819 233.207
L419.113 228.791
L420.406 223.744
L421.7 219.959
L422.993 219.959
L424.287 216.804
L425.58 209.865
L426.874 207.972
L428.168 204.818
L429.461 205.448
L430.755 207.341
L432.048 204.818
L433.342 206.71
L434.635 212.388
L435.929 215.543
L437.222 215.543
L438.516 214.912
L439.809 221.221
L441.103 221.851
L442.396 221.851
L443.69 228.791
L444.984 226.268
L446.277 227.529
L447.571 230.053
L448.864 226.268
L450.158 229.422
L451.451 226.268
L452.745 226.899
L454.038 228.16
L455.332 230.053
L456.625 228.791
L459.212 228.791
L460.506 228.16
L461.8 228.791
L463.093 230.684
L464.387 229.422
L465.68 231.315
L466.974 231.315
L468.267 230.684
L469.561 233.207
L470.854 236.362
L472.148 235.731
L473.441 240.147
L474.735 239.516
L476.028 243.933
L477.322 248.98
L478.615 248.349
L479.909 254.027
L482.496 262.859
L483.79 266.014
L485.083 271.061
L486.377 278.631
L490.257 295.665
L491.551 301.974
L492.844 307.652
L494.138 312.068
L494.138 312.068" style="fill:none;stroke:#008000;stroke-linecap:square;"/>
   </g>
   <g id="matplotlib.axis_9">
    <g id="xtick_17">
     <g id="line2d_79">
      <g>
       <use style="stroke:#000000;stroke-width:0.5;" x="301.400778216" xlink:href="#m93b0483c22" y="313.330120482"/>
      </g>
     </g>
     <g id="line2d_80">
      <g>
       <use style="stroke:#000000;stroke-width:0.5;" x="301.400778216" xlink:href="#m741efc42ff" y="174.534939759"/>
      </g>
     </g>
    </g>
    <g id="xtick_18">
     <g id="line2d_81">
      <g>
       <use style="stroke:#000000;stroke-width:0.5;" x="366.077683461" xlink:href="#m93b0483c22" y="313.330120482"/>
      </g>
     </g>
     <g id="line2d_82">
      <g>
       <use style="stroke:#000000;stroke-width:0.5;" x="366.077683461" xlink:href="#m741efc42ff" y="174.534939759"/>
      </g>
     </g>
    </g>
    <g id="xtick_19">
     <g id="line2d_83">
      <g>
       <use style="stroke:#000000;stroke-width:0.5;" x="430.754588706" xlink:href="#m93b0483c22" y="313.330120482"/>
      </g>
     </g>
     <g id="line2d_84">
      <g>
       <use style="stroke:#000000;stroke-width:0.5;" x="430.754588706" xlink:href="#m741efc42ff" y="174.534939759"/>
      </g>
     </g>
    </g>
    <g id="xtick_20">
     <g id="line2d_85">
      <g>
       <use style="stroke:#000000;stroke-width:0.5;" x="495.431493951" xlink:href="#m93b0483c22" y="313.330120482"/>
      </g>
     </g>
     <g id="line2d_86">
      <g>
       <use style="stroke:#000000;stroke-width:0.5;" x="495.431493951" xlink:href="#m741efc42ff" y="174.534939759"/>
      </g>
     </g>
    </g>
   </g>
   <g id="matplotlib.axis_10">
    <g id="ytick_17">
     <g id="line2d_87">
      <g>
       <use style="stroke:#000000;stroke-width:0.5;" x="288.465397167" xlink:href="#m728421d6d4" y="281.785761227"/>
      </g>
     </g>
     <g id="line2d_88">
      <g>
       <use style="stroke:#000000;stroke-width:0.5;" x="508.366875" xlink:href="#mcb0005524f" y="281.785761227"/>
      </g>
     </g>
    </g>
    <g id="ytick_18">
     <g id="line2d_89">
      <g>
       <use style="stroke:#000000;stroke-width:0.5;" x="288.465397167" xlink:href="#m728421d6d4" y="250.241401972"/>
      </g>
     </g>
     <g id="line2d_90">
      <g>
       <use style="stroke:#000000;stroke-width:0.5;" x="508.366875" xlink:href="#mcb0005524f" y="250.241401972"/>
      </g>
     </g>
    </g>
    <g id="ytick_19">
     <g id="line2d_91">
      <g>
       <use style="stroke:#000000;stroke-width:0.5;" x="288.465397167" xlink:href="#m728421d6d4" y="218.697042716"/>
      </g>
     </g>
     <g id="line2d_92">
      <g>
       <use style="stroke:#000000;stroke-width:0.5;" x="508.366875" xlink:href="#mcb0005524f" y="218.697042716"/>
      </g>
     </g>
    </g>
    <g id="ytick_20">
     <g id="line2d_93">
      <g>
       <use style="stroke:#000000;stroke-width:0.5;" x="288.465397167" xlink:href="#m728421d6d4" y="187.152683461"/>
      </g>
     </g>
     <g id="line2d_94">
      <g>
       <use style="stroke:#000000;stroke-width:0.5;" x="508.366875" xlink:href="#mcb0005524f" y="187.152683461"/>
      </g>
     </g>
    </g>
   </g>
   <g id="patch_24">
    <path d="
M288.465 174.535
L508.367 174.535" style="fill:none;stroke:#000000;"/>
   </g>
   <g id="patch_25">
    <path d="
M508.367 313.33
L508.367 174.535" style="fill:none;stroke:#000000;"/>
   </g>
   <g id="patch_26">
    <path d="
M288.465 313.33
L508.367 313.33" style="fill:none;stroke:#000000;"/>
   </g>
   <g id="patch_27">
    <path d="
M288.465 313.33
L288.465 174.535" style="fill:none;stroke:#000000;"/>
   </g>
   <g id="text_23">
    <text style="font-family:DejaVu Sans;font-size:12.0px;font-style:normal;text-anchor:start;" transform="rotate(-0.000000, 299.460471, 191.190361)" x="299.460471059" y="191.190361446">$r = 5.0$ \AA</text>
   </g>
  </g>
  <g id="axes_6">
   <g id="patch_28">
    <path d="
M61.9669 459.065
L281.868 459.065
L281.868 320.27
L61.9669 320.27
z
" style="fill:#ffffff;"/>
   </g>
   <g id="line2d_95">
    <path clip-path="url(#p02311a8770)" d="
M74.9023 459.065
L81.3699 459.065
L82.6635 458.434
L83.957 459.065
L93.0118 459.065
L94.3053 458.434
L95.5989 459.065
L96.8924 459.065
L98.1859 458.434
L115.002 458.434
L116.295 457.803
L122.763 457.803
L124.057 456.542
L125.35 457.172
L126.644 456.542
L127.937 457.172
L129.231 455.911
L131.818 455.911
L133.111 455.28
L134.405 455.28
L135.699 454.649
L136.992 454.649
L138.286 454.018
L139.579 454.018
L140.873 452.756
L142.166 452.125
L143.46 452.756
L144.753 450.864
L146.047 452.125
L147.34 450.864
L148.634 448.971
L149.927 450.233
L151.221 448.34
L152.515 447.078
L153.808 445.186
L155.102 446.447
L156.395 445.186
L157.689 442.031
L158.982 443.924
L160.276 440.138
L161.569 440.769
L162.863 439.508
L164.156 437.615
L165.45 436.353
L166.743 433.83
L170.624 430.044
L171.918 428.152
L173.211 427.521
L174.505 423.735
L175.798 423.104
L177.092 419.95
L178.385 416.165
L179.679 414.903
L180.972 416.165
L182.266 408.594
L183.559 406.701
L184.853 403.547
L186.147 401.023
L187.44 395.345
L188.734 390.929
L190.027 392.191
L191.321 381.466
L192.614 378.942
L195.201 368.848
L196.495 368.848
L197.788 361.908
L199.082 351.183
L200.375 348.66
L201.669 347.398
L202.963 342.982
L204.256 339.827
L205.55 342.351
L208.137 341.089
L209.43 342.351
L210.724 344.874
L212.017 353.076
L213.311 344.874
L214.604 349.291
L215.898 346.136
L217.191 348.029
L218.485 351.814
L219.779 349.922
L221.072 347.398
L222.366 348.66
L223.659 344.244
L224.953 351.814
L226.246 343.613
L227.54 350.552
L228.833 356.23
L230.127 348.66
L231.42 353.076
L232.714 353.707
L234.007 356.23
L235.301 358.123
L236.595 355.6
L237.888 358.754
L239.182 363.801
L240.475 366.325
L241.769 366.956
L243.062 368.848
L244.356 372.634
L245.649 378.942
L246.943 382.097
L248.236 383.989
L249.53 389.037
L250.823 395.345
L252.117 395.976
L254.704 410.487
L255.998 410.487
L257.291 419.95
L258.585 420.581
L259.878 427.521
L263.759 444.555
L265.052 451.494
L266.346 455.28
L267.639 458.434
L267.639 458.434" style="fill:none;stroke:#0000ff;stroke-linecap:square;"/>
   </g>
   <g id="line2d_96">
    <path clip-path="url(#p02311a8770)" d="
M74.9023 458.434
L85.2506 458.434
L86.5441 457.803
L87.8376 458.434
L93.0118 458.434
L94.3053 457.803
L95.5989 458.434
L96.8924 458.434
L98.1859 457.803
L103.36 457.803
L104.654 457.172
L105.947 457.172
L107.241 457.803
L108.534 457.803
L109.828 457.172
L112.415 457.172
L115.002 455.911
L116.295 456.542
L117.589 456.542
L120.176 455.28
L121.47 455.28
L122.763 454.649
L124.057 455.28
L125.35 454.018
L126.644 453.387
L127.937 454.018
L129.231 452.756
L130.524 452.756
L131.818 452.125
L133.111 452.125
L134.405 451.494
L135.699 451.494
L136.992 449.602
L138.286 449.602
L139.579 450.233
L140.873 447.709
L142.166 449.602
L143.46 448.34
L144.753 445.816
L146.047 444.555
L147.34 445.816
L148.634 442.031
L151.221 440.769
L152.515 438.877
L153.808 440.138
L155.102 440.138
L156.395 437.615
L157.689 436.984
L160.276 434.46
L161.569 433.83
L164.156 431.306
L165.45 430.675
L166.743 428.782
L168.037 426.259
L169.331 423.104
L170.624 421.212
L171.918 419.95
L173.211 417.427
L174.505 416.165
L175.798 416.165
L177.092 412.379
L178.385 409.856
L179.679 408.594
L180.972 406.071
L182.266 401.654
L183.559 398.5
L184.853 401.023
L187.44 388.406
L188.734 387.775
L190.027 382.728
L191.321 378.942
L192.614 373.895
L193.908 372.634
L195.201 365.694
L196.495 364.432
L197.788 358.754
L199.082 355.6
L200.375 351.814
L201.669 346.136
L202.963 344.244
L204.256 341.089
L205.55 342.351
L206.843 344.874
L208.137 346.767
L209.43 346.136
L210.724 347.398
L212.017 353.707
L213.311 356.861
L214.604 358.123
L215.898 353.076
L218.485 359.385
L219.779 358.123
L221.072 358.123
L222.366 363.801
L223.659 361.908
L224.953 363.801
L226.246 360.016
L227.54 359.385
L228.833 361.908
L230.127 361.908
L231.42 363.801
L232.714 361.278
L234.007 366.956
L235.301 364.432
L236.595 373.264
L237.888 368.217
L239.182 372.003
L240.475 373.895
L241.769 373.895
L243.062 375.788
L244.356 378.942
L245.649 386.513
L246.943 388.406
L248.236 392.822
L249.53 399.762
L250.823 401.023
L252.117 404.178
L253.411 406.071
L254.704 413.01
L255.998 419.319
L258.585 425.628
L259.878 432.568
L261.172 438.246
L263.759 447.078
L265.052 452.125
L266.346 455.911
L267.639 458.434
L267.639 458.434" style="fill:none;stroke:#008000;stroke-linecap:square;"/>
   </g>
   <g id="matplotlib.axis_11">
    <g id="xtick_21">
     <g id="line2d_97">
      <g>
       <use style="stroke:#000000;stroke-width:0.5;" x="74.902256049" xlink:href="#m93b0483c22" y="459.065060241"/>
      </g>
     </g>
     <g id="line2d_98">
      <g>
       <use style="stroke:#000000;stroke-width:0.5;" x="74.902256049" xlink:href="#m741efc42ff" y="320.269879518"/>
      </g>
     </g>
    </g>
    <g id="xtick_22">
     <g id="line2d_99">
      <g>
       <use style="stroke:#000000;stroke-width:0.5;" x="139.579161294" xlink:href="#m93b0483c22" y="459.065060241"/>
      </g>
     </g>
     <g id="line2d_100">
      <g>
       <use style="stroke:#000000;stroke-width:0.5;" x="139.579161294" xlink:href="#m741efc42ff" y="320.269879518"/>
      </g>
     </g>
    </g>
    <g id="xtick_23">
     <g id="line2d_101">
      <g>
       <use style="stroke:#000000;stroke-width:0.5;" x="204.256066539" xlink:href="#m93b0483c22" y="459.065060241"/>
      </g>
     </g>
     <g id="line2d_102">
      <g>
       <use style="stroke:#000000;stroke-width:0.5;" x="204.256066539" xlink:href="#m741efc42ff" y="320.269879518"/>
      </g>
     </g>
    </g>
    <g id="xtick_24">
     <g id="line2d_103">
      <g>
       <use style="stroke:#000000;stroke-width:0.5;" x="268.932971784" xlink:href="#m93b0483c22" y="459.065060241"/>
      </g>
     </g>
     <g id="line2d_104">
      <g>
       <use style="stroke:#000000;stroke-width:0.5;" x="268.932971784" xlink:href="#m741efc42ff" y="320.269879518"/>
      </g>
     </g>
    </g>
   </g>
   <g id="matplotlib.axis_12">
    <g id="ytick_21">
     <g id="line2d_105">
      <g>
       <use style="stroke:#000000;stroke-width:0.5;" x="61.966875" xlink:href="#m728421d6d4" y="427.520700986"/>
      </g>
     </g>
     <g id="line2d_106">
      <g>
       <use style="stroke:#000000;stroke-width:0.5;" x="281.868352833" xlink:href="#mcb0005524f" y="427.520700986"/>
      </g>
     </g>
     <g id="text_24">
      <text style="font-family:DejaVu Sans;font-size:12.0px;font-style:normal;text-anchor:end;" transform="rotate(-0.000000, 57.966875, 430.831951)" x="57.966875" y="430.831950986">0.005</text>
     </g>
    </g>
    <g id="ytick_22">
     <g id="line2d_107">
      <g>
       <use style="stroke:#000000;stroke-width:0.5;" x="61.966875" xlink:href="#m728421d6d4" y="395.976341731"/>
      </g>
     </g>
     <g id="line2d_108">
      <g>
       <use style="stroke:#000000;stroke-width:0.5;" x="281.868352833" xlink:href="#mcb0005524f" y="395.976341731"/>
      </g>
     </g>
     <g id="text_25">
      <text style="font-family:DejaVu Sans;font-size:12.0px;font-style:normal;text-anchor:end;" transform="rotate(-0.000000, 57.966875, 399.287592)" x="57.966875" y="399.287591731">0.010</text>
     </g>
    </g>
    <g id="ytick_23">
     <g id="line2d_109">
      <g>
       <use style="stroke:#000000;stroke-width:0.5;" x="61.966875" xlink:href="#m728421d6d4" y="364.431982475"/>
      </g>
     </g>
     <g id="line2d_110">
      <g>
       <use style="stroke:#000000;stroke-width:0.5;" x="281.868352833" xlink:href="#mcb0005524f" y="364.431982475"/>
      </g>
     </g>
     <g id="text_26">
      <text style="font-family:DejaVu Sans;font-size:12.0px;font-style:normal;text-anchor:end;" transform="rotate(-0.000000, 57.966875, 367.743232)" x="57.966875" y="367.743232475">0.015</text>
     </g>
    </g>
    <g id="ytick_24">
     <g id="line2d_111">
      <g>
       <use style="stroke:#000000;stroke-width:0.5;" x="61.966875" xlink:href="#m728421d6d4" y="332.88762322"/>
      </g>
     </g>
     <g id="line2d_112">
      <g>
       <use style="stroke:#000000;stroke-width:0.5;" x="281.868352833" xlink:href="#mcb0005524f" y="332.88762322"/>
      </g>
     </g>
     <g id="text_27">
      <text style="font-family:DejaVu Sans;font-size:12.0px;font-style:normal;text-anchor:end;" transform="rotate(-0.000000, 57.966875, 336.198873)" x="57.966875" y="336.19887322">0.020</text>
     </g>
    </g>
   </g>
   <g id="patch_29">
    <path d="
M61.9669 320.27
L281.868 320.27" style="fill:none;stroke:#000000;"/>
   </g>
   <g id="patch_30">
    <path d="
M281.868 459.065
L281.868 320.27" style="fill:none;stroke:#000000;"/>
   </g>
   <g id="patch_31">
    <path d="
M61.9669 459.065
L281.868 459.065" style="fill:none;stroke:#000000;"/>
   </g>
   <g id="patch_32">
    <path d="
M61.9669 459.065
L61.9669 320.27" style="fill:none;stroke:#000000;"/>
   </g>
   <g id="text_28">
    <text style="font-family:DejaVu Sans;font-size:12.0px;font-style:normal;text-anchor:start;" transform="rotate(-0.000000, 72.961949, 336.925301)" x="72.9619488916" y="336.925301205">$r = 5.5$ \AA</text>
   </g>
  </g>
  <g id="axes_7">
   <g id="patch_33">
    <path d="
M288.465 459.065
L508.367 459.065
L508.367 320.27
L288.465 320.27
z
" style="fill:#ffffff;"/>
   </g>
   <g id="line2d_113">
    <path clip-path="url(#pa26d6af028)" d="
M301.401 459.065
L332.446 459.065
L333.739 458.434
L344.088 458.434
L345.381 457.803
L346.675 457.803
L347.968 458.434
L349.262 458.434
L350.555 457.803
L353.142 457.803
L354.436 457.172
L355.729 457.172
L357.023 456.542
L358.316 457.172
L359.61 457.172
L360.904 455.911
L366.078 455.911
L367.371 454.649
L368.665 454.649
L372.545 452.756
L373.839 452.756
L382.894 448.34
L384.187 446.447
L385.481 446.447
L386.774 445.816
L388.068 444.555
L389.361 444.555
L390.655 443.924
L391.948 442.031
L394.536 439.508
L397.123 435.722
L398.416 434.46
L399.71 432.568
L401.003 431.306
L402.297 428.152
L403.59 428.152
L404.884 426.259
L406.177 423.735
L407.471 422.474
L408.764 416.165
L410.058 414.903
L412.645 409.856
L413.939 406.071
L415.232 404.178
L416.526 399.762
L419.113 389.667
L420.406 385.251
L421.7 381.466
L422.993 377.05
L424.287 368.848
L425.58 363.801
L426.874 361.278
L428.168 352.445
L429.461 346.136
L430.755 346.767
L432.048 343.613
L433.342 344.874
L434.635 340.458
L435.929 341.089
L437.222 346.136
L438.516 348.029
L439.809 346.767
L441.103 344.874
L442.396 344.874
L443.69 346.767
L444.984 343.613
L446.277 346.136
L447.571 341.089
L448.864 338.566
L450.158 344.874
L451.451 341.72
L452.745 336.673
L454.038 339.827
L455.332 337.935
L456.625 337.935
L457.919 342.351
L459.212 340.458
L460.506 343.613
L461.8 342.351
L463.093 341.72
L464.387 347.398
L465.68 348.029
L466.974 354.338
L468.267 353.707
L472.148 365.063
L473.441 371.372
L474.735 373.895
L476.028 375.788
L477.322 385.882
L478.615 388.406
L479.909 397.238
L482.496 408.594
L483.79 413.641
L485.083 416.796
L486.377 425.628
L487.67 430.044
L488.964 436.984
L490.257 443.293
L491.551 448.971
L494.138 457.803
L494.138 457.803" style="fill:none;stroke:#0000ff;stroke-linecap:square;"/>
   </g>
   <g id="line2d_114">
    <path clip-path="url(#pa26d6af028)" d="
M301.401 459.065
L302.694 459.065
L303.988 458.434
L307.868 458.434
L309.162 459.065
L310.456 458.434
L325.978 458.434
L327.272 457.803
L333.739 457.803
L335.033 458.434
L337.62 457.172
L338.913 457.803
L340.207 457.172
L345.381 457.172
L346.675 455.911
L351.849 455.911
L353.142 454.649
L354.436 455.28
L357.023 454.018
L358.316 454.649
L359.61 453.387
L360.904 454.018
L363.491 452.756
L364.784 451.494
L366.078 450.864
L368.665 450.864
L369.958 449.602
L371.252 449.602
L373.839 448.34
L375.132 446.447
L377.72 446.447
L379.013 444.555
L380.307 444.555
L381.6 442.662
L382.894 443.293
L384.187 440.769
L386.774 438.246
L388.068 437.615
L389.361 437.615
L390.655 435.091
L391.948 433.83
L393.242 433.199
L394.536 430.044
L397.123 428.782
L398.416 426.89
L401.003 421.843
L402.297 421.212
L403.59 417.427
L404.884 417.427
L406.177 416.796
L407.471 413.641
L408.764 409.225
L410.058 407.963
L412.645 402.916
L413.939 396.607
L415.232 396.607
L417.819 385.251
L419.113 381.466
L420.406 383.359
L421.7 374.526
L422.993 370.741
L424.287 367.586
L425.58 362.539
L426.874 358.123
L428.168 354.338
L429.461 348.66
L430.755 348.029
L432.048 349.291
L433.342 345.505
L434.635 348.029
L435.929 347.398
L437.222 349.291
L438.516 351.814
L439.809 349.291
L441.103 353.707
L442.396 353.707
L443.69 349.922
L444.984 351.814
L446.277 351.183
L447.571 354.969
L448.864 353.707
L450.158 354.338
L451.451 352.445
L454.038 351.183
L455.332 352.445
L456.625 354.338
L457.919 354.338
L459.212 353.076
L460.506 353.076
L461.8 358.754
L463.093 354.338
L464.387 356.861
L465.68 363.801
L466.974 365.063
L468.267 363.801
L469.561 366.325
L470.854 368.217
L472.148 373.895
L473.441 376.419
L474.735 382.728
L476.028 385.251
L477.322 390.929
L478.615 394.084
L479.909 399.762
L481.203 407.963
L482.496 410.487
L483.79 413.641
L485.083 421.843
L486.377 426.259
L487.67 431.306
L488.964 438.877
L491.551 450.233
L492.844 455.28
L494.138 458.434
L494.138 458.434" style="fill:none;stroke:#008000;stroke-linecap:square;"/>
   </g>
   <g id="matplotlib.axis_13">
    <g id="xtick_25">
     <g id="line2d_115">
      <g>
       <use style="stroke:#000000;stroke-width:0.5;" x="301.400778216" xlink:href="#m93b0483c22" y="459.065060241"/>
      </g>
     </g>
     <g id="line2d_116">
      <g>
       <use style="stroke:#000000;stroke-width:0.5;" x="301.400778216" xlink:href="#m741efc42ff" y="320.269879518"/>
      </g>
     </g>
    </g>
    <g id="xtick_26">
     <g id="line2d_117">
      <g>
       <use style="stroke:#000000;stroke-width:0.5;" x="366.077683461" xlink:href="#m93b0483c22" y="459.065060241"/>
      </g>
     </g>
     <g id="line2d_118">
      <g>
       <use style="stroke:#000000;stroke-width:0.5;" x="366.077683461" xlink:href="#m741efc42ff" y="320.269879518"/>
      </g>
     </g>
    </g>
    <g id="xtick_27">
     <g id="line2d_119">
      <g>
       <use style="stroke:#000000;stroke-width:0.5;" x="430.754588706" xlink:href="#m93b0483c22" y="459.065060241"/>
      </g>
     </g>
     <g id="line2d_120">
      <g>
       <use style="stroke:#000000;stroke-width:0.5;" x="430.754588706" xlink:href="#m741efc42ff" y="320.269879518"/>
      </g>
     </g>
    </g>
    <g id="xtick_28">
     <g id="line2d_121">
      <g>
       <use style="stroke:#000000;stroke-width:0.5;" x="495.431493951" xlink:href="#m93b0483c22" y="459.065060241"/>
      </g>
     </g>
     <g id="line2d_122">
      <g>
       <use style="stroke:#000000;stroke-width:0.5;" x="495.431493951" xlink:href="#m741efc42ff" y="320.269879518"/>
      </g>
     </g>
    </g>
   </g>
   <g id="matplotlib.axis_14">
    <g id="ytick_25">
     <g id="line2d_123">
      <g>
       <use style="stroke:#000000;stroke-width:0.5;" x="288.465397167" xlink:href="#m728421d6d4" y="427.520700986"/>
      </g>
     </g>
     <g id="line2d_124">
      <g>
       <use style="stroke:#000000;stroke-width:0.5;" x="508.366875" xlink:href="#mcb0005524f" y="427.520700986"/>
      </g>
     </g>
    </g>
    <g id="ytick_26">
     <g id="line2d_125">
      <g>
       <use style="stroke:#000000;stroke-width:0.5;" x="288.465397167" xlink:href="#m728421d6d4" y="395.976341731"/>
      </g>
     </g>
     <g id="line2d_126">
      <g>
       <use style="stroke:#000000;stroke-width:0.5;" x="508.366875" xlink:href="#mcb0005524f" y="395.976341731"/>
      </g>
     </g>
    </g>
    <g id="ytick_27">
     <g id="line2d_127">
      <g>
       <use style="stroke:#000000;stroke-width:0.5;" x="288.465397167" xlink:href="#m728421d6d4" y="364.431982475"/>
      </g>
     </g>
     <g id="line2d_128">
      <g>
       <use style="stroke:#000000;stroke-width:0.5;" x="508.366875" xlink:href="#mcb0005524f" y="364.431982475"/>
      </g>
     </g>
    </g>
    <g id="ytick_28">
     <g id="line2d_129">
      <g>
       <use style="stroke:#000000;stroke-width:0.5;" x="288.465397167" xlink:href="#m728421d6d4" y="332.88762322"/>
      </g>
     </g>
     <g id="line2d_130">
      <g>
       <use style="stroke:#000000;stroke-width:0.5;" x="508.366875" xlink:href="#mcb0005524f" y="332.88762322"/>
      </g>
     </g>
    </g>
   </g>
   <g id="patch_34">
    <path d="
M288.465 320.27
L508.367 320.27" style="fill:none;stroke:#000000;"/>
   </g>
   <g id="patch_35">
    <path d="
M508.367 459.065
L508.367 320.27" style="fill:none;stroke:#000000;"/>
   </g>
   <g id="patch_36">
    <path d="
M288.465 459.065
L508.367 459.065" style="fill:none;stroke:#000000;"/>
   </g>
   <g id="patch_37">
    <path d="
M288.465 459.065
L288.465 320.27" style="fill:none;stroke:#000000;"/>
   </g>
   <g id="text_29">
    <text style="font-family:DejaVu Sans;font-size:12.0px;font-style:normal;text-anchor:start;" transform="rotate(-0.000000, 299.460471, 336.925301)" x="299.460471059" y="336.925301205">$r = 6.0$ \AA</text>
   </g>
  </g>
  <g id="axes_8">
   <g id="patch_38">
    <path d="
M288.465 604.8
L508.367 604.8
L508.367 466.005
L288.465 466.005
z
" style="fill:#ffffff;"/>
   </g>
   <g id="line2d_131">
    <path clip-path="url(#p2638182283)" d="
M301.401 604.8
L342.794 604.8
L344.088 604.169
L345.381 604.8
L346.675 604.8
L347.968 604.169
L349.262 604.8
L350.555 604.8
L351.849 604.169
L355.729 604.169
L357.023 603.538
L358.316 603.538
L359.61 604.169
L360.904 603.538
L363.491 603.538
L366.078 602.276
L367.371 602.907
L368.665 602.276
L372.545 602.276
L373.839 601.015
L376.426 599.753
L377.72 600.384
L379.013 600.384
L380.307 598.491
L381.6 598.491
L384.187 597.229
L385.481 595.968
L386.774 595.968
L388.068 594.075
L389.361 592.813
L390.655 593.444
L391.948 592.182
L393.242 589.659
L394.536 591.551
L395.829 587.766
L398.416 587.766
L401.003 581.457
L403.59 581.457
L404.884 576.41
L406.177 575.148
L407.471 573.256
L408.764 569.47
L410.058 568.839
L411.352 565.685
L412.645 563.161
L413.939 558.114
L416.526 553.067
L417.819 546.127
L419.113 543.604
L420.406 536.033
L421.7 531.617
L422.993 524.677
L424.287 520.892
L425.58 516.476
L426.874 509.536
L428.168 503.858
L429.461 495.026
L430.755 496.287
L432.048 491.871
L434.635 488.086
L435.929 489.348
L437.222 491.871
L438.516 490.609
L439.809 488.717
L441.103 491.24
L442.396 490.609
L443.69 490.609
L444.984 486.824
L446.277 488.717
L447.571 483.039
L448.864 489.348
L450.158 485.562
L451.451 484.301
L452.745 481.146
L454.038 483.67
L455.332 478.623
L456.625 483.67
L457.919 479.253
L459.212 477.992
L460.506 481.146
L461.8 478.623
L463.093 480.515
L464.387 484.931
L465.68 479.253
L466.974 486.824
L468.267 488.086
L469.561 492.502
L470.854 495.657
L472.148 500.704
L473.441 503.858
L474.735 509.536
L476.028 509.536
L478.615 525.939
L479.909 530.986
L481.203 537.295
L482.496 542.973
L485.083 556.853
L486.377 565.685
L487.67 570.101
L488.964 579.565
L490.257 587.766
L492.844 599.122
L494.138 603.538
L494.138 603.538" style="fill:none;stroke:#0000ff;stroke-linecap:square;"/>
   </g>
   <g id="line2d_132">
    <path clip-path="url(#p2638182283)" d="
M301.401 604.8
L324.684 604.8
L325.978 604.169
L327.272 604.8
L328.565 604.8
L329.859 604.169
L331.152 604.8
L335.033 604.8
L336.326 604.169
L353.142 604.169
L354.436 603.538
L357.023 603.538
L358.316 602.907
L360.904 602.907
L362.197 602.276
L364.784 602.276
L366.078 601.015
L368.665 601.015
L369.958 600.384
L371.252 600.384
L372.545 599.122
L373.839 599.122
L375.132 598.491
L376.426 598.491
L379.013 595.968
L380.307 595.337
L381.6 596.598
L384.187 594.075
L385.481 594.075
L386.774 593.444
L388.068 591.551
L389.361 591.551
L390.655 589.028
L391.948 587.135
L393.242 587.766
L394.536 585.242
L395.829 585.242
L397.123 584.612
L398.416 581.457
L399.71 580.195
L401.003 579.565
L402.297 578.303
L403.59 574.517
L404.884 573.887
L406.177 571.363
L407.471 569.47
L408.764 566.947
L410.058 562.531
L411.352 560.638
L412.645 560.007
L413.939 554.96
L415.232 552.436
L416.526 546.127
L417.819 541.711
L419.113 541.711
L420.406 532.879
L421.7 527.201
L422.993 525.939
L424.287 517.107
L425.58 509.536
L426.874 508.905
L429.461 500.073
L430.755 495.026
L432.048 492.502
L434.635 492.502
L435.929 494.395
L437.222 489.348
L438.516 495.026
L439.809 491.24
L441.103 493.133
L442.396 492.502
L443.69 488.717
L444.984 493.764
L446.277 488.717
L447.571 492.502
L448.864 487.455
L450.158 487.455
L451.451 486.824
L452.745 484.301
L454.038 486.193
L455.332 486.824
L456.625 485.562
L457.919 487.455
L459.212 486.824
L460.506 488.717
L461.8 485.562
L463.093 488.086
L464.387 486.824
L465.68 488.086
L466.974 488.717
L468.267 495.026
L469.561 496.918
L470.854 499.442
L472.148 505.12
L473.441 507.012
L474.735 510.798
L476.028 519.63
L477.322 523.416
L478.615 525.308
L479.909 534.772
L481.203 538.557
L482.496 545.497
L483.79 550.544
L486.377 568.209
L487.67 574.517
L488.964 580.195
L490.257 586.504
L491.551 594.706
L492.844 600.384
L494.138 603.538
L494.138 603.538" style="fill:none;stroke:#008000;stroke-linecap:square;"/>
   </g>
   <g id="matplotlib.axis_15">
    <g id="xtick_29">
     <g id="line2d_133">
      <g>
       <use style="stroke:#000000;stroke-width:0.5;" x="301.400778216" xlink:href="#m93b0483c22" y="604.8"/>
      </g>
     </g>
     <g id="line2d_134">
      <g>
       <use style="stroke:#000000;stroke-width:0.5;" x="301.400778216" xlink:href="#m741efc42ff" y="466.004819277"/>
      </g>
     </g>
     <g id="text_30">
      <text style="font-family:DejaVu Sans;font-size:12.0px;font-style:normal;text-anchor:middle;" transform="rotate(-0.000000, 301.400778, 617.918125)" x="301.400778216" y="617.918125">−0.5</text>
     </g>
    </g>
    <g id="xtick_30">
     <g id="line2d_135">
      <g>
       <use style="stroke:#000000;stroke-width:0.5;" x="366.077683461" xlink:href="#m93b0483c22" y="604.8"/>
      </g>
     </g>
     <g id="line2d_136">
      <g>
       <use style="stroke:#000000;stroke-width:0.5;" x="366.077683461" xlink:href="#m741efc42ff" y="466.004819277"/>
      </g>
     </g>
     <g id="text_31">
      <text style="font-family:DejaVu Sans;font-size:12.0px;font-style:normal;text-anchor:middle;" transform="rotate(-0.000000, 366.077683, 617.918125)" x="366.077683461" y="617.918125">0.0</text>
     </g>
    </g>
    <g id="xtick_31">
     <g id="line2d_137">
      <g>
       <use style="stroke:#000000;stroke-width:0.5;" x="430.754588706" xlink:href="#m93b0483c22" y="604.8"/>
      </g>
     </g>
     <g id="line2d_138">
      <g>
       <use style="stroke:#000000;stroke-width:0.5;" x="430.754588706" xlink:href="#m741efc42ff" y="466.004819277"/>
      </g>
     </g>
     <g id="text_32">
      <text style="font-family:DejaVu Sans;font-size:12.0px;font-style:normal;text-anchor:middle;" transform="rotate(-0.000000, 430.754589, 617.918125)" x="430.754588706" y="617.918125">0.5</text>
     </g>
    </g>
    <g id="xtick_32">
     <g id="line2d_139">
      <g>
       <use style="stroke:#000000;stroke-width:0.5;" x="495.431493951" xlink:href="#m93b0483c22" y="604.8"/>
      </g>
     </g>
     <g id="line2d_140">
      <g>
       <use style="stroke:#000000;stroke-width:0.5;" x="495.431493951" xlink:href="#m741efc42ff" y="466.004819277"/>
      </g>
     </g>
     <g id="text_33">
      <text style="font-family:DejaVu Sans;font-size:12.0px;font-style:normal;text-anchor:middle;" transform="rotate(-0.000000, 495.431494, 617.918125)" x="495.431493951" y="617.918125">1.0</text>
     </g>
    </g>
   </g>
   <g id="matplotlib.axis_16">
    <g id="ytick_29">
     <g id="line2d_141">
      <g>
       <use style="stroke:#000000;stroke-width:0.5;" x="288.465397167" xlink:href="#m728421d6d4" y="573.255640745"/>
      </g>
     </g>
     <g id="line2d_142">
      <g>
       <use style="stroke:#000000;stroke-width:0.5;" x="508.366875" xlink:href="#mcb0005524f" y="573.255640745"/>
      </g>
     </g>
    </g>
    <g id="ytick_30">
     <g id="line2d_143">
      <g>
       <use style="stroke:#000000;stroke-width:0.5;" x="288.465397167" xlink:href="#m728421d6d4" y="541.71128149"/>
      </g>
     </g>
     <g id="line2d_144">
      <g>
       <use style="stroke:#000000;stroke-width:0.5;" x="508.366875" xlink:href="#mcb0005524f" y="541.71128149"/>
      </g>
     </g>
    </g>
    <g id="ytick_31">
     <g id="line2d_145">
      <g>
       <use style="stroke:#000000;stroke-width:0.5;" x="288.465397167" xlink:href="#m728421d6d4" y="510.166922234"/>
      </g>
     </g>
     <g id="line2d_146">
      <g>
       <use style="stroke:#000000;stroke-width:0.5;" x="508.366875" xlink:href="#mcb0005524f" y="510.166922234"/>
      </g>
     </g>
    </g>
    <g id="ytick_32">
     <g id="line2d_147">
      <g>
       <use style="stroke:#000000;stroke-width:0.5;" x="288.465397167" xlink:href="#m728421d6d4" y="478.622562979"/>
      </g>
     </g>
     <g id="line2d_148">
      <g>
       <use style="stroke:#000000;stroke-width:0.5;" x="508.366875" xlink:href="#mcb0005524f" y="478.622562979"/>
      </g>
     </g>
    </g>
   </g>
   <g id="patch_39">
    <path d="
M288.465 466.005
L508.367 466.005" style="fill:none;stroke:#000000;"/>
   </g>
   <g id="patch_40">
    <path d="
M508.367 604.8
L508.367 466.005" style="fill:none;stroke:#000000;"/>
   </g>
   <g id="patch_41">
    <path d="
M288.465 604.8
L508.367 604.8" style="fill:none;stroke:#000000;"/>
   </g>
   <g id="patch_42">
    <path d="
M288.465 604.8
L288.465 466.005" style="fill:none;stroke:#000000;"/>
   </g>
   <g id="text_34">
    <text style="font-family:DejaVu Sans;font-size:12.0px;font-style:normal;text-anchor:start;" transform="rotate(-0.000000, 299.460471, 482.660241)" x="299.460471059" y="482.660240964">$r = 7.0$ \AA</text>
   </g>
  </g>
  <g id="text_35">
   <text style="font-family:DejaVu Sans;font-size:12.0px;font-style:normal;text-anchor:middle;" transform="rotate(-0.000000, 277.966875, 16.318125)" x="277.966875" y="16.318125">Tetrahedral order parameter</text>
  </g>
  <g id="text_36">
   <text style="font-family:DejaVu Sans;font-size:12.0px;font-style:normal;text-anchor:middle;" transform="rotate(-0.000000, 277.966875, 636.911250)" x="277.966875" y="636.91125">Q \hl{???}</text>
  </g>
  <g id="text_37">
   <text style="font-family:DejaVu Sans;font-size:12.0px;font-style:normal;" transform="translate(16.318125 375.834375)rotate(-90.0)">Relative occurrence</text>
  </g>
 </g>
 <defs>
  <clipPath id="p3e0da3d9b8">
   <rect height="138.795180723" width="219.901477833" x="61.966875" y="174.534939759"/>
  </clipPath>
  <clipPath id="p2638182283">
   <rect height="138.795180723" width="219.901477833" x="288.465397167" y="466.004819277"/>
  </clipPath>
  <clipPath id="p02311a8770">
   <rect height="138.795180723" width="219.901477833" x="61.966875" y="320.269879518"/>
  </clipPath>
  <clipPath id="p1588c2aa0a">
   <rect height="138.795180723" width="219.901477833" x="288.465397167" y="174.534939759"/>
  </clipPath>
  <clipPath id="p27b74cd5b9">
   <rect height="138.795180723" width="219.901477833" x="61.966875" y="466.004819277"/>
  </clipPath>
  <clipPath id="p5ff848af41">
   <rect height="138.795180723" width="219.901477833" x="61.966875" y="28.8"/>
  </clipPath>
  <clipPath id="p108575e4b0">
   <rect height="138.795180723" width="219.901477833" x="288.465397167" y="28.8"/>
  </clipPath>
  <clipPath id="pa26d6af028">
   <rect height="138.795180723" width="219.901477833" x="288.465397167" y="320.269879518"/>
  </clipPath>
 </defs>
</svg>
