<?xml version="1.0" encoding="utf-8" standalone="no"?>
<!DOCTYPE svg PUBLIC "-//W3C//DTD SVG 1.1//EN"
  "http://www.w3.org/Graphics/SVG/1.1/DTD/svg11.dtd">
<!-- Created with matplotlib (http://matplotlib.org/) -->
<svg height="235pt" version="1.1" viewBox="0 0 283 235" width="283pt" xmlns="http://www.w3.org/2000/svg" xmlns:xlink="http://www.w3.org/1999/xlink">
 <defs>
  <style type="text/css">
*{stroke-linecap:butt;stroke-linejoin:round;}
  </style>
 </defs>
 <g id="figure_1">
  <g id="patch_1">
   <path d="
M0 235.369
L283.344 235.369
L283.344 0
L0 0
z
" style="fill:#ffffff;"/>
  </g>
  <g id="axes_1">
   <g id="patch_2">
    <path d="
M52.9444 195.942
L276.144 195.942
L276.144 23.1418
L52.9444 23.1418
z
" style="fill:#ffffff;"/>
   </g>
   <g id="line2d_1">
    <path clip-path="url(#p9634238688)" d="
M73.8694 189.266
L122.694 191.878
L157.569 180.606
L192.444 141.998
L227.319 109.329
L262.194 45.998" style="fill:none;stroke:#0000ff;stroke-linecap:square;"/>
    <defs>
     <path d="
M0 3
C0.795609 3 1.55874 2.6839 2.12132 2.12132
C2.6839 1.55874 3 0.795609 3 0
C3 -0.795609 2.6839 -1.55874 2.12132 -2.12132
C1.55874 -2.6839 0.795609 -3 0 -3
C-0.795609 -3 -1.55874 -2.6839 -2.12132 -2.12132
C-2.6839 -1.55874 -3 -0.795609 -3 0
C-3 0.795609 -2.6839 1.55874 -2.12132 2.12132
C-1.55874 2.6839 -0.795609 3 0 3
z
" id="mf1e9a9e4ae" style="stroke:#000000;stroke-width:0.5;"/>
    </defs>
    <g clip-path="url(#p9634238688)">
     <use style="fill:#0000ff;stroke:#000000;stroke-width:0.5;" x="73.869375" xlink:href="#mf1e9a9e4ae" y="189.26581758"/>
     <use style="fill:#0000ff;stroke:#000000;stroke-width:0.5;" x="122.694375" xlink:href="#mf1e9a9e4ae" y="191.877891973"/>
     <use style="fill:#0000ff;stroke:#000000;stroke-width:0.5;" x="157.569375" xlink:href="#mf1e9a9e4ae" y="180.606250421"/>
     <use style="fill:#0000ff;stroke:#000000;stroke-width:0.5;" x="192.444375" xlink:href="#mf1e9a9e4ae" y="141.998084567"/>
     <use style="fill:#0000ff;stroke:#000000;stroke-width:0.5;" x="227.319375" xlink:href="#mf1e9a9e4ae" y="109.32935126"/>
     <use style="fill:#0000ff;stroke:#000000;stroke-width:0.5;" x="262.194375" xlink:href="#mf1e9a9e4ae" y="45.997988736"/>
    </g>
   </g>
   <g id="line2d_2">
    <path clip-path="url(#p9634238688)" d="
M73.8694 187.145
L122.694 192.022
L157.569 181.68
L192.444 146.46
L227.319 119.154
L262.194 37.7838" style="fill:none;stroke:#008000;stroke-linecap:square;"/>
    <defs>
     <path d="
M0 3
C0.795609 3 1.55874 2.6839 2.12132 2.12132
C2.6839 1.55874 3 0.795609 3 0
C3 -0.795609 2.6839 -1.55874 2.12132 -2.12132
C1.55874 -2.6839 0.795609 -3 0 -3
C-0.795609 -3 -1.55874 -2.6839 -2.12132 -2.12132
C-2.6839 -1.55874 -3 -0.795609 -3 0
C-3 0.795609 -2.6839 1.55874 -2.12132 2.12132
C-1.55874 2.6839 -0.795609 3 0 3
z
" id="mbbe02196b1" style="stroke:#000000;stroke-width:0.5;"/>
    </defs>
    <g clip-path="url(#p9634238688)">
     <use style="fill:#008000;stroke:#000000;stroke-width:0.5;" x="73.869375" xlink:href="#mbbe02196b1" y="187.145174483"/>
     <use style="fill:#008000;stroke:#000000;stroke-width:0.5;" x="122.694375" xlink:href="#mbbe02196b1" y="192.021902772"/>
     <use style="fill:#008000;stroke:#000000;stroke-width:0.5;" x="157.569375" xlink:href="#mbbe02196b1" y="181.679909547"/>
     <use style="fill:#008000;stroke:#000000;stroke-width:0.5;" x="192.444375" xlink:href="#mbbe02196b1" y="146.459720038"/>
     <use style="fill:#008000;stroke:#000000;stroke-width:0.5;" x="227.319375" xlink:href="#mbbe02196b1" y="119.154016471"/>
     <use style="fill:#008000;stroke:#000000;stroke-width:0.5;" x="262.194375" xlink:href="#mbbe02196b1" y="37.7837892176"/>
    </g>
   </g>
   <g id="matplotlib.axis_1">
    <g id="xtick_1">
     <g id="line2d_3">
      <defs>
       <path d="
M0 0
L0 -4" id="m93b0483c22" style="stroke:#000000;stroke-width:0.5;"/>
      </defs>
      <g>
       <use style="stroke:#000000;stroke-width:0.5;" x="52.944375" xlink:href="#m93b0483c22" y="195.94175"/>
      </g>
     </g>
     <g id="line2d_4">
      <defs>
       <path d="
M0 0
L0 4" id="m741efc42ff" style="stroke:#000000;stroke-width:0.5;"/>
      </defs>
      <g>
       <use style="stroke:#000000;stroke-width:0.5;" x="52.944375" xlink:href="#m741efc42ff" y="23.14175"/>
      </g>
     </g>
     <g id="text_1">
      <text style="font-family:DejaVu Sans;font-size:12.0px;font-style:normal;text-anchor:middle;" transform="rotate(-0.000000, 52.944375, 209.059875)" x="52.944375" y="209.059875">0</text>
     </g>
    </g>
    <g id="xtick_2">
     <g id="line2d_5">
      <g>
       <use style="stroke:#000000;stroke-width:0.5;" x="94.794375" xlink:href="#m93b0483c22" y="195.94175"/>
      </g>
     </g>
     <g id="line2d_6">
      <g>
       <use style="stroke:#000000;stroke-width:0.5;" x="94.794375" xlink:href="#m741efc42ff" y="23.14175"/>
      </g>
     </g>
     <g id="text_2">
      <text style="font-family:DejaVu Sans;font-size:12.0px;font-style:normal;text-anchor:middle;" transform="rotate(-0.000000, 94.794375, 209.059875)" x="94.794375" y="209.059875">3</text>
     </g>
    </g>
    <g id="xtick_3">
     <g id="line2d_7">
      <g>
       <use style="stroke:#000000;stroke-width:0.5;" x="136.644375" xlink:href="#m93b0483c22" y="195.94175"/>
      </g>
     </g>
     <g id="line2d_8">
      <g>
       <use style="stroke:#000000;stroke-width:0.5;" x="136.644375" xlink:href="#m741efc42ff" y="23.14175"/>
      </g>
     </g>
     <g id="text_3">
      <text style="font-family:DejaVu Sans;font-size:12.0px;font-style:normal;text-anchor:middle;" transform="rotate(-0.000000, 136.644375, 209.059875)" x="136.644375" y="209.059875">6</text>
     </g>
    </g>
    <g id="xtick_4">
     <g id="line2d_9">
      <g>
       <use style="stroke:#000000;stroke-width:0.5;" x="178.494375" xlink:href="#m93b0483c22" y="195.94175"/>
      </g>
     </g>
     <g id="line2d_10">
      <g>
       <use style="stroke:#000000;stroke-width:0.5;" x="178.494375" xlink:href="#m741efc42ff" y="23.14175"/>
      </g>
     </g>
     <g id="text_4">
      <text style="font-family:DejaVu Sans;font-size:12.0px;font-style:normal;text-anchor:middle;" transform="rotate(-0.000000, 178.494375, 209.059875)" x="178.494375" y="209.059875">9</text>
     </g>
    </g>
    <g id="xtick_5">
     <g id="line2d_11">
      <g>
       <use style="stroke:#000000;stroke-width:0.5;" x="220.344375" xlink:href="#m93b0483c22" y="195.94175"/>
      </g>
     </g>
     <g id="line2d_12">
      <g>
       <use style="stroke:#000000;stroke-width:0.5;" x="220.344375" xlink:href="#m741efc42ff" y="23.14175"/>
      </g>
     </g>
     <g id="text_5">
      <text style="font-family:DejaVu Sans;font-size:12.0px;font-style:normal;text-anchor:middle;" transform="rotate(-0.000000, 220.344375, 209.059875)" x="220.344375" y="209.059875">12</text>
     </g>
    </g>
    <g id="xtick_6">
     <g id="line2d_13">
      <g>
       <use style="stroke:#000000;stroke-width:0.5;" x="262.194375" xlink:href="#m93b0483c22" y="195.94175"/>
      </g>
     </g>
     <g id="line2d_14">
      <g>
       <use style="stroke:#000000;stroke-width:0.5;" x="262.194375" xlink:href="#m741efc42ff" y="23.14175"/>
      </g>
     </g>
     <g id="text_6">
      <text style="font-family:DejaVu Sans;font-size:12.0px;font-style:normal;text-anchor:middle;" transform="rotate(-0.000000, 262.194375, 209.059875)" x="262.194375" y="209.059875">15</text>
     </g>
    </g>
    <g id="text_7">
     <text style="font-family:DejaVu Sans;font-size:12.0px;font-style:normal;text-anchor:middle;" transform="rotate(-0.000000, 164.544375, 225.673625)" x="164.544375" y="225.673625">$r\text{ [\AA]}$</text>
    </g>
   </g>
   <g id="matplotlib.axis_2">
    <g id="ytick_1">
     <g id="line2d_15">
      <defs>
       <path d="
M0 0
L4 0" id="m728421d6d4" style="stroke:#000000;stroke-width:0.5;"/>
      </defs>
      <g>
       <use style="stroke:#000000;stroke-width:0.5;" x="52.944375" xlink:href="#m728421d6d4" y="195.94175"/>
      </g>
     </g>
     <g id="line2d_16">
      <defs>
       <path d="
M0 0
L-4 0" id="mcb0005524f" style="stroke:#000000;stroke-width:0.5;"/>
      </defs>
      <g>
       <use style="stroke:#000000;stroke-width:0.5;" x="276.144375" xlink:href="#mcb0005524f" y="195.94175"/>
      </g>
     </g>
     <g id="text_8">
      <text style="font-family:DejaVu Sans;font-size:12.0px;font-style:normal;text-anchor:end;" transform="rotate(-0.000000, 48.944375, 199.253000)" x="48.944375" y="199.253">0.00</text>
     </g>
    </g>
    <g id="ytick_2">
     <g id="line2d_17">
      <g>
       <use style="stroke:#000000;stroke-width:0.5;" x="52.944375" xlink:href="#m728421d6d4" y="161.38175"/>
      </g>
     </g>
     <g id="line2d_18">
      <g>
       <use style="stroke:#000000;stroke-width:0.5;" x="276.144375" xlink:href="#mcb0005524f" y="161.38175"/>
      </g>
     </g>
     <g id="text_9">
      <text style="font-family:DejaVu Sans;font-size:12.0px;font-style:normal;text-anchor:end;" transform="rotate(-0.000000, 48.944375, 164.693000)" x="48.944375" y="164.693">0.05</text>
     </g>
    </g>
    <g id="ytick_3">
     <g id="line2d_19">
      <g>
       <use style="stroke:#000000;stroke-width:0.5;" x="52.944375" xlink:href="#m728421d6d4" y="126.82175"/>
      </g>
     </g>
     <g id="line2d_20">
      <g>
       <use style="stroke:#000000;stroke-width:0.5;" x="276.144375" xlink:href="#mcb0005524f" y="126.82175"/>
      </g>
     </g>
     <g id="text_10">
      <text style="font-family:DejaVu Sans;font-size:12.0px;font-style:normal;text-anchor:end;" transform="rotate(-0.000000, 48.944375, 130.133000)" x="48.944375" y="130.133">0.10</text>
     </g>
    </g>
    <g id="ytick_4">
     <g id="line2d_21">
      <g>
       <use style="stroke:#000000;stroke-width:0.5;" x="52.944375" xlink:href="#m728421d6d4" y="92.26175"/>
      </g>
     </g>
     <g id="line2d_22">
      <g>
       <use style="stroke:#000000;stroke-width:0.5;" x="276.144375" xlink:href="#mcb0005524f" y="92.26175"/>
      </g>
     </g>
     <g id="text_11">
      <text style="font-family:DejaVu Sans;font-size:12.0px;font-style:normal;text-anchor:end;" transform="rotate(-0.000000, 48.944375, 95.573000)" x="48.944375" y="95.573">0.15</text>
     </g>
    </g>
    <g id="ytick_5">
     <g id="line2d_23">
      <g>
       <use style="stroke:#000000;stroke-width:0.5;" x="52.944375" xlink:href="#m728421d6d4" y="57.70175"/>
      </g>
     </g>
     <g id="line2d_24">
      <g>
       <use style="stroke:#000000;stroke-width:0.5;" x="276.144375" xlink:href="#mcb0005524f" y="57.70175"/>
      </g>
     </g>
     <g id="text_12">
      <text style="font-family:DejaVu Sans;font-size:12.0px;font-style:normal;text-anchor:end;" transform="rotate(-0.000000, 48.944375, 61.013000)" x="48.944375" y="61.013">0.20</text>
     </g>
    </g>
    <g id="ytick_6">
     <g id="line2d_25">
      <g>
       <use style="stroke:#000000;stroke-width:0.5;" x="52.944375" xlink:href="#m728421d6d4" y="23.14175"/>
      </g>
     </g>
     <g id="line2d_26">
      <g>
       <use style="stroke:#000000;stroke-width:0.5;" x="276.144375" xlink:href="#mcb0005524f" y="23.14175"/>
      </g>
     </g>
     <g id="text_13">
      <text style="font-family:DejaVu Sans;font-size:12.0px;font-style:normal;text-anchor:end;" transform="rotate(-0.000000, 48.944375, 26.453000)" x="48.944375" y="26.453">0.25</text>
     </g>
    </g>
    <g id="text_14">
     <text style="font-family:DejaVu Sans;font-size:12.0px;font-style:normal;text-anchor:middle;" transform="rotate(-90.000000, 16.318125, 109.541750)" x="16.318125" y="109.54175">$D\text{ [\AA$^2$/ps]}$</text>
    </g>
   </g>
   <g id="patch_3">
    <path d="
M52.9444 23.1418
L276.144 23.1418" style="fill:none;stroke:#000000;"/>
   </g>
   <g id="patch_4">
    <path d="
M276.144 195.942
L276.144 23.1418" style="fill:none;stroke:#000000;"/>
   </g>
   <g id="patch_5">
    <path d="
M52.9444 195.942
L276.144 195.942" style="fill:none;stroke:#000000;"/>
   </g>
   <g id="patch_6">
    <path d="
M52.9444 195.942
L52.9444 23.1418" style="fill:none;stroke:#000000;"/>
   </g>
   <g id="text_15">
    <text style="font-family:DejaVu Sans;font-size:14.4px;font-style:normal;text-anchor:middle;" transform="rotate(-0.000000, 164.544375, 18.141750)" x="164.544375" y="18.14175">Diffusion constant</text>
   </g>
   <g id="legend_1">
    <g id="patch_7">
     <path d="
M60.1444 76.9347
L218.315 76.9347
L218.315 30.3417
L60.1444 30.3417
L60.1444 76.9347
z
" style="fill:none;opacity:0.0;"/>
    </g>
    <g id="line2d_27">
     <path d="
M70.2244 42.0035
L90.3844 42.0035" style="fill:none;stroke:#0000ff;stroke-linecap:square;"/>
    </g>
    <g id="line2d_28">
     <g>
      <use style="fill:#0000ff;stroke:#000000;stroke-width:0.5;" x="70.224375" xlink:href="#mf1e9a9e4ae" y="42.0035"/>
      <use style="fill:#0000ff;stroke:#000000;stroke-width:0.5;" x="90.384375" xlink:href="#mf1e9a9e4ae" y="42.0035"/>
     </g>
    </g>
    <g id="text_16">
     <text style="font-family:DejaVu Sans;font-size:14.4px;font-style:normal;text-anchor:start;" transform="rotate(-0.000000, 106.224375, 47.043500)" x="106.224375" y="47.0435">Flat fracture</text>
    </g>
    <g id="line2d_29">
     <path d="
M70.2244 63.14
L90.3844 63.14" style="fill:none;stroke:#008000;stroke-linecap:square;"/>
    </g>
    <g id="line2d_30">
     <g>
      <use style="fill:#008000;stroke:#000000;stroke-width:0.5;" x="70.224375" xlink:href="#mbbe02196b1" y="63.14"/>
      <use style="fill:#008000;stroke:#000000;stroke-width:0.5;" x="90.384375" xlink:href="#mbbe02196b1" y="63.14"/>
     </g>
    </g>
    <g id="text_17">
     <text style="font-family:DejaVu Sans;font-size:14.4px;font-style:normal;text-anchor:start;" transform="rotate(-0.000000, 106.224375, 68.180000)" x="106.224375" y="68.18">Rough fracture</text>
    </g>
   </g>
  </g>
 </g>
 <defs>
  <clipPath id="p9634238688">
   <rect height="172.8" width="223.2" x="52.944375" y="23.14175"/>
  </clipPath>
 </defs>
</svg>
