<?xml version="1.0" encoding="utf-8" standalone="no"?>
<!DOCTYPE svg PUBLIC "-//W3C//DTD SVG 1.1//EN"
  "http://www.w3.org/Graphics/SVG/1.1/DTD/svg11.dtd">
<!-- Created with matplotlib (http://matplotlib.org/) -->
<svg height="309pt" version="1.1" viewBox="0 0 469 309" width="469pt" xmlns="http://www.w3.org/2000/svg" xmlns:xlink="http://www.w3.org/1999/xlink">
 <defs>
  <style type="text/css">
*{stroke-linecap:butt;stroke-linejoin:round;}
  </style>
 </defs>
 <g id="figure_1">
  <g id="patch_1">
   <path d="
M0 309.426
L469.661 309.426
L469.661 0
L0 0
z
" style="fill:#ffffff;"/>
  </g>
  <g id="axes_1">
   <g id="patch_2">
    <path d="
M52.9444 269.999
L371.802 269.999
L371.802 23.1417
L52.9444 23.1417
z
" style="fill:#ffffff;"/>
   </g>
   <g id="line2d_1">
    <path clip-path="url(#p740331fdaf)" d="
M54.5386 183.983
L56.1328 178.984
L57.7271 183.762
L59.3213 193.271
L60.9155 205.634
L62.5098 214.822
L64.104 222.693
L65.6982 229.196
L67.2925 234.01
L68.8867 238.067
L70.4809 240.995
L72.0752 243.466
L73.6694 245.63
L76.8579 249.308
L78.4521 250.036
L80.0463 251.25
L84.829 253.077
L86.4233 253.087
L88.0175 253.784
L89.6117 254.326
L91.206 255.272
L95.9887 257.04
L97.5829 257.53
L99.1771 257.595
L100.771 258.211
L102.366 258.512
L103.96 258.957
L105.554 259.201
L107.148 259.272
L113.525 259.115
L116.714 259.297
L126.279 261.642
L127.873 261.847
L131.062 261.897
L134.25 261.811
L137.439 262.009
L140.627 261.971
L145.41 262.65
L150.193 262.608
L153.381 263.092
L154.975 263.16
L156.57 263.348
L164.541 263.402
L166.135 263.37
L169.323 263.695
L172.512 264.236
L175.7 264.554
L177.295 264.422
L180.483 264.418
L182.077 264.399
L186.86 264.685
L193.237 264.729
L196.425 264.981
L218.745 265.334
L221.933 265.393
L225.122 265.65
L228.31 265.658
L231.498 265.582
L234.687 265.633
L237.875 265.553
L241.064 265.605
L249.035 265.924
L253.818 266.061
L257.006 266.24
L260.195 266.191
L264.977 266.18
L296.862 266.67
L300.05 266.656
L303.239 266.66
L311.21 266.663
L315.993 266.84
L325.558 266.888
L336.718 267.211
L344.689 267.063
L349.472 267.162
L368.602 267.193
L368.602 267.193" style="fill:none;stroke:#000000;stroke-linecap:square;"/>
   </g>
   <g id="line2d_2">
    <path clip-path="url(#p740331fdaf)" d="
M54.5386 195.739
L56.1328 192.493
L57.7271 193.364
L59.3213 203.593
L60.9155 218.361
L62.5098 229.341
L64.104 234.189
L65.6982 238.166
L67.2925 244.311
L68.8867 248.23
L70.4809 250.502
L72.0752 252.546
L73.6694 253.903
L75.2636 254.836
L76.8579 255.384
L78.4521 255.394
L80.0463 256.118
L81.6406 257.395
L84.829 258.668
L86.4233 258.859
L88.0175 259.851
L89.6117 259.468
L91.206 258.963
L92.8002 259.809
L94.3944 260.023
L95.9887 259.95
L97.5829 260.374
L99.1771 260.083
L100.771 260.893
L102.366 261.327
L103.96 262.366
L105.554 262.765
L107.148 262.964
L108.743 263.022
L110.337 262.823
L111.931 263.21
L113.525 264.119
L115.119 264.77
L116.714 264.533
L118.308 264.428
L121.496 264.914
L123.091 264.672
L124.685 264.554
L126.279 264.861
L127.873 265.009
L129.468 265.039
L131.062 264.733
L132.656 264.573
L134.25 264.58
L137.439 265.649
L139.033 265.714
L143.816 265.386
L145.41 265.809
L148.598 265.772
L150.193 265.299
L154.975 266.119
L156.57 265.861
L158.164 265.73
L161.352 265.875
L162.946 265.918
L166.135 265.523
L167.729 265.646
L169.323 266.369
L170.918 266.585
L172.512 266.522
L174.106 266.292
L178.889 266.417
L180.483 266.779
L186.86 266.728
L190.048 267.085
L198.02 266.871
L201.208 266.917
L202.802 266.802
L204.396 266.816
L205.991 266.986
L207.585 267.038
L209.179 266.886
L212.368 266.8
L213.962 267.076
L215.556 267.197
L217.15 267.089
L218.745 267.273
L220.339 267.182
L221.933 267.341
L233.093 267.257
L234.687 267.451
L236.281 267.401
L237.875 267.486
L239.47 267.335
L245.847 267.358
L247.441 267.702
L250.629 267.811
L252.223 267.485
L258.6 268.025
L261.789 267.827
L263.383 267.706
L264.977 267.761
L266.572 267.966
L269.76 267.805
L271.354 268.012
L272.948 268.074
L274.543 267.875
L277.731 267.834
L282.514 267.691
L285.702 268.092
L287.297 268.226
L288.891 268.206
L292.079 268.027
L293.674 267.979
L298.456 268.239
L301.645 268.254
L303.239 268.075
L309.616 268.404
L311.21 268.314
L312.804 268.09
L314.399 268.04
L317.587 268.174
L319.181 268.15
L322.37 268.265
L327.152 268.202
L335.124 268.479
L338.312 268.18
L347.877 268.505
L351.066 268.659
L354.254 268.361
L363.82 268.374
L368.602 268.729
L368.602 268.729" style="fill:none;stroke:#bfbf00;stroke-linecap:square;"/>
   </g>
   <g id="line2d_3">
    <path clip-path="url(#p740331fdaf)" d="
M54.5386 162.93
L56.1328 144.696
L57.7271 147.859
L59.3213 161.988
L60.9155 177.863
L62.5098 189.815
L64.104 199.605
L65.6982 210.108
L67.2925 216.34
L68.8867 221.202
L70.4809 224.275
L72.0752 226.657
L73.6694 228.54
L75.2636 230.228
L78.4521 234.231
L80.0463 235.879
L84.829 239.669
L86.4233 240.314
L88.0175 241.478
L89.6117 242.464
L91.206 243.927
L92.8002 244.942
L94.3944 245.645
L95.9887 246.2
L97.5829 246.634
L99.1771 246.73
L100.771 247.391
L102.366 247.68
L103.96 248.236
L107.148 248.746
L108.743 248.788
L110.337 248.715
L113.525 249.619
L115.119 250.067
L116.714 249.987
L118.308 249.779
L119.902 249.914
L121.496 250.279
L123.091 250.941
L126.279 251.774
L129.468 252.304
L132.656 251.851
L134.25 252.047
L140.627 253.38
L143.816 254.032
L145.41 254.316
L147.004 254.42
L148.598 254.389
L150.193 254.501
L151.787 254.761
L153.381 255.135
L158.164 255.508
L162.946 256.146
L166.135 255.937
L172.512 256.848
L177.295 257.002
L182.077 257.095
L185.266 257.298
L188.454 257.462
L191.643 257.639
L193.237 257.479
L198.02 257.908
L202.802 258.001
L210.773 258.336
L215.556 258.207
L217.15 258.096
L221.933 258.523
L225.122 259.027
L226.716 259.113
L229.904 259.029
L236.281 259.365
L239.47 259.252
L241.064 259.428
L245.847 259.503
L247.441 259.613
L249.035 259.558
L252.223 259.803
L253.818 259.759
L255.412 259.839
L258.6 259.61
L261.789 260.013
L268.166 260.11
L269.76 260.063
L274.543 260.801
L276.137 260.821
L282.514 260.49
L287.297 260.811
L301.645 261.483
L304.833 261.361
L308.022 261.391
L311.21 261.63
L314.399 261.634
L320.775 261.782
L322.37 261.83
L325.558 261.745
L330.341 262.247
L331.935 262.419
L336.718 262.412
L343.095 262.137
L344.689 262.154
L347.877 262.498
L352.66 262.574
L354.254 262.492
L357.443 262.586
L362.226 262.574
L365.414 262.742
L368.602 262.61
L368.602 262.61" style="fill:none;stroke:#bf00bf;stroke-linecap:square;"/>
   </g>
   <g id="line2d_4">
    <path clip-path="url(#p740331fdaf)" d="
M54.5386 132.814
L56.1328 91.9811
L57.7271 83.9506
L59.3213 90.3722
L60.9155 103.225
L62.5098 117.48
L64.104 130.607
L65.6982 141.416
L67.2925 149.417
L68.8867 156.249
L72.0752 167.309
L73.6694 172.421
L75.2636 177.156
L76.8579 180.404
L80.0463 185.781
L83.2348 189.363
L84.829 190.909
L86.4233 192.731
L89.6117 196.91
L91.206 198.372
L92.8002 200.136
L94.3944 201.442
L95.9887 202.166
L97.5829 203.254
L102.366 205.938
L103.96 207.469
L105.554 208.678
L108.743 209.961
L110.337 210.517
L111.931 211.403
L113.525 211.79
L116.714 212.912
L118.308 213.464
L121.496 214.807
L123.091 215.303
L124.685 215.273
L126.279 215.111
L127.873 215.353
L131.062 216.361
L132.656 216.765
L134.25 216.939
L139.033 217.706
L142.221 218.372
L151.787 221.411
L158.164 222.439
L159.758 222.542
L161.352 222.861
L162.946 223.541
L166.135 223.942
L167.729 224.577
L170.918 225.1
L174.106 225.735
L175.7 225.714
L177.295 225.833
L178.889 226.102
L182.077 226.22
L183.671 226.186
L188.454 226.528
L193.237 227.23
L194.831 227.433
L196.425 227.441
L204.396 228.225
L209.179 228.528
L210.773 228.733
L212.368 228.76
L213.962 228.54
L217.15 228.613
L220.339 228.794
L225.122 229.655
L228.31 229.521
L231.498 229.836
L236.281 230.297
L241.064 230.533
L244.252 230.48
L245.847 230.503
L250.629 231.014
L252.223 231.159
L253.818 231.165
L263.383 231.86
L266.572 231.975
L272.948 232.492
L277.731 232.832
L279.325 232.929
L282.514 232.883
L284.108 232.947
L287.297 232.854
L293.674 233.15
L296.862 233.438
L298.456 233.538
L300.05 233.93
L301.645 234.106
L306.427 233.842
L322.37 234.119
L325.558 234.584
L330.341 234.896
L333.529 235.168
L336.718 235.099
L339.906 235.176
L341.501 235.132
L344.689 235.426
L347.877 235.824
L352.66 236.189
L355.849 235.992
L359.037 236.236
L360.631 236.324
L363.82 236.728
L365.414 236.826
L368.602 236.606
L368.602 236.606" style="fill:none;stroke:#00bfbf;stroke-linecap:square;"/>
   </g>
   <g id="line2d_5">
    <path clip-path="url(#p740331fdaf)" d="
M54.5386 121.275
L56.1328 73.6614
L57.7271 60.6651
L59.3213 61.2471
L60.9155 69.6369
L62.5098 80.2689
L65.6982 103.72
L67.2925 112.772
L68.8867 120.411
L70.4809 126.727
L73.6694 136.801
L75.2636 141.398
L76.8579 144.972
L78.4521 148.005
L80.0463 150.615
L81.6406 152.94
L86.4233 160.648
L88.0175 162.93
L91.206 166.26
L92.8002 167.937
L94.3944 169.433
L95.9887 170.675
L99.1771 173.878
L100.771 175.215
L102.366 175.966
L105.554 178.308
L107.148 179.304
L108.743 180.075
L110.337 180.594
L111.931 181.373
L116.714 184.121
L119.902 185.172
L121.496 185.715
L124.685 186.362
L127.873 186.882
L131.062 188.003
L132.656 188.393
L134.25 188.559
L137.439 189.521
L139.033 190.017
L140.627 190.37
L142.221 190.845
L143.816 191.464
L145.41 191.958
L147.004 192.214
L150.193 192.607
L151.787 192.989
L153.381 193.239
L154.975 193.648
L158.164 194.701
L159.758 195.197
L162.946 195.915
L166.135 196.139
L167.729 196.581
L170.918 197.197
L174.106 198.058
L175.7 198.136
L177.295 198.346
L178.889 198.794
L186.86 200.346
L188.454 200.865
L190.048 201.254
L199.614 202.516
L201.208 202.829
L207.585 203.199
L212.368 203.547
L218.745 203.659
L220.339 203.783
L223.527 204.487
L225.122 204.506
L226.716 204.717
L239.47 205.541
L242.658 205.717
L245.847 205.719
L249.035 206.096
L263.383 206.93
L268.166 207.511
L279.325 208.547
L292.079 208.44
L295.268 208.704
L296.862 208.872
L298.456 208.883
L300.05 209.252
L301.645 209.468
L304.833 209.496
L309.616 209.832
L314.399 210.232
L317.587 210.248
L320.775 210.126
L325.558 210.571
L328.747 210.527
L331.935 210.636
L333.529 210.763
L336.718 210.757
L339.906 210.885
L343.095 211.004
L344.689 211.363
L347.877 211.78
L351.066 212.054
L354.254 212.188
L355.849 212.112
L359.037 212.126
L362.226 212.212
L367.008 212.456
L368.602 212.339
L368.602 212.339" style="fill:none;stroke:#0000ff;stroke-linecap:square;"/>
   </g>
   <g id="line2d_6">
    <path clip-path="url(#p740331fdaf)" d="
M54.5386 116.255
L56.1328 61.9359
L57.7271 42.4595
L59.3213 34.7458
L60.9155 36.687
L62.5098 43.3824
L65.6982 61.4519
L67.2925 69.4419
L68.8867 76.1112
L72.0752 87.2692
L73.6694 92.0102
L75.2636 96.2398
L76.8579 99.7251
L83.2348 111.367
L84.829 113.807
L86.4233 115.955
L88.0175 117.894
L92.8002 122.639
L94.3944 123.828
L95.9887 124.824
L99.1771 127.589
L100.771 128.719
L108.743 133.544
L111.931 135.188
L121.496 138.63
L124.685 139.976
L127.873 141.008
L129.468 141.62
L131.062 142.071
L134.25 142.8
L142.221 144.997
L147.004 146.383
L150.193 147.08
L151.787 147.447
L156.57 148.13
L166.135 149.476
L167.729 149.575
L174.106 150.533
L177.295 151.06
L178.889 151.205
L182.077 151.721
L188.454 152.196
L190.048 152.441
L198.02 152.927
L204.396 152.812
L207.585 152.706
L210.773 152.873
L213.962 152.947
L223.527 153.431
L225.122 153.621
L226.716 153.977
L228.31 154.202
L236.281 154.535
L242.658 154.648
L247.441 155.038
L253.818 155.123
L257.006 155.125
L263.383 155.419
L266.572 155.496
L269.76 155.664
L272.948 155.895
L277.731 155.977
L280.92 155.815
L285.702 155.887
L300.05 156.939
L312.804 156.429
L317.587 156.706
L322.37 156.968
L328.747 157.047
L331.935 157.122
L347.877 156.817
L360.631 156.759
L365.414 156.736
L368.602 156.893
L368.602 156.893" style="fill:none;stroke:#008000;stroke-linecap:square;"/>
   </g>
   <g id="line2d_7">
    <path clip-path="url(#p740331fdaf)" d="
M54.5386 187.77
L56.1328 180.368
L57.7271 183.691
L59.3213 190.071
L62.5098 204.984
L64.104 211.474
L67.2925 222.535
L68.8867 227.014
L70.4809 230.531
L72.0752 233.527
L73.6694 236.026
L75.2636 238.126
L78.4521 242.788
L80.0463 244.861
L81.6406 246.3
L83.2348 247.411
L86.4233 248.984
L88.0175 249.891
L91.206 251.865
L92.8002 252.659
L95.9887 253.294
L97.5829 253.352
L99.1771 253.608
L100.771 253.737
L103.96 254.515
L107.148 255.659
L111.931 256.724
L113.525 256.928
L116.714 256.92
L119.902 257.376
L140.627 260.01
L151.787 260.325
L153.381 260.649
L159.758 261.431
L175.7 262.509
L177.295 262.468
L186.86 262.947
L191.643 262.92
L198.02 263.46
L201.208 263.601
L237.875 264.317
L241.064 264.321
L247.441 264.597
L253.818 264.625
L258.6 264.947
L263.383 264.998
L271.354 265.354
L285.702 265.45
L288.891 265.558
L292.079 265.473
L296.862 265.539
L303.239 265.351
L308.022 265.257
L319.181 265.649
L328.747 265.994
L335.124 266.038
L368.602 266.311
L368.602 266.311" style="fill:none;stroke:#000000;stroke-linecap:square;"/>
   </g>
   <g id="line2d_8">
    <path clip-path="url(#p740331fdaf)" d="
M54.5386 194.095
L56.1328 194.939
L57.7271 206.304
L60.9155 223.908
L62.5098 229.416
L64.104 233.606
L65.6982 240.697
L67.2925 245.357
L68.8867 248.449
L70.4809 251.254
L72.0752 252.137
L73.6694 252.769
L75.2636 254.554
L76.8579 255.56
L80.0463 256.791
L83.2348 258.497
L84.829 259.105
L86.4233 260.308
L88.0175 260.843
L89.6117 261.208
L92.8002 261.29
L94.3944 261.797
L95.9887 262.162
L97.5829 262.057
L99.1771 262.391
L102.366 262.564
L103.96 262.891
L105.554 263.354
L107.148 263.219
L108.743 263.305
L110.337 263.525
L111.931 264.073
L113.525 264.459
L115.119 264.431
L116.714 264.689
L118.308 264.748
L121.496 264.642
L123.091 265.036
L126.279 265.251
L127.873 265.023
L129.468 265.235
L131.062 265.258
L132.656 265.074
L134.25 265.056
L135.844 265.241
L137.439 265.542
L140.627 265.782
L143.816 266.023
L145.41 266.145
L147.004 266.493
L148.598 266.398
L150.193 266.151
L151.787 266.142
L154.975 266.569
L156.57 266.59
L158.164 266.449
L159.758 266.524
L162.946 266.406
L164.541 266.154
L167.729 266.012
L169.323 266.356
L170.918 266.524
L180.483 266.641
L185.266 266.397
L188.454 266.889
L194.831 267.182
L196.425 266.988
L205.991 266.856
L212.368 267.268
L220.339 267.208
L221.933 267.412
L223.527 267.501
L228.31 267.41
L229.904 267.459
L231.498 267.317
L236.281 267.423
L237.875 267.289
L245.847 267.614
L249.035 267.374
L252.223 267.453
L253.818 267.588
L255.412 267.591
L257.006 267.716
L258.6 267.618
L260.195 267.714
L263.383 267.602
L274.543 267.639
L276.137 267.783
L284.108 267.883
L285.702 267.747
L288.891 268.036
L292.079 267.899
L296.862 267.967
L298.456 267.879
L301.645 268.046
L306.427 267.947
L309.616 268.059
L312.804 268.043
L314.399 267.976
L322.37 268.19
L336.718 268.196
L344.689 268.331
L349.472 268.279
L351.066 268.356
L352.66 268.307
L357.443 268.502
L363.82 268.382
L367.008 268.459
L368.602 268.431
L368.602 268.431" style="fill:none;stroke:#bfbf00;stroke-linecap:square;"/>
   </g>
   <g id="line2d_9">
    <path clip-path="url(#p740331fdaf)" d="
M54.5386 170.605
L56.1328 152.016
L57.7271 157.022
L59.3213 165.16
L60.9155 173.949
L62.5098 184.866
L64.104 193.626
L67.2925 207.785
L68.8867 213.432
L70.4809 217.431
L72.0752 220.979
L73.6694 224.077
L75.2636 226.89
L76.8579 229.109
L78.4521 231.701
L80.0463 233.987
L81.6406 235.762
L86.4233 239.51
L91.206 242.688
L92.8002 243.533
L94.3944 244.011
L95.9887 244.747
L100.771 246.047
L103.96 247.458
L107.148 248.982
L108.743 249.328
L111.931 249.766
L113.525 250.152
L121.496 250.916
L124.685 251.338
L127.873 251.936
L134.25 252.966
L135.844 253.325
L139.033 254.449
L142.221 254.72
L145.41 255.281
L150.193 255.664
L156.57 256.598
L169.323 257.015
L178.889 258.239
L182.077 258.521
L186.86 258.694
L190.048 258.42
L201.208 259.422
L204.396 259.527
L205.991 259.467
L210.773 259.575
L213.962 259.705
L217.15 259.812
L218.745 259.738
L236.281 260.384
L237.875 260.371
L242.658 260.572
L247.441 260.645
L249.035 260.664
L250.629 260.567
L253.818 260.779
L258.6 261.107
L266.572 261.302
L269.76 261.347
L284.108 262.205
L293.674 262.43
L303.239 262.27
L306.427 262.259
L314.399 262.57
L315.993 262.602
L319.181 262.489
L328.747 262.708
L333.529 262.739
L339.906 262.744
L347.877 262.813
L349.472 262.818
L354.254 263.105
L367.008 263.25
L368.602 263.352
L368.602 263.352" style="fill:none;stroke:#bf00bf;stroke-linecap:square;"/>
   </g>
   <g id="line2d_10">
    <path clip-path="url(#p740331fdaf)" d="
M54.5386 144.032
L56.1328 107.318
L57.7271 98.2354
L59.3213 99.8134
L60.9155 107.693
L62.5098 117.874
L64.104 129.346
L65.6982 139.191
L68.8867 156.286
L70.4809 163.001
L72.0752 168.193
L76.8579 181.492
L78.4521 185.131
L80.0463 188.367
L81.6406 190.729
L83.2348 192.634
L86.4233 195.953
L88.0175 198.13
L91.206 201.41
L94.3944 203.835
L97.5829 205.896
L99.1771 207.316
L100.771 208.407
L102.366 209.314
L105.554 211.567
L108.743 213.405
L110.337 213.946
L113.525 214.826
L119.902 216.999
L121.496 217.384
L123.091 217.624
L124.685 218.098
L127.873 218.855
L131.062 219.857
L135.844 221.233
L139.033 222.54
L140.627 222.998
L148.598 224.776
L153.381 225.875
L156.57 226.264
L158.164 226.665
L161.352 227.024
L164.541 227.335
L167.729 228.008
L172.512 228.403
L174.106 228.722
L183.671 229.794
L186.86 229.8
L190.048 229.805
L191.643 229.955
L194.831 230.707
L196.425 230.798
L207.585 232.422
L210.773 232.448
L215.556 232.127
L221.933 232.522
L223.527 232.767
L229.904 233.028
L234.687 233.309
L239.47 233.716
L244.252 234.05
L245.847 234.318
L249.035 234.555
L250.629 234.6
L252.223 234.777
L255.412 235.267
L260.195 235.636
L264.977 236.072
L269.76 236.096
L276.137 236.564
L279.325 237.008
L282.514 237.224
L285.702 237.276
L288.891 237.162
L290.485 237.015
L293.674 237.225
L296.862 237.506
L304.833 237.772
L308.022 237.926
L312.804 237.876
L317.587 237.703
L322.37 237.789
L327.152 238.15
L330.341 238.245
L335.124 238.527
L338.312 238.471
L344.689 238.507
L352.66 238.845
L355.849 239.096
L360.631 239.151
L363.82 238.889
L368.602 238.922
L368.602 238.922" style="fill:none;stroke:#00bfbf;stroke-linecap:square;"/>
   </g>
   <g id="line2d_11">
    <path clip-path="url(#p740331fdaf)" d="
M54.5386 132.417
L56.1328 87.6362
L57.7271 74.3832
L59.3213 71.32
L60.9155 76.2086
L62.5098 85.5471
L65.6982 106.656
L67.2925 115.938
L68.8867 123.779
L70.4809 130.744
L72.0752 136.917
L73.6694 141.842
L75.2636 146.089
L76.8579 150.654
L78.4521 154.741
L80.0463 158.32
L81.6406 161.286
L83.2348 163.797
L84.829 165.472
L88.0175 169.773
L92.8002 176.08
L97.5829 181.084
L99.1771 182.324
L111.931 189.882
L115.119 191.267
L121.496 193.062
L126.279 195.143
L135.844 197.861
L139.033 199.253
L153.381 203.264
L156.57 203.754
L159.758 204.518
L164.541 204.939
L169.323 206.082
L172.512 206.434
L175.7 206.856
L178.889 207.464
L182.077 208.138
L185.266 208.448
L186.86 208.53
L188.454 208.446
L190.048 208.477
L191.643 208.652
L198.02 209.844
L204.396 210.745
L209.179 211.663
L210.773 211.657
L212.368 211.472
L217.15 211.532
L220.339 211.368
L221.933 211.409
L228.31 212.022
L229.904 212.139
L231.498 212.135
L237.875 212.943
L244.252 213.278
L250.629 213.767
L252.223 213.883
L255.412 214.336
L260.195 214.926
L263.383 215.376
L274.543 215.92
L277.731 215.947
L292.079 216.046
L296.862 216.629
L300.05 216.857
L303.239 217.153
L306.427 217.11
L312.804 217.042
L325.558 217.305
L343.095 218.112
L346.283 218.124
L349.472 218.253
L355.849 218.324
L362.226 218.122
L368.602 218.106
L368.602 218.106" style="fill:none;stroke:#0000ff;stroke-linecap:square;"/>
   </g>
   <g id="line2d_12">
    <path clip-path="url(#p740331fdaf)" d="
M54.5386 114.791
L56.1328 59.2211
L57.7271 38.6133
L59.3213 30.0383
L60.9155 31.8348
L62.5098 37.3894
L64.104 44.3213
L65.6982 51.9099
L68.8867 68.0312
L70.4809 72.8218
L76.8579 89.0244
L78.4521 91.7422
L80.0463 94.1414
L81.6406 95.9877
L83.2348 98.7203
L84.829 101.069
L86.4233 102.968
L89.6117 105.565
L91.206 106.694
L92.8002 108.724
L94.3944 109.666
L95.9887 111.777
L97.5829 113.648
L99.1771 115.155
L100.771 116.407
L102.366 117.441
L103.96 118.759
L105.554 119.66
L107.148 120.759
L108.743 121.58
L110.337 123.241
L111.931 124.225
L113.525 125.767
L115.119 126.718
L116.714 127.126
L118.308 127.221
L121.496 128.928
L123.091 129.293
L124.685 130.096
L127.873 130.564
L129.468 131.004
L132.656 131.543
L134.25 132.164
L135.844 132.595
L137.439 133.429
L139.033 134.933
L140.627 136.233
L142.221 137.179
L143.816 137.577
L145.41 137.531
L147.004 138.249
L148.598 138.683
L150.193 138.837
L151.787 138.711
L156.57 138.893
L158.164 139.164
L159.758 139.239
L162.946 141.231
L166.135 142.863
L169.323 143.237
L172.512 144.066
L174.106 143.893
L177.295 143.251
L178.889 143.258
L180.483 143.76
L182.077 144.136
L183.671 144.763
L185.266 145.151
L188.454 144.754
L190.048 144.992
L191.643 145.035
L193.237 144.937
L196.425 144.57
L198.02 144.392
L201.208 144.431
L205.991 145.328
L209.179 146.277
L213.962 148.442
L215.556 148.867
L217.15 149.034
L218.745 148.993
L220.339 149.599
L223.527 151.082
L228.31 152.217
L229.904 151.892
L231.498 151.8
L236.281 152.679
L245.847 152.274
L247.441 151.362
L249.035 150.833
L250.629 150.8
L252.223 150.624
L253.818 150.635
L255.412 151.114
L257.006 151.235
L258.6 151.077
L263.383 151.173
L264.977 150.739
L266.572 150.631
L268.166 150.808
L269.76 150.651
L271.354 150.346
L274.543 150.663
L279.325 151.436
L284.108 151.471
L287.297 150.654
L290.485 149.691
L292.079 149.547
L295.268 148.916
L296.862 149.128
L298.456 149.522
L304.833 150.449
L308.022 150.826
L312.804 151.732
L314.399 151.569
L315.993 151.681
L320.775 153.215
L323.964 153.506
L327.152 153.645
L333.529 151.878
L335.124 151.54
L336.718 151.346
L338.312 151.393
L341.501 151.67
L343.095 151.549
L344.689 151.23
L349.472 151.325
L351.066 151.044
L354.254 151
L355.849 150.817
L357.443 150.833
L360.631 151.343
L362.226 151.624
L367.008 151.278
L368.602 151.378
L368.602 151.378" style="fill:none;stroke:#008000;stroke-linecap:square;"/>
   </g>
   <g id="matplotlib.axis_1">
    <g id="xtick_1">
     <g id="line2d_13">
      <defs>
       <path d="
M0 0
L0 -4" id="m93b0483c22" style="stroke:#000000;stroke-width:0.5;"/>
      </defs>
      <g>
       <use style="stroke:#000000;stroke-width:0.5;" x="52.944375" xlink:href="#m93b0483c22" y="269.998892857"/>
      </g>
     </g>
     <g id="line2d_14">
      <defs>
       <path d="
M0 0
L0 4" id="m741efc42ff" style="stroke:#000000;stroke-width:0.5;"/>
      </defs>
      <g>
       <use style="stroke:#000000;stroke-width:0.5;" x="52.944375" xlink:href="#m741efc42ff" y="23.14175"/>
      </g>
     </g>
     <g id="text_1">
      <text style="font-family:DejaVu Sans;font-size:12.0px;font-style:normal;text-anchor:middle;" transform="rotate(-0.000000, 52.944375, 283.117018)" x="52.944375" y="283.117017857">0</text>
     </g>
    </g>
    <g id="xtick_2">
     <g id="line2d_15">
      <g>
       <use style="stroke:#000000;stroke-width:0.5;" x="116.715803571" xlink:href="#m93b0483c22" y="269.998892857"/>
      </g>
     </g>
     <g id="line2d_16">
      <g>
       <use style="stroke:#000000;stroke-width:0.5;" x="116.715803571" xlink:href="#m741efc42ff" y="23.14175"/>
      </g>
     </g>
     <g id="text_2">
      <text style="font-family:DejaVu Sans;font-size:12.0px;font-style:normal;text-anchor:middle;" transform="rotate(-0.000000, 116.715804, 283.117018)" x="116.715803571" y="283.117017857">2</text>
     </g>
    </g>
    <g id="xtick_3">
     <g id="line2d_17">
      <g>
       <use style="stroke:#000000;stroke-width:0.5;" x="180.487232143" xlink:href="#m93b0483c22" y="269.998892857"/>
      </g>
     </g>
     <g id="line2d_18">
      <g>
       <use style="stroke:#000000;stroke-width:0.5;" x="180.487232143" xlink:href="#m741efc42ff" y="23.14175"/>
      </g>
     </g>
     <g id="text_3">
      <text style="font-family:DejaVu Sans;font-size:12.0px;font-style:normal;text-anchor:middle;" transform="rotate(-0.000000, 180.487232, 283.117018)" x="180.487232143" y="283.117017857">4</text>
     </g>
    </g>
    <g id="xtick_4">
     <g id="line2d_19">
      <g>
       <use style="stroke:#000000;stroke-width:0.5;" x="244.258660714" xlink:href="#m93b0483c22" y="269.998892857"/>
      </g>
     </g>
     <g id="line2d_20">
      <g>
       <use style="stroke:#000000;stroke-width:0.5;" x="244.258660714" xlink:href="#m741efc42ff" y="23.14175"/>
      </g>
     </g>
     <g id="text_4">
      <text style="font-family:DejaVu Sans;font-size:12.0px;font-style:normal;text-anchor:middle;" transform="rotate(-0.000000, 244.258661, 283.117018)" x="244.258660714" y="283.117017857">6</text>
     </g>
    </g>
    <g id="xtick_5">
     <g id="line2d_21">
      <g>
       <use style="stroke:#000000;stroke-width:0.5;" x="308.030089286" xlink:href="#m93b0483c22" y="269.998892857"/>
      </g>
     </g>
     <g id="line2d_22">
      <g>
       <use style="stroke:#000000;stroke-width:0.5;" x="308.030089286" xlink:href="#m741efc42ff" y="23.14175"/>
      </g>
     </g>
     <g id="text_5">
      <text style="font-family:DejaVu Sans;font-size:12.0px;font-style:normal;text-anchor:middle;" transform="rotate(-0.000000, 308.030089, 283.117018)" x="308.030089286" y="283.117017857">8</text>
     </g>
    </g>
    <g id="xtick_6">
     <g id="line2d_23">
      <g>
       <use style="stroke:#000000;stroke-width:0.5;" x="371.801517857" xlink:href="#m93b0483c22" y="269.998892857"/>
      </g>
     </g>
     <g id="line2d_24">
      <g>
       <use style="stroke:#000000;stroke-width:0.5;" x="371.801517857" xlink:href="#m741efc42ff" y="23.14175"/>
      </g>
     </g>
     <g id="text_6">
      <text style="font-family:DejaVu Sans;font-size:12.0px;font-style:normal;text-anchor:middle;" transform="rotate(-0.000000, 371.801518, 283.117018)" x="371.801517857" y="283.117017857">10</text>
     </g>
    </g>
    <g id="text_7">
     <text style="font-family:DejaVu Sans;font-size:12.0px;font-style:normal;text-anchor:middle;" transform="rotate(-0.000000, 212.372946, 299.730768)" x="212.372946429" y="299.730767857">$t$ [ps]</text>
    </g>
   </g>
   <g id="matplotlib.axis_2">
    <g id="ytick_1">
     <g id="line2d_25">
      <defs>
       <path d="
M0 0
L4 0" id="m728421d6d4" style="stroke:#000000;stroke-width:0.5;"/>
      </defs>
      <g>
       <use style="stroke:#000000;stroke-width:0.5;" x="52.944375" xlink:href="#m728421d6d4" y="269.998892857"/>
      </g>
     </g>
     <g id="line2d_26">
      <defs>
       <path d="
M0 0
L-4 0" id="mcb0005524f" style="stroke:#000000;stroke-width:0.5;"/>
      </defs>
      <g>
       <use style="stroke:#000000;stroke-width:0.5;" x="371.801517857" xlink:href="#mcb0005524f" y="269.998892857"/>
      </g>
     </g>
     <g id="text_8">
      <text style="font-family:DejaVu Sans;font-size:12.0px;font-style:normal;text-anchor:end;" transform="rotate(-0.000000, 48.944375, 273.310143)" x="48.944375" y="273.310142857">0.00</text>
     </g>
    </g>
    <g id="ytick_2">
     <g id="line2d_27">
      <g>
       <use style="stroke:#000000;stroke-width:0.5;" x="52.944375" xlink:href="#m728421d6d4" y="242.570321429"/>
      </g>
     </g>
     <g id="line2d_28">
      <g>
       <use style="stroke:#000000;stroke-width:0.5;" x="371.801517857" xlink:href="#mcb0005524f" y="242.570321429"/>
      </g>
     </g>
     <g id="text_9">
      <text style="font-family:DejaVu Sans;font-size:12.0px;font-style:normal;text-anchor:end;" transform="rotate(-0.000000, 48.944375, 245.881571)" x="48.944375" y="245.881571429">0.05</text>
     </g>
    </g>
    <g id="ytick_3">
     <g id="line2d_29">
      <g>
       <use style="stroke:#000000;stroke-width:0.5;" x="52.944375" xlink:href="#m728421d6d4" y="215.14175"/>
      </g>
     </g>
     <g id="line2d_30">
      <g>
       <use style="stroke:#000000;stroke-width:0.5;" x="371.801517857" xlink:href="#mcb0005524f" y="215.14175"/>
      </g>
     </g>
     <g id="text_10">
      <text style="font-family:DejaVu Sans;font-size:12.0px;font-style:normal;text-anchor:end;" transform="rotate(-0.000000, 48.944375, 218.453000)" x="48.944375" y="218.453">0.10</text>
     </g>
    </g>
    <g id="ytick_4">
     <g id="line2d_31">
      <g>
       <use style="stroke:#000000;stroke-width:0.5;" x="52.944375" xlink:href="#m728421d6d4" y="187.713178571"/>
      </g>
     </g>
     <g id="line2d_32">
      <g>
       <use style="stroke:#000000;stroke-width:0.5;" x="371.801517857" xlink:href="#mcb0005524f" y="187.713178571"/>
      </g>
     </g>
     <g id="text_11">
      <text style="font-family:DejaVu Sans;font-size:12.0px;font-style:normal;text-anchor:end;" transform="rotate(-0.000000, 48.944375, 191.024429)" x="48.944375" y="191.024428571">0.15</text>
     </g>
    </g>
    <g id="ytick_5">
     <g id="line2d_33">
      <g>
       <use style="stroke:#000000;stroke-width:0.5;" x="52.944375" xlink:href="#m728421d6d4" y="160.284607143"/>
      </g>
     </g>
     <g id="line2d_34">
      <g>
       <use style="stroke:#000000;stroke-width:0.5;" x="371.801517857" xlink:href="#mcb0005524f" y="160.284607143"/>
      </g>
     </g>
     <g id="text_12">
      <text style="font-family:DejaVu Sans;font-size:12.0px;font-style:normal;text-anchor:end;" transform="rotate(-0.000000, 48.944375, 163.595857)" x="48.944375" y="163.595857143">0.20</text>
     </g>
    </g>
    <g id="ytick_6">
     <g id="line2d_35">
      <g>
       <use style="stroke:#000000;stroke-width:0.5;" x="52.944375" xlink:href="#m728421d6d4" y="132.856035714"/>
      </g>
     </g>
     <g id="line2d_36">
      <g>
       <use style="stroke:#000000;stroke-width:0.5;" x="371.801517857" xlink:href="#mcb0005524f" y="132.856035714"/>
      </g>
     </g>
     <g id="text_13">
      <text style="font-family:DejaVu Sans;font-size:12.0px;font-style:normal;text-anchor:end;" transform="rotate(-0.000000, 48.944375, 136.167286)" x="48.944375" y="136.167285714">0.25</text>
     </g>
    </g>
    <g id="ytick_7">
     <g id="line2d_37">
      <g>
       <use style="stroke:#000000;stroke-width:0.5;" x="52.944375" xlink:href="#m728421d6d4" y="105.427464286"/>
      </g>
     </g>
     <g id="line2d_38">
      <g>
       <use style="stroke:#000000;stroke-width:0.5;" x="371.801517857" xlink:href="#mcb0005524f" y="105.427464286"/>
      </g>
     </g>
     <g id="text_14">
      <text style="font-family:DejaVu Sans;font-size:12.0px;font-style:normal;text-anchor:end;" transform="rotate(-0.000000, 48.944375, 108.738714)" x="48.944375" y="108.738714286">0.30</text>
     </g>
    </g>
    <g id="ytick_8">
     <g id="line2d_39">
      <g>
       <use style="stroke:#000000;stroke-width:0.5;" x="52.944375" xlink:href="#m728421d6d4" y="77.9988928571"/>
      </g>
     </g>
     <g id="line2d_40">
      <g>
       <use style="stroke:#000000;stroke-width:0.5;" x="371.801517857" xlink:href="#mcb0005524f" y="77.9988928571"/>
      </g>
     </g>
     <g id="text_15">
      <text style="font-family:DejaVu Sans;font-size:12.0px;font-style:normal;text-anchor:end;" transform="rotate(-0.000000, 48.944375, 81.310143)" x="48.944375" y="81.3101428571">0.35</text>
     </g>
    </g>
    <g id="ytick_9">
     <g id="line2d_41">
      <g>
       <use style="stroke:#000000;stroke-width:0.5;" x="52.944375" xlink:href="#m728421d6d4" y="50.5703214286"/>
      </g>
     </g>
     <g id="line2d_42">
      <g>
       <use style="stroke:#000000;stroke-width:0.5;" x="371.801517857" xlink:href="#mcb0005524f" y="50.5703214286"/>
      </g>
     </g>
     <g id="text_16">
      <text style="font-family:DejaVu Sans;font-size:12.0px;font-style:normal;text-anchor:end;" transform="rotate(-0.000000, 48.944375, 53.881571)" x="48.944375" y="53.8815714286">0.40</text>
     </g>
    </g>
    <g id="ytick_10">
     <g id="line2d_43">
      <g>
       <use style="stroke:#000000;stroke-width:0.5;" x="52.944375" xlink:href="#m728421d6d4" y="23.14175"/>
      </g>
     </g>
     <g id="line2d_44">
      <g>
       <use style="stroke:#000000;stroke-width:0.5;" x="371.801517857" xlink:href="#mcb0005524f" y="23.14175"/>
      </g>
     </g>
     <g id="text_17">
      <text style="font-family:DejaVu Sans;font-size:12.0px;font-style:normal;text-anchor:end;" transform="rotate(-0.000000, 48.944375, 26.453000)" x="48.944375" y="26.453">0.45</text>
     </g>
    </g>
    <g id="text_18">
     <text style="font-family:DejaVu Sans;font-size:12.0px;font-style:normal;text-anchor:middle;" transform="rotate(-90.000000, 16.318125, 146.570321)" x="16.318125" y="146.570321429">$r^2/6t$ [\AA$^2$/ps]</text>
    </g>
   </g>
   <g id="patch_3">
    <path d="
M52.9444 23.1417
L371.802 23.1417" style="fill:none;stroke:#000000;"/>
   </g>
   <g id="patch_4">
    <path d="
M371.802 269.999
L371.802 23.1417" style="fill:none;stroke:#000000;"/>
   </g>
   <g id="patch_5">
    <path d="
M52.9444 269.999
L371.802 269.999" style="fill:none;stroke:#000000;"/>
   </g>
   <g id="patch_6">
    <path d="
M52.9444 269.999
L52.9444 23.1417" style="fill:none;stroke:#000000;"/>
   </g>
   <g id="text_19">
    <text style="font-family:DejaVu Sans;font-size:14.4px;font-style:normal;text-anchor:middle;" transform="rotate(-0.000000, 212.372946, 18.141750)" x="212.372946429" y="18.14175">Diffusion $r^2(t)/6t$</text>
   </g>
   <g id="legend_1">
    <g id="line2d_45">
     <path d="
M248.103 36.2349
L262.097 36.2349" style="fill:none;stroke:#000000;stroke-linecap:square;"/>
    </g>
    <g id="line2d_46"/>
    <g id="text_20">
     <text style="font-family:DejaVu Sans;font-size:9.996px;font-style:normal;text-anchor:start;" transform="rotate(-0.000000, 273.092688, 39.733548)" x="273.092688214" y="39.733548125">{\footnotesize $R = [0.00, 0.50)$}</text>
    </g>
    <g id="line2d_47">
     <path d="
M248.103 50.9072
L262.097 50.9072" style="fill:none;stroke:#bfbf00;stroke-linecap:square;"/>
    </g>
    <g id="line2d_48"/>
    <g id="text_21">
     <text style="font-family:DejaVu Sans;font-size:9.996px;font-style:normal;text-anchor:start;" transform="rotate(-0.000000, 273.092688, 54.405802)" x="273.092688214" y="54.405801875">{\footnotesize $R = [2.50, 3.00)$}</text>
    </g>
    <g id="line2d_49">
     <path d="
M248.103 65.5795
L262.097 65.5795" style="fill:none;stroke:#bf00bf;stroke-linecap:square;"/>
    </g>
    <g id="line2d_50"/>
    <g id="text_22">
     <text style="font-family:DejaVu Sans;font-size:9.996px;font-style:normal;text-anchor:start;" transform="rotate(-0.000000, 273.092688, 69.078056)" x="273.092688214" y="69.078055625">{\footnotesize $R = [5.00, 5.50)$}</text>
    </g>
    <g id="line2d_51">
     <path d="
M248.103 80.2517
L262.097 80.2517" style="fill:none;stroke:#00bfbf;stroke-linecap:square;"/>
    </g>
    <g id="line2d_52"/>
    <g id="text_23">
     <text style="font-family:DejaVu Sans;font-size:9.996px;font-style:normal;text-anchor:start;" transform="rotate(-0.000000, 273.092688, 83.750309)" x="273.092688214" y="83.750309375">{\footnotesize $R = [7.50, 8.00)$}</text>
    </g>
    <g id="line2d_53">
     <path d="
M248.103 94.924
L262.097 94.924" style="fill:none;stroke:#0000ff;stroke-linecap:square;"/>
    </g>
    <g id="line2d_54"/>
    <g id="text_24">
     <text style="font-family:DejaVu Sans;font-size:9.996px;font-style:normal;text-anchor:start;" transform="rotate(-0.000000, 273.092688, 98.422563)" x="273.092688214" y="98.422563125">{\footnotesize $R = [10.00, 10.50)$}</text>
    </g>
    <g id="line2d_55">
     <path d="
M248.103 109.596
L262.097 109.596" style="fill:none;stroke:#008000;stroke-linecap:square;"/>
    </g>
    <g id="line2d_56"/>
    <g id="text_25">
     <text style="font-family:DejaVu Sans;font-size:9.996px;font-style:normal;text-anchor:start;" transform="rotate(-0.000000, 273.092688, 113.094817)" x="273.092688214" y="113.094816875">{\footnotesize Bulk}</text>
    </g>
   </g>
  </g>
 </g>
 <defs>
  <clipPath id="p740331fdaf">
   <rect height="246.857142857" width="318.857142857" x="52.944375" y="23.14175"/>
  </clipPath>
 </defs>
</svg>
