<?xml version="1.0" encoding="utf-8" standalone="no"?>
<!DOCTYPE svg PUBLIC "-//W3C//DTD SVG 1.1//EN"
  "http://www.w3.org/Graphics/SVG/1.1/DTD/svg11.dtd">
<!-- Created with matplotlib (http://matplotlib.org/) -->
<svg height="309pt" version="1.1" viewBox="0 0 385 309" width="385pt" xmlns="http://www.w3.org/2000/svg" xmlns:xlink="http://www.w3.org/1999/xlink">
 <defs>
  <style type="text/css">
*{stroke-linecap:butt;stroke-linejoin:round;}
  </style>
 </defs>
 <g id="figure_1">
  <g id="patch_1">
   <path d="
M0 309.426
L385.579 309.426
L385.579 0
L0 0
z
" style="fill:#ffffff;"/>
  </g>
  <g id="axes_1">
   <g id="patch_2">
    <path d="
M52.9444 269.999
L371.802 269.999
L371.802 23.1417
L52.9444 23.1417
z
" style="fill:#ffffff;"/>
   </g>
   <g id="line2d_1">
    <path clip-path="url(#p740331fdaf)" d="
M52.9444 279.746
L64.3321 250.717
L75.7199 236.905
L87.1076 214.115
L98.4954 199.874
L109.883 177.87
L121.271 133.387
L132.659 77.4231
L144.046 115.695
L155.434 140.207
L166.822 132.325
L178.21 146.815
L189.597 121.055
L200.985 91.1381
L212.373 95.1359
L223.761 78.2124
L235.148 73.1194
L246.536 99.1717
L257.924 93.6879
L269.312 102.735
L280.699 101.991
L292.087 104.144
L303.475 89.287
L314.863 95.9595
L326.25 93.4198
L337.638 73.8973
L349.026 87.0081
L360.414 91.8664" style="fill:none;stroke:#0000ff;stroke-linecap:square;"/>
   </g>
   <g id="line2d_2">
    <path clip-path="url(#p740331fdaf)" d="
M52.9444 228.046
L64.3321 239.011
L75.7199 238.506
L87.1076 210.866
L98.4954 201.882
L109.883 165.755
L121.271 163.849
L132.659 99.7976
L144.046 98.4548
L155.434 117.978
L166.822 128.967
L178.21 125.397
L189.597 107.984
L200.985 86.4337
L212.373 63.567
L223.761 49.1286
L235.148 61.9703
L246.536 78.8687
L257.924 73.6567
L269.312 88.6568
L280.699 71.4676
L292.087 71.375
L303.475 56.0623
L314.863 87.2076
L326.25 57.4221
L337.638 69.2962
L349.026 64.9964
L360.414 73.4724" style="fill:none;stroke:#008000;stroke-linecap:square;"/>
   </g>
   <g id="line2d_3">
    <path clip-path="url(#p740331fdaf)" d="
M52.9444 269.351
L64.3321 245.282
L75.7199 226.047
L87.1076 213.215
L98.4954 201.494
L109.883 168.446
L121.271 147.47
L132.659 126.123
L144.046 113.878
L155.434 135.255
L166.822 145.249
L178.21 137.827
L189.597 135.821
L200.985 104.929
L212.373 72.4914
L223.761 66.7549
L235.148 78.107
L246.536 74.463
L257.924 98.8666
L269.312 104.377
L280.699 87.5025
L292.087 101.918
L303.475 71.2124
L314.863 60.3566
L326.25 68.3078
L337.638 73.3826
L349.026 76.4547
L360.414 92.3226" style="fill:none;stroke:#ff0000;stroke-dasharray:6.000000,6.000000;stroke-dashoffset:0.0;"/>
   </g>
   <g id="line2d_4">
    <path clip-path="url(#p740331fdaf)" d="
M52.9444 260.968
L64.3321 247.63
L75.7199 237.758
L87.1076 218.968
L98.4954 211.174
L109.883 177.886
L121.271 159.43
L132.659 144.087
L144.046 124.698
L155.434 171.036
L166.822 167.225
L178.21 165.457
L189.597 150.962
L200.985 147.504
L212.373 117.838
L223.761 115.385
L235.148 108.107
L246.536 127.532
L257.924 121.295
L269.312 130.693
L280.699 125.973
L292.087 126.921
L303.475 102.537
L314.863 106.591
L326.25 121.445
L337.638 94.0636
L349.026 103.409
L360.414 138.53" style="fill:none;stroke:#00bfbf;stroke-dasharray:6.000000,6.000000;stroke-dashoffset:0.0;"/>
   </g>
   <g id="matplotlib.axis_1">
    <g id="xtick_1">
     <g id="line2d_5">
      <defs>
       <path d="
M0 0
L0 -4" id="m93b0483c22" style="stroke:#000000;stroke-width:0.5;"/>
      </defs>
      <g>
       <use style="stroke:#000000;stroke-width:0.5;" x="52.944375" xlink:href="#m93b0483c22" y="269.998892857"/>
      </g>
     </g>
     <g id="line2d_6">
      <defs>
       <path d="
M0 0
L0 4" id="m741efc42ff" style="stroke:#000000;stroke-width:0.5;"/>
      </defs>
      <g>
       <use style="stroke:#000000;stroke-width:0.5;" x="52.944375" xlink:href="#m741efc42ff" y="23.14175"/>
      </g>
     </g>
     <g id="text_1">
      <text style="font-family:DejaVu Sans;font-size:12.0px;font-style:normal;text-anchor:middle;" transform="rotate(-0.000000, 52.944375, 283.117018)" x="52.944375" y="283.117017857">3</text>
     </g>
    </g>
    <g id="xtick_2">
     <g id="line2d_7">
      <g>
       <use style="stroke:#000000;stroke-width:0.5;" x="98.4953954082" xlink:href="#m93b0483c22" y="269.998892857"/>
      </g>
     </g>
     <g id="line2d_8">
      <g>
       <use style="stroke:#000000;stroke-width:0.5;" x="98.4953954082" xlink:href="#m741efc42ff" y="23.14175"/>
      </g>
     </g>
     <g id="text_2">
      <text style="font-family:DejaVu Sans;font-size:12.0px;font-style:normal;text-anchor:middle;" transform="rotate(-0.000000, 98.495395, 283.117018)" x="98.4953954082" y="283.117017857">4</text>
     </g>
    </g>
    <g id="xtick_3">
     <g id="line2d_9">
      <g>
       <use style="stroke:#000000;stroke-width:0.5;" x="144.046415816" xlink:href="#m93b0483c22" y="269.998892857"/>
      </g>
     </g>
     <g id="line2d_10">
      <g>
       <use style="stroke:#000000;stroke-width:0.5;" x="144.046415816" xlink:href="#m741efc42ff" y="23.14175"/>
      </g>
     </g>
     <g id="text_3">
      <text style="font-family:DejaVu Sans;font-size:12.0px;font-style:normal;text-anchor:middle;" transform="rotate(-0.000000, 144.046416, 283.117018)" x="144.046415816" y="283.117017857">5</text>
     </g>
    </g>
    <g id="xtick_4">
     <g id="line2d_11">
      <g>
       <use style="stroke:#000000;stroke-width:0.5;" x="189.597436224" xlink:href="#m93b0483c22" y="269.998892857"/>
      </g>
     </g>
     <g id="line2d_12">
      <g>
       <use style="stroke:#000000;stroke-width:0.5;" x="189.597436224" xlink:href="#m741efc42ff" y="23.14175"/>
      </g>
     </g>
     <g id="text_4">
      <text style="font-family:DejaVu Sans;font-size:12.0px;font-style:normal;text-anchor:middle;" transform="rotate(-0.000000, 189.597436, 283.117018)" x="189.597436224" y="283.117017857">6</text>
     </g>
    </g>
    <g id="xtick_5">
     <g id="line2d_13">
      <g>
       <use style="stroke:#000000;stroke-width:0.5;" x="235.148456633" xlink:href="#m93b0483c22" y="269.998892857"/>
      </g>
     </g>
     <g id="line2d_14">
      <g>
       <use style="stroke:#000000;stroke-width:0.5;" x="235.148456633" xlink:href="#m741efc42ff" y="23.14175"/>
      </g>
     </g>
     <g id="text_5">
      <text style="font-family:DejaVu Sans;font-size:12.0px;font-style:normal;text-anchor:middle;" transform="rotate(-0.000000, 235.148457, 283.117018)" x="235.148456633" y="283.117017857">7</text>
     </g>
    </g>
    <g id="xtick_6">
     <g id="line2d_15">
      <g>
       <use style="stroke:#000000;stroke-width:0.5;" x="280.699477041" xlink:href="#m93b0483c22" y="269.998892857"/>
      </g>
     </g>
     <g id="line2d_16">
      <g>
       <use style="stroke:#000000;stroke-width:0.5;" x="280.699477041" xlink:href="#m741efc42ff" y="23.14175"/>
      </g>
     </g>
     <g id="text_6">
      <text style="font-family:DejaVu Sans;font-size:12.0px;font-style:normal;text-anchor:middle;" transform="rotate(-0.000000, 280.699477, 283.117018)" x="280.699477041" y="283.117017857">8</text>
     </g>
    </g>
    <g id="xtick_7">
     <g id="line2d_17">
      <g>
       <use style="stroke:#000000;stroke-width:0.5;" x="326.250497449" xlink:href="#m93b0483c22" y="269.998892857"/>
      </g>
     </g>
     <g id="line2d_18">
      <g>
       <use style="stroke:#000000;stroke-width:0.5;" x="326.250497449" xlink:href="#m741efc42ff" y="23.14175"/>
      </g>
     </g>
     <g id="text_7">
      <text style="font-family:DejaVu Sans;font-size:12.0px;font-style:normal;text-anchor:middle;" transform="rotate(-0.000000, 326.250497, 283.117018)" x="326.250497449" y="283.117017857">9</text>
     </g>
    </g>
    <g id="xtick_8">
     <g id="line2d_19">
      <g>
       <use style="stroke:#000000;stroke-width:0.5;" x="371.801517857" xlink:href="#m93b0483c22" y="269.998892857"/>
      </g>
     </g>
     <g id="line2d_20">
      <g>
       <use style="stroke:#000000;stroke-width:0.5;" x="371.801517857" xlink:href="#m741efc42ff" y="23.14175"/>
      </g>
     </g>
     <g id="text_8">
      <text style="font-family:DejaVu Sans;font-size:12.0px;font-style:normal;text-anchor:middle;" transform="rotate(-0.000000, 371.801518, 283.117018)" x="371.801517857" y="283.117017857">10</text>
     </g>
    </g>
    <g id="text_9">
     <text style="font-family:DejaVu Sans;font-size:12.0px;font-style:normal;text-anchor:middle;" transform="rotate(-0.000000, 212.372946, 299.730768)" x="212.372946429" y="299.730767857">$r\text{ [\AA]}$</text>
    </g>
   </g>
   <g id="matplotlib.axis_2">
    <g id="ytick_1">
     <g id="line2d_21">
      <defs>
       <path d="
M0 0
L4 0" id="m728421d6d4" style="stroke:#000000;stroke-width:0.5;"/>
      </defs>
      <g>
       <use style="stroke:#000000;stroke-width:0.5;" x="52.944375" xlink:href="#m728421d6d4" y="269.998892857"/>
      </g>
     </g>
     <g id="line2d_22">
      <defs>
       <path d="
M0 0
L-4 0" id="mcb0005524f" style="stroke:#000000;stroke-width:0.5;"/>
      </defs>
      <g>
       <use style="stroke:#000000;stroke-width:0.5;" x="371.801517857" xlink:href="#mcb0005524f" y="269.998892857"/>
      </g>
     </g>
     <g id="text_10">
      <text style="font-family:DejaVu Sans;font-size:12.0px;font-style:normal;text-anchor:end;" transform="rotate(-0.000000, 48.944375, 273.310143)" x="48.944375" y="273.310142857">0.00</text>
     </g>
    </g>
    <g id="ytick_2">
     <g id="line2d_23">
      <g>
       <use style="stroke:#000000;stroke-width:0.5;" x="52.944375" xlink:href="#m728421d6d4" y="220.627464286"/>
      </g>
     </g>
     <g id="line2d_24">
      <g>
       <use style="stroke:#000000;stroke-width:0.5;" x="371.801517857" xlink:href="#mcb0005524f" y="220.627464286"/>
      </g>
     </g>
     <g id="text_11">
      <text style="font-family:DejaVu Sans;font-size:12.0px;font-style:normal;text-anchor:end;" transform="rotate(-0.000000, 48.944375, 223.938714)" x="48.944375" y="223.938714286">0.05</text>
     </g>
    </g>
    <g id="ytick_3">
     <g id="line2d_25">
      <g>
       <use style="stroke:#000000;stroke-width:0.5;" x="52.944375" xlink:href="#m728421d6d4" y="171.256035714"/>
      </g>
     </g>
     <g id="line2d_26">
      <g>
       <use style="stroke:#000000;stroke-width:0.5;" x="371.801517857" xlink:href="#mcb0005524f" y="171.256035714"/>
      </g>
     </g>
     <g id="text_12">
      <text style="font-family:DejaVu Sans;font-size:12.0px;font-style:normal;text-anchor:end;" transform="rotate(-0.000000, 48.944375, 174.567286)" x="48.944375" y="174.567285714">0.10</text>
     </g>
    </g>
    <g id="ytick_4">
     <g id="line2d_27">
      <g>
       <use style="stroke:#000000;stroke-width:0.5;" x="52.944375" xlink:href="#m728421d6d4" y="121.884607143"/>
      </g>
     </g>
     <g id="line2d_28">
      <g>
       <use style="stroke:#000000;stroke-width:0.5;" x="371.801517857" xlink:href="#mcb0005524f" y="121.884607143"/>
      </g>
     </g>
     <g id="text_13">
      <text style="font-family:DejaVu Sans;font-size:12.0px;font-style:normal;text-anchor:end;" transform="rotate(-0.000000, 48.944375, 125.195857)" x="48.944375" y="125.195857143">0.15</text>
     </g>
    </g>
    <g id="ytick_5">
     <g id="line2d_29">
      <g>
       <use style="stroke:#000000;stroke-width:0.5;" x="52.944375" xlink:href="#m728421d6d4" y="72.5131785714"/>
      </g>
     </g>
     <g id="line2d_30">
      <g>
       <use style="stroke:#000000;stroke-width:0.5;" x="371.801517857" xlink:href="#mcb0005524f" y="72.5131785714"/>
      </g>
     </g>
     <g id="text_14">
      <text style="font-family:DejaVu Sans;font-size:12.0px;font-style:normal;text-anchor:end;" transform="rotate(-0.000000, 48.944375, 75.824429)" x="48.944375" y="75.8244285714">0.20</text>
     </g>
    </g>
    <g id="ytick_6">
     <g id="line2d_31">
      <g>
       <use style="stroke:#000000;stroke-width:0.5;" x="52.944375" xlink:href="#m728421d6d4" y="23.14175"/>
      </g>
     </g>
     <g id="line2d_32">
      <g>
       <use style="stroke:#000000;stroke-width:0.5;" x="371.801517857" xlink:href="#mcb0005524f" y="23.14175"/>
      </g>
     </g>
     <g id="text_15">
      <text style="font-family:DejaVu Sans;font-size:12.0px;font-style:normal;text-anchor:end;" transform="rotate(-0.000000, 48.944375, 26.453000)" x="48.944375" y="26.453">0.25</text>
     </g>
    </g>
    <g id="text_16">
     <text style="font-family:DejaVu Sans;font-size:12.0px;font-style:normal;text-anchor:middle;" transform="rotate(-90.000000, 16.318125, 146.570321)" x="16.318125" y="146.570321429">$D\text{ [\AA$^2$/ps]}$</text>
    </g>
   </g>
   <g id="patch_3">
    <path d="
M52.9444 23.1417
L371.802 23.1417" style="fill:none;stroke:#000000;"/>
   </g>
   <g id="patch_4">
    <path d="
M371.802 269.999
L371.802 23.1417" style="fill:none;stroke:#000000;"/>
   </g>
   <g id="patch_5">
    <path d="
M52.9444 269.999
L371.802 269.999" style="fill:none;stroke:#000000;"/>
   </g>
   <g id="patch_6">
    <path d="
M52.9444 269.999
L52.9444 23.1417" style="fill:none;stroke:#000000;"/>
   </g>
   <g id="text_17">
    <text style="font-family:DejaVu Sans;font-size:14.4px;font-style:normal;text-anchor:middle;" transform="rotate(-0.000000, 212.372946, 18.141750)" x="212.372946429" y="18.14175">Diffusion constant for water</text>
   </g>
   <g id="legend_1">
    <g id="patch_7">
     <path d="
M282.949 263.999
L363.402 263.999
Q365.802 263.999 365.802 261.599
L365.802 192.344
Q365.802 189.944 363.402 189.944
L282.949 189.944
Q280.549 189.944 280.549 192.344
L280.549 261.599
Q280.549 263.999 282.949 263.999
z
" style="fill:#ffffff;stroke:#000000;"/>
    </g>
    <g id="line2d_33">
     <path d="
M285.349 199.662
L303.349 199.662" style="fill:none;stroke:#0000ff;stroke-linecap:square;"/>
    </g>
    <g id="line2d_34"/>
    <g id="text_18">
     <text style="font-family:DejaVu Sans;font-size:12.0px;font-style:normal;text-anchor:start;" transform="rotate(-0.000000, 312.949018, 203.862018)" x="312.949017857" y="203.862017857">rough01</text>
    </g>
    <g id="line2d_35">
     <path d="
M285.349 217.276
L303.349 217.276" style="fill:none;stroke:#008000;stroke-linecap:square;"/>
    </g>
    <g id="line2d_36"/>
    <g id="text_19">
     <text style="font-family:DejaVu Sans;font-size:12.0px;font-style:normal;text-anchor:start;" transform="rotate(-0.000000, 312.949018, 221.475768)" x="312.949017857" y="221.475767857">rough03</text>
    </g>
    <g id="line2d_37">
     <path d="
M285.349 234.89
L303.349 234.89" style="fill:none;stroke:#ff0000;stroke-dasharray:6.000000,6.000000;stroke-dashoffset:0.0;"/>
    </g>
    <g id="line2d_38"/>
    <g id="text_20">
     <text style="font-family:DejaVu Sans;font-size:12.0px;font-style:normal;text-anchor:start;" transform="rotate(-0.000000, 312.949018, 239.089518)" x="312.949017857" y="239.089517857">flatsq02</text>
    </g>
    <g id="line2d_39">
     <path d="
M285.349 252.503
L303.349 252.503" style="fill:none;stroke:#00bfbf;stroke-dasharray:6.000000,6.000000;stroke-dashoffset:0.0;"/>
    </g>
    <g id="line2d_40"/>
    <g id="text_21">
     <text style="font-family:DejaVu Sans;font-size:12.0px;font-style:normal;text-anchor:start;" transform="rotate(-0.000000, 312.949018, 256.703268)" x="312.949017857" y="256.703267857">flatsq03</text>
    </g>
   </g>
  </g>
 </g>
 <defs>
  <clipPath id="p740331fdaf">
   <rect height="246.857142857" width="318.857142857" x="52.944375" y="23.14175"/>
  </clipPath>
 </defs>
</svg>
