<?xml version="1.0" encoding="utf-8" standalone="no"?>
<!DOCTYPE svg PUBLIC "-//W3C//DTD SVG 1.1//EN"
  "http://www.w3.org/Graphics/SVG/1.1/DTD/svg11.dtd">
<!-- Created with matplotlib (http://matplotlib.org/) -->
<svg height="278pt" version="1.1" viewBox="0 0 340 278" width="340pt" xmlns="http://www.w3.org/2000/svg" xmlns:xlink="http://www.w3.org/1999/xlink">
 <defs>
  <style type="text/css">
*{stroke-linecap:butt;stroke-linejoin:round;}
  </style>
 </defs>
 <g id="figure_1">
  <g id="patch_1">
   <path d="
M-5.55112e-17 278.569
L340.585 278.569
L340.585 0
L-5.55112e-17 0
z
" style="fill:#ffffff;"/>
  </g>
  <g id="axes_1">
   <g id="patch_2">
    <path d="
M45.4331 239.142
L324.433 239.142
L324.433 23.1418
L45.4331 23.1418
z
" style="fill:#ffffff;"/>
   </g>
   <g id="line2d_1">
    <path clip-path="url(#pc3a091a31f)" d="
M46.8281 163.878
L48.223 159.503
L49.618 163.684
L51.0129 172.005
L52.4079 182.823
L53.8028 190.862
L55.1978 197.749
L56.5928 203.439
L57.9877 207.651
L59.3827 211.202
L60.7776 213.764
L62.1726 215.926
L63.5675 217.819
L66.3574 221.037
L67.7524 221.674
L69.1473 222.737
L73.3322 224.335
L74.7272 224.344
L76.1221 224.954
L77.5171 225.428
L78.912 226.255
L83.0969 227.803
L84.4918 228.231
L85.8868 228.288
L87.2817 228.827
L88.6767 229.091
L90.0716 229.48
L91.4666 229.693
L94.2565 229.714
L98.4414 229.618
L101.231 229.778
L109.601 231.83
L110.996 232.009
L113.786 232.053
L116.576 231.977
L120.761 232.136
L122.156 232.118
L127.735 232.691
L130.525 232.675
L133.315 233.098
L141.685 233.381
L144.475 233.341
L147.265 233.626
L150.055 234.099
L152.845 234.378
L154.24 234.262
L169.584 234.667
L173.769 234.809
L175.164 234.762
L180.744 234.96
L183.534 234.969
L187.718 234.989
L193.298 235.112
L196.088 235.336
L198.878 235.344
L201.668 235.277
L205.853 235.331
L208.643 235.235
L223.987 235.853
L226.777 235.81
L230.962 235.801
L258.861 236.229
L261.651 236.217
L265.836 236.207
L271.416 236.222
L275.6 236.378
L285.365 236.464
L292.34 236.694
L296.525 236.623
L300.71 236.573
L304.895 236.659
L321.634 236.686
L321.634 236.686" style="fill:none;stroke:#000000;stroke-linecap:square;"/>
   </g>
   <g id="line2d_2">
    <path clip-path="url(#pc3a091a31f)" d="
M46.8281 174.164
L48.223 171.324
L49.618 172.086
L51.0129 181.037
L52.4079 193.958
L53.8028 203.566
L55.1978 207.808
L56.5928 211.288
L57.9877 216.665
L59.3827 220.094
L60.7776 222.082
L62.1726 223.87
L63.5675 225.058
L64.9625 225.874
L66.3574 226.353
L67.7524 226.362
L69.1473 226.996
L70.5423 228.113
L73.3322 229.227
L74.7272 229.395
L76.1221 230.262
L78.912 229.486
L80.307 230.226
L81.7019 230.413
L83.0969 230.349
L84.4918 230.72
L85.8868 230.465
L87.2817 231.174
L88.6767 231.554
L90.0716 232.463
L91.4666 232.812
L92.8615 232.986
L94.2565 233.037
L95.6515 232.863
L97.0464 233.201
L98.4414 233.996
L99.8363 234.566
L101.231 234.359
L102.626 234.267
L105.416 234.692
L108.206 234.377
L109.601 234.646
L112.391 234.802
L113.786 234.534
L115.181 234.394
L116.576 234.401
L119.366 235.335
L120.761 235.393
L124.945 235.106
L126.34 235.476
L129.13 235.444
L130.525 235.029
L134.71 235.747
L137.5 235.407
L140.29 235.534
L141.685 235.571
L144.475 235.226
L145.87 235.333
L147.265 235.966
L148.66 236.155
L150.055 236.1
L151.45 235.898
L155.634 236.007
L157.029 236.324
L162.609 236.279
L165.399 236.592
L172.374 236.405
L182.139 236.418
L184.928 236.343
L186.323 236.584
L187.718 236.69
L189.113 236.595
L190.508 236.756
L191.903 236.677
L193.298 236.816
L203.063 236.742
L204.458 236.912
L205.853 236.869
L207.248 236.943
L208.643 236.811
L214.223 236.831
L215.617 237.132
L218.407 237.227
L219.802 236.942
L225.382 237.415
L228.172 237.241
L229.567 237.136
L230.962 237.183
L232.357 237.363
L235.147 237.222
L236.542 237.403
L237.937 237.457
L239.332 237.283
L242.122 237.248
L246.306 237.122
L249.096 237.473
L250.491 237.591
L253.281 237.448
L256.071 237.375
L260.256 237.602
L263.046 237.615
L264.441 237.458
L270.021 237.746
L271.416 237.668
L272.811 237.471
L274.206 237.428
L276.995 237.545
L278.39 237.524
L281.18 237.624
L285.365 237.569
L292.34 237.812
L295.13 237.55
L304.895 237.909
L306.289 237.969
L309.079 237.709
L317.449 237.72
L321.634 238.03
L321.634 238.03" style="fill:none;stroke:#bfbf00;stroke-linecap:square;"/>
   </g>
   <g id="line2d_3">
    <path clip-path="url(#pc3a091a31f)" d="
M46.8281 145.457
L48.223 129.502
L49.618 132.269
L51.0129 144.632
L52.4079 158.523
L53.8028 168.981
L56.5928 186.737
L57.9877 192.19
L59.3827 196.445
L60.7776 199.133
L62.1726 201.218
L69.1473 209.287
L73.3322 212.603
L74.7272 213.167
L76.1221 214.186
L77.5171 215.049
L78.912 216.329
L80.307 217.217
L81.7019 217.832
L84.4918 218.697
L85.8868 218.782
L87.2817 219.36
L88.6767 219.613
L90.0716 220.1
L92.8615 220.546
L95.6515 220.519
L98.4414 221.309
L99.8363 221.701
L101.231 221.632
L102.626 221.449
L104.021 221.568
L105.416 221.887
L106.811 222.466
L109.601 223.195
L112.391 223.659
L115.181 223.262
L117.971 223.706
L119.366 223.897
L122.156 224.6
L124.945 225.171
L126.34 225.42
L127.735 225.51
L129.13 225.483
L130.525 225.581
L134.71 226.23
L136.105 226.283
L141.685 227.021
L144.475 226.838
L150.055 227.635
L154.24 227.77
L158.424 227.851
L161.214 228.028
L165.399 228.265
L166.794 228.327
L168.189 228.187
L172.374 228.562
L179.349 228.693
L182.139 228.94
L187.718 228.824
L189.113 228.726
L193.298 229.1
L196.088 229.542
L197.483 229.617
L200.273 229.543
L205.853 229.837
L208.643 229.738
L210.038 229.892
L214.223 229.958
L215.617 230.054
L217.012 230.006
L219.802 230.221
L225.382 230.052
L228.172 230.404
L233.752 230.489
L235.147 230.448
L239.332 231.094
L242.122 231.019
L244.911 230.759
L253.281 231.2
L256.071 231.445
L261.651 231.61
L263.046 231.69
L265.836 231.583
L268.626 231.61
L271.416 231.819
L274.206 231.822
L281.18 231.994
L283.97 231.92
L288.155 232.359
L289.55 232.509
L293.735 232.504
L299.315 232.263
L300.71 232.278
L303.5 232.579
L307.684 232.645
L309.079 232.573
L311.869 232.655
L316.054 232.645
L318.844 232.792
L321.634 232.676
L321.634 232.676" style="fill:none;stroke:#bf00bf;stroke-linecap:square;"/>
   </g>
   <g id="line2d_4">
    <path clip-path="url(#pc3a091a31f)" d="
M46.8281 119.105
L48.223 83.3762
L49.618 76.3495
L51.0129 81.9684
L52.4079 93.2147
L55.1978 117.174
L56.5928 126.632
L57.9877 133.632
L59.3827 139.61
L62.1726 149.288
L64.9625 157.904
L66.3574 160.746
L69.1473 165.451
L71.9372 168.585
L73.3322 169.938
L74.7272 171.533
L77.5171 175.189
L78.912 176.468
L80.307 178.012
L81.7019 179.154
L83.0969 179.788
L84.4918 180.74
L88.6767 183.089
L90.0716 184.428
L91.4666 185.486
L97.0464 187.871
L98.4414 188.209
L101.231 189.19
L102.626 189.674
L105.416 190.849
L106.811 191.283
L108.206 191.257
L109.601 191.115
L110.996 191.327
L113.786 192.209
L115.181 192.562
L117.971 192.97
L123.551 193.968
L131.92 196.627
L137.5 197.527
L138.895 197.617
L140.29 197.896
L141.685 198.492
L144.475 198.842
L145.87 199.398
L151.45 200.411
L152.845 200.393
L154.24 200.497
L155.634 200.732
L158.424 200.835
L161.214 200.875
L162.609 200.896
L169.584 201.896
L170.979 201.904
L177.954 202.589
L182.139 202.855
L183.534 203.035
L184.928 203.058
L186.323 202.865
L190.508 203.009
L191.903 203.088
L196.088 203.841
L198.878 203.723
L201.668 203.999
L205.853 204.403
L211.433 204.566
L214.223 204.583
L218.407 205.03
L219.802 205.157
L221.197 205.162
L229.567 205.77
L232.357 205.871
L240.727 206.547
L244.911 206.663
L254.676 206.775
L260.256 207.239
L261.651 207.582
L263.046 207.736
L267.231 207.505
L281.18 207.747
L283.97 208.153
L288.155 208.426
L290.945 208.665
L293.735 208.605
L296.525 208.671
L297.92 208.634
L300.71 208.89
L303.5 209.239
L307.684 209.558
L310.474 209.386
L313.264 209.599
L314.659 209.676
L317.449 210.03
L318.844 210.115
L321.634 209.923
L321.634 209.923" style="fill:none;stroke:#00bfbf;stroke-linecap:square;"/>
   </g>
   <g id="line2d_5">
    <path clip-path="url(#pc3a091a31f)" d="
M46.8281 109.008
L48.223 67.3464
L49.618 55.9747
L51.0129 56.4839
L52.4079 63.825
L53.8028 73.128
L56.5928 93.6481
L57.9877 101.568
L59.3827 108.252
L60.7776 113.779
L63.5675 122.594
L64.9625 126.616
L66.3574 129.743
L67.7524 132.398
L69.1473 134.681
L70.5423 136.715
L74.7272 143.46
L76.1221 145.457
L78.912 148.37
L81.7019 151.146
L83.0969 152.233
L85.8868 155.036
L87.2817 156.206
L88.6767 156.863
L91.4666 158.912
L92.8615 159.783
L94.2565 160.458
L95.6515 160.913
L98.4414 162.385
L99.8363 163.266
L101.231 163.998
L105.416 165.394
L109.601 166.191
L110.996 166.414
L113.786 167.395
L115.181 167.737
L116.576 167.882
L119.366 168.724
L120.761 169.158
L123.551 169.882
L126.34 170.856
L133.315 171.977
L134.71 172.335
L137.5 173.256
L138.895 173.69
L141.685 174.319
L144.475 174.514
L145.87 174.901
L150.055 175.792
L151.45 176.193
L152.845 176.262
L154.24 176.446
L155.634 176.838
L162.609 178.196
L165.399 178.99
L173.769 180.094
L175.164 180.368
L182.139 180.825
L183.534 181.003
L189.113 180.98
L191.903 181.203
L194.693 181.819
L196.088 181.835
L198.878 182.1
L203.063 182.323
L207.248 182.619
L211.433 182.896
L214.223 182.897
L217.012 183.226
L229.567 183.957
L235.147 184.596
L239.332 185.006
L242.122 185.31
L244.911 185.35
L256.071 185.365
L258.861 185.656
L260.256 185.665
L261.651 185.988
L263.046 186.177
L267.231 186.276
L274.206 186.846
L276.995 186.86
L279.785 186.753
L283.97 187.142
L299.315 187.521
L302.105 188.042
L306.289 188.44
L309.079 188.557
L311.869 188.534
L314.659 188.521
L317.449 188.682
L318.844 188.846
L321.634 188.689
L321.634 188.689" style="fill:none;stroke:#0000ff;stroke-linecap:square;"/>
   </g>
   <g id="line2d_6">
    <path clip-path="url(#pc3a091a31f)" d="
M46.8281 104.616
L48.223 57.0867
L49.618 40.0448
L51.0129 33.2953
L52.4079 34.9938
L53.8028 40.8523
L56.5928 56.6631
L57.9877 63.6544
L59.3827 69.49
L62.1726 79.2532
L63.5675 83.4017
L64.9625 87.1025
L66.3574 90.1522
L71.9372 100.339
L73.3322 102.474
L76.1221 106.05
L80.307 110.202
L81.7019 111.242
L83.0969 112.114
L87.2817 115.522
L94.2565 119.744
L97.0464 121.182
L105.416 124.194
L108.206 125.372
L110.996 126.275
L112.391 126.81
L115.181 127.493
L120.761 128.993
L126.34 130.584
L127.735 130.978
L136.105 132.507
L144.475 133.684
L147.265 133.956
L154.24 135.07
L157.029 135.426
L158.424 135.648
L164.004 136.064
L166.794 136.383
L172.374 136.704
L177.954 136.603
L180.744 136.51
L183.534 136.657
L186.323 136.721
L194.693 137.145
L196.088 137.311
L198.878 137.82
L205.853 138.111
L211.433 138.21
L217.012 138.59
L221.197 138.625
L223.987 138.627
L229.567 138.885
L233.752 138.987
L239.332 139.355
L240.727 139.427
L247.701 139.219
L251.886 139.487
L256.071 139.852
L261.651 140.214
L272.811 139.768
L278.39 140.098
L285.365 140.279
L290.945 140.341
L302.105 140.07
L307.684 140.15
L320.239 140.095
L321.634 140.174
L321.634 140.174" style="fill:none;stroke:#008000;stroke-linecap:square;"/>
   </g>
   <g id="line2d_7">
    <path clip-path="url(#pc3a091a31f)" d="
M46.8281 167.191
L48.223 160.715
L49.618 163.622
L51.0129 169.205
L53.8028 182.254
L55.1978 187.933
L57.9877 197.611
L59.3827 201.53
L60.7776 204.607
L62.1726 207.229
L63.5675 209.415
L64.9625 211.253
L67.7524 215.332
L69.1473 217.146
L70.5423 218.406
L71.9372 219.377
L76.1221 221.547
L78.912 223.274
L80.307 223.969
L83.0969 224.525
L84.4918 224.576
L88.6767 225.219
L90.0716 225.593
L92.8615 226.594
L97.0464 227.526
L98.4414 227.705
L101.231 227.698
L104.021 228.096
L122.156 230.402
L131.92 230.677
L134.71 231.141
L143.08 232.025
L145.87 232.151
L152.845 232.588
L155.634 232.628
L161.214 232.876
L162.609 232.972
L166.794 232.947
L173.769 233.513
L208.643 234.165
L211.433 234.254
L217.012 234.422
L221.197 234.44
L225.382 234.721
L230.962 234.841
L235.147 235.052
L240.727 235.058
L244.911 235.047
L253.281 235.204
L257.466 235.227
L260.256 235.178
L270.021 235.029
L285.365 235.584
L290.945 235.688
L296.525 235.684
L300.71 235.785
L310.474 235.805
L314.659 235.919
L320.239 235.887
L321.634 235.915
L321.634 235.915" style="fill:none;stroke:#000000;stroke-dasharray:6.000000,6.000000;stroke-dashoffset:0.0;"/>
   </g>
   <g id="line2d_8">
    <path clip-path="url(#pc3a091a31f)" d="
M46.8281 172.726
L48.223 173.464
L49.618 183.409
L52.4079 198.812
L53.8028 203.631
L55.1978 207.298
L56.5928 213.502
L57.9877 217.58
L59.3827 220.286
L60.7776 222.74
L62.1726 223.512
L63.5675 224.065
L64.9625 225.628
L66.3574 226.508
L69.1473 227.585
L71.9372 229.077
L73.3322 229.609
L74.7272 230.662
L76.1221 231.13
L77.5171 231.449
L80.307 231.521
L81.7019 231.965
L83.0969 232.285
L84.4918 232.193
L85.8868 232.485
L88.6767 232.636
L90.0716 232.922
L91.4666 233.328
L92.8615 233.21
L94.2565 233.285
L95.6515 233.477
L97.0464 233.957
L98.4414 234.294
L99.8363 234.27
L101.231 234.495
L104.021 234.491
L105.416 234.454
L106.811 234.799
L109.601 234.987
L110.996 234.788
L112.391 234.973
L113.786 234.993
L115.181 234.833
L116.576 234.817
L123.551 235.591
L126.34 235.77
L127.735 236.075
L129.13 235.991
L130.525 235.775
L131.92 235.767
L134.71 236.141
L136.105 236.159
L137.5 236.035
L138.895 236.102
L141.685 235.998
L143.08 235.777
L145.87 235.653
L147.265 235.954
L148.66 236.101
L157.029 236.204
L161.214 235.99
L164.004 236.421
L169.584 236.677
L170.979 236.508
L179.349 236.392
L184.928 236.752
L191.903 236.7
L194.693 236.956
L198.878 236.877
L200.273 236.919
L201.668 236.795
L205.853 236.888
L207.248 236.771
L214.223 237.055
L217.012 236.845
L219.802 236.914
L221.197 237.032
L239.332 237.077
L242.122 237.224
L243.517 237.303
L244.911 237.25
L247.701 237.29
L249.096 237.171
L251.886 237.425
L254.676 237.305
L258.861 237.363
L260.256 237.287
L263.046 237.433
L267.231 237.346
L270.021 237.445
L272.811 237.43
L274.206 237.372
L281.18 237.559
L296.525 237.597
L300.71 237.682
L304.895 237.637
L309.079 237.742
L316.054 237.755
L318.844 237.779
L321.634 237.77
L321.634 237.77" style="fill:none;stroke:#bfbf00;stroke-dasharray:6.000000,6.000000;stroke-dashoffset:0.0;"/>
   </g>
   <g id="line2d_9">
    <path clip-path="url(#pc3a091a31f)" d="
M46.8281 152.172
L48.223 135.907
L49.618 140.287
L52.4079 155.098
L53.8028 164.65
L55.1978 172.316
L57.9877 184.705
L59.3827 189.646
L60.7776 193.145
L62.1726 196.25
L63.5675 198.96
L64.9625 201.422
L66.3574 203.363
L67.7524 205.631
L69.1473 207.631
L70.5423 209.184
L74.7272 212.464
L80.307 215.984
L81.7019 216.402
L83.0969 217.046
L87.2817 218.184
L91.4666 220.083
L92.8615 220.752
L94.2565 221.054
L97.0464 221.438
L98.4414 221.776
L108.206 222.813
L110.996 223.337
L116.576 224.238
L117.971 224.552
L120.761 225.536
L123.551 225.772
L126.34 226.264
L130.525 226.599
L136.105 227.416
L147.265 227.781
L155.634 228.852
L158.424 229.098
L162.609 229.25
L165.399 229.01
L176.559 229.967
L186.323 230.134
L189.113 230.228
L190.508 230.163
L205.853 230.729
L208.643 230.806
L221.197 231.074
L228.172 231.536
L233.752 231.518
L237.937 231.705
L242.122 232.038
L250.491 232.444
L258.861 232.469
L263.046 232.386
L268.626 232.437
L275.6 232.669
L278.39 232.57
L288.155 232.795
L297.92 232.823
L303.5 232.855
L306.289 232.963
L311.869 233.174
L320.239 233.237
L321.634 233.326
L321.634 233.326" style="fill:none;stroke:#bf00bf;stroke-dasharray:6.000000,6.000000;stroke-dashoffset:0.0;"/>
   </g>
   <g id="line2d_10">
    <path clip-path="url(#pc3a091a31f)" d="
M46.8281 128.92
L48.223 96.7957
L49.618 88.8487
L51.0129 90.2295
L52.4079 97.1242
L53.8028 106.032
L55.1978 116.071
L56.5928 124.685
L59.3827 139.643
L60.7776 145.518
L62.1726 150.061
L66.3574 161.698
L67.7524 164.882
L69.1473 167.713
L70.5423 169.78
L71.9372 171.447
L74.7272 174.351
L76.1221 176.256
L78.912 179.126
L81.7019 181.248
L84.4918 183.051
L85.8868 184.294
L87.2817 185.249
L88.6767 186.042
L91.4666 188.014
L94.2565 189.622
L95.6515 190.095
L98.4414 190.866
L104.021 192.767
L105.416 193.104
L106.811 193.314
L109.601 194.03
L112.391 194.852
L119.366 197.032
L120.761 197.615
L123.551 198.312
L126.34 198.994
L129.13 199.571
L133.315 200.534
L136.105 200.874
L137.5 201.225
L140.29 201.538
L143.08 201.811
L145.87 202.399
L150.055 202.746
L151.45 203.024
L159.819 203.962
L162.609 203.968
L165.399 203.972
L166.794 204.103
L169.584 204.761
L170.979 204.841
L180.744 206.262
L184.928 206.198
L187.718 206.004
L212.828 207.686
L214.223 207.921
L221.197 208.584
L223.987 208.838
L228.172 209.217
L230.962 209.456
L235.147 209.477
L240.727 209.886
L243.517 210.275
L246.306 210.464
L249.096 210.509
L254.676 210.35
L260.256 210.742
L271.416 211.067
L279.785 210.884
L293.735 211.55
L304.895 211.657
L307.684 211.882
L310.474 212.101
L314.659 212.15
L317.449 211.921
L321.634 211.95
L321.634 211.95" style="fill:none;stroke:#00bfbf;stroke-dasharray:6.000000,6.000000;stroke-dashoffset:0.0;"/>
   </g>
   <g id="line2d_11">
    <path clip-path="url(#pc3a091a31f)" d="
M46.8281 118.758
L48.223 79.5744
L49.618 67.978
L51.0129 65.2977
L52.4079 69.5753
L53.8028 77.7464
L56.5928 96.2164
L57.9877 104.338
L59.3827 111.199
L60.7776 117.294
L62.1726 122.695
L63.5675 127.005
L67.7524 138.291
L69.1473 141.423
L70.5423 144.018
L71.9372 146.215
L73.3322 147.681
L76.1221 151.444
L80.307 156.963
L84.4918 161.341
L85.8868 162.426
L97.0464 169.039
L99.8363 170.252
L105.416 171.822
L109.601 173.643
L119.366 176.612
L120.761 177.239
L133.315 180.749
L136.105 181.178
L138.895 181.846
L143.08 182.214
L147.265 183.215
L150.055 183.523
L152.845 183.892
L155.634 184.424
L158.424 185.014
L161.214 185.285
L162.609 185.357
L165.399 185.31
L166.794 185.463
L173.769 186.689
L177.954 187.294
L182.139 188.098
L183.534 188.093
L184.928 187.93
L189.113 187.983
L191.903 187.839
L193.298 187.876
L198.878 188.412
L203.063 188.697
L205.853 189.146
L215.617 189.742
L225.382 190.756
L229.567 191.347
L239.332 191.822
L243.517 191.852
L250.491 191.921
L256.071 192.11
L257.466 192.349
L265.836 192.839
L268.626 192.835
L271.416 192.778
L286.76 193.166
L295.13 193.529
L299.315 193.74
L302.105 193.751
L304.895 193.864
L310.474 193.927
L317.449 193.755
L321.634 193.735
L321.634 193.735" style="fill:none;stroke:#0000ff;stroke-dasharray:6.000000,6.000000;stroke-dashoffset:0.0;"/>
   </g>
   <g id="line2d_12">
    <path clip-path="url(#pc3a091a31f)" d="
M46.8281 103.335
L48.223 54.7111
L49.618 36.6793
L51.0129 29.1763
L52.4079 30.7482
L53.8028 35.6084
L55.1978 41.6739
L57.9877 55.4846
L59.3827 62.42
L60.7776 66.6118
L66.3574 80.7891
L67.7524 83.1672
L69.1473 85.2664
L70.5423 86.8819
L71.9372 89.2729
L73.3322 91.3284
L74.7272 92.9894
L77.5171 95.2618
L78.912 96.2498
L80.307 98.0259
L81.7019 98.8503
L83.0969 100.698
L84.4918 102.335
L85.8868 103.653
L87.2817 104.749
L88.6767 105.654
L90.0716 106.807
L91.4666 107.595
L92.8615 108.557
L94.2565 109.275
L95.6515 110.728
L97.0464 111.59
L98.4414 112.939
L99.8363 113.771
L101.231 114.128
L102.626 114.211
L105.416 115.705
L106.811 116.024
L108.206 116.726
L112.391 117.522
L115.181 117.993
L116.576 118.536
L117.971 118.913
L119.366 119.643
L120.761 120.959
L122.156 122.097
L123.551 122.924
L124.945 123.273
L126.34 123.233
L127.735 123.861
L129.13 124.241
L130.525 124.375
L131.92 124.265
L136.105 124.424
L137.5 124.661
L138.895 124.727
L141.685 126.47
L144.475 127.898
L147.265 128.225
L150.055 128.95
L151.45 128.8
L154.24 128.237
L155.634 128.244
L161.214 129.9
L164.004 129.553
L165.399 129.761
L166.794 129.798
L169.584 129.518
L173.769 129.245
L175.164 129.27
L179.349 130.055
L182.139 130.885
L186.323 132.78
L187.718 133.152
L189.113 133.297
L190.508 133.261
L191.903 133.792
L194.693 135.089
L198.878 136.083
L200.273 135.798
L201.668 135.718
L205.853 136.487
L214.223 136.133
L215.617 135.335
L217.012 134.872
L218.407 134.843
L219.802 134.689
L221.197 134.698
L222.592 135.117
L223.987 135.224
L225.382 135.085
L229.567 135.169
L230.962 134.79
L232.357 134.695
L233.752 134.849
L235.147 134.713
L236.542 134.446
L239.332 134.723
L243.517 135.399
L247.701 135.43
L250.491 134.715
L253.281 133.873
L254.676 133.746
L257.466 133.194
L258.861 133.379
L260.256 133.724
L265.836 134.536
L268.626 134.865
L272.811 135.658
L274.206 135.516
L275.6 135.613
L279.785 136.956
L282.575 137.211
L285.365 137.332
L290.945 135.786
L292.34 135.49
L293.735 135.321
L295.13 135.362
L297.92 135.604
L299.315 135.498
L300.71 135.219
L304.895 135.302
L306.289 135.056
L309.079 135.018
L310.474 134.858
L311.869 134.872
L316.054 135.563
L320.239 135.261
L321.634 135.349
L321.634 135.349" style="fill:none;stroke:#008000;stroke-dasharray:6.000000,6.000000;stroke-dashoffset:0.0;"/>
   </g>
   <g id="matplotlib.axis_1">
    <g id="xtick_1">
     <g id="line2d_13">
      <path clip-path="url(#pc3a091a31f)" d="
M45.4331 239.142
L45.4331 23.1418" style="fill:none;stroke:#000000;stroke-dasharray:1.000000,3.000000;stroke-dashoffset:0.0;stroke-width:0.5;"/>
     </g>
     <g id="line2d_14">
      <defs>
       <path d="
M0 0
L0 -4" id="m93b0483c22" style="stroke:#000000;stroke-width:0.5;"/>
      </defs>
      <g>
       <use style="stroke:#000000;stroke-width:0.5;" x="45.433125" xlink:href="#m93b0483c22" y="239.14175"/>
      </g>
     </g>
     <g id="line2d_15">
      <defs>
       <path d="
M0 0
L0 4" id="m741efc42ff" style="stroke:#000000;stroke-width:0.5;"/>
      </defs>
      <g>
       <use style="stroke:#000000;stroke-width:0.5;" x="45.433125" xlink:href="#m741efc42ff" y="23.14175"/>
      </g>
     </g>
     <g id="text_1">
      <text style="font-family:DejaVu Sans;font-size:12.0px;font-style:normal;text-anchor:middle;" transform="rotate(-0.000000, 45.433125, 252.259875)" x="45.433125" y="252.259875">0</text>
     </g>
    </g>
    <g id="xtick_2">
     <g id="line2d_16">
      <path clip-path="url(#pc3a091a31f)" d="
M101.233 239.142
L101.233 23.1418" style="fill:none;stroke:#000000;stroke-dasharray:1.000000,3.000000;stroke-dashoffset:0.0;stroke-width:0.5;"/>
     </g>
     <g id="line2d_17">
      <g>
       <use style="stroke:#000000;stroke-width:0.5;" x="101.233125" xlink:href="#m93b0483c22" y="239.14175"/>
      </g>
     </g>
     <g id="line2d_18">
      <g>
       <use style="stroke:#000000;stroke-width:0.5;" x="101.233125" xlink:href="#m741efc42ff" y="23.14175"/>
      </g>
     </g>
     <g id="text_2">
      <text style="font-family:DejaVu Sans;font-size:12.0px;font-style:normal;text-anchor:middle;" transform="rotate(-0.000000, 101.233125, 252.259875)" x="101.233125" y="252.259875">2</text>
     </g>
    </g>
    <g id="xtick_3">
     <g id="line2d_19">
      <path clip-path="url(#pc3a091a31f)" d="
M157.033 239.142
L157.033 23.1418" style="fill:none;stroke:#000000;stroke-dasharray:1.000000,3.000000;stroke-dashoffset:0.0;stroke-width:0.5;"/>
     </g>
     <g id="line2d_20">
      <g>
       <use style="stroke:#000000;stroke-width:0.5;" x="157.033125" xlink:href="#m93b0483c22" y="239.14175"/>
      </g>
     </g>
     <g id="line2d_21">
      <g>
       <use style="stroke:#000000;stroke-width:0.5;" x="157.033125" xlink:href="#m741efc42ff" y="23.14175"/>
      </g>
     </g>
     <g id="text_3">
      <text style="font-family:DejaVu Sans;font-size:12.0px;font-style:normal;text-anchor:middle;" transform="rotate(-0.000000, 157.033125, 252.259875)" x="157.033125" y="252.259875">4</text>
     </g>
    </g>
    <g id="xtick_4">
     <g id="line2d_22">
      <path clip-path="url(#pc3a091a31f)" d="
M212.833 239.142
L212.833 23.1418" style="fill:none;stroke:#000000;stroke-dasharray:1.000000,3.000000;stroke-dashoffset:0.0;stroke-width:0.5;"/>
     </g>
     <g id="line2d_23">
      <g>
       <use style="stroke:#000000;stroke-width:0.5;" x="212.833125" xlink:href="#m93b0483c22" y="239.14175"/>
      </g>
     </g>
     <g id="line2d_24">
      <g>
       <use style="stroke:#000000;stroke-width:0.5;" x="212.833125" xlink:href="#m741efc42ff" y="23.14175"/>
      </g>
     </g>
     <g id="text_4">
      <text style="font-family:DejaVu Sans;font-size:12.0px;font-style:normal;text-anchor:middle;" transform="rotate(-0.000000, 212.833125, 252.259875)" x="212.833125" y="252.259875">6</text>
     </g>
    </g>
    <g id="xtick_5">
     <g id="line2d_25">
      <path clip-path="url(#pc3a091a31f)" d="
M268.633 239.142
L268.633 23.1418" style="fill:none;stroke:#000000;stroke-dasharray:1.000000,3.000000;stroke-dashoffset:0.0;stroke-width:0.5;"/>
     </g>
     <g id="line2d_26">
      <g>
       <use style="stroke:#000000;stroke-width:0.5;" x="268.633125" xlink:href="#m93b0483c22" y="239.14175"/>
      </g>
     </g>
     <g id="line2d_27">
      <g>
       <use style="stroke:#000000;stroke-width:0.5;" x="268.633125" xlink:href="#m741efc42ff" y="23.14175"/>
      </g>
     </g>
     <g id="text_5">
      <text style="font-family:DejaVu Sans;font-size:12.0px;font-style:normal;text-anchor:middle;" transform="rotate(-0.000000, 268.633125, 252.259875)" x="268.633125" y="252.259875">8</text>
     </g>
    </g>
    <g id="xtick_6">
     <g id="line2d_28">
      <path clip-path="url(#pc3a091a31f)" d="
M324.433 239.142
L324.433 23.1418" style="fill:none;stroke:#000000;stroke-dasharray:1.000000,3.000000;stroke-dashoffset:0.0;stroke-width:0.5;"/>
     </g>
     <g id="line2d_29">
      <g>
       <use style="stroke:#000000;stroke-width:0.5;" x="324.433125" xlink:href="#m93b0483c22" y="239.14175"/>
      </g>
     </g>
     <g id="line2d_30">
      <g>
       <use style="stroke:#000000;stroke-width:0.5;" x="324.433125" xlink:href="#m741efc42ff" y="23.14175"/>
      </g>
     </g>
     <g id="text_6">
      <text style="font-family:DejaVu Sans;font-size:12.0px;font-style:normal;text-anchor:middle;" transform="rotate(-0.000000, 324.433125, 252.259875)" x="324.433125" y="252.259875">10</text>
     </g>
    </g>
    <g id="xtick_7">
     <g id="line2d_31">
      <defs>
       <path d="
M0 0
L0 -2" id="m177f7580d0" style="stroke:#000000;stroke-width:0.5;"/>
      </defs>
      <g>
       <use style="stroke:#000000;stroke-width:0.5;" x="45.433125" xlink:href="#m177f7580d0" y="239.14175"/>
      </g>
     </g>
     <g id="line2d_32">
      <defs>
       <path d="
M0 0
L0 2" id="m5284c7e2a0" style="stroke:#000000;stroke-width:0.5;"/>
      </defs>
      <g>
       <use style="stroke:#000000;stroke-width:0.5;" x="45.433125" xlink:href="#m5284c7e2a0" y="23.14175"/>
      </g>
     </g>
    </g>
    <g id="xtick_8">
     <g id="line2d_33">
      <g>
       <use style="stroke:#000000;stroke-width:0.5;" x="73.333125" xlink:href="#m177f7580d0" y="239.14175"/>
      </g>
     </g>
     <g id="line2d_34">
      <g>
       <use style="stroke:#000000;stroke-width:0.5;" x="73.333125" xlink:href="#m5284c7e2a0" y="23.14175"/>
      </g>
     </g>
    </g>
    <g id="xtick_9">
     <g id="line2d_35">
      <g>
       <use style="stroke:#000000;stroke-width:0.5;" x="101.233125" xlink:href="#m177f7580d0" y="239.14175"/>
      </g>
     </g>
     <g id="line2d_36">
      <g>
       <use style="stroke:#000000;stroke-width:0.5;" x="101.233125" xlink:href="#m5284c7e2a0" y="23.14175"/>
      </g>
     </g>
    </g>
    <g id="xtick_10">
     <g id="line2d_37">
      <g>
       <use style="stroke:#000000;stroke-width:0.5;" x="129.133125" xlink:href="#m177f7580d0" y="239.14175"/>
      </g>
     </g>
     <g id="line2d_38">
      <g>
       <use style="stroke:#000000;stroke-width:0.5;" x="129.133125" xlink:href="#m5284c7e2a0" y="23.14175"/>
      </g>
     </g>
    </g>
    <g id="xtick_11">
     <g id="line2d_39">
      <g>
       <use style="stroke:#000000;stroke-width:0.5;" x="157.033125" xlink:href="#m177f7580d0" y="239.14175"/>
      </g>
     </g>
     <g id="line2d_40">
      <g>
       <use style="stroke:#000000;stroke-width:0.5;" x="157.033125" xlink:href="#m5284c7e2a0" y="23.14175"/>
      </g>
     </g>
    </g>
    <g id="xtick_12">
     <g id="line2d_41">
      <g>
       <use style="stroke:#000000;stroke-width:0.5;" x="184.933125" xlink:href="#m177f7580d0" y="239.14175"/>
      </g>
     </g>
     <g id="line2d_42">
      <g>
       <use style="stroke:#000000;stroke-width:0.5;" x="184.933125" xlink:href="#m5284c7e2a0" y="23.14175"/>
      </g>
     </g>
    </g>
    <g id="xtick_13">
     <g id="line2d_43">
      <g>
       <use style="stroke:#000000;stroke-width:0.5;" x="212.833125" xlink:href="#m177f7580d0" y="239.14175"/>
      </g>
     </g>
     <g id="line2d_44">
      <g>
       <use style="stroke:#000000;stroke-width:0.5;" x="212.833125" xlink:href="#m5284c7e2a0" y="23.14175"/>
      </g>
     </g>
    </g>
    <g id="xtick_14">
     <g id="line2d_45">
      <g>
       <use style="stroke:#000000;stroke-width:0.5;" x="240.733125" xlink:href="#m177f7580d0" y="239.14175"/>
      </g>
     </g>
     <g id="line2d_46">
      <g>
       <use style="stroke:#000000;stroke-width:0.5;" x="240.733125" xlink:href="#m5284c7e2a0" y="23.14175"/>
      </g>
     </g>
    </g>
    <g id="xtick_15">
     <g id="line2d_47">
      <g>
       <use style="stroke:#000000;stroke-width:0.5;" x="268.633125" xlink:href="#m177f7580d0" y="239.14175"/>
      </g>
     </g>
     <g id="line2d_48">
      <g>
       <use style="stroke:#000000;stroke-width:0.5;" x="268.633125" xlink:href="#m5284c7e2a0" y="23.14175"/>
      </g>
     </g>
    </g>
    <g id="xtick_16">
     <g id="line2d_49">
      <g>
       <use style="stroke:#000000;stroke-width:0.5;" x="296.533125" xlink:href="#m177f7580d0" y="239.14175"/>
      </g>
     </g>
     <g id="line2d_50">
      <g>
       <use style="stroke:#000000;stroke-width:0.5;" x="296.533125" xlink:href="#m5284c7e2a0" y="23.14175"/>
      </g>
     </g>
    </g>
    <g id="xtick_17">
     <g id="line2d_51">
      <g>
       <use style="stroke:#000000;stroke-width:0.5;" x="324.433125" xlink:href="#m177f7580d0" y="239.14175"/>
      </g>
     </g>
     <g id="line2d_52">
      <g>
       <use style="stroke:#000000;stroke-width:0.5;" x="324.433125" xlink:href="#m5284c7e2a0" y="23.14175"/>
      </g>
     </g>
    </g>
    <g id="text_7">
     <text style="font-family:DejaVu Sans;font-size:12.0px;font-style:normal;text-anchor:middle;" transform="rotate(-0.000000, 184.933125, 268.873625)" x="184.933125" y="268.873625">$t$ [ps]</text>
    </g>
   </g>
   <g id="matplotlib.axis_2">
    <g id="ytick_1">
     <g id="line2d_53">
      <path clip-path="url(#pc3a091a31f)" d="
M45.4331 239.142
L324.433 239.142" style="fill:none;stroke:#000000;stroke-dasharray:1.000000,3.000000;stroke-dashoffset:0.0;stroke-width:0.5;"/>
     </g>
     <g id="line2d_54">
      <defs>
       <path d="
M0 0
L4 0" id="m728421d6d4" style="stroke:#000000;stroke-width:0.5;"/>
      </defs>
      <g>
       <use style="stroke:#000000;stroke-width:0.5;" x="45.433125" xlink:href="#m728421d6d4" y="239.14175"/>
      </g>
     </g>
     <g id="line2d_55">
      <defs>
       <path d="
M0 0
L-4 0" id="mcb0005524f" style="stroke:#000000;stroke-width:0.5;"/>
      </defs>
      <g>
       <use style="stroke:#000000;stroke-width:0.5;" x="324.433125" xlink:href="#mcb0005524f" y="239.14175"/>
      </g>
     </g>
     <g id="text_8">
      <text style="font-family:DejaVu Sans;font-size:12.0px;font-style:normal;text-anchor:end;" transform="rotate(-0.000000, 41.433125, 242.453000)" x="41.433125" y="242.453">0.0</text>
     </g>
    </g>
    <g id="ytick_2">
     <g id="line2d_56">
      <path clip-path="url(#pc3a091a31f)" d="
M45.4331 191.142
L324.433 191.142" style="fill:none;stroke:#000000;stroke-dasharray:1.000000,3.000000;stroke-dashoffset:0.0;stroke-width:0.5;"/>
     </g>
     <g id="line2d_57">
      <g>
       <use style="stroke:#000000;stroke-width:0.5;" x="45.433125" xlink:href="#m728421d6d4" y="191.14175"/>
      </g>
     </g>
     <g id="line2d_58">
      <g>
       <use style="stroke:#000000;stroke-width:0.5;" x="324.433125" xlink:href="#mcb0005524f" y="191.14175"/>
      </g>
     </g>
     <g id="text_9">
      <text style="font-family:DejaVu Sans;font-size:12.0px;font-style:normal;text-anchor:end;" transform="rotate(-0.000000, 41.433125, 194.453000)" x="41.433125" y="194.453">0.1</text>
     </g>
    </g>
    <g id="ytick_3">
     <g id="line2d_59">
      <path clip-path="url(#pc3a091a31f)" d="
M45.4331 143.142
L324.433 143.142" style="fill:none;stroke:#000000;stroke-dasharray:1.000000,3.000000;stroke-dashoffset:0.0;stroke-width:0.5;"/>
     </g>
     <g id="line2d_60">
      <g>
       <use style="stroke:#000000;stroke-width:0.5;" x="45.433125" xlink:href="#m728421d6d4" y="143.14175"/>
      </g>
     </g>
     <g id="line2d_61">
      <g>
       <use style="stroke:#000000;stroke-width:0.5;" x="324.433125" xlink:href="#mcb0005524f" y="143.14175"/>
      </g>
     </g>
     <g id="text_10">
      <text style="font-family:DejaVu Sans;font-size:12.0px;font-style:normal;text-anchor:end;" transform="rotate(-0.000000, 41.433125, 146.453000)" x="41.433125" y="146.453">0.2</text>
     </g>
    </g>
    <g id="ytick_4">
     <g id="line2d_62">
      <path clip-path="url(#pc3a091a31f)" d="
M45.4331 95.1417
L324.433 95.1417" style="fill:none;stroke:#000000;stroke-dasharray:1.000000,3.000000;stroke-dashoffset:0.0;stroke-width:0.5;"/>
     </g>
     <g id="line2d_63">
      <g>
       <use style="stroke:#000000;stroke-width:0.5;" x="45.433125" xlink:href="#m728421d6d4" y="95.14175"/>
      </g>
     </g>
     <g id="line2d_64">
      <g>
       <use style="stroke:#000000;stroke-width:0.5;" x="324.433125" xlink:href="#mcb0005524f" y="95.14175"/>
      </g>
     </g>
     <g id="text_11">
      <text style="font-family:DejaVu Sans;font-size:12.0px;font-style:normal;text-anchor:end;" transform="rotate(-0.000000, 41.433125, 98.453000)" x="41.433125" y="98.453">0.3</text>
     </g>
    </g>
    <g id="ytick_5">
     <g id="line2d_65">
      <path clip-path="url(#pc3a091a31f)" d="
M45.4331 47.1418
L324.433 47.1418" style="fill:none;stroke:#000000;stroke-dasharray:1.000000,3.000000;stroke-dashoffset:0.0;stroke-width:0.5;"/>
     </g>
     <g id="line2d_66">
      <g>
       <use style="stroke:#000000;stroke-width:0.5;" x="45.433125" xlink:href="#m728421d6d4" y="47.14175"/>
      </g>
     </g>
     <g id="line2d_67">
      <g>
       <use style="stroke:#000000;stroke-width:0.5;" x="324.433125" xlink:href="#mcb0005524f" y="47.14175"/>
      </g>
     </g>
     <g id="text_12">
      <text style="font-family:DejaVu Sans;font-size:12.0px;font-style:normal;text-anchor:end;" transform="rotate(-0.000000, 41.433125, 50.453000)" x="41.433125" y="50.453">0.4</text>
     </g>
    </g>
    <g id="ytick_6">
     <g id="line2d_68">
      <defs>
       <path d="
M0 0
L2 0" id="mf0c55a9a47" style="stroke:#000000;stroke-width:0.5;"/>
      </defs>
      <g>
       <use style="stroke:#000000;stroke-width:0.5;" x="45.433125" xlink:href="#mf0c55a9a47" y="239.14175"/>
      </g>
     </g>
     <g id="line2d_69">
      <defs>
       <path d="
M0 0
L-2 0" id="ma4f294b3af" style="stroke:#000000;stroke-width:0.5;"/>
      </defs>
      <g>
       <use style="stroke:#000000;stroke-width:0.5;" x="324.433125" xlink:href="#ma4f294b3af" y="239.14175"/>
      </g>
     </g>
    </g>
    <g id="ytick_7">
     <g id="line2d_70">
      <g>
       <use style="stroke:#000000;stroke-width:0.5;" x="45.433125" xlink:href="#mf0c55a9a47" y="215.14175"/>
      </g>
     </g>
     <g id="line2d_71">
      <g>
       <use style="stroke:#000000;stroke-width:0.5;" x="324.433125" xlink:href="#ma4f294b3af" y="215.14175"/>
      </g>
     </g>
    </g>
    <g id="ytick_8">
     <g id="line2d_72">
      <g>
       <use style="stroke:#000000;stroke-width:0.5;" x="45.433125" xlink:href="#mf0c55a9a47" y="191.14175"/>
      </g>
     </g>
     <g id="line2d_73">
      <g>
       <use style="stroke:#000000;stroke-width:0.5;" x="324.433125" xlink:href="#ma4f294b3af" y="191.14175"/>
      </g>
     </g>
    </g>
    <g id="ytick_9">
     <g id="line2d_74">
      <g>
       <use style="stroke:#000000;stroke-width:0.5;" x="45.433125" xlink:href="#mf0c55a9a47" y="167.14175"/>
      </g>
     </g>
     <g id="line2d_75">
      <g>
       <use style="stroke:#000000;stroke-width:0.5;" x="324.433125" xlink:href="#ma4f294b3af" y="167.14175"/>
      </g>
     </g>
    </g>
    <g id="ytick_10">
     <g id="line2d_76">
      <g>
       <use style="stroke:#000000;stroke-width:0.5;" x="45.433125" xlink:href="#mf0c55a9a47" y="143.14175"/>
      </g>
     </g>
     <g id="line2d_77">
      <g>
       <use style="stroke:#000000;stroke-width:0.5;" x="324.433125" xlink:href="#ma4f294b3af" y="143.14175"/>
      </g>
     </g>
    </g>
    <g id="ytick_11">
     <g id="line2d_78">
      <g>
       <use style="stroke:#000000;stroke-width:0.5;" x="45.433125" xlink:href="#mf0c55a9a47" y="119.14175"/>
      </g>
     </g>
     <g id="line2d_79">
      <g>
       <use style="stroke:#000000;stroke-width:0.5;" x="324.433125" xlink:href="#ma4f294b3af" y="119.14175"/>
      </g>
     </g>
    </g>
    <g id="ytick_12">
     <g id="line2d_80">
      <g>
       <use style="stroke:#000000;stroke-width:0.5;" x="45.433125" xlink:href="#mf0c55a9a47" y="95.14175"/>
      </g>
     </g>
     <g id="line2d_81">
      <g>
       <use style="stroke:#000000;stroke-width:0.5;" x="324.433125" xlink:href="#ma4f294b3af" y="95.14175"/>
      </g>
     </g>
    </g>
    <g id="ytick_13">
     <g id="line2d_82">
      <g>
       <use style="stroke:#000000;stroke-width:0.5;" x="45.433125" xlink:href="#mf0c55a9a47" y="71.14175"/>
      </g>
     </g>
     <g id="line2d_83">
      <g>
       <use style="stroke:#000000;stroke-width:0.5;" x="324.433125" xlink:href="#ma4f294b3af" y="71.14175"/>
      </g>
     </g>
    </g>
    <g id="ytick_14">
     <g id="line2d_84">
      <g>
       <use style="stroke:#000000;stroke-width:0.5;" x="45.433125" xlink:href="#mf0c55a9a47" y="47.14175"/>
      </g>
     </g>
     <g id="line2d_85">
      <g>
       <use style="stroke:#000000;stroke-width:0.5;" x="324.433125" xlink:href="#ma4f294b3af" y="47.14175"/>
      </g>
     </g>
    </g>
    <g id="ytick_15">
     <g id="line2d_86">
      <g>
       <use style="stroke:#000000;stroke-width:0.5;" x="45.433125" xlink:href="#mf0c55a9a47" y="23.14175"/>
      </g>
     </g>
     <g id="line2d_87">
      <g>
       <use style="stroke:#000000;stroke-width:0.5;" x="324.433125" xlink:href="#ma4f294b3af" y="23.14175"/>
      </g>
     </g>
    </g>
    <g id="text_13">
     <text style="font-family:DejaVu Sans;font-size:12.0px;font-style:normal;text-anchor:middle;" transform="rotate(-90.000000, 16.318125, 131.141750)" x="16.318125" y="131.14175">$r^2/6t$ [\AA$^2$/ps]</text>
    </g>
   </g>
   <g id="patch_3">
    <path d="
M45.4331 23.1418
L324.433 23.1418" style="fill:none;stroke:#000000;"/>
   </g>
   <g id="patch_4">
    <path d="
M324.433 239.142
L324.433 23.1418" style="fill:none;stroke:#000000;"/>
   </g>
   <g id="patch_5">
    <path d="
M45.4331 239.142
L324.433 239.142" style="fill:none;stroke:#000000;"/>
   </g>
   <g id="patch_6">
    <path d="
M45.4331 239.142
L45.4331 23.1418" style="fill:none;stroke:#000000;"/>
   </g>
   <g id="text_14">
    <text style="font-family:DejaVu Sans;font-size:14.4px;font-style:normal;text-anchor:middle;" transform="rotate(-0.000000, 184.933125, 18.141750)" x="184.933125" y="18.14175">Diffusion $r^2(t)/6t$</text>
   </g>
   <g id="patch_7">
    <path clip-path="url(#pc3a091a31f)" d="
M184.933 118.182
L296.533 118.182
L296.533 27.4617
L184.933 27.4617
L184.933 118.182
z
" style="fill:#ffffff;stroke:#000000;"/>
   </g>
   <g id="legend_1">
    <g id="line2d_88">
     <path d="
M192.637 36.2349
L206.631 36.2349" style="fill:none;stroke:#000000;stroke-linecap:square;"/>
    </g>
    <g id="line2d_89"/>
    <g id="text_15">
     <text style="font-family:DejaVu Sans;font-size:9.996px;font-style:normal;text-anchor:start;" transform="rotate(-0.000000, 217.626759, 39.733548)" x="217.626759375" y="39.733548125">{\f $r = [0.0, 0.5)$}</text>
    </g>
    <g id="line2d_90">
     <path d="
M192.637 50.9072
L206.631 50.9072" style="fill:none;stroke:#bfbf00;stroke-linecap:square;"/>
    </g>
    <g id="line2d_91"/>
    <g id="text_16">
     <text style="font-family:DejaVu Sans;font-size:9.996px;font-style:normal;text-anchor:start;" transform="rotate(-0.000000, 217.626759, 54.405802)" x="217.626759375" y="54.405801875">{\f $r = [2.5, 3.0)$}</text>
    </g>
    <g id="line2d_92">
     <path d="
M192.637 65.5795
L206.631 65.5795" style="fill:none;stroke:#bf00bf;stroke-linecap:square;"/>
    </g>
    <g id="line2d_93"/>
    <g id="text_17">
     <text style="font-family:DejaVu Sans;font-size:9.996px;font-style:normal;text-anchor:start;" transform="rotate(-0.000000, 217.626759, 69.078056)" x="217.626759375" y="69.078055625">{\f $r = [5.0, 5.5)$}</text>
    </g>
    <g id="line2d_94">
     <path d="
M192.637 80.2517
L206.631 80.2517" style="fill:none;stroke:#00bfbf;stroke-linecap:square;"/>
    </g>
    <g id="line2d_95"/>
    <g id="text_18">
     <text style="font-family:DejaVu Sans;font-size:9.996px;font-style:normal;text-anchor:start;" transform="rotate(-0.000000, 217.626759, 83.750309)" x="217.626759375" y="83.750309375">{\f $r = [7.5, 8.0)$}</text>
    </g>
    <g id="line2d_96">
     <path d="
M192.637 94.924
L206.631 94.924" style="fill:none;stroke:#0000ff;stroke-linecap:square;"/>
    </g>
    <g id="line2d_97"/>
    <g id="text_19">
     <text style="font-family:DejaVu Sans;font-size:9.996px;font-style:normal;text-anchor:start;" transform="rotate(-0.000000, 217.626759, 98.422563)" x="217.626759375" y="98.422563125">{\f $r = [10.0, 10.5)$}</text>
    </g>
    <g id="line2d_98">
     <path d="
M192.637 109.596
L206.631 109.596" style="fill:none;stroke:#008000;stroke-linecap:square;"/>
    </g>
    <g id="line2d_99"/>
    <g id="text_20">
     <text style="font-family:DejaVu Sans;font-size:9.996px;font-style:normal;text-anchor:start;" transform="rotate(-0.000000, 217.626759, 113.094817)" x="217.626759375" y="113.094816875">{\f Bulk}</text>
    </g>
   </g>
  </g>
 </g>
 <defs>
  <clipPath id="pc3a091a31f">
   <rect height="216.0" width="279.0" x="45.433125" y="23.14175"/>
  </clipPath>
 </defs>
</svg>
