<?xml version="1.0" encoding="utf-8" standalone="no"?>
<!DOCTYPE svg PUBLIC "-//W3C//DTD SVG 1.1//EN"
  "http://www.w3.org/Graphics/SVG/1.1/DTD/svg11.dtd">
<!-- Created with matplotlib (http://matplotlib.org/) -->
<svg height="278pt" version="1.1" viewBox="0 0 344 278" width="344pt" xmlns="http://www.w3.org/2000/svg" xmlns:xlink="http://www.w3.org/1999/xlink">
 <defs>
  <style type="text/css">
*{stroke-linecap:butt;stroke-linejoin:round;}
  </style>
 </defs>
 <g id="figure_1">
  <g id="patch_1">
   <path d="
M0 278.569
L344.977 278.569
L344.977 0
L0 0
z
" style="fill:#ffffff;"/>
  </g>
  <g id="axes_1">
   <g id="patch_2">
    <path d="
M52.2 239.142
L331.2 239.142
L331.2 23.1418
L52.2 23.1418
z
" style="fill:#ffffff;"/>
   </g>
   <g id="line2d_1">
    <path clip-path="url(#p6275cb0451)" d="
M53.595 163.878
L54.9899 159.503
L56.3849 163.684
L57.7798 172.005
L59.1748 182.823
L60.5697 190.862
L61.9647 197.749
L63.3596 203.439
L64.7546 207.651
L66.1495 211.202
L67.5445 213.764
L68.9394 215.926
L70.3344 217.819
L73.1243 221.037
L74.5193 221.674
L75.9142 222.737
L80.0991 224.335
L81.494 224.344
L82.889 224.954
L84.2839 225.428
L85.6789 226.255
L89.8637 227.803
L91.2587 228.231
L92.6537 228.288
L94.0486 228.827
L95.4436 229.091
L96.8385 229.48
L98.2335 229.693
L101.023 229.714
L105.208 229.618
L107.998 229.778
L116.368 231.83
L117.763 232.009
L120.553 232.053
L123.343 231.977
L127.527 232.136
L128.922 232.118
L134.502 232.691
L137.292 232.675
L140.082 233.098
L148.452 233.381
L151.242 233.341
L154.032 233.626
L156.822 234.099
L159.611 234.378
L161.006 234.262
L176.351 234.667
L180.536 234.809
L181.931 234.762
L187.511 234.96
L190.3 234.969
L194.485 234.989
L200.065 235.112
L202.855 235.336
L205.645 235.344
L208.435 235.277
L212.62 235.331
L215.41 235.235
L230.754 235.853
L233.544 235.81
L237.729 235.801
L265.628 236.229
L268.418 236.217
L272.603 236.207
L278.182 236.222
L282.367 236.378
L292.132 236.464
L299.107 236.694
L303.292 236.623
L307.477 236.573
L311.661 236.659
L328.401 236.686
L328.401 236.686" style="fill:none;stroke:#000000;stroke-linecap:square;"/>
   </g>
   <g id="line2d_2">
    <path clip-path="url(#p6275cb0451)" d="
M53.595 174.164
L54.9899 171.324
L56.3849 172.086
L57.7798 181.037
L59.1748 193.958
L60.5697 203.566
L61.9647 207.808
L63.3596 211.288
L64.7546 216.665
L66.1495 220.094
L67.5445 222.082
L68.9394 223.87
L70.3344 225.058
L71.7294 225.874
L73.1243 226.353
L74.5193 226.362
L75.9142 226.996
L77.3092 228.113
L80.0991 229.227
L81.494 229.395
L82.889 230.262
L85.6789 229.486
L87.0738 230.226
L88.4688 230.413
L89.8637 230.349
L91.2587 230.72
L92.6537 230.465
L94.0486 231.174
L95.4436 231.554
L96.8385 232.463
L98.2335 232.812
L99.6284 232.986
L101.023 233.037
L102.418 232.863
L103.813 233.201
L105.208 233.996
L106.603 234.566
L107.998 234.359
L109.393 234.267
L112.183 234.692
L114.973 234.377
L116.368 234.646
L119.158 234.802
L120.553 234.534
L121.948 234.394
L123.343 234.401
L126.133 235.335
L127.527 235.393
L131.712 235.106
L133.107 235.476
L135.897 235.444
L137.292 235.029
L141.477 235.747
L144.267 235.407
L147.057 235.534
L148.452 235.571
L151.242 235.226
L152.637 235.333
L154.032 235.966
L155.427 236.155
L156.822 236.1
L158.216 235.898
L162.401 236.007
L163.796 236.324
L169.376 236.279
L172.166 236.592
L179.141 236.405
L188.905 236.418
L191.695 236.343
L193.09 236.584
L194.485 236.69
L195.88 236.595
L197.275 236.756
L198.67 236.677
L200.065 236.816
L209.83 236.742
L211.225 236.912
L212.62 236.869
L214.015 236.943
L215.41 236.811
L220.989 236.831
L222.384 237.132
L225.174 237.227
L226.569 236.942
L232.149 237.415
L234.939 237.241
L236.334 237.136
L237.729 237.183
L239.124 237.363
L241.914 237.222
L243.309 237.403
L244.704 237.457
L246.099 237.283
L248.888 237.248
L253.073 237.122
L255.863 237.473
L257.258 237.591
L260.048 237.448
L262.838 237.375
L267.023 237.602
L269.813 237.615
L271.208 237.458
L276.788 237.746
L278.182 237.668
L279.577 237.471
L280.972 237.428
L283.762 237.545
L285.157 237.524
L287.947 237.624
L292.132 237.569
L299.107 237.812
L301.897 237.55
L311.661 237.909
L313.056 237.969
L315.846 237.709
L324.216 237.72
L328.401 238.03
L328.401 238.03" style="fill:none;stroke:#bfbf00;stroke-linecap:square;"/>
   </g>
   <g id="line2d_3">
    <path clip-path="url(#p6275cb0451)" d="
M53.595 145.457
L54.9899 129.502
L56.3849 132.269
L57.7798 144.632
L59.1748 158.523
L60.5697 168.981
L63.3596 186.737
L64.7546 192.19
L66.1495 196.445
L67.5445 199.133
L68.9394 201.218
L75.9142 209.287
L80.0991 212.603
L81.494 213.167
L82.889 214.186
L84.2839 215.049
L85.6789 216.329
L87.0738 217.217
L88.4688 217.832
L91.2587 218.697
L92.6537 218.782
L94.0486 219.36
L95.4436 219.613
L96.8385 220.1
L99.6284 220.546
L102.418 220.519
L105.208 221.309
L106.603 221.701
L107.998 221.632
L109.393 221.449
L110.788 221.568
L112.183 221.887
L113.578 222.466
L116.368 223.195
L119.158 223.659
L121.948 223.262
L124.738 223.706
L126.133 223.897
L128.922 224.6
L131.712 225.171
L133.107 225.42
L134.502 225.51
L135.897 225.483
L137.292 225.581
L141.477 226.23
L142.872 226.283
L148.452 227.021
L151.242 226.838
L156.822 227.635
L161.006 227.77
L165.191 227.851
L167.981 228.028
L172.166 228.265
L173.561 228.327
L174.956 228.187
L179.141 228.562
L186.116 228.693
L188.905 228.94
L194.485 228.824
L195.88 228.726
L200.065 229.1
L202.855 229.542
L204.25 229.617
L207.04 229.543
L212.62 229.837
L215.41 229.738
L216.805 229.892
L220.989 229.958
L222.384 230.054
L223.779 230.006
L226.569 230.221
L232.149 230.052
L234.939 230.404
L240.519 230.489
L241.914 230.448
L246.099 231.094
L248.888 231.019
L251.678 230.759
L260.048 231.2
L262.838 231.445
L268.418 231.61
L269.813 231.69
L272.603 231.583
L275.393 231.61
L278.182 231.819
L280.972 231.822
L287.947 231.994
L290.737 231.92
L294.922 232.359
L296.317 232.509
L300.502 232.504
L306.082 232.263
L307.477 232.278
L310.266 232.579
L314.451 232.645
L315.846 232.573
L318.636 232.655
L322.821 232.645
L325.611 232.792
L328.401 232.676
L328.401 232.676" style="fill:none;stroke:#bf00bf;stroke-linecap:square;"/>
   </g>
   <g id="line2d_4">
    <path clip-path="url(#p6275cb0451)" d="
M53.595 119.105
L54.9899 83.3762
L56.3849 76.3495
L57.7798 81.9684
L59.1748 93.2147
L61.9647 117.174
L63.3596 126.632
L64.7546 133.632
L66.1495 139.61
L68.9394 149.288
L71.7294 157.904
L73.1243 160.746
L75.9142 165.451
L78.7041 168.585
L80.0991 169.938
L81.494 171.533
L84.2839 175.189
L85.6789 176.468
L87.0738 178.012
L88.4688 179.154
L89.8637 179.788
L91.2587 180.74
L95.4436 183.089
L96.8385 184.428
L98.2335 185.486
L103.813 187.871
L105.208 188.209
L107.998 189.19
L109.393 189.674
L112.183 190.849
L113.578 191.283
L114.973 191.257
L116.368 191.115
L117.763 191.327
L120.553 192.209
L121.948 192.562
L124.738 192.97
L130.317 193.968
L138.687 196.627
L144.267 197.527
L145.662 197.617
L147.057 197.896
L148.452 198.492
L151.242 198.842
L152.637 199.398
L158.216 200.411
L159.611 200.393
L161.006 200.497
L162.401 200.732
L165.191 200.835
L167.981 200.875
L169.376 200.896
L176.351 201.896
L177.746 201.904
L184.721 202.589
L188.905 202.855
L190.3 203.035
L191.695 203.058
L193.09 202.865
L197.275 203.009
L198.67 203.088
L202.855 203.841
L205.645 203.723
L208.435 203.999
L212.62 204.403
L218.199 204.566
L220.989 204.583
L225.174 205.03
L226.569 205.157
L227.964 205.162
L236.334 205.77
L239.124 205.871
L247.494 206.547
L251.678 206.663
L261.443 206.775
L267.023 207.239
L268.418 207.582
L269.813 207.736
L273.998 207.505
L287.947 207.747
L290.737 208.153
L294.922 208.426
L297.712 208.665
L300.502 208.605
L303.292 208.671
L304.687 208.634
L307.477 208.89
L310.266 209.239
L314.451 209.558
L317.241 209.386
L320.031 209.599
L321.426 209.676
L324.216 210.03
L325.611 210.115
L328.401 209.923
L328.401 209.923" style="fill:none;stroke:#00bfbf;stroke-linecap:square;"/>
   </g>
   <g id="line2d_5">
    <path clip-path="url(#p6275cb0451)" d="
M53.595 109.008
L54.9899 67.3464
L56.3849 55.9747
L57.7798 56.4839
L59.1748 63.825
L60.5697 73.128
L63.3596 93.6481
L64.7546 101.568
L66.1495 108.252
L67.5445 113.779
L70.3344 122.594
L71.7294 126.616
L73.1243 129.743
L74.5193 132.398
L75.9142 134.681
L77.3092 136.715
L81.494 143.46
L82.889 145.457
L85.6789 148.37
L88.4688 151.146
L89.8637 152.233
L92.6537 155.036
L94.0486 156.206
L95.4436 156.863
L98.2335 158.912
L99.6284 159.783
L101.023 160.458
L102.418 160.913
L105.208 162.385
L106.603 163.266
L107.998 163.998
L112.183 165.394
L116.368 166.191
L117.763 166.414
L120.553 167.395
L121.948 167.737
L123.343 167.882
L126.133 168.724
L127.527 169.158
L130.317 169.882
L133.107 170.856
L140.082 171.977
L141.477 172.335
L144.267 173.256
L145.662 173.69
L148.452 174.319
L151.242 174.514
L152.637 174.901
L156.822 175.792
L158.216 176.193
L159.611 176.262
L161.006 176.446
L162.401 176.838
L169.376 178.196
L172.166 178.99
L180.536 180.094
L181.931 180.368
L188.905 180.825
L190.3 181.003
L195.88 180.98
L198.67 181.203
L201.46 181.819
L202.855 181.835
L205.645 182.1
L209.83 182.323
L214.015 182.619
L218.199 182.896
L220.989 182.897
L223.779 183.226
L236.334 183.957
L241.914 184.596
L246.099 185.006
L248.888 185.31
L251.678 185.35
L262.838 185.365
L265.628 185.656
L267.023 185.665
L268.418 185.988
L269.813 186.177
L273.998 186.276
L280.972 186.846
L283.762 186.86
L286.552 186.753
L290.737 187.142
L306.082 187.521
L308.871 188.042
L313.056 188.44
L315.846 188.557
L318.636 188.534
L321.426 188.521
L324.216 188.682
L325.611 188.846
L328.401 188.689
L328.401 188.689" style="fill:none;stroke:#0000ff;stroke-linecap:square;"/>
   </g>
   <g id="line2d_6">
    <path clip-path="url(#p6275cb0451)" d="
M53.595 104.616
L54.9899 57.0867
L56.3849 40.0448
L57.7798 33.2953
L59.1748 34.9938
L60.5697 40.8523
L63.3596 56.6631
L64.7546 63.6544
L66.1495 69.49
L68.9394 79.2532
L70.3344 83.4017
L71.7294 87.1025
L73.1243 90.1522
L78.7041 100.339
L80.0991 102.474
L82.889 106.05
L87.0738 110.202
L88.4688 111.242
L89.8637 112.114
L94.0486 115.522
L101.023 119.744
L103.813 121.182
L112.183 124.194
L114.973 125.372
L117.763 126.275
L119.158 126.81
L121.948 127.493
L127.527 128.993
L133.107 130.584
L134.502 130.978
L142.872 132.507
L151.242 133.684
L154.032 133.956
L161.006 135.07
L163.796 135.426
L165.191 135.648
L170.771 136.064
L173.561 136.383
L179.141 136.704
L184.721 136.603
L187.511 136.51
L190.3 136.657
L193.09 136.721
L201.46 137.145
L202.855 137.311
L205.645 137.82
L212.62 138.111
L218.199 138.21
L223.779 138.59
L227.964 138.625
L230.754 138.627
L236.334 138.885
L240.519 138.987
L246.099 139.355
L247.494 139.427
L254.468 139.219
L258.653 139.487
L262.838 139.852
L268.418 140.214
L279.577 139.768
L285.157 140.098
L292.132 140.279
L297.712 140.341
L308.871 140.07
L314.451 140.15
L327.006 140.095
L328.401 140.174
L328.401 140.174" style="fill:none;stroke:#008000;stroke-linecap:square;"/>
   </g>
   <g id="line2d_7">
    <path clip-path="url(#p6275cb0451)" d="
M53.595 167.191
L54.9899 160.715
L56.3849 163.622
L57.7798 169.205
L60.5697 182.254
L61.9647 187.933
L64.7546 197.611
L66.1495 201.53
L67.5445 204.607
L68.9394 207.229
L70.3344 209.415
L71.7294 211.253
L74.5193 215.332
L75.9142 217.146
L77.3092 218.406
L78.7041 219.377
L82.889 221.547
L85.6789 223.274
L87.0738 223.969
L89.8637 224.525
L91.2587 224.576
L95.4436 225.219
L96.8385 225.593
L99.6284 226.594
L103.813 227.526
L105.208 227.705
L107.998 227.698
L110.788 228.096
L128.922 230.402
L138.687 230.677
L141.477 231.141
L149.847 232.025
L152.637 232.151
L159.611 232.588
L162.401 232.628
L167.981 232.876
L169.376 232.972
L173.561 232.947
L180.536 233.513
L215.41 234.165
L218.199 234.254
L223.779 234.422
L227.964 234.44
L232.149 234.721
L237.729 234.841
L241.914 235.052
L247.494 235.058
L251.678 235.047
L260.048 235.204
L264.233 235.227
L267.023 235.178
L276.788 235.029
L292.132 235.584
L297.712 235.688
L303.292 235.684
L307.477 235.785
L317.241 235.805
L321.426 235.919
L327.006 235.887
L328.401 235.915
L328.401 235.915" style="fill:none;stroke:#000000;stroke-dasharray:6.000000,6.000000;stroke-dashoffset:0.0;"/>
   </g>
   <g id="line2d_8">
    <path clip-path="url(#p6275cb0451)" d="
M53.595 172.726
L54.9899 173.464
L56.3849 183.409
L59.1748 198.812
L60.5697 203.631
L61.9647 207.298
L63.3596 213.502
L64.7546 217.58
L66.1495 220.286
L67.5445 222.74
L68.9394 223.512
L70.3344 224.065
L71.7294 225.628
L73.1243 226.508
L75.9142 227.585
L78.7041 229.077
L80.0991 229.609
L81.494 230.662
L82.889 231.13
L84.2839 231.449
L87.0738 231.521
L88.4688 231.965
L89.8637 232.285
L91.2587 232.193
L92.6537 232.485
L95.4436 232.636
L96.8385 232.922
L98.2335 233.328
L99.6284 233.21
L101.023 233.285
L102.418 233.477
L103.813 233.957
L105.208 234.294
L106.603 234.27
L107.998 234.495
L110.788 234.491
L112.183 234.454
L113.578 234.799
L116.368 234.987
L117.763 234.788
L119.158 234.973
L120.553 234.993
L121.948 234.833
L123.343 234.817
L130.317 235.591
L133.107 235.77
L134.502 236.075
L135.897 235.991
L137.292 235.775
L138.687 235.767
L141.477 236.141
L142.872 236.159
L144.267 236.035
L145.662 236.102
L148.452 235.998
L149.847 235.777
L152.637 235.653
L154.032 235.954
L155.427 236.101
L163.796 236.204
L167.981 235.99
L170.771 236.421
L176.351 236.677
L177.746 236.508
L186.116 236.392
L191.695 236.752
L198.67 236.7
L201.46 236.956
L205.645 236.877
L207.04 236.919
L208.435 236.795
L212.62 236.888
L214.015 236.771
L220.989 237.055
L223.779 236.845
L226.569 236.914
L227.964 237.032
L246.099 237.077
L248.888 237.224
L250.283 237.303
L251.678 237.25
L254.468 237.29
L255.863 237.171
L258.653 237.425
L261.443 237.305
L265.628 237.363
L267.023 237.287
L269.813 237.433
L273.998 237.346
L276.788 237.445
L279.577 237.43
L280.972 237.372
L287.947 237.559
L303.292 237.597
L307.477 237.682
L311.661 237.637
L315.846 237.742
L322.821 237.755
L325.611 237.779
L328.401 237.77
L328.401 237.77" style="fill:none;stroke:#bfbf00;stroke-dasharray:6.000000,6.000000;stroke-dashoffset:0.0;"/>
   </g>
   <g id="line2d_9">
    <path clip-path="url(#p6275cb0451)" d="
M53.595 152.172
L54.9899 135.907
L56.3849 140.287
L59.1748 155.098
L60.5697 164.65
L61.9647 172.316
L64.7546 184.705
L66.1495 189.646
L67.5445 193.145
L68.9394 196.25
L70.3344 198.96
L71.7294 201.422
L73.1243 203.363
L74.5193 205.631
L75.9142 207.631
L77.3092 209.184
L81.494 212.464
L87.0738 215.984
L88.4688 216.402
L89.8637 217.046
L94.0486 218.184
L98.2335 220.083
L99.6284 220.752
L101.023 221.054
L103.813 221.438
L105.208 221.776
L114.973 222.813
L117.763 223.337
L123.343 224.238
L124.738 224.552
L127.527 225.536
L130.317 225.772
L133.107 226.264
L137.292 226.599
L142.872 227.416
L154.032 227.781
L162.401 228.852
L165.191 229.098
L169.376 229.25
L172.166 229.01
L183.326 229.967
L193.09 230.134
L195.88 230.228
L197.275 230.163
L212.62 230.729
L215.41 230.806
L227.964 231.074
L234.939 231.536
L240.519 231.518
L244.704 231.705
L248.888 232.038
L257.258 232.444
L265.628 232.469
L269.813 232.386
L275.393 232.437
L282.367 232.669
L285.157 232.57
L294.922 232.795
L304.687 232.823
L310.266 232.855
L313.056 232.963
L318.636 233.174
L327.006 233.237
L328.401 233.326
L328.401 233.326" style="fill:none;stroke:#bf00bf;stroke-dasharray:6.000000,6.000000;stroke-dashoffset:0.0;"/>
   </g>
   <g id="line2d_10">
    <path clip-path="url(#p6275cb0451)" d="
M53.595 128.92
L54.9899 96.7957
L56.3849 88.8487
L57.7798 90.2295
L59.1748 97.1242
L60.5697 106.032
L61.9647 116.071
L63.3596 124.685
L66.1495 139.643
L67.5445 145.518
L68.9394 150.061
L73.1243 161.698
L74.5193 164.882
L75.9142 167.713
L77.3092 169.78
L78.7041 171.447
L81.494 174.351
L82.889 176.256
L85.6789 179.126
L88.4688 181.248
L91.2587 183.051
L92.6537 184.294
L94.0486 185.249
L95.4436 186.042
L98.2335 188.014
L101.023 189.622
L102.418 190.095
L105.208 190.866
L110.788 192.767
L112.183 193.104
L113.578 193.314
L116.368 194.03
L119.158 194.852
L126.133 197.032
L127.527 197.615
L130.317 198.312
L133.107 198.994
L135.897 199.571
L140.082 200.534
L142.872 200.874
L144.267 201.225
L147.057 201.538
L149.847 201.811
L152.637 202.399
L156.822 202.746
L158.216 203.024
L166.586 203.962
L169.376 203.968
L172.166 203.972
L173.561 204.103
L176.351 204.761
L177.746 204.841
L187.511 206.262
L191.695 206.198
L194.485 206.004
L219.594 207.686
L220.989 207.921
L227.964 208.584
L230.754 208.838
L234.939 209.217
L237.729 209.456
L241.914 209.477
L247.494 209.886
L250.283 210.275
L253.073 210.464
L255.863 210.509
L261.443 210.35
L267.023 210.742
L278.182 211.067
L286.552 210.884
L300.502 211.55
L311.661 211.657
L314.451 211.882
L317.241 212.101
L321.426 212.15
L324.216 211.921
L328.401 211.95
L328.401 211.95" style="fill:none;stroke:#00bfbf;stroke-dasharray:6.000000,6.000000;stroke-dashoffset:0.0;"/>
   </g>
   <g id="line2d_11">
    <path clip-path="url(#p6275cb0451)" d="
M53.595 118.758
L54.9899 79.5744
L56.3849 67.978
L57.7798 65.2977
L59.1748 69.5753
L60.5697 77.7464
L63.3596 96.2164
L64.7546 104.338
L66.1495 111.199
L67.5445 117.294
L68.9394 122.695
L70.3344 127.005
L74.5193 138.291
L75.9142 141.423
L77.3092 144.018
L78.7041 146.215
L80.0991 147.681
L82.889 151.444
L87.0738 156.963
L91.2587 161.341
L92.6537 162.426
L103.813 169.039
L106.603 170.252
L112.183 171.822
L116.368 173.643
L126.133 176.612
L127.527 177.239
L140.082 180.749
L142.872 181.178
L145.662 181.846
L149.847 182.214
L154.032 183.215
L156.822 183.523
L159.611 183.892
L162.401 184.424
L165.191 185.014
L167.981 185.285
L169.376 185.357
L172.166 185.31
L173.561 185.463
L180.536 186.689
L184.721 187.294
L188.905 188.098
L190.3 188.093
L191.695 187.93
L195.88 187.983
L198.67 187.839
L200.065 187.876
L205.645 188.412
L209.83 188.697
L212.62 189.146
L222.384 189.742
L232.149 190.756
L236.334 191.347
L246.099 191.822
L250.283 191.852
L257.258 191.921
L262.838 192.11
L264.233 192.349
L272.603 192.839
L275.393 192.835
L278.182 192.778
L293.527 193.166
L301.897 193.529
L306.082 193.74
L308.871 193.751
L311.661 193.864
L317.241 193.927
L324.216 193.755
L328.401 193.735
L328.401 193.735" style="fill:none;stroke:#0000ff;stroke-dasharray:6.000000,6.000000;stroke-dashoffset:0.0;"/>
   </g>
   <g id="line2d_12">
    <path clip-path="url(#p6275cb0451)" d="
M53.595 103.335
L54.9899 54.7111
L56.3849 36.6793
L57.7798 29.1763
L59.1748 30.7482
L60.5697 35.6084
L61.9647 41.6739
L64.7546 55.4846
L66.1495 62.42
L67.5445 66.6118
L73.1243 80.7891
L74.5193 83.1672
L75.9142 85.2664
L77.3092 86.8819
L78.7041 89.2729
L80.0991 91.3284
L81.494 92.9894
L84.2839 95.2618
L85.6789 96.2498
L87.0738 98.0259
L88.4688 98.8503
L89.8637 100.698
L91.2587 102.335
L92.6537 103.653
L94.0486 104.749
L95.4436 105.654
L96.8385 106.807
L98.2335 107.595
L99.6284 108.557
L101.023 109.275
L102.418 110.728
L103.813 111.59
L105.208 112.939
L106.603 113.771
L107.998 114.128
L109.393 114.211
L112.183 115.705
L113.578 116.024
L114.973 116.726
L119.158 117.522
L121.948 117.993
L123.343 118.536
L124.738 118.913
L126.133 119.643
L127.527 120.959
L128.922 122.097
L130.317 122.924
L131.712 123.273
L133.107 123.233
L134.502 123.861
L135.897 124.241
L137.292 124.375
L138.687 124.265
L142.872 124.424
L144.267 124.661
L145.662 124.727
L148.452 126.47
L151.242 127.898
L154.032 128.225
L156.822 128.95
L158.216 128.8
L161.006 128.237
L162.401 128.244
L167.981 129.9
L170.771 129.553
L172.166 129.761
L173.561 129.798
L176.351 129.518
L180.536 129.245
L181.931 129.27
L186.116 130.055
L188.905 130.885
L193.09 132.78
L194.485 133.152
L195.88 133.297
L197.275 133.261
L198.67 133.792
L201.46 135.089
L205.645 136.083
L207.04 135.798
L208.435 135.718
L212.62 136.487
L220.989 136.133
L222.384 135.335
L223.779 134.872
L225.174 134.843
L226.569 134.689
L227.964 134.698
L229.359 135.117
L230.754 135.224
L232.149 135.085
L236.334 135.169
L237.729 134.79
L239.124 134.695
L240.519 134.849
L241.914 134.713
L243.309 134.446
L246.099 134.723
L250.283 135.399
L254.468 135.43
L257.258 134.715
L260.048 133.873
L261.443 133.746
L264.233 133.194
L265.628 133.379
L267.023 133.724
L272.603 134.536
L275.393 134.865
L279.577 135.658
L280.972 135.516
L282.367 135.613
L286.552 136.956
L289.342 137.211
L292.132 137.332
L297.712 135.786
L299.107 135.49
L300.502 135.321
L301.897 135.362
L304.687 135.604
L306.082 135.498
L307.477 135.219
L311.661 135.302
L313.056 135.056
L315.846 135.018
L317.241 134.858
L318.636 134.872
L322.821 135.563
L327.006 135.261
L328.401 135.349
L328.401 135.349" style="fill:none;stroke:#008000;stroke-dasharray:6.000000,6.000000;stroke-dashoffset:0.0;"/>
   </g>
   <g id="matplotlib.axis_1">
    <g id="xtick_1">
     <g id="line2d_13">
      <path clip-path="url(#p6275cb0451)" d="
M52.2 239.142
L52.2 23.1418" style="fill:none;stroke:#000000;stroke-dasharray:1.000000,3.000000;stroke-dashoffset:0.0;stroke-width:0.5;"/>
     </g>
     <g id="line2d_14">
      <defs>
       <path d="
M0 0
L0 -4" id="m93b0483c22" style="stroke:#000000;stroke-width:0.5;"/>
      </defs>
      <g>
       <use style="stroke:#000000;stroke-width:0.5;" x="52.2" xlink:href="#m93b0483c22" y="239.14175"/>
      </g>
     </g>
     <g id="line2d_15">
      <defs>
       <path d="
M0 0
L0 4" id="m741efc42ff" style="stroke:#000000;stroke-width:0.5;"/>
      </defs>
      <g>
       <use style="stroke:#000000;stroke-width:0.5;" x="52.2" xlink:href="#m741efc42ff" y="23.14175"/>
      </g>
     </g>
     <g id="text_1">
      <text style="font-family:DejaVu Sans;font-size:12.0px;font-style:normal;text-anchor:middle;" transform="rotate(-0.000000, 52.200000, 252.259875)" x="52.2" y="252.259875">0</text>
     </g>
    </g>
    <g id="xtick_2">
     <g id="line2d_16">
      <path clip-path="url(#p6275cb0451)" d="
M108 239.142
L108 23.1418" style="fill:none;stroke:#000000;stroke-dasharray:1.000000,3.000000;stroke-dashoffset:0.0;stroke-width:0.5;"/>
     </g>
     <g id="line2d_17">
      <g>
       <use style="stroke:#000000;stroke-width:0.5;" x="108.0" xlink:href="#m93b0483c22" y="239.14175"/>
      </g>
     </g>
     <g id="line2d_18">
      <g>
       <use style="stroke:#000000;stroke-width:0.5;" x="108.0" xlink:href="#m741efc42ff" y="23.14175"/>
      </g>
     </g>
     <g id="text_2">
      <text style="font-family:DejaVu Sans;font-size:12.0px;font-style:normal;text-anchor:middle;" transform="rotate(-0.000000, 108.000000, 252.259875)" x="108.0" y="252.259875">2</text>
     </g>
    </g>
    <g id="xtick_3">
     <g id="line2d_19">
      <path clip-path="url(#p6275cb0451)" d="
M163.8 239.142
L163.8 23.1418" style="fill:none;stroke:#000000;stroke-dasharray:1.000000,3.000000;stroke-dashoffset:0.0;stroke-width:0.5;"/>
     </g>
     <g id="line2d_20">
      <g>
       <use style="stroke:#000000;stroke-width:0.5;" x="163.8" xlink:href="#m93b0483c22" y="239.14175"/>
      </g>
     </g>
     <g id="line2d_21">
      <g>
       <use style="stroke:#000000;stroke-width:0.5;" x="163.8" xlink:href="#m741efc42ff" y="23.14175"/>
      </g>
     </g>
     <g id="text_3">
      <text style="font-family:DejaVu Sans;font-size:12.0px;font-style:normal;text-anchor:middle;" transform="rotate(-0.000000, 163.800000, 252.259875)" x="163.8" y="252.259875">4</text>
     </g>
    </g>
    <g id="xtick_4">
     <g id="line2d_22">
      <path clip-path="url(#p6275cb0451)" d="
M219.6 239.142
L219.6 23.1418" style="fill:none;stroke:#000000;stroke-dasharray:1.000000,3.000000;stroke-dashoffset:0.0;stroke-width:0.5;"/>
     </g>
     <g id="line2d_23">
      <g>
       <use style="stroke:#000000;stroke-width:0.5;" x="219.6" xlink:href="#m93b0483c22" y="239.14175"/>
      </g>
     </g>
     <g id="line2d_24">
      <g>
       <use style="stroke:#000000;stroke-width:0.5;" x="219.6" xlink:href="#m741efc42ff" y="23.14175"/>
      </g>
     </g>
     <g id="text_4">
      <text style="font-family:DejaVu Sans;font-size:12.0px;font-style:normal;text-anchor:middle;" transform="rotate(-0.000000, 219.600000, 252.259875)" x="219.6" y="252.259875">6</text>
     </g>
    </g>
    <g id="xtick_5">
     <g id="line2d_25">
      <path clip-path="url(#p6275cb0451)" d="
M275.4 239.142
L275.4 23.1418" style="fill:none;stroke:#000000;stroke-dasharray:1.000000,3.000000;stroke-dashoffset:0.0;stroke-width:0.5;"/>
     </g>
     <g id="line2d_26">
      <g>
       <use style="stroke:#000000;stroke-width:0.5;" x="275.4" xlink:href="#m93b0483c22" y="239.14175"/>
      </g>
     </g>
     <g id="line2d_27">
      <g>
       <use style="stroke:#000000;stroke-width:0.5;" x="275.4" xlink:href="#m741efc42ff" y="23.14175"/>
      </g>
     </g>
     <g id="text_5">
      <text style="font-family:DejaVu Sans;font-size:12.0px;font-style:normal;text-anchor:middle;" transform="rotate(-0.000000, 275.400000, 252.259875)" x="275.4" y="252.259875">8</text>
     </g>
    </g>
    <g id="xtick_6">
     <g id="line2d_28">
      <path clip-path="url(#p6275cb0451)" d="
M331.2 239.142
L331.2 23.1418" style="fill:none;stroke:#000000;stroke-dasharray:1.000000,3.000000;stroke-dashoffset:0.0;stroke-width:0.5;"/>
     </g>
     <g id="line2d_29">
      <g>
       <use style="stroke:#000000;stroke-width:0.5;" x="331.2" xlink:href="#m93b0483c22" y="239.14175"/>
      </g>
     </g>
     <g id="line2d_30">
      <g>
       <use style="stroke:#000000;stroke-width:0.5;" x="331.2" xlink:href="#m741efc42ff" y="23.14175"/>
      </g>
     </g>
     <g id="text_6">
      <text style="font-family:DejaVu Sans;font-size:12.0px;font-style:normal;text-anchor:middle;" transform="rotate(-0.000000, 331.200000, 252.259875)" x="331.2" y="252.259875">10</text>
     </g>
    </g>
    <g id="xtick_7">
     <g id="line2d_31">
      <defs>
       <path d="
M0 0
L0 -2" id="m177f7580d0" style="stroke:#000000;stroke-width:0.5;"/>
      </defs>
      <g>
       <use style="stroke:#000000;stroke-width:0.5;" x="52.2" xlink:href="#m177f7580d0" y="239.14175"/>
      </g>
     </g>
     <g id="line2d_32">
      <defs>
       <path d="
M0 0
L0 2" id="m5284c7e2a0" style="stroke:#000000;stroke-width:0.5;"/>
      </defs>
      <g>
       <use style="stroke:#000000;stroke-width:0.5;" x="52.2" xlink:href="#m5284c7e2a0" y="23.14175"/>
      </g>
     </g>
    </g>
    <g id="xtick_8">
     <g id="line2d_33">
      <g>
       <use style="stroke:#000000;stroke-width:0.5;" x="80.1" xlink:href="#m177f7580d0" y="239.14175"/>
      </g>
     </g>
     <g id="line2d_34">
      <g>
       <use style="stroke:#000000;stroke-width:0.5;" x="80.1" xlink:href="#m5284c7e2a0" y="23.14175"/>
      </g>
     </g>
    </g>
    <g id="xtick_9">
     <g id="line2d_35">
      <g>
       <use style="stroke:#000000;stroke-width:0.5;" x="108.0" xlink:href="#m177f7580d0" y="239.14175"/>
      </g>
     </g>
     <g id="line2d_36">
      <g>
       <use style="stroke:#000000;stroke-width:0.5;" x="108.0" xlink:href="#m5284c7e2a0" y="23.14175"/>
      </g>
     </g>
    </g>
    <g id="xtick_10">
     <g id="line2d_37">
      <g>
       <use style="stroke:#000000;stroke-width:0.5;" x="135.9" xlink:href="#m177f7580d0" y="239.14175"/>
      </g>
     </g>
     <g id="line2d_38">
      <g>
       <use style="stroke:#000000;stroke-width:0.5;" x="135.9" xlink:href="#m5284c7e2a0" y="23.14175"/>
      </g>
     </g>
    </g>
    <g id="xtick_11">
     <g id="line2d_39">
      <g>
       <use style="stroke:#000000;stroke-width:0.5;" x="163.8" xlink:href="#m177f7580d0" y="239.14175"/>
      </g>
     </g>
     <g id="line2d_40">
      <g>
       <use style="stroke:#000000;stroke-width:0.5;" x="163.8" xlink:href="#m5284c7e2a0" y="23.14175"/>
      </g>
     </g>
    </g>
    <g id="xtick_12">
     <g id="line2d_41">
      <g>
       <use style="stroke:#000000;stroke-width:0.5;" x="191.7" xlink:href="#m177f7580d0" y="239.14175"/>
      </g>
     </g>
     <g id="line2d_42">
      <g>
       <use style="stroke:#000000;stroke-width:0.5;" x="191.7" xlink:href="#m5284c7e2a0" y="23.14175"/>
      </g>
     </g>
    </g>
    <g id="xtick_13">
     <g id="line2d_43">
      <g>
       <use style="stroke:#000000;stroke-width:0.5;" x="219.6" xlink:href="#m177f7580d0" y="239.14175"/>
      </g>
     </g>
     <g id="line2d_44">
      <g>
       <use style="stroke:#000000;stroke-width:0.5;" x="219.6" xlink:href="#m5284c7e2a0" y="23.14175"/>
      </g>
     </g>
    </g>
    <g id="xtick_14">
     <g id="line2d_45">
      <g>
       <use style="stroke:#000000;stroke-width:0.5;" x="247.5" xlink:href="#m177f7580d0" y="239.14175"/>
      </g>
     </g>
     <g id="line2d_46">
      <g>
       <use style="stroke:#000000;stroke-width:0.5;" x="247.5" xlink:href="#m5284c7e2a0" y="23.14175"/>
      </g>
     </g>
    </g>
    <g id="xtick_15">
     <g id="line2d_47">
      <g>
       <use style="stroke:#000000;stroke-width:0.5;" x="275.4" xlink:href="#m177f7580d0" y="239.14175"/>
      </g>
     </g>
     <g id="line2d_48">
      <g>
       <use style="stroke:#000000;stroke-width:0.5;" x="275.4" xlink:href="#m5284c7e2a0" y="23.14175"/>
      </g>
     </g>
    </g>
    <g id="xtick_16">
     <g id="line2d_49">
      <g>
       <use style="stroke:#000000;stroke-width:0.5;" x="303.3" xlink:href="#m177f7580d0" y="239.14175"/>
      </g>
     </g>
     <g id="line2d_50">
      <g>
       <use style="stroke:#000000;stroke-width:0.5;" x="303.3" xlink:href="#m5284c7e2a0" y="23.14175"/>
      </g>
     </g>
    </g>
    <g id="xtick_17">
     <g id="line2d_51">
      <g>
       <use style="stroke:#000000;stroke-width:0.5;" x="331.2" xlink:href="#m177f7580d0" y="239.14175"/>
      </g>
     </g>
     <g id="line2d_52">
      <g>
       <use style="stroke:#000000;stroke-width:0.5;" x="331.2" xlink:href="#m5284c7e2a0" y="23.14175"/>
      </g>
     </g>
    </g>
    <g id="text_7">
     <text style="font-family:DejaVu Sans;font-size:12.0px;font-style:normal;text-anchor:middle;" transform="rotate(-0.000000, 191.700000, 268.873625)" x="191.7" y="268.873625">$t$ [ps]</text>
    </g>
   </g>
   <g id="matplotlib.axis_2">
    <g id="ytick_1">
     <g id="line2d_53">
      <path clip-path="url(#p6275cb0451)" d="
M52.2 239.142
L331.2 239.142" style="fill:none;stroke:#000000;stroke-dasharray:1.000000,3.000000;stroke-dashoffset:0.0;stroke-width:0.5;"/>
     </g>
     <g id="line2d_54">
      <defs>
       <path d="
M0 0
L4 0" id="m728421d6d4" style="stroke:#000000;stroke-width:0.5;"/>
      </defs>
      <g>
       <use style="stroke:#000000;stroke-width:0.5;" x="52.2" xlink:href="#m728421d6d4" y="239.14175"/>
      </g>
     </g>
     <g id="line2d_55">
      <defs>
       <path d="
M0 0
L-4 0" id="mcb0005524f" style="stroke:#000000;stroke-width:0.5;"/>
      </defs>
      <g>
       <use style="stroke:#000000;stroke-width:0.5;" x="331.2" xlink:href="#mcb0005524f" y="239.14175"/>
      </g>
     </g>
     <g id="text_8">
      <text style="font-family:DejaVu Sans;font-size:12.0px;font-style:normal;text-anchor:end;" transform="rotate(-0.000000, 48.200000, 242.453000)" x="48.2" y="242.453">0.0</text>
     </g>
    </g>
    <g id="ytick_2">
     <g id="line2d_56">
      <path clip-path="url(#p6275cb0451)" d="
M52.2 191.142
L331.2 191.142" style="fill:none;stroke:#000000;stroke-dasharray:1.000000,3.000000;stroke-dashoffset:0.0;stroke-width:0.5;"/>
     </g>
     <g id="line2d_57">
      <g>
       <use style="stroke:#000000;stroke-width:0.5;" x="52.2" xlink:href="#m728421d6d4" y="191.14175"/>
      </g>
     </g>
     <g id="line2d_58">
      <g>
       <use style="stroke:#000000;stroke-width:0.5;" x="331.2" xlink:href="#mcb0005524f" y="191.14175"/>
      </g>
     </g>
     <g id="text_9">
      <text style="font-family:DejaVu Sans;font-size:12.0px;font-style:normal;text-anchor:end;" transform="rotate(-0.000000, 48.200000, 194.453000)" x="48.2" y="194.453">0.1</text>
     </g>
    </g>
    <g id="ytick_3">
     <g id="line2d_59">
      <path clip-path="url(#p6275cb0451)" d="
M52.2 143.142
L331.2 143.142" style="fill:none;stroke:#000000;stroke-dasharray:1.000000,3.000000;stroke-dashoffset:0.0;stroke-width:0.5;"/>
     </g>
     <g id="line2d_60">
      <g>
       <use style="stroke:#000000;stroke-width:0.5;" x="52.2" xlink:href="#m728421d6d4" y="143.14175"/>
      </g>
     </g>
     <g id="line2d_61">
      <g>
       <use style="stroke:#000000;stroke-width:0.5;" x="331.2" xlink:href="#mcb0005524f" y="143.14175"/>
      </g>
     </g>
     <g id="text_10">
      <text style="font-family:DejaVu Sans;font-size:12.0px;font-style:normal;text-anchor:end;" transform="rotate(-0.000000, 48.200000, 146.453000)" x="48.2" y="146.453">0.2</text>
     </g>
    </g>
    <g id="ytick_4">
     <g id="line2d_62">
      <path clip-path="url(#p6275cb0451)" d="
M52.2 95.1417
L331.2 95.1417" style="fill:none;stroke:#000000;stroke-dasharray:1.000000,3.000000;stroke-dashoffset:0.0;stroke-width:0.5;"/>
     </g>
     <g id="line2d_63">
      <g>
       <use style="stroke:#000000;stroke-width:0.5;" x="52.2" xlink:href="#m728421d6d4" y="95.14175"/>
      </g>
     </g>
     <g id="line2d_64">
      <g>
       <use style="stroke:#000000;stroke-width:0.5;" x="331.2" xlink:href="#mcb0005524f" y="95.14175"/>
      </g>
     </g>
     <g id="text_11">
      <text style="font-family:DejaVu Sans;font-size:12.0px;font-style:normal;text-anchor:end;" transform="rotate(-0.000000, 48.200000, 98.453000)" x="48.2" y="98.453">0.3</text>
     </g>
    </g>
    <g id="ytick_5">
     <g id="line2d_65">
      <path clip-path="url(#p6275cb0451)" d="
M52.2 47.1418
L331.2 47.1418" style="fill:none;stroke:#000000;stroke-dasharray:1.000000,3.000000;stroke-dashoffset:0.0;stroke-width:0.5;"/>
     </g>
     <g id="line2d_66">
      <g>
       <use style="stroke:#000000;stroke-width:0.5;" x="52.2" xlink:href="#m728421d6d4" y="47.14175"/>
      </g>
     </g>
     <g id="line2d_67">
      <g>
       <use style="stroke:#000000;stroke-width:0.5;" x="331.2" xlink:href="#mcb0005524f" y="47.14175"/>
      </g>
     </g>
     <g id="text_12">
      <text style="font-family:DejaVu Sans;font-size:12.0px;font-style:normal;text-anchor:end;" transform="rotate(-0.000000, 48.200000, 50.453000)" x="48.2" y="50.453">0.4</text>
     </g>
    </g>
    <g id="ytick_6">
     <g id="line2d_68">
      <defs>
       <path d="
M0 0
L2 0" id="mf0c55a9a47" style="stroke:#000000;stroke-width:0.5;"/>
      </defs>
      <g>
       <use style="stroke:#000000;stroke-width:0.5;" x="52.2" xlink:href="#mf0c55a9a47" y="239.14175"/>
      </g>
     </g>
     <g id="line2d_69">
      <defs>
       <path d="
M0 0
L-2 0" id="ma4f294b3af" style="stroke:#000000;stroke-width:0.5;"/>
      </defs>
      <g>
       <use style="stroke:#000000;stroke-width:0.5;" x="331.2" xlink:href="#ma4f294b3af" y="239.14175"/>
      </g>
     </g>
    </g>
    <g id="ytick_7">
     <g id="line2d_70">
      <g>
       <use style="stroke:#000000;stroke-width:0.5;" x="52.2" xlink:href="#mf0c55a9a47" y="215.14175"/>
      </g>
     </g>
     <g id="line2d_71">
      <g>
       <use style="stroke:#000000;stroke-width:0.5;" x="331.2" xlink:href="#ma4f294b3af" y="215.14175"/>
      </g>
     </g>
    </g>
    <g id="ytick_8">
     <g id="line2d_72">
      <g>
       <use style="stroke:#000000;stroke-width:0.5;" x="52.2" xlink:href="#mf0c55a9a47" y="191.14175"/>
      </g>
     </g>
     <g id="line2d_73">
      <g>
       <use style="stroke:#000000;stroke-width:0.5;" x="331.2" xlink:href="#ma4f294b3af" y="191.14175"/>
      </g>
     </g>
    </g>
    <g id="ytick_9">
     <g id="line2d_74">
      <g>
       <use style="stroke:#000000;stroke-width:0.5;" x="52.2" xlink:href="#mf0c55a9a47" y="167.14175"/>
      </g>
     </g>
     <g id="line2d_75">
      <g>
       <use style="stroke:#000000;stroke-width:0.5;" x="331.2" xlink:href="#ma4f294b3af" y="167.14175"/>
      </g>
     </g>
    </g>
    <g id="ytick_10">
     <g id="line2d_76">
      <g>
       <use style="stroke:#000000;stroke-width:0.5;" x="52.2" xlink:href="#mf0c55a9a47" y="143.14175"/>
      </g>
     </g>
     <g id="line2d_77">
      <g>
       <use style="stroke:#000000;stroke-width:0.5;" x="331.2" xlink:href="#ma4f294b3af" y="143.14175"/>
      </g>
     </g>
    </g>
    <g id="ytick_11">
     <g id="line2d_78">
      <g>
       <use style="stroke:#000000;stroke-width:0.5;" x="52.2" xlink:href="#mf0c55a9a47" y="119.14175"/>
      </g>
     </g>
     <g id="line2d_79">
      <g>
       <use style="stroke:#000000;stroke-width:0.5;" x="331.2" xlink:href="#ma4f294b3af" y="119.14175"/>
      </g>
     </g>
    </g>
    <g id="ytick_12">
     <g id="line2d_80">
      <g>
       <use style="stroke:#000000;stroke-width:0.5;" x="52.2" xlink:href="#mf0c55a9a47" y="95.14175"/>
      </g>
     </g>
     <g id="line2d_81">
      <g>
       <use style="stroke:#000000;stroke-width:0.5;" x="331.2" xlink:href="#ma4f294b3af" y="95.14175"/>
      </g>
     </g>
    </g>
    <g id="ytick_13">
     <g id="line2d_82">
      <g>
       <use style="stroke:#000000;stroke-width:0.5;" x="52.2" xlink:href="#mf0c55a9a47" y="71.14175"/>
      </g>
     </g>
     <g id="line2d_83">
      <g>
       <use style="stroke:#000000;stroke-width:0.5;" x="331.2" xlink:href="#ma4f294b3af" y="71.14175"/>
      </g>
     </g>
    </g>
    <g id="ytick_14">
     <g id="line2d_84">
      <g>
       <use style="stroke:#000000;stroke-width:0.5;" x="52.2" xlink:href="#mf0c55a9a47" y="47.14175"/>
      </g>
     </g>
     <g id="line2d_85">
      <g>
       <use style="stroke:#000000;stroke-width:0.5;" x="331.2" xlink:href="#ma4f294b3af" y="47.14175"/>
      </g>
     </g>
    </g>
    <g id="ytick_15">
     <g id="line2d_86">
      <g>
       <use style="stroke:#000000;stroke-width:0.5;" x="52.2" xlink:href="#mf0c55a9a47" y="23.14175"/>
      </g>
     </g>
     <g id="line2d_87">
      <g>
       <use style="stroke:#000000;stroke-width:0.5;" x="331.2" xlink:href="#ma4f294b3af" y="23.14175"/>
      </g>
     </g>
    </g>
    <g id="text_13">
     <text style="font-family:DejaVu Sans;font-size:12.0px;font-style:normal;text-anchor:middle;" transform="rotate(-90.000000, 23.085000, 131.141750)" x="23.085" y="131.14175">$r^2/6t$ [\AA$^2$/ps]</text>
    </g>
   </g>
   <g id="patch_3">
    <path d="
M52.2 23.1418
L331.2 23.1418" style="fill:none;stroke:#000000;"/>
   </g>
   <g id="patch_4">
    <path d="
M331.2 239.142
L331.2 23.1418" style="fill:none;stroke:#000000;"/>
   </g>
   <g id="patch_5">
    <path d="
M52.2 239.142
L331.2 239.142" style="fill:none;stroke:#000000;"/>
   </g>
   <g id="patch_6">
    <path d="
M52.2 239.142
L52.2 23.1418" style="fill:none;stroke:#000000;"/>
   </g>
   <g id="text_14">
    <text style="font-family:DejaVu Sans;font-size:14.4px;font-style:normal;text-anchor:middle;" transform="rotate(-0.000000, 191.700000, 18.141750)" x="191.7" y="18.14175">Diffusion $r^2(t)/6t$</text>
   </g>
   <g id="patch_7">
    <path clip-path="url(#p6275cb0451)" d="
M7.2 266.142
L8.1 266.142
L8.1 265.242
L7.2 265.242
L7.2 266.142
z
" style="fill:#ffffff;stroke:#000000;"/>
   </g>
   <g id="legend_1">
    <g id="patch_8">
     <path d="
M7.2 266.142
L154.946 266.142
L154.946 175.109
L7.2 175.109
L7.2 266.142
z
" style="fill:none;opacity:0.0;"/>
    </g>
    <g id="line2d_88">
     <path d="
M14.1972 183.205
L28.1916 183.205" style="fill:none;stroke:#000000;stroke-linecap:square;"/>
    </g>
    <g id="line2d_89"/>
    <g id="text_15">
     <text style="font-family:DejaVu Sans;font-size:9.996px;font-style:normal;text-anchor:start;" transform="rotate(-0.000000, 39.187200, 186.703226)" x="39.1872" y="186.703225625">{\f $r = [0.0, 0.5)$}</text>
    </g>
    <g id="line2d_90">
     <path d="
M14.1972 197.877
L28.1916 197.877" style="fill:none;stroke:#bfbf00;stroke-linecap:square;"/>
    </g>
    <g id="line2d_91"/>
    <g id="text_16">
     <text style="font-family:DejaVu Sans;font-size:9.996px;font-style:normal;text-anchor:start;" transform="rotate(-0.000000, 39.187200, 201.375479)" x="39.1872" y="201.375479375">{\f $r = [2.5, 3.0)$}</text>
    </g>
    <g id="line2d_92">
     <path d="
M14.1972 212.549
L28.1916 212.549" style="fill:none;stroke:#bf00bf;stroke-linecap:square;"/>
    </g>
    <g id="line2d_93"/>
    <g id="text_17">
     <text style="font-family:DejaVu Sans;font-size:9.996px;font-style:normal;text-anchor:start;" transform="rotate(-0.000000, 39.187200, 216.047733)" x="39.1872" y="216.047733125">{\f $r = [5.0, 5.5)$}</text>
    </g>
    <g id="line2d_94">
     <path d="
M14.1972 227.221
L28.1916 227.221" style="fill:none;stroke:#00bfbf;stroke-linecap:square;"/>
    </g>
    <g id="line2d_95"/>
    <g id="text_18">
     <text style="font-family:DejaVu Sans;font-size:9.996px;font-style:normal;text-anchor:start;" transform="rotate(-0.000000, 39.187200, 230.719987)" x="39.1872" y="230.719986875">{\f $r = [7.5, 8.0)$}</text>
    </g>
    <g id="line2d_96">
     <path d="
M14.1972 241.894
L28.1916 241.894" style="fill:none;stroke:#0000ff;stroke-linecap:square;"/>
    </g>
    <g id="line2d_97"/>
    <g id="text_19">
     <text style="font-family:DejaVu Sans;font-size:9.996px;font-style:normal;text-anchor:start;" transform="rotate(-0.000000, 39.187200, 245.392241)" x="39.1872" y="245.392240625">{\f $r = [10.0, 10.5)$}</text>
    </g>
    <g id="line2d_98">
     <path d="
M14.1972 256.566
L28.1916 256.566" style="fill:none;stroke:#008000;stroke-linecap:square;"/>
    </g>
    <g id="line2d_99"/>
    <g id="text_20">
     <text style="font-family:DejaVu Sans;font-size:9.996px;font-style:normal;text-anchor:start;" transform="rotate(-0.000000, 39.187200, 260.064494)" x="39.1872" y="260.064494375">{\f Bulk}</text>
    </g>
   </g>
  </g>
 </g>
 <defs>
  <clipPath id="p6275cb0451">
   <rect height="216.0" width="279.0" x="52.2" y="23.14175"/>
  </clipPath>
 </defs>
</svg>
