<?xml version="1.0" encoding="UTF-8" standalone="no"?>
<!-- Created with Inkscape (http://www.inkscape.org/) -->

<svg
   xmlns:dc="http://purl.org/dc/elements/1.1/"
   xmlns:cc="http://creativecommons.org/ns#"
   xmlns:rdf="http://www.w3.org/1999/02/22-rdf-syntax-ns#"
   xmlns:svg="http://www.w3.org/2000/svg"
   xmlns="http://www.w3.org/2000/svg"
   xmlns:sodipodi="http://sodipodi.sourceforge.net/DTD/sodipodi-0.dtd"
   xmlns:inkscape="http://www.inkscape.org/namespaces/inkscape"
   width="744.09448819"
   height="1052.3622047"
   id="svg27989"
   version="1.1"
   inkscape:version="0.48.4 r9939"
   sodipodi:docname="increase_resolution_solarized.svg">
  <defs
     id="defs27991" />
  <sodipodi:namedview
     id="base"
     pagecolor="#ffffff"
     bordercolor="#666666"
     borderopacity="1.0"
     inkscape:pageopacity="0.0"
     inkscape:pageshadow="2"
     inkscape:zoom="2.8284271"
     inkscape:cx="186.54974"
     inkscape:cy="1009.0136"
     inkscape:document-units="px"
     inkscape:current-layer="layer1"
     showgrid="false"
     inkscape:snap-bbox="true"
     inkscape:window-width="1912"
     inkscape:window-height="1155"
     inkscape:window-x="0"
     inkscape:window-y="220"
     inkscape:window-maximized="0"
     inkscape:snap-bbox-midpoints="true">
    <inkscape:grid
       type="xygrid"
       id="grid27997"
       empspacing="5"
       visible="true"
       enabled="true"
       snapvisiblegridlinesonly="true"
       spacingx="0.5px"
       spacingy="0.5px" />
  </sodipodi:namedview>
  <metadata
     id="metadata27994">
    <rdf:RDF>
      <cc:Work
         rdf:about="">
        <dc:format>image/svg+xml</dc:format>
        <dc:type
           rdf:resource="http://purl.org/dc/dcmitype/StillImage" />
        <dc:title></dc:title>
      </cc:Work>
    </rdf:RDF>
  </metadata>
  <g
     inkscape:label="Layer 1"
     inkscape:groupmode="layer"
     id="layer1">
    <g
       id="g28670">
      <rect
         y="10.862184"
         x="28.5"
         height="98"
         width="98"
         id="use19473-5"
         style="fill:#f0f0f0;fill-opacity:1;stroke:#073642;stroke-width:2;stroke-miterlimit:4;stroke-opacity:1;stroke-dasharray:none;display:inline;opacity:1" />
      <rect
         y="10.862183"
         x="138.5"
         height="98"
         width="98"
         id="use19473-5-9"
         style="fill:#f0f0f0;fill-opacity:1;stroke:#073642;stroke-width:2;stroke-miterlimit:4;stroke-opacity:1;stroke-dasharray:none;display:inline;opacity:1" />
      <rect
         y="10.862184"
         x="248.49998"
         height="98"
         width="98"
         id="use19473-5-9-5"
         style="fill:#f0f0f0;fill-opacity:1;stroke:#073642;stroke-width:2;stroke-miterlimit:4;stroke-opacity:1;stroke-dasharray:none;display:inline;opacity:1" />
    </g>
    <g
       id="g28631">
      <path
         transform="translate(-57.5,-17.499976)"
         d="m 100,77.362183 a 5,5 0 1 1 -10,0 5,5 0 1 1 10,0 z"
         sodipodi:ry="5"
         sodipodi:rx="5"
         sodipodi:cy="77.362183"
         sodipodi:cx="95"
         id="path2993-14-7-4-9-5-1-3"
         style="fill:#93a1a1;fill-opacity:1;stroke:none;display:inline"
         sodipodi:type="arc" />
      <path
         transform="translate(-17.499999,-17.499976)"
         d="m 100,77.362183 a 5,5 0 1 1 -10,0 5,5 0 1 1 10,0 z"
         sodipodi:ry="5"
         sodipodi:rx="5"
         sodipodi:cy="77.362183"
         sodipodi:cx="95"
         id="path2993-89-1-4-2-7-5-4"
         style="fill:#93a1a1;fill-opacity:1;stroke:none;display:inline"
         sodipodi:type="arc" />
      <path
         transform="translate(-17.499999,-57.499975)"
         d="m 100,77.362183 a 5,5 0 1 1 -10,0 5,5 0 1 1 10,0 z"
         sodipodi:ry="5"
         sodipodi:rx="5"
         sodipodi:cy="77.362183"
         sodipodi:cx="95"
         id="path2993-8-8-6-8-4-4-3"
         style="fill:#93a1a1;fill-opacity:1;stroke:none;display:inline"
         sodipodi:type="arc" />
      <path
         transform="translate(-57.5,-57.499975)"
         d="m 100,77.362183 a 5,5 0 1 1 -10,0 5,5 0 1 1 10,0 z"
         sodipodi:ry="5"
         sodipodi:rx="5"
         sodipodi:cy="77.362183"
         sodipodi:cx="95"
         id="path2993-0-4-4-0-5-0"
         style="fill:#93a1a1;fill-opacity:1;stroke:none;display:inline"
         sodipodi:type="arc" />
      <path
         transform="translate(22.500001,-17.499986)"
         d="m 100,77.362183 a 5,5 0 1 1 -10,0 5,5 0 1 1 10,0 z"
         sodipodi:ry="5"
         sodipodi:rx="5"
         sodipodi:cy="77.362183"
         sodipodi:cx="95"
         id="path2993-14-7-4-9-5-1-3-4"
         style="fill:#93a1a1;fill-opacity:1;stroke:none;display:inline"
         sodipodi:type="arc" />
      <path
         transform="translate(22.500001,-57.499985)"
         d="m 100,77.362183 a 5,5 0 1 1 -10,0 5,5 0 1 1 10,0 z"
         sodipodi:ry="5"
         sodipodi:rx="5"
         sodipodi:cy="77.362183"
         sodipodi:cx="95"
         id="path2993-8-8-6-8-4-4-3-9"
         style="fill:#93a1a1;fill-opacity:1;stroke:none;display:inline"
         sodipodi:type="arc" />
      <path
         transform="translate(22.500001,22.500015)"
         d="m 100,77.362183 a 5,5 0 1 1 -10,0 5,5 0 1 1 10,0 z"
         sodipodi:ry="5"
         sodipodi:rx="5"
         sodipodi:cy="77.362183"
         sodipodi:cx="95"
         id="path2993-14-7-4-9-5-1-3-4-1"
         style="fill:#93a1a1;fill-opacity:1;stroke:none;display:inline"
         sodipodi:type="arc" />
      <path
         transform="translate(-17.499999,22.500015)"
         d="m 100,77.362183 a 5,5 0 1 1 -10,0 5,5 0 1 1 10,0 z"
         sodipodi:ry="5"
         sodipodi:rx="5"
         sodipodi:cy="77.362183"
         sodipodi:cx="95"
         id="path2993-14-7-4-9-5-1-3-4-1-6"
         style="fill:#93a1a1;fill-opacity:1;stroke:none;display:inline"
         sodipodi:type="arc" />
      <path
         transform="translate(-57.5,22.500015)"
         d="m 100,77.362183 a 5,5 0 1 1 -10,0 5,5 0 1 1 10,0 z"
         sodipodi:ry="5"
         sodipodi:rx="5"
         sodipodi:cy="77.362183"
         sodipodi:cx="95"
         id="path2993-14-7-4-9-5-1-3-4-1-4"
         style="fill:#93a1a1;fill-opacity:1;stroke:none;display:inline"
         sodipodi:type="arc" />
      <path
         transform="translate(52.5,-17.499986)"
         d="m 100,77.362183 a 5,5 0 1 1 -10,0 5,5 0 1 1 10,0 z"
         sodipodi:ry="5"
         sodipodi:rx="5"
         sodipodi:cy="77.362183"
         sodipodi:cx="95"
         id="path2993-14-7-4-9-5-1-3-5"
         style="fill:#93a1a1;fill-opacity:1;stroke:none;display:inline"
         sodipodi:type="arc" />
      <path
         transform="translate(92.5,-17.499986)"
         d="m 100,77.362183 a 5,5 0 1 1 -10,0 5,5 0 1 1 10,0 z"
         sodipodi:ry="5"
         sodipodi:rx="5"
         sodipodi:cy="77.362183"
         sodipodi:cx="95"
         id="path2993-89-1-4-2-7-5-4-2"
         style="fill:#93a1a1;fill-opacity:1;stroke:none;display:inline"
         sodipodi:type="arc" />
      <path
         transform="translate(92.5,-57.499985)"
         d="m 100,77.362183 a 5,5 0 1 1 -10,0 5,5 0 1 1 10,0 z"
         sodipodi:ry="5"
         sodipodi:rx="5"
         sodipodi:cy="77.362183"
         sodipodi:cx="95"
         id="path2993-8-8-6-8-4-4-3-1"
         style="fill:#93a1a1;fill-opacity:1;stroke:none;display:inline"
         sodipodi:type="arc" />
      <path
         transform="translate(52.5,-57.499985)"
         d="m 100,77.362183 a 5,5 0 1 1 -10,0 5,5 0 1 1 10,0 z"
         sodipodi:ry="5"
         sodipodi:rx="5"
         sodipodi:cy="77.362183"
         sodipodi:cx="95"
         id="path2993-0-4-4-0-5-0-5"
         style="fill:#93a1a1;fill-opacity:1;stroke:none;display:inline"
         sodipodi:type="arc" />
      <path
         transform="translate(132.5,-17.499996)"
         d="m 100,77.362183 a 5,5 0 1 1 -10,0 5,5 0 1 1 10,0 z"
         sodipodi:ry="5"
         sodipodi:rx="5"
         sodipodi:cy="77.362183"
         sodipodi:cx="95"
         id="path2993-14-7-4-9-5-1-3-4-5"
         style="fill:#93a1a1;fill-opacity:1;stroke:none;display:inline"
         sodipodi:type="arc" />
      <path
         transform="translate(132.5,-57.499995)"
         d="m 100,77.362183 a 5,5 0 1 1 -10,0 5,5 0 1 1 10,0 z"
         sodipodi:ry="5"
         sodipodi:rx="5"
         sodipodi:cy="77.362183"
         sodipodi:cx="95"
         id="path2993-8-8-6-8-4-4-3-9-9"
         style="fill:#93a1a1;fill-opacity:1;stroke:none;display:inline"
         sodipodi:type="arc" />
      <path
         transform="translate(132.5,22.500005)"
         d="m 100,77.362183 a 5,5 0 1 1 -10,0 5,5 0 1 1 10,0 z"
         sodipodi:ry="5"
         sodipodi:rx="5"
         sodipodi:cy="77.362183"
         sodipodi:cx="95"
         id="path2993-14-7-4-9-5-1-3-4-1-7"
         style="fill:#93a1a1;fill-opacity:1;stroke:none;display:inline"
         sodipodi:type="arc" />
      <path
         transform="translate(92.5,22.500005)"
         d="m 100,77.362183 a 5,5 0 1 1 -10,0 5,5 0 1 1 10,0 z"
         sodipodi:ry="5"
         sodipodi:rx="5"
         sodipodi:cy="77.362183"
         sodipodi:cx="95"
         id="path2993-14-7-4-9-5-1-3-4-1-6-2"
         style="fill:#93a1a1;fill-opacity:1;stroke:none;display:inline"
         sodipodi:type="arc" />
      <path
         transform="translate(52.5,22.500005)"
         d="m 100,77.362183 a 5,5 0 1 1 -10,0 5,5 0 1 1 10,0 z"
         sodipodi:ry="5"
         sodipodi:rx="5"
         sodipodi:cy="77.362183"
         sodipodi:cx="95"
         id="path2993-14-7-4-9-5-1-3-4-1-4-3"
         style="fill:#93a1a1;fill-opacity:1;stroke:none;display:inline"
         sodipodi:type="arc" />
      <path
         transform="translate(162.5,-17.499956)"
         d="m 100,77.362183 a 5,5 0 1 1 -10,0 5,5 0 1 1 10,0 z"
         sodipodi:ry="5"
         sodipodi:rx="5"
         sodipodi:cy="77.362183"
         sodipodi:cx="95"
         id="path2993-14-7-4-9-5-1-3-5-4"
         style="fill:#93a1a1;fill-opacity:1;stroke:none;display:inline"
         sodipodi:type="arc" />
      <path
         transform="translate(202.5,-17.499956)"
         d="m 100,77.362183 a 5,5 0 1 1 -10,0 5,5 0 1 1 10,0 z"
         sodipodi:ry="5"
         sodipodi:rx="5"
         sodipodi:cy="77.362183"
         sodipodi:cx="95"
         id="path2993-89-1-4-2-7-5-4-2-1"
         style="fill:#93a1a1;fill-opacity:1;stroke:none;display:inline"
         sodipodi:type="arc" />
      <path
         transform="translate(202.5,-57.499965)"
         d="m 100,77.362183 a 5,5 0 1 1 -10,0 5,5 0 1 1 10,0 z"
         sodipodi:ry="5"
         sodipodi:rx="5"
         sodipodi:cy="77.362183"
         sodipodi:cx="95"
         id="path2993-8-8-6-8-4-4-3-1-6"
         style="fill:#93a1a1;fill-opacity:1;stroke:none;display:inline"
         sodipodi:type="arc" />
      <path
         transform="translate(162.5,-57.499965)"
         d="m 100,77.362183 a 5,5 0 1 1 -10,0 5,5 0 1 1 10,0 z"
         sodipodi:ry="5"
         sodipodi:rx="5"
         sodipodi:cy="77.362183"
         sodipodi:cx="95"
         id="path2993-0-4-4-0-5-0-5-3"
         style="fill:#93a1a1;fill-opacity:1;stroke:none;display:inline"
         sodipodi:type="arc" />
      <path
         transform="translate(242.5,-17.499966)"
         d="m 100,77.362183 a 5,5 0 1 1 -10,0 5,5 0 1 1 10,0 z"
         sodipodi:ry="5"
         sodipodi:rx="5"
         sodipodi:cy="77.362183"
         sodipodi:cx="95"
         id="path2993-14-7-4-9-5-1-3-4-5-1"
         style="fill:#93a1a1;fill-opacity:1;stroke:none;display:inline"
         sodipodi:type="arc" />
      <path
         transform="translate(242.5,-57.499975)"
         d="m 100,77.362183 a 5,5 0 1 1 -10,0 5,5 0 1 1 10,0 z"
         sodipodi:ry="5"
         sodipodi:rx="5"
         sodipodi:cy="77.362183"
         sodipodi:cx="95"
         id="path2993-8-8-6-8-4-4-3-9-9-0"
         style="fill:#93a1a1;fill-opacity:1;stroke:none;display:inline"
         sodipodi:type="arc" />
      <path
         transform="translate(242.5,22.500035)"
         d="m 100,77.362183 a 5,5 0 1 1 -10,0 5,5 0 1 1 10,0 z"
         sodipodi:ry="5"
         sodipodi:rx="5"
         sodipodi:cy="77.362183"
         sodipodi:cx="95"
         id="path2993-14-7-4-9-5-1-3-4-1-7-7"
         style="fill:#93a1a1;fill-opacity:1;stroke:none;display:inline"
         sodipodi:type="arc" />
      <path
         transform="translate(202.5,22.500035)"
         d="m 100,77.362183 a 5,5 0 1 1 -10,0 5,5 0 1 1 10,0 z"
         sodipodi:ry="5"
         sodipodi:rx="5"
         sodipodi:cy="77.362183"
         sodipodi:cx="95"
         id="path2993-14-7-4-9-5-1-3-4-1-6-2-1"
         style="fill:#93a1a1;fill-opacity:1;stroke:none;display:inline"
         sodipodi:type="arc" />
      <path
         transform="translate(162.5,22.500035)"
         d="m 100,77.362183 a 5,5 0 1 1 -10,0 5,5 0 1 1 10,0 z"
         sodipodi:ry="5"
         sodipodi:rx="5"
         sodipodi:cy="77.362183"
         sodipodi:cx="95"
         id="path2993-14-7-4-9-5-1-3-4-1-4-3-4"
         style="fill:#93a1a1;fill-opacity:1;stroke:none;display:inline"
         sodipodi:type="arc" />
    </g>
    <g
       id="g28660">
      <rect
         style="fill:#cb4916;fill-opacity:1;fill-rule:nonzero;stroke:none"
         id="rect33306-5"
         width="8"
         height="8"
         x="163.5"
         y="35.862183" />
      <rect
         style="fill:#cb4916;fill-opacity:1;fill-rule:nonzero;stroke:none"
         id="rect33306-0"
         width="8"
         height="8"
         x="203.5"
         y="35.862183" />
      <rect
         style="fill:#cb4916;fill-opacity:1;fill-rule:nonzero;stroke:none"
         id="rect33306-56"
         width="8"
         height="8"
         x="163.5"
         y="75.862183" />
      <rect
         style="fill:#cb4916;fill-opacity:1;fill-rule:nonzero;stroke:none"
         id="rect33306-8"
         width="8"
         height="8"
         x="203.5"
         y="75.862183" />
      <rect
         style="fill:#cb4916;fill-opacity:1;fill-rule:nonzero;stroke:none"
         id="rect33306-5-8"
         width="8"
         height="8"
         x="273.5"
         y="35.862183" />
      <rect
         style="fill:#cb4916;fill-opacity:1;fill-rule:nonzero;stroke:none"
         id="rect33306-0-3"
         width="8"
         height="8"
         x="313.5"
         y="35.862183" />
      <rect
         style="fill:#cb4916;fill-opacity:1;fill-rule:nonzero;stroke:none"
         id="rect33306-56-8"
         width="8"
         height="8"
         x="273.5"
         y="75.862183" />
      <rect
         style="fill:#cb4916;fill-opacity:1;fill-rule:nonzero;stroke:none"
         id="rect33306-8-0"
         width="8"
         height="8"
         x="313.5"
         y="75.862183" />
    </g>
    <path
       transform="translate(87.757274,-14.716822)"
       sodipodi:type="star"
       style="fill:#268bd2;fill-opacity:1;fill-rule:nonzero;stroke:none"
       id="path33328"
       sodipodi:sides="5"
       sodipodi:cx="170"
       sodipodi:cy="54.862183"
       sodipodi:r1="5.5901699"
       sodipodi:r2="3.1450424"
       sodipodi:arg1="-0.46364761"
       sodipodi:arg2="0.16467092"
       inkscape:flatsided="false"
       inkscape:rounded="0"
       inkscape:randomized="0"
       d="m 175,52.362183 -1.8975,3.015559 0.82023,3.467181 -3.45433,-0.872773 -3.04402,1.851501 -0.23739,-3.554963 -2.70154,-2.322889 3.30762,-1.324315 1.37437,-3.287126 2.28161,2.736491 z"
       inkscape:transform-center-x="0.25727405"
       inkscape:transform-center-y="-0.28317816" />
    <path
       transform="translate(87.757274,25.283178)"
       sodipodi:type="star"
       style="fill:#268bd2;fill-opacity:1;fill-rule:nonzero;stroke:none"
       id="path33328-8"
       sodipodi:sides="5"
       sodipodi:cx="170"
       sodipodi:cy="54.862183"
       sodipodi:r1="5.5901699"
       sodipodi:r2="3.1450424"
       sodipodi:arg1="-0.46364761"
       sodipodi:arg2="0.16467092"
       inkscape:flatsided="false"
       inkscape:rounded="0"
       inkscape:randomized="0"
       d="m 175,52.362183 -1.8975,3.015559 0.82023,3.467181 -3.45433,-0.872773 -3.04402,1.851501 -0.23739,-3.554963 -2.70154,-2.322889 3.30762,-1.324315 1.37437,-3.287126 2.28161,2.736491 z"
       inkscape:transform-center-x="0.25727405"
       inkscape:transform-center-y="-0.28317816" />
    <path
       transform="translate(107.75727,-34.716822)"
       sodipodi:type="star"
       style="fill:#268bd2;fill-opacity:1;fill-rule:nonzero;stroke:none"
       id="path33328-3"
       sodipodi:sides="5"
       sodipodi:cx="170"
       sodipodi:cy="54.862183"
       sodipodi:r1="5.5901699"
       sodipodi:r2="3.1450424"
       sodipodi:arg1="-0.46364761"
       sodipodi:arg2="0.16467092"
       inkscape:flatsided="false"
       inkscape:rounded="0"
       inkscape:randomized="0"
       d="m 175,52.362183 -1.8975,3.015559 0.82023,3.467181 -3.45433,-0.872773 -3.04402,1.851501 -0.23739,-3.554963 -2.70154,-2.322889 3.30762,-1.324315 1.37437,-3.287126 2.28161,2.736491 z"
       inkscape:transform-center-x="0.25727405"
       inkscape:transform-center-y="-0.28317816" />
    <path
       transform="translate(147.75727,-34.716775)"
       sodipodi:type="star"
       style="fill:#268bd2;fill-opacity:1;fill-rule:nonzero;stroke:none"
       id="path33328-3-3"
       sodipodi:sides="5"
       sodipodi:cx="170"
       sodipodi:cy="54.862183"
       sodipodi:r1="5.5901699"
       sodipodi:r2="3.1450424"
       sodipodi:arg1="-0.46364761"
       sodipodi:arg2="0.16467092"
       inkscape:flatsided="false"
       inkscape:rounded="0"
       inkscape:randomized="0"
       d="m 175,52.362183 -1.8975,3.015559 0.82023,3.467181 -3.45433,-0.872773 -3.04402,1.851501 -0.23739,-3.554963 -2.70154,-2.322889 3.30762,-1.324315 1.37437,-3.287126 2.28161,2.736491 z"
       inkscape:transform-center-x="0.25727405"
       inkscape:transform-center-y="-0.28317816" />
    <path
       transform="translate(147.75727,5.283225)"
       sodipodi:type="star"
       style="fill:#268bd2;fill-opacity:1;fill-rule:nonzero;stroke:none"
       id="path33328-3-0"
       sodipodi:sides="5"
       sodipodi:cx="170"
       sodipodi:cy="54.862183"
       sodipodi:r1="5.5901699"
       sodipodi:r2="3.1450424"
       sodipodi:arg1="-0.46364761"
       sodipodi:arg2="0.16467092"
       inkscape:flatsided="false"
       inkscape:rounded="0"
       inkscape:randomized="0"
       d="m 175,52.362183 -1.8975,3.015559 0.82023,3.467181 -3.45433,-0.872773 -3.04402,1.851501 -0.23739,-3.554963 -2.70154,-2.322889 3.30762,-1.324315 1.37437,-3.287126 2.28161,2.736491 z"
       inkscape:transform-center-x="0.25727405"
       inkscape:transform-center-y="-0.28317816" />
    <path
       transform="translate(167.75727,-14.716775)"
       sodipodi:type="star"
       style="fill:#268bd2;fill-opacity:1;fill-rule:nonzero;stroke:none"
       id="path33328-3-2"
       sodipodi:sides="5"
       sodipodi:cx="170"
       sodipodi:cy="54.862183"
       sodipodi:r1="5.5901699"
       sodipodi:r2="3.1450424"
       sodipodi:arg1="-0.46364761"
       sodipodi:arg2="0.16467092"
       inkscape:flatsided="false"
       inkscape:rounded="0"
       inkscape:randomized="0"
       d="m 175,52.362183 -1.8975,3.015559 0.82023,3.467181 -3.45433,-0.872773 -3.04402,1.851501 -0.23739,-3.554963 -2.70154,-2.322889 3.30762,-1.324315 1.37437,-3.287126 2.28161,2.736491 z"
       inkscape:transform-center-x="0.25727405"
       inkscape:transform-center-y="-0.28317816" />
    <path
       transform="translate(127.75727,-14.716775)"
       sodipodi:type="star"
       style="fill:#268bd2;fill-opacity:1;fill-rule:nonzero;stroke:none"
       id="path33328-3-07"
       sodipodi:sides="5"
       sodipodi:cx="170"
       sodipodi:cy="54.862183"
       sodipodi:r1="5.5901699"
       sodipodi:r2="3.1450424"
       sodipodi:arg1="-0.46364761"
       sodipodi:arg2="0.16467092"
       inkscape:flatsided="false"
       inkscape:rounded="0"
       inkscape:randomized="0"
       d="m 175,52.362183 -1.8975,3.015559 0.82023,3.467181 -3.45433,-0.872773 -3.04402,1.851501 -0.23739,-3.554963 -2.70154,-2.322889 3.30762,-1.324315 1.37437,-3.287126 2.28161,2.736491 z"
       inkscape:transform-center-x="0.25727405"
       inkscape:transform-center-y="-0.28317816" />
    <path
       transform="translate(107.75727,5.283225)"
       sodipodi:type="star"
       style="fill:#268bd2;fill-opacity:1;fill-rule:nonzero;stroke:none"
       id="path33328-3-6"
       sodipodi:sides="5"
       sodipodi:cx="170"
       sodipodi:cy="54.862183"
       sodipodi:r1="5.5901699"
       sodipodi:r2="3.1450424"
       sodipodi:arg1="-0.46364761"
       sodipodi:arg2="0.16467092"
       inkscape:flatsided="false"
       inkscape:rounded="0"
       inkscape:randomized="0"
       d="m 175,52.362183 -1.8975,3.015559 0.82023,3.467181 -3.45433,-0.872773 -3.04402,1.851501 -0.23739,-3.554963 -2.70154,-2.322889 3.30762,-1.324315 1.37437,-3.287126 2.28161,2.736491 z"
       inkscape:transform-center-x="0.25727405"
       inkscape:transform-center-y="-0.28317816" />
    <path
       transform="translate(107.75727,45.283225)"
       sodipodi:type="star"
       style="fill:#268bd2;fill-opacity:1;fill-rule:nonzero;stroke:none"
       id="path33328-3-9"
       sodipodi:sides="5"
       sodipodi:cx="170"
       sodipodi:cy="54.862183"
       sodipodi:r1="5.5901699"
       sodipodi:r2="3.1450424"
       sodipodi:arg1="-0.46364761"
       sodipodi:arg2="0.16467092"
       inkscape:flatsided="false"
       inkscape:rounded="0"
       inkscape:randomized="0"
       d="m 175,52.362183 -1.8975,3.015559 0.82023,3.467181 -3.45433,-0.872773 -3.04402,1.851501 -0.23739,-3.554963 -2.70154,-2.322889 3.30762,-1.324315 1.37437,-3.287126 2.28161,2.736491 z"
       inkscape:transform-center-x="0.25727405"
       inkscape:transform-center-y="-0.28317816" />
    <path
       transform="translate(127.75727,25.283225)"
       sodipodi:type="star"
       style="fill:#268bd2;fill-opacity:1;fill-rule:nonzero;stroke:none"
       id="path33328-3-5"
       sodipodi:sides="5"
       sodipodi:cx="170"
       sodipodi:cy="54.862183"
       sodipodi:r1="5.5901699"
       sodipodi:r2="3.1450424"
       sodipodi:arg1="-0.46364761"
       sodipodi:arg2="0.16467092"
       inkscape:flatsided="false"
       inkscape:rounded="0"
       inkscape:randomized="0"
       d="m 175,52.362183 -1.8975,3.015559 0.82023,3.467181 -3.45433,-0.872773 -3.04402,1.851501 -0.23739,-3.554963 -2.70154,-2.322889 3.30762,-1.324315 1.37437,-3.287126 2.28161,2.736491 z"
       inkscape:transform-center-x="0.25727405"
       inkscape:transform-center-y="-0.28317816" />
    <path
       transform="translate(147.75727,45.283225)"
       sodipodi:type="star"
       style="fill:#268bd2;fill-opacity:1;fill-rule:nonzero;stroke:none"
       id="path33328-3-8"
       sodipodi:sides="5"
       sodipodi:cx="170"
       sodipodi:cy="54.862183"
       sodipodi:r1="5.5901699"
       sodipodi:r2="3.1450424"
       sodipodi:arg1="-0.46364761"
       sodipodi:arg2="0.16467092"
       inkscape:flatsided="false"
       inkscape:rounded="0"
       inkscape:randomized="0"
       d="m 175,52.362183 -1.8975,3.015559 0.82023,3.467181 -3.45433,-0.872773 -3.04402,1.851501 -0.23739,-3.554963 -2.70154,-2.322889 3.30762,-1.324315 1.37437,-3.287126 2.28161,2.736491 z"
       inkscape:transform-center-x="0.25727405"
       inkscape:transform-center-y="-0.28317816" />
    <path
       transform="translate(167.75727,25.283225)"
       sodipodi:type="star"
       style="fill:#268bd2;fill-opacity:1;fill-rule:nonzero;stroke:none"
       id="path33328-3-1"
       sodipodi:sides="5"
       sodipodi:cx="170"
       sodipodi:cy="54.862183"
       sodipodi:r1="5.5901699"
       sodipodi:r2="3.1450424"
       sodipodi:arg1="-0.46364761"
       sodipodi:arg2="0.16467092"
       inkscape:flatsided="false"
       inkscape:rounded="0"
       inkscape:randomized="0"
       d="m 175,52.362183 -1.8975,3.015559 0.82023,3.467181 -3.45433,-0.872773 -3.04402,1.851501 -0.23739,-3.554963 -2.70154,-2.322889 3.30762,-1.324315 1.37437,-3.287126 2.28161,2.736491 z"
       inkscape:transform-center-x="0.25727405"
       inkscape:transform-center-y="-0.28317816" />
  </g>
</svg>
