<?xml version="1.0" encoding="UTF-8" standalone="no"?>
<!-- Created with Inkscape (http://www.inkscape.org/) -->

<svg
   xmlns:dc="http://purl.org/dc/elements/1.1/"
   xmlns:cc="http://creativecommons.org/ns#"
   xmlns:rdf="http://www.w3.org/1999/02/22-rdf-syntax-ns#"
   xmlns:svg="http://www.w3.org/2000/svg"
   xmlns="http://www.w3.org/2000/svg"
   xmlns:sodipodi="http://sodipodi.sourceforge.net/DTD/sodipodi-0.dtd"
   xmlns:inkscape="http://www.inkscape.org/namespaces/inkscape"
   width="744.09448819"
   height="1052.3622047"
   id="svg27989"
   version="1.1"
   inkscape:version="0.48.4 r9939"
   sodipodi:docname="New document 40">
  <defs
     id="defs27991" />
  <sodipodi:namedview
     id="base"
     pagecolor="#ffffff"
     bordercolor="#666666"
     borderopacity="1.0"
     inkscape:pageopacity="0.0"
     inkscape:pageshadow="2"
     inkscape:zoom="5.6"
     inkscape:cx="144.29725"
     inkscape:cy="980.55824"
     inkscape:document-units="px"
     inkscape:current-layer="layer1"
     showgrid="true"
     inkscape:snap-bbox="true"
     inkscape:window-width="1912"
     inkscape:window-height="1155"
     inkscape:window-x="0"
     inkscape:window-y="220"
     inkscape:window-maximized="0">
    <inkscape:grid
       type="xygrid"
       id="grid27997"
       empspacing="5"
       visible="true"
       enabled="true"
       snapvisiblegridlinesonly="true"
       spacingx="0.5px"
       spacingy="0.5px" />
  </sodipodi:namedview>
  <metadata
     id="metadata27994">
    <rdf:RDF>
      <cc:Work
         rdf:about="">
        <dc:format>image/svg+xml</dc:format>
        <dc:type
           rdf:resource="http://purl.org/dc/dcmitype/StillImage" />
        <dc:title></dc:title>
      </cc:Work>
    </rdf:RDF>
  </metadata>
  <g
     inkscape:label="Layer 1"
     inkscape:groupmode="layer"
     id="layer1">
    <rect
       style="fill:#f0f0f0;fill-opacity:1;stroke:#000000;stroke-width:0.99999994;stroke-opacity:1;display:inline"
       id="use19473-5"
       width="94"
       height="94"
       x="30.5"
       y="12.862198" />
    <path
       sodipodi:type="arc"
       style="fill:#808080;fill-opacity:1;stroke:none;display:inline"
       id="path2993-14-7-4-9-5-1-3"
       sodipodi:cx="95"
       sodipodi:cy="77.362183"
       sodipodi:rx="5"
       sodipodi:ry="5"
       d="m 100,77.362183 a 5,5 0 1 1 -10,0 5,5 0 1 1 10,0 z"
       transform="matrix(0.5,0,0,0.5,-9.9999998,21.181115)" />
    <path
       sodipodi:type="arc"
       style="fill:#808080;fill-opacity:1;stroke:none;display:inline"
       id="path2993-89-1-4-2-7-5-4"
       sodipodi:cx="95"
       sodipodi:cy="77.362183"
       sodipodi:rx="5"
       sodipodi:ry="5"
       d="m 100,77.362183 a 5,5 0 1 1 -10,0 5,5 0 1 1 10,0 z"
       transform="matrix(0.5,0,0,0.5,30.000001,21.181115)" />
    <path
       sodipodi:type="arc"
       style="fill:#808080;fill-opacity:1;stroke:none;display:inline"
       id="path2993-8-8-6-8-4-4-3"
       sodipodi:cx="95"
       sodipodi:cy="77.362183"
       sodipodi:rx="5"
       sodipodi:ry="5"
       d="m 100,77.362183 a 5,5 0 1 1 -10,0 5,5 0 1 1 10,0 z"
       transform="matrix(0.5,0,0,0.5,30.000001,-18.818884)" />
    <path
       sodipodi:type="arc"
       style="fill:#808080;fill-opacity:1;stroke:none;display:inline"
       id="path2993-0-4-4-0-5-0"
       sodipodi:cx="95"
       sodipodi:cy="77.362183"
       sodipodi:rx="5"
       sodipodi:ry="5"
       d="m 100,77.362183 a 5,5 0 1 1 -10,0 5,5 0 1 1 10,0 z"
       transform="matrix(0.5,0,0,0.5,-9.9999998,-18.818884)" />
    <path
       sodipodi:type="arc"
       style="fill:#808080;fill-opacity:1;stroke:none;display:inline"
       id="path2993-14-7-4-9-5-1-3-4"
       sodipodi:cx="95"
       sodipodi:cy="77.362183"
       sodipodi:rx="5"
       sodipodi:ry="5"
       d="m 100,77.362183 a 5,5 0 1 1 -10,0 5,5 0 1 1 10,0 z"
       transform="matrix(0.5,0,0,0.5,70.000001,21.181105)" />
    <path
       sodipodi:type="arc"
       style="fill:#808080;fill-opacity:1;stroke:none;display:inline"
       id="path2993-8-8-6-8-4-4-3-9"
       sodipodi:cx="95"
       sodipodi:cy="77.362183"
       sodipodi:rx="5"
       sodipodi:ry="5"
       d="m 100,77.362183 a 5,5 0 1 1 -10,0 5,5 0 1 1 10,0 z"
       transform="matrix(0.5,0,0,0.5,70.000001,-18.818894)" />
    <path
       sodipodi:type="arc"
       style="fill:#808080;fill-opacity:1;stroke:none;display:inline"
       id="path2993-14-7-4-9-5-1-3-4-1"
       sodipodi:cx="95"
       sodipodi:cy="77.362183"
       sodipodi:rx="5"
       sodipodi:ry="5"
       d="m 100,77.362183 a 5,5 0 1 1 -10,0 5,5 0 1 1 10,0 z"
       transform="matrix(0.5,0,0,0.5,70.000001,61.181106)" />
    <path
       sodipodi:type="arc"
       style="fill:#808080;fill-opacity:1;stroke:none;display:inline"
       id="path2993-14-7-4-9-5-1-3-4-1-6"
       sodipodi:cx="95"
       sodipodi:cy="77.362183"
       sodipodi:rx="5"
       sodipodi:ry="5"
       d="m 100,77.362183 a 5,5 0 1 1 -10,0 5,5 0 1 1 10,0 z"
       transform="matrix(0.5,0,0,0.5,30.000001,61.181106)" />
    <path
       sodipodi:type="arc"
       style="fill:#808080;fill-opacity:1;stroke:none;display:inline"
       id="path2993-14-7-4-9-5-1-3-4-1-4"
       sodipodi:cx="95"
       sodipodi:cy="77.362183"
       sodipodi:rx="5"
       sodipodi:ry="5"
       d="m 100,77.362183 a 5,5 0 1 1 -10,0 5,5 0 1 1 10,0 z"
       transform="matrix(0.5,0,0,0.5,-9.9999998,61.181106)" />
    <rect
       style="fill:#f0f0f0;fill-opacity:1;stroke:#000000;stroke-width:0.99999994;stroke-opacity:1;display:inline"
       id="use19473-5-9"
       width="94"
       height="94"
       x="140.5"
       y="12.862183" />
    <path
       sodipodi:type="arc"
       style="fill:#808080;fill-opacity:1;stroke:none;display:inline"
       id="path2993-14-7-4-9-5-1-3-5"
       sodipodi:cx="95"
       sodipodi:cy="77.362183"
       sodipodi:rx="5"
       sodipodi:ry="5"
       d="m 100,77.362183 a 5,5 0 1 1 -10,0 5,5 0 1 1 10,0 z"
       transform="matrix(0.5,0,0,0.5,100,21.181105)" />
    <path
       sodipodi:type="arc"
       style="fill:#808080;fill-opacity:1;stroke:none;display:inline"
       id="path2993-89-1-4-2-7-5-4-2"
       sodipodi:cx="95"
       sodipodi:cy="77.362183"
       sodipodi:rx="5"
       sodipodi:ry="5"
       d="m 100,77.362183 a 5,5 0 1 1 -10,0 5,5 0 1 1 10,0 z"
       transform="matrix(0.5,0,0,0.5,140,21.181105)" />
    <path
       sodipodi:type="arc"
       style="fill:#808080;fill-opacity:1;stroke:none;display:inline"
       id="path2993-8-8-6-8-4-4-3-1"
       sodipodi:cx="95"
       sodipodi:cy="77.362183"
       sodipodi:rx="5"
       sodipodi:ry="5"
       d="m 100,77.362183 a 5,5 0 1 1 -10,0 5,5 0 1 1 10,0 z"
       transform="matrix(0.5,0,0,0.5,140,-18.818894)" />
    <path
       sodipodi:type="arc"
       style="fill:#808080;fill-opacity:1;stroke:none;display:inline"
       id="path2993-0-4-4-0-5-0-5"
       sodipodi:cx="95"
       sodipodi:cy="77.362183"
       sodipodi:rx="5"
       sodipodi:ry="5"
       d="m 100,77.362183 a 5,5 0 1 1 -10,0 5,5 0 1 1 10,0 z"
       transform="matrix(0.5,0,0,0.5,100,-18.818894)" />
    <path
       sodipodi:type="arc"
       style="fill:#808080;fill-opacity:1;stroke:none;display:inline"
       id="path2993-14-7-4-9-5-1-3-4-5"
       sodipodi:cx="95"
       sodipodi:cy="77.362183"
       sodipodi:rx="5"
       sodipodi:ry="5"
       d="m 100,77.362183 a 5,5 0 1 1 -10,0 5,5 0 1 1 10,0 z"
       transform="matrix(0.5,0,0,0.5,180,21.181095)" />
    <path
       sodipodi:type="arc"
       style="fill:#808080;fill-opacity:1;stroke:none;display:inline"
       id="path2993-8-8-6-8-4-4-3-9-9"
       sodipodi:cx="95"
       sodipodi:cy="77.362183"
       sodipodi:rx="5"
       sodipodi:ry="5"
       d="m 100,77.362183 a 5,5 0 1 1 -10,0 5,5 0 1 1 10,0 z"
       transform="matrix(0.5,0,0,0.5,180,-18.818904)" />
    <path
       sodipodi:type="arc"
       style="fill:#808080;fill-opacity:1;stroke:none;display:inline"
       id="path2993-14-7-4-9-5-1-3-4-1-7"
       sodipodi:cx="95"
       sodipodi:cy="77.362183"
       sodipodi:rx="5"
       sodipodi:ry="5"
       d="m 100,77.362183 a 5,5 0 1 1 -10,0 5,5 0 1 1 10,0 z"
       transform="matrix(0.5,0,0,0.5,180,61.181096)" />
    <path
       sodipodi:type="arc"
       style="fill:#808080;fill-opacity:1;stroke:none;display:inline"
       id="path2993-14-7-4-9-5-1-3-4-1-6-2"
       sodipodi:cx="95"
       sodipodi:cy="77.362183"
       sodipodi:rx="5"
       sodipodi:ry="5"
       d="m 100,77.362183 a 5,5 0 1 1 -10,0 5,5 0 1 1 10,0 z"
       transform="matrix(0.5,0,0,0.5,140,61.181096)" />
    <path
       sodipodi:type="arc"
       style="fill:#808080;fill-opacity:1;stroke:none;display:inline"
       id="path2993-14-7-4-9-5-1-3-4-1-4-3"
       sodipodi:cx="95"
       sodipodi:cy="77.362183"
       sodipodi:rx="5"
       sodipodi:ry="5"
       d="m 100,77.362183 a 5,5 0 1 1 -10,0 5,5 0 1 1 10,0 z"
       transform="matrix(0.5,0,0,0.5,100,61.181096)" />
    <path
       transform="matrix(0.5,0,0,0.5,120,1.181106)"
       d="m 100,77.362183 a 5,5 0 1 1 -10,0 5,5 0 1 1 10,0 z"
       sodipodi:ry="5"
       sodipodi:rx="5"
       sodipodi:cy="77.362183"
       sodipodi:cx="95"
       id="path2993-0-2-3-4-4-1-2-1-96-9"
       style="fill:#000000;fill-opacity:1;stroke:none;display:inline"
       sodipodi:type="arc" />
    <path
       transform="matrix(0.5,0,0,0.5,160,1.181106)"
       d="m 100,77.362183 a 5,5 0 1 1 -10,0 5,5 0 1 1 10,0 z"
       sodipodi:ry="5"
       sodipodi:rx="5"
       sodipodi:cy="77.362183"
       sodipodi:cx="95"
       id="path2993-0-2-3-4-4-1-2-1-96-90"
       style="fill:#000000;fill-opacity:1;stroke:none;display:inline"
       sodipodi:type="arc" />
    <path
       transform="matrix(0.5,0,0,0.5,160,41.181106)"
       d="m 100,77.362183 a 5,5 0 1 1 -10,0 5,5 0 1 1 10,0 z"
       sodipodi:ry="5"
       sodipodi:rx="5"
       sodipodi:cy="77.362183"
       sodipodi:cx="95"
       id="path2993-0-2-3-4-4-1-2-1-96-4"
       style="fill:#000000;fill-opacity:1;stroke:none;display:inline"
       sodipodi:type="arc" />
    <path
       transform="matrix(0.5,0,0,0.5,120,41.181106)"
       d="m 100,77.362183 a 5,5 0 1 1 -10,0 5,5 0 1 1 10,0 z"
       sodipodi:ry="5"
       sodipodi:rx="5"
       sodipodi:cy="77.362183"
       sodipodi:cx="95"
       id="path2993-0-2-3-4-4-1-2-1-96-3"
       style="fill:#000000;fill-opacity:1;stroke:none;display:inline"
       sodipodi:type="arc" />
    <rect
       style="fill:#f0f0f0;fill-opacity:1;stroke:#000000;stroke-width:0.99999994;stroke-opacity:1;display:inline"
       id="use19473-5-9-5"
       width="94"
       height="94"
       x="250.5"
       y="12.862198" />
    <path
       sodipodi:type="arc"
       style="fill:#808080;fill-opacity:1;stroke:none;display:inline"
       id="path2993-14-7-4-9-5-1-3-5-4"
       sodipodi:cx="95"
       sodipodi:cy="77.362183"
       sodipodi:rx="5"
       sodipodi:ry="5"
       d="m 100,77.362183 a 5,5 0 1 1 -10,0 5,5 0 1 1 10,0 z"
       transform="matrix(0.5,0,0,0.5,210,21.181135)" />
    <path
       sodipodi:type="arc"
       style="fill:#808080;fill-opacity:1;stroke:none;display:inline"
       id="path2993-89-1-4-2-7-5-4-2-1"
       sodipodi:cx="95"
       sodipodi:cy="77.362183"
       sodipodi:rx="5"
       sodipodi:ry="5"
       d="m 100,77.362183 a 5,5 0 1 1 -10,0 5,5 0 1 1 10,0 z"
       transform="matrix(0.5,0,0,0.5,250,21.181135)" />
    <path
       sodipodi:type="arc"
       style="fill:#808080;fill-opacity:1;stroke:none;display:inline"
       id="path2993-8-8-6-8-4-4-3-1-6"
       sodipodi:cx="95"
       sodipodi:cy="77.362183"
       sodipodi:rx="5"
       sodipodi:ry="5"
       d="m 100,77.362183 a 5,5 0 1 1 -10,0 5,5 0 1 1 10,0 z"
       transform="matrix(0.5,0,0,0.5,250,-18.818874)" />
    <path
       sodipodi:type="arc"
       style="fill:#808080;fill-opacity:1;stroke:none;display:inline"
       id="path2993-0-4-4-0-5-0-5-3"
       sodipodi:cx="95"
       sodipodi:cy="77.362183"
       sodipodi:rx="5"
       sodipodi:ry="5"
       d="m 100,77.362183 a 5,5 0 1 1 -10,0 5,5 0 1 1 10,0 z"
       transform="matrix(0.5,0,0,0.5,210,-18.818874)" />
    <path
       sodipodi:type="arc"
       style="fill:#808080;fill-opacity:1;stroke:none;display:inline"
       id="path2993-14-7-4-9-5-1-3-4-5-1"
       sodipodi:cx="95"
       sodipodi:cy="77.362183"
       sodipodi:rx="5"
       sodipodi:ry="5"
       d="m 100,77.362183 a 5,5 0 1 1 -10,0 5,5 0 1 1 10,0 z"
       transform="matrix(0.5,0,0,0.5,290,21.181125)" />
    <path
       sodipodi:type="arc"
       style="fill:#808080;fill-opacity:1;stroke:none;display:inline"
       id="path2993-8-8-6-8-4-4-3-9-9-0"
       sodipodi:cx="95"
       sodipodi:cy="77.362183"
       sodipodi:rx="5"
       sodipodi:ry="5"
       d="m 100,77.362183 a 5,5 0 1 1 -10,0 5,5 0 1 1 10,0 z"
       transform="matrix(0.5,0,0,0.5,290,-18.818884)" />
    <path
       sodipodi:type="arc"
       style="fill:#808080;fill-opacity:1;stroke:none;display:inline"
       id="path2993-14-7-4-9-5-1-3-4-1-7-7"
       sodipodi:cx="95"
       sodipodi:cy="77.362183"
       sodipodi:rx="5"
       sodipodi:ry="5"
       d="m 100,77.362183 a 5,5 0 1 1 -10,0 5,5 0 1 1 10,0 z"
       transform="matrix(0.5,0,0,0.5,290,61.181126)" />
    <path
       sodipodi:type="arc"
       style="fill:#808080;fill-opacity:1;stroke:none;display:inline"
       id="path2993-14-7-4-9-5-1-3-4-1-6-2-1"
       sodipodi:cx="95"
       sodipodi:cy="77.362183"
       sodipodi:rx="5"
       sodipodi:ry="5"
       d="m 100,77.362183 a 5,5 0 1 1 -10,0 5,5 0 1 1 10,0 z"
       transform="matrix(0.5,0,0,0.5,250,61.181126)" />
    <path
       sodipodi:type="arc"
       style="fill:#808080;fill-opacity:1;stroke:none;display:inline"
       id="path2993-14-7-4-9-5-1-3-4-1-4-3-4"
       sodipodi:cx="95"
       sodipodi:cy="77.362183"
       sodipodi:rx="5"
       sodipodi:ry="5"
       d="m 100,77.362183 a 5,5 0 1 1 -10,0 5,5 0 1 1 10,0 z"
       transform="matrix(0.5,0,0,0.5,210,61.181126)" />
    <path
       transform="matrix(0.5,0,0,0.5,230,1.181136)"
       d="m 100,77.362183 a 5,5 0 1 1 -10,0 5,5 0 1 1 10,0 z"
       sodipodi:ry="5"
       sodipodi:rx="5"
       sodipodi:cy="77.362183"
       sodipodi:cx="95"
       id="path2993-0-2-3-4-4-1-2-1-96-9-6"
       style="fill:#808080;fill-opacity:1;stroke:none;display:inline"
       sodipodi:type="arc" />
    <path
       transform="matrix(0.5,0,0,0.5,270,1.181136)"
       d="m 100,77.362183 a 5,5 0 1 1 -10,0 5,5 0 1 1 10,0 z"
       sodipodi:ry="5"
       sodipodi:rx="5"
       sodipodi:cy="77.362183"
       sodipodi:cx="95"
       id="path2993-0-2-3-4-4-1-2-1-96-90-1"
       style="fill:#808080;fill-opacity:1;stroke:none;display:inline"
       sodipodi:type="arc" />
    <path
       transform="matrix(0.5,0,0,0.5,270,41.181136)"
       d="m 100,77.362183 a 5,5 0 1 1 -10,0 5,5 0 1 1 10,0 z"
       sodipodi:ry="5"
       sodipodi:rx="5"
       sodipodi:cy="77.362183"
       sodipodi:cx="95"
       id="path2993-0-2-3-4-4-1-2-1-96-4-6"
       style="fill:#808080;fill-opacity:1;stroke:none;display:inline"
       sodipodi:type="arc" />
    <path
       transform="matrix(0.5,0,0,0.5,230,41.181136)"
       d="m 100,77.362183 a 5,5 0 1 1 -10,0 5,5 0 1 1 10,0 z"
       sodipodi:ry="5"
       sodipodi:rx="5"
       sodipodi:cy="77.362183"
       sodipodi:cx="95"
       id="path2993-0-2-3-4-4-1-2-1-96-3-1"
       style="fill:#808080;fill-opacity:1;stroke:none;display:inline"
       sodipodi:type="arc" />
    <path
       transform="matrix(0.5,0,0,0.5,210,1.181106)"
       d="m 100,77.362183 a 5,5 0 1 1 -10,0 5,5 0 1 1 10,0 z"
       sodipodi:ry="5"
       sodipodi:rx="5"
       sodipodi:cy="77.362183"
       sodipodi:cx="95"
       id="path2993-0-2-3-4-4-1-2-1-96-90-7"
       style="fill:#000000;fill-opacity:1;stroke:none;display:inline"
       sodipodi:type="arc" />
    <path
       transform="matrix(0.5,0,0,0.5,230,-18.818894)"
       d="m 100,77.362183 a 5,5 0 1 1 -10,0 5,5 0 1 1 10,0 z"
       sodipodi:ry="5"
       sodipodi:rx="5"
       sodipodi:cy="77.362183"
       sodipodi:cx="95"
       id="path2993-0-2-3-4-4-1-2-1-96-90-0"
       style="fill:#000000;fill-opacity:1;stroke:none;display:inline"
       sodipodi:type="arc" />
    <path
       transform="matrix(0.5,0,0,0.5,250,1.181106)"
       d="m 100,77.362183 a 5,5 0 1 1 -10,0 5,5 0 1 1 10,0 z"
       sodipodi:ry="5"
       sodipodi:rx="5"
       sodipodi:cy="77.362183"
       sodipodi:cx="95"
       id="path2993-0-2-3-4-4-1-2-1-96-90-2"
       style="fill:#000000;fill-opacity:1;stroke:none;display:inline"
       sodipodi:type="arc" />
    <path
       transform="matrix(0.5,0,0,0.5,270,-18.818894)"
       d="m 100,77.362183 a 5,5 0 1 1 -10,0 5,5 0 1 1 10,0 z"
       sodipodi:ry="5"
       sodipodi:rx="5"
       sodipodi:cy="77.362183"
       sodipodi:cx="95"
       id="path2993-0-2-3-4-4-1-2-1-96-90-3"
       style="fill:#000000;fill-opacity:1;stroke:none;display:inline"
       sodipodi:type="arc" />
    <path
       transform="matrix(0.5,0,0,0.5,290,1.181106)"
       d="m 100,77.362183 a 5,5 0 1 1 -10,0 5,5 0 1 1 10,0 z"
       sodipodi:ry="5"
       sodipodi:rx="5"
       sodipodi:cy="77.362183"
       sodipodi:cx="95"
       id="path2993-0-2-3-4-4-1-2-1-96-90-23"
       style="fill:#000000;fill-opacity:1;stroke:none;display:inline"
       sodipodi:type="arc" />
    <path
       transform="matrix(0.5,0,0,0.5,270,21.181105)"
       d="m 100,77.362183 a 5,5 0 1 1 -10,0 5,5 0 1 1 10,0 z"
       sodipodi:ry="5"
       sodipodi:rx="5"
       sodipodi:cy="77.362183"
       sodipodi:cx="95"
       id="path2993-0-2-3-4-4-1-2-1-96-90-09"
       style="fill:#000000;fill-opacity:1;stroke:none;display:inline"
       sodipodi:type="arc" />
    <path
       transform="matrix(0.5,0,0,0.5,230,21.181105)"
       d="m 100,77.362183 a 5,5 0 1 1 -10,0 5,5 0 1 1 10,0 z"
       sodipodi:ry="5"
       sodipodi:rx="5"
       sodipodi:cy="77.362183"
       sodipodi:cx="95"
       id="path2993-0-2-3-4-4-1-2-1-96-90-4"
       style="fill:#000000;fill-opacity:1;stroke:none;display:inline"
       sodipodi:type="arc" />
    <path
       transform="matrix(0.5,0,0,0.5,210,41.181106)"
       d="m 100,77.362183 a 5,5 0 1 1 -10,0 5,5 0 1 1 10,0 z"
       sodipodi:ry="5"
       sodipodi:rx="5"
       sodipodi:cy="77.362183"
       sodipodi:cx="95"
       id="path2993-0-2-3-4-4-1-2-1-96-90-71"
       style="fill:#000000;fill-opacity:1;stroke:none;display:inline"
       sodipodi:type="arc" />
    <path
       transform="matrix(0.5,0,0,0.5,230,61.181106)"
       d="m 100,77.362183 a 5,5 0 1 1 -10,0 5,5 0 1 1 10,0 z"
       sodipodi:ry="5"
       sodipodi:rx="5"
       sodipodi:cy="77.362183"
       sodipodi:cx="95"
       id="path2993-0-2-3-4-4-1-2-1-96-90-9"
       style="fill:#000000;fill-opacity:1;stroke:none;display:inline"
       sodipodi:type="arc" />
    <path
       transform="matrix(0.5,0,0,0.5,250,41.181106)"
       d="m 100,77.362183 a 5,5 0 1 1 -10,0 5,5 0 1 1 10,0 z"
       sodipodi:ry="5"
       sodipodi:rx="5"
       sodipodi:cy="77.362183"
       sodipodi:cx="95"
       id="path2993-0-2-3-4-4-1-2-1-96-90-6"
       style="fill:#000000;fill-opacity:1;stroke:none;display:inline"
       sodipodi:type="arc" />
    <path
       transform="matrix(0.5,0,0,0.5,270,61.181106)"
       d="m 100,77.362183 a 5,5 0 1 1 -10,0 5,5 0 1 1 10,0 z"
       sodipodi:ry="5"
       sodipodi:rx="5"
       sodipodi:cy="77.362183"
       sodipodi:cx="95"
       id="path2993-0-2-3-4-4-1-2-1-96-90-21"
       style="fill:#000000;fill-opacity:1;stroke:none;display:inline"
       sodipodi:type="arc" />
    <path
       transform="matrix(0.5,0,0,0.5,290,41.181106)"
       d="m 100,77.362183 a 5,5 0 1 1 -10,0 5,5 0 1 1 10,0 z"
       sodipodi:ry="5"
       sodipodi:rx="5"
       sodipodi:cy="77.362183"
       sodipodi:cx="95"
       id="path2993-0-2-3-4-4-1-2-1-96-90-08"
       style="fill:#000000;fill-opacity:1;stroke:none;display:inline"
       sodipodi:type="arc" />
  </g>
</svg>
