<?xml version="1.0" encoding="UTF-8" standalone="no"?>
<!-- Created with Inkscape (http://www.inkscape.org/) -->

<svg
   xmlns:dc="http://purl.org/dc/elements/1.1/"
   xmlns:cc="http://creativecommons.org/ns#"
   xmlns:rdf="http://www.w3.org/1999/02/22-rdf-syntax-ns#"
   xmlns:svg="http://www.w3.org/2000/svg"
   xmlns="http://www.w3.org/2000/svg"
   xmlns:sodipodi="http://sodipodi.sourceforge.net/DTD/sodipodi-0.dtd"
   xmlns:inkscape="http://www.inkscape.org/namespaces/inkscape"
   width="744.09448819"
   height="1052.3622047"
   id="svg27989"
   version="1.1"
   inkscape:version="0.48.4 r9939"
   sodipodi:docname="increase_resolution_solarized.svg">
  <defs
     id="defs27991" />
  <sodipodi:namedview
     id="base"
     pagecolor="#ffffff"
     bordercolor="#666666"
     borderopacity="1.0"
     inkscape:pageopacity="0.0"
     inkscape:pageshadow="2"
     inkscape:zoom="2.8284271"
     inkscape:cx="156.05113"
     inkscape:cy="962.70032"
     inkscape:document-units="px"
     inkscape:current-layer="layer1"
     showgrid="false"
     inkscape:snap-bbox="true"
     inkscape:window-width="1912"
     inkscape:window-height="1155"
     inkscape:window-x="0"
     inkscape:window-y="220"
     inkscape:window-maximized="0">
    <inkscape:grid
       type="xygrid"
       id="grid27997"
       empspacing="5"
       visible="true"
       enabled="true"
       snapvisiblegridlinesonly="true"
       spacingx="0.5px"
       spacingy="0.5px" />
  </sodipodi:namedview>
  <metadata
     id="metadata27994">
    <rdf:RDF>
      <cc:Work
         rdf:about="">
        <dc:format>image/svg+xml</dc:format>
        <dc:type
           rdf:resource="http://purl.org/dc/dcmitype/StillImage" />
        <dc:title></dc:title>
      </cc:Work>
    </rdf:RDF>
  </metadata>
  <g
     inkscape:label="Layer 1"
     inkscape:groupmode="layer"
     id="layer1">
    <g
       id="g28670">
      <rect
         y="10.862184"
         x="28.5"
         height="98"
         width="98"
         id="use19473-5"
         style="fill:#f0f0f0;fill-opacity:1;stroke:#073642;stroke-width:2;stroke-miterlimit:4;stroke-opacity:1;stroke-dasharray:none;display:inline;opacity:1" />
      <rect
         y="10.862183"
         x="138.5"
         height="98"
         width="98"
         id="use19473-5-9"
         style="fill:#f0f0f0;fill-opacity:1;stroke:#073642;stroke-width:2;stroke-miterlimit:4;stroke-opacity:1;stroke-dasharray:none;display:inline;opacity:1" />
      <rect
         y="10.862184"
         x="248.49998"
         height="98"
         width="98"
         id="use19473-5-9-5"
         style="fill:#f0f0f0;fill-opacity:1;stroke:#073642;stroke-width:2;stroke-miterlimit:4;stroke-opacity:1;stroke-dasharray:none;display:inline;opacity:1" />
    </g>
    <g
       id="g28631">
      <path
         transform="translate(-57.5,-17.499976)"
         d="m 100,77.362183 a 5,5 0 1 1 -10,0 5,5 0 1 1 10,0 z"
         sodipodi:ry="5"
         sodipodi:rx="5"
         sodipodi:cy="77.362183"
         sodipodi:cx="95"
         id="path2993-14-7-4-9-5-1-3"
         style="fill:#93a1a1;fill-opacity:1;stroke:none;display:inline"
         sodipodi:type="arc" />
      <path
         transform="translate(-17.499999,-17.499976)"
         d="m 100,77.362183 a 5,5 0 1 1 -10,0 5,5 0 1 1 10,0 z"
         sodipodi:ry="5"
         sodipodi:rx="5"
         sodipodi:cy="77.362183"
         sodipodi:cx="95"
         id="path2993-89-1-4-2-7-5-4"
         style="fill:#93a1a1;fill-opacity:1;stroke:none;display:inline"
         sodipodi:type="arc" />
      <path
         transform="translate(-17.499999,-57.499975)"
         d="m 100,77.362183 a 5,5 0 1 1 -10,0 5,5 0 1 1 10,0 z"
         sodipodi:ry="5"
         sodipodi:rx="5"
         sodipodi:cy="77.362183"
         sodipodi:cx="95"
         id="path2993-8-8-6-8-4-4-3"
         style="fill:#93a1a1;fill-opacity:1;stroke:none;display:inline"
         sodipodi:type="arc" />
      <path
         transform="translate(-57.5,-57.499975)"
         d="m 100,77.362183 a 5,5 0 1 1 -10,0 5,5 0 1 1 10,0 z"
         sodipodi:ry="5"
         sodipodi:rx="5"
         sodipodi:cy="77.362183"
         sodipodi:cx="95"
         id="path2993-0-4-4-0-5-0"
         style="fill:#93a1a1;fill-opacity:1;stroke:none;display:inline"
         sodipodi:type="arc" />
      <path
         transform="translate(22.500001,-17.499986)"
         d="m 100,77.362183 a 5,5 0 1 1 -10,0 5,5 0 1 1 10,0 z"
         sodipodi:ry="5"
         sodipodi:rx="5"
         sodipodi:cy="77.362183"
         sodipodi:cx="95"
         id="path2993-14-7-4-9-5-1-3-4"
         style="fill:#93a1a1;fill-opacity:1;stroke:none;display:inline"
         sodipodi:type="arc" />
      <path
         transform="translate(22.500001,-57.499985)"
         d="m 100,77.362183 a 5,5 0 1 1 -10,0 5,5 0 1 1 10,0 z"
         sodipodi:ry="5"
         sodipodi:rx="5"
         sodipodi:cy="77.362183"
         sodipodi:cx="95"
         id="path2993-8-8-6-8-4-4-3-9"
         style="fill:#93a1a1;fill-opacity:1;stroke:none;display:inline"
         sodipodi:type="arc" />
      <path
         transform="translate(22.500001,22.500015)"
         d="m 100,77.362183 a 5,5 0 1 1 -10,0 5,5 0 1 1 10,0 z"
         sodipodi:ry="5"
         sodipodi:rx="5"
         sodipodi:cy="77.362183"
         sodipodi:cx="95"
         id="path2993-14-7-4-9-5-1-3-4-1"
         style="fill:#93a1a1;fill-opacity:1;stroke:none;display:inline"
         sodipodi:type="arc" />
      <path
         transform="translate(-17.499999,22.500015)"
         d="m 100,77.362183 a 5,5 0 1 1 -10,0 5,5 0 1 1 10,0 z"
         sodipodi:ry="5"
         sodipodi:rx="5"
         sodipodi:cy="77.362183"
         sodipodi:cx="95"
         id="path2993-14-7-4-9-5-1-3-4-1-6"
         style="fill:#93a1a1;fill-opacity:1;stroke:none;display:inline"
         sodipodi:type="arc" />
      <path
         transform="translate(-57.5,22.500015)"
         d="m 100,77.362183 a 5,5 0 1 1 -10,0 5,5 0 1 1 10,0 z"
         sodipodi:ry="5"
         sodipodi:rx="5"
         sodipodi:cy="77.362183"
         sodipodi:cx="95"
         id="path2993-14-7-4-9-5-1-3-4-1-4"
         style="fill:#93a1a1;fill-opacity:1;stroke:none;display:inline"
         sodipodi:type="arc" />
      <path
         transform="translate(52.5,-17.499986)"
         d="m 100,77.362183 a 5,5 0 1 1 -10,0 5,5 0 1 1 10,0 z"
         sodipodi:ry="5"
         sodipodi:rx="5"
         sodipodi:cy="77.362183"
         sodipodi:cx="95"
         id="path2993-14-7-4-9-5-1-3-5"
         style="fill:#93a1a1;fill-opacity:1;stroke:none;display:inline"
         sodipodi:type="arc" />
      <path
         transform="translate(92.5,-17.499986)"
         d="m 100,77.362183 a 5,5 0 1 1 -10,0 5,5 0 1 1 10,0 z"
         sodipodi:ry="5"
         sodipodi:rx="5"
         sodipodi:cy="77.362183"
         sodipodi:cx="95"
         id="path2993-89-1-4-2-7-5-4-2"
         style="fill:#93a1a1;fill-opacity:1;stroke:none;display:inline"
         sodipodi:type="arc" />
      <path
         transform="translate(92.5,-57.499985)"
         d="m 100,77.362183 a 5,5 0 1 1 -10,0 5,5 0 1 1 10,0 z"
         sodipodi:ry="5"
         sodipodi:rx="5"
         sodipodi:cy="77.362183"
         sodipodi:cx="95"
         id="path2993-8-8-6-8-4-4-3-1"
         style="fill:#93a1a1;fill-opacity:1;stroke:none;display:inline"
         sodipodi:type="arc" />
      <path
         transform="translate(52.5,-57.499985)"
         d="m 100,77.362183 a 5,5 0 1 1 -10,0 5,5 0 1 1 10,0 z"
         sodipodi:ry="5"
         sodipodi:rx="5"
         sodipodi:cy="77.362183"
         sodipodi:cx="95"
         id="path2993-0-4-4-0-5-0-5"
         style="fill:#93a1a1;fill-opacity:1;stroke:none;display:inline"
         sodipodi:type="arc" />
      <path
         transform="translate(132.5,-17.499996)"
         d="m 100,77.362183 a 5,5 0 1 1 -10,0 5,5 0 1 1 10,0 z"
         sodipodi:ry="5"
         sodipodi:rx="5"
         sodipodi:cy="77.362183"
         sodipodi:cx="95"
         id="path2993-14-7-4-9-5-1-3-4-5"
         style="fill:#93a1a1;fill-opacity:1;stroke:none;display:inline"
         sodipodi:type="arc" />
      <path
         transform="translate(132.5,-57.499995)"
         d="m 100,77.362183 a 5,5 0 1 1 -10,0 5,5 0 1 1 10,0 z"
         sodipodi:ry="5"
         sodipodi:rx="5"
         sodipodi:cy="77.362183"
         sodipodi:cx="95"
         id="path2993-8-8-6-8-4-4-3-9-9"
         style="fill:#93a1a1;fill-opacity:1;stroke:none;display:inline"
         sodipodi:type="arc" />
      <path
         transform="translate(132.5,22.500005)"
         d="m 100,77.362183 a 5,5 0 1 1 -10,0 5,5 0 1 1 10,0 z"
         sodipodi:ry="5"
         sodipodi:rx="5"
         sodipodi:cy="77.362183"
         sodipodi:cx="95"
         id="path2993-14-7-4-9-5-1-3-4-1-7"
         style="fill:#93a1a1;fill-opacity:1;stroke:none;display:inline"
         sodipodi:type="arc" />
      <path
         transform="translate(92.5,22.500005)"
         d="m 100,77.362183 a 5,5 0 1 1 -10,0 5,5 0 1 1 10,0 z"
         sodipodi:ry="5"
         sodipodi:rx="5"
         sodipodi:cy="77.362183"
         sodipodi:cx="95"
         id="path2993-14-7-4-9-5-1-3-4-1-6-2"
         style="fill:#93a1a1;fill-opacity:1;stroke:none;display:inline"
         sodipodi:type="arc" />
      <path
         transform="translate(52.5,22.500005)"
         d="m 100,77.362183 a 5,5 0 1 1 -10,0 5,5 0 1 1 10,0 z"
         sodipodi:ry="5"
         sodipodi:rx="5"
         sodipodi:cy="77.362183"
         sodipodi:cx="95"
         id="path2993-14-7-4-9-5-1-3-4-1-4-3"
         style="fill:#93a1a1;fill-opacity:1;stroke:none;display:inline"
         sodipodi:type="arc" />
      <path
         transform="translate(162.5,-17.499956)"
         d="m 100,77.362183 a 5,5 0 1 1 -10,0 5,5 0 1 1 10,0 z"
         sodipodi:ry="5"
         sodipodi:rx="5"
         sodipodi:cy="77.362183"
         sodipodi:cx="95"
         id="path2993-14-7-4-9-5-1-3-5-4"
         style="fill:#93a1a1;fill-opacity:1;stroke:none;display:inline"
         sodipodi:type="arc" />
      <path
         transform="translate(202.5,-17.499956)"
         d="m 100,77.362183 a 5,5 0 1 1 -10,0 5,5 0 1 1 10,0 z"
         sodipodi:ry="5"
         sodipodi:rx="5"
         sodipodi:cy="77.362183"
         sodipodi:cx="95"
         id="path2993-89-1-4-2-7-5-4-2-1"
         style="fill:#93a1a1;fill-opacity:1;stroke:none;display:inline"
         sodipodi:type="arc" />
      <path
         transform="translate(202.5,-57.499965)"
         d="m 100,77.362183 a 5,5 0 1 1 -10,0 5,5 0 1 1 10,0 z"
         sodipodi:ry="5"
         sodipodi:rx="5"
         sodipodi:cy="77.362183"
         sodipodi:cx="95"
         id="path2993-8-8-6-8-4-4-3-1-6"
         style="fill:#93a1a1;fill-opacity:1;stroke:none;display:inline"
         sodipodi:type="arc" />
      <path
         transform="translate(162.5,-57.499965)"
         d="m 100,77.362183 a 5,5 0 1 1 -10,0 5,5 0 1 1 10,0 z"
         sodipodi:ry="5"
         sodipodi:rx="5"
         sodipodi:cy="77.362183"
         sodipodi:cx="95"
         id="path2993-0-4-4-0-5-0-5-3"
         style="fill:#93a1a1;fill-opacity:1;stroke:none;display:inline"
         sodipodi:type="arc" />
      <path
         transform="translate(242.5,-17.499966)"
         d="m 100,77.362183 a 5,5 0 1 1 -10,0 5,5 0 1 1 10,0 z"
         sodipodi:ry="5"
         sodipodi:rx="5"
         sodipodi:cy="77.362183"
         sodipodi:cx="95"
         id="path2993-14-7-4-9-5-1-3-4-5-1"
         style="fill:#93a1a1;fill-opacity:1;stroke:none;display:inline"
         sodipodi:type="arc" />
      <path
         transform="translate(242.5,-57.499975)"
         d="m 100,77.362183 a 5,5 0 1 1 -10,0 5,5 0 1 1 10,0 z"
         sodipodi:ry="5"
         sodipodi:rx="5"
         sodipodi:cy="77.362183"
         sodipodi:cx="95"
         id="path2993-8-8-6-8-4-4-3-9-9-0"
         style="fill:#93a1a1;fill-opacity:1;stroke:none;display:inline"
         sodipodi:type="arc" />
      <path
         transform="translate(242.5,22.500035)"
         d="m 100,77.362183 a 5,5 0 1 1 -10,0 5,5 0 1 1 10,0 z"
         sodipodi:ry="5"
         sodipodi:rx="5"
         sodipodi:cy="77.362183"
         sodipodi:cx="95"
         id="path2993-14-7-4-9-5-1-3-4-1-7-7"
         style="fill:#93a1a1;fill-opacity:1;stroke:none;display:inline"
         sodipodi:type="arc" />
      <path
         transform="translate(202.5,22.500035)"
         d="m 100,77.362183 a 5,5 0 1 1 -10,0 5,5 0 1 1 10,0 z"
         sodipodi:ry="5"
         sodipodi:rx="5"
         sodipodi:cy="77.362183"
         sodipodi:cx="95"
         id="path2993-14-7-4-9-5-1-3-4-1-6-2-1"
         style="fill:#93a1a1;fill-opacity:1;stroke:none;display:inline"
         sodipodi:type="arc" />
      <path
         transform="translate(162.5,22.500035)"
         d="m 100,77.362183 a 5,5 0 1 1 -10,0 5,5 0 1 1 10,0 z"
         sodipodi:ry="5"
         sodipodi:rx="5"
         sodipodi:cy="77.362183"
         sodipodi:cx="95"
         id="path2993-14-7-4-9-5-1-3-4-1-4-3-4"
         style="fill:#93a1a1;fill-opacity:1;stroke:none;display:inline"
         sodipodi:type="arc" />
    </g>
    <g
       id="g28660">
      <path
         sodipodi:type="arc"
         style="fill:#cb4b16;fill-opacity:1;stroke:none;display:inline"
         id="path2993-0-2-3-4-4-1-2-1-96-9"
         sodipodi:cx="95"
         sodipodi:cy="77.362183"
         sodipodi:rx="5"
         sodipodi:ry="5"
         d="m 100,77.362183 a 5,5 0 1 1 -10,0 5,5 0 1 1 10,0 z"
         transform="translate(72.5,-37.499985)" />
      <path
         sodipodi:type="arc"
         style="fill:#cb4b16;fill-opacity:1;stroke:none;display:inline"
         id="path2993-0-2-3-4-4-1-2-1-96-90"
         sodipodi:cx="95"
         sodipodi:cy="77.362183"
         sodipodi:rx="5"
         sodipodi:ry="5"
         d="m 100,77.362183 a 5,5 0 1 1 -10,0 5,5 0 1 1 10,0 z"
         transform="translate(112.5,-37.499985)" />
      <path
         sodipodi:type="arc"
         style="fill:#cb4b16;fill-opacity:1;stroke:none;display:inline"
         id="path2993-0-2-3-4-4-1-2-1-96-4"
         sodipodi:cx="95"
         sodipodi:cy="77.362183"
         sodipodi:rx="5"
         sodipodi:ry="5"
         d="m 100,77.362183 a 5,5 0 1 1 -10,0 5,5 0 1 1 10,0 z"
         transform="translate(112.5,2.5000147)" />
      <path
         sodipodi:type="arc"
         style="fill:#cb4b16;fill-opacity:1;stroke:none;display:inline"
         id="path2993-0-2-3-4-4-1-2-1-96-3"
         sodipodi:cx="95"
         sodipodi:cy="77.362183"
         sodipodi:rx="5"
         sodipodi:ry="5"
         d="m 100,77.362183 a 5,5 0 1 1 -10,0 5,5 0 1 1 10,0 z"
         transform="translate(72.5,2.5000147)" />
      <path
         sodipodi:type="arc"
         style="fill:#cb4b16;fill-opacity:1;stroke:none;display:inline"
         id="path2993-0-2-3-4-4-1-2-1-96-9-6"
         sodipodi:cx="95"
         sodipodi:cy="77.362183"
         sodipodi:rx="5"
         sodipodi:ry="5"
         d="m 100,77.362183 a 5,5 0 1 1 -10,0 5,5 0 1 1 10,0 z"
         transform="translate(182.5,-37.499955)" />
      <path
         sodipodi:type="arc"
         style="fill:#cb4b16;fill-opacity:1;stroke:none;display:inline"
         id="path2993-0-2-3-4-4-1-2-1-96-90-1"
         sodipodi:cx="95"
         sodipodi:cy="77.362183"
         sodipodi:rx="5"
         sodipodi:ry="5"
         d="m 100,77.362183 a 5,5 0 1 1 -10,0 5,5 0 1 1 10,0 z"
         transform="translate(222.5,-37.499955)" />
      <path
         sodipodi:type="arc"
         style="fill:#cb4b16;fill-opacity:1;stroke:none;display:inline"
         id="path2993-0-2-3-4-4-1-2-1-96-4-6"
         sodipodi:cx="95"
         sodipodi:cy="77.362183"
         sodipodi:rx="5"
         sodipodi:ry="5"
         d="m 100,77.362183 a 5,5 0 1 1 -10,0 5,5 0 1 1 10,0 z"
         transform="translate(222.5,2.5000447)" />
      <path
         sodipodi:type="arc"
         style="fill:#cb4b16;fill-opacity:1;stroke:none;display:inline"
         id="path2993-0-2-3-4-4-1-2-1-96-3-1"
         sodipodi:cx="95"
         sodipodi:cy="77.362183"
         sodipodi:rx="5"
         sodipodi:ry="5"
         d="m 100,77.362183 a 5,5 0 1 1 -10,0 5,5 0 1 1 10,0 z"
         transform="translate(182.5,2.5000447)" />
    </g>
    <path
       transform="translate(162.5,-37.499985)"
       d="m 100,77.362183 a 5,5 0 1 1 -10,0 5,5 0 1 1 10,0 z"
       sodipodi:ry="5"
       sodipodi:rx="5"
       sodipodi:cy="77.362183"
       sodipodi:cx="95"
       id="path2993-0-2-3-4-4-1-2-1-96-90-7"
       style="fill:#268bd2;fill-opacity:1;stroke:none;display:inline"
       sodipodi:type="arc" />
    <path
       transform="translate(182.5,-57.499985)"
       d="m 100,77.362183 a 5,5 0 1 1 -10,0 5,5 0 1 1 10,0 z"
       sodipodi:ry="5"
       sodipodi:rx="5"
       sodipodi:cy="77.362183"
       sodipodi:cx="95"
       id="path2993-0-2-3-4-4-1-2-1-96-90-0"
       style="fill:#268bd2;fill-opacity:1;stroke:none;display:inline"
       sodipodi:type="arc" />
    <path
       transform="translate(202.5,-37.499985)"
       d="m 100,77.362183 a 5,5 0 1 1 -10,0 5,5 0 1 1 10,0 z"
       sodipodi:ry="5"
       sodipodi:rx="5"
       sodipodi:cy="77.362183"
       sodipodi:cx="95"
       id="path2993-0-2-3-4-4-1-2-1-96-90-2"
       style="fill:#268bd2;fill-opacity:1;stroke:none;display:inline"
       sodipodi:type="arc" />
    <path
       transform="translate(222.5,-57.499985)"
       d="m 100,77.362183 a 5,5 0 1 1 -10,0 5,5 0 1 1 10,0 z"
       sodipodi:ry="5"
       sodipodi:rx="5"
       sodipodi:cy="77.362183"
       sodipodi:cx="95"
       id="path2993-0-2-3-4-4-1-2-1-96-90-3"
       style="fill:#268bd2;fill-opacity:1;stroke:none;display:inline"
       sodipodi:type="arc" />
    <path
       transform="translate(242.5,-37.499985)"
       d="m 100,77.362183 a 5,5 0 1 1 -10,0 5,5 0 1 1 10,0 z"
       sodipodi:ry="5"
       sodipodi:rx="5"
       sodipodi:cy="77.362183"
       sodipodi:cx="95"
       id="path2993-0-2-3-4-4-1-2-1-96-90-23"
       style="fill:#268bd2;fill-opacity:1;stroke:none;display:inline"
       sodipodi:type="arc" />
    <path
       transform="translate(222.5,-17.499986)"
       d="m 100,77.362183 a 5,5 0 1 1 -10,0 5,5 0 1 1 10,0 z"
       sodipodi:ry="5"
       sodipodi:rx="5"
       sodipodi:cy="77.362183"
       sodipodi:cx="95"
       id="path2993-0-2-3-4-4-1-2-1-96-90-09"
       style="fill:#268bd2;fill-opacity:1;stroke:none;display:inline"
       sodipodi:type="arc" />
    <path
       transform="translate(182.5,-17.499986)"
       d="m 100,77.362183 a 5,5 0 1 1 -10,0 5,5 0 1 1 10,0 z"
       sodipodi:ry="5"
       sodipodi:rx="5"
       sodipodi:cy="77.362183"
       sodipodi:cx="95"
       id="path2993-0-2-3-4-4-1-2-1-96-90-4"
       style="fill:#268bd2;fill-opacity:1;stroke:none;display:inline"
       sodipodi:type="arc" />
    <path
       transform="translate(162.5,2.5000147)"
       d="m 100,77.362183 a 5,5 0 1 1 -10,0 5,5 0 1 1 10,0 z"
       sodipodi:ry="5"
       sodipodi:rx="5"
       sodipodi:cy="77.362183"
       sodipodi:cx="95"
       id="path2993-0-2-3-4-4-1-2-1-96-90-71"
       style="fill:#268bd2;fill-opacity:1;stroke:none;display:inline"
       sodipodi:type="arc" />
    <path
       transform="translate(182.5,22.500015)"
       d="m 100,77.362183 a 5,5 0 1 1 -10,0 5,5 0 1 1 10,0 z"
       sodipodi:ry="5"
       sodipodi:rx="5"
       sodipodi:cy="77.362183"
       sodipodi:cx="95"
       id="path2993-0-2-3-4-4-1-2-1-96-90-9"
       style="fill:#268bd2;fill-opacity:1;stroke:none;display:inline"
       sodipodi:type="arc" />
    <path
       transform="translate(202.5,2.5000147)"
       d="m 100,77.362183 a 5,5 0 1 1 -10,0 5,5 0 1 1 10,0 z"
       sodipodi:ry="5"
       sodipodi:rx="5"
       sodipodi:cy="77.362183"
       sodipodi:cx="95"
       id="path2993-0-2-3-4-4-1-2-1-96-90-6"
       style="fill:#268bd2;fill-opacity:1;stroke:none;display:inline"
       sodipodi:type="arc" />
    <path
       transform="translate(222.5,22.500015)"
       d="m 100,77.362183 a 5,5 0 1 1 -10,0 5,5 0 1 1 10,0 z"
       sodipodi:ry="5"
       sodipodi:rx="5"
       sodipodi:cy="77.362183"
       sodipodi:cx="95"
       id="path2993-0-2-3-4-4-1-2-1-96-90-21"
       style="fill:#268bd2;fill-opacity:1;stroke:none;display:inline"
       sodipodi:type="arc" />
    <path
       transform="translate(242.5,2.5000147)"
       d="m 100,77.362183 a 5,5 0 1 1 -10,0 5,5 0 1 1 10,0 z"
       sodipodi:ry="5"
       sodipodi:rx="5"
       sodipodi:cy="77.362183"
       sodipodi:cx="95"
       id="path2993-0-2-3-4-4-1-2-1-96-90-08"
       style="fill:#268bd2;fill-opacity:1;stroke:none;display:inline"
       sodipodi:type="arc" />
  </g>
</svg>
