<?xml version="1.0" encoding="UTF-8" standalone="no"?>
<!-- Created with Inkscape (http://www.inkscape.org/) -->

<svg
   xmlns:dc="http://purl.org/dc/elements/1.1/"
   xmlns:cc="http://creativecommons.org/ns#"
   xmlns:rdf="http://www.w3.org/1999/02/22-rdf-syntax-ns#"
   xmlns:svg="http://www.w3.org/2000/svg"
   xmlns="http://www.w3.org/2000/svg"
   xmlns:sodipodi="http://sodipodi.sourceforge.net/DTD/sodipodi-0.dtd"
   xmlns:inkscape="http://www.inkscape.org/namespaces/inkscape"
   width="744.09448819"
   height="1052.3622047"
   id="svg8051"
   version="1.1"
   inkscape:version="0.48.4 r9939"
   sodipodi:docname="random_midpoint_displacement_regular01.svg">
  <defs
     id="defs8053">
    <marker
       inkscape:stockid="Arrow1Send"
       orient="auto"
       refY="0"
       refX="0"
       id="Arrow1Send"
       style="overflow:visible">
      <path
         inkscape:connector-curvature="0"
         id="path5839"
         d="M 0,0 5,-5 -12.5,0 5,5 0,0 z"
         style="fill-rule:evenodd;stroke:#000000;stroke-width:1pt"
         transform="matrix(-0.2,0,0,-0.2,-1.2,0)" />
    </marker>
    <marker
       inkscape:stockid="Arrow1Send"
       orient="auto"
       refY="0"
       refX="0"
       id="marker7980"
       style="overflow:visible">
      <path
         inkscape:connector-curvature="0"
         id="path7982"
         d="M 0,0 5,-5 -12.5,0 5,5 0,0 z"
         style="fill-rule:evenodd;stroke:#000000;stroke-width:1pt"
         transform="matrix(-0.2,0,0,-0.2,-1.2,0)" />
    </marker>
    <marker
       inkscape:stockid="Arrow1Send"
       orient="auto"
       refY="0"
       refX="0"
       id="marker7984"
       style="overflow:visible">
      <path
         inkscape:connector-curvature="0"
         id="path7986"
         d="M 0,0 5,-5 -12.5,0 5,5 0,0 z"
         style="fill-rule:evenodd;stroke:#000000;stroke-width:1pt"
         transform="matrix(-0.2,0,0,-0.2,-1.2,0)" />
    </marker>
    <marker
       inkscape:stockid="Arrow1Send"
       orient="auto"
       refY="0"
       refX="0"
       id="marker7988"
       style="overflow:visible">
      <path
         inkscape:connector-curvature="0"
         id="path7990"
         d="M 0,0 5,-5 -12.5,0 5,5 0,0 z"
         style="fill-rule:evenodd;stroke:#000000;stroke-width:1pt"
         transform="matrix(-0.2,0,0,-0.2,-1.2,0)" />
    </marker>
    <marker
       inkscape:stockid="Arrow1Mend"
       orient="auto"
       refY="0"
       refX="0"
       id="Arrow1Mend"
       style="overflow:visible">
      <path
         inkscape:connector-curvature="0"
         id="path5833"
         d="M 0,0 5,-5 -12.5,0 5,5 0,0 z"
         style="fill-rule:evenodd;stroke:#000000;stroke-width:1pt"
         transform="matrix(-0.4,0,0,-0.4,-4,0)" />
    </marker>
    <marker
       inkscape:stockid="Arrow1Send"
       orient="auto"
       refY="0"
       refX="0"
       id="marker7994"
       style="overflow:visible">
      <path
         inkscape:connector-curvature="0"
         id="path7996"
         d="M 0,0 5,-5 -12.5,0 5,5 0,0 z"
         style="fill-rule:evenodd;stroke:#000000;stroke-width:1pt"
         transform="matrix(-0.2,0,0,-0.2,-1.2,0)" />
    </marker>
    <marker
       inkscape:stockid="Arrow1Mend"
       orient="auto"
       refY="0"
       refX="0"
       id="marker7998"
       style="overflow:visible">
      <path
         inkscape:connector-curvature="0"
         id="path8000"
         d="M 0,0 5,-5 -12.5,0 5,5 0,0 z"
         style="fill-rule:evenodd;stroke:#000000;stroke-width:1pt"
         transform="matrix(-0.4,0,0,-0.4,-4,0)" />
    </marker>
  </defs>
  <sodipodi:namedview
     id="base"
     pagecolor="#ffffff"
     bordercolor="#666666"
     borderopacity="1.0"
     inkscape:pageopacity="0.0"
     inkscape:pageshadow="2"
     inkscape:zoom="22.4"
     inkscape:cx="21.828606"
     inkscape:cy="948.38345"
     inkscape:document-units="px"
     inkscape:current-layer="layer1"
     showgrid="true"
     inkscape:window-width="1912"
     inkscape:window-height="1155"
     inkscape:window-x="0"
     inkscape:window-y="220"
     inkscape:window-maximized="0"
     inkscape:snap-object-midpoints="true"
     inkscape:snap-bbox="true"
     inkscape:bbox-paths="true"
     inkscape:snap-bbox-edge-midpoints="false"
     inkscape:snap-bbox-midpoints="true">
    <inkscape:grid
       type="xygrid"
       id="grid8059" />
  </sodipodi:namedview>
  <metadata
     id="metadata8056">
    <rdf:RDF>
      <cc:Work
         rdf:about="">
        <dc:format>image/svg+xml</dc:format>
        <dc:type
           rdf:resource="http://purl.org/dc/dcmitype/StillImage" />
      </cc:Work>
    </rdf:RDF>
  </metadata>
  <g
     inkscape:label="Layer 1"
     inkscape:groupmode="layer"
     id="layer1">
    <text
       xml:space="preserve"
       x="30"
       y="17.362183"
       id="text4321"
       style="text-align:center;text-anchor:middle"><tspan
         sodipodi:role="line"
         id="tspan4323"
         x="30"
         y="17.362183">$y_0$<tspan
   style="font-size:65.00091553%;text-align:center;text-anchor:middle;baseline-shift:sub"
   id="tspan4325" /></tspan></text>
    <path
       style="fill:none;stroke:#808080;stroke-width:0.5;stroke-linecap:butt;stroke-linejoin:miter;stroke-miterlimit:4;stroke-opacity:1;stroke-dasharray:2, 0.5;stroke-dashoffset:0"
       d="m 150,117.36219 40,-15"
       id="path8581-6-7-01-1-9"
       inkscape:connector-curvature="0"
       sodipodi:nodetypes="cc" />
    <path
       style="fill:none;stroke:#808080;stroke-width:0.5;stroke-linecap:butt;stroke-linejoin:miter;stroke-miterlimit:4;stroke-opacity:1;stroke-dasharray:2, 0.5;stroke-dashoffset:0"
       d="m 110,82.362183 40,35.000007"
       id="path8581-6-7-01-1-2"
       inkscape:connector-curvature="0"
       sodipodi:nodetypes="cc" />
    <path
       style="fill:none;stroke:#808080;stroke-width:0.5;stroke-linecap:butt;stroke-linejoin:miter;stroke-miterlimit:4;stroke-opacity:1;stroke-dasharray:2, 0.5;stroke-dashoffset:0"
       d="M 70,97.362184 110,82.362183"
       id="path8581-6-7-01-1-5"
       inkscape:connector-curvature="0"
       sodipodi:nodetypes="cc" />
    <path
       style="fill:none;stroke:#808080;stroke-width:0.5;stroke-linecap:butt;stroke-linejoin:miter;stroke-miterlimit:4;stroke-opacity:1;stroke-dasharray:2, 0.5;stroke-dashoffset:0"
       d="M 30,102.36219 70,97.362184"
       id="path8581-6-7-01-1-7"
       inkscape:connector-curvature="0"
       sodipodi:nodetypes="cc" />
    <path
       style="fill:none;stroke:#808080;stroke-width:0.5;stroke-linecap:butt;stroke-linejoin:miter;stroke-miterlimit:4;stroke-opacity:1;stroke-dasharray:2, 0.5;stroke-dashoffset:0"
       d="m 110,57.362184 80,20"
       id="path8581-6-7-01-1-3"
       inkscape:connector-curvature="0"
       sodipodi:nodetypes="cc" />
    <path
       style="fill:none;stroke:#808080;stroke-width:0.5;stroke-linecap:butt;stroke-linejoin:miter;stroke-miterlimit:4;stroke-opacity:1;stroke-dasharray:2, 0.5;stroke-dashoffset:0"
       d="m 30,77.362184 80,-20"
       id="path8581-6-7-01-1"
       inkscape:connector-curvature="0"
       sodipodi:nodetypes="cc" />
    <path
       style="fill:none;stroke:#808080;stroke-width:0.5;stroke-linecap:butt;stroke-linejoin:miter;stroke-miterlimit:4;stroke-opacity:1;stroke-dasharray:2, 0.5;stroke-dashoffset:0"
       d="m 30,52.362184 160,0"
       id="path8581-6-7-01"
       inkscape:connector-curvature="0"
       sodipodi:nodetypes="cc" />
    <path
       sodipodi:type="arc"
       style="fill:#000000;fill-opacity:1;stroke:none"
       id="path4459"
       sodipodi:cx="42.5"
       sodipodi:cy="39.862183"
       sodipodi:rx="2.5"
       sodipodi:ry="2.5"
       d="m 45,39.862183 a 2.5,2.5 0 1 1 -5,0 2.5,2.5 0 1 1 5,0 z"
       transform="matrix(0.6,0,0,0.6,4.5,3.444873)" />
    <path
       sodipodi:type="arc"
       style="fill:#000000;fill-opacity:1;stroke:none"
       id="path4459-0"
       sodipodi:cx="42.5"
       sodipodi:cy="39.862183"
       sodipodi:rx="2.5"
       sodipodi:ry="2.5"
       d="m 45,39.862183 a 2.5,2.5 0 1 1 -5,0 2.5,2.5 0 1 1 5,0 z"
       transform="matrix(0.6,0,0,0.6,164.5,3.444873)" />
    <path
       sodipodi:type="arc"
       style="fill:#000000;fill-opacity:1;stroke:none"
       id="path4459-6"
       sodipodi:cx="42.5"
       sodipodi:cy="39.862183"
       sodipodi:rx="2.5"
       sodipodi:ry="2.5"
       d="m 45,39.862183 a 2.5,2.5 0 1 1 -5,0 2.5,2.5 0 1 1 5,0 z"
       transform="matrix(0.6,0,0,0.5999999,4.5,28.444878)" />
    <path
       sodipodi:type="arc"
       style="fill:#000000;fill-opacity:1;stroke:none"
       id="path4459-0-5"
       sodipodi:cx="42.5"
       sodipodi:cy="39.862183"
       sodipodi:rx="2.5"
       sodipodi:ry="2.5"
       d="m 45,39.862183 a 2.5,2.5 0 1 1 -5,0 2.5,2.5 0 1 1 5,0 z"
       transform="matrix(0.6,0,0,0.6000001,164.5,28.44487)" />
    <path
       sodipodi:type="arc"
       style="fill:#000000;fill-opacity:1;stroke:none"
       id="path4459-3"
       sodipodi:cx="42.5"
       sodipodi:cy="39.862183"
       sodipodi:rx="2.5"
       sodipodi:ry="2.5"
       d="m 45,39.862183 a 2.5,2.5 0 1 1 -5,0 2.5,2.5 0 1 1 5,0 z"
       transform="matrix(0.6,0,0,0.6,84.5,8.444873)" />
    <path
       sodipodi:type="arc"
       style="fill:#000000;fill-opacity:1;stroke:none"
       id="path4459-6-2"
       sodipodi:cx="42.5"
       sodipodi:cy="39.862183"
       sodipodi:rx="2.5"
       sodipodi:ry="2.5"
       d="m 45,39.862183 a 2.5,2.5 0 1 1 -5,0 2.5,2.5 0 1 1 5,0 z"
       transform="matrix(0.6,0,0,0.5999999,4.5,53.444878)" />
    <path
       sodipodi:type="arc"
       style="fill:#000000;fill-opacity:1;stroke:none"
       id="path4459-0-5-8"
       sodipodi:cx="42.5"
       sodipodi:cy="39.862183"
       sodipodi:rx="2.5"
       sodipodi:ry="2.5"
       d="m 45,39.862183 a 2.5,2.5 0 1 1 -5,0 2.5,2.5 0 1 1 5,0 z"
       transform="matrix(0.6,0,0,0.5999999,164.5,53.444878)" />
    <path
       sodipodi:type="arc"
       style="fill:#000000;fill-opacity:1;stroke:none"
       id="path4459-3-4"
       sodipodi:cx="42.5"
       sodipodi:cy="39.862183"
       sodipodi:rx="2.5"
       sodipodi:ry="2.5"
       d="m 45,39.862183 a 2.5,2.5 0 1 1 -5,0 2.5,2.5 0 1 1 5,0 z"
       transform="matrix(0.6,0,0,0.6000001,84.5,33.44487)" />
    <path
       sodipodi:type="arc"
       style="fill:#000000;fill-opacity:1;stroke:none"
       id="path4459-6-2-2"
       sodipodi:cx="42.5"
       sodipodi:cy="39.862183"
       sodipodi:rx="2.5"
       sodipodi:ry="2.5"
       d="m 45,39.862183 a 2.5,2.5 0 1 1 -5,0 2.5,2.5 0 1 1 5,0 z"
       transform="matrix(0.6,0,0,0.6000001,44.5,48.44487)" />
    <path
       sodipodi:type="arc"
       style="fill:#000000;fill-opacity:1;stroke:none"
       id="path4459-6-2-1"
       sodipodi:cx="42.5"
       sodipodi:cy="39.862183"
       sodipodi:rx="2.5"
       sodipodi:ry="2.5"
       d="m 45,39.862183 a 2.5,2.5 0 1 1 -5,0 2.5,2.5 0 1 1 5,0 z"
       transform="matrix(0.6,0,0,0.6000001,124.5,68.44487)" />
    <path
       sodipodi:type="arc"
       style="fill:#000000;fill-opacity:1;stroke:none"
       id="path4459-6-2-3"
       sodipodi:cx="42.5"
       sodipodi:cy="39.862183"
       sodipodi:rx="2.5"
       sodipodi:ry="2.5"
       d="m 45,39.862183 a 2.5,2.5 0 1 1 -5,0 2.5,2.5 0 1 1 5,0 z"
       transform="matrix(0.6,0,0,0.5999999,4.5,78.444878)" />
    <path
       sodipodi:type="arc"
       style="fill:#000000;fill-opacity:1;stroke:none"
       id="path4459-0-5-8-1"
       sodipodi:cx="42.5"
       sodipodi:cy="39.862183"
       sodipodi:rx="2.5"
       sodipodi:ry="2.5"
       d="m 45,39.862183 a 2.5,2.5 0 1 1 -5,0 2.5,2.5 0 1 1 5,0 z"
       transform="matrix(0.6,0,0,0.5999999,164.5,78.444878)" />
    <path
       sodipodi:type="arc"
       style="fill:#000000;fill-opacity:1;stroke:none"
       id="path4459-3-4-0"
       sodipodi:cx="42.5"
       sodipodi:cy="39.862183"
       sodipodi:rx="2.5"
       sodipodi:ry="2.5"
       d="m 45,39.862183 a 2.5,2.5 0 1 1 -5,0 2.5,2.5 0 1 1 5,0 z"
       transform="matrix(0.6,0,0,0.60000004,84.5,58.444872)" />
    <path
       sodipodi:type="arc"
       style="fill:#000000;fill-opacity:1;stroke:none"
       id="path4459-6-2-2-2"
       sodipodi:cx="42.5"
       sodipodi:cy="39.862183"
       sodipodi:rx="2.5"
       sodipodi:ry="2.5"
       d="m 45,39.862183 a 2.5,2.5 0 1 1 -5,0 2.5,2.5 0 1 1 5,0 z"
       transform="matrix(0.6,0,0,0.6000001,44.5,73.44487)" />
    <path
       sodipodi:type="arc"
       style="fill:#000000;fill-opacity:1;stroke:none"
       id="path4459-6-2-1-7"
       sodipodi:cx="42.5"
       sodipodi:cy="39.862183"
       sodipodi:rx="2.5"
       sodipodi:ry="2.5"
       d="m 45,39.862183 a 2.5,2.5 0 1 1 -5,0 2.5,2.5 0 1 1 5,0 z"
       transform="matrix(0.6,0,0,0.6000001,124.5,93.444871)" />
    <path
       sodipodi:type="arc"
       style="fill:#000000;fill-opacity:1;stroke:none"
       id="path4459-6-2-3-2"
       sodipodi:cx="42.5"
       sodipodi:cy="39.862183"
       sodipodi:rx="2.5"
       sodipodi:ry="2.5"
       d="m 45,39.862183 a 2.5,2.5 0 1 1 -5,0 2.5,2.5 0 1 1 5,0 z"
       transform="matrix(0.6,0,0,0.6000001,24.5,84.19487)" />
    <path
       sodipodi:type="arc"
       style="fill:#000000;fill-opacity:1;stroke:none"
       id="path4459-6-2-3-1"
       sodipodi:cx="42.5"
       sodipodi:cy="39.862183"
       sodipodi:rx="2.5"
       sodipodi:ry="2.5"
       d="m 45,39.862183 a 2.5,2.5 0 1 1 -5,0 2.5,2.5 0 1 1 5,0 z"
       transform="matrix(0.6,0,0,0.6000001,64.5,59.19487)" />
    <path
       sodipodi:type="arc"
       style="fill:#000000;fill-opacity:1;stroke:none"
       id="path4459-6-2-3-13"
       sodipodi:cx="42.5"
       sodipodi:cy="39.862183"
       sodipodi:rx="2.5"
       sodipodi:ry="2.5"
       d="m 45,39.862183 a 2.5,2.5 0 1 1 -5,0 2.5,2.5 0 1 1 5,0 z"
       transform="matrix(0.6,0,0,0.6000001,104.5,83.69487)" />
    <path
       sodipodi:type="arc"
       style="fill:#000000;fill-opacity:1;stroke:none"
       id="path4459-6-2-3-6"
       sodipodi:cx="42.5"
       sodipodi:cy="39.862183"
       sodipodi:rx="2.5"
       sodipodi:ry="2.5"
       d="m 45,39.862183 a 2.5,2.5 0 1 1 -5,0 2.5,2.5 0 1 1 5,0 z"
       transform="matrix(0.6,0,0,0.6000001,144.5,93.194871)" />
    <path
       style="fill:none;stroke:#000000;stroke-width:0.5;stroke-linecap:butt;stroke-linejoin:miter;stroke-miterlimit:4;stroke-opacity:1;stroke-dasharray:none;marker-end:url(#Arrow1Mend)"
       d="m 110,51.362184 0,-16"
       id="path5818"
       inkscape:connector-curvature="0"
       sodipodi:nodetypes="cc" />
    <path
       style="fill:none;stroke:#000000;stroke-width:0.34999999;stroke-linecap:butt;stroke-linejoin:miter;stroke-miterlimit:4;stroke-opacity:1;stroke-dasharray:none;marker-end:url(#Arrow1Send)"
       d="m 70,67.862184 0,2.25"
       id="path5818-3"
       inkscape:connector-curvature="0"
       sodipodi:nodetypes="cc" />
    <path
       style="fill:none;stroke:#000000;stroke-width:0.34999999;stroke-linecap:butt;stroke-linejoin:miter;stroke-miterlimit:4;stroke-opacity:1;stroke-dasharray:none;marker-end:url(#Arrow1Mend)"
       d="m 150,68.362184 0,21.25"
       id="path5818-1"
       inkscape:connector-curvature="0"
       sodipodi:nodetypes="cc" />
    <path
       style="fill:none;stroke:#000000;stroke-width:0.5;stroke-linecap:butt;stroke-linejoin:miter;stroke-miterlimit:4;stroke-opacity:1;stroke-dasharray:none;marker-end:url(#Arrow1Send)"
       d="m 50,100.61218 0,4.75"
       id="path7572"
       inkscape:connector-curvature="0"
       sodipodi:nodetypes="cc" />
    <path
       style="fill:none;stroke:#000000;stroke-width:0.5;stroke-linecap:butt;stroke-linejoin:miter;stroke-miterlimit:4;stroke-opacity:1;stroke-dasharray:none;marker-end:url(#Arrow1Send)"
       d="m 90,89.112184 0,-3.25"
       id="path7572-5"
       inkscape:connector-curvature="0"
       sodipodi:nodetypes="cc" />
    <path
       style="fill:none;stroke:#000000;stroke-width:0.5;stroke-linecap:butt;stroke-linejoin:miter;stroke-miterlimit:4;stroke-opacity:1;stroke-dasharray:none;marker-end:url(#Arrow1Send)"
       d="m 130,100.61218 0,4.25"
       id="path7572-0"
       inkscape:connector-curvature="0"
       sodipodi:nodetypes="cc" />
    <path
       style="fill:none;stroke:#000000;stroke-width:0.5;stroke-linecap:butt;stroke-linejoin:miter;stroke-miterlimit:4;stroke-opacity:1;stroke-dasharray:none;marker-end:url(#Arrow1Send)"
       d="m 170,110.61218 0,3.75"
       id="path7572-6"
       inkscape:connector-curvature="0"
       sodipodi:nodetypes="cc" />
    <path
       style="fill:none;stroke:#000000;stroke-width:0.5;stroke-linecap:butt;stroke-linejoin:miter;stroke-miterlimit:4;stroke-opacity:1;stroke-dasharray:2, 0.5;stroke-dashoffset:0"
       d="m 30,27.362183 160,0"
       id="path8581"
       inkscape:connector-curvature="0" />
    <path
       style="fill:none;stroke:#000000;stroke-width:0.5;stroke-linecap:butt;stroke-linejoin:miter;stroke-miterlimit:4;stroke-opacity:1;stroke-dasharray:2, 0.5;stroke-dashoffset:0"
       d="M 30,52.362184 110,32.362183"
       id="path8581-1"
       inkscape:connector-curvature="0"
       sodipodi:nodetypes="cc" />
    <path
       style="fill:none;stroke:#000000;stroke-width:0.5;stroke-linecap:butt;stroke-linejoin:miter;stroke-miterlimit:4;stroke-opacity:1;stroke-dasharray:2, 0.5;stroke-dashoffset:0"
       d="m 110,32.362183 80,20.000001"
       id="path8581-6"
       inkscape:connector-curvature="0"
       sodipodi:nodetypes="cc" />
    <path
       style="fill:none;stroke:#000000;stroke-width:0.5;stroke-linecap:butt;stroke-linejoin:miter;stroke-miterlimit:4;stroke-opacity:1;stroke-dasharray:2, 0.5;stroke-dashoffset:0"
       d="m 150,92.362184 40,-15"
       id="path8581-6-0"
       inkscape:connector-curvature="0"
       sodipodi:nodetypes="cc" />
    <path
       style="fill:none;stroke:#000000;stroke-width:0.5;stroke-linecap:butt;stroke-linejoin:miter;stroke-miterlimit:4;stroke-opacity:1;stroke-dasharray:2, 0.5;stroke-dashoffset:0"
       d="m 110,57.362184 40,35"
       id="path8581-6-3"
       inkscape:connector-curvature="0"
       sodipodi:nodetypes="cc" />
    <path
       style="fill:none;stroke:#000000;stroke-width:0.5;stroke-linecap:butt;stroke-linejoin:miter;stroke-miterlimit:4;stroke-opacity:1;stroke-dasharray:2, 0.5;stroke-dashoffset:0"
       d="m 70,72.362184 40,-15"
       id="path8581-6-9"
       inkscape:connector-curvature="0"
       sodipodi:nodetypes="cc" />
    <path
       style="fill:none;stroke:#000000;stroke-width:0.5;stroke-linecap:butt;stroke-linejoin:miter;stroke-miterlimit:4;stroke-opacity:1;stroke-dasharray:2, 0.5;stroke-dashoffset:0"
       d="m 30,77.362184 40,-5"
       id="path8581-6-8"
       inkscape:connector-curvature="0"
       sodipodi:nodetypes="cc" />
    <path
       style="fill:none;stroke:#000000;stroke-width:0.5;stroke-linecap:butt;stroke-linejoin:miter;stroke-miterlimit:4;stroke-opacity:1;stroke-dasharray:2, 0.5;stroke-dashoffset:0"
       d="m 30,102.36219 20,5.75"
       id="path8581-6-2"
       inkscape:connector-curvature="0"
       sodipodi:nodetypes="cc" />
    <path
       style="fill:none;stroke:#000000;stroke-width:0.5;stroke-linecap:butt;stroke-linejoin:miter;stroke-miterlimit:4;stroke-opacity:1;stroke-dasharray:2, 0.5;stroke-dashoffset:0"
       d="M 50,108.11219 70,97.362184"
       id="path8581-6-7"
       inkscape:connector-curvature="0"
       sodipodi:nodetypes="cc" />
    <path
       style="fill:none;stroke:#000000;stroke-width:0.5;stroke-linecap:butt;stroke-linejoin:miter;stroke-miterlimit:4;stroke-opacity:1;stroke-dasharray:2, 0.5;stroke-dashoffset:0"
       d="m 70,97.362184 20,-14.25"
       id="path8581-6-7-0"
       inkscape:connector-curvature="0"
       sodipodi:nodetypes="cc" />
    <path
       style="fill:none;stroke:#000000;stroke-width:0.5;stroke-linecap:butt;stroke-linejoin:miter;stroke-miterlimit:4;stroke-opacity:1;stroke-dasharray:2, 0.5;stroke-dashoffset:0"
       d="m 90,83.112184 20,-0.750001"
       id="path8581-6-7-7"
       inkscape:connector-curvature="0"
       sodipodi:nodetypes="cc" />
    <path
       style="fill:none;stroke:#000000;stroke-width:0.5;stroke-linecap:butt;stroke-linejoin:miter;stroke-miterlimit:4;stroke-opacity:1;stroke-dasharray:2, 0.5;stroke-dashoffset:0"
       d="m 110,82.362183 20,25.250007"
       id="path8581-6-7-1"
       inkscape:connector-curvature="0"
       sodipodi:nodetypes="cc" />
    <path
       style="fill:none;stroke:#000000;stroke-width:0.5;stroke-linecap:butt;stroke-linejoin:miter;stroke-miterlimit:4;stroke-opacity:1;stroke-dasharray:2, 0.5;stroke-dashoffset:0"
       d="m 130,107.61219 20,9.75"
       id="path8581-6-7-8"
       inkscape:connector-curvature="0"
       sodipodi:nodetypes="cc" />
    <path
       style="fill:none;stroke:#000000;stroke-width:0.5;stroke-linecap:butt;stroke-linejoin:miter;stroke-miterlimit:4;stroke-opacity:1;stroke-dasharray:2, 0.5;stroke-dashoffset:0"
       d="m 150,117.36219 20,-0.25"
       id="path8581-6-7-3"
       inkscape:connector-curvature="0"
       sodipodi:nodetypes="cc" />
    <path
       style="fill:none;stroke:#000000;stroke-width:0.5;stroke-linecap:butt;stroke-linejoin:miter;stroke-miterlimit:4;stroke-opacity:1;stroke-dasharray:2, 0.5;stroke-dashoffset:0"
       d="m 170,117.11219 20,-14.75"
       id="path8581-6-7-5"
       inkscape:connector-curvature="0"
       sodipodi:nodetypes="cc" />
    <text
       xml:space="preserve"
       style="font-size:12px;font-style:normal;font-variant:normal;font-weight:normal;font-stretch:normal;text-align:end;line-height:125%;letter-spacing:0px;word-spacing:0px;text-anchor:end;fill:#000000;fill-opacity:1;stroke:none;font-family:Liberation Serif;-inkscape-font-specification:Liberation Serif"
       x="23.233509"
       y="35.012302"
       id="text4305"
       sodipodi:linespacing="125%"><tspan
         sodipodi:role="line"
         id="tspan4307"
         x="23.233509"
         y="35.012302" /></text>
    <text
       xml:space="preserve"
       style="font-size:12px;font-style:normal;font-variant:normal;font-weight:normal;font-stretch:normal;text-align:end;line-height:125%;letter-spacing:0px;word-spacing:0px;text-anchor:end;fill:#000000;fill-opacity:1;stroke:none;font-family:Liberation Serif;-inkscape-font-specification:Liberation Serif"
       x="21"
       y="56.362183"
       id="text4309"
       sodipodi:linespacing="125%"><tspan
         sodipodi:role="line"
         id="tspan4311"
         x="21"
         y="56.362183">$i = 0$</tspan></text>
    <text
       xml:space="preserve"
       style="font-size:12px;font-style:normal;font-variant:normal;font-weight:normal;font-stretch:normal;text-align:end;line-height:125%;letter-spacing:0px;word-spacing:0px;text-anchor:end;fill:#000000;fill-opacity:1;stroke:none;font-family:Liberation Serif;-inkscape-font-specification:Liberation Serif"
       x="21"
       y="81.362183"
       id="text4313"
       sodipodi:linespacing="125%"><tspan
         sodipodi:role="line"
         id="tspan4315"
         x="21"
         y="81.362183">$i = 1$</tspan></text>
    <text
       xml:space="preserve"
       style="font-size:12px;font-style:normal;font-variant:normal;font-weight:normal;font-stretch:normal;text-align:end;line-height:125%;letter-spacing:0px;word-spacing:0px;text-anchor:end;fill:#000000;fill-opacity:1;stroke:none;font-family:Liberation Serif;-inkscape-font-specification:Liberation Serif"
       x="21"
       y="106.36218"
       id="text4317"
       sodipodi:linespacing="125%"><tspan
         sodipodi:role="line"
         id="tspan4319"
         x="21"
         y="106.36218">$i = 2$</tspan></text>
    <text
       xml:space="preserve"
       x="190"
       y="17.362183"
       id="text4321-3"
       style="text-align:center;text-anchor:middle"><tspan
         sodipodi:role="line"
         id="tspan4323-8"
         x="190"
         y="17.362183">$y_n$</tspan></text>
  </g>
</svg>
