<?xml version="1.0" encoding="UTF-8" standalone="no"?>
<!-- Created with Inkscape (http://www.inkscape.org/) -->

<svg
   xmlns:dc="http://purl.org/dc/elements/1.1/"
   xmlns:cc="http://creativecommons.org/ns#"
   xmlns:rdf="http://www.w3.org/1999/02/22-rdf-syntax-ns#"
   xmlns:svg="http://www.w3.org/2000/svg"
   xmlns="http://www.w3.org/2000/svg"
   xmlns:xlink="http://www.w3.org/1999/xlink"
   xmlns:sodipodi="http://sodipodi.sourceforge.net/DTD/sodipodi-0.dtd"
   xmlns:inkscape="http://www.inkscape.org/namespaces/inkscape"
   width="744.09448819"
   height="1052.3622047"
   id="svg4108"
   version="1.1"
   inkscape:version="0.48.4 r9939"
   sodipodi:docname="figure02.svg">
  <defs
     id="defs4110">
    <clipPath
       clipPathUnits="userSpaceOnUse"
       id="clipPath6409">
      <rect
         style="fill:#ff0000;fill-opacity:0.23557691;fill-rule:nonzero;stroke:none"
         id="rect6411"
         width="320"
         height="450"
         x="160"
         y="117.36218" />
    </clipPath>
    <clipPath
       clipPathUnits="userSpaceOnUse"
       id="clipPath6491">
      <path
         sodipodi:type="arc"
         style="fill:none;stroke:#0000ff;stroke-width:0.34366214;stroke-miterlimit:4;stroke-opacity:0.9182692;stroke-dasharray:none"
         id="path6493"
         sodipodi:cx="250.71428"
         sodipodi:cy="148.79076"
         sodipodi:rx="17.857143"
         sodipodi:ry="17.857143"
         d="m 268.57142,148.79076 a 17.857143,17.857143 0 1 1 -35.71428,0 17.857143,17.857143 0 1 1 35.71428,0 z"
         transform="matrix(5.8196692,0,0,5.8196692,-1139.0742,-453.5508)" />
    </clipPath>
  </defs>
  <sodipodi:namedview
     id="base"
     pagecolor="#ffffff"
     bordercolor="#666666"
     borderopacity="1.0"
     inkscape:pageopacity="0.0"
     inkscape:pageshadow="2"
     inkscape:zoom="3.959798"
     inkscape:cx="289.42004"
     inkscape:cy="618.02553"
     inkscape:document-units="px"
     inkscape:current-layer="g6317"
     showgrid="false"
     inkscape:snap-nodes="true"
     inkscape:snap-bbox="false"
     inkscape:snap-bbox-midpoints="true"
     inkscape:snap-object-midpoints="true"
     inkscape:object-nodes="false"
     inkscape:window-width="1912"
     inkscape:window-height="1155"
     inkscape:window-x="0"
     inkscape:window-y="220"
     inkscape:window-maximized="0"
     inkscape:snap-global="false">
    <inkscape:grid
       type="xygrid"
       id="grid4116"
       empspacing="5"
       visible="true"
       enabled="true"
       snapvisiblegridlinesonly="true" />
  </sodipodi:namedview>
  <metadata
     id="metadata4113">
    <rdf:RDF>
      <cc:Work
         rdf:about="">
        <dc:format>image/svg+xml</dc:format>
        <dc:type
           rdf:resource="http://purl.org/dc/dcmitype/StillImage" />
        <dc:title></dc:title>
      </cc:Work>
    </rdf:RDF>
  </metadata>
  <g
     inkscape:label="Layer 1"
     inkscape:groupmode="layer"
     id="layer1">
    <g
       id="g6317"
       clip-path="url(#clipPath6409)">
      <path
         style="fill:#ffff00;fill-opacity:0.47115389;fill-rule:nonzero;stroke:none"
         d="m 160,318.59375 c -51.06651,0 -92.46875,42.00177 -92.46875,93.78125 0,51.77949 41.40224,93.75 92.46875,93.75 34.15679,0 64.08091,-17.44806 80.08929,-45.37946 16.00838,27.9314 45.75392,45.37946 79.91071,45.37946 34.15755,0 63.86184,-16.57811 79.87373,-44.50904 16.00838,27.9314 45.96948,44.50904 80.12627,44.50904 51.06651,0 92.46875,-41.97051 92.46875,-93.75 0,-51.77948 -41.40224,-93.78125 -92.46875,-93.78125 -34.15679,0 -63.99162,18.78735 -80,46.71875 -16.01252,-27.93768 -45.8443,-46.71875 -80,-46.71875 -34.15679,0 -63.99162,18.78735 -80,46.71875 -16.00838,-27.9314 -45.84321,-46.71875 -80,-46.71875 z M 160,336.5 c 32.68705,0 59.96361,18.79733 70.625,47.79075 -2.37622,8.3063 -4.625,18.98804 -4.625,28.07143 0,9.08339 2.07021,20.1937 4.44643,28.5 C 219.78504,469.84806 192.68705,488.1875 160,488.1875 c -41.88408,0 -75.84375,-33.92842 -75.84375,-75.8125 0,-41.88407 33.95967,-75.875 75.84375,-75.875 z m 160,0 c 32.68705,0 59.65311,19.16596 70.3125,48.16575 -2.37622,8.3063 -4.3125,18.61304 -4.3125,27.69643 0,9.08339 2.07021,19.79191 4.44643,28.09821 C 379.78704,469.44346 352.68705,488.1875 320,488.1875 c -32.68705,0 -59.78503,-18.50015 -70.44643,-47.48603 2.37622,-8.3063 4.44643,-19.2559 4.44643,-28.33929 0,-9.08339 -1.93628,-19.80977 -4.3125,-28.11607 C 260.3489,355.25269 287.31295,336.5 320,336.5 z m 160,0 c 41.88407,0 75.84375,33.99093 75.84375,75.875 0,41.88408 -33.95968,75.8125 -75.84375,75.8125 -32.66244,0 -59.67789,-18.6863 -70.35714,-47.63782 2.38713,-8.3225 4.35714,-19.08379 4.35714,-28.1875 0,-9.10371 -1.88073,-20.04198 -4.26786,-28.36607 C 420.40396,355.02272 447.3273,336.5 480,336.5 z"
         id="path6499-1"
         inkscape:connector-curvature="0"
         sodipodi:nodetypes="ssscscssscscsscscsssscscscscsssscscs" />
      <path
         style="fill:none;stroke:#000000;stroke-width:2;stroke-miterlimit:4;stroke-opacity:1"
         d="M 390.62883 440.02771 C 379.57125 468.22367 352.11714 488.18842 319.99999 488.18842 C 278.11591 488.18842 244.16218 454.23465 244.16218 412.35062 C 244.16218 370.46654 278.11591 336.51277 319.99999 336.51277 C 351.99852 336.51277 379.3684 356.33033 390.50565 384.36143 "
         id="path6035" />
      <path
         style="fill:none;stroke:#000000;stroke-width:2;stroke-miterlimit:4;stroke-opacity:1"
         d="M 400.10924 461.38436 C 383.59667 488.30439 353.89542 506.26169 320 506.26169 C 268.13433 506.26169 226.08894 464.21624 226.08894 412.35062 C 226.08894 360.48495 268.13433 318.4395 320 318.4395 C 371.86567 318.4395 413.91107 360.48495 413.91107 412.35062 L 413.91107 412.35062 L 413.91107 412.35062 C 413.91107 422.22903 412.38585 431.7512 409.55805 440.6945 "
         id="path7106" />
      <path
         transform="matrix(1.26,0,0,1.26,-155.89999,224.88583)"
         d="m 268.57142,148.79076 a 17.857143,17.857143 0 1 1 -35.71428,0 17.857143,17.857143 0 1 1 35.71428,0 z"
         sodipodi:ry="17.857143"
         sodipodi:rx="17.857143"
         sodipodi:cy="148.79076"
         sodipodi:cx="250.71428"
         id="path158576-0"
         style="fill:#268bd2;fill-opacity:1;fill-rule:nonzero;stroke:none"
         sodipodi:type="arc" />
      <path
         sodipodi:type="arc"
         style="fill:#268bd2;fill-opacity:1;fill-rule:nonzero;stroke:none"
         id="use5971"
         sodipodi:cx="250.71428"
         sodipodi:cy="148.79076"
         sodipodi:rx="17.857143"
         sodipodi:ry="17.857143"
         d="m 268.57142,148.79076 a 17.857143,17.857143 0 1 1 -35.71428,0 17.857143,17.857143 0 1 1 35.71428,0 z"
         transform="matrix(1.26,0,0,1.26,4.10001,224.88583)" />
      <path
         sodipodi:type="arc"
         style="fill:#268bd2;fill-opacity:1;fill-rule:nonzero;stroke:none"
         id="use5975"
         sodipodi:cx="250.71428"
         sodipodi:cy="148.79076"
         sodipodi:rx="17.857143"
         sodipodi:ry="17.857143"
         d="m 268.57142,148.79076 a 17.857143,17.857143 0 1 1 -35.71428,0 17.857143,17.857143 0 1 1 35.71428,0 z"
         transform="matrix(1.26,0,0,1.26,164.10001,224.88583)" />
      <path
         style="fill:none;stroke:#000000;stroke-width:2;stroke-miterlimit:4;stroke-opacity:1"
         d="M 409.53075 384.26994 C 420.69115 356.28722 448.03628 336.51277 479.99999 336.51277 C 521.88407 336.51277 555.83779 370.46654 555.83779 412.35062 L 555.83779 412.35062 L 555.83779 412.35062 C 555.83779 454.23465 521.88407 488.18842 479.99999 488.18842 C 447.928 488.18842 420.50595 468.27978 409.41789 440.14662 "
         id="path7091" />
      <path
         style="fill:none;stroke:#000000;stroke-width:2;stroke-miterlimit:4;stroke-opacity:1"
         d="M 390.45086 440.72263 C 387.61736 431.77118 386.08894 422.23939 386.08894 412.35062 C 386.08894 360.48495 428.13433 318.4395 480 318.4395 C 531.86567 318.4395 573.91107 360.48495 573.91107 412.35062 L 573.91107 412.35062 L 573.91107 412.35062 C 573.91107 464.21624 531.86567 506.26169 480 506.26169 C 446.17958 506.26169 416.53479 488.38377 400.00056 461.56291 "
         id="path7101" />
      <path
         transform="matrix(4.2469178,0,0,4.2469178,-904.76295,-219.55151)"
         style="fill:none;stroke:#000000;stroke-width:0.47092977;stroke-miterlimit:4;stroke-opacity:1"
         d="m 268.57142,148.79076 c 0,9.86222 -7.99491,17.85714 -17.85714,17.85714 -9.86223,0 -17.85714,-7.99492 -17.85714,-17.85714 0,-9.86223 7.99491,-17.85715 17.85714,-17.85715 9.86223,0 17.85714,7.99492 17.85714,17.85715 z"
         id="path6035-7" />
      <path
         transform="matrix(5.2590206,0,0,5.2590206,-1158.5116,-370.14305)"
         style="fill:none;stroke:#000000;stroke-width:0.38029894;stroke-miterlimit:4;stroke-opacity:1"
         d="m 268.57142,148.79076 c 0,9.86222 -7.99491,17.85714 -17.85714,17.85714 -9.86223,0 -17.85714,-7.99492 -17.85714,-17.85714 0,-9.86223 7.99491,-17.85715 17.85714,-17.85715 9.86223,0 17.85714,7.99492 17.85714,17.85715 z"
         id="path6037-6" />
    </g>
    <path
       style="fill:none;stroke:#000000;stroke-width:0.99999994;stroke-linecap:butt;stroke-linejoin:miter;stroke-miterlimit:4;stroke-opacity:1;stroke-dasharray:8.00000001, 4;stroke-dashoffset:0"
       d="m 480,302.36219 0,219.99999"
       id="path6415"
       inkscape:connector-curvature="0"
       sodipodi:nodetypes="cc" />
    <use
       x="0"
       y="0"
       xlink:href="#path6415"
       id="use6417"
       transform="translate(-320,2.6171874e-6)"
       width="744.09448"
       height="1052.3622" />
  </g>
</svg>
