<?xml version="1.0" encoding="UTF-8" standalone="no"?>
<!-- Created with Inkscape (http://www.inkscape.org/) -->

<svg
   xmlns:dc="http://purl.org/dc/elements/1.1/"
   xmlns:cc="http://creativecommons.org/ns#"
   xmlns:rdf="http://www.w3.org/1999/02/22-rdf-syntax-ns#"
   xmlns:svg="http://www.w3.org/2000/svg"
   xmlns="http://www.w3.org/2000/svg"
   xmlns:xlink="http://www.w3.org/1999/xlink"
   xmlns:sodipodi="http://sodipodi.sourceforge.net/DTD/sodipodi-0.dtd"
   xmlns:inkscape="http://www.inkscape.org/namespaces/inkscape"
   width="744.09448819"
   height="1052.3622047"
   id="svg4108"
   version="1.1"
   inkscape:version="0.48.4 r9939"
   sodipodi:docname="figure12.svg">
  <defs
     id="defs4110">
    <marker
       inkscape:stockid="Arrow1Mend"
       orient="auto"
       refY="0.0"
       refX="0.0"
       id="Arrow1Mend"
       style="overflow:visible;">
      <path
         id="path10365"
         d="M 0.0,0.0 L 5.0,-5.0 L -12.5,0.0 L 5.0,5.0 L 0.0,0.0 z "
         style="fill-rule:evenodd;stroke:#000000;stroke-width:1.0pt;"
         transform="scale(0.4) rotate(180) translate(10,0)" />
    </marker>
    <clipPath
       clipPathUnits="userSpaceOnUse"
       id="clipPath6409">
      <rect
         style="fill:#ff0000;fill-opacity:0.23557691;fill-rule:nonzero;stroke:none"
         id="rect6411"
         width="320"
         height="450"
         x="160"
         y="117.36218" />
    </clipPath>
    <clipPath
       clipPathUnits="userSpaceOnUse"
       id="clipPath6491">
      <path
         sodipodi:type="arc"
         style="fill:none;stroke:#0000ff;stroke-width:0.34366214;stroke-miterlimit:4;stroke-opacity:0.9182692;stroke-dasharray:none"
         id="path6493"
         sodipodi:cx="250.71428"
         sodipodi:cy="148.79076"
         sodipodi:rx="17.857143"
         sodipodi:ry="17.857143"
         d="m 268.57142,148.79076 a 17.857143,17.857143 0 1 1 -35.71428,0 17.857143,17.857143 0 1 1 35.71428,0 z"
         transform="matrix(5.8196692,0,0,5.8196692,-1139.0742,-453.5508)" />
    </clipPath>
    <clipPath
       clipPathUnits="userSpaceOnUse"
       id="clipPath10078-6">
      <path
         style="fill:#fffc00;fill-opacity:0.49519234;stroke:none"
         d="m 320,318.4375 c -51.86567,0 -93.90625,42.04058 -93.90625,93.90625 0,51.86562 42.04058,93.90625 93.90625,93.90625 42.03652,0 77.61568,-27.60575 89.59375,-65.6875 -3.49708,-8.72062 -5.4375,-18.21706 -5.4375,-28.1875 0,-9.97045 1.94042,-19.49812 5.4375,-28.21875 C 397.61679,346.07261 362.03785,318.4375 320,318.4375 z m 90.625,69.1875 c 0.29952,1.09858 0.55224,2.19861 0.8125,3.3125 -0.25877,-1.10872 -0.51483,-2.21926 -0.8125,-3.3125 z m 0.875,3.53125 c 0.24357,1.05395 0.47977,2.12047 0.6875,3.1875 -0.2083,-1.07234 -0.44305,-2.12853 -0.6875,-3.1875 z m 1.34375,6.90625 c 0.17212,1.12493 0.30576,2.26847 0.4375,3.40625 -0.1324,-1.14794 -0.26408,-2.27129 -0.4375,-3.40625 z m 0.4375,3.40625 c 0.12215,1.05496 0.2257,2.09075 0.3125,3.15625 -0.0859,-1.05523 -0.19196,-2.11118 -0.3125,-3.15625 z m 0.3125,18.625 c -0.0863,1.05755 -0.19143,2.10882 -0.3125,3.15625 0.12086,-1.04489 0.22623,-2.1012 0.3125,-3.15625 z m -1.4375,10.375 c -0.20252,1.03608 -0.42001,2.07024 -0.65625,3.09375 0.23627,-1.02351 0.45375,-2.05774 0.65625,-3.09375 z m -0.71875,3.3125 c -0.25044,1.07315 -0.49441,2.12898 -0.78125,3.1875 0.28609,-1.05586 0.53142,-2.11722 0.78125,-3.1875 z"
         id="path10080-6"
         inkscape:connector-curvature="0" />
    </clipPath>
    <mask
       maskUnits="userSpaceOnUse"
       id="mask10123-1">
      <path
         style="fill:#fffc00;fill-opacity:0.49519234;stroke:none"
         d="m 320,318.4375 c -42.03785,0 -77.61679,27.63511 -89.59375,65.71875 3.49708,8.72063 5.4375,18.21705 5.4375,28.1875 0,9.97044 -1.94042,19.49813 -5.4375,28.21875 11.97807,38.08175 47.55723,65.6875 89.59375,65.6875 51.86567,0 93.90625,-42.04063 93.90625,-93.90625 0,-51.86567 -42.04058,-93.90625 -93.90625,-93.90625 z"
         id="path10125-2"
         inkscape:connector-curvature="0" />
    </mask>
    <clipPath
       clipPathUnits="userSpaceOnUse"
       id="clipPath10078-6-1">
      <path
         style="fill:#fffc00;fill-opacity:0.49519234;stroke:none"
         d="m 320,318.4375 c -51.86567,0 -93.90625,42.04058 -93.90625,93.90625 0,51.86562 42.04058,93.90625 93.90625,93.90625 42.03652,0 77.61568,-27.60575 89.59375,-65.6875 -3.49708,-8.72062 -5.4375,-18.21706 -5.4375,-28.1875 0,-9.97045 1.94042,-19.49812 5.4375,-28.21875 C 397.61679,346.07261 362.03785,318.4375 320,318.4375 z m 90.625,69.1875 c 0.29952,1.09858 0.55224,2.19861 0.8125,3.3125 -0.25877,-1.10872 -0.51483,-2.21926 -0.8125,-3.3125 z m 0.875,3.53125 c 0.24357,1.05395 0.47977,2.12047 0.6875,3.1875 -0.2083,-1.07234 -0.44305,-2.12853 -0.6875,-3.1875 z m 1.34375,6.90625 c 0.17212,1.12493 0.30576,2.26847 0.4375,3.40625 -0.1324,-1.14794 -0.26408,-2.27129 -0.4375,-3.40625 z m 0.4375,3.40625 c 0.12215,1.05496 0.2257,2.09075 0.3125,3.15625 -0.0859,-1.05523 -0.19196,-2.11118 -0.3125,-3.15625 z m 0.3125,18.625 c -0.0863,1.05755 -0.19143,2.10882 -0.3125,3.15625 0.12086,-1.04489 0.22623,-2.1012 0.3125,-3.15625 z m -1.4375,10.375 c -0.20252,1.03608 -0.42001,2.07024 -0.65625,3.09375 0.23627,-1.02351 0.45375,-2.05774 0.65625,-3.09375 z m -0.71875,3.3125 c -0.25044,1.07315 -0.49441,2.12898 -0.78125,3.1875 0.28609,-1.05586 0.53142,-2.11722 0.78125,-3.1875 z"
         id="path10080-6-4"
         inkscape:connector-curvature="0" />
    </clipPath>
    <mask
       maskUnits="userSpaceOnUse"
       id="mask10123-1-1">
      <path
         style="fill:#fffc00;fill-opacity:0.49519234;stroke:none"
         d="m 320,318.4375 c -42.03785,0 -77.61679,27.63511 -89.59375,65.71875 3.49708,8.72063 5.4375,18.21705 5.4375,28.1875 0,9.97044 -1.94042,19.49813 -5.4375,28.21875 11.97807,38.08175 47.55723,65.6875 89.59375,65.6875 51.86567,0 93.90625,-42.04063 93.90625,-93.90625 0,-51.86567 -42.04058,-93.90625 -93.90625,-93.90625 z"
         id="path10125-2-3"
         inkscape:connector-curvature="0" />
    </mask>
    <marker
       inkscape:stockid="Arrow1Mend"
       orient="auto"
       refY="0"
       refX="0"
       id="Arrow1Mend-7"
       style="overflow:visible">
      <path
         inkscape:connector-curvature="0"
         id="path10365-4"
         d="M 0,0 5,-5 -12.5,0 5,5 0,0 z"
         style="fill-rule:evenodd;stroke:#000000;stroke-width:1pt"
         transform="matrix(-0.4,0,0,-0.4,-4,0)" />
    </marker>
    <marker
       inkscape:stockid="Arrow1Mend"
       orient="auto"
       refY="0"
       refX="0"
       id="Arrow1Mend-3"
       style="overflow:visible">
      <path
         inkscape:connector-curvature="0"
         id="path10365-5"
         d="M 0,0 5,-5 -12.5,0 5,5 0,0 z"
         style="fill-rule:evenodd;stroke:#000000;stroke-width:1pt"
         transform="matrix(-0.4,0,0,-0.4,-4,0)" />
    </marker>
    <marker
       inkscape:stockid="Arrow1Mend"
       orient="auto"
       refY="0"
       refX="0"
       id="Arrow1Mend-1"
       style="overflow:visible">
      <path
         inkscape:connector-curvature="0"
         id="path10365-8"
         d="M 0,0 5,-5 -12.5,0 5,5 0,0 z"
         style="fill-rule:evenodd;stroke:#000000;stroke-width:1pt"
         transform="matrix(-0.4,0,0,-0.4,-4,0)" />
    </marker>
    <marker
       inkscape:stockid="Arrow1Mend"
       orient="auto"
       refY="0"
       refX="0"
       id="Arrow1Mend-19"
       style="overflow:visible">
      <path
         inkscape:connector-curvature="0"
         id="path10365-6"
         d="M 0,0 5,-5 -12.5,0 5,5 0,0 z"
         style="fill-rule:evenodd;stroke:#000000;stroke-width:1pt"
         transform="matrix(-0.4,0,0,-0.4,-4,0)" />
    </marker>
    <marker
       inkscape:stockid="Arrow1Mend"
       orient="auto"
       refY="0"
       refX="0"
       id="Arrow1Mend-30"
       style="overflow:visible">
      <path
         inkscape:connector-curvature="0"
         id="path10365-3"
         d="M 0,0 5,-5 -12.5,0 5,5 0,0 z"
         style="fill-rule:evenodd;stroke:#000000;stroke-width:1pt"
         transform="matrix(-0.4,0,0,-0.4,-4,0)" />
    </marker>
  </defs>
  <sodipodi:namedview
     id="base"
     pagecolor="#ffffff"
     bordercolor="#666666"
     borderopacity="1.0"
     inkscape:pageopacity="0.0"
     inkscape:pageshadow="2"
     inkscape:zoom="4"
     inkscape:cx="324.87821"
     inkscape:cy="667.93524"
     inkscape:document-units="px"
     inkscape:current-layer="layer1"
     showgrid="false"
     inkscape:snap-nodes="true"
     inkscape:snap-bbox="true"
     inkscape:snap-bbox-midpoints="false"
     inkscape:snap-object-midpoints="true"
     inkscape:object-nodes="false"
     inkscape:window-width="1912"
     inkscape:window-height="1155"
     inkscape:window-x="0"
     inkscape:window-y="220"
     inkscape:window-maximized="0"
     inkscape:snap-bbox-edge-midpoints="false"
     inkscape:bbox-nodes="true"
     inkscape:snap-global="false">
    <inkscape:grid
       type="xygrid"
       id="grid4116"
       empspacing="5"
       visible="true"
       enabled="true"
       snapvisiblegridlinesonly="true" />
  </sodipodi:namedview>
  <metadata
     id="metadata4113">
    <rdf:RDF>
      <cc:Work
         rdf:about="">
        <dc:format>image/svg+xml</dc:format>
        <dc:type
           rdf:resource="http://purl.org/dc/dcmitype/StillImage" />
        <dc:title></dc:title>
      </cc:Work>
    </rdf:RDF>
  </metadata>
  <g
     inkscape:label="Layer 1"
     inkscape:groupmode="layer"
     id="layer1">
    <g
       id="g6317"
       clip-path="url(#clipPath6409)">
      <g
         id="g13075">
        <path
           id="path13021"
           d="M 375.21875 336.5 C 374.30585 335.83415 373.43741 335.10205 372.5 334.46875 C 370.00195 332.7811 367.41131 331.22696 364.75 329.78125 C 362.08869 328.33554 359.37134 327.00054 356.5625 325.8125 C 353.75366 324.62446 350.87813 323.57088 347.9375 322.65625 C 344.99687 321.74162 341.99419 320.96924 338.9375 320.34375 C 335.88081 319.71826 332.75077 319.25811 329.59375 318.9375 C 326.43673 318.61689 323.2416 318.4375 320 318.4375 C 316.7584 318.4375 313.56327 318.61689 310.40625 318.9375 C 307.24923 319.25811 304.11919 319.71826 301.0625 320.34375 C 298.00581 320.96924 295.00313 321.74162 292.0625 322.65625 C 289.12187 323.57088 286.24634 324.62446 283.4375 325.8125 C 280.62866 327.00054 277.91131 328.33554 275.25 329.78125 C 272.58869 331.22696 269.99805 332.7811 267.5 334.46875 C 266.56259 335.10205 265.69415 335.83415 264.78125 336.5 L 375.21875 336.5 z "
           style="fill:#939898;fill-opacity:1;fill-rule:nonzero;stroke:none" />
        <path
           id="path13043"
           d="M 535.21875 336.5 C 534.30585 335.83415 533.43741 335.10205 532.5 334.46875 C 530.00195 332.7811 527.41131 331.22696 524.75 329.78125 C 522.08869 328.33554 519.37134 327.00054 516.5625 325.8125 C 513.75366 324.62446 510.87813 323.57088 507.9375 322.65625 C 504.99687 321.74162 501.99419 320.96924 498.9375 320.34375 C 495.88081 319.71826 492.75077 319.25811 489.59375 318.9375 C 486.43673 318.61689 483.2416 318.4375 480 318.4375 C 476.7584 318.4375 473.56327 318.61689 470.40625 318.9375 C 467.24923 319.25811 464.11919 319.71826 461.0625 320.34375 C 458.00581 320.96924 455.00313 321.74162 452.0625 322.65625 C 449.12187 323.57088 446.24634 324.62446 443.4375 325.8125 C 440.62866 327.00054 437.91131 328.33554 435.25 329.78125 C 432.58869 331.22696 429.99805 332.7811 427.5 334.46875 C 426.56259 335.10205 425.69415 335.83415 424.78125 336.5 L 535.21875 336.5 z "
           style="fill:#939898;fill-opacity:1;fill-rule:nonzero;stroke:none" />
        <path
           id="path13054"
           d="M 215.21875 336.5 C 214.30585 335.83415 213.43741 335.10205 212.5 334.46875 C 210.00195 332.7811 207.41131 331.22696 204.75 329.78125 C 202.08869 328.33554 199.37134 327.00054 196.5625 325.8125 C 193.75366 324.62446 190.87813 323.57088 187.9375 322.65625 C 184.99687 321.74162 181.99419 320.96924 178.9375 320.34375 C 175.88081 319.71826 172.75077 319.25811 169.59375 318.9375 C 166.43673 318.61689 163.2416 318.4375 160 318.4375 C 156.7584 318.4375 153.56327 318.61689 150.40625 318.9375 C 147.24923 319.25811 144.11919 319.71826 141.0625 320.34375 C 138.00581 320.96924 135.00313 321.74162 132.0625 322.65625 C 129.12187 323.57088 126.24634 324.62446 123.4375 325.8125 C 122.44081 326.23407 121.51001 326.7641 120.53125 327.21875 L 120.53125 336.5 L 215.21875 336.5 z "
           style="fill:#939898;fill-opacity:1;fill-rule:nonzero;stroke:none" />
      </g>
      <path
         style="fill:#ffff00;fill-opacity:1;fill-rule:nonzero;stroke:none"
         d="M 120.53125 318.34375 L 120.53125 327.21875 C 121.51001 326.7641 122.44081 326.23407 123.4375 325.8125 C 126.24634 324.62446 129.12187 323.57088 132.0625 322.65625 C 135.00313 321.74162 138.00581 320.96924 141.0625 320.34375 C 144.11919 319.71826 147.24923 319.25811 150.40625 318.9375 C 153.56327 318.61689 156.7584 318.4375 160 318.4375 C 163.2416 318.4375 166.43673 318.61689 169.59375 318.9375 C 172.75077 319.25811 175.88081 319.71826 178.9375 320.34375 C 181.99419 320.96924 184.99687 321.74162 187.9375 322.65625 C 190.87813 323.57088 193.75366 324.62446 196.5625 325.8125 C 199.37134 327.00054 202.08869 328.33554 204.75 329.78125 C 207.41131 331.22696 210.00195 332.7811 212.5 334.46875 C 213.43741 335.10205 214.30585 335.83415 215.21875 336.5 L 264.78125 336.5 C 265.69415 335.83415 266.56259 335.10205 267.5 334.46875 C 269.99805 332.7811 272.58869 331.22696 275.25 329.78125 C 277.91131 328.33554 280.62866 327.00054 283.4375 325.8125 C 286.24634 324.62446 289.12187 323.57088 292.0625 322.65625 C 295.00313 321.74162 298.00581 320.96924 301.0625 320.34375 C 304.11919 319.71826 307.24923 319.25811 310.40625 318.9375 C 313.56327 318.61689 316.7584 318.4375 320 318.4375 C 323.2416 318.4375 326.43673 318.61689 329.59375 318.9375 C 332.75077 319.25811 335.88081 319.71826 338.9375 320.34375 C 341.99419 320.96924 344.99687 321.74162 347.9375 322.65625 C 350.87813 323.57088 353.75366 324.62446 356.5625 325.8125 C 359.37134 327.00054 362.08869 328.33554 364.75 329.78125 C 367.41131 331.22696 370.00195 332.7811 372.5 334.46875 C 373.43741 335.10205 374.30585 335.83415 375.21875 336.5 L 424.78125 336.5 C 425.69415 335.83415 426.56259 335.10205 427.5 334.46875 C 429.99805 332.7811 432.58869 331.22696 435.25 329.78125 C 437.91131 328.33554 440.62866 327.00054 443.4375 325.8125 C 446.24634 324.62446 449.12187 323.57088 452.0625 322.65625 C 455.00313 321.74162 458.00581 320.96924 461.0625 320.34375 C 464.11919 319.71826 467.24923 319.25811 470.40625 318.9375 C 473.56327 318.61689 476.7584 318.4375 480 318.4375 C 483.2416 318.4375 486.43673 318.61689 489.59375 318.9375 C 492.75077 319.25811 495.88081 319.71826 498.9375 320.34375 C 501.99419 320.96924 504.99687 321.74162 507.9375 322.65625 C 510.87813 323.57088 513.75366 324.62446 516.5625 325.8125 C 519.37134 327.00054 522.08869 328.33554 524.75 329.78125 C 527.41131 331.22696 530.00195 332.7811 532.5 334.46875 C 533.43741 335.10205 534.30585 335.83415 535.21875 336.5 L 536.96875 336.5 L 536.96875 318.34375 L 120.53125 318.34375 z "
         id="rect9952-5-4-2" />
      <path
         style="fill:#dee2e2;fill-opacity:1;stroke:none"
         d="M 425.84375 336.5 C 409.80242 348.19579 397.58963 364.82404 391.5 384.1875 C 394.99708 392.90813 396.9375 402.40455 396.9375 412.375 C 396.9375 422.34544 394.99708 431.87313 391.5 440.59375 C 403.3732 478.34209 438.44489 505.7409 480 506.21875 C 482.2531 506.19285 484.50648 506.11935 486.71875 505.9375 C 489.2914 505.72601 491.83411 505.41461 494.34375 505 C 496.85339 504.58539 499.31173 504.07812 501.75 503.46875 C 504.18827 502.85938 506.61023 502.17077 508.96875 501.375 C 511.32727 500.57923 513.63585 499.69255 515.90625 498.71875 C 518.17665 497.74495 520.38858 496.67472 522.5625 495.53125 C 524.73642 494.38778 526.86844 493.14852 528.9375 491.84375 C 531.00656 490.53898 533.01292 489.17646 534.96875 487.71875 C 536.92458 486.26104 538.82202 484.72728 540.65625 483.125 C 542.49048 481.52272 544.2645 479.83224 545.96875 478.09375 C 547.673 476.35526 549.30909 474.55384 550.875 472.6875 C 552.44091 470.82116 553.92455 468.89207 555.34375 466.90625 C 556.76295 464.92043 558.11089 462.87819 559.375 460.78125 C 560.63911 458.68431 561.83685 456.54344 562.9375 454.34375 C 564.03815 452.14406 565.03992 449.88783 565.96875 447.59375 C 566.89758 445.29967 567.75137 442.97386 568.5 440.59375 C 567.62573 438.41359 566.86119 436.17867 566.1875 433.90625 C 565.51381 431.63383 564.92987 429.324 564.46875 426.96875 C 564.00763 424.6135 563.64281 422.20989 563.40625 419.78125 C 563.16969 417.35261 563.0625 414.89886 563.0625 412.40625 C 563.0625 409.91364 563.16969 407.43157 563.40625 405 C 563.64281 402.56843 564.00763 400.17165 564.46875 397.8125 C 564.92987 395.45335 565.51381 393.15035 566.1875 390.875 C 566.86119 388.59965 567.62573 386.36766 568.5 384.1875 C 567.75144 381.80727 566.89752 379.45065 565.96875 377.15625 C 565.03998 374.86185 564.0381 372.60644 562.9375 370.40625 C 561.8369 368.20606 560.63906 366.06633 559.375 363.96875 C 558.11094 361.87117 556.79416 359.83033 555.375 357.84375 C 553.95584 355.85717 552.44088 353.92968 550.875 352.0625 C 549.30912 350.19532 547.67298 348.39565 545.96875 346.65625 C 544.26452 344.91685 542.49046 343.22822 540.65625 341.625 C 538.82204 340.02178 536.92457 338.4899 534.96875 337.03125 C 534.72257 336.84765 534.46656 336.68145 534.21875 336.5 L 425.84375 336.5 z M 480 336.53125 C 521.88408 336.53125 555.84375 370.49092 555.84375 412.375 C 555.84375 454.25904 521.88408 488.1875 480 488.1875 C 438.11592 488.1875 404.15625 454.25904 404.15625 412.375 C 404.15625 370.49092 438.11592 336.53125 480 336.53125 z "
         id="path10125-9" />
      <path
         style="fill:#dee2e2;fill-opacity:1;stroke:none"
         d="M 120.53125 327.6875 C 97.285549 338.83778 79.336626 359.26905 71.5 384.1875 C 74.99708 392.90813 76.9375 402.40455 76.9375 412.375 C 76.9375 422.34544 74.99708 431.87313 71.5 440.59375 C 83.3732 478.34209 118.44489 505.7409 160 506.21875 C 162.2531 506.19285 164.50648 506.11935 166.71875 505.9375 C 169.2914 505.72601 171.83411 505.41461 174.34375 505 C 176.85339 504.58539 179.31173 504.07812 181.75 503.46875 C 184.18827 502.85938 186.61023 502.17077 188.96875 501.375 C 191.32727 500.57923 193.63585 499.69255 195.90625 498.71875 C 198.17665 497.74495 200.38858 496.67472 202.5625 495.53125 C 204.73642 494.38778 206.86844 493.14852 208.9375 491.84375 C 211.00656 490.53898 213.01292 489.17646 214.96875 487.71875 C 216.92458 486.26104 218.82202 484.72728 220.65625 483.125 C 222.49048 481.52272 224.2645 479.83224 225.96875 478.09375 C 227.673 476.35526 229.30909 474.55384 230.875 472.6875 C 232.44091 470.82116 233.92455 468.89207 235.34375 466.90625 C 236.76295 464.92043 238.11089 462.87819 239.375 460.78125 C 240.63911 458.68431 241.83685 456.54344 242.9375 454.34375 C 244.03815 452.14406 245.03992 449.88783 245.96875 447.59375 C 246.89758 445.29967 247.75137 442.97386 248.5 440.59375 C 247.62573 438.41359 246.86119 436.17867 246.1875 433.90625 C 245.51381 431.63383 244.92987 429.324 244.46875 426.96875 C 244.00763 424.6135 243.64281 422.20989 243.40625 419.78125 C 243.16969 417.35261 243.0625 414.89886 243.0625 412.40625 C 243.0625 409.91364 243.16969 407.43157 243.40625 405 C 243.64281 402.56843 244.00763 400.17165 244.46875 397.8125 C 244.92987 395.45335 245.51381 393.15035 246.1875 390.875 C 246.86119 388.59965 247.62573 386.36766 248.5 384.1875 C 247.75144 381.80727 246.89752 379.45065 245.96875 377.15625 C 245.03998 374.86185 244.0381 372.60644 242.9375 370.40625 C 241.8369 368.20606 240.63906 366.06633 239.375 363.96875 C 238.11094 361.87117 236.79416 359.83033 235.375 357.84375 C 233.95584 355.85717 232.44088 353.92968 230.875 352.0625 C 229.30912 350.19532 227.67298 348.39565 225.96875 346.65625 C 224.26452 344.91685 222.49046 343.22822 220.65625 341.625 C 218.82204 340.02178 216.92457 338.4899 214.96875 337.03125 C 214.72257 336.84765 214.46656 336.68145 214.21875 336.5 L 120.53125 336.5 L 120.53125 327.6875 z M 160 336.53125 C 201.88408 336.53125 235.84375 370.49092 235.84375 412.375 C 235.84375 454.25904 201.88408 488.1875 160 488.1875 C 118.11592 488.1875 84.15625 454.25904 84.15625 412.375 C 84.15625 370.49092 118.11592 336.53125 160 336.53125 z "
         id="path10125-8" />
      <path
         style="fill:#dee2e2;fill-opacity:1;stroke:none"
         d="M 265.84375 336.5 C 249.80242 348.19579 237.58963 364.82404 231.5 384.1875 C 234.99708 392.90813 236.9375 402.40455 236.9375 412.375 C 236.9375 422.34544 234.99708 431.87313 231.5 440.59375 C 243.3732 478.34209 278.44489 505.7409 320 506.21875 C 322.2531 506.19284 324.50648 506.11936 326.71875 505.9375 C 329.2914 505.72601 331.83411 505.41461 334.34375 505 C 336.85339 504.58539 339.31173 504.07812 341.75 503.46875 C 344.18827 502.85938 346.61023 502.17077 348.96875 501.375 C 351.32727 500.57923 353.63585 499.69255 355.90625 498.71875 C 358.17665 497.74495 360.38858 496.67472 362.5625 495.53125 C 364.73642 494.38778 366.86844 493.14852 368.9375 491.84375 C 371.00656 490.53898 373.01292 489.17646 374.96875 487.71875 C 376.92458 486.26104 378.82202 484.72728 380.65625 483.125 C 382.49048 481.52272 384.2645 479.83224 385.96875 478.09375 C 387.673 476.35526 389.30909 474.55384 390.875 472.6875 C 392.44091 470.82116 393.92455 468.89207 395.34375 466.90625 C 396.76295 464.92043 398.11089 462.87819 399.375 460.78125 C 400.63911 458.68431 401.83685 456.54344 402.9375 454.34375 C 404.03815 452.14406 405.03992 449.88783 405.96875 447.59375 C 406.89758 445.29967 407.75137 442.97386 408.5 440.59375 C 407.62573 438.41359 406.86119 436.17867 406.1875 433.90625 C 405.51381 431.63383 404.92987 429.324 404.46875 426.96875 C 404.00763 424.6135 403.64281 422.20989 403.40625 419.78125 C 403.16969 417.35261 403.0625 414.89886 403.0625 412.40625 C 403.0625 409.91364 403.16969 407.43157 403.40625 405 C 403.64281 402.56843 404.00763 400.17165 404.46875 397.8125 C 404.92987 395.45335 405.51381 393.15035 406.1875 390.875 C 406.86119 388.59965 407.62573 386.36766 408.5 384.1875 C 407.75144 381.80727 406.89752 379.45065 405.96875 377.15625 C 405.03998 374.86185 404.0381 372.60644 402.9375 370.40625 C 401.8369 368.20606 400.63906 366.06633 399.375 363.96875 C 398.11094 361.87117 396.79416 359.83033 395.375 357.84375 C 393.95584 355.85717 392.44088 353.92968 390.875 352.0625 C 389.30912 350.19532 387.67298 348.39565 385.96875 346.65625 C 384.26452 344.91685 382.49046 343.22822 380.65625 341.625 C 378.82204 340.02178 376.92457 338.4899 374.96875 337.03125 C 374.72257 336.84765 374.46656 336.68145 374.21875 336.5 L 265.84375 336.5 z M 320 336.53125 C 361.88408 336.53125 395.84375 370.49092 395.84375 412.375 C 395.84375 454.25904 361.88408 488.1875 320 488.1875 C 278.11592 488.1875 244.15625 454.25904 244.15625 412.375 C 244.15625 370.49092 278.11592 336.53125 320 336.53125 z "
         id="path10125" />
      <g
         id="g10858"
         transform="matrix(1,0,0,0.99952108,3.4319805,25.687169)">
        <rect
           y="292.80099"
           x="117.11415"
           height="18.164845"
           width="416.42856"
           id="rect9952"
           style="fill:none;fill-opacity:1;fill-rule:nonzero;stroke:#000000;stroke-width:2.00047874000000014;stroke-miterlimit:4;stroke-opacity:1;stroke-dasharray:none" />
        <g
           id="g10820"
           transform="translate(-8.5041665,-2.020744)">
          <text
             xml:space="preserve"
             style="font-size:24px;font-style:normal;font-variant:normal;font-weight:normal;font-stretch:normal;text-align:center;line-height:125%;letter-spacing:0px;word-spacing:0px;text-anchor:middle;fill:#000000;fill-opacity:1;stroke:none;font-family:Liberation Serif;-inkscape-font-specification:Liberation Serif"
             x="323.19531"
             y="286.19617"
             id="text10325-9"
             sodipodi:linespacing="125%"><tspan
               sodipodi:role="line"
               id="tspan10327-6"
               x="323.19531"
               y="286.19617">$A_z$</tspan></text>
          <path
             style="fill:none;stroke:#000000;stroke-width:2.00047898;stroke-linecap:butt;stroke-linejoin:miter;stroke-miterlimit:4;stroke-opacity:1;stroke-dasharray:none;marker-end:url(#Arrow1Mend)"
             d="m 305.57321,281.95391 -34.75,18.24916"
             id="path10350-9"
             inkscape:connector-curvature="0"
             sodipodi:nodetypes="cc" />
          <path
             style="fill:none;stroke:#000000;stroke-width:2.00047898;stroke-linecap:butt;stroke-linejoin:miter;stroke-miterlimit:4;stroke-opacity:1;stroke-dasharray:none;marker-end:url(#Arrow1Mend)"
             d="m 340.77946,281.70379 34.75,18.49928"
             id="path10350-9-4"
             inkscape:connector-curvature="0"
             sodipodi:nodetypes="cc" />
        </g>
      </g>
      <path
         sodipodi:type="arc"
         style="fill:none;stroke:#000000;stroke-width:0.47092977;stroke-miterlimit:4;stroke-opacity:1;stroke-dasharray:none"
         id="path6035"
         sodipodi:cx="250.71428"
         sodipodi:cy="148.79076"
         sodipodi:rx="17.857143"
         sodipodi:ry="17.857143"
         d="m 268.57142,148.79076 c 0,9.86222 -7.99491,17.85714 -17.85714,17.85714 -9.86223,0 -17.85714,-7.99492 -17.85714,-17.85714 0,-9.86223 7.99491,-17.85715 17.85714,-17.85715 9.86223,0 17.85714,7.99492 17.85714,17.85715 z"
         transform="matrix(4.2469178,0,0,4.2469178,-744.76295,-219.55151)" />
      <path
         sodipodi:type="arc"
         style="fill:none;stroke:#000000;stroke-width:0.38029894;stroke-miterlimit:4;stroke-opacity:1;stroke-dasharray:none"
         id="path6037"
         sodipodi:cx="250.71428"
         sodipodi:cy="148.79076"
         sodipodi:rx="17.857143"
         sodipodi:ry="17.857143"
         d="m 268.57142,148.79076 c 0,9.86222 -7.99491,17.85714 -17.85714,17.85714 -9.86223,0 -17.85714,-7.99492 -17.85714,-17.85714 0,-9.86223 7.99491,-17.85715 17.85714,-17.85715 9.86223,0 17.85714,7.99492 17.85714,17.85715 z"
         transform="matrix(5.2590206,0,0,5.2590206,-998.51156,-370.14305)" />
      <path
         transform="matrix(0.70875,0,0,0.70875,-17.693744,306.90674)"
         d="m 268.57142,148.79076 c 0,9.86222 -7.99491,17.85714 -17.85714,17.85714 -9.86223,0 -17.85714,-7.99492 -17.85714,-17.85714 0,-9.86223 7.99491,-17.85715 17.85714,-17.85715 9.86223,0 17.85714,7.99492 17.85714,17.85715 z"
         sodipodi:ry="17.857143"
         sodipodi:rx="17.857143"
         sodipodi:cy="148.79076"
         sodipodi:cx="250.71428"
         id="path158576-0"
         style="fill:#268bd2;fill-opacity:1;fill-rule:nonzero;stroke:none"
         sodipodi:type="arc" />
      <path
         sodipodi:type="arc"
         style="fill:#268bd2;fill-opacity:1;fill-rule:nonzero;stroke:none"
         id="use5971"
         sodipodi:cx="250.71428"
         sodipodi:cy="148.79076"
         sodipodi:rx="17.857143"
         sodipodi:ry="17.857143"
         d="m 268.57142,148.79076 c 0,9.86222 -7.99491,17.85714 -17.85714,17.85714 -9.86223,0 -17.85714,-7.99492 -17.85714,-17.85714 0,-9.86223 7.99491,-17.85715 17.85714,-17.85715 9.86223,0 17.85714,7.99492 17.85714,17.85715 z"
         transform="matrix(0.70875,0,0,0.70875,142.30626,306.90674)" />
      <path
         sodipodi:type="arc"
         style="fill:#268bd2;fill-opacity:1;fill-rule:nonzero;stroke:none"
         id="use5975"
         sodipodi:cx="250.71428"
         sodipodi:cy="148.79076"
         sodipodi:rx="17.857143"
         sodipodi:ry="17.857143"
         d="m 268.57142,148.79076 c 0,9.86222 -7.99491,17.85714 -17.85714,17.85714 -9.86223,0 -17.85714,-7.99492 -17.85714,-17.85714 0,-9.86223 7.99491,-17.85715 17.85714,-17.85715 9.86223,0 17.85714,7.99492 17.85714,17.85715 z"
         transform="matrix(0.70875,0,0,0.70875,302.30626,306.90674)" />
      <path
         sodipodi:type="arc"
         style="fill:none;stroke:#000000;stroke-width:0.47092977;stroke-miterlimit:4;stroke-opacity:1;stroke-dasharray:none"
         id="path6035-9"
         sodipodi:cx="250.71428"
         sodipodi:cy="148.79076"
         sodipodi:rx="17.857143"
         sodipodi:ry="17.857143"
         d="m 268.57142,148.79076 a 17.857143,17.857143 0 1 1 -35.71428,0 17.857143,17.857143 0 1 1 35.71428,0 z"
         transform="matrix(4.2469178,0,0,4.2469178,-584.76295,-219.55151)" />
      <path
         sodipodi:type="arc"
         style="fill:none;stroke:#000000;stroke-width:0.38029894;stroke-miterlimit:4;stroke-opacity:1;stroke-dasharray:none"
         id="path6037-4"
         sodipodi:cx="250.71428"
         sodipodi:cy="148.79076"
         sodipodi:rx="17.857143"
         sodipodi:ry="17.857143"
         d="m 268.57142,148.79076 a 17.857143,17.857143 0 1 1 -35.71428,0 17.857143,17.857143 0 1 1 35.71428,0 z"
         transform="matrix(5.2590206,0,0,5.2590206,-838.51156,-370.14305)" />
      <path
         sodipodi:type="arc"
         style="fill:none;stroke:#000000;stroke-width:0.47092977;stroke-miterlimit:4;stroke-opacity:1;stroke-dasharray:none"
         id="path6035-7"
         sodipodi:cx="250.71428"
         sodipodi:cy="148.79076"
         sodipodi:rx="17.857143"
         sodipodi:ry="17.857143"
         d="m 268.57142,148.79076 a 17.857143,17.857143 0 1 1 -35.71428,0 17.857143,17.857143 0 1 1 35.71428,0 z"
         transform="matrix(4.2469178,0,0,4.2469178,-904.76295,-219.55151)" />
      <path
         sodipodi:type="arc"
         style="fill:none;stroke:#000000;stroke-width:0.38029894;stroke-miterlimit:4;stroke-opacity:1;stroke-dasharray:none"
         id="path6037-6"
         sodipodi:cx="250.71428"
         sodipodi:cy="148.79076"
         sodipodi:rx="17.857143"
         sodipodi:ry="17.857143"
         d="m 268.57142,148.79076 a 17.857143,17.857143 0 1 1 -35.71428,0 17.857143,17.857143 0 1 1 35.71428,0 z"
         transform="matrix(5.2590206,0,0,5.2590206,-1158.5116,-370.14305)" />
    </g>
    <path
       style="fill:none;stroke:#000000;stroke-width:2;stroke-linecap:butt;stroke-linejoin:miter;stroke-miterlimit:4;stroke-opacity:1;stroke-dasharray:12,4;stroke-dashoffset:10"
       d="m 479.99999,309.13121 0,213.23095"
       id="path6415"
       inkscape:connector-curvature="0"
       sodipodi:nodetypes="cc" />
    <use
       x="0"
       y="0"
       xlink:href="#path6415"
       id="use6417"
       transform="translate(-320,2.6171874e-6)"
       width="744.09448"
       height="1052.3622" />
    <text
       xml:space="preserve"
       style="font-size:12px;font-style:normal;font-variant:normal;font-weight:normal;font-stretch:normal;text-align:start;line-height:125%;letter-spacing:0px;word-spacing:0px;text-anchor:start;fill:#000000;fill-opacity:1;stroke:none;font-family:Liberation Serif;-inkscape-font-specification:Liberation Serif"
       x="288.5"
       y="379.36218"
       id="text10321"
       sodipodi:linespacing="125%"><tspan
         sodipodi:role="line"
         id="tspan10323" /></text>
    <text
       xml:space="preserve"
       style="font-size:24px;font-style:normal;font-variant:normal;font-weight:normal;font-stretch:normal;text-align:start;line-height:125%;letter-spacing:0px;word-spacing:0px;text-anchor:start;fill:#000000;fill-opacity:1;stroke:none;font-family:Liberation Serif;-inkscape-font-specification:Liberation Serif"
       x="179.125"
       y="393.995"
       id="text10325"
       sodipodi:linespacing="125%"><tspan
         sodipodi:role="line"
         id="tspan10327"
         x="179.125"
         y="393.995">$A_\text{Si}$</tspan></text>
    <path
       style="fill:none;stroke:#000000;stroke-width:2;stroke-linecap:butt;stroke-linejoin:miter;stroke-miterlimit:4;stroke-opacity:1;stroke-dasharray:none;marker-end:url(#Arrow1Mend)"
       d="m 203,374.36218 16.25,-16"
       id="path10350"
       inkscape:connector-curvature="0"
       sodipodi:nodetypes="cc" />
    <text
       xml:space="preserve"
       style="font-size:24px;font-style:normal;font-variant:normal;font-weight:normal;font-stretch:normal;text-align:center;line-height:125%;letter-spacing:0px;word-spacing:0px;text-anchor:middle;fill:#000000;fill-opacity:1;stroke:none;font-family:Liberation Serif;-inkscape-font-specification:Liberation Serif"
       x="317.26758"
       y="375.69617"
       id="text10325-2"
       sodipodi:linespacing="125%"><tspan
         sodipodi:role="line"
         id="tspan10327-2"
         x="317.26758"
         y="375.69617">$A_\text{Si}\cap A_z$</tspan></text>
    <path
       style="fill:none;stroke:#000000;stroke-width:2;stroke-linecap:butt;stroke-linejoin:miter;stroke-miterlimit:4;stroke-opacity:1;stroke-dasharray:none;marker-end:url(#Arrow1Mend)"
       d="m 313.41243,358.06379 6.5,-25.5"
       id="path10350-5"
       inkscape:connector-curvature="0"
       sodipodi:nodetypes="cc" />
  </g>
</svg>
