<?xml version="1.0" encoding="UTF-8" standalone="no"?>
<!-- Created with Inkscape (http://www.inkscape.org/) -->

<svg
   xmlns:dc="http://purl.org/dc/elements/1.1/"
   xmlns:cc="http://creativecommons.org/ns#"
   xmlns:rdf="http://www.w3.org/1999/02/22-rdf-syntax-ns#"
   xmlns:svg="http://www.w3.org/2000/svg"
   xmlns="http://www.w3.org/2000/svg"
   xmlns:xlink="http://www.w3.org/1999/xlink"
   xmlns:sodipodi="http://sodipodi.sourceforge.net/DTD/sodipodi-0.dtd"
   xmlns:inkscape="http://www.inkscape.org/namespaces/inkscape"
   width="744.09448819"
   height="1052.3622047"
   id="svg4108"
   version="1.1"
   inkscape:version="0.48.4 r9939"
   sodipodi:docname="New document 2">
  <defs
     id="defs4110">
    <clipPath
       clipPathUnits="userSpaceOnUse"
       id="clipPath6409">
      <rect
         style="fill:#ff0000;fill-opacity:0.23557691;fill-rule:nonzero;stroke:none"
         id="rect6411"
         width="320"
         height="450"
         x="160"
         y="117.36218" />
    </clipPath>
    <clipPath
       clipPathUnits="userSpaceOnUse"
       id="clipPath6491">
      <path
         sodipodi:type="arc"
         style="fill:none;stroke:#0000ff;stroke-width:0.34366214;stroke-miterlimit:4;stroke-opacity:0.9182692;stroke-dasharray:none"
         id="path6493"
         sodipodi:cx="250.71428"
         sodipodi:cy="148.79076"
         sodipodi:rx="17.857143"
         sodipodi:ry="17.857143"
         d="m 268.57142,148.79076 a 17.857143,17.857143 0 1 1 -35.71428,0 17.857143,17.857143 0 1 1 35.71428,0 z"
         transform="matrix(5.8196692,0,0,5.8196692,-1139.0742,-453.5508)" />
    </clipPath>
  </defs>
  <sodipodi:namedview
     id="base"
     pagecolor="#ffffff"
     bordercolor="#666666"
     borderopacity="1.0"
     inkscape:pageopacity="0.0"
     inkscape:pageshadow="2"
     inkscape:zoom="1.979899"
     inkscape:cx="277.28387"
     inkscape:cy="626.47779"
     inkscape:document-units="px"
     inkscape:current-layer="g6317"
     showgrid="true"
     inkscape:snap-nodes="true"
     inkscape:snap-bbox="false"
     inkscape:snap-bbox-midpoints="true"
     inkscape:snap-object-midpoints="true"
     inkscape:object-nodes="false"
     inkscape:window-width="1912"
     inkscape:window-height="1155"
     inkscape:window-x="0"
     inkscape:window-y="220"
     inkscape:window-maximized="0">
    <inkscape:grid
       type="xygrid"
       id="grid4116"
       empspacing="5"
       visible="true"
       enabled="true"
       snapvisiblegridlinesonly="true" />
  </sodipodi:namedview>
  <metadata
     id="metadata4113">
    <rdf:RDF>
      <cc:Work
         rdf:about="">
        <dc:format>image/svg+xml</dc:format>
        <dc:type
           rdf:resource="http://purl.org/dc/dcmitype/StillImage" />
        <dc:title></dc:title>
      </cc:Work>
    </rdf:RDF>
  </metadata>
  <g
     inkscape:label="Layer 1"
     inkscape:groupmode="layer"
     id="layer1">
    <g
       id="g6317"
       clip-path="url(#clipPath6409)">
      <use
         x="0"
         y="0"
         xlink:href="#path6499"
         id="use6527"
         transform="translate(-160,-0.01281738)"
         width="744.09448"
         height="1052.3622" />
      <use
         x="0"
         y="0"
         xlink:href="#path6499"
         id="use6525"
         transform="translate(160,-0.01281738)"
         width="744.09448"
         height="1052.3622" />
      <path
         style="fill:#ffff00;fill-opacity:0.47115386;fill-rule:nonzero;stroke:none"
         d="M 320 308.625 C 263.48944 308.625 217.6875 355.07546 217.6875 412.375 C 217.6875 469.67454 263.48944 516.125 320 516.125 C 376.51056 516.125 422.3125 469.67454 422.3125 412.375 C 422.3125 355.07546 376.51056 308.625 320 308.625 z M 320 328.4375 C 366.34921 328.4375 403.9375 366.02579 403.9375 412.375 C 403.9375 458.72421 366.34921 496.28125 320 496.28125 C 273.65079 496.28125 236.0625 458.72421 236.0625 412.375 C 236.0625 366.02579 273.65079 328.4375 320 328.4375 z "
         id="path6499" />
      <g
         id="use5977"
         transform="translate(160.00003,1.3664367e-6)">
        <path
           transform="matrix(4.6996691,0,0,4.6996691,-1018.2742,-286.90514)"
           d="m 268.57142,148.79076 c 0,9.86222 -7.99491,17.85714 -17.85714,17.85714 -9.86223,0 -17.85714,-7.99492 -17.85714,-17.85714 0,-9.86223 7.99491,-17.85715 17.85714,-17.85715 9.86223,0 17.85714,7.99492 17.85714,17.85715 z"
           sodipodi:ry="17.857143"
           sodipodi:rx="17.857143"
           sodipodi:cy="148.79076"
           sodipodi:cx="250.71428"
           id="path6035"
           style="fill:none;stroke:#000000;stroke-width:0.42556188;stroke-miterlimit:4;stroke-opacity:1;stroke-dasharray:none"
           sodipodi:type="arc" />
        <path
           transform="matrix(5.8196692,0,0,5.8196692,-1299.0742,-453.5508)"
           d="m 268.57142,148.79076 c 0,9.86222 -7.99491,17.85714 -17.85714,17.85714 -9.86223,0 -17.85714,-7.99492 -17.85714,-17.85714 0,-9.86223 7.99491,-17.85715 17.85714,-17.85715 9.86223,0 17.85714,7.99492 17.85714,17.85715 z"
           sodipodi:ry="17.857143"
           sodipodi:rx="17.857143"
           sodipodi:cy="148.79076"
           sodipodi:cx="250.71428"
           id="path6037"
           style="fill:none;stroke:#000000;stroke-width:0.34366214;stroke-miterlimit:4;stroke-opacity:1;stroke-dasharray:none"
           sodipodi:type="arc" />
      </g>
      <path
         transform="matrix(1.26,0,0,1.26,-155.89999,224.88583)"
         d="m 268.57142,148.79076 a 17.857143,17.857143 0 1 1 -35.71428,0 17.857143,17.857143 0 1 1 35.71428,0 z"
         sodipodi:ry="17.857143"
         sodipodi:rx="17.857143"
         sodipodi:cy="148.79076"
         sodipodi:cx="250.71428"
         id="path158576-0"
         style="fill:#268bd2;fill-opacity:1;fill-rule:nonzero;stroke:none"
         sodipodi:type="arc" />
      <g
         id="g5932">
        <path
           sodipodi:type="arc"
           style="fill:none;stroke:#000000;stroke-width:0.42556188;stroke-miterlimit:4;stroke-opacity:1;stroke-dasharray:none"
           id="path158576-0-7"
           sodipodi:cx="250.71428"
           sodipodi:cy="148.79076"
           sodipodi:rx="17.857143"
           sodipodi:ry="17.857143"
           d="m 268.57142,148.79076 a 17.857143,17.857143 0 1 1 -35.71428,0 17.857143,17.857143 0 1 1 35.71428,0 z"
           transform="matrix(4.6996691,0,0,4.6996691,-1018.2742,-286.90514)" />
        <path
           sodipodi:type="arc"
           style="fill:none;stroke:#000000;stroke-width:0.34366214;stroke-miterlimit:4;stroke-opacity:1;stroke-dasharray:none"
           id="path158576-0-7-7"
           sodipodi:cx="250.71428"
           sodipodi:cy="148.79076"
           sodipodi:rx="17.857143"
           sodipodi:ry="17.857143"
           d="m 268.57142,148.79076 a 17.857143,17.857143 0 1 1 -35.71428,0 17.857143,17.857143 0 1 1 35.71428,0 z"
           transform="matrix(5.8196692,0,0,5.8196692,-1299.0742,-453.5508)" />
      </g>
      <path
         sodipodi:type="arc"
         style="fill:#268bd2;fill-opacity:1;fill-rule:nonzero;stroke:none"
         id="use5971"
         sodipodi:cx="250.71428"
         sodipodi:cy="148.79076"
         sodipodi:rx="17.857143"
         sodipodi:ry="17.857143"
         d="m 268.57142,148.79076 a 17.857143,17.857143 0 1 1 -35.71428,0 17.857143,17.857143 0 1 1 35.71428,0 z"
         transform="matrix(1.26,0,0,1.26,4.10001,224.88583)" />
      <path
         sodipodi:type="arc"
         style="fill:#268bd2;fill-opacity:1;fill-rule:nonzero;stroke:none"
         id="use5975"
         sodipodi:cx="250.71428"
         sodipodi:cy="148.79076"
         sodipodi:rx="17.857143"
         sodipodi:ry="17.857143"
         d="m 268.57142,148.79076 a 17.857143,17.857143 0 1 1 -35.71428,0 17.857143,17.857143 0 1 1 35.71428,0 z"
         transform="matrix(1.26,0,0,1.26,164.10001,224.88583)" />
      <g
         id="use5979"
         transform="translate(320.00003,1.3664367e-6)">
        <path
           transform="matrix(4.6996691,0,0,4.6996691,-1018.2742,-286.90514)"
           d="m 268.57142,148.79076 c 0,9.86222 -7.99491,17.85714 -17.85714,17.85714 -9.86223,0 -17.85714,-7.99492 -17.85714,-17.85714 0,-9.86223 7.99491,-17.85715 17.85714,-17.85715 9.86223,0 17.85714,7.99492 17.85714,17.85715 z"
           sodipodi:ry="17.857143"
           sodipodi:rx="17.857143"
           sodipodi:cy="148.79076"
           sodipodi:cx="250.71428"
           id="path6029"
           style="fill:none;stroke:#000000;stroke-width:0.42556188;stroke-miterlimit:4;stroke-opacity:1;stroke-dasharray:none"
           sodipodi:type="arc" />
        <path
           transform="matrix(5.8196692,0,0,5.8196692,-1299.0742,-453.5508)"
           d="m 268.57142,148.79076 c 0,9.86222 -7.99491,17.85714 -17.85714,17.85714 -9.86223,0 -17.85714,-7.99492 -17.85714,-17.85714 0,-9.86223 7.99491,-17.85715 17.85714,-17.85715 9.86223,0 17.85714,7.99492 17.85714,17.85715 z"
           sodipodi:ry="17.857143"
           sodipodi:rx="17.857143"
           sodipodi:cy="148.79076"
           sodipodi:cx="250.71428"
           id="path6031"
           style="fill:none;stroke:#000000;stroke-width:0.34366214;stroke-miterlimit:4;stroke-opacity:1;stroke-dasharray:none"
           sodipodi:type="arc" />
      </g>
    </g>
    <path
       style="fill:none;stroke:#000000;stroke-width:1;stroke-linecap:butt;stroke-linejoin:miter;stroke-miterlimit:4;stroke-opacity:1;stroke-dasharray:8, 4;stroke-dashoffset:0"
       d="m 480,182.36218 0,390"
       id="path6415"
       inkscape:connector-curvature="0"
       sodipodi:nodetypes="cc" />
    <use
       x="0"
       y="0"
       xlink:href="#path6415"
       id="use6417"
       transform="translate(-320,2.6171874e-6)"
       width="744.09448"
       height="1052.3622" />
  </g>
</svg>
