<?xml version="1.0" encoding="UTF-8" standalone="no"?>
<!-- Created with Inkscape (http://www.inkscape.org/) -->

<svg
   xmlns:dc="http://purl.org/dc/elements/1.1/"
   xmlns:cc="http://creativecommons.org/ns#"
   xmlns:rdf="http://www.w3.org/1999/02/22-rdf-syntax-ns#"
   xmlns:svg="http://www.w3.org/2000/svg"
   xmlns="http://www.w3.org/2000/svg"
   xmlns:xlink="http://www.w3.org/1999/xlink"
   xmlns:sodipodi="http://sodipodi.sourceforge.net/DTD/sodipodi-0.dtd"
   xmlns:inkscape="http://www.inkscape.org/namespaces/inkscape"
   width="744.09448819"
   height="1052.3622047"
   id="svg4108"
   version="1.1"
   inkscape:version="0.48.4 r9939"
   sodipodi:docname="figure09.svg">
  <defs
     id="defs4110">
    <marker
       inkscape:stockid="Arrow1Mend"
       orient="auto"
       refY="0.0"
       refX="0.0"
       id="Arrow1Mend"
       style="overflow:visible;">
      <path
         id="path10365"
         d="M 0.0,0.0 L 5.0,-5.0 L -12.5,0.0 L 5.0,5.0 L 0.0,0.0 z "
         style="fill-rule:evenodd;stroke:#000000;stroke-width:1.0pt;"
         transform="scale(0.4) rotate(180) translate(10,0)" />
    </marker>
    <clipPath
       clipPathUnits="userSpaceOnUse"
       id="clipPath6409">
      <rect
         style="fill:#ff0000;fill-opacity:0.23557691;fill-rule:nonzero;stroke:none"
         id="rect6411"
         width="320"
         height="450"
         x="160"
         y="117.36218" />
    </clipPath>
    <clipPath
       clipPathUnits="userSpaceOnUse"
       id="clipPath6491">
      <path
         sodipodi:type="arc"
         style="fill:none;stroke:#0000ff;stroke-width:0.34366214;stroke-miterlimit:4;stroke-opacity:0.9182692;stroke-dasharray:none"
         id="path6493"
         sodipodi:cx="250.71428"
         sodipodi:cy="148.79076"
         sodipodi:rx="17.857143"
         sodipodi:ry="17.857143"
         d="m 268.57142,148.79076 a 17.857143,17.857143 0 1 1 -35.71428,0 17.857143,17.857143 0 1 1 35.71428,0 z"
         transform="matrix(5.8196692,0,0,5.8196692,-1139.0742,-453.5508)" />
    </clipPath>
    <clipPath
       clipPathUnits="userSpaceOnUse"
       id="clipPath10078-6">
      <path
         style="fill:#fffc00;fill-opacity:0.49519234;stroke:none"
         d="m 320,318.4375 c -51.86567,0 -93.90625,42.04058 -93.90625,93.90625 0,51.86562 42.04058,93.90625 93.90625,93.90625 42.03652,0 77.61568,-27.60575 89.59375,-65.6875 -3.49708,-8.72062 -5.4375,-18.21706 -5.4375,-28.1875 0,-9.97045 1.94042,-19.49812 5.4375,-28.21875 C 397.61679,346.07261 362.03785,318.4375 320,318.4375 z m 90.625,69.1875 c 0.29952,1.09858 0.55224,2.19861 0.8125,3.3125 -0.25877,-1.10872 -0.51483,-2.21926 -0.8125,-3.3125 z m 0.875,3.53125 c 0.24357,1.05395 0.47977,2.12047 0.6875,3.1875 -0.2083,-1.07234 -0.44305,-2.12853 -0.6875,-3.1875 z m 1.34375,6.90625 c 0.17212,1.12493 0.30576,2.26847 0.4375,3.40625 -0.1324,-1.14794 -0.26408,-2.27129 -0.4375,-3.40625 z m 0.4375,3.40625 c 0.12215,1.05496 0.2257,2.09075 0.3125,3.15625 -0.0859,-1.05523 -0.19196,-2.11118 -0.3125,-3.15625 z m 0.3125,18.625 c -0.0863,1.05755 -0.19143,2.10882 -0.3125,3.15625 0.12086,-1.04489 0.22623,-2.1012 0.3125,-3.15625 z m -1.4375,10.375 c -0.20252,1.03608 -0.42001,2.07024 -0.65625,3.09375 0.23627,-1.02351 0.45375,-2.05774 0.65625,-3.09375 z m -0.71875,3.3125 c -0.25044,1.07315 -0.49441,2.12898 -0.78125,3.1875 0.28609,-1.05586 0.53142,-2.11722 0.78125,-3.1875 z"
         id="path10080-6"
         inkscape:connector-curvature="0" />
    </clipPath>
    <mask
       maskUnits="userSpaceOnUse"
       id="mask10123-1">
      <path
         style="fill:#fffc00;fill-opacity:0.49519234;stroke:none"
         d="m 320,318.4375 c -42.03785,0 -77.61679,27.63511 -89.59375,65.71875 3.49708,8.72063 5.4375,18.21705 5.4375,28.1875 0,9.97044 -1.94042,19.49813 -5.4375,28.21875 11.97807,38.08175 47.55723,65.6875 89.59375,65.6875 51.86567,0 93.90625,-42.04063 93.90625,-93.90625 0,-51.86567 -42.04058,-93.90625 -93.90625,-93.90625 z"
         id="path10125-2"
         inkscape:connector-curvature="0" />
    </mask>
    <clipPath
       clipPathUnits="userSpaceOnUse"
       id="clipPath10078-6-1">
      <path
         style="fill:#fffc00;fill-opacity:0.49519234;stroke:none"
         d="m 320,318.4375 c -51.86567,0 -93.90625,42.04058 -93.90625,93.90625 0,51.86562 42.04058,93.90625 93.90625,93.90625 42.03652,0 77.61568,-27.60575 89.59375,-65.6875 -3.49708,-8.72062 -5.4375,-18.21706 -5.4375,-28.1875 0,-9.97045 1.94042,-19.49812 5.4375,-28.21875 C 397.61679,346.07261 362.03785,318.4375 320,318.4375 z m 90.625,69.1875 c 0.29952,1.09858 0.55224,2.19861 0.8125,3.3125 -0.25877,-1.10872 -0.51483,-2.21926 -0.8125,-3.3125 z m 0.875,3.53125 c 0.24357,1.05395 0.47977,2.12047 0.6875,3.1875 -0.2083,-1.07234 -0.44305,-2.12853 -0.6875,-3.1875 z m 1.34375,6.90625 c 0.17212,1.12493 0.30576,2.26847 0.4375,3.40625 -0.1324,-1.14794 -0.26408,-2.27129 -0.4375,-3.40625 z m 0.4375,3.40625 c 0.12215,1.05496 0.2257,2.09075 0.3125,3.15625 -0.0859,-1.05523 -0.19196,-2.11118 -0.3125,-3.15625 z m 0.3125,18.625 c -0.0863,1.05755 -0.19143,2.10882 -0.3125,3.15625 0.12086,-1.04489 0.22623,-2.1012 0.3125,-3.15625 z m -1.4375,10.375 c -0.20252,1.03608 -0.42001,2.07024 -0.65625,3.09375 0.23627,-1.02351 0.45375,-2.05774 0.65625,-3.09375 z m -0.71875,3.3125 c -0.25044,1.07315 -0.49441,2.12898 -0.78125,3.1875 0.28609,-1.05586 0.53142,-2.11722 0.78125,-3.1875 z"
         id="path10080-6-4"
         inkscape:connector-curvature="0" />
    </clipPath>
    <mask
       maskUnits="userSpaceOnUse"
       id="mask10123-1-1">
      <path
         style="fill:#fffc00;fill-opacity:0.49519234;stroke:none"
         d="m 320,318.4375 c -42.03785,0 -77.61679,27.63511 -89.59375,65.71875 3.49708,8.72063 5.4375,18.21705 5.4375,28.1875 0,9.97044 -1.94042,19.49813 -5.4375,28.21875 11.97807,38.08175 47.55723,65.6875 89.59375,65.6875 51.86567,0 93.90625,-42.04063 93.90625,-93.90625 0,-51.86567 -42.04058,-93.90625 -93.90625,-93.90625 z"
         id="path10125-2-3"
         inkscape:connector-curvature="0" />
    </mask>
    <marker
       inkscape:stockid="Arrow1Mend"
       orient="auto"
       refY="0"
       refX="0"
       id="Arrow1Mend-7"
       style="overflow:visible">
      <path
         inkscape:connector-curvature="0"
         id="path10365-4"
         d="M 0,0 5,-5 -12.5,0 5,5 0,0 z"
         style="fill-rule:evenodd;stroke:#000000;stroke-width:1pt"
         transform="matrix(-0.4,0,0,-0.4,-4,0)" />
    </marker>
    <marker
       inkscape:stockid="Arrow1Mend"
       orient="auto"
       refY="0"
       refX="0"
       id="Arrow1Mend-3"
       style="overflow:visible">
      <path
         inkscape:connector-curvature="0"
         id="path10365-5"
         d="M 0,0 5,-5 -12.5,0 5,5 0,0 z"
         style="fill-rule:evenodd;stroke:#000000;stroke-width:1pt"
         transform="matrix(-0.4,0,0,-0.4,-4,0)" />
    </marker>
  </defs>
  <sodipodi:namedview
     id="base"
     pagecolor="#ffffff"
     bordercolor="#666666"
     borderopacity="1.0"
     inkscape:pageopacity="0.0"
     inkscape:pageshadow="2"
     inkscape:zoom="2.8284271"
     inkscape:cx="268.43092"
     inkscape:cy="655.4208"
     inkscape:document-units="px"
     inkscape:current-layer="layer1"
     showgrid="false"
     inkscape:snap-nodes="true"
     inkscape:snap-bbox="false"
     inkscape:snap-bbox-midpoints="false"
     inkscape:snap-object-midpoints="true"
     inkscape:object-nodes="false"
     inkscape:window-width="1912"
     inkscape:window-height="1155"
     inkscape:window-x="0"
     inkscape:window-y="220"
     inkscape:window-maximized="0"
     inkscape:snap-bbox-edge-midpoints="true">
    <inkscape:grid
       type="xygrid"
       id="grid4116"
       empspacing="5"
       visible="true"
       enabled="true"
       snapvisiblegridlinesonly="true" />
  </sodipodi:namedview>
  <metadata
     id="metadata4113">
    <rdf:RDF>
      <cc:Work
         rdf:about="">
        <dc:format>image/svg+xml</dc:format>
        <dc:type
           rdf:resource="http://purl.org/dc/dcmitype/StillImage" />
        <dc:title></dc:title>
      </cc:Work>
    </rdf:RDF>
  </metadata>
  <g
     inkscape:label="Layer 1"
     inkscape:groupmode="layer"
     id="layer1">
    <g
       id="g6317"
       clip-path="url(#clipPath6409)">
      <g
         id="g10858"
         transform="matrix(1,0,0,0.99952108,3.4319805,25.687169)">
        <rect
           y="292.80099"
           x="117.11415"
           height="18.164845"
           width="416.42856"
           id="rect9952"
           style="fill:#ffff00;fill-opacity:1;fill-rule:nonzero;stroke:#000000;stroke-width:2.00047874000000014;stroke-miterlimit:4;stroke-opacity:1;stroke-dasharray:none" />
        <g
           id="g10820"
           transform="translate(-8.5041665,-2.020744)">
          <text
             xml:space="preserve"
             style="font-size:24px;font-style:normal;font-variant:normal;font-weight:normal;font-stretch:normal;text-align:start;line-height:125%;letter-spacing:0px;word-spacing:0px;text-anchor:start;fill:#000000;fill-opacity:1;stroke:none;font-family:Liberation Serif;-inkscape-font-specification:Liberation Serif"
             x="296.75195"
             y="286.19617"
             id="text10325-9"
             sodipodi:linespacing="125%"><tspan
               sodipodi:role="line"
               id="tspan10327-6"
               x="296.75195"
               y="286.19617">$r_z$</tspan></text>
          <path
             style="fill:none;stroke:#000000;stroke-width:2.00047898;stroke-linecap:butt;stroke-linejoin:miter;stroke-miterlimit:4;stroke-opacity:1;stroke-dasharray:none;marker-end:url(#Arrow1Mend)"
             d="m 294.57321,280.20307 -23.75,20"
             id="path10350-9"
             inkscape:connector-curvature="0"
             sodipodi:nodetypes="cc" />
        </g>
      </g>
      <path
         inkscape:connector-curvature="0"
         style="fill:#dee2e2;fill-opacity:1;stroke:none"
         d="m 160,318.50281 c -41.5569,0.47786 -76.62779,27.93694 -88.5,65.6875 3.49708,8.72063 5.4375,18.21705 5.4375,28.1875 0,9.97044 -1.94042,19.49813 -5.4375,28.21875 11.8732,37.74834 46.94489,65.14715 88.5,65.625 2.2531,-0.0259 4.50648,-0.0994 6.71875,-0.28125 2.57265,-0.21149 5.11536,-0.52289 7.625,-0.9375 2.50964,-0.41461 4.96798,-0.92188 7.40625,-1.53125 2.43827,-0.60937 4.86023,-1.29798 7.21875,-2.09375 2.35852,-0.79577 4.6671,-1.68245 6.9375,-2.65625 2.2704,-0.9738 4.48233,-2.04403 6.65625,-3.1875 2.17392,-1.14347 4.30594,-2.38273 6.375,-3.6875 2.06906,-1.30477 4.07542,-2.66729 6.03125,-4.125 1.95583,-1.45771 3.85327,-2.99147 5.6875,-4.59375 1.83423,-1.60228 3.60825,-3.29276 5.3125,-5.03125 1.70425,-1.73849 3.34034,-3.53991 4.90625,-5.40625 1.56591,-1.86634 3.04955,-3.79543 4.46875,-5.78125 1.4192,-1.98582 2.76714,-4.02806 4.03125,-6.125 1.26411,-2.09694 2.46185,-4.23781 3.5625,-6.4375 1.10065,-2.19969 2.10242,-4.45592 3.03125,-6.75 0.92883,-2.29408 1.78262,-4.61989 2.53125,-7 -0.87427,-2.18016 -1.63881,-4.41508 -2.3125,-6.6875 -0.67369,-2.27242 -1.25763,-4.58225 -1.71875,-6.9375 -0.46112,-2.35525 -0.82594,-4.75886 -1.0625,-7.1875 -0.23656,-2.42864 -0.34375,-4.88239 -0.34375,-7.375 0,-2.49261 0.10719,-4.97468 0.34375,-7.40625 0.23656,-2.43157 0.60138,-4.82835 1.0625,-7.1875 0.46112,-2.35915 1.04506,-4.66215 1.71875,-6.9375 0.67369,-2.27535 1.43823,-4.50734 2.3125,-6.6875 -0.74856,-2.38023 -1.60248,-4.73685 -2.53125,-7.03125 -0.92877,-2.2944 -1.93065,-4.54981 -3.03125,-6.75 -1.1006,-2.20019 -2.29844,-4.33992 -3.5625,-6.4375 -1.26406,-2.09758 -2.58084,-4.13842 -4,-6.125 -1.41916,-1.98658 -2.93412,-3.91407 -4.5,-5.78125 -1.56588,-1.86718 -3.20202,-3.66685 -4.90625,-5.40625 -1.70423,-1.7394 -3.47829,-3.42803 -5.3125,-5.03125 -1.83421,-1.60322 -3.73168,-3.1351 -5.6875,-4.59375 -1.95582,-1.45865 -3.96219,-2.85056 -6.03125,-4.15625 -2.06906,-1.30569 -4.20107,-2.51191 -6.375,-3.65625 -2.17393,-1.14434 -4.38582,-2.2129 -6.65625,-3.1875 -2.27043,-0.9746 -4.57894,-1.85979 -6.9375,-2.65625 -2.35856,-0.79646 -4.78043,-1.51507 -7.21875,-2.125 -2.43832,-0.60993 -4.89655,-1.11624 -7.40625,-1.53125 -2.5097,-0.41501 -5.05228,-0.7258 -7.625,-0.9375 -2.2127,-0.18208 -4.46519,-0.25534 -6.71875,-0.28125 z m 0,18.03125 c 41.88408,0 75.84375,33.95967 75.84375,75.84375 0,41.88404 -33.95967,75.8125 -75.84375,75.8125 -41.88408,0 -75.84375,-33.92846 -75.84375,-75.8125 0,-41.88408 33.95967,-75.84375 75.84375,-75.84375 z"
         id="path10125-8" />
      <path
         inkscape:connector-curvature="0"
         style="fill:#dee2e2;fill-opacity:1;stroke:none"
         d="m 480,318.50281 c -41.5569,0.47786 -76.62779,27.93694 -88.5,65.6875 3.49708,8.72063 5.4375,18.21705 5.4375,28.1875 0,9.97044 -1.94042,19.49813 -5.4375,28.21875 11.8732,37.74834 46.94489,65.14715 88.5,65.625 2.2531,-0.0259 4.50648,-0.0994 6.71875,-0.28125 2.57265,-0.21149 5.11536,-0.52289 7.625,-0.9375 2.50964,-0.41461 4.96798,-0.92188 7.40625,-1.53125 2.43827,-0.60937 4.86023,-1.29798 7.21875,-2.09375 2.35852,-0.79577 4.6671,-1.68245 6.9375,-2.65625 2.2704,-0.9738 4.48233,-2.04403 6.65625,-3.1875 2.17392,-1.14347 4.30594,-2.38273 6.375,-3.6875 2.06906,-1.30477 4.07542,-2.66729 6.03125,-4.125 1.95583,-1.45771 3.85327,-2.99147 5.6875,-4.59375 1.83423,-1.60228 3.60825,-3.29276 5.3125,-5.03125 1.70425,-1.73849 3.34034,-3.53991 4.90625,-5.40625 1.56591,-1.86634 3.04955,-3.79543 4.46875,-5.78125 1.4192,-1.98582 2.76714,-4.02806 4.03125,-6.125 1.26411,-2.09694 2.46185,-4.23781 3.5625,-6.4375 1.10065,-2.19969 2.10242,-4.45592 3.03125,-6.75 0.92883,-2.29408 1.78262,-4.61989 2.53125,-7 -0.87427,-2.18016 -1.63881,-4.41508 -2.3125,-6.6875 -0.67369,-2.27242 -1.25763,-4.58225 -1.71875,-6.9375 -0.46112,-2.35525 -0.82594,-4.75886 -1.0625,-7.1875 -0.23656,-2.42864 -0.34375,-4.88239 -0.34375,-7.375 0,-2.49261 0.10719,-4.97468 0.34375,-7.40625 0.23656,-2.43157 0.60138,-4.82835 1.0625,-7.1875 0.46112,-2.35915 1.04506,-4.66215 1.71875,-6.9375 0.67369,-2.27535 1.43823,-4.50734 2.3125,-6.6875 -0.74856,-2.38023 -1.60248,-4.73685 -2.53125,-7.03125 -0.92877,-2.2944 -1.93065,-4.54981 -3.03125,-6.75 -1.1006,-2.20019 -2.29844,-4.33992 -3.5625,-6.4375 -1.26406,-2.09758 -2.58084,-4.13842 -4,-6.125 -1.41916,-1.98658 -2.93412,-3.91407 -4.5,-5.78125 -1.56588,-1.86718 -3.20202,-3.66685 -4.90625,-5.40625 -1.70423,-1.7394 -3.47829,-3.42803 -5.3125,-5.03125 -1.83421,-1.60322 -3.73168,-3.1351 -5.6875,-4.59375 -1.95582,-1.45865 -3.96219,-2.85056 -6.03125,-4.15625 -2.06906,-1.30569 -4.20107,-2.51191 -6.375,-3.65625 -2.17393,-1.14434 -4.38582,-2.2129 -6.65625,-3.1875 -2.27043,-0.9746 -4.57894,-1.85979 -6.9375,-2.65625 -2.35856,-0.79646 -4.78043,-1.51507 -7.21875,-2.125 -2.43832,-0.60993 -4.89655,-1.11624 -7.40625,-1.53125 -2.5097,-0.41501 -5.05228,-0.7258 -7.625,-0.9375 -2.2127,-0.18208 -4.46519,-0.25534 -6.71875,-0.28125 z m 0,18.03125 c 41.88408,0 75.84375,33.95967 75.84375,75.84375 0,41.88404 -33.95967,75.8125 -75.84375,75.8125 -41.88408,0 -75.84375,-33.92846 -75.84375,-75.8125 0,-41.88408 33.95967,-75.84375 75.84375,-75.84375 z"
         id="path10125-9" />
      <path
         style="fill:#dee2e2;fill-opacity:1;stroke:none"
         d="M 320 318.5 C 278.4431 318.97786 243.37221 346.43694 231.5 384.1875 C 234.99708 392.90813 236.9375 402.40455 236.9375 412.375 C 236.9375 422.34544 234.99708 431.87313 231.5 440.59375 C 243.3732 478.34209 278.44489 505.7409 320 506.21875 C 322.2531 506.19284 324.50648 506.11936 326.71875 505.9375 C 329.2914 505.72601 331.83411 505.41461 334.34375 505 C 336.85339 504.58539 339.31173 504.07812 341.75 503.46875 C 344.18827 502.85938 346.61023 502.17077 348.96875 501.375 C 351.32727 500.57923 353.63585 499.69255 355.90625 498.71875 C 358.17665 497.74495 360.38858 496.67472 362.5625 495.53125 C 364.73642 494.38778 366.86844 493.14852 368.9375 491.84375 C 371.00656 490.53898 373.01292 489.17646 374.96875 487.71875 C 376.92458 486.26104 378.82202 484.72728 380.65625 483.125 C 382.49048 481.52272 384.2645 479.83224 385.96875 478.09375 C 387.673 476.35526 389.30909 474.55384 390.875 472.6875 C 392.44091 470.82116 393.92455 468.89207 395.34375 466.90625 C 396.76295 464.92043 398.11089 462.87819 399.375 460.78125 C 400.63911 458.68431 401.83685 456.54344 402.9375 454.34375 C 404.03815 452.14406 405.03992 449.88783 405.96875 447.59375 C 406.89758 445.29967 407.75137 442.97386 408.5 440.59375 C 407.62573 438.41359 406.86119 436.17867 406.1875 433.90625 C 405.51381 431.63383 404.92987 429.324 404.46875 426.96875 C 404.00763 424.6135 403.64281 422.20989 403.40625 419.78125 C 403.16969 417.35261 403.0625 414.89886 403.0625 412.40625 C 403.0625 409.91364 403.16969 407.43157 403.40625 405 C 403.64281 402.56843 404.00763 400.17165 404.46875 397.8125 C 404.92987 395.45335 405.51381 393.15035 406.1875 390.875 C 406.86119 388.59965 407.62573 386.36766 408.5 384.1875 C 407.75144 381.80727 406.89752 379.45065 405.96875 377.15625 C 405.03998 374.86185 404.0381 372.60644 402.9375 370.40625 C 401.8369 368.20606 400.63906 366.06633 399.375 363.96875 C 398.11094 361.87117 396.79416 359.83033 395.375 357.84375 C 393.95584 355.85717 392.44088 353.92968 390.875 352.0625 C 389.30912 350.19532 387.67298 348.39565 385.96875 346.65625 C 384.26452 344.91685 382.49046 343.22822 380.65625 341.625 C 378.82204 340.02178 376.92457 338.4899 374.96875 337.03125 C 373.01293 335.5726 371.00656 334.18069 368.9375 332.875 C 366.86844 331.56931 364.73643 330.36309 362.5625 329.21875 C 360.38857 328.07441 358.17668 327.00585 355.90625 326.03125 C 353.63582 325.05665 351.32731 324.17146 348.96875 323.375 C 346.61019 322.57854 344.18832 321.85993 341.75 321.25 C 339.31168 320.64007 336.85345 320.13376 334.34375 319.71875 C 331.83405 319.30374 329.29147 318.99295 326.71875 318.78125 C 324.50605 318.59917 322.25356 318.52591 320 318.5 z M 320 336.53125 C 361.88408 336.53125 395.84375 370.49092 395.84375 412.375 C 395.84375 454.25904 361.88408 488.1875 320 488.1875 C 278.11592 488.1875 244.15625 454.25904 244.15625 412.375 C 244.15625 370.49092 278.11592 336.53125 320 336.53125 z "
         id="path10125" />
      <path
         sodipodi:type="arc"
         style="fill:none;stroke:#000000;stroke-width:0.47092977;stroke-miterlimit:4;stroke-opacity:1;stroke-dasharray:none"
         id="path6035"
         sodipodi:cx="250.71428"
         sodipodi:cy="148.79076"
         sodipodi:rx="17.857143"
         sodipodi:ry="17.857143"
         d="m 268.57142,148.79076 c 0,9.86222 -7.99491,17.85714 -17.85714,17.85714 -9.86223,0 -17.85714,-7.99492 -17.85714,-17.85714 0,-9.86223 7.99491,-17.85715 17.85714,-17.85715 9.86223,0 17.85714,7.99492 17.85714,17.85715 z"
         transform="matrix(4.2469178,0,0,4.2469178,-744.76295,-219.55151)" />
      <path
         sodipodi:type="arc"
         style="fill:none;stroke:#000000;stroke-width:0.38029894;stroke-miterlimit:4;stroke-opacity:1;stroke-dasharray:none"
         id="path6037"
         sodipodi:cx="250.71428"
         sodipodi:cy="148.79076"
         sodipodi:rx="17.857143"
         sodipodi:ry="17.857143"
         d="m 268.57142,148.79076 c 0,9.86222 -7.99491,17.85714 -17.85714,17.85714 -9.86223,0 -17.85714,-7.99492 -17.85714,-17.85714 0,-9.86223 7.99491,-17.85715 17.85714,-17.85715 9.86223,0 17.85714,7.99492 17.85714,17.85715 z"
         transform="matrix(5.2590206,0,0,5.2590206,-998.51156,-370.14305)" />
      <path
         transform="matrix(0.70875,0,0,0.70875,-17.693744,306.90674)"
         d="m 268.57142,148.79076 c 0,9.86222 -7.99491,17.85714 -17.85714,17.85714 -9.86223,0 -17.85714,-7.99492 -17.85714,-17.85714 0,-9.86223 7.99491,-17.85715 17.85714,-17.85715 9.86223,0 17.85714,7.99492 17.85714,17.85715 z"
         sodipodi:ry="17.857143"
         sodipodi:rx="17.857143"
         sodipodi:cy="148.79076"
         sodipodi:cx="250.71428"
         id="path158576-0"
         style="fill:#268bd2;fill-opacity:1;fill-rule:nonzero;stroke:none"
         sodipodi:type="arc" />
      <path
         sodipodi:type="arc"
         style="fill:#268bd2;fill-opacity:1;fill-rule:nonzero;stroke:none"
         id="use5971"
         sodipodi:cx="250.71428"
         sodipodi:cy="148.79076"
         sodipodi:rx="17.857143"
         sodipodi:ry="17.857143"
         d="m 268.57142,148.79076 c 0,9.86222 -7.99491,17.85714 -17.85714,17.85714 -9.86223,0 -17.85714,-7.99492 -17.85714,-17.85714 0,-9.86223 7.99491,-17.85715 17.85714,-17.85715 9.86223,0 17.85714,7.99492 17.85714,17.85715 z"
         transform="matrix(0.70875,0,0,0.70875,142.30626,306.90674)" />
      <path
         sodipodi:type="arc"
         style="fill:#268bd2;fill-opacity:1;fill-rule:nonzero;stroke:none"
         id="use5975"
         sodipodi:cx="250.71428"
         sodipodi:cy="148.79076"
         sodipodi:rx="17.857143"
         sodipodi:ry="17.857143"
         d="m 268.57142,148.79076 c 0,9.86222 -7.99491,17.85714 -17.85714,17.85714 -9.86223,0 -17.85714,-7.99492 -17.85714,-17.85714 0,-9.86223 7.99491,-17.85715 17.85714,-17.85715 9.86223,0 17.85714,7.99492 17.85714,17.85715 z"
         transform="matrix(0.70875,0,0,0.70875,302.30626,306.90674)" />
      <path
         sodipodi:type="arc"
         style="fill:none;stroke:#000000;stroke-width:0.47092977;stroke-miterlimit:4;stroke-opacity:1;stroke-dasharray:none"
         id="path6035-9"
         sodipodi:cx="250.71428"
         sodipodi:cy="148.79076"
         sodipodi:rx="17.857143"
         sodipodi:ry="17.857143"
         d="m 268.57142,148.79076 a 17.857143,17.857143 0 1 1 -35.71428,0 17.857143,17.857143 0 1 1 35.71428,0 z"
         transform="matrix(4.2469178,0,0,4.2469178,-584.76295,-219.55151)" />
      <path
         sodipodi:type="arc"
         style="fill:none;stroke:#000000;stroke-width:0.38029894;stroke-miterlimit:4;stroke-opacity:1;stroke-dasharray:none"
         id="path6037-4"
         sodipodi:cx="250.71428"
         sodipodi:cy="148.79076"
         sodipodi:rx="17.857143"
         sodipodi:ry="17.857143"
         d="m 268.57142,148.79076 a 17.857143,17.857143 0 1 1 -35.71428,0 17.857143,17.857143 0 1 1 35.71428,0 z"
         transform="matrix(5.2590206,0,0,5.2590206,-838.51156,-370.14305)" />
      <path
         sodipodi:type="arc"
         style="fill:none;stroke:#000000;stroke-width:0.47092977;stroke-miterlimit:4;stroke-opacity:1;stroke-dasharray:none"
         id="path6035-7"
         sodipodi:cx="250.71428"
         sodipodi:cy="148.79076"
         sodipodi:rx="17.857143"
         sodipodi:ry="17.857143"
         d="m 268.57142,148.79076 a 17.857143,17.857143 0 1 1 -35.71428,0 17.857143,17.857143 0 1 1 35.71428,0 z"
         transform="matrix(4.2469178,0,0,4.2469178,-904.76295,-219.55151)" />
      <path
         sodipodi:type="arc"
         style="fill:none;stroke:#000000;stroke-width:0.38029894;stroke-miterlimit:4;stroke-opacity:1;stroke-dasharray:none"
         id="path6037-6"
         sodipodi:cx="250.71428"
         sodipodi:cy="148.79076"
         sodipodi:rx="17.857143"
         sodipodi:ry="17.857143"
         d="m 268.57142,148.79076 a 17.857143,17.857143 0 1 1 -35.71428,0 17.857143,17.857143 0 1 1 35.71428,0 z"
         transform="matrix(5.2590206,0,0,5.2590206,-1158.5116,-370.14305)" />
    </g>
    <path
       style="fill:none;stroke:#000000;stroke-width:2;stroke-linecap:butt;stroke-linejoin:miter;stroke-miterlimit:4;stroke-opacity:1;stroke-dasharray:12,4;stroke-dashoffset:10"
       d="m 479.99999,309.13121 0,213.23095"
       id="path6415"
       inkscape:connector-curvature="0"
       sodipodi:nodetypes="cc" />
    <use
       x="0"
       y="0"
       xlink:href="#path6415"
       id="use6417"
       transform="translate(-320,2.6171874e-6)"
       width="744.09448"
       height="1052.3622" />
    <text
       xml:space="preserve"
       style="font-size:12px;font-style:normal;font-variant:normal;font-weight:normal;font-stretch:normal;text-align:start;line-height:125%;letter-spacing:0px;word-spacing:0px;text-anchor:start;fill:#000000;fill-opacity:1;stroke:none;font-family:Liberation Serif;-inkscape-font-specification:Liberation Serif"
       x="288.5"
       y="379.36218"
       id="text10321"
       sodipodi:linespacing="125%"><tspan
         sodipodi:role="line"
         id="tspan10323" /></text>
    <text
       xml:space="preserve"
       style="font-size:24px;font-style:normal;font-variant:normal;font-weight:normal;font-stretch:normal;text-align:start;line-height:125%;letter-spacing:0px;word-spacing:0px;text-anchor:start;fill:#000000;fill-opacity:1;stroke:none;font-family:Liberation Serif;-inkscape-font-specification:Liberation Serif"
       x="301.75"
       y="374.86218"
       id="text10325"
       sodipodi:linespacing="125%"><tspan
         sodipodi:role="line"
         id="tspan10327"
         x="301.75"
         y="374.86218">$r_\text{Si}$</tspan></text>
    <path
       style="fill:none;stroke:#000000;stroke-width:2;stroke-linecap:butt;stroke-linejoin:miter;stroke-miterlimit:4;stroke-opacity:1;stroke-dasharray:none;marker-end:url(#Arrow1Mend)"
       d="m 297.75,366.61218 -37.25,-7.25"
       id="path10350"
       inkscape:connector-curvature="0"
       sodipodi:nodetypes="cc" />
  </g>
</svg>
