<?xml version="1.0" encoding="UTF-8" standalone="no"?>
<!-- Created with Inkscape (http://www.inkscape.org/) -->

<svg
   xmlns:dc="http://purl.org/dc/elements/1.1/"
   xmlns:cc="http://creativecommons.org/ns#"
   xmlns:rdf="http://www.w3.org/1999/02/22-rdf-syntax-ns#"
   xmlns:svg="http://www.w3.org/2000/svg"
   xmlns="http://www.w3.org/2000/svg"
   xmlns:sodipodi="http://sodipodi.sourceforge.net/DTD/sodipodi-0.dtd"
   xmlns:inkscape="http://www.inkscape.org/namespaces/inkscape"
   width="744.09448819"
   height="1052.3622047"
   id="svg4931"
   version="1.1"
   inkscape:version="0.48.4 r9939"
   sodipodi:docname="2DDMA_theta04_a.svg">
  <defs
     id="defs4933" />
  <sodipodi:namedview
     id="base"
     pagecolor="#ffffff"
     bordercolor="#666666"
     borderopacity="1.0"
     inkscape:pageopacity="0.0"
     inkscape:pageshadow="2"
     inkscape:zoom="7.9195959"
     inkscape:cx="528.56861"
     inkscape:cy="541.32672"
     inkscape:document-units="px"
     inkscape:current-layer="layer1"
     showgrid="false"
     inkscape:window-width="1912"
     inkscape:window-height="1155"
     inkscape:window-x="0"
     inkscape:window-y="220"
     inkscape:window-maximized="0" />
  <metadata
     id="metadata4936">
    <rdf:RDF>
      <cc:Work
         rdf:about="">
        <dc:format>image/svg+xml</dc:format>
        <dc:type
           rdf:resource="http://purl.org/dc/dcmitype/StillImage" />
      </cc:Work>
    </rdf:RDF>
  </metadata>
  <g
     inkscape:label="Layer 1"
     inkscape:groupmode="layer"
     id="layer1">
    <rect
       style="fill:none;stroke:#000000;stroke-width:1;stroke-linejoin:round;stroke-miterlimit:4;stroke-opacity:1;stroke-dasharray:none"
       id="rect4016"
       width="30"
       height="30"
       x="463.57144"
       y="521.64789" />
    <g
       transform="translate(158.57143,344.28572)"
       id="g3962">
      <path
         transform="matrix(0.5,0,0,0.5,158.75,104.93109)"
         d="m 305,154.86218 c 0,1.38071 -1.11929,2.5 -2.5,2.5 -1.38071,0 -2.5,-1.11929 -2.5,-2.5 0,-1.38071 1.11929,-2.5 2.5,-2.5 1.38071,0 2.5,1.11929 2.5,2.5 z"
         sodipodi:ry="2.5"
         sodipodi:rx="2.5"
         sodipodi:cy="154.86218"
         sodipodi:cx="302.5"
         id="path2989-8-7"
         style="fill:#000000;fill-opacity:1;fill-rule:nonzero;stroke:none"
         sodipodi:type="arc" />
      <path
         transform="matrix(0.5,0,0,0.5,168.75,104.93109)"
         d="m 305,154.86218 c 0,1.38071 -1.11929,2.5 -2.5,2.5 -1.38071,0 -2.5,-1.11929 -2.5,-2.5 0,-1.38071 1.11929,-2.5 2.5,-2.5 1.38071,0 2.5,1.11929 2.5,2.5 z"
         sodipodi:ry="2.5"
         sodipodi:rx="2.5"
         sodipodi:cy="154.86218"
         sodipodi:cx="302.5"
         id="path2989-5-46"
         style="fill:#000000;fill-opacity:1;fill-rule:nonzero;stroke:none"
         sodipodi:type="arc" />
      <path
         transform="matrix(0.5,0,0,0.5,158.75,114.93109)"
         d="m 305,154.86218 c 0,1.38071 -1.11929,2.5 -2.5,2.5 -1.38071,0 -2.5,-1.11929 -2.5,-2.5 0,-1.38071 1.11929,-2.5 2.5,-2.5 1.38071,0 2.5,1.11929 2.5,2.5 z"
         sodipodi:ry="2.5"
         sodipodi:rx="2.5"
         sodipodi:cy="154.86218"
         sodipodi:cx="302.5"
         id="path2989-8-20"
         style="fill:#000000;fill-opacity:1;fill-rule:nonzero;stroke:none"
         sodipodi:type="arc" />
      <path
         transform="matrix(0.5,0,0,0.5,168.75,114.93109)"
         d="m 305,154.86218 c 0,1.38071 -1.11929,2.5 -2.5,2.5 -1.38071,0 -2.5,-1.11929 -2.5,-2.5 0,-1.38071 1.11929,-2.5 2.5,-2.5 1.38071,0 2.5,1.11929 2.5,2.5 z"
         sodipodi:ry="2.5"
         sodipodi:rx="2.5"
         sodipodi:cy="154.86218"
         sodipodi:cx="302.5"
         id="path2989-5-1"
         style="fill:#000000;fill-opacity:1;fill-rule:nonzero;stroke:none"
         sodipodi:type="arc" />
      <path
         transform="matrix(0.5,0,0,0.5,178.75,114.93109)"
         d="m 305,154.86218 c 0,1.38071 -1.11929,2.5 -2.5,2.5 -1.38071,0 -2.5,-1.11929 -2.5,-2.5 0,-1.38071 1.11929,-2.5 2.5,-2.5 1.38071,0 2.5,1.11929 2.5,2.5 z"
         sodipodi:ry="2.5"
         sodipodi:rx="2.5"
         sodipodi:cy="154.86218"
         sodipodi:cx="302.5"
         id="path2989-82-4"
         style="fill:#000000;fill-opacity:1;fill-rule:nonzero;stroke:none"
         sodipodi:type="arc" />
      <path
         transform="matrix(0.5,0,0,0.5,158.75,124.93109)"
         d="m 305,154.86218 c 0,1.38071 -1.11929,2.5 -2.5,2.5 -1.38071,0 -2.5,-1.11929 -2.5,-2.5 0,-1.38071 1.11929,-2.5 2.5,-2.5 1.38071,0 2.5,1.11929 2.5,2.5 z"
         sodipodi:ry="2.5"
         sodipodi:rx="2.5"
         sodipodi:cy="154.86218"
         sodipodi:cx="302.5"
         id="path2989-8-78"
         style="fill:#000000;fill-opacity:1;fill-rule:nonzero;stroke:none"
         sodipodi:type="arc" />
      <path
         transform="matrix(0.5,0,0,0.5,168.75,124.93109)"
         d="m 305,154.86218 c 0,1.38071 -1.11929,2.5 -2.5,2.5 -1.38071,0 -2.5,-1.11929 -2.5,-2.5 0,-1.38071 1.11929,-2.5 2.5,-2.5 1.38071,0 2.5,1.11929 2.5,2.5 z"
         sodipodi:ry="2.5"
         sodipodi:rx="2.5"
         sodipodi:cy="154.86218"
         sodipodi:cx="302.5"
         id="path2989-5-8"
         style="fill:#000000;fill-opacity:1;fill-rule:nonzero;stroke:none"
         sodipodi:type="arc" />
      <path
         transform="matrix(0.5,0,0,0.5,178.75,124.93109)"
         d="m 305,154.86218 c 0,1.38071 -1.11929,2.5 -2.5,2.5 -1.38071,0 -2.5,-1.11929 -2.5,-2.5 0,-1.38071 1.11929,-2.5 2.5,-2.5 1.38071,0 2.5,1.11929 2.5,2.5 z"
         sodipodi:ry="2.5"
         sodipodi:rx="2.5"
         sodipodi:cy="154.86218"
         sodipodi:cx="302.5"
         id="path2989-82-93"
         style="fill:#000000;fill-opacity:1;fill-rule:nonzero;stroke:none"
         sodipodi:type="arc" />
      <g
         id="g4786">
        <path
           sodipodi:type="arc"
           style="fill:#aaaaaa;fill-opacity:1;fill-rule:nonzero;stroke:none"
           id="path2989"
           sodipodi:cx="302.5"
           sodipodi:cy="154.86218"
           sodipodi:rx="2.5"
           sodipodi:ry="2.5"
           d="m 305,154.86218 c 0,1.38071 -1.11929,2.5 -2.5,2.5 -1.38071,0 -2.5,-1.11929 -2.5,-2.5 0,-1.38071 1.11929,-2.5 2.5,-2.5 1.38071,0 2.5,1.11929 2.5,2.5 z"
           transform="matrix(0.5,0,0,0.5,148.75,74.931091)" />
        <path
           sodipodi:type="arc"
           style="fill:#aaaaaa;fill-opacity:1;fill-rule:nonzero;stroke:none"
           id="path2989-8"
           sodipodi:cx="302.5"
           sodipodi:cy="154.86218"
           sodipodi:rx="2.5"
           sodipodi:ry="2.5"
           d="m 305,154.86218 c 0,1.38071 -1.11929,2.5 -2.5,2.5 -1.38071,0 -2.5,-1.11929 -2.5,-2.5 0,-1.38071 1.11929,-2.5 2.5,-2.5 1.38071,0 2.5,1.11929 2.5,2.5 z"
           transform="matrix(0.5,0,0,0.5,158.75,74.931091)" />
        <path
           sodipodi:type="arc"
           style="fill:#aaaaaa;fill-opacity:1;fill-rule:nonzero;stroke:none"
           id="path2989-5"
           sodipodi:cx="302.5"
           sodipodi:cy="154.86218"
           sodipodi:rx="2.5"
           sodipodi:ry="2.5"
           d="m 305,154.86218 c 0,1.38071 -1.11929,2.5 -2.5,2.5 -1.38071,0 -2.5,-1.11929 -2.5,-2.5 0,-1.38071 1.11929,-2.5 2.5,-2.5 1.38071,0 2.5,1.11929 2.5,2.5 z"
           transform="matrix(0.5,0,0,0.5,168.75,74.931091)" />
        <path
           sodipodi:type="arc"
           style="fill:#aaaaaa;fill-opacity:1;fill-rule:nonzero;stroke:none"
           id="path2989-82"
           sodipodi:cx="302.5"
           sodipodi:cy="154.86218"
           sodipodi:rx="2.5"
           sodipodi:ry="2.5"
           d="m 305,154.86218 c 0,1.38071 -1.11929,2.5 -2.5,2.5 -1.38071,0 -2.5,-1.11929 -2.5,-2.5 0,-1.38071 1.11929,-2.5 2.5,-2.5 1.38071,0 2.5,1.11929 2.5,2.5 z"
           transform="matrix(0.5,0,0,0.5,178.75,74.931091)" />
        <path
           sodipodi:type="arc"
           style="fill:#aaaaaa;fill-opacity:1;fill-rule:nonzero;stroke:none"
           id="path2989-9"
           sodipodi:cx="302.5"
           sodipodi:cy="154.86218"
           sodipodi:rx="2.5"
           sodipodi:ry="2.5"
           d="m 305,154.86218 c 0,1.38071 -1.11929,2.5 -2.5,2.5 -1.38071,0 -2.5,-1.11929 -2.5,-2.5 0,-1.38071 1.11929,-2.5 2.5,-2.5 1.38071,0 2.5,1.11929 2.5,2.5 z"
           transform="matrix(0.5,0,0,0.5,188.75,74.931091)" />
        <path
           sodipodi:type="arc"
           style="fill:#aaaaaa;fill-opacity:1;fill-rule:nonzero;stroke:none"
           id="path2989-0"
           sodipodi:cx="302.5"
           sodipodi:cy="154.86218"
           sodipodi:rx="2.5"
           sodipodi:ry="2.5"
           d="m 305,154.86218 c 0,1.38071 -1.11929,2.5 -2.5,2.5 -1.38071,0 -2.5,-1.11929 -2.5,-2.5 0,-1.38071 1.11929,-2.5 2.5,-2.5 1.38071,0 2.5,1.11929 2.5,2.5 z"
           transform="matrix(0.5,0,0,0.5,198.75,74.931091)" />
        <path
           sodipodi:type="arc"
           style="fill:#aaaaaa;fill-opacity:1;fill-rule:nonzero;stroke:none"
           id="path2989-3"
           sodipodi:cx="302.5"
           sodipodi:cy="154.86218"
           sodipodi:rx="2.5"
           sodipodi:ry="2.5"
           d="m 305,154.86218 c 0,1.38071 -1.11929,2.5 -2.5,2.5 -1.38071,0 -2.5,-1.11929 -2.5,-2.5 0,-1.38071 1.11929,-2.5 2.5,-2.5 1.38071,0 2.5,1.11929 2.5,2.5 z"
           transform="matrix(0.5,0,0,0.5,208.75,74.931091)" />
        <path
           sodipodi:type="arc"
           style="fill:#aaaaaa;fill-opacity:1;fill-rule:nonzero;stroke:none"
           id="path2989-2"
           sodipodi:cx="302.5"
           sodipodi:cy="154.86218"
           sodipodi:rx="2.5"
           sodipodi:ry="2.5"
           d="m 305,154.86218 c 0,1.38071 -1.11929,2.5 -2.5,2.5 -1.38071,0 -2.5,-1.11929 -2.5,-2.5 0,-1.38071 1.11929,-2.5 2.5,-2.5 1.38071,0 2.5,1.11929 2.5,2.5 z"
           transform="matrix(0.5,0,0,0.5,148.75,84.931091)" />
        <path
           sodipodi:type="arc"
           style="fill:#aaaaaa;fill-opacity:1;fill-rule:nonzero;stroke:none"
           id="path2989-8-3"
           sodipodi:cx="302.5"
           sodipodi:cy="154.86218"
           sodipodi:rx="2.5"
           sodipodi:ry="2.5"
           d="m 305,154.86218 c 0,1.38071 -1.11929,2.5 -2.5,2.5 -1.38071,0 -2.5,-1.11929 -2.5,-2.5 0,-1.38071 1.11929,-2.5 2.5,-2.5 1.38071,0 2.5,1.11929 2.5,2.5 z"
           transform="matrix(0.5,0,0,0.5,158.75,84.931091)" />
        <path
           sodipodi:type="arc"
           style="fill:#aaaaaa;fill-opacity:1;fill-rule:nonzero;stroke:none"
           id="path2989-5-4"
           sodipodi:cx="302.5"
           sodipodi:cy="154.86218"
           sodipodi:rx="2.5"
           sodipodi:ry="2.5"
           d="m 305,154.86218 c 0,1.38071 -1.11929,2.5 -2.5,2.5 -1.38071,0 -2.5,-1.11929 -2.5,-2.5 0,-1.38071 1.11929,-2.5 2.5,-2.5 1.38071,0 2.5,1.11929 2.5,2.5 z"
           transform="matrix(0.5,0,0,0.5,168.75,84.931091)" />
        <path
           sodipodi:type="arc"
           style="fill:#aaaaaa;fill-opacity:1;fill-rule:nonzero;stroke:none"
           id="path2989-82-9"
           sodipodi:cx="302.5"
           sodipodi:cy="154.86218"
           sodipodi:rx="2.5"
           sodipodi:ry="2.5"
           d="m 305,154.86218 c 0,1.38071 -1.11929,2.5 -2.5,2.5 -1.38071,0 -2.5,-1.11929 -2.5,-2.5 0,-1.38071 1.11929,-2.5 2.5,-2.5 1.38071,0 2.5,1.11929 2.5,2.5 z"
           transform="matrix(0.5,0,0,0.5,178.75,84.931091)" />
        <path
           sodipodi:type="arc"
           style="fill:#aaaaaa;fill-opacity:1;fill-rule:nonzero;stroke:none"
           id="path2989-9-8"
           sodipodi:cx="302.5"
           sodipodi:cy="154.86218"
           sodipodi:rx="2.5"
           sodipodi:ry="2.5"
           d="m 305,154.86218 c 0,1.38071 -1.11929,2.5 -2.5,2.5 -1.38071,0 -2.5,-1.11929 -2.5,-2.5 0,-1.38071 1.11929,-2.5 2.5,-2.5 1.38071,0 2.5,1.11929 2.5,2.5 z"
           transform="matrix(0.5,0,0,0.5,188.75,84.931091)" />
        <path
           sodipodi:type="arc"
           style="fill:#aaaaaa;fill-opacity:1;fill-rule:nonzero;stroke:none"
           id="path2989-0-7"
           sodipodi:cx="302.5"
           sodipodi:cy="154.86218"
           sodipodi:rx="2.5"
           sodipodi:ry="2.5"
           d="m 305,154.86218 c 0,1.38071 -1.11929,2.5 -2.5,2.5 -1.38071,0 -2.5,-1.11929 -2.5,-2.5 0,-1.38071 1.11929,-2.5 2.5,-2.5 1.38071,0 2.5,1.11929 2.5,2.5 z"
           transform="matrix(0.5,0,0,0.5,198.75,84.931091)" />
        <path
           sodipodi:type="arc"
           style="fill:#aaaaaa;fill-opacity:1;fill-rule:nonzero;stroke:none"
           id="path2989-3-0"
           sodipodi:cx="302.5"
           sodipodi:cy="154.86218"
           sodipodi:rx="2.5"
           sodipodi:ry="2.5"
           d="m 305,154.86218 c 0,1.38071 -1.11929,2.5 -2.5,2.5 -1.38071,0 -2.5,-1.11929 -2.5,-2.5 0,-1.38071 1.11929,-2.5 2.5,-2.5 1.38071,0 2.5,1.11929 2.5,2.5 z"
           transform="matrix(0.5,0,0,0.5,208.75,84.931091)" />
        <path
           sodipodi:type="arc"
           style="fill:#aaaaaa;fill-opacity:1;fill-rule:nonzero;stroke:none"
           id="path2989-53"
           sodipodi:cx="302.5"
           sodipodi:cy="154.86218"
           sodipodi:rx="2.5"
           sodipodi:ry="2.5"
           d="m 305,154.86218 c 0,1.38071 -1.11929,2.5 -2.5,2.5 -1.38071,0 -2.5,-1.11929 -2.5,-2.5 0,-1.38071 1.11929,-2.5 2.5,-2.5 1.38071,0 2.5,1.11929 2.5,2.5 z"
           transform="matrix(0.5,0,0,0.5,148.75,94.931091)" />
        <path
           sodipodi:type="arc"
           style="fill:#aaaaaa;fill-opacity:1;fill-rule:nonzero;stroke:none"
           id="path2989-8-2"
           sodipodi:cx="302.5"
           sodipodi:cy="154.86218"
           sodipodi:rx="2.5"
           sodipodi:ry="2.5"
           d="m 305,154.86218 c 0,1.38071 -1.11929,2.5 -2.5,2.5 -1.38071,0 -2.5,-1.11929 -2.5,-2.5 0,-1.38071 1.11929,-2.5 2.5,-2.5 1.38071,0 2.5,1.11929 2.5,2.5 z"
           transform="matrix(0.5,0,0,0.5,158.75,94.931091)" />
        <path
           sodipodi:type="arc"
           style="fill:#aaaaaa;fill-opacity:1;fill-rule:nonzero;stroke:none"
           id="path2989-5-7"
           sodipodi:cx="302.5"
           sodipodi:cy="154.86218"
           sodipodi:rx="2.5"
           sodipodi:ry="2.5"
           d="m 305,154.86218 c 0,1.38071 -1.11929,2.5 -2.5,2.5 -1.38071,0 -2.5,-1.11929 -2.5,-2.5 0,-1.38071 1.11929,-2.5 2.5,-2.5 1.38071,0 2.5,1.11929 2.5,2.5 z"
           transform="matrix(0.5,0,0,0.5,168.75,94.931091)" />
        <path
           sodipodi:type="arc"
           style="fill:#aaaaaa;fill-opacity:1;fill-rule:nonzero;stroke:none"
           id="path2989-82-2"
           sodipodi:cx="302.5"
           sodipodi:cy="154.86218"
           sodipodi:rx="2.5"
           sodipodi:ry="2.5"
           d="m 305,154.86218 c 0,1.38071 -1.11929,2.5 -2.5,2.5 -1.38071,0 -2.5,-1.11929 -2.5,-2.5 0,-1.38071 1.11929,-2.5 2.5,-2.5 1.38071,0 2.5,1.11929 2.5,2.5 z"
           transform="matrix(0.5,0,0,0.5,178.75,94.931091)" />
        <path
           sodipodi:type="arc"
           style="fill:#aaaaaa;fill-opacity:1;fill-rule:nonzero;stroke:none"
           id="path2989-9-1"
           sodipodi:cx="302.5"
           sodipodi:cy="154.86218"
           sodipodi:rx="2.5"
           sodipodi:ry="2.5"
           d="m 305,154.86218 c 0,1.38071 -1.11929,2.5 -2.5,2.5 -1.38071,0 -2.5,-1.11929 -2.5,-2.5 0,-1.38071 1.11929,-2.5 2.5,-2.5 1.38071,0 2.5,1.11929 2.5,2.5 z"
           transform="matrix(0.5,0,0,0.5,188.75,94.931091)" />
        <path
           sodipodi:type="arc"
           style="fill:#aaaaaa;fill-opacity:1;fill-rule:nonzero;stroke:none"
           id="path2989-0-2"
           sodipodi:cx="302.5"
           sodipodi:cy="154.86218"
           sodipodi:rx="2.5"
           sodipodi:ry="2.5"
           d="m 305,154.86218 c 0,1.38071 -1.11929,2.5 -2.5,2.5 -1.38071,0 -2.5,-1.11929 -2.5,-2.5 0,-1.38071 1.11929,-2.5 2.5,-2.5 1.38071,0 2.5,1.11929 2.5,2.5 z"
           transform="matrix(0.5,0,0,0.5,198.75,94.931091)" />
        <path
           sodipodi:type="arc"
           style="fill:#aaaaaa;fill-opacity:1;fill-rule:nonzero;stroke:none"
           id="path2989-3-4"
           sodipodi:cx="302.5"
           sodipodi:cy="154.86218"
           sodipodi:rx="2.5"
           sodipodi:ry="2.5"
           d="m 305,154.86218 c 0,1.38071 -1.11929,2.5 -2.5,2.5 -1.38071,0 -2.5,-1.11929 -2.5,-2.5 0,-1.38071 1.11929,-2.5 2.5,-2.5 1.38071,0 2.5,1.11929 2.5,2.5 z"
           transform="matrix(0.5,0,0,0.5,208.75,94.931091)" />
        <path
           sodipodi:type="arc"
           style="fill:#aaaaaa;fill-opacity:1;fill-rule:nonzero;stroke:none"
           id="path2989-1"
           sodipodi:cx="302.5"
           sodipodi:cy="154.86218"
           sodipodi:rx="2.5"
           sodipodi:ry="2.5"
           d="m 305,154.86218 c 0,1.38071 -1.11929,2.5 -2.5,2.5 -1.38071,0 -2.5,-1.11929 -2.5,-2.5 0,-1.38071 1.11929,-2.5 2.5,-2.5 1.38071,0 2.5,1.11929 2.5,2.5 z"
           transform="matrix(0.5,0,0,0.5,148.75,104.93109)" />
        <path
           sodipodi:type="arc"
           style="fill:#aaaaaa;fill-opacity:1;fill-rule:nonzero;stroke:none"
           id="path2989-9-87"
           sodipodi:cx="302.5"
           sodipodi:cy="154.86218"
           sodipodi:rx="2.5"
           sodipodi:ry="2.5"
           d="m 305,154.86218 c 0,1.38071 -1.11929,2.5 -2.5,2.5 -1.38071,0 -2.5,-1.11929 -2.5,-2.5 0,-1.38071 1.11929,-2.5 2.5,-2.5 1.38071,0 2.5,1.11929 2.5,2.5 z"
           transform="matrix(0.5,0,0,0.5,188.75,104.93109)" />
        <path
           sodipodi:type="arc"
           style="fill:#aaaaaa;fill-opacity:1;fill-rule:nonzero;stroke:none"
           id="path2989-0-8"
           sodipodi:cx="302.5"
           sodipodi:cy="154.86218"
           sodipodi:rx="2.5"
           sodipodi:ry="2.5"
           d="m 305,154.86218 c 0,1.38071 -1.11929,2.5 -2.5,2.5 -1.38071,0 -2.5,-1.11929 -2.5,-2.5 0,-1.38071 1.11929,-2.5 2.5,-2.5 1.38071,0 2.5,1.11929 2.5,2.5 z"
           transform="matrix(0.5,0,0,0.5,198.75,104.93109)" />
        <path
           sodipodi:type="arc"
           style="fill:#aaaaaa;fill-opacity:1;fill-rule:nonzero;stroke:none"
           id="path2989-3-3"
           sodipodi:cx="302.5"
           sodipodi:cy="154.86218"
           sodipodi:rx="2.5"
           sodipodi:ry="2.5"
           d="m 305,154.86218 c 0,1.38071 -1.11929,2.5 -2.5,2.5 -1.38071,0 -2.5,-1.11929 -2.5,-2.5 0,-1.38071 1.11929,-2.5 2.5,-2.5 1.38071,0 2.5,1.11929 2.5,2.5 z"
           transform="matrix(0.5,0,0,0.5,208.75,104.93109)" />
        <path
           sodipodi:type="arc"
           style="fill:#aaaaaa;fill-opacity:1;fill-rule:nonzero;stroke:none"
           id="path2989-4"
           sodipodi:cx="302.5"
           sodipodi:cy="154.86218"
           sodipodi:rx="2.5"
           sodipodi:ry="2.5"
           d="m 305,154.86218 c 0,1.38071 -1.11929,2.5 -2.5,2.5 -1.38071,0 -2.5,-1.11929 -2.5,-2.5 0,-1.38071 1.11929,-2.5 2.5,-2.5 1.38071,0 2.5,1.11929 2.5,2.5 z"
           transform="matrix(0.5,0,0,0.5,148.75,114.93109)" />
        <path
           sodipodi:type="arc"
           style="fill:#aaaaaa;fill-opacity:1;fill-rule:nonzero;stroke:none"
           id="path2989-9-4"
           sodipodi:cx="302.5"
           sodipodi:cy="154.86218"
           sodipodi:rx="2.5"
           sodipodi:ry="2.5"
           d="m 305,154.86218 c 0,1.38071 -1.11929,2.5 -2.5,2.5 -1.38071,0 -2.5,-1.11929 -2.5,-2.5 0,-1.38071 1.11929,-2.5 2.5,-2.5 1.38071,0 2.5,1.11929 2.5,2.5 z"
           transform="matrix(0.5,0,0,0.5,188.75,114.93109)" />
        <path
           sodipodi:type="arc"
           style="fill:#aaaaaa;fill-opacity:1;fill-rule:nonzero;stroke:none"
           id="path2989-0-6"
           sodipodi:cx="302.5"
           sodipodi:cy="154.86218"
           sodipodi:rx="2.5"
           sodipodi:ry="2.5"
           d="m 305,154.86218 c 0,1.38071 -1.11929,2.5 -2.5,2.5 -1.38071,0 -2.5,-1.11929 -2.5,-2.5 0,-1.38071 1.11929,-2.5 2.5,-2.5 1.38071,0 2.5,1.11929 2.5,2.5 z"
           transform="matrix(0.5,0,0,0.5,198.75,114.93109)" />
        <path
           sodipodi:type="arc"
           style="fill:#aaaaaa;fill-opacity:1;fill-rule:nonzero;stroke:none"
           id="path2989-3-8"
           sodipodi:cx="302.5"
           sodipodi:cy="154.86218"
           sodipodi:rx="2.5"
           sodipodi:ry="2.5"
           d="m 305,154.86218 c 0,1.38071 -1.11929,2.5 -2.5,2.5 -1.38071,0 -2.5,-1.11929 -2.5,-2.5 0,-1.38071 1.11929,-2.5 2.5,-2.5 1.38071,0 2.5,1.11929 2.5,2.5 z"
           transform="matrix(0.5,0,0,0.5,208.75,114.93109)" />
        <path
           sodipodi:type="arc"
           style="fill:#aaaaaa;fill-opacity:1;fill-rule:nonzero;stroke:none"
           id="path2989-91"
           sodipodi:cx="302.5"
           sodipodi:cy="154.86218"
           sodipodi:rx="2.5"
           sodipodi:ry="2.5"
           d="m 305,154.86218 c 0,1.38071 -1.11929,2.5 -2.5,2.5 -1.38071,0 -2.5,-1.11929 -2.5,-2.5 0,-1.38071 1.11929,-2.5 2.5,-2.5 1.38071,0 2.5,1.11929 2.5,2.5 z"
           transform="matrix(0.5,0,0,0.5,148.75,124.93109)" />
        <path
           sodipodi:type="arc"
           style="fill:#aaaaaa;fill-opacity:1;fill-rule:nonzero;stroke:none"
           id="path2989-9-2"
           sodipodi:cx="302.5"
           sodipodi:cy="154.86218"
           sodipodi:rx="2.5"
           sodipodi:ry="2.5"
           d="m 305,154.86218 c 0,1.38071 -1.11929,2.5 -2.5,2.5 -1.38071,0 -2.5,-1.11929 -2.5,-2.5 0,-1.38071 1.11929,-2.5 2.5,-2.5 1.38071,0 2.5,1.11929 2.5,2.5 z"
           transform="matrix(0.5,0,0,0.5,188.75,124.93109)" />
        <path
           sodipodi:type="arc"
           style="fill:#aaaaaa;fill-opacity:1;fill-rule:nonzero;stroke:none"
           id="path2989-0-3"
           sodipodi:cx="302.5"
           sodipodi:cy="154.86218"
           sodipodi:rx="2.5"
           sodipodi:ry="2.5"
           d="m 305,154.86218 c 0,1.38071 -1.11929,2.5 -2.5,2.5 -1.38071,0 -2.5,-1.11929 -2.5,-2.5 0,-1.38071 1.11929,-2.5 2.5,-2.5 1.38071,0 2.5,1.11929 2.5,2.5 z"
           transform="matrix(0.5,0,0,0.5,198.75,124.93109)" />
        <path
           sodipodi:type="arc"
           style="fill:#aaaaaa;fill-opacity:1;fill-rule:nonzero;stroke:none"
           id="path2989-3-2"
           sodipodi:cx="302.5"
           sodipodi:cy="154.86218"
           sodipodi:rx="2.5"
           sodipodi:ry="2.5"
           d="m 305,154.86218 c 0,1.38071 -1.11929,2.5 -2.5,2.5 -1.38071,0 -2.5,-1.11929 -2.5,-2.5 0,-1.38071 1.11929,-2.5 2.5,-2.5 1.38071,0 2.5,1.11929 2.5,2.5 z"
           transform="matrix(0.5,0,0,0.5,208.75,124.93109)" />
        <path
           sodipodi:type="arc"
           style="fill:#aaaaaa;fill-opacity:1;fill-rule:nonzero;stroke:none"
           id="path2989-6"
           sodipodi:cx="302.5"
           sodipodi:cy="154.86218"
           sodipodi:rx="2.5"
           sodipodi:ry="2.5"
           d="m 305,154.86218 c 0,1.38071 -1.11929,2.5 -2.5,2.5 -1.38071,0 -2.5,-1.11929 -2.5,-2.5 0,-1.38071 1.11929,-2.5 2.5,-2.5 1.38071,0 2.5,1.11929 2.5,2.5 z"
           transform="matrix(0.5,0,0,0.5,148.75,134.93109)" />
        <path
           sodipodi:type="arc"
           style="fill:#aaaaaa;fill-opacity:1;fill-rule:nonzero;stroke:none"
           id="path2989-8-4"
           sodipodi:cx="302.5"
           sodipodi:cy="154.86218"
           sodipodi:rx="2.5"
           sodipodi:ry="2.5"
           d="m 305,154.86218 c 0,1.38071 -1.11929,2.5 -2.5,2.5 -1.38071,0 -2.5,-1.11929 -2.5,-2.5 0,-1.38071 1.11929,-2.5 2.5,-2.5 1.38071,0 2.5,1.11929 2.5,2.5 z"
           transform="matrix(0.5,0,0,0.5,158.75,134.93109)" />
        <path
           sodipodi:type="arc"
           style="fill:#aaaaaa;fill-opacity:1;fill-rule:nonzero;stroke:none"
           id="path2989-5-5"
           sodipodi:cx="302.5"
           sodipodi:cy="154.86218"
           sodipodi:rx="2.5"
           sodipodi:ry="2.5"
           d="m 305,154.86218 c 0,1.38071 -1.11929,2.5 -2.5,2.5 -1.38071,0 -2.5,-1.11929 -2.5,-2.5 0,-1.38071 1.11929,-2.5 2.5,-2.5 1.38071,0 2.5,1.11929 2.5,2.5 z"
           transform="matrix(0.5,0,0,0.5,168.75,134.93109)" />
        <path
           sodipodi:type="arc"
           style="fill:#aaaaaa;fill-opacity:1;fill-rule:nonzero;stroke:none"
           id="path2989-82-25"
           sodipodi:cx="302.5"
           sodipodi:cy="154.86218"
           sodipodi:rx="2.5"
           sodipodi:ry="2.5"
           d="m 305,154.86218 c 0,1.38071 -1.11929,2.5 -2.5,2.5 -1.38071,0 -2.5,-1.11929 -2.5,-2.5 0,-1.38071 1.11929,-2.5 2.5,-2.5 1.38071,0 2.5,1.11929 2.5,2.5 z"
           transform="matrix(0.5,0,0,0.5,178.75,134.93109)" />
        <path
           sodipodi:type="arc"
           style="fill:#aaaaaa;fill-opacity:1;fill-rule:nonzero;stroke:none"
           id="path2989-9-46"
           sodipodi:cx="302.5"
           sodipodi:cy="154.86218"
           sodipodi:rx="2.5"
           sodipodi:ry="2.5"
           d="m 305,154.86218 c 0,1.38071 -1.11929,2.5 -2.5,2.5 -1.38071,0 -2.5,-1.11929 -2.5,-2.5 0,-1.38071 1.11929,-2.5 2.5,-2.5 1.38071,0 2.5,1.11929 2.5,2.5 z"
           transform="matrix(0.5,0,0,0.5,188.75,134.93109)" />
        <path
           sodipodi:type="arc"
           style="fill:#aaaaaa;fill-opacity:1;fill-rule:nonzero;stroke:none"
           id="path2989-0-31"
           sodipodi:cx="302.5"
           sodipodi:cy="154.86218"
           sodipodi:rx="2.5"
           sodipodi:ry="2.5"
           d="m 305,154.86218 c 0,1.38071 -1.11929,2.5 -2.5,2.5 -1.38071,0 -2.5,-1.11929 -2.5,-2.5 0,-1.38071 1.11929,-2.5 2.5,-2.5 1.38071,0 2.5,1.11929 2.5,2.5 z"
           transform="matrix(0.5,0,0,0.5,198.75,134.93109)" />
        <path
           sodipodi:type="arc"
           style="fill:#aaaaaa;fill-opacity:1;fill-rule:nonzero;stroke:none"
           id="path2989-3-6"
           sodipodi:cx="302.5"
           sodipodi:cy="154.86218"
           sodipodi:rx="2.5"
           sodipodi:ry="2.5"
           d="m 305,154.86218 c 0,1.38071 -1.11929,2.5 -2.5,2.5 -1.38071,0 -2.5,-1.11929 -2.5,-2.5 0,-1.38071 1.11929,-2.5 2.5,-2.5 1.38071,0 2.5,1.11929 2.5,2.5 z"
           transform="matrix(0.5,0,0,0.5,208.75,134.93109)" />
      </g>
      <path
         sodipodi:type="star"
         style="fill:#ff0000;fill-opacity:1;fill-rule:nonzero;stroke:none"
         id="path4080"
         sodipodi:sides="5"
         sodipodi:cx="285"
         sodipodi:cy="167.36218"
         sodipodi:r1="2"
         sodipodi:r2="1"
         sodipodi:arg1="-1.5707963"
         sodipodi:arg2="-0.9424778"
         inkscape:flatsided="false"
         inkscape:rounded="0"
         inkscape:randomized="0"
         d="m 285,165.36218 0.58779,1.19099 1.31432,0.19098 -0.95105,0.92705 0.22451,1.30902 -1.17557,-0.61804 -1.17557,0.61804 0.22451,-1.30902 -0.95105,-0.92705 1.31432,-0.19098 z"
         inkscape:transform-center-y="-0.12505531"
         transform="matrix(1.4908664,0.1652793,-0.1652793,1.4908664,-67.269481,-114.19455)"
         inkscape:transform-center-x="-0.06809849" />
    </g>
  </g>
</svg>
