<?xml version="1.0" encoding="UTF-8" standalone="no"?>
<!-- Created with Inkscape (http://www.inkscape.org/) -->

<svg
   xmlns:dc="http://purl.org/dc/elements/1.1/"
   xmlns:cc="http://creativecommons.org/ns#"
   xmlns:rdf="http://www.w3.org/1999/02/22-rdf-syntax-ns#"
   xmlns:svg="http://www.w3.org/2000/svg"
   xmlns="http://www.w3.org/2000/svg"
   xmlns:sodipodi="http://sodipodi.sourceforge.net/DTD/sodipodi-0.dtd"
   xmlns:inkscape="http://www.inkscape.org/namespaces/inkscape"
   width="744.09448819"
   height="1052.3622047"
   id="svg5607"
   version="1.1"
   inkscape:version="0.48.4 r9939"
   sodipodi:docname="2DDMA_theta04_c.svg">
  <defs
     id="defs5609" />
  <sodipodi:namedview
     id="base"
     pagecolor="#ffffff"
     bordercolor="#666666"
     borderopacity="1.0"
     inkscape:pageopacity="0.0"
     inkscape:pageshadow="2"
     inkscape:zoom="11.2"
     inkscape:cx="356.92764"
     inkscape:cy="520.79794"
     inkscape:document-units="px"
     inkscape:current-layer="layer1"
     showgrid="false"
     inkscape:window-width="1912"
     inkscape:window-height="1155"
     inkscape:window-x="0"
     inkscape:window-y="220"
     inkscape:window-maximized="0" />
  <metadata
     id="metadata5612">
    <rdf:RDF>
      <cc:Work
         rdf:about="">
        <dc:format>image/svg+xml</dc:format>
        <dc:type
           rdf:resource="http://purl.org/dc/dcmitype/StillImage" />
        <dc:title></dc:title>
      </cc:Work>
    </rdf:RDF>
  </metadata>
  <g
     inkscape:label="Layer 1"
     inkscape:groupmode="layer"
     id="layer1">
    <rect
       style="fill:none;stroke:#000000;stroke-width:1;stroke-linejoin:round;stroke-miterlimit:4;stroke-opacity:1;stroke-dasharray:none;stroke-dashoffset:0"
       id="rect4018"
       width="30"
       height="30"
       x="370"
       y="507.36218" />
    <path
       transform="matrix(0.5,0,0,0.5,223.75,434.93109)"
       d="m 305,154.86218 a 2.5,2.5 0 1 1 -5,0 2.5,2.5 0 1 1 5,0 z"
       sodipodi:ry="2.5"
       sodipodi:rx="2.5"
       sodipodi:cy="154.86218"
       sodipodi:cx="302.5"
       id="path2989-82-9-9"
       style="fill:#000000;fill-opacity:1;fill-rule:nonzero;stroke:none"
       sodipodi:type="arc" />
    <path
       transform="matrix(0.5,0,0,0.5,233.75,434.93109)"
       d="m 305,154.86218 a 2.5,2.5 0 1 1 -5,0 2.5,2.5 0 1 1 5,0 z"
       sodipodi:ry="2.5"
       sodipodi:rx="2.5"
       sodipodi:cy="154.86218"
       sodipodi:cx="302.5"
       id="path2989-9-8-1"
       style="fill:#000000;fill-opacity:1;fill-rule:nonzero;stroke:none"
       sodipodi:type="arc" />
    <path
       transform="matrix(0.5,0,0,0.5,243.75,434.93109)"
       d="m 305,154.86218 a 2.5,2.5 0 1 1 -5,0 2.5,2.5 0 1 1 5,0 z"
       sodipodi:ry="2.5"
       sodipodi:rx="2.5"
       sodipodi:cy="154.86218"
       sodipodi:cx="302.5"
       id="path2989-0-7-3"
       style="fill:#000000;fill-opacity:1;fill-rule:nonzero;stroke:none"
       sodipodi:type="arc" />
    <path
       transform="matrix(0.5,0,0,0.5,223.75,444.93109)"
       d="m 305,154.86218 a 2.5,2.5 0 1 1 -5,0 2.5,2.5 0 1 1 5,0 z"
       sodipodi:ry="2.5"
       sodipodi:rx="2.5"
       sodipodi:cy="154.86218"
       sodipodi:cx="302.5"
       id="path2989-82-2-9"
       style="fill:#000000;fill-opacity:1;fill-rule:nonzero;stroke:none"
       sodipodi:type="arc" />
    <path
       transform="matrix(0.5,0,0,0.5,233.75,444.93109)"
       d="m 305,154.86218 a 2.5,2.5 0 1 1 -5,0 2.5,2.5 0 1 1 5,0 z"
       sodipodi:ry="2.5"
       sodipodi:rx="2.5"
       sodipodi:cy="154.86218"
       sodipodi:cx="302.5"
       id="path2989-9-1-7"
       style="fill:#000000;fill-opacity:1;fill-rule:nonzero;stroke:none"
       sodipodi:type="arc" />
    <path
       transform="matrix(0.5,0,0,0.5,243.75,444.93109)"
       d="m 305,154.86218 a 2.5,2.5 0 1 1 -5,0 2.5,2.5 0 1 1 5,0 z"
       sodipodi:ry="2.5"
       sodipodi:rx="2.5"
       sodipodi:cy="154.86218"
       sodipodi:cx="302.5"
       id="path2989-0-2-8"
       style="fill:#000000;fill-opacity:1;fill-rule:nonzero;stroke:none"
       sodipodi:type="arc" />
    <path
       transform="matrix(0.5,0,0,0.5,233.75,454.93109)"
       d="m 305,154.86218 a 2.5,2.5 0 1 1 -5,0 2.5,2.5 0 1 1 5,0 z"
       sodipodi:ry="2.5"
       sodipodi:rx="2.5"
       sodipodi:cy="154.86218"
       sodipodi:cx="302.5"
       id="path2989-9-87-15"
       style="fill:#000000;fill-opacity:1;fill-rule:nonzero;stroke:none"
       sodipodi:type="arc" />
    <path
       transform="matrix(0.5,0,0,0.5,243.75,454.93109)"
       d="m 305,154.86218 a 2.5,2.5 0 1 1 -5,0 2.5,2.5 0 1 1 5,0 z"
       sodipodi:ry="2.5"
       sodipodi:rx="2.5"
       sodipodi:cy="154.86218"
       sodipodi:cx="302.5"
       id="path2989-0-8-1"
       style="fill:#000000;fill-opacity:1;fill-rule:nonzero;stroke:none"
       sodipodi:type="arc" />
    <g
       transform="translate(45,350)"
       id="g4870">
      <path
         sodipodi:type="arc"
         style="fill:#aaaaaa;fill-opacity:1;fill-rule:nonzero;stroke:none"
         id="path2989-65"
         sodipodi:cx="302.5"
         sodipodi:cy="154.86218"
         sodipodi:rx="2.5"
         sodipodi:ry="2.5"
         d="m 305,154.86218 c 0,1.38071 -1.11929,2.5 -2.5,2.5 -1.38071,0 -2.5,-1.11929 -2.5,-2.5 0,-1.38071 1.11929,-2.5 2.5,-2.5 1.38071,0 2.5,1.11929 2.5,2.5 z"
         transform="matrix(0.5,0,0,0.5,148.75,74.931091)" />
      <path
         sodipodi:type="arc"
         style="fill:#aaaaaa;fill-opacity:1;fill-rule:nonzero;stroke:none"
         id="path2989-8-83"
         sodipodi:cx="302.5"
         sodipodi:cy="154.86218"
         sodipodi:rx="2.5"
         sodipodi:ry="2.5"
         d="m 305,154.86218 c 0,1.38071 -1.11929,2.5 -2.5,2.5 -1.38071,0 -2.5,-1.11929 -2.5,-2.5 0,-1.38071 1.11929,-2.5 2.5,-2.5 1.38071,0 2.5,1.11929 2.5,2.5 z"
         transform="matrix(0.5,0,0,0.5,158.75,74.931091)" />
      <path
         sodipodi:type="arc"
         style="fill:#aaaaaa;fill-opacity:1;fill-rule:nonzero;stroke:none"
         id="path2989-5-88"
         sodipodi:cx="302.5"
         sodipodi:cy="154.86218"
         sodipodi:rx="2.5"
         sodipodi:ry="2.5"
         d="m 305,154.86218 c 0,1.38071 -1.11929,2.5 -2.5,2.5 -1.38071,0 -2.5,-1.11929 -2.5,-2.5 0,-1.38071 1.11929,-2.5 2.5,-2.5 1.38071,0 2.5,1.11929 2.5,2.5 z"
         transform="matrix(0.5,0,0,0.5,168.75,74.931091)" />
      <path
         sodipodi:type="arc"
         style="fill:#aaaaaa;fill-opacity:1;fill-rule:nonzero;stroke:none"
         id="path2989-82-8"
         sodipodi:cx="302.5"
         sodipodi:cy="154.86218"
         sodipodi:rx="2.5"
         sodipodi:ry="2.5"
         d="m 305,154.86218 c 0,1.38071 -1.11929,2.5 -2.5,2.5 -1.38071,0 -2.5,-1.11929 -2.5,-2.5 0,-1.38071 1.11929,-2.5 2.5,-2.5 1.38071,0 2.5,1.11929 2.5,2.5 z"
         transform="matrix(0.5,0,0,0.5,178.75,74.931091)" />
      <path
         sodipodi:type="arc"
         style="fill:#aaaaaa;fill-opacity:1;fill-rule:nonzero;stroke:none"
         id="path2989-9-7"
         sodipodi:cx="302.5"
         sodipodi:cy="154.86218"
         sodipodi:rx="2.5"
         sodipodi:ry="2.5"
         d="m 305,154.86218 c 0,1.38071 -1.11929,2.5 -2.5,2.5 -1.38071,0 -2.5,-1.11929 -2.5,-2.5 0,-1.38071 1.11929,-2.5 2.5,-2.5 1.38071,0 2.5,1.11929 2.5,2.5 z"
         transform="matrix(0.5,0,0,0.5,188.75,74.931091)" />
      <path
         sodipodi:type="arc"
         style="fill:#aaaaaa;fill-opacity:1;fill-rule:nonzero;stroke:none"
         id="path2989-0-63"
         sodipodi:cx="302.5"
         sodipodi:cy="154.86218"
         sodipodi:rx="2.5"
         sodipodi:ry="2.5"
         d="m 305,154.86218 c 0,1.38071 -1.11929,2.5 -2.5,2.5 -1.38071,0 -2.5,-1.11929 -2.5,-2.5 0,-1.38071 1.11929,-2.5 2.5,-2.5 1.38071,0 2.5,1.11929 2.5,2.5 z"
         transform="matrix(0.5,0,0,0.5,198.75,74.931091)" />
      <path
         sodipodi:type="arc"
         style="fill:#aaaaaa;fill-opacity:1;fill-rule:nonzero;stroke:none"
         id="path2989-3-42"
         sodipodi:cx="302.5"
         sodipodi:cy="154.86218"
         sodipodi:rx="2.5"
         sodipodi:ry="2.5"
         d="m 305,154.86218 c 0,1.38071 -1.11929,2.5 -2.5,2.5 -1.38071,0 -2.5,-1.11929 -2.5,-2.5 0,-1.38071 1.11929,-2.5 2.5,-2.5 1.38071,0 2.5,1.11929 2.5,2.5 z"
         transform="matrix(0.5,0,0,0.5,208.75,74.931091)" />
      <path
         sodipodi:type="arc"
         style="fill:#aaaaaa;fill-opacity:1;fill-rule:nonzero;stroke:none"
         id="path2989-2-4"
         sodipodi:cx="302.5"
         sodipodi:cy="154.86218"
         sodipodi:rx="2.5"
         sodipodi:ry="2.5"
         d="m 305,154.86218 c 0,1.38071 -1.11929,2.5 -2.5,2.5 -1.38071,0 -2.5,-1.11929 -2.5,-2.5 0,-1.38071 1.11929,-2.5 2.5,-2.5 1.38071,0 2.5,1.11929 2.5,2.5 z"
         transform="matrix(0.5,0,0,0.5,148.75,84.931091)" />
      <path
         sodipodi:type="arc"
         style="fill:#aaaaaa;fill-opacity:1;fill-rule:nonzero;stroke:none"
         id="path2989-8-3-2"
         sodipodi:cx="302.5"
         sodipodi:cy="154.86218"
         sodipodi:rx="2.5"
         sodipodi:ry="2.5"
         d="m 305,154.86218 c 0,1.38071 -1.11929,2.5 -2.5,2.5 -1.38071,0 -2.5,-1.11929 -2.5,-2.5 0,-1.38071 1.11929,-2.5 2.5,-2.5 1.38071,0 2.5,1.11929 2.5,2.5 z"
         transform="matrix(0.5,0,0,0.5,158.75,84.931091)" />
      <path
         sodipodi:type="arc"
         style="fill:#aaaaaa;fill-opacity:1;fill-rule:nonzero;stroke:none"
         id="path2989-5-4-2"
         sodipodi:cx="302.5"
         sodipodi:cy="154.86218"
         sodipodi:rx="2.5"
         sodipodi:ry="2.5"
         d="m 305,154.86218 c 0,1.38071 -1.11929,2.5 -2.5,2.5 -1.38071,0 -2.5,-1.11929 -2.5,-2.5 0,-1.38071 1.11929,-2.5 2.5,-2.5 1.38071,0 2.5,1.11929 2.5,2.5 z"
         transform="matrix(0.5,0,0,0.5,168.75,84.931091)" />
      <path
         sodipodi:type="arc"
         style="fill:#aaaaaa;fill-opacity:1;fill-rule:nonzero;stroke:none"
         id="path2989-3-0-4"
         sodipodi:cx="302.5"
         sodipodi:cy="154.86218"
         sodipodi:rx="2.5"
         sodipodi:ry="2.5"
         d="m 305,154.86218 c 0,1.38071 -1.11929,2.5 -2.5,2.5 -1.38071,0 -2.5,-1.11929 -2.5,-2.5 0,-1.38071 1.11929,-2.5 2.5,-2.5 1.38071,0 2.5,1.11929 2.5,2.5 z"
         transform="matrix(0.5,0,0,0.5,208.75,84.931091)" />
      <path
         sodipodi:type="arc"
         style="fill:#aaaaaa;fill-opacity:1;fill-rule:nonzero;stroke:none"
         id="path2989-53-5"
         sodipodi:cx="302.5"
         sodipodi:cy="154.86218"
         sodipodi:rx="2.5"
         sodipodi:ry="2.5"
         d="m 305,154.86218 c 0,1.38071 -1.11929,2.5 -2.5,2.5 -1.38071,0 -2.5,-1.11929 -2.5,-2.5 0,-1.38071 1.11929,-2.5 2.5,-2.5 1.38071,0 2.5,1.11929 2.5,2.5 z"
         transform="matrix(0.5,0,0,0.5,148.75,94.931091)" />
      <path
         sodipodi:type="arc"
         style="fill:#aaaaaa;fill-opacity:1;fill-rule:nonzero;stroke:none"
         id="path2989-8-2-2"
         sodipodi:cx="302.5"
         sodipodi:cy="154.86218"
         sodipodi:rx="2.5"
         sodipodi:ry="2.5"
         d="m 305,154.86218 c 0,1.38071 -1.11929,2.5 -2.5,2.5 -1.38071,0 -2.5,-1.11929 -2.5,-2.5 0,-1.38071 1.11929,-2.5 2.5,-2.5 1.38071,0 2.5,1.11929 2.5,2.5 z"
         transform="matrix(0.5,0,0,0.5,158.75,94.931091)" />
      <path
         sodipodi:type="arc"
         style="fill:#aaaaaa;fill-opacity:1;fill-rule:nonzero;stroke:none"
         id="path2989-5-7-4"
         sodipodi:cx="302.5"
         sodipodi:cy="154.86218"
         sodipodi:rx="2.5"
         sodipodi:ry="2.5"
         d="m 305,154.86218 c 0,1.38071 -1.11929,2.5 -2.5,2.5 -1.38071,0 -2.5,-1.11929 -2.5,-2.5 0,-1.38071 1.11929,-2.5 2.5,-2.5 1.38071,0 2.5,1.11929 2.5,2.5 z"
         transform="matrix(0.5,0,0,0.5,168.75,94.931091)" />
      <path
         sodipodi:type="arc"
         style="fill:#aaaaaa;fill-opacity:1;fill-rule:nonzero;stroke:none"
         id="path2989-3-4-3"
         sodipodi:cx="302.5"
         sodipodi:cy="154.86218"
         sodipodi:rx="2.5"
         sodipodi:ry="2.5"
         d="m 305,154.86218 c 0,1.38071 -1.11929,2.5 -2.5,2.5 -1.38071,0 -2.5,-1.11929 -2.5,-2.5 0,-1.38071 1.11929,-2.5 2.5,-2.5 1.38071,0 2.5,1.11929 2.5,2.5 z"
         transform="matrix(0.5,0,0,0.5,208.75,94.931091)" />
      <path
         sodipodi:type="arc"
         style="fill:#aaaaaa;fill-opacity:1;fill-rule:nonzero;stroke:none"
         id="path2989-1-1"
         sodipodi:cx="302.5"
         sodipodi:cy="154.86218"
         sodipodi:rx="2.5"
         sodipodi:ry="2.5"
         d="m 305,154.86218 c 0,1.38071 -1.11929,2.5 -2.5,2.5 -1.38071,0 -2.5,-1.11929 -2.5,-2.5 0,-1.38071 1.11929,-2.5 2.5,-2.5 1.38071,0 2.5,1.11929 2.5,2.5 z"
         transform="matrix(0.5,0,0,0.5,148.75,104.93109)" />
      <path
         sodipodi:type="arc"
         style="fill:#aaaaaa;fill-opacity:1;fill-rule:nonzero;stroke:none"
         id="path2989-8-7-8"
         sodipodi:cx="302.5"
         sodipodi:cy="154.86218"
         sodipodi:rx="2.5"
         sodipodi:ry="2.5"
         d="m 305,154.86218 c 0,1.38071 -1.11929,2.5 -2.5,2.5 -1.38071,0 -2.5,-1.11929 -2.5,-2.5 0,-1.38071 1.11929,-2.5 2.5,-2.5 1.38071,0 2.5,1.11929 2.5,2.5 z"
         transform="matrix(0.5,0,0,0.5,158.75,104.93109)" />
      <path
         sodipodi:type="arc"
         style="fill:#aaaaaa;fill-opacity:1;fill-rule:nonzero;stroke:none"
         id="path2989-5-46-5"
         sodipodi:cx="302.5"
         sodipodi:cy="154.86218"
         sodipodi:rx="2.5"
         sodipodi:ry="2.5"
         d="m 305,154.86218 c 0,1.38071 -1.11929,2.5 -2.5,2.5 -1.38071,0 -2.5,-1.11929 -2.5,-2.5 0,-1.38071 1.11929,-2.5 2.5,-2.5 1.38071,0 2.5,1.11929 2.5,2.5 z"
         transform="matrix(0.5,0,0,0.5,168.75,104.93109)" />
      <path
         sodipodi:type="arc"
         style="fill:#aaaaaa;fill-opacity:1;fill-rule:nonzero;stroke:none"
         id="path2989-3-3-6"
         sodipodi:cx="302.5"
         sodipodi:cy="154.86218"
         sodipodi:rx="2.5"
         sodipodi:ry="2.5"
         d="m 305,154.86218 c 0,1.38071 -1.11929,2.5 -2.5,2.5 -1.38071,0 -2.5,-1.11929 -2.5,-2.5 0,-1.38071 1.11929,-2.5 2.5,-2.5 1.38071,0 2.5,1.11929 2.5,2.5 z"
         transform="matrix(0.5,0,0,0.5,208.75,104.93109)" />
      <path
         sodipodi:type="arc"
         style="fill:#aaaaaa;fill-opacity:1;fill-rule:nonzero;stroke:none"
         id="path2989-4-3"
         sodipodi:cx="302.5"
         sodipodi:cy="154.86218"
         sodipodi:rx="2.5"
         sodipodi:ry="2.5"
         d="m 305,154.86218 c 0,1.38071 -1.11929,2.5 -2.5,2.5 -1.38071,0 -2.5,-1.11929 -2.5,-2.5 0,-1.38071 1.11929,-2.5 2.5,-2.5 1.38071,0 2.5,1.11929 2.5,2.5 z"
         transform="matrix(0.5,0,0,0.5,148.75,114.93109)" />
      <path
         sodipodi:type="arc"
         style="fill:#aaaaaa;fill-opacity:1;fill-rule:nonzero;stroke:none"
         id="path2989-8-20-6"
         sodipodi:cx="302.5"
         sodipodi:cy="154.86218"
         sodipodi:rx="2.5"
         sodipodi:ry="2.5"
         d="m 305,154.86218 c 0,1.38071 -1.11929,2.5 -2.5,2.5 -1.38071,0 -2.5,-1.11929 -2.5,-2.5 0,-1.38071 1.11929,-2.5 2.5,-2.5 1.38071,0 2.5,1.11929 2.5,2.5 z"
         transform="matrix(0.5,0,0,0.5,158.75,114.93109)" />
      <path
         sodipodi:type="arc"
         style="fill:#aaaaaa;fill-opacity:1;fill-rule:nonzero;stroke:none"
         id="path2989-5-1-6"
         sodipodi:cx="302.5"
         sodipodi:cy="154.86218"
         sodipodi:rx="2.5"
         sodipodi:ry="2.5"
         d="m 305,154.86218 c 0,1.38071 -1.11929,2.5 -2.5,2.5 -1.38071,0 -2.5,-1.11929 -2.5,-2.5 0,-1.38071 1.11929,-2.5 2.5,-2.5 1.38071,0 2.5,1.11929 2.5,2.5 z"
         transform="matrix(0.5,0,0,0.5,168.75,114.93109)" />
      <path
         sodipodi:type="arc"
         style="fill:#aaaaaa;fill-opacity:1;fill-rule:nonzero;stroke:none"
         id="path2989-82-4-4"
         sodipodi:cx="302.5"
         sodipodi:cy="154.86218"
         sodipodi:rx="2.5"
         sodipodi:ry="2.5"
         d="m 305,154.86218 c 0,1.38071 -1.11929,2.5 -2.5,2.5 -1.38071,0 -2.5,-1.11929 -2.5,-2.5 0,-1.38071 1.11929,-2.5 2.5,-2.5 1.38071,0 2.5,1.11929 2.5,2.5 z"
         transform="matrix(0.5,0,0,0.5,178.75,114.93109)" />
      <path
         sodipodi:type="arc"
         style="fill:#aaaaaa;fill-opacity:1;fill-rule:nonzero;stroke:none"
         id="path2989-9-4-6"
         sodipodi:cx="302.5"
         sodipodi:cy="154.86218"
         sodipodi:rx="2.5"
         sodipodi:ry="2.5"
         d="m 305,154.86218 c 0,1.38071 -1.11929,2.5 -2.5,2.5 -1.38071,0 -2.5,-1.11929 -2.5,-2.5 0,-1.38071 1.11929,-2.5 2.5,-2.5 1.38071,0 2.5,1.11929 2.5,2.5 z"
         transform="matrix(0.5,0,0,0.5,188.75,114.93109)" />
      <path
         sodipodi:type="arc"
         style="fill:#aaaaaa;fill-opacity:1;fill-rule:nonzero;stroke:none"
         id="path2989-0-6-3"
         sodipodi:cx="302.5"
         sodipodi:cy="154.86218"
         sodipodi:rx="2.5"
         sodipodi:ry="2.5"
         d="m 305,154.86218 c 0,1.38071 -1.11929,2.5 -2.5,2.5 -1.38071,0 -2.5,-1.11929 -2.5,-2.5 0,-1.38071 1.11929,-2.5 2.5,-2.5 1.38071,0 2.5,1.11929 2.5,2.5 z"
         transform="matrix(0.5,0,0,0.5,198.75,114.93109)" />
      <path
         sodipodi:type="arc"
         style="fill:#aaaaaa;fill-opacity:1;fill-rule:nonzero;stroke:none"
         id="path2989-3-8-0"
         sodipodi:cx="302.5"
         sodipodi:cy="154.86218"
         sodipodi:rx="2.5"
         sodipodi:ry="2.5"
         d="m 305,154.86218 c 0,1.38071 -1.11929,2.5 -2.5,2.5 -1.38071,0 -2.5,-1.11929 -2.5,-2.5 0,-1.38071 1.11929,-2.5 2.5,-2.5 1.38071,0 2.5,1.11929 2.5,2.5 z"
         transform="matrix(0.5,0,0,0.5,208.75,114.93109)" />
      <path
         sodipodi:type="arc"
         style="fill:#aaaaaa;fill-opacity:1;fill-rule:nonzero;stroke:none"
         id="path2989-91-1"
         sodipodi:cx="302.5"
         sodipodi:cy="154.86218"
         sodipodi:rx="2.5"
         sodipodi:ry="2.5"
         d="m 305,154.86218 c 0,1.38071 -1.11929,2.5 -2.5,2.5 -1.38071,0 -2.5,-1.11929 -2.5,-2.5 0,-1.38071 1.11929,-2.5 2.5,-2.5 1.38071,0 2.5,1.11929 2.5,2.5 z"
         transform="matrix(0.5,0,0,0.5,148.75,124.93109)" />
      <path
         sodipodi:type="arc"
         style="fill:#aaaaaa;fill-opacity:1;fill-rule:nonzero;stroke:none"
         id="path2989-8-78-7"
         sodipodi:cx="302.5"
         sodipodi:cy="154.86218"
         sodipodi:rx="2.5"
         sodipodi:ry="2.5"
         d="m 305,154.86218 c 0,1.38071 -1.11929,2.5 -2.5,2.5 -1.38071,0 -2.5,-1.11929 -2.5,-2.5 0,-1.38071 1.11929,-2.5 2.5,-2.5 1.38071,0 2.5,1.11929 2.5,2.5 z"
         transform="matrix(0.5,0,0,0.5,158.75,124.93109)" />
      <path
         sodipodi:type="arc"
         style="fill:#aaaaaa;fill-opacity:1;fill-rule:nonzero;stroke:none"
         id="path2989-5-8-4"
         sodipodi:cx="302.5"
         sodipodi:cy="154.86218"
         sodipodi:rx="2.5"
         sodipodi:ry="2.5"
         d="m 305,154.86218 c 0,1.38071 -1.11929,2.5 -2.5,2.5 -1.38071,0 -2.5,-1.11929 -2.5,-2.5 0,-1.38071 1.11929,-2.5 2.5,-2.5 1.38071,0 2.5,1.11929 2.5,2.5 z"
         transform="matrix(0.5,0,0,0.5,168.75,124.93109)" />
      <path
         sodipodi:type="arc"
         style="fill:#aaaaaa;fill-opacity:1;fill-rule:nonzero;stroke:none"
         id="path2989-82-93-7"
         sodipodi:cx="302.5"
         sodipodi:cy="154.86218"
         sodipodi:rx="2.5"
         sodipodi:ry="2.5"
         d="m 305,154.86218 c 0,1.38071 -1.11929,2.5 -2.5,2.5 -1.38071,0 -2.5,-1.11929 -2.5,-2.5 0,-1.38071 1.11929,-2.5 2.5,-2.5 1.38071,0 2.5,1.11929 2.5,2.5 z"
         transform="matrix(0.5,0,0,0.5,178.75,124.93109)" />
      <path
         sodipodi:type="arc"
         style="fill:#aaaaaa;fill-opacity:1;fill-rule:nonzero;stroke:none"
         id="path2989-9-2-0"
         sodipodi:cx="302.5"
         sodipodi:cy="154.86218"
         sodipodi:rx="2.5"
         sodipodi:ry="2.5"
         d="m 305,154.86218 c 0,1.38071 -1.11929,2.5 -2.5,2.5 -1.38071,0 -2.5,-1.11929 -2.5,-2.5 0,-1.38071 1.11929,-2.5 2.5,-2.5 1.38071,0 2.5,1.11929 2.5,2.5 z"
         transform="matrix(0.5,0,0,0.5,188.75,124.93109)" />
      <path
         sodipodi:type="arc"
         style="fill:#aaaaaa;fill-opacity:1;fill-rule:nonzero;stroke:none"
         id="path2989-0-3-66"
         sodipodi:cx="302.5"
         sodipodi:cy="154.86218"
         sodipodi:rx="2.5"
         sodipodi:ry="2.5"
         d="m 305,154.86218 c 0,1.38071 -1.11929,2.5 -2.5,2.5 -1.38071,0 -2.5,-1.11929 -2.5,-2.5 0,-1.38071 1.11929,-2.5 2.5,-2.5 1.38071,0 2.5,1.11929 2.5,2.5 z"
         transform="matrix(0.5,0,0,0.5,198.75,124.93109)" />
      <path
         sodipodi:type="arc"
         style="fill:#aaaaaa;fill-opacity:1;fill-rule:nonzero;stroke:none"
         id="path2989-3-2-3"
         sodipodi:cx="302.5"
         sodipodi:cy="154.86218"
         sodipodi:rx="2.5"
         sodipodi:ry="2.5"
         d="m 305,154.86218 c 0,1.38071 -1.11929,2.5 -2.5,2.5 -1.38071,0 -2.5,-1.11929 -2.5,-2.5 0,-1.38071 1.11929,-2.5 2.5,-2.5 1.38071,0 2.5,1.11929 2.5,2.5 z"
         transform="matrix(0.5,0,0,0.5,208.75,124.93109)" />
      <path
         sodipodi:type="arc"
         style="fill:#aaaaaa;fill-opacity:1;fill-rule:nonzero;stroke:none"
         id="path2989-6-1"
         sodipodi:cx="302.5"
         sodipodi:cy="154.86218"
         sodipodi:rx="2.5"
         sodipodi:ry="2.5"
         d="m 305,154.86218 c 0,1.38071 -1.11929,2.5 -2.5,2.5 -1.38071,0 -2.5,-1.11929 -2.5,-2.5 0,-1.38071 1.11929,-2.5 2.5,-2.5 1.38071,0 2.5,1.11929 2.5,2.5 z"
         transform="matrix(0.5,0,0,0.5,148.75,134.93109)" />
      <path
         sodipodi:type="arc"
         style="fill:#aaaaaa;fill-opacity:1;fill-rule:nonzero;stroke:none"
         id="path2989-8-4-1"
         sodipodi:cx="302.5"
         sodipodi:cy="154.86218"
         sodipodi:rx="2.5"
         sodipodi:ry="2.5"
         d="m 305,154.86218 c 0,1.38071 -1.11929,2.5 -2.5,2.5 -1.38071,0 -2.5,-1.11929 -2.5,-2.5 0,-1.38071 1.11929,-2.5 2.5,-2.5 1.38071,0 2.5,1.11929 2.5,2.5 z"
         transform="matrix(0.5,0,0,0.5,158.75,134.93109)" />
      <path
         sodipodi:type="arc"
         style="fill:#aaaaaa;fill-opacity:1;fill-rule:nonzero;stroke:none"
         id="path2989-5-5-9"
         sodipodi:cx="302.5"
         sodipodi:cy="154.86218"
         sodipodi:rx="2.5"
         sodipodi:ry="2.5"
         d="m 305,154.86218 c 0,1.38071 -1.11929,2.5 -2.5,2.5 -1.38071,0 -2.5,-1.11929 -2.5,-2.5 0,-1.38071 1.11929,-2.5 2.5,-2.5 1.38071,0 2.5,1.11929 2.5,2.5 z"
         transform="matrix(0.5,0,0,0.5,168.75,134.93109)" />
      <path
         sodipodi:type="arc"
         style="fill:#aaaaaa;fill-opacity:1;fill-rule:nonzero;stroke:none"
         id="path2989-82-25-6"
         sodipodi:cx="302.5"
         sodipodi:cy="154.86218"
         sodipodi:rx="2.5"
         sodipodi:ry="2.5"
         d="m 305,154.86218 c 0,1.38071 -1.11929,2.5 -2.5,2.5 -1.38071,0 -2.5,-1.11929 -2.5,-2.5 0,-1.38071 1.11929,-2.5 2.5,-2.5 1.38071,0 2.5,1.11929 2.5,2.5 z"
         transform="matrix(0.5,0,0,0.5,178.75,134.93109)" />
      <path
         sodipodi:type="arc"
         style="fill:#aaaaaa;fill-opacity:1;fill-rule:nonzero;stroke:none"
         id="path2989-9-46-5"
         sodipodi:cx="302.5"
         sodipodi:cy="154.86218"
         sodipodi:rx="2.5"
         sodipodi:ry="2.5"
         d="m 305,154.86218 c 0,1.38071 -1.11929,2.5 -2.5,2.5 -1.38071,0 -2.5,-1.11929 -2.5,-2.5 0,-1.38071 1.11929,-2.5 2.5,-2.5 1.38071,0 2.5,1.11929 2.5,2.5 z"
         transform="matrix(0.5,0,0,0.5,188.75,134.93109)" />
      <path
         sodipodi:type="arc"
         style="fill:#aaaaaa;fill-opacity:1;fill-rule:nonzero;stroke:none"
         id="path2989-0-31-8"
         sodipodi:cx="302.5"
         sodipodi:cy="154.86218"
         sodipodi:rx="2.5"
         sodipodi:ry="2.5"
         d="m 305,154.86218 c 0,1.38071 -1.11929,2.5 -2.5,2.5 -1.38071,0 -2.5,-1.11929 -2.5,-2.5 0,-1.38071 1.11929,-2.5 2.5,-2.5 1.38071,0 2.5,1.11929 2.5,2.5 z"
         transform="matrix(0.5,0,0,0.5,198.75,134.93109)" />
      <path
         sodipodi:type="arc"
         style="fill:#aaaaaa;fill-opacity:1;fill-rule:nonzero;stroke:none"
         id="path2989-3-6-3"
         sodipodi:cx="302.5"
         sodipodi:cy="154.86218"
         sodipodi:rx="2.5"
         sodipodi:ry="2.5"
         d="m 305,154.86218 c 0,1.38071 -1.11929,2.5 -2.5,2.5 -1.38071,0 -2.5,-1.11929 -2.5,-2.5 0,-1.38071 1.11929,-2.5 2.5,-2.5 1.38071,0 2.5,1.11929 2.5,2.5 z"
         transform="matrix(0.5,0,0,0.5,208.75,134.93109)" />
    </g>
    <path
       sodipodi:type="star"
       style="fill:#ff0000;fill-opacity:1;fill-rule:nonzero;stroke:none"
       id="path4080-6"
       sodipodi:sides="5"
       sodipodi:cx="285"
       sodipodi:cy="167.36218"
       sodipodi:r1="2"
       sodipodi:r2="1"
       sodipodi:arg1="-1.5707963"
       sodipodi:arg2="-0.9424778"
       inkscape:flatsided="false"
       inkscape:rounded="0"
       inkscape:randomized="0"
       d="m 285,165.36218 0.58779,1.19099 1.31432,0.19098 -0.95105,0.92705 0.22451,1.30902 -1.17557,-0.61804 -1.17557,0.61804 0.22451,-1.30902 -0.95105,-0.92705 1.31432,-0.19098 z"
       inkscape:transform-center-y="-0.12505531"
       transform="matrix(1.4908664,0.1652793,-0.1652793,1.4908664,-22.26948,235.80545)"
       inkscape:transform-center-x="-0.06809849" />
  </g>
</svg>
