<?xml version="1.0" encoding="utf-8" standalone="no"?>
<!DOCTYPE svg PUBLIC "-//W3C//DTD SVG 1.1//EN"
  "http://www.w3.org/Graphics/SVG/1.1/DTD/svg11.dtd">
<!-- Created with matplotlib (http://matplotlib.org/) -->
<svg height="280pt" version="1.1" viewBox="0 0 350 280" width="350pt" xmlns="http://www.w3.org/2000/svg" xmlns:xlink="http://www.w3.org/1999/xlink">
 <defs>
  <style type="text/css">
*{stroke-linecap:butt;stroke-linejoin:round;}
  </style>
 </defs>
 <g id="figure_1">
  <g id="patch_1">
   <path d="
M0 280.757
L350.807 280.757
L350.807 0
L0 0
z
" style="fill:#ffffff;"/>
  </g>
  <g id="axes_1">
   <g id="patch_2">
    <path d="
M43.6069 242.1
L181.045 242.1
L181.045 136.734
L43.6069 136.734
z
" style="fill:#ffffff;"/>
   </g>
   <g id="line2d_1">
    <path clip-path="url(#p1da52e16e8)" d="
M43.6069 189.417
L44.9813 185.529
L46.3556 180.594
L47.73 183.96
L49.1044 184.376
L50.4788 186.431
L51.8532 188.019
L53.2276 186.303
L54.6019 185.821
L55.9763 187.177
L57.3507 188.76
L58.7251 187.707
L60.0995 186.578
L61.4739 189.075
L62.8483 182.611
L64.2226 181.648
L65.597 180.058
L66.9714 179.594
L68.3458 180.375
L69.7202 181.104
L71.0946 177.446
L72.4689 179.163
L73.8433 183.888
L75.2177 179.93
L76.5921 178.337
L77.9665 181.93
L79.3409 187.271
L80.7152 182.287
L82.0896 188.52
L83.464 185.921
L84.8384 185.989
L86.2128 191.983
L87.5872 192.54
L88.9616 196.039
L90.3359 194.658
L91.7103 193.426
L93.0847 192.025
L94.4591 195.492
L95.8335 192.073
L97.2079 194.645
L98.5822 194.507
L99.9566 193.856
L101.331 194.257
L102.705 195.819
L104.08 195.837
L105.454 197.104
L106.829 198.199
L108.203 197.375
L109.577 202.485
L110.952 204.186
L112.326 205.78
L113.7 206.764
L115.075 208.658
L116.449 206.494
L117.824 204.923
L119.198 199.747
L120.572 203.233
L121.947 205.472
L123.321 205.231
L124.696 202.904
L126.07 201.252
L127.444 202.578
L128.819 204.297
L130.193 202.012
L131.567 198.768
L132.942 200.03
L134.316 200.017
L135.691 200.098
L137.065 193.996
L138.439 193.192
L139.814 193.18
L141.188 192.71
L142.563 193.445
L143.937 195.151
L145.311 191.996
L146.686 193.107
L148.06 190.265
L149.434 190.261
L150.809 187.592
L152.183 185.949
L153.558 189.101
L154.932 191.419
L156.306 191.47
L157.681 190.012
L159.055 185.439
L160.43 187.321
L161.804 185.9
L163.178 182.867
L164.553 184.218
L165.927 186.219
L167.301 181.713
L168.676 181.615
L170.05 183.173
L171.425 183.065
L172.799 181.664
L174.173 180.747
L175.548 181.831
L176.922 185.958
L178.297 187.913
L179.671 187.124" style="fill:none;stroke:#0000ff;stroke-linecap:square;"/>
   </g>
   <g id="line2d_2">
    <path clip-path="url(#p1da52e16e8)" d="
M43.6069 189.417
L44.9813 186.346
L46.3556 185.392
L47.73 185.272
L49.1044 185.256
L50.4788 189.478
L51.8532 188.306
L53.2276 190.228
L54.6019 189.904
L55.9763 190.145
L57.3507 188.798
L58.7251 188.017
L60.0995 185.687
L61.4739 185.691
L62.8483 183.402
L64.2226 183.656
L65.597 181.97
L66.9714 183.944
L68.3458 181.478
L69.7202 179.053
L71.0946 181.052
L72.4689 186.343
L73.8433 183.318
L75.2177 184.606
L76.5921 187.916
L77.9665 190.519
L79.3409 190.361
L80.7152 192.199
L82.0896 192.078
L83.464 196.552
L84.8384 196.84
L86.2128 193.502
L87.5872 192.326
L88.9616 194.665
L90.3359 198.304
L91.7103 196.215
L93.0847 192.465
L94.4591 185.479
L95.8335 183.696
L97.2079 184.981
L98.5822 183.176
L99.9566 183.813
L101.331 185.581
L102.705 186.944
L104.08 181.099
L105.454 188.249
L106.829 188.212
L108.203 189.599
L109.577 188.135
L110.952 182.356
L112.326 186.023
L113.7 188.807
L115.075 189.826
L116.449 190.73
L117.824 191.243
L119.198 190.952
L120.572 187.697
L121.947 187.057
L123.321 185.383
L124.696 180.084
L126.07 183.578
L127.444 186.127
L128.819 186.685
L130.193 187.212
L131.567 184.388
L132.942 182.316
L134.316 182.518
L135.691 183.81
L137.065 184.733
L138.439 183.758
L139.814 179.821
L141.188 177.207
L142.563 177.767
L143.937 176.467
L145.311 176.243
L146.686 177.381
L148.06 175.273
L149.434 174.176
L150.809 178.651
L152.183 181.303
L153.558 181.336
L154.932 181.799
L156.306 185.94
L157.681 184.442
L159.055 190.681
L160.43 187.41
L161.804 192.123
L163.178 186.444
L164.553 187.89
L165.927 190.065
L167.301 191.948
L168.676 195.335
L170.05 189.715
L171.425 184.704
L172.799 185.451
L174.173 184.437
L175.548 184.208
L176.922 186.04
L178.297 185.544
L179.671 187.087" style="fill:none;stroke:#008000;stroke-linecap:square;"/>
   </g>
   <g id="line2d_3">
    <path clip-path="url(#p1da52e16e8)" d="
M43.6069 189.417
L44.9813 188.733
L46.3556 190.159
L47.73 189.921
L49.1044 186.758
L50.4788 186.936
L51.8532 189.704
L53.2276 188.36
L54.6019 186.681
L55.9763 188.227
L57.3507 197.373
L58.7251 197.013
L60.0995 198.163
L61.4739 206.167
L62.8483 203.691
L64.2226 206.252
L65.597 204.132
L66.9714 200.061
L68.3458 198.003
L69.7202 198.762
L71.0946 191.721
L72.4689 192.127
L73.8433 192.574
L75.2177 198.177
L76.5921 198.544
L77.9665 195.503
L79.3409 195.643
L80.7152 195.074
L82.0896 190.565
L83.464 188.024
L84.8384 186.702
L86.2128 191.522
L87.5872 188.854
L88.9616 190.037
L90.3359 191.915
L91.7103 195.165
L93.0847 198.763
L94.4591 198.216
L95.8335 193.761
L97.2079 189.754
L98.5822 191.917
L99.9566 185.81
L101.331 187.018
L102.705 191.722
L104.08 190.47
L105.454 189.158
L106.829 189.742
L108.203 190.595
L109.577 193.489
L110.952 193.673
L112.326 194.173
L113.7 196.555
L115.075 198.144
L116.449 197.156
L117.824 193.846
L119.198 192.138
L120.572 189.977
L121.947 193.212
L123.321 193.129
L124.696 190.15
L126.07 190.07
L127.444 192.85
L128.819 189.839
L130.193 192.428
L131.567 194.877
L132.942 196.212
L134.316 196.332
L135.691 198.885
L137.065 195.938
L138.439 196.823
L139.814 190.791
L141.188 190.074
L142.563 188.824
L143.937 184.597
L145.311 181.864
L146.686 182.892
L148.06 185.307
L149.434 184.61
L150.809 183.237
L152.183 186.356
L153.558 186.786
L154.932 189.356
L156.306 188.821
L157.681 188.198
L159.055 181.824
L160.43 189.765
L161.804 194.184
L163.178 193.732
L164.553 195.505
L165.927 191.009
L167.301 198.579
L168.676 197.786
L170.05 201.301
L171.425 206.898
L172.799 198.156
L174.173 196.83
L175.548 196.152
L176.922 198.582
L178.297 202.868
L179.671 200.263" style="fill:none;stroke:#ff0000;stroke-linecap:square;"/>
   </g>
   <g id="line2d_4">
    <path clip-path="url(#p1da52e16e8)" d="
M43.6069 189.417
L44.9813 188.933
L46.3556 195.277
L47.73 195.02
L49.1044 195.585
L50.4788 196.148
L51.8532 195.067
L53.2276 199.424
L54.6019 198.678
L55.9763 198.635
L57.3507 200.1
L58.7251 197.335
L60.0995 200.939
L61.4739 202.78
L62.8483 203.066
L64.2226 198.734
L65.597 200.488
L66.9714 200.732
L68.3458 199.851
L69.7202 202.206
L71.0946 200.647
L72.4689 203.561
L73.8433 205.183
L75.2177 204.737
L76.5921 204.755
L77.9665 203.041
L79.3409 204.175
L80.7152 207.151
L82.0896 202.638
L83.464 201.505
L84.8384 197.334
L86.2128 197.831
L87.5872 195.075
L88.9616 195.204
L90.3359 190.847
L91.7103 190.202
L93.0847 192.026
L94.4591 190.46
L95.8335 190.816
L97.2079 192.582
L98.5822 188.059
L99.9566 185.511
L101.331 185.077
L102.705 183.709
L104.08 185.341
L105.454 184.736
L106.829 181.297
L108.203 182.374
L109.577 179.047
L110.952 173.016
L112.326 174.607
L113.7 172.521
L115.075 172.896
L116.449 176.133
L117.824 177.477
L119.198 177.481
L120.572 181.995
L121.947 182.494
L123.321 179.831
L124.696 178.12
L126.07 173.865
L127.444 176.5
L128.819 175.807
L130.193 173.837
L131.567 174.573
L132.942 177.832
L134.316 173.842
L135.691 173.829
L137.065 171.517
L138.439 171.435
L139.814 172.202
L141.188 169.347
L142.563 170.694
L143.937 177.714
L145.311 181.404
L146.686 181.925
L148.06 184.858
L149.434 187.57
L150.809 188.841
L152.183 190.027
L153.558 192.044
L154.932 192.884
L156.306 192.918
L157.681 191.707
L159.055 194.125
L160.43 193.035
L161.804 196.195
L163.178 195.654
L164.553 198.491
L165.927 196.412
L167.301 196.866
L168.676 198.047
L170.05 194.481
L171.425 191.698
L172.799 187.299
L174.173 188.476
L175.548 192.553
L176.922 193.493
L178.297 195.721
L179.671 199.808" style="fill:none;stroke:#00bfbf;stroke-linecap:square;"/>
   </g>
   <g id="matplotlib.axis_1">
    <g id="xtick_1">
     <g id="line2d_5">
      <defs>
       <path d="
M0 0
L0 -4" id="m93b0483c22" style="stroke:#000000;stroke-width:0.5;"/>
      </defs>
      <g>
       <use style="stroke:#000000;stroke-width:0.5;" x="77.9664809113" xlink:href="#m93b0483c22" y="242.1"/>
      </g>
     </g>
     <g id="line2d_6">
      <defs>
       <path d="
M0 0
L0 4" id="m741efc42ff" style="stroke:#000000;stroke-width:0.5;"/>
      </defs>
      <g>
       <use style="stroke:#000000;stroke-width:0.5;" x="77.9664809113" xlink:href="#m741efc42ff" y="136.734146341"/>
      </g>
     </g>
     <g id="text_1">
      <text style="font-family:DejaVu Sans;font-size:12.0px;font-style:normal;text-anchor:middle;" transform="rotate(-0.000000, 77.966481, 255.218125)" x="77.9664809113" y="255.218125">25</text>
     </g>
    </g>
    <g id="xtick_2">
     <g id="line2d_7">
      <g>
       <use style="stroke:#000000;stroke-width:0.5;" x="112.326086823" xlink:href="#m93b0483c22" y="242.1"/>
      </g>
     </g>
     <g id="line2d_8">
      <g>
       <use style="stroke:#000000;stroke-width:0.5;" x="112.326086823" xlink:href="#m741efc42ff" y="136.734146341"/>
      </g>
     </g>
     <g id="text_2">
      <text style="font-family:DejaVu Sans;font-size:12.0px;font-style:normal;text-anchor:middle;" transform="rotate(-0.000000, 112.326087, 255.218125)" x="112.326086823" y="255.218125">50</text>
     </g>
    </g>
    <g id="xtick_3">
     <g id="line2d_9">
      <g>
       <use style="stroke:#000000;stroke-width:0.5;" x="146.685692734" xlink:href="#m93b0483c22" y="242.1"/>
      </g>
     </g>
     <g id="line2d_10">
      <g>
       <use style="stroke:#000000;stroke-width:0.5;" x="146.685692734" xlink:href="#m741efc42ff" y="136.734146341"/>
      </g>
     </g>
     <g id="text_3">
      <text style="font-family:DejaVu Sans;font-size:12.0px;font-style:normal;text-anchor:middle;" transform="rotate(-0.000000, 146.685693, 255.218125)" x="146.685692734" y="255.218125">75</text>
     </g>
    </g>
   </g>
   <g id="matplotlib.axis_2">
    <g id="ytick_1">
     <g id="line2d_11">
      <defs>
       <path d="
M0 0
L4 0" id="m728421d6d4" style="stroke:#000000;stroke-width:0.5;"/>
      </defs>
      <g>
       <use style="stroke:#000000;stroke-width:0.5;" x="43.606875" xlink:href="#m728421d6d4" y="232.718108921"/>
      </g>
     </g>
     <g id="line2d_12">
      <defs>
       <path d="
M0 0
L-4 0" id="mcb0005524f" style="stroke:#000000;stroke-width:0.5;"/>
      </defs>
      <g>
       <use style="stroke:#000000;stroke-width:0.5;" x="181.045298645" xlink:href="#mcb0005524f" y="232.718108921"/>
      </g>
     </g>
     <g id="text_4">
      <text style="font-family:DejaVu Sans;font-size:12.0px;font-style:normal;text-anchor:end;" transform="rotate(-0.000000, 39.606875, 236.029359)" x="39.606875" y="236.029358921">−6</text>
     </g>
    </g>
    <g id="ytick_2">
     <g id="line2d_13">
      <g>
       <use style="stroke:#000000;stroke-width:0.5;" x="43.606875" xlink:href="#m728421d6d4" y="211.067591046"/>
      </g>
     </g>
     <g id="line2d_14">
      <g>
       <use style="stroke:#000000;stroke-width:0.5;" x="181.045298645" xlink:href="#mcb0005524f" y="211.067591046"/>
      </g>
     </g>
     <g id="text_5">
      <text style="font-family:DejaVu Sans;font-size:12.0px;font-style:normal;text-anchor:end;" transform="rotate(-0.000000, 39.606875, 214.378841)" x="39.606875" y="214.378841046">−3</text>
     </g>
    </g>
    <g id="ytick_3">
     <g id="line2d_15">
      <g>
       <use style="stroke:#000000;stroke-width:0.5;" x="43.606875" xlink:href="#m728421d6d4" y="189.417073171"/>
      </g>
     </g>
     <g id="line2d_16">
      <g>
       <use style="stroke:#000000;stroke-width:0.5;" x="181.045298645" xlink:href="#mcb0005524f" y="189.417073171"/>
      </g>
     </g>
     <g id="text_6">
      <text style="font-family:DejaVu Sans;font-size:12.0px;font-style:normal;text-anchor:end;" transform="rotate(-0.000000, 39.606875, 192.728323)" x="39.606875" y="192.728323171">0</text>
     </g>
    </g>
    <g id="ytick_4">
     <g id="line2d_17">
      <g>
       <use style="stroke:#000000;stroke-width:0.5;" x="43.606875" xlink:href="#m728421d6d4" y="167.766555296"/>
      </g>
     </g>
     <g id="line2d_18">
      <g>
       <use style="stroke:#000000;stroke-width:0.5;" x="181.045298645" xlink:href="#mcb0005524f" y="167.766555296"/>
      </g>
     </g>
     <g id="text_7">
      <text style="font-family:DejaVu Sans;font-size:12.0px;font-style:normal;text-anchor:end;" transform="rotate(-0.000000, 39.606875, 171.077805)" x="39.606875" y="171.077805296">3</text>
     </g>
    </g>
    <g id="ytick_5">
     <g id="line2d_19">
      <g>
       <use style="stroke:#000000;stroke-width:0.5;" x="43.606875" xlink:href="#m728421d6d4" y="146.116037421"/>
      </g>
     </g>
     <g id="line2d_20">
      <g>
       <use style="stroke:#000000;stroke-width:0.5;" x="181.045298645" xlink:href="#mcb0005524f" y="146.116037421"/>
      </g>
     </g>
     <g id="text_8">
      <text style="font-family:DejaVu Sans;font-size:12.0px;font-style:normal;text-anchor:end;" transform="rotate(-0.000000, 39.606875, 149.427287)" x="39.606875" y="149.427287421">6</text>
     </g>
    </g>
   </g>
   <g id="patch_3">
    <path d="
M43.6069 136.734
L181.045 136.734" style="fill:none;stroke:#000000;"/>
   </g>
   <g id="patch_4">
    <path d="
M181.045 242.1
L181.045 136.734" style="fill:none;stroke:#000000;"/>
   </g>
   <g id="patch_5">
    <path d="
M43.6069 242.1
L181.045 242.1" style="fill:none;stroke:#000000;"/>
   </g>
   <g id="patch_6">
    <path d="
M43.6069 242.1
L43.6069 136.734" style="fill:none;stroke:#000000;"/>
   </g>
   <g id="patch_7">
    <path d="
M52.0069 236.1
L109.436 236.1
Q111.836 236.1 111.836 233.7
L111.836 217.286
Q111.836 214.886 109.436 214.886
L52.0069 214.886
Q49.6069 214.886 49.6069 217.286
L49.6069 233.7
Q49.6069 236.1 52.0069 236.1
z
" style="fill:#ffffff;stroke:#000000;"/>
   </g>
   <g id="text_9">
    <text style="font-family:DejaVu Sans;font-size:12.0px;font-style:normal;text-anchor:start;" transform="rotate(-0.000000, 54.406875, 228.804375)" x="54.406875" y="228.804375">H = 0.50</text>
   </g>
  </g>
  <g id="axes_2">
   <g id="patch_8">
    <path d="
M185.168 242.1
L322.607 242.1
L322.607 136.734
L185.168 136.734
z
" style="fill:#ffffff;"/>
   </g>
   <g id="line2d_21">
    <path clip-path="url(#p387ec442d2)" d="
M185.168 174.365
L186.543 174.294
L187.917 174.278
L189.292 173.862
L190.666 173.21
L192.04 172.715
L193.415 172.1
L194.789 171.718
L196.164 171.366
L197.538 171.129
L198.912 171.29
L200.287 171.309
L201.661 170.948
L203.035 170.579
L204.41 170.61
L205.784 170.526
L207.159 170.42
L208.533 170.414
L209.907 170.585
L211.282 170.51
L212.656 170.464
L214.031 170.198
L215.405 169.724
L216.779 169.316
L218.154 168.949
L219.528 168.467
L220.902 168.178
L222.277 167.845
L223.651 168.029
L225.026 168.194
L226.4 168.285
L227.774 168.637
L229.149 168.51
L230.523 168.275
L231.898 167.997
L233.272 167.389
L234.646 166.756
L236.021 166.337
L237.395 165.857
L238.769 165.488
L240.144 165.538
L241.518 165.352
L242.893 165.481
L244.267 165.276
L245.641 165.034
L247.016 164.814
L248.39 165.12
L249.765 165.353
L251.139 165.119
L252.513 164.771
L253.888 164.775
L255.262 164.679
L256.636 164.457
L258.011 164.394
L259.385 164.105
L260.76 163.799
L262.134 163.401
L263.508 162.929
L264.883 162.644
L266.257 162.5
L267.632 162.457
L269.006 162.407
L270.38 161.932
L271.755 161.431
L273.129 161.307
L274.503 161.249
L275.878 161.364
L277.252 161.362
L278.627 161.103
L280.001 160.949
L281.375 160.541
L282.75 160.183
L284.124 160.098
L285.499 159.899
L286.873 160.009
L288.247 159.746
L289.622 159.454
L290.996 159.002
L292.37 158.674
L293.745 158.467
L295.119 158.527
L296.494 158.625
L297.868 158.843
L299.242 158.961
L300.617 158.734
L301.991 158.505
L303.365 158.145
L304.74 157.692
L306.114 157.727
L307.489 157.225
L308.863 156.363
L310.237 155.581
L311.612 154.898
L312.986 154.658
L314.361 154.017
L315.735 153.648
L317.109 153.174
L318.484 152.193
L319.858 151.3
L321.232 150.407" style="fill:none;stroke:#0000ff;stroke-linecap:square;"/>
   </g>
   <g id="line2d_22">
    <path clip-path="url(#p387ec442d2)" d="
M185.168 174.365
L186.543 174.147
L187.917 173.98
L189.292 173.635
L190.666 173.107
L192.04 172.911
L193.415 172.465
L194.789 172.196
L196.164 171.831
L197.538 171.087
L198.912 170.443
L200.287 170.082
L201.661 169.552
L203.035 168.859
L204.41 168.148
L205.784 167.434
L207.159 166.644
L208.533 166.23
L209.907 166.097
L211.282 165.469
L212.656 165.252
L214.031 164.677
L215.405 164.088
L216.779 163.93
L218.154 164.033
L219.528 163.982
L220.902 163.739
L222.277 163.467
L223.651 162.756
L225.026 162.191
L226.4 161.842
L227.774 161.579
L229.149 161.04
L230.523 160.725
L231.898 161.084
L233.272 161.362
L234.646 161.617
L236.021 161.58
L237.395 161.613
L238.769 161.599
L240.144 161.428
L241.518 161.608
L242.893 161.704
L244.267 161.718
L245.641 161.651
L247.016 161.577
L248.39 161.449
L249.765 161.046
L251.139 160.894
L252.513 160.854
L253.888 160.649
L255.262 160.296
L256.636 160.059
L258.011 159.912
L259.385 159.698
L260.76 159.736
L262.134 159.893
L263.508 159.667
L264.883 159.298
L266.257 159.002
L267.632 158.863
L269.006 158.668
L270.38 158.499
L271.755 158.478
L273.129 157.977
L274.503 157.349
L275.878 156.752
L277.252 156.125
L278.627 155.554
L280.001 155.383
L281.375 155.07
L282.75 155.103
L284.124 155.389
L285.499 155.471
L286.873 155.462
L288.247 155.17
L289.622 155.008
L290.996 155.122
L292.37 155.229
L293.745 155.282
L295.119 154.908
L296.494 154.557
L297.868 153.918
L299.242 153.114
L300.617 152.607
L301.991 152.347
L303.365 152.104
L304.74 151.499
L306.114 150.849
L307.489 150.101
L308.863 149.365
L310.237 148.71
L311.612 148.328
L312.986 147.983
L314.361 147.517
L315.735 147.41
L317.109 147.068
L318.484 146.507
L319.858 145.605
L321.232 145.125" style="fill:none;stroke:#008000;stroke-linecap:square;"/>
   </g>
   <g id="line2d_23">
    <path clip-path="url(#p387ec442d2)" d="
M185.168 174.365
L186.543 174.443
L187.917 174.895
L189.292 175.475
L190.666 176.091
L192.04 176.646
L193.415 177.018
L194.789 177.561
L196.164 177.794
L197.538 178.354
L198.912 179.11
L200.287 179.603
L201.661 180.328
L203.035 181.139
L204.41 181.608
L205.784 182.206
L207.159 182.491
L208.533 182.842
L209.907 183.439
L211.282 184.247
L212.656 184.52
L214.031 185.054
L215.405 185.714
L216.779 186.093
L218.154 186.606
L219.528 187.09
L220.902 187.633
L222.277 188.634
L223.651 189.676
L225.026 190.9
L226.4 192.173
L227.774 193.164
L229.149 194.1
L230.523 195.156
L231.898 196.178
L233.272 196.801
L234.646 197.391
L236.021 198.122
L237.395 198.722
L238.769 199.9
L240.144 200.788
L241.518 201.511
L242.893 202.263
L244.267 202.967
L245.641 203.565
L247.016 204.306
L248.39 204.895
L249.765 205.663
L251.139 206.593
L252.513 207.473
L253.888 207.973
L255.262 208.648
L256.636 209.383
L258.011 210.12
L259.385 210.8
L260.76 211.328
L262.134 211.802
L263.508 212.225
L264.883 212.456
L266.257 213.114
L267.632 213.897
L269.006 214.229
L270.38 214.833
L271.755 215.533
L273.129 216.344
L274.503 216.903
L275.878 217.254
L277.252 217.68
L278.627 218.377
L280.001 218.964
L281.375 219.549
L282.75 219.843
L284.124 220.264
L285.499 220.574
L286.873 221.124
L288.247 221.887
L289.622 222.701
L290.996 223.452
L292.37 224.301
L293.745 224.824
L295.119 225.24
L296.494 225.668
L297.868 226.184
L299.242 226.451
L300.617 227.106
L301.991 227.937
L303.365 228.543
L304.74 229.24
L306.114 229.864
L307.489 230.329
L308.863 230.737
L310.237 231.156
L311.612 231.859
L312.986 232.552
L314.361 233.511
L315.735 234.41
L317.109 235.195
L318.484 236.097
L319.858 236.7
L321.232 237.585" style="fill:none;stroke:#ff0000;stroke-linecap:square;"/>
   </g>
   <g id="line2d_24">
    <path clip-path="url(#p387ec442d2)" d="
M185.168 174.365
L186.543 174.585
L187.917 174.896
L189.292 175.205
L190.666 175.436
L192.04 175.544
L193.415 175.612
L194.789 175.878
L196.164 176.192
L197.538 176.475
L198.912 176.755
L200.287 176.867
L201.661 176.885
L203.035 177.269
L204.41 177.217
L205.784 177.62
L207.159 177.651
L208.533 177.957
L209.907 178.472
L211.282 178.77
L212.656 178.91
L214.031 179.16
L215.405 179.713
L216.779 180.609
L218.154 181.183
L219.528 181.818
L220.902 182.445
L222.277 183.11
L223.651 183.597
L225.026 183.949
L226.4 184.105
L227.774 184.427
L229.149 184.924
L230.523 185.306
L231.898 185.528
L233.272 186.01
L234.646 186.54
L236.021 186.911
L237.395 187.603
L238.769 188.015
L240.144 188.407
L241.518 188.856
L242.893 189.382
L244.267 189.719
L245.641 189.938
L247.016 190.071
L248.39 190.133
L249.765 190.371
L251.139 190.534
L252.513 190.704
L253.888 190.911
L255.262 191.024
L256.636 191.382
L258.011 191.651
L259.385 191.543
L260.76 191.742
L262.134 192.199
L263.508 192.541
L264.883 193.448
L266.257 194.198
L267.632 194.453
L269.006 194.869
L270.38 195.24
L271.755 195.748
L273.129 196.476
L274.503 197.116
L275.878 197.913
L277.252 198.863
L278.627 199.581
L280.001 200.125
L281.375 200.896
L282.75 201.276
L284.124 201.653
L285.499 202.156
L286.873 203.016
L288.247 203.941
L289.622 204.585
L290.996 205.136
L292.37 205.459
L293.745 205.789
L295.119 205.955
L296.494 206.207
L297.868 206.378
L299.242 206.667
L300.617 207.152
L301.991 207.232
L303.365 207.636
L304.74 208.036
L306.114 208.629
L307.489 209.241
L308.863 209.77
L310.237 210.182
L311.612 210.745
L312.986 211.385
L314.361 211.818
L315.735 212.452
L317.109 213.539
L318.484 214.12
L319.858 214.269
L321.232 214.472" style="fill:none;stroke:#00bfbf;stroke-linecap:square;"/>
   </g>
   <g id="matplotlib.axis_3">
    <g id="xtick_4">
     <g id="line2d_25">
      <g>
       <use style="stroke:#000000;stroke-width:0.5;" x="219.528057266" xlink:href="#m93b0483c22" y="242.1"/>
      </g>
     </g>
     <g id="line2d_26">
      <g>
       <use style="stroke:#000000;stroke-width:0.5;" x="219.528057266" xlink:href="#m741efc42ff" y="136.734146341"/>
      </g>
     </g>
     <g id="text_10">
      <text style="font-family:DejaVu Sans;font-size:12.0px;font-style:normal;text-anchor:middle;" transform="rotate(-0.000000, 219.528057, 255.218125)" x="219.528057266" y="255.218125">25</text>
     </g>
    </g>
    <g id="xtick_5">
     <g id="line2d_27">
      <g>
       <use style="stroke:#000000;stroke-width:0.5;" x="253.887663177" xlink:href="#m93b0483c22" y="242.1"/>
      </g>
     </g>
     <g id="line2d_28">
      <g>
       <use style="stroke:#000000;stroke-width:0.5;" x="253.887663177" xlink:href="#m741efc42ff" y="136.734146341"/>
      </g>
     </g>
     <g id="text_11">
      <text style="font-family:DejaVu Sans;font-size:12.0px;font-style:normal;text-anchor:middle;" transform="rotate(-0.000000, 253.887663, 255.218125)" x="253.887663177" y="255.218125">50</text>
     </g>
    </g>
    <g id="xtick_6">
     <g id="line2d_29">
      <g>
       <use style="stroke:#000000;stroke-width:0.5;" x="288.247269089" xlink:href="#m93b0483c22" y="242.1"/>
      </g>
     </g>
     <g id="line2d_30">
      <g>
       <use style="stroke:#000000;stroke-width:0.5;" x="288.247269089" xlink:href="#m741efc42ff" y="136.734146341"/>
      </g>
     </g>
     <g id="text_12">
      <text style="font-family:DejaVu Sans;font-size:12.0px;font-style:normal;text-anchor:middle;" transform="rotate(-0.000000, 288.247269, 255.218125)" x="288.247269089" y="255.218125">75</text>
     </g>
    </g>
   </g>
   <g id="matplotlib.axis_4">
    <g id="ytick_6">
     <g id="line2d_31">
      <g>
       <use style="stroke:#000000;stroke-width:0.5;" x="185.168451355" xlink:href="#m728421d6d4" y="234.573867596"/>
      </g>
     </g>
     <g id="line2d_32">
      <g>
       <use style="stroke:#000000;stroke-width:0.5;" x="322.606875" xlink:href="#mcb0005524f" y="234.573867596"/>
      </g>
     </g>
     <g id="text_13">
      <text style="font-family:DejaVu Sans;font-size:12.0px;font-style:normal;text-anchor:end;" transform="rotate(-0.000000, 343.606875, 237.885118)" x="343.606875" y="237.885117596">-40</text>
     </g>
    </g>
    <g id="ytick_7">
     <g id="line2d_33">
      <g>
       <use style="stroke:#000000;stroke-width:0.5;" x="185.168451355" xlink:href="#m728421d6d4" y="204.469337979"/>
      </g>
     </g>
     <g id="line2d_34">
      <g>
       <use style="stroke:#000000;stroke-width:0.5;" x="322.606875" xlink:href="#mcb0005524f" y="204.469337979"/>
      </g>
     </g>
     <g id="text_14">
      <text style="font-family:DejaVu Sans;font-size:12.0px;font-style:normal;text-anchor:end;" transform="rotate(-0.000000, 343.606875, 207.780588)" x="343.606875" y="207.780587979">-20</text>
     </g>
    </g>
    <g id="ytick_8">
     <g id="line2d_35">
      <g>
       <use style="stroke:#000000;stroke-width:0.5;" x="185.168451355" xlink:href="#m728421d6d4" y="174.364808362"/>
      </g>
     </g>
     <g id="line2d_36">
      <g>
       <use style="stroke:#000000;stroke-width:0.5;" x="322.606875" xlink:href="#mcb0005524f" y="174.364808362"/>
      </g>
     </g>
     <g id="text_15">
      <text style="font-family:DejaVu Sans;font-size:12.0px;font-style:normal;text-anchor:end;" transform="rotate(-0.000000, 343.606875, 177.676058)" x="343.606875" y="177.676058362">0</text>
     </g>
    </g>
    <g id="ytick_9">
     <g id="line2d_37">
      <g>
       <use style="stroke:#000000;stroke-width:0.5;" x="185.168451355" xlink:href="#m728421d6d4" y="144.260278746"/>
      </g>
     </g>
     <g id="line2d_38">
      <g>
       <use style="stroke:#000000;stroke-width:0.5;" x="322.606875" xlink:href="#mcb0005524f" y="144.260278746"/>
      </g>
     </g>
     <g id="text_16">
      <text style="font-family:DejaVu Sans;font-size:12.0px;font-style:normal;text-anchor:end;" transform="rotate(-0.000000, 343.606875, 147.571529)" x="343.606875" y="147.571528746">20</text>
     </g>
    </g>
   </g>
   <g id="patch_9">
    <path d="
M185.168 136.734
L322.607 136.734" style="fill:none;stroke:#000000;"/>
   </g>
   <g id="patch_10">
    <path d="
M322.607 242.1
L322.607 136.734" style="fill:none;stroke:#000000;"/>
   </g>
   <g id="patch_11">
    <path d="
M185.168 242.1
L322.607 242.1" style="fill:none;stroke:#000000;"/>
   </g>
   <g id="patch_12">
    <path d="
M185.168 242.1
L185.168 136.734" style="fill:none;stroke:#000000;"/>
   </g>
   <g id="patch_13">
    <path d="
M193.568 236.1
L250.998 236.1
Q253.398 236.1 253.398 233.7
L253.398 217.286
Q253.398 214.886 250.998 214.886
L193.568 214.886
Q191.168 214.886 191.168 217.286
L191.168 233.7
Q191.168 236.1 193.568 236.1
z
" style="fill:#ffffff;stroke:#000000;"/>
   </g>
   <g id="text_17">
    <text style="font-family:DejaVu Sans;font-size:12.0px;font-style:normal;text-anchor:start;" transform="rotate(-0.000000, 195.968451, 228.804375)" x="195.968451355" y="228.804375">H = 1.00</text>
   </g>
  </g>
  <g id="axes_3">
   <g id="patch_14">
    <path d="
M43.6069 131.466
L181.045 131.466
L181.045 26.1
L43.6069 26.1
z
" style="fill:#ffffff;"/>
   </g>
   <g id="line2d_39">
    <path clip-path="url(#p1392a0c368)" d="
M43.6069 93.8352
L44.9813 76.2703
L46.3556 82.1124
L47.73 92.1821
L49.1044 82.6696
L50.4788 62.2612
L51.8532 62.5737
L53.2276 91.2679
L54.6019 78.7887
L55.9763 60.2829
L57.3507 88.2671
L58.7251 80.1858
L60.0995 78.7929
L61.4739 86.6802
L62.8483 84.8775
L64.2226 97.6552
L65.597 77.1287
L66.9714 83.8629
L68.3458 63.9143
L69.7202 66.0979
L71.0946 73.476
L72.4689 87.8374
L73.8433 80.1404
L75.2177 75.4261
L76.5921 103.467
L77.9665 87.3519
L79.3409 91.4535
L80.7152 78.1405
L82.0896 78.2716
L83.464 82.2309
L84.8384 79.0178
L86.2128 93.6746
L87.5872 78.9477
L88.9616 84.0872
L90.3359 92.9044
L91.7103 80.8537
L93.0847 82.0472
L94.4591 91.1516
L95.8335 93.8703
L97.2079 92.8349
L98.5822 110.011
L99.9566 89.9782
L101.331 81.3966
L102.705 84.9426
L104.08 94.5762
L105.454 88.3622
L106.829 60.4696
L108.203 81.061
L109.577 93.5953
L110.952 87.7876
L112.326 84.9593
L113.7 103.222
L115.075 85.9179
L116.449 67.4219
L117.824 74.4382
L119.198 73.3205
L120.572 95.5442
L121.947 91.0806
L123.321 76.5997
L124.696 89.087
L126.07 108.692
L127.444 96.9314
L128.819 86.0251
L130.193 88.5151
L131.567 95.2242
L132.942 86.5104
L134.316 95.1528
L135.691 86.2072
L137.065 82.6328
L138.439 84.5577
L139.814 84.5875
L141.188 94.1219
L142.563 91.0114
L143.937 73.4793
L145.311 78.8217
L146.686 73.3786
L148.06 62.5996
L149.434 77.8354
L150.809 74.2024
L152.183 84.7545
L153.558 76.9849
L154.932 76.6545
L156.306 72.6316
L157.681 73.221
L159.055 95.2982
L160.43 93.1201
L161.804 94.033
L163.178 76.3568
L164.553 99.3844
L165.927 89.296
L167.301 82.0554
L168.676 82.7901
L170.05 76.6162
L171.425 80.4079
L172.799 82.0018
L174.173 90.2174
L175.548 91.8974
L176.922 83.0602
L178.297 73.6599
L179.671 88.7365" style="fill:none;stroke:#0000ff;stroke-linecap:square;"/>
   </g>
   <g id="line2d_40">
    <path clip-path="url(#p1392a0c368)" d="
M43.6069 93.8352
L44.9813 113.764
L46.3556 117.853
L47.73 102.867
L49.1044 93.787
L50.4788 99.6384
L51.8532 104.076
L53.2276 92.6172
L54.6019 96.4213
L55.9763 103.03
L57.3507 82.8155
L58.7251 80.3831
L60.0995 99.0775
L61.4739 103.756
L62.8483 97.4484
L64.2226 96.4298
L65.597 98.3089
L66.9714 103.277
L68.3458 114.78
L69.7202 91.6122
L71.0946 77.6242
L72.4689 107.409
L73.8433 93.3562
L75.2177 108.328
L76.5921 103.233
L77.9665 95.1184
L79.3409 112.491
L80.7152 109.968
L82.0896 116.273
L83.464 101.525
L84.8384 105.056
L86.2128 102.45
L87.5872 106.808
L88.9616 88.1245
L90.3359 103.17
L91.7103 120.336
L93.0847 98.5737
L94.4591 98.2922
L95.8335 90.1604
L97.2079 88.5061
L98.5822 84.3406
L99.9566 92.5525
L101.331 116.495
L102.705 111.772
L104.08 113.195
L105.454 105.736
L106.829 98.0437
L108.203 105.276
L109.577 102.673
L110.952 111.273
L112.326 101.189
L113.7 106.667
L115.075 114.851
L116.449 107.449
L117.824 94.7118
L119.198 101.995
L120.572 102.571
L121.947 106.9
L123.321 108.935
L124.696 99.422
L126.07 110.617
L127.444 108.851
L128.819 101.959
L130.193 96.1575
L131.567 92.0652
L132.942 91.5559
L134.316 111.747
L135.691 89.5469
L137.065 101.723
L138.439 102.638
L139.814 110.442
L141.188 110.816
L142.563 114.451
L143.937 106.125
L145.311 91.4627
L146.686 103.955
L148.06 99.271
L149.434 113.178
L150.809 103.715
L152.183 95.1853
L153.558 93.781
L154.932 92.9225
L156.306 87.2691
L157.681 90.554
L159.055 97.8696
L160.43 99.0998
L161.804 92.1139
L163.178 87.5623
L164.553 96.7015
L165.927 70.0434
L167.301 65.2114
L168.676 94.9642
L170.05 91.9063
L171.425 98.2849
L172.799 84.4491
L174.173 70.4094
L175.548 84.8831
L176.922 89.6745
L178.297 92.9354
L179.671 101.427" style="fill:none;stroke:#008000;stroke-linecap:square;"/>
   </g>
   <g id="line2d_41">
    <path clip-path="url(#p1392a0c368)" d="
M43.6069 93.8352
L44.9813 89.8979
L46.3556 96.3688
L47.73 100.414
L49.1044 116.629
L50.4788 107.543
L51.8532 106.951
L53.2276 89.567
L54.6019 110.745
L55.9763 107.195
L57.3507 95.3208
L58.7251 89.4108
L60.0995 81.4883
L61.4739 104.803
L62.8483 85.1542
L64.2226 108.257
L65.597 112.044
L66.9714 98.085
L68.3458 102.392
L69.7202 99.2333
L71.0946 98.4165
L72.4689 107.035
L73.8433 98.3836
L75.2177 95.5994
L76.5921 91.8763
L77.9665 92.928
L79.3409 100.169
L80.7152 91.4104
L82.0896 94.2466
L83.464 85.6705
L84.8384 100.729
L86.2128 98.5323
L87.5872 100.53
L88.9616 79.6115
L90.3359 67.8547
L91.7103 65.4718
L93.0847 71.901
L94.4591 70.1301
L95.8335 90.7234
L97.2079 75.5321
L98.5822 97.88
L99.9566 80.8428
L101.331 76.2849
L102.705 82.8388
L104.08 83.5469
L105.454 85.4724
L106.829 78.0995
L108.203 64.2348
L109.577 74.582
L110.952 81.6581
L112.326 81.8635
L113.7 66.3972
L115.075 55.3986
L116.449 81.7208
L117.824 72.3344
L119.198 90.0532
L120.572 80.7068
L121.947 96.6866
L123.321 91.5248
L124.696 95.2231
L126.07 103.438
L127.444 106.998
L128.819 96.1444
L130.193 110.186
L131.567 112.035
L132.942 108.848
L134.316 101.423
L135.691 94.9541
L137.065 94.3181
L138.439 84.8464
L139.814 91.398
L141.188 81.4893
L142.563 60.6069
L143.937 95.8348
L145.311 66.7543
L146.686 91.6441
L148.06 75.5033
L149.434 81.2632
L150.809 96.3827
L152.183 84.1269
L153.558 79.8423
L154.932 71.1946
L156.306 62.0453
L157.681 66.869
L159.055 86.7369
L160.43 73.6728
L161.804 63.9336
L163.178 82.0887
L164.553 78.2651
L165.927 76.0336
L167.301 73.6232
L168.676 55.0968
L170.05 80.2501
L171.425 65.264
L172.799 73.8688
L174.173 50.9878
L175.548 68.8071
L176.922 64.1356
L178.297 62.202
L179.671 62.9592" style="fill:none;stroke:#ff0000;stroke-linecap:square;"/>
   </g>
   <g id="line2d_42">
    <path clip-path="url(#p1392a0c368)" d="
M43.6069 93.8352
L44.9813 79.0481
L46.3556 81.9668
L47.73 69.5038
L49.1044 89.5058
L50.4788 74.1952
L51.8532 80.6064
L53.2276 81.719
L54.6019 87.7638
L55.9763 83.2538
L57.3507 86.2134
L58.7251 69.5328
L60.0995 69.5706
L61.4739 59.2012
L62.8483 60.1351
L64.2226 62.7904
L65.597 59.1349
L66.9714 68.3427
L68.3458 69.8375
L69.7202 60.5591
L71.0946 69.9464
L72.4689 68.2045
L73.8433 82.1654
L75.2177 77.3938
L76.5921 81.7842
L77.9665 75.2284
L79.3409 65.5916
L80.7152 59.7338
L82.0896 72.7214
L83.464 70.0506
L84.8384 48.2234
L86.2128 66.0881
L87.5872 79.649
L88.9616 72.487
L90.3359 73.3767
L91.7103 76.9269
L93.0847 55.8225
L94.4591 62.31
L95.8335 79.2679
L97.2079 66.3308
L98.5822 75.0937
L99.9566 92.1102
L101.331 76.0015
L102.705 96.5199
L104.08 101.411
L105.454 86.4537
L106.829 82.7881
L108.203 79.2156
L109.577 71.7668
L110.952 67.1216
L112.326 61.1952
L113.7 66.7709
L115.075 56.9524
L116.449 54.7459
L117.824 33.3754
L119.198 47.792
L120.572 71.0295
L121.947 52.1731
L123.321 64.6209
L124.696 75.1309
L126.07 61.4161
L127.444 67.1265
L128.819 59.0723
L130.193 58.7542
L131.567 55.192
L132.942 60.7934
L134.316 71.3883
L135.691 58.1457
L137.065 56.5911
L138.439 38.2244
L139.814 49.3044
L141.188 58.5884
L142.563 68.8603
L143.937 77.4605
L145.311 57.3366
L146.686 66.5944
L148.06 54.3075
L149.434 47.4242
L150.809 64.4644
L152.183 75.7588
L153.558 45.1726
L154.932 70.1937
L156.306 60.0989
L157.681 64.7356
L159.055 67.2223
L160.43 53.3146
L161.804 80.0213
L163.178 60.6866
L164.553 61.7938
L165.927 65.4555
L167.301 63.594
L168.676 56.9954
L170.05 56.3565
L171.425 54.7916
L172.799 55.9346
L174.173 46.2515
L175.548 55.8517
L176.922 53.1044
L178.297 44.2772
L179.671 59.4778" style="fill:none;stroke:#00bfbf;stroke-linecap:square;"/>
   </g>
   <g id="matplotlib.axis_5">
    <g id="xtick_7">
     <g id="line2d_43">
      <g>
       <use style="stroke:#000000;stroke-width:0.5;" x="77.9664809113" xlink:href="#m93b0483c22" y="131.465853659"/>
      </g>
     </g>
     <g id="line2d_44">
      <g>
       <use style="stroke:#000000;stroke-width:0.5;" x="77.9664809113" xlink:href="#m741efc42ff" y="26.1"/>
      </g>
     </g>
    </g>
    <g id="xtick_8">
     <g id="line2d_45">
      <g>
       <use style="stroke:#000000;stroke-width:0.5;" x="112.326086823" xlink:href="#m93b0483c22" y="131.465853659"/>
      </g>
     </g>
     <g id="line2d_46">
      <g>
       <use style="stroke:#000000;stroke-width:0.5;" x="112.326086823" xlink:href="#m741efc42ff" y="26.1"/>
      </g>
     </g>
    </g>
    <g id="xtick_9">
     <g id="line2d_47">
      <g>
       <use style="stroke:#000000;stroke-width:0.5;" x="146.685692734" xlink:href="#m93b0483c22" y="131.465853659"/>
      </g>
     </g>
     <g id="line2d_48">
      <g>
       <use style="stroke:#000000;stroke-width:0.5;" x="146.685692734" xlink:href="#m741efc42ff" y="26.1"/>
      </g>
     </g>
    </g>
   </g>
   <g id="matplotlib.axis_6">
    <g id="ytick_10">
     <g id="line2d_49">
      <g>
       <use style="stroke:#000000;stroke-width:0.5;" x="43.606875" xlink:href="#m728421d6d4" y="123.939721254"/>
      </g>
     </g>
     <g id="line2d_50">
      <g>
       <use style="stroke:#000000;stroke-width:0.5;" x="181.045298645" xlink:href="#mcb0005524f" y="123.939721254"/>
      </g>
     </g>
     <g id="text_18">
      <text style="font-family:DejaVu Sans;font-size:12.0px;font-style:normal;text-anchor:end;" transform="rotate(-0.000000, 39.606875, 127.250971)" x="39.606875" y="127.250971254">−4</text>
     </g>
    </g>
    <g id="ytick_11">
     <g id="line2d_51">
      <g>
       <use style="stroke:#000000;stroke-width:0.5;" x="43.606875" xlink:href="#m728421d6d4" y="93.8351916376"/>
      </g>
     </g>
     <g id="line2d_52">
      <g>
       <use style="stroke:#000000;stroke-width:0.5;" x="181.045298645" xlink:href="#mcb0005524f" y="93.8351916376"/>
      </g>
     </g>
     <g id="text_19">
      <text style="font-family:DejaVu Sans;font-size:12.0px;font-style:normal;text-anchor:end;" transform="rotate(-0.000000, 39.606875, 97.146442)" x="39.606875" y="97.1464416376">0</text>
     </g>
    </g>
    <g id="ytick_12">
     <g id="line2d_53">
      <g>
       <use style="stroke:#000000;stroke-width:0.5;" x="43.606875" xlink:href="#m728421d6d4" y="63.7306620209"/>
      </g>
     </g>
     <g id="line2d_54">
      <g>
       <use style="stroke:#000000;stroke-width:0.5;" x="181.045298645" xlink:href="#mcb0005524f" y="63.7306620209"/>
      </g>
     </g>
     <g id="text_20">
      <text style="font-family:DejaVu Sans;font-size:12.0px;font-style:normal;text-anchor:end;" transform="rotate(-0.000000, 39.606875, 67.041912)" x="39.606875" y="67.0419120209">4</text>
     </g>
    </g>
    <g id="ytick_13">
     <g id="line2d_55">
      <g>
       <use style="stroke:#000000;stroke-width:0.5;" x="43.606875" xlink:href="#m728421d6d4" y="33.6261324042"/>
      </g>
     </g>
     <g id="line2d_56">
      <g>
       <use style="stroke:#000000;stroke-width:0.5;" x="181.045298645" xlink:href="#mcb0005524f" y="33.6261324042"/>
      </g>
     </g>
     <g id="text_21">
      <text style="font-family:DejaVu Sans;font-size:12.0px;font-style:normal;text-anchor:end;" transform="rotate(-0.000000, 39.606875, 36.937382)" x="39.606875" y="36.9373824042">8</text>
     </g>
    </g>
   </g>
   <g id="patch_15">
    <path d="
M43.6069 26.1
L181.045 26.1" style="fill:none;stroke:#000000;"/>
   </g>
   <g id="patch_16">
    <path d="
M181.045 131.466
L181.045 26.1" style="fill:none;stroke:#000000;"/>
   </g>
   <g id="patch_17">
    <path d="
M43.6069 131.466
L181.045 131.466" style="fill:none;stroke:#000000;"/>
   </g>
   <g id="patch_18">
    <path d="
M43.6069 131.466
L43.6069 26.1" style="fill:none;stroke:#000000;"/>
   </g>
   <g id="patch_19">
    <path d="
M52.0069 125.466
L109.436 125.466
Q111.836 125.466 111.836 123.066
L111.836 106.652
Q111.836 104.252 109.436 104.252
L52.0069 104.252
Q49.6069 104.252 49.6069 106.652
L49.6069 123.066
Q49.6069 125.466 52.0069 125.466
z
" style="fill:#ffffff;stroke:#000000;"/>
   </g>
   <g id="text_22">
    <text style="font-family:DejaVu Sans;font-size:12.0px;font-style:normal;text-anchor:start;" transform="rotate(-0.000000, 54.406875, 118.170229)" x="54.406875" y="118.170228659">H = 0.00</text>
   </g>
  </g>
  <g id="axes_4">
   <g id="patch_20">
    <path d="
M185.168 131.466
L322.607 131.466
L322.607 26.1
L185.168 26.1
z
" style="fill:#ffffff;"/>
   </g>
   <g id="line2d_57">
    <path clip-path="url(#p38bd02dd8b)" d="
M185.168 78.7829
L186.543 81.919
L187.917 83.6518
L189.292 83.4846
L190.666 86.7663
L192.04 88.4878
L193.415 85.3605
L194.789 84.4364
L196.164 91.6607
L197.538 87.3364
L198.912 90.171
L200.287 84.4137
L201.661 78.5447
L203.035 76.4363
L204.41 81.9035
L205.784 78.4863
L207.159 72.3268
L208.533 69.1519
L209.907 58.7953
L211.282 57.7953
L212.656 54.6038
L214.031 51.9807
L215.405 50.4066
L216.779 53.613
L218.154 51.1157
L219.528 55.5218
L220.902 54.8736
L222.277 61.1665
L223.651 62.5305
L225.026 59.3934
L226.4 64.5269
L227.774 62.3339
L229.149 65.5529
L230.523 64.6574
L231.898 61.6489
L233.272 67.1712
L234.646 67.9199
L236.021 69.5659
L237.395 60.0934
L238.769 60.2952
L240.144 65.4881
L241.518 59.0841
L242.893 58.7806
L244.267 60.712
L245.641 72.0234
L247.016 68.2299
L248.39 63.2319
L249.765 63.6211
L251.139 64.1457
L252.513 62.6329
L253.888 62.2766
L255.262 58.1104
L256.636 57.8508
L258.011 69.4462
L259.385 59.0955
L260.76 57.5215
L262.134 57.1068
L263.508 59.5636
L264.883 65.4548
L266.257 61.079
L267.632 72.9378
L269.006 77.9831
L270.38 69.5982
L271.755 72.6402
L273.129 73.6644
L274.503 74.7025
L275.878 76.5728
L277.252 79.2599
L278.627 79.9865
L280.001 77.3652
L281.375 74.6606
L282.75 77.8865
L284.124 77.4442
L285.499 79.6564
L286.873 68.4432
L288.247 70.3392
L289.622 78.6617
L290.996 76.4769
L292.37 83.8006
L293.745 80.8206
L295.119 80.298
L296.494 77.6378
L297.868 69.3723
L299.242 74.6274
L300.617 70.3087
L301.991 72.6654
L303.365 75.5187
L304.74 75.1169
L306.114 70.2034
L307.489 62.2269
L308.863 61.457
L310.237 61.6168
L311.612 68.4534
L312.986 57.6719
L314.361 55.331
L315.735 60.9229
L317.109 65.5695
L318.484 62.8654
L319.858 58.58
L321.232 53.9953" style="fill:none;stroke:#0000ff;stroke-linecap:square;"/>
   </g>
   <g id="line2d_58">
    <path clip-path="url(#p38bd02dd8b)" d="
M185.168 78.7829
L186.543 68.391
L187.917 68.8883
L189.292 80.7421
L190.666 81.4037
L192.04 83.3859
L193.415 77.6775
L194.789 69.8289
L196.164 73.1111
L197.538 71.1055
L198.912 77.2579
L200.287 77.8011
L201.661 76.0079
L203.035 82.5551
L204.41 69.7802
L205.784 66.8471
L207.159 72.5515
L208.533 77.0734
L209.907 74.545
L211.282 75.4705
L212.656 68.2396
L214.031 62.8689
L215.405 69.8685
L216.779 66.0368
L218.154 66.0925
L219.528 62.0543
L220.902 59.5972
L222.277 68.8557
L223.651 64.6839
L225.026 60.6378
L226.4 66.1581
L227.774 59.2295
L229.149 61.3903
L230.523 61.7366
L231.898 63.1227
L233.272 61.7149
L234.646 53.6333
L236.021 60.4042
L237.395 57.0879
L238.769 59.9083
L240.144 57.0682
L241.518 63.2804
L242.893 65.9126
L244.267 62.6072
L245.641 61.4481
L247.016 55.9634
L248.39 51.2153
L249.765 47.8824
L251.139 50.0722
L252.513 55.6416
L253.888 55.6452
L255.262 52.2984
L256.636 46.0653
L258.011 38.7977
L259.385 49.2149
L260.76 50.8204
L262.134 52.8704
L263.508 44.3892
L264.883 45.3911
L266.257 41.3178
L267.632 44.4529
L269.006 47.5342
L270.38 50.457
L271.755 44.4922
L273.129 49.3139
L274.503 58.6338
L275.878 60.4681
L277.252 52.6027
L278.627 56.2388
L280.001 44.8587
L281.375 51.303
L282.75 54.4227
L284.124 57.7782
L285.499 49.8582
L286.873 58.5588
L288.247 66.7416
L289.622 67.8304
L290.996 73.0145
L292.37 65.4689
L293.745 62.4081
L295.119 63.5327
L296.494 61.0892
L297.868 63.5816
L299.242 50.1526
L300.617 61.5797
L301.991 49.4983
L303.365 63.6367
L304.74 56.9901
L306.114 60.6069
L307.489 64.1203
L308.863 65.049
L310.237 66.9622
L311.612 56.4527
L312.986 68.7245
L314.361 55.1427
L315.735 58.7825
L317.109 65.5446
L318.484 63.4542
L319.858 69.1364
L321.232 71.9228" style="fill:none;stroke:#008000;stroke-linecap:square;"/>
   </g>
   <g id="line2d_59">
    <path clip-path="url(#p38bd02dd8b)" d="
M185.168 78.7829
L186.543 80.5574
L187.917 83.1341
L189.292 80.1486
L190.666 85.2035
L192.04 77.6966
L193.415 73.3323
L194.789 81.4217
L196.164 80.6883
L197.538 86.8091
L198.912 97.7996
L200.287 88.8009
L201.661 88.6402
L203.035 83.4689
L204.41 86.1175
L205.784 81.6721
L207.159 80.6795
L208.533 78.8601
L209.907 92.0281
L211.282 84.6697
L212.656 92.2822
L214.031 95.928
L215.405 85.7083
L216.779 97.1316
L218.154 96.0379
L219.528 99.6589
L220.902 88.2378
L222.277 87.5831
L223.651 93.5565
L225.026 93.3287
L226.4 89.6555
L227.774 89.0871
L229.149 82.267
L230.523 80.0284
L231.898 88.6026
L233.272 97.4839
L234.646 91.0045
L236.021 97.7523
L237.395 91.1052
L238.769 75.4085
L240.144 87.6076
L241.518 79.6888
L242.893 80.2184
L244.267 90.6154
L245.641 79.134
L247.016 82.2593
L248.39 83.0469
L249.765 87.5332
L251.139 88.5894
L252.513 88.8308
L253.888 91.1942
L255.262 85.7165
L256.636 83.143
L258.011 84.2426
L259.385 85.5755
L260.76 93.3485
L262.134 93.587
L263.508 92.8834
L264.883 100.237
L266.257 102.083
L267.632 99.4467
L269.006 100.345
L270.38 97.9179
L271.755 92.6803
L273.129 99.8495
L274.503 100.377
L275.878 103.789
L277.252 101.256
L278.627 96.9868
L280.001 100.958
L281.375 95.762
L282.75 100.148
L284.124 96.97
L285.499 94.1611
L286.873 94.1259
L288.247 101.112
L289.622 96.7762
L290.996 88.4563
L292.37 99.9642
L293.745 100.31
L295.119 102.406
L296.494 97.5807
L297.868 106.083
L299.242 98.9859
L300.617 101.644
L301.991 101.428
L303.365 99.8031
L304.74 107.748
L306.114 114.682
L307.489 119.542
L308.863 110.594
L310.237 110.194
L311.612 106.917
L312.986 105.15
L314.361 99.0843
L315.735 99.8445
L317.109 103.866
L318.484 104.925
L319.858 106.167
L321.232 98.724" style="fill:none;stroke:#ff0000;stroke-linecap:square;"/>
   </g>
   <g id="line2d_60">
    <path clip-path="url(#p38bd02dd8b)" d="
M185.168 78.7829
L186.543 76.2112
L187.917 80.4138
L189.292 86.3417
L190.666 81.2044
L192.04 88.783
L193.415 80.1962
L194.789 87.3873
L196.164 83.5071
L197.538 79.6923
L198.912 76.2073
L200.287 90.9297
L201.661 92.6673
L203.035 90.857
L204.41 93.0195
L205.784 94.4627
L207.159 85.791
L208.533 82.3351
L209.907 82.1023
L211.282 82.9342
L212.656 77.7042
L214.031 83.6251
L215.405 84.2321
L216.779 82.3301
L218.154 85.8263
L219.528 88.7263
L220.902 93.1153
L222.277 97.3753
L223.651 99.5889
L225.026 93.4722
L226.4 94.8159
L227.774 95.0682
L229.149 84.9987
L230.523 81.6198
L231.898 83.1736
L233.272 84.0805
L234.646 83.4528
L236.021 80.4942
L237.395 81.7904
L238.769 79.9621
L240.144 83.6041
L241.518 84.7261
L242.893 87.9189
L244.267 87.7815
L245.641 84.0397
L247.016 83.0654
L248.39 84.0258
L249.765 84.3844
L251.139 83.1208
L252.513 88.4542
L253.888 85.8725
L255.262 85.4564
L256.636 88.5638
L258.011 91.9764
L259.385 86.8339
L260.76 88.0388
L262.134 88.9703
L263.508 90.2653
L264.883 80.6962
L266.257 76.6779
L267.632 76.2477
L269.006 78.0575
L270.38 81.0423
L271.755 80.7072
L273.129 82.079
L274.503 88.4186
L275.878 75.145
L277.252 67.7473
L278.627 65.7373
L280.001 71.3904
L281.375 75.217
L282.75 67.162
L284.124 66.326
L285.499 64.8705
L286.873 67.034
L288.247 61.6599
L289.622 76.5277
L290.996 75.3831
L292.37 67.7359
L293.745 77.266
L295.119 83.6874
L296.494 83.4251
L297.868 86.862
L299.242 87.8608
L300.617 79.9808
L301.991 81.893
L303.365 81.5368
L304.74 87.193
L306.114 81.2287
L307.489 87.44
L308.863 82.5984
L310.237 98.4447
L311.612 87.5313
L312.986 79.8382
L314.361 82.4
L315.735 87.9531
L317.109 85.8414
L318.484 81.4947
L319.858 73.9487
L321.232 76.264" style="fill:none;stroke:#00bfbf;stroke-linecap:square;"/>
   </g>
   <g id="matplotlib.axis_7">
    <g id="xtick_10">
     <g id="line2d_61">
      <g>
       <use style="stroke:#000000;stroke-width:0.5;" x="219.528057266" xlink:href="#m93b0483c22" y="131.465853659"/>
      </g>
     </g>
     <g id="line2d_62">
      <g>
       <use style="stroke:#000000;stroke-width:0.5;" x="219.528057266" xlink:href="#m741efc42ff" y="26.1"/>
      </g>
     </g>
    </g>
    <g id="xtick_11">
     <g id="line2d_63">
      <g>
       <use style="stroke:#000000;stroke-width:0.5;" x="253.887663177" xlink:href="#m93b0483c22" y="131.465853659"/>
      </g>
     </g>
     <g id="line2d_64">
      <g>
       <use style="stroke:#000000;stroke-width:0.5;" x="253.887663177" xlink:href="#m741efc42ff" y="26.1"/>
      </g>
     </g>
    </g>
    <g id="xtick_12">
     <g id="line2d_65">
      <g>
       <use style="stroke:#000000;stroke-width:0.5;" x="288.247269089" xlink:href="#m93b0483c22" y="131.465853659"/>
      </g>
     </g>
     <g id="line2d_66">
      <g>
       <use style="stroke:#000000;stroke-width:0.5;" x="288.247269089" xlink:href="#m741efc42ff" y="26.1"/>
      </g>
     </g>
    </g>
   </g>
   <g id="matplotlib.axis_8">
    <g id="ytick_14">
     <g id="line2d_67">
      <g>
       <use style="stroke:#000000;stroke-width:0.5;" x="185.168451355" xlink:href="#m728421d6d4" y="122.083962579"/>
      </g>
     </g>
     <g id="line2d_68">
      <g>
       <use style="stroke:#000000;stroke-width:0.5;" x="322.606875" xlink:href="#mcb0005524f" y="122.083962579"/>
      </g>
     </g>
     <g id="text_23">
      <text style="font-family:DejaVu Sans;font-size:12.0px;font-style:normal;text-anchor:end;" transform="rotate(-0.000000, 343.606875, 125.395213)" x="343.606875" y="125.395212579">-6</text>
     </g>
    </g>
    <g id="ytick_15">
     <g id="line2d_69">
      <g>
       <use style="stroke:#000000;stroke-width:0.5;" x="185.168451355" xlink:href="#m728421d6d4" y="100.433444704"/>
      </g>
     </g>
     <g id="line2d_70">
      <g>
       <use style="stroke:#000000;stroke-width:0.5;" x="322.606875" xlink:href="#mcb0005524f" y="100.433444704"/>
      </g>
     </g>
     <g id="text_24">
      <text style="font-family:DejaVu Sans;font-size:12.0px;font-style:normal;text-anchor:end;" transform="rotate(-0.000000, 343.606875, 103.744695)" x="343.606875" y="103.744694704">-3</text>
     </g>
    </g>
    <g id="ytick_16">
     <g id="line2d_71">
      <g>
       <use style="stroke:#000000;stroke-width:0.5;" x="185.168451355" xlink:href="#m728421d6d4" y="78.7829268293"/>
      </g>
     </g>
     <g id="line2d_72">
      <g>
       <use style="stroke:#000000;stroke-width:0.5;" x="322.606875" xlink:href="#mcb0005524f" y="78.7829268293"/>
      </g>
     </g>
     <g id="text_25">
      <text style="font-family:DejaVu Sans;font-size:12.0px;font-style:normal;text-anchor:end;" transform="rotate(-0.000000, 343.606875, 82.094177)" x="343.606875" y="82.0941768293">0</text>
     </g>
    </g>
    <g id="ytick_17">
     <g id="line2d_73">
      <g>
       <use style="stroke:#000000;stroke-width:0.5;" x="185.168451355" xlink:href="#m728421d6d4" y="57.1324089542"/>
      </g>
     </g>
     <g id="line2d_74">
      <g>
       <use style="stroke:#000000;stroke-width:0.5;" x="322.606875" xlink:href="#mcb0005524f" y="57.1324089542"/>
      </g>
     </g>
     <g id="text_26">
      <text style="font-family:DejaVu Sans;font-size:12.0px;font-style:normal;text-anchor:end;" transform="rotate(-0.000000, 343.606875, 60.443659)" x="343.606875" y="60.4436589542">3</text>
     </g>
    </g>
    <g id="ytick_18">
     <g id="line2d_75">
      <g>
       <use style="stroke:#000000;stroke-width:0.5;" x="185.168451355" xlink:href="#m728421d6d4" y="35.4818910792"/>
      </g>
     </g>
     <g id="line2d_76">
      <g>
       <use style="stroke:#000000;stroke-width:0.5;" x="322.606875" xlink:href="#mcb0005524f" y="35.4818910792"/>
      </g>
     </g>
     <g id="text_27">
      <text style="font-family:DejaVu Sans;font-size:12.0px;font-style:normal;text-anchor:end;" transform="rotate(-0.000000, 343.606875, 38.793141)" x="343.606875" y="38.7931410792">6</text>
     </g>
    </g>
   </g>
   <g id="patch_21">
    <path d="
M185.168 26.1
L322.607 26.1" style="fill:none;stroke:#000000;"/>
   </g>
   <g id="patch_22">
    <path d="
M322.607 131.466
L322.607 26.1" style="fill:none;stroke:#000000;"/>
   </g>
   <g id="patch_23">
    <path d="
M185.168 131.466
L322.607 131.466" style="fill:none;stroke:#000000;"/>
   </g>
   <g id="patch_24">
    <path d="
M185.168 131.466
L185.168 26.1" style="fill:none;stroke:#000000;"/>
   </g>
   <g id="patch_25">
    <path d="
M193.568 125.466
L250.747 125.466
Q253.147 125.466 253.147 123.066
L253.147 106.652
Q253.147 104.252 250.747 104.252
L193.568 104.252
Q191.168 104.252 191.168 106.652
L191.168 123.066
Q191.168 125.466 193.568 125.466
z
" style="fill:#ffffff;stroke:#000000;"/>
   </g>
   <g id="text_28">
    <text style="font-family:DejaVu Sans;font-size:12.0px;font-style:normal;text-anchor:start;" transform="rotate(-0.000000, 195.968451, 118.170229)" x="195.968451355" y="118.170228659">H = 0.25</text>
   </g>
  </g>
  <g id="text_29">
   <text style="font-family:DejaVu Sans;font-size:12.0px;font-style:normal;text-anchor:middle;" transform="rotate(-0.000000, 178.606875, 16.318125)" x="178.606875" y="16.318125">fBm, Hurst exponent</text>
  </g>
  <g id="text_30">
   <text style="font-family:DejaVu Sans;font-size:12.0px;font-style:normal;text-anchor:middle;" transform="rotate(-0.000000, 178.606875, 271.061250)" x="178.606875" y="271.06125">n</text>
  </g>
  <g id="text_31">
   <text style="font-family:DejaVu Sans;font-size:12.0px;font-style:normal;" transform="translate(16.318125 145.52625)rotate(-90.0)">fBm</text>
  </g>
 </g>
 <defs>
  <clipPath id="p1da52e16e8">
   <rect height="105.365853659" width="137.438423645" x="43.606875" y="136.734146341"/>
  </clipPath>
  <clipPath id="p1392a0c368">
   <rect height="105.365853659" width="137.438423645" x="43.606875" y="26.1"/>
  </clipPath>
  <clipPath id="p38bd02dd8b">
   <rect height="105.365853659" width="137.438423645" x="185.168451355" y="26.1"/>
  </clipPath>
  <clipPath id="p387ec442d2">
   <rect height="105.365853659" width="137.438423645" x="185.168451355" y="136.734146341"/>
  </clipPath>
 </defs>
</svg>
