<?xml version="1.0" encoding="utf-8" standalone="no"?>
<!DOCTYPE svg PUBLIC "-//W3C//DTD SVG 1.1//EN"
  "http://www.w3.org/Graphics/SVG/1.1/DTD/svg11.dtd">
<!-- Created with matplotlib (http://matplotlib.org/) -->
<svg height="132pt" version="1.1" viewBox="0 0 430 132" width="430pt" xmlns="http://www.w3.org/2000/svg" xmlns:xlink="http://www.w3.org/1999/xlink">
 <defs>
  <style type="text/css">
*{stroke-linecap:butt;stroke-linejoin:round;}
  </style>
 </defs>
 <g id="figure_1">
  <g id="patch_1">
   <path d="
M0 132.149
L430.946 132.149
L430.946 0
L0 0
z
" style="fill:#ffffff;"/>
  </g>
  <g id="axes_1">
   <g id="patch_2">
    <path d="
M26.9463 99.9418
L107.926 99.9418
L107.926 23.1418
L26.9463 23.1418
z
" style="fill:#ffffff;"/>
   </g>
   <g id="line2d_1">
    <path clip-path="url(#p557ccd66b1)" d="
M26.9463 65.196
L27.756 69.4543
L28.5658 76.7939
L29.3756 69.8604
L30.1854 54.985
L30.9952 55.2127
L31.805 76.1276
L32.6148 67.0317
L33.4246 53.543
L34.2344 73.9404
L35.0442 68.05
L35.854 67.0348
L36.6638 72.7837
L37.4736 71.4697
L38.2834 80.7833
L39.0932 65.8217
L39.903 70.7302
L40.7128 56.1899
L41.5226 57.7815
L42.3324 63.1593
L43.1422 73.6271
L43.952 68.0169
L44.7618 64.5807
L45.5716 85.0197
L46.3814 73.2733
L47.1911 76.2629
L48.0009 66.5592
L48.8107 66.6548
L49.6205 69.5407
L50.4303 67.1987
L51.2401 77.8818
L52.0499 67.1476
L52.8597 70.8937
L53.6695 77.3204
L54.4793 68.5369
L55.2891 69.4067
L56.0989 76.0429
L56.9087 78.0245
L57.7185 77.2698
L58.5283 89.7895
L59.3381 75.1876
L60.1479 68.9325
L60.9577 71.5172
L61.7675 78.539
L62.5773 74.0097
L63.3871 53.6791
L64.1969 68.6879
L65.0067 77.824
L65.8165 73.5909
L66.6262 71.5294
L67.436 84.8408
L68.2458 72.228
L69.0556 58.7466
L69.8654 63.8606
L70.6752 63.0459
L71.485 79.2445
L72.2948 75.9911
L73.1046 65.4361
L73.9144 74.538
L74.7242 88.8279
L75.534 80.2557
L76.3438 72.3062
L77.1536 74.1211
L77.9634 79.0113
L78.7732 72.66
L79.583 78.9593
L80.3928 72.4389
L81.2026 69.8336
L82.0124 71.2366
L82.8222 71.2584
L83.632 78.2079
L84.4418 75.9406
L85.2516 63.1617
L86.0614 67.0557
L86.8711 63.0883
L87.6809 55.2316
L88.4907 66.3368
L89.3005 63.6888
L90.1103 71.3801
L90.9201 65.7169
L91.7299 65.476
L92.5397 62.5438
L93.3495 62.9735
L94.1593 79.0652
L94.9691 77.4776
L95.7789 78.1431
L96.5887 65.2591
L97.3985 82.0437
L98.2083 74.6903
L99.0181 69.4128
L99.8279 69.9483
L100.638 65.4481
L101.447 68.2119
L102.257 69.3736
L103.067 75.362
L103.877 76.5865
L104.687 70.1451
L105.496 63.2933
L106.306 74.2825" style="fill:none;stroke:#0000ff;stroke-linecap:square;"/>
   </g>
   <g id="line2d_2">
    <path clip-path="url(#p557ccd66b1)" d="
M26.9463 92.5245
L27.756 95.505
L28.5658 84.5823
L29.3756 77.9638
L30.1854 82.2288
L30.9952 85.4635
L31.805 77.1111
L32.6148 79.8839
L33.4246 84.7007
L34.2344 69.9668
L35.0442 68.1938
L35.854 81.8199
L36.6638 85.2301
L37.4736 80.6325
L38.2834 79.8901
L39.0932 81.2597
L39.903 84.8813
L40.7128 93.2653
L41.5226 76.3786
L42.3324 66.1829
L43.1422 87.8928
L43.952 77.6497
L44.7618 88.5625
L45.5716 84.8488
L46.3814 78.9342
L47.1911 91.5972
L48.0009 89.7582
L48.8107 94.3538
L49.6205 83.6038
L50.4303 86.1779
L51.2401 84.278
L52.0499 87.4547
L52.8597 73.8364
L53.6695 84.8031
L54.4793 97.3148
L55.2891 81.4527
L56.0989 81.2476
L56.9087 75.3204
L57.7185 74.1145
L58.5283 71.0784
L59.3381 77.064
L60.1479 94.5152
L60.9577 91.0732
L61.7675 92.1099
L62.5773 86.6729
L63.3871 81.0664
L64.1969 86.3381
L65.0067 84.4408
L65.8165 90.7094
L66.6262 83.3591
L67.436 87.3522
L68.2458 93.3174
L69.0556 87.9216
L69.8654 78.6379
L70.6752 83.9464
L71.485 84.366
L72.2948 87.5217
L73.1046 89.0048
L73.9144 82.071
L74.7242 90.2309
L75.534 88.9434
L76.3438 83.9204
L77.1536 79.6916
L77.9634 76.7088
L78.7732 76.3375
L79.583 91.0543
L80.3928 74.8732
L81.2026 83.7479
L82.0124 84.4154
L82.8222 90.1034
L83.632 90.3764
L84.4418 93.0255
L85.2516 86.9567
L86.0614 76.2696
L86.8711 85.3753
L87.6809 81.961
L88.4907 92.0974
L89.3005 85.2002
L90.1103 78.983
L90.9201 77.9594
L91.7299 77.3337
L92.5397 73.2129
L93.3495 75.6072
L94.1593 80.9395
L94.9691 81.8362
L95.7789 76.7443
L96.5887 73.4266
L97.3985 80.0881
L98.2083 60.6573
L99.0181 57.1353
L99.8279 78.8218
L100.638 76.5929
L101.447 81.2423
L102.257 71.1575
L103.067 60.9241
L103.877 71.4738
L104.687 74.9662
L105.496 77.3431
L106.306 83.5321" style="fill:none;stroke:#008000;stroke-linecap:square;"/>
   </g>
   <g id="line2d_3">
    <path clip-path="url(#p557ccd66b1)" d="
M26.9463 75.1291
L27.756 79.8456
L28.5658 82.7939
L29.3756 94.6129
L30.1854 87.9902
L30.9952 87.5586
L31.805 74.8879
L32.6148 90.3245
L33.4246 87.737
L34.2344 79.0817
L35.0442 74.774
L35.854 68.9994
L36.6638 85.9933
L37.4736 71.6715
L38.2834 88.5105
L39.0932 91.2708
L39.903 81.0965
L40.7128 84.2355
L41.5226 81.9335
L42.3324 81.3382
L43.1422 87.6204
L43.952 81.3142
L44.7618 79.2848
L45.5716 76.5711
L46.3814 77.3377
L47.1911 82.6158
L48.0009 76.2315
L48.8107 78.2988
L49.6205 72.0477
L50.4303 83.0234
L51.2401 81.4226
L52.0499 82.8785
L52.8597 67.6314
L53.6695 59.062
L54.4793 57.3252
L55.2891 62.0113
L56.0989 60.7205
L56.9087 75.7307
L57.7185 64.658
L58.5283 80.9471
L59.3381 68.5288
L60.1479 65.2066
L60.9577 69.9838
L61.7675 70.4999
L62.5773 71.9033
L63.3871 66.5293
L64.1969 56.4235
L65.0067 63.9654
L65.8165 69.1231
L66.6262 69.2729
L67.436 57.9996
L68.2458 49.9829
L69.0556 69.1689
L69.8654 62.3272
L70.6752 75.2422
L71.485 68.4298
L72.2948 80.0773
L73.1046 76.3149
L73.9144 79.0105
L74.7242 84.9981
L75.534 87.5934
L76.3438 79.682
L77.1536 89.9168
L77.9634 91.2645
L78.7732 88.9416
L79.583 83.5298
L80.3928 78.8144
L81.2026 78.3509
L82.0124 71.4471
L82.8222 76.2225
L83.632 69.0001
L84.4418 53.7791
L85.2516 79.4564
L86.0614 58.2599
L86.8711 76.4018
L87.6809 64.637
L88.4907 68.8353
L89.3005 79.8558
L90.1103 70.9226
L90.9201 67.7996
L91.7299 61.4964
L92.5397 54.8276
L93.3495 58.3435
L94.1593 72.825
L94.9691 63.3027
L95.7789 56.2039
L96.5887 69.437
L97.3985 66.65
L98.2083 65.0235
L99.0181 63.2666
L99.8279 49.7629
L100.638 68.0968
L101.447 57.1737
L102.257 63.4456
L103.067 46.7679
L103.877 59.7562
L104.687 56.3512
L105.496 54.9418
L106.306 55.4937" style="fill:none;stroke:#ff0000;stroke-linecap:square;"/>
   </g>
   <g id="line2d_4">
    <path clip-path="url(#p557ccd66b1)" d="
M26.9463 67.2207
L27.756 69.3481
L28.5658 60.264
L29.3756 74.8432
L30.1854 63.6835
L30.9952 68.3566
L31.805 69.1676
L32.6148 73.5735
L33.4246 70.2862
L34.2344 72.4435
L35.0442 60.2851
L35.854 60.3127
L36.6638 52.7546
L37.4736 53.4352
L38.2834 55.3707
L39.0932 52.7062
L39.903 59.4177
L40.7128 60.5073
L41.5226 53.7443
L42.3324 60.5866
L43.1422 59.317
L43.952 69.4929
L44.7618 66.0149
L45.5716 69.2151
L46.3814 64.4366
L47.1911 57.4125
L48.0009 53.1427
L48.8107 62.6093
L49.6205 60.6626
L50.4303 44.753
L51.2401 57.7744
L52.0499 67.6588
L52.8597 62.4384
L53.6695 63.0869
L54.4793 65.6746
L55.2891 50.2919
L56.0989 55.0206
L56.9087 67.381
L57.7185 57.9512
L58.5283 64.3384
L59.3381 76.7416
L60.1479 65.0001
L60.9577 79.9558
L61.7675 83.5206
L62.5773 72.6186
L63.3871 69.9468
L64.1969 67.3428
L65.0067 61.9135
L65.8165 58.5276
L66.6262 54.208
L67.436 58.272
L68.2458 51.1154
L69.0556 49.5071
L69.8654 33.9304
L70.6752 44.4385
L71.485 61.3761
L72.2948 47.6318
L73.1046 56.7049
L73.9144 64.3656
L74.7242 54.369
L75.534 58.5312
L76.3438 52.6606
L77.1536 52.4288
L77.9634 49.8323
L78.7732 53.9151
L79.583 61.6376
L80.3928 51.9853
L81.2026 50.8521
L82.0124 37.4648
L82.8222 45.5409
L83.632 52.3079
L84.4418 59.795
L85.2516 66.0636
L86.0614 51.3955
L86.8711 58.1433
L87.6809 49.1876
L88.4907 44.1704
L89.3005 56.5908
L90.1103 64.8232
L90.9201 42.5293
L91.7299 60.7668
L92.5397 53.4088
L93.3495 56.7885
L94.1593 58.6011
L94.9691 48.4639
L95.7789 67.9301
L96.5887 53.8373
L97.3985 54.6443
L98.2083 57.3133
L99.0181 55.9564
L99.8279 51.1468
L100.638 50.6811
L101.447 49.5405
L102.257 50.3736
L103.067 43.3157
L103.877 50.3132
L104.687 48.3107
L105.496 41.8766
L106.306 52.9562" style="fill:none;stroke:#00bfbf;stroke-linecap:square;"/>
   </g>
   <g id="matplotlib.axis_1">
    <g id="xtick_1">
     <g id="line2d_5">
      <defs>
       <path d="
M0 0
L0 -4" id="m93b0483c22" style="stroke:#000000;stroke-width:0.5;"/>
      </defs>
      <g>
       <use style="stroke:#000000;stroke-width:0.5;" x="47.1911479592" xlink:href="#m93b0483c22" y="99.94175"/>
      </g>
     </g>
     <g id="line2d_6">
      <defs>
       <path d="
M0 0
L0 4" id="m741efc42ff" style="stroke:#000000;stroke-width:0.5;"/>
      </defs>
      <g>
       <use style="stroke:#000000;stroke-width:0.5;" x="47.1911479592" xlink:href="#m741efc42ff" y="23.14175"/>
      </g>
     </g>
     <g id="text_1">
      <text style="font-family:DejaVu Sans;font-size:12.0px;font-style:normal;text-anchor:middle;" transform="rotate(-0.000000, 47.191148, 113.059875)" x="47.1911479592" y="113.059875">25</text>
     </g>
    </g>
    <g id="xtick_2">
     <g id="line2d_7">
      <g>
       <use style="stroke:#000000;stroke-width:0.5;" x="67.4360459184" xlink:href="#m93b0483c22" y="99.94175"/>
      </g>
     </g>
     <g id="line2d_8">
      <g>
       <use style="stroke:#000000;stroke-width:0.5;" x="67.4360459184" xlink:href="#m741efc42ff" y="23.14175"/>
      </g>
     </g>
     <g id="text_2">
      <text style="font-family:DejaVu Sans;font-size:12.0px;font-style:normal;text-anchor:middle;" transform="rotate(-0.000000, 67.436046, 113.059875)" x="67.4360459184" y="113.059875">50</text>
     </g>
    </g>
    <g id="xtick_3">
     <g id="line2d_9">
      <g>
       <use style="stroke:#000000;stroke-width:0.5;" x="87.6809438776" xlink:href="#m93b0483c22" y="99.94175"/>
      </g>
     </g>
     <g id="line2d_10">
      <g>
       <use style="stroke:#000000;stroke-width:0.5;" x="87.6809438776" xlink:href="#m741efc42ff" y="23.14175"/>
      </g>
     </g>
     <g id="text_3">
      <text style="font-family:DejaVu Sans;font-size:12.0px;font-style:normal;text-anchor:middle;" transform="rotate(-0.000000, 87.680944, 113.059875)" x="87.6809438776" y="113.059875">75</text>
     </g>
    </g>
   </g>
   <g id="matplotlib.axis_2">
    <g id="ytick_1">
     <g id="line2d_11">
      <defs>
       <path d="
M0 0
L4 0" id="m728421d6d4" style="stroke:#000000;stroke-width:0.5;"/>
      </defs>
      <g>
       <use style="stroke:#000000;stroke-width:0.5;" x="26.94625" xlink:href="#m728421d6d4" y="99.94175"/>
      </g>
     </g>
     <g id="line2d_12">
      <defs>
       <path d="
M0 0
L-4 0" id="mcb0005524f" style="stroke:#000000;stroke-width:0.5;"/>
      </defs>
      <g>
       <use style="stroke:#000000;stroke-width:0.5;" x="107.925841837" xlink:href="#mcb0005524f" y="99.94175"/>
      </g>
     </g>
     <g id="text_4">
      <text style="font-family:DejaVu Sans;font-size:12.0px;font-style:normal;text-anchor:end;" transform="rotate(-0.000000, 22.946250, 103.253000)" x="22.94625" y="103.253">−4</text>
     </g>
    </g>
    <g id="ytick_2">
     <g id="line2d_13">
      <g>
       <use style="stroke:#000000;stroke-width:0.5;" x="26.94625" xlink:href="#m728421d6d4" y="77.9988928571"/>
      </g>
     </g>
     <g id="line2d_14">
      <g>
       <use style="stroke:#000000;stroke-width:0.5;" x="107.925841837" xlink:href="#mcb0005524f" y="77.9988928571"/>
      </g>
     </g>
     <g id="text_5">
      <text style="font-family:DejaVu Sans;font-size:12.0px;font-style:normal;text-anchor:end;" transform="rotate(-0.000000, 22.946250, 81.310143)" x="22.94625" y="81.3101428571">0</text>
     </g>
    </g>
    <g id="ytick_3">
     <g id="line2d_15">
      <g>
       <use style="stroke:#000000;stroke-width:0.5;" x="26.94625" xlink:href="#m728421d6d4" y="56.0560357143"/>
      </g>
     </g>
     <g id="line2d_16">
      <g>
       <use style="stroke:#000000;stroke-width:0.5;" x="107.925841837" xlink:href="#mcb0005524f" y="56.0560357143"/>
      </g>
     </g>
     <g id="text_6">
      <text style="font-family:DejaVu Sans;font-size:12.0px;font-style:normal;text-anchor:end;" transform="rotate(-0.000000, 22.946250, 59.367286)" x="22.94625" y="59.3672857143">4</text>
     </g>
    </g>
    <g id="ytick_4">
     <g id="line2d_17">
      <g>
       <use style="stroke:#000000;stroke-width:0.5;" x="26.94625" xlink:href="#m728421d6d4" y="34.1131785714"/>
      </g>
     </g>
     <g id="line2d_18">
      <g>
       <use style="stroke:#000000;stroke-width:0.5;" x="107.925841837" xlink:href="#mcb0005524f" y="34.1131785714"/>
      </g>
     </g>
     <g id="text_7">
      <text style="font-family:DejaVu Sans;font-size:12.0px;font-style:normal;text-anchor:end;" transform="rotate(-0.000000, 22.946250, 37.424429)" x="22.94625" y="37.4244285714">8</text>
     </g>
    </g>
   </g>
   <g id="patch_3">
    <path d="
M26.9463 23.1418
L107.926 23.1418" style="fill:none;stroke:#000000;"/>
   </g>
   <g id="patch_4">
    <path d="
M107.926 99.9418
L107.926 23.1417" style="fill:none;stroke:#000000;"/>
   </g>
   <g id="patch_5">
    <path d="
M26.9463 99.9418
L107.926 99.9418" style="fill:none;stroke:#000000;"/>
   </g>
   <g id="patch_6">
    <path d="
M26.9463 99.9418
L26.9463 23.1417" style="fill:none;stroke:#000000;"/>
   </g>
   <g id="text_8">
    <text style="font-family:DejaVu Sans;font-size:14.4px;font-style:normal;text-anchor:middle;" transform="rotate(-0.000000, 67.436046, 18.141750)" x="67.4360459184" y="18.14175">H = 0.00</text>
   </g>
  </g>
  <g id="axes_2">
   <g id="patch_7">
    <path d="
M132.22 99.9418
L213.199 99.9418
L213.199 23.1418
L132.22 23.1418
z
" style="fill:#ffffff;"/>
   </g>
   <g id="line2d_19">
    <path clip-path="url(#pc3139a5f78)" d="
M132.22 63.9256
L133.03 65.2427
L133.839 65.1156
L134.649 67.6101
L135.459 68.9187
L136.269 66.5415
L137.078 65.8391
L137.888 71.3305
L138.698 68.0435
L139.508 70.1982
L140.318 65.8218
L141.127 61.3606
L141.937 59.758
L142.747 63.9138
L143.557 61.3163
L144.367 56.6343
L145.176 54.221
L145.986 46.3486
L146.796 45.5885
L147.606 43.1626
L148.416 41.1687
L149.225 39.9721
L150.035 42.4094
L150.845 40.5112
L151.655 43.8603
L152.465 43.3676
L153.274 48.1511
L154.084 49.1879
L154.894 46.8033
L155.704 50.7054
L156.514 49.0384
L157.323 51.4852
L158.133 50.8046
L158.943 48.5177
L159.753 52.7153
L160.563 53.2844
L161.372 54.5356
L162.182 47.3353
L162.992 47.4887
L163.802 51.436
L164.612 46.5682
L165.421 46.3374
L166.231 47.8056
L167.041 56.4036
L167.851 53.5201
L168.661 49.721
L169.47 50.0169
L170.28 50.4156
L171.09 49.2657
L171.9 48.9949
L172.71 45.828
L173.519 45.6307
L174.329 54.4447
L175.139 46.5768
L175.949 45.3803
L176.758 45.0651
L177.568 46.9326
L178.378 51.4107
L179.188 48.0845
L179.998 57.0987
L180.807 60.9338
L181.617 54.5602
L182.427 56.8725
L183.237 57.651
L184.047 58.4401
L184.856 59.8618
L185.666 61.9043
L186.476 62.4566
L187.286 60.4641
L188.096 58.4082
L188.905 60.8604
L189.715 60.5241
L190.525 62.2057
L191.335 53.6823
L192.145 55.1234
L192.954 61.4496
L193.764 59.7889
L194.574 65.3558
L195.384 63.0906
L196.194 62.6934
L197.003 60.6713
L197.813 54.3885
L198.623 58.383
L199.433 55.1003
L200.243 56.8916
L201.052 59.0606
L201.862 58.7551
L202.672 55.0202
L203.482 48.9571
L204.292 48.3719
L205.101 48.4933
L205.911 53.69
L206.721 45.4947
L207.531 43.7153
L208.341 47.9659
L209.15 51.4978
L209.96 49.4424
L210.77 46.185
L211.58 42.7" style="fill:none;stroke:#0000ff;stroke-linecap:square;"/>
   </g>
   <g id="line2d_20">
    <path clip-path="url(#pc3139a5f78)" d="
M132.22 53.6425
L133.03 54.0206
L133.839 63.0309
L134.649 63.5339
L135.459 65.0406
L136.269 60.7015
L137.078 54.7356
L137.888 57.2305
L138.698 55.7059
L139.508 60.3825
L140.318 60.7954
L141.127 59.4324
L141.937 64.4091
L142.747 54.6985
L143.557 52.469
L144.367 56.8051
L145.176 60.2423
L145.986 58.3204
L146.796 59.0239
L147.606 53.5275
L148.416 49.445
L149.225 54.7656
L150.035 51.853
L150.845 51.8954
L151.655 48.8259
L152.465 46.9582
L153.274 53.9958
L154.084 50.8247
L154.894 47.7492
L155.704 51.9453
L156.514 46.6786
L157.323 48.3212
L158.133 48.5844
L158.943 49.638
L159.753 48.5679
L160.563 42.4248
L161.372 47.5716
L162.182 45.0508
L162.992 47.1946
L163.802 45.0358
L164.612 49.7579
L165.421 51.7587
L166.231 49.2462
L167.041 48.3651
L167.851 44.196
L168.661 40.5869
L169.47 38.0535
L170.28 39.718
L171.09 43.9514
L171.9 43.9542
L172.71 41.4101
L173.519 36.6722
L174.329 31.1479
L175.139 39.0663
L175.949 40.2867
L176.758 41.8449
L177.568 35.3982
L178.378 36.1597
L179.188 33.0635
L179.998 35.4465
L180.807 37.7887
L181.617 40.0104
L182.427 35.4764
L183.237 39.1415
L184.047 46.2259
L184.856 47.6202
L185.666 41.6414
L186.476 44.4054
L187.286 35.7551
L188.096 40.6535
L188.905 43.0249
L189.715 45.5755
L190.525 39.5553
L191.335 46.1689
L192.145 52.3888
L192.954 53.2165
L193.764 57.157
L194.574 51.4214
L195.384 49.0948
L196.194 49.9497
L197.003 48.0923
L197.813 49.9868
L198.623 39.779
L199.433 48.4651
L200.243 39.2817
L201.052 50.0287
L201.862 44.9764
L202.672 47.7256
L203.482 50.3963
L204.292 51.1022
L205.101 52.5565
L205.911 44.568
L206.721 53.8961
L207.531 43.5721
L208.341 46.3389
L209.15 51.4789
L209.96 49.89
L210.77 54.2092
L211.58 56.3272" style="fill:none;stroke:#008000;stroke-linecap:square;"/>
   </g>
   <g id="line2d_21">
    <path clip-path="url(#pc3139a5f78)" d="
M132.22 62.8906
L133.03 64.8492
L133.839 62.5799
L134.649 66.4222
L135.459 60.716
L136.269 57.3986
L137.078 63.5475
L137.888 62.9901
L138.698 67.6427
L139.508 75.9968
L140.318 69.1567
L141.127 69.0345
L141.937 65.1037
L142.747 67.1169
L143.557 63.7379
L144.367 62.9834
L145.176 61.6004
L145.986 71.6097
L146.796 66.0164
L147.606 71.8029
L148.416 74.5742
L149.225 66.8059
L150.035 75.4891
L150.845 74.6577
L151.655 77.4102
L152.465 68.7286
L153.274 68.231
L154.084 72.7716
L154.894 72.5984
L155.704 69.8063
L156.514 69.3743
L157.323 64.1901
L158.133 62.4884
L158.943 69.0059
L159.753 75.7568
L160.563 70.8317
L161.372 75.9609
L162.182 70.9082
L162.992 58.9768
L163.802 68.2496
L164.612 62.2303
L165.421 62.6329
L166.231 70.5359
L167.041 61.8086
L167.851 64.1842
L168.661 64.7829
L169.47 68.1931
L170.28 68.9959
L171.09 69.1794
L171.9 70.9759
L172.71 66.8121
L173.519 64.856
L174.329 65.6918
L175.139 66.7049
L175.949 72.6135
L176.758 72.7947
L177.568 72.2599
L178.378 77.8496
L179.188 79.2527
L179.998 77.2488
L180.807 77.9315
L181.617 76.0867
L182.427 72.1055
L183.237 77.555
L184.047 77.9559
L184.856 80.5492
L185.666 78.6242
L186.476 75.379
L187.286 78.3979
L188.096 74.448
L188.905 77.7822
L189.715 75.3662
L190.525 73.2311
L191.335 73.2043
L192.145 78.515
L192.954 75.219
L193.764 68.8947
L194.574 77.6422
L195.384 77.9053
L196.194 79.4986
L197.003 75.8304
L197.813 82.2935
L198.623 76.8986
L199.433 78.9192
L200.243 78.7547
L201.052 77.5197
L201.862 83.5588
L202.672 88.8293
L203.482 92.524
L204.292 85.722
L205.101 85.4184
L205.911 82.9275
L206.721 81.5843
L207.531 76.9733
L208.341 77.5512
L209.15 80.6081
L209.96 81.4129
L210.77 82.3567
L211.58 76.6995" style="fill:none;stroke:#ff0000;stroke-linecap:square;"/>
   </g>
   <g id="line2d_22">
    <path clip-path="url(#pc3139a5f78)" d="
M132.22 59.5869
L133.03 62.7814
L133.839 67.2874
L134.649 63.3824
L135.459 69.1431
L136.269 62.616
L137.078 68.0822
L137.888 65.1327
L138.698 62.233
L139.508 59.584
L140.318 70.7749
L141.127 72.0956
L141.937 70.7196
L142.747 72.3634
L143.557 73.4604
L144.367 66.8688
L145.176 64.2419
L145.986 64.0649
L146.796 64.6972
L147.606 60.7218
L148.416 65.2224
L149.225 65.6838
L150.035 64.2381
L150.845 66.8956
L151.655 69.1
L152.465 72.4362
L153.274 75.6743
L154.084 77.3569
L154.894 72.7074
L155.704 73.7289
L156.514 73.9206
L157.323 66.2665
L158.133 63.6981
L158.943 64.8792
L159.753 65.5686
L160.563 65.0914
L161.372 62.8426
L162.182 63.8278
L162.992 62.4381
L163.802 65.2064
L164.612 66.0593
L165.421 68.4862
L166.231 68.3818
L167.041 65.5376
L167.851 64.797
L168.661 65.527
L169.47 65.7996
L170.28 64.8391
L171.09 68.8932
L171.9 66.9308
L172.71 66.6144
L173.519 68.9764
L174.329 71.5705
L175.139 67.6615
L175.949 68.5774
L176.758 69.2854
L177.568 70.2698
L178.378 62.9961
L179.188 59.9416
L179.998 59.6146
L180.807 60.9903
L181.617 63.2592
L182.427 63.0044
L183.237 64.0472
L184.047 68.8661
L184.856 58.7765
L185.666 53.1533
L186.476 51.6254
L187.286 55.9225
L188.096 58.8312
L188.905 52.7084
L189.715 52.0729
L190.525 50.9666
L191.335 52.6111
L192.145 48.5261
L192.954 59.8275
L193.764 58.9575
L194.574 53.1446
L195.384 60.3887
L196.194 65.2698
L197.003 65.0704
L197.813 67.6828
L198.623 68.4421
L199.433 62.4523
L200.243 63.9058
L201.052 63.635
L201.862 67.9345
L202.672 63.4008
L203.482 68.1222
L204.292 64.442
L205.101 76.4872
L205.911 68.1916
L206.721 62.3439
L207.531 64.2912
L208.341 68.5122
L209.15 66.9071
L209.96 63.603
L210.77 57.8671
L211.58 59.627" style="fill:none;stroke:#00bfbf;stroke-linecap:square;"/>
   </g>
   <g id="matplotlib.axis_3">
    <g id="xtick_4">
     <g id="line2d_23">
      <g>
       <use style="stroke:#000000;stroke-width:0.5;" x="152.464617347" xlink:href="#m93b0483c22" y="99.94175"/>
      </g>
     </g>
     <g id="line2d_24">
      <g>
       <use style="stroke:#000000;stroke-width:0.5;" x="152.464617347" xlink:href="#m741efc42ff" y="23.14175"/>
      </g>
     </g>
     <g id="text_9">
      <text style="font-family:DejaVu Sans;font-size:12.0px;font-style:normal;text-anchor:middle;" transform="rotate(-0.000000, 152.464617, 113.059875)" x="152.464617347" y="113.059875">25</text>
     </g>
    </g>
    <g id="xtick_5">
     <g id="line2d_25">
      <g>
       <use style="stroke:#000000;stroke-width:0.5;" x="172.709515306" xlink:href="#m93b0483c22" y="99.94175"/>
      </g>
     </g>
     <g id="line2d_26">
      <g>
       <use style="stroke:#000000;stroke-width:0.5;" x="172.709515306" xlink:href="#m741efc42ff" y="23.14175"/>
      </g>
     </g>
     <g id="text_10">
      <text style="font-family:DejaVu Sans;font-size:12.0px;font-style:normal;text-anchor:middle;" transform="rotate(-0.000000, 172.709515, 113.059875)" x="172.709515306" y="113.059875">50</text>
     </g>
    </g>
    <g id="xtick_6">
     <g id="line2d_27">
      <g>
       <use style="stroke:#000000;stroke-width:0.5;" x="192.954413265" xlink:href="#m93b0483c22" y="99.94175"/>
      </g>
     </g>
     <g id="line2d_28">
      <g>
       <use style="stroke:#000000;stroke-width:0.5;" x="192.954413265" xlink:href="#m741efc42ff" y="23.14175"/>
      </g>
     </g>
     <g id="text_11">
      <text style="font-family:DejaVu Sans;font-size:12.0px;font-style:normal;text-anchor:middle;" transform="rotate(-0.000000, 192.954413, 113.059875)" x="192.954413265" y="113.059875">75</text>
     </g>
    </g>
   </g>
   <g id="matplotlib.axis_4">
    <g id="ytick_5">
     <g id="line2d_29">
      <g>
       <use style="stroke:#000000;stroke-width:0.5;" x="132.219719388" xlink:href="#m728421d6d4" y="94.4560357143"/>
      </g>
     </g>
     <g id="line2d_30">
      <g>
       <use style="stroke:#000000;stroke-width:0.5;" x="213.199311224" xlink:href="#mcb0005524f" y="94.4560357143"/>
      </g>
     </g>
     <g id="text_12">
      <text style="font-family:DejaVu Sans;font-size:12.0px;font-style:normal;text-anchor:end;" transform="rotate(-0.000000, 128.219719, 97.767286)" x="128.219719388" y="97.7672857143">−6</text>
     </g>
    </g>
    <g id="ytick_6">
     <g id="line2d_31">
      <g>
       <use style="stroke:#000000;stroke-width:0.5;" x="132.219719388" xlink:href="#m728421d6d4" y="77.9988928571"/>
      </g>
     </g>
     <g id="line2d_32">
      <g>
       <use style="stroke:#000000;stroke-width:0.5;" x="213.199311224" xlink:href="#mcb0005524f" y="77.9988928571"/>
      </g>
     </g>
     <g id="text_13">
      <text style="font-family:DejaVu Sans;font-size:12.0px;font-style:normal;text-anchor:end;" transform="rotate(-0.000000, 128.219719, 81.310143)" x="128.219719388" y="81.3101428571">−3</text>
     </g>
    </g>
    <g id="ytick_7">
     <g id="line2d_33">
      <g>
       <use style="stroke:#000000;stroke-width:0.5;" x="132.219719388" xlink:href="#m728421d6d4" y="61.54175"/>
      </g>
     </g>
     <g id="line2d_34">
      <g>
       <use style="stroke:#000000;stroke-width:0.5;" x="213.199311224" xlink:href="#mcb0005524f" y="61.54175"/>
      </g>
     </g>
     <g id="text_14">
      <text style="font-family:DejaVu Sans;font-size:12.0px;font-style:normal;text-anchor:end;" transform="rotate(-0.000000, 128.219719, 64.853000)" x="128.219719388" y="64.853">0</text>
     </g>
    </g>
    <g id="ytick_8">
     <g id="line2d_35">
      <g>
       <use style="stroke:#000000;stroke-width:0.5;" x="132.219719388" xlink:href="#m728421d6d4" y="45.0846071429"/>
      </g>
     </g>
     <g id="line2d_36">
      <g>
       <use style="stroke:#000000;stroke-width:0.5;" x="213.199311224" xlink:href="#mcb0005524f" y="45.0846071429"/>
      </g>
     </g>
     <g id="text_15">
      <text style="font-family:DejaVu Sans;font-size:12.0px;font-style:normal;text-anchor:end;" transform="rotate(-0.000000, 128.219719, 48.395857)" x="128.219719388" y="48.3958571429">3</text>
     </g>
    </g>
    <g id="ytick_9">
     <g id="line2d_37">
      <g>
       <use style="stroke:#000000;stroke-width:0.5;" x="132.219719388" xlink:href="#m728421d6d4" y="28.6274642857"/>
      </g>
     </g>
     <g id="line2d_38">
      <g>
       <use style="stroke:#000000;stroke-width:0.5;" x="213.199311224" xlink:href="#mcb0005524f" y="28.6274642857"/>
      </g>
     </g>
     <g id="text_16">
      <text style="font-family:DejaVu Sans;font-size:12.0px;font-style:normal;text-anchor:end;" transform="rotate(-0.000000, 128.219719, 31.938714)" x="128.219719388" y="31.9387142857">6</text>
     </g>
    </g>
   </g>
   <g id="patch_8">
    <path d="
M132.22 23.1418
L213.199 23.1418" style="fill:none;stroke:#000000;"/>
   </g>
   <g id="patch_9">
    <path d="
M213.199 99.9418
L213.199 23.1418" style="fill:none;stroke:#000000;"/>
   </g>
   <g id="patch_10">
    <path d="
M132.22 99.9418
L213.199 99.9418" style="fill:none;stroke:#000000;"/>
   </g>
   <g id="patch_11">
    <path d="
M132.22 99.9418
L132.22 23.1418" style="fill:none;stroke:#000000;"/>
   </g>
   <g id="text_17">
    <text style="font-family:DejaVu Sans;font-size:14.4px;font-style:normal;text-anchor:middle;" transform="rotate(-0.000000, 172.709515, 18.141750)" x="172.709515306" y="18.14175">H = 0.25</text>
   </g>
  </g>
  <g id="axes_3">
   <g id="patch_12">
    <path d="
M237.493 99.9418
L318.473 99.9418
L318.473 23.1418
L237.493 23.1418
z
" style="fill:#ffffff;"/>
   </g>
   <g id="line2d_39">
    <path clip-path="url(#p18034d37c2)" d="
M237.493 58.586
L238.303 54.8348
L239.113 57.3939
L239.923 57.7101
L240.732 59.2716
L241.542 60.4789
L242.352 59.1745
L243.162 58.8082
L243.972 59.8393
L244.781 61.0426
L245.591 60.2419
L246.401 59.3834
L247.211 61.2817
L248.021 56.3683
L248.83 55.6362
L249.64 54.4273
L250.45 54.075
L251.26 54.6689
L252.07 55.2228
L252.879 52.4421
L253.689 53.7472
L254.499 57.3389
L255.309 54.3302
L256.118 53.1196
L256.928 55.8505
L257.738 59.9102
L258.548 56.1221
L259.358 60.8596
L260.167 58.8842
L260.977 58.9359
L261.787 63.4922
L262.597 63.9154
L263.407 66.5753
L264.216 65.5256
L265.026 64.5888
L265.836 63.5239
L266.646 66.1597
L267.456 63.5609
L268.265 65.5158
L269.075 65.4106
L269.885 64.9161
L270.695 65.2205
L271.505 66.4081
L272.314 66.4219
L273.124 67.3845
L273.934 68.217
L274.744 67.5905
L275.554 71.4748
L276.363 72.7679
L277.173 73.9793
L277.983 74.7274
L278.793 76.1669
L279.603 74.5223
L280.412 73.3283
L281.222 69.3936
L282.032 72.0434
L282.842 73.7457
L283.652 73.5622
L284.461 71.7935
L285.271 70.5376
L286.081 71.5454
L286.891 72.8525
L287.701 71.1156
L288.51 68.6494
L289.32 69.6092
L290.13 69.5993
L290.94 69.6606
L291.75 65.0224
L292.559 64.4113
L293.369 64.4017
L294.179 64.0448
L294.989 64.6038
L295.798 65.8999
L296.608 63.5021
L297.418 64.3467
L298.228 62.1861
L299.038 62.1836
L299.847 60.1545
L300.657 58.9052
L301.467 61.3012
L302.277 63.0638
L303.087 63.1026
L303.896 61.9943
L304.706 58.5177
L305.516 59.9481
L306.326 58.8685
L307.136 56.5631
L307.945 57.5899
L308.755 59.1109
L309.565 55.6858
L310.375 55.611
L311.185 56.7958
L311.994 56.7133
L312.804 55.6482
L313.614 54.9515
L314.424 55.7753
L315.234 58.9121
L316.043 60.3981
L316.853 59.7984" style="fill:none;stroke:#0000ff;stroke-linecap:square;"/>
   </g>
   <g id="line2d_40">
    <path clip-path="url(#p18034d37c2)" d="
M237.493 59.2076
L238.303 58.4821
L239.113 58.3911
L239.923 58.379
L240.732 61.5879
L241.542 60.6972
L242.352 62.1583
L243.162 61.9121
L243.972 62.0947
L244.781 61.0711
L245.591 60.4775
L246.401 58.7061
L247.211 58.7097
L248.021 56.9698
L248.83 57.1628
L249.64 55.8812
L250.45 57.3814
L251.26 55.5074
L252.07 53.6639
L252.879 55.1831
L253.689 59.2052
L254.499 56.9056
L255.309 57.8847
L256.118 60.4006
L256.928 62.3792
L257.738 62.2591
L258.548 63.6563
L259.358 63.5643
L260.167 66.9655
L260.977 67.184
L261.787 64.6469
L262.597 63.7527
L263.407 65.5305
L264.216 68.2966
L265.026 66.709
L265.836 63.8586
L266.646 58.5484
L267.456 57.1929
L268.265 58.1701
L269.075 56.7974
L269.885 57.2822
L270.695 58.6255
L271.505 59.6621
L272.314 55.2191
L273.124 60.6537
L273.934 60.6256
L274.744 61.6804
L275.554 60.5669
L276.363 56.1746
L277.173 58.962
L277.983 61.0778
L278.793 61.853
L279.603 62.5399
L280.412 62.9295
L281.222 62.7082
L282.032 60.234
L282.842 59.7479
L283.652 58.475
L284.461 54.4476
L285.271 57.1036
L286.081 59.0406
L286.891 59.4647
L287.701 59.866
L288.51 57.7189
L289.32 56.144
L290.13 56.2976
L290.94 57.2799
L291.75 57.981
L292.559 57.2404
L293.369 54.2473
L294.179 52.2605
L294.989 52.6864
L295.798 51.6982
L296.608 51.5278
L297.418 52.3928
L298.228 50.7902
L299.038 49.9564
L299.847 53.3581
L300.657 55.3741
L301.467 55.3993
L302.277 55.7512
L303.087 58.8986
L303.896 57.7597
L304.706 62.5023
L305.516 60.0163
L306.326 63.5988
L307.136 59.2818
L307.945 60.3808
L308.755 62.0343
L309.565 63.4657
L310.375 66.0402
L311.185 61.768
L311.994 57.9591
L312.804 58.5268
L313.614 57.7566
L314.424 57.5824
L315.234 58.9748
L316.043 58.5975
L316.853 59.771" style="fill:none;stroke:#008000;stroke-linecap:square;"/>
   </g>
   <g id="line2d_41">
    <path clip-path="url(#p18034d37c2)" d="
M237.493 61.022
L238.303 62.1059
L239.113 61.9246
L239.923 59.5203
L240.732 59.6559
L241.542 61.7597
L242.352 60.7385
L243.162 59.462
L243.972 60.6369
L244.781 67.5893
L245.591 67.3154
L246.401 68.1897
L247.211 74.2739
L248.021 72.3918
L248.83 74.3383
L249.64 72.7273
L250.45 69.6323
L251.26 68.0683
L252.07 68.6454
L252.879 63.2929
L253.689 63.6014
L254.499 63.9418
L255.309 68.2004
L256.118 68.479
L256.928 66.1676
L257.738 66.2744
L258.548 65.8418
L259.358 62.4146
L260.167 60.483
L260.977 59.4776
L261.787 63.1415
L262.597 61.1134
L263.407 62.0131
L264.216 63.4408
L265.026 65.9106
L265.836 68.646
L266.646 68.2299
L267.456 64.8436
L268.265 61.7977
L269.075 63.4423
L269.885 58.7998
L270.695 59.7179
L271.505 63.2935
L272.314 62.3419
L273.124 61.3447
L273.934 61.7885
L274.744 62.4372
L275.554 64.637
L276.363 64.7766
L277.173 65.1567
L277.983 66.9677
L278.793 68.1752
L279.603 67.4245
L280.412 64.9084
L281.222 63.6102
L282.032 61.9674
L282.842 64.4265
L283.652 64.3633
L284.461 62.0988
L285.271 62.0381
L286.081 64.1515
L286.891 61.8625
L287.701 63.8306
L288.51 65.6923
L289.32 66.7069
L290.13 66.7977
L290.94 68.7383
L291.75 66.4985
L292.559 67.1713
L293.369 62.5864
L294.179 62.041
L294.989 61.0906
L295.798 57.8777
L296.608 55.8007
L297.418 56.5819
L298.228 58.4175
L299.038 57.8876
L299.847 56.8441
L300.657 59.2149
L301.467 59.5418
L302.277 61.4951
L303.087 61.0883
L303.896 60.6155
L304.706 55.7702
L305.516 61.8063
L306.326 65.1656
L307.136 64.8217
L307.945 66.1697
L308.755 62.7515
L309.565 68.5059
L310.375 67.9031
L311.185 70.575
L311.994 74.8299
L312.804 68.1844
L313.614 67.1762
L314.424 66.6611
L315.234 68.5082
L316.043 71.7661
L316.853 69.7858" style="fill:none;stroke:#ff0000;stroke-linecap:square;"/>
   </g>
   <g id="line2d_42">
    <path clip-path="url(#p18034d37c2)" d="
M237.493 61.1737
L238.303 65.9963
L239.113 65.8003
L239.923 66.23
L240.732 66.6584
L241.542 65.8365
L242.352 69.1481
L243.162 68.581
L243.972 68.5485
L244.781 69.6623
L245.591 67.5603
L246.401 70.3002
L247.211 71.6993
L248.021 71.917
L248.83 68.6236
L249.64 69.9568
L250.45 70.1428
L251.26 69.4731
L252.07 71.263
L252.879 70.0777
L253.689 72.2926
L254.499 73.5261
L255.309 73.1865
L256.118 73.2005
L256.928 71.8976
L257.738 72.7598
L258.548 75.0215
L259.358 71.5916
L260.167 70.7299
L260.977 67.5599
L261.787 67.9372
L262.597 65.8426
L263.407 65.9407
L264.216 62.6287
L265.026 62.1384
L265.836 63.5247
L266.646 62.3347
L267.456 62.605
L268.265 63.9472
L269.075 60.5097
L269.885 58.5726
L270.695 58.2427
L271.505 57.2031
L272.314 58.4437
L273.124 57.9832
L273.934 55.3697
L274.744 56.1884
L275.554 53.6591
L276.363 49.0749
L277.173 50.2841
L277.983 48.6982
L278.793 48.9838
L279.603 51.4445
L280.412 52.4661
L281.222 52.4689
L282.032 55.8997
L282.842 56.2795
L283.652 54.255
L284.461 52.9544
L285.271 49.7202
L286.081 51.723
L286.891 51.196
L287.701 49.6991
L288.51 50.2581
L289.32 52.7358
L290.13 49.7026
L290.94 49.6932
L291.75 47.9351
L292.559 47.8729
L293.369 48.4559
L294.179 46.2856
L294.989 47.3099
L295.798 52.6459
L296.608 55.4509
L297.418 55.8471
L298.228 58.076
L299.038 60.138
L299.847 61.1038
L300.657 62.0053
L301.467 63.5384
L302.277 64.1769
L303.087 64.203
L303.896 63.2827
L304.706 65.12
L305.516 64.2915
L306.326 66.694
L307.136 66.2829
L307.945 68.4389
L308.755 66.8586
L309.565 67.2039
L310.375 68.1017
L311.185 65.3912
L311.994 63.2756
L312.804 59.9321
L313.614 60.8265
L314.424 63.9251
L315.234 64.64
L316.043 66.3337
L316.853 69.4405" style="fill:none;stroke:#00bfbf;stroke-linecap:square;"/>
   </g>
   <g id="matplotlib.axis_5">
    <g id="xtick_7">
     <g id="line2d_43">
      <g>
       <use style="stroke:#000000;stroke-width:0.5;" x="257.738086735" xlink:href="#m93b0483c22" y="99.94175"/>
      </g>
     </g>
     <g id="line2d_44">
      <g>
       <use style="stroke:#000000;stroke-width:0.5;" x="257.738086735" xlink:href="#m741efc42ff" y="23.14175"/>
      </g>
     </g>
     <g id="text_18">
      <text style="font-family:DejaVu Sans;font-size:12.0px;font-style:normal;text-anchor:middle;" transform="rotate(-0.000000, 257.738087, 113.059875)" x="257.738086735" y="113.059875">25</text>
     </g>
    </g>
    <g id="xtick_8">
     <g id="line2d_45">
      <g>
       <use style="stroke:#000000;stroke-width:0.5;" x="277.982984694" xlink:href="#m93b0483c22" y="99.94175"/>
      </g>
     </g>
     <g id="line2d_46">
      <g>
       <use style="stroke:#000000;stroke-width:0.5;" x="277.982984694" xlink:href="#m741efc42ff" y="23.14175"/>
      </g>
     </g>
     <g id="text_19">
      <text style="font-family:DejaVu Sans;font-size:12.0px;font-style:normal;text-anchor:middle;" transform="rotate(-0.000000, 277.982985, 113.059875)" x="277.982984694" y="113.059875">50</text>
     </g>
    </g>
    <g id="xtick_9">
     <g id="line2d_47">
      <g>
       <use style="stroke:#000000;stroke-width:0.5;" x="298.227882653" xlink:href="#m93b0483c22" y="99.94175"/>
      </g>
     </g>
     <g id="line2d_48">
      <g>
       <use style="stroke:#000000;stroke-width:0.5;" x="298.227882653" xlink:href="#m741efc42ff" y="23.14175"/>
      </g>
     </g>
     <g id="text_20">
      <text style="font-family:DejaVu Sans;font-size:12.0px;font-style:normal;text-anchor:middle;" transform="rotate(-0.000000, 298.227883, 113.059875)" x="298.227882653" y="113.059875">75</text>
     </g>
    </g>
   </g>
   <g id="matplotlib.axis_6">
    <g id="ytick_10">
     <g id="line2d_49">
      <g>
       <use style="stroke:#000000;stroke-width:0.5;" x="237.493188776" xlink:href="#m728421d6d4" y="94.4560357143"/>
      </g>
     </g>
     <g id="line2d_50">
      <g>
       <use style="stroke:#000000;stroke-width:0.5;" x="318.472780612" xlink:href="#mcb0005524f" y="94.4560357143"/>
      </g>
     </g>
     <g id="text_21">
      <text style="font-family:DejaVu Sans;font-size:12.0px;font-style:normal;text-anchor:end;" transform="rotate(-0.000000, 233.493189, 97.767286)" x="233.493188776" y="97.7672857143">−6</text>
     </g>
    </g>
    <g id="ytick_11">
     <g id="line2d_51">
      <g>
       <use style="stroke:#000000;stroke-width:0.5;" x="237.493188776" xlink:href="#m728421d6d4" y="77.9988928571"/>
      </g>
     </g>
     <g id="line2d_52">
      <g>
       <use style="stroke:#000000;stroke-width:0.5;" x="318.472780612" xlink:href="#mcb0005524f" y="77.9988928571"/>
      </g>
     </g>
     <g id="text_22">
      <text style="font-family:DejaVu Sans;font-size:12.0px;font-style:normal;text-anchor:end;" transform="rotate(-0.000000, 233.493189, 81.310143)" x="233.493188776" y="81.3101428571">−3</text>
     </g>
    </g>
    <g id="ytick_12">
     <g id="line2d_53">
      <g>
       <use style="stroke:#000000;stroke-width:0.5;" x="237.493188776" xlink:href="#m728421d6d4" y="61.54175"/>
      </g>
     </g>
     <g id="line2d_54">
      <g>
       <use style="stroke:#000000;stroke-width:0.5;" x="318.472780612" xlink:href="#mcb0005524f" y="61.54175"/>
      </g>
     </g>
     <g id="text_23">
      <text style="font-family:DejaVu Sans;font-size:12.0px;font-style:normal;text-anchor:end;" transform="rotate(-0.000000, 233.493189, 64.853000)" x="233.493188776" y="64.853">0</text>
     </g>
    </g>
    <g id="ytick_13">
     <g id="line2d_55">
      <g>
       <use style="stroke:#000000;stroke-width:0.5;" x="237.493188776" xlink:href="#m728421d6d4" y="45.0846071429"/>
      </g>
     </g>
     <g id="line2d_56">
      <g>
       <use style="stroke:#000000;stroke-width:0.5;" x="318.472780612" xlink:href="#mcb0005524f" y="45.0846071429"/>
      </g>
     </g>
     <g id="text_24">
      <text style="font-family:DejaVu Sans;font-size:12.0px;font-style:normal;text-anchor:end;" transform="rotate(-0.000000, 233.493189, 48.395857)" x="233.493188776" y="48.3958571429">3</text>
     </g>
    </g>
    <g id="ytick_14">
     <g id="line2d_57">
      <g>
       <use style="stroke:#000000;stroke-width:0.5;" x="237.493188776" xlink:href="#m728421d6d4" y="28.6274642857"/>
      </g>
     </g>
     <g id="line2d_58">
      <g>
       <use style="stroke:#000000;stroke-width:0.5;" x="318.472780612" xlink:href="#mcb0005524f" y="28.6274642857"/>
      </g>
     </g>
     <g id="text_25">
      <text style="font-family:DejaVu Sans;font-size:12.0px;font-style:normal;text-anchor:end;" transform="rotate(-0.000000, 233.493189, 31.938714)" x="233.493188776" y="31.9387142857">6</text>
     </g>
    </g>
   </g>
   <g id="patch_13">
    <path d="
M237.493 23.1418
L318.473 23.1418" style="fill:none;stroke:#000000;"/>
   </g>
   <g id="patch_14">
    <path d="
M318.473 99.9418
L318.473 23.1418" style="fill:none;stroke:#000000;"/>
   </g>
   <g id="patch_15">
    <path d="
M237.493 99.9418
L318.473 99.9418" style="fill:none;stroke:#000000;"/>
   </g>
   <g id="patch_16">
    <path d="
M237.493 99.9418
L237.493 23.1418" style="fill:none;stroke:#000000;"/>
   </g>
   <g id="text_26">
    <text style="font-family:DejaVu Sans;font-size:14.4px;font-style:normal;text-anchor:middle;" transform="rotate(-0.000000, 277.982985, 18.141750)" x="277.982984694" y="18.14175">H = 0.50</text>
   </g>
  </g>
  <g id="axes_4">
   <g id="patch_17">
    <path d="
M342.767 99.9418
L423.746 99.9418
L423.746 23.1418
L342.767 23.1418
z
" style="fill:#ffffff;"/>
   </g>
   <g id="line2d_59">
    <path clip-path="url(#p5416710c68)" d="
M342.767 45.0332
L343.576 45.0212
L344.386 44.718
L345.196 44.2429
L346.006 43.882
L346.816 43.434
L347.625 43.1556
L348.435 42.8991
L349.245 42.7264
L350.055 42.8435
L350.865 42.8575
L351.674 42.5941
L352.484 42.3255
L353.294 42.348
L354.104 42.2864
L354.914 42.2096
L355.723 42.2052
L356.533 42.3295
L357.343 42.2746
L358.153 42.2417
L358.963 42.0478
L359.772 41.7021
L360.582 41.4048
L361.392 41.1369
L362.202 40.786
L363.012 40.5752
L363.821 40.3323
L364.631 40.4664
L365.441 40.5871
L366.251 40.6532
L367.061 40.9099
L367.87 40.8172
L368.68 40.6461
L369.49 40.4429
L370.3 39.9997
L371.11 39.5384
L371.919 39.2332
L372.729 38.8834
L373.539 38.6141
L374.349 38.6507
L375.158 38.515
L375.968 38.6094
L376.778 38.4597
L377.588 38.2833
L378.398 38.1228
L379.207 38.3463
L380.017 38.5157
L380.827 38.3451
L381.637 38.0915
L382.447 38.0946
L383.256 38.0245
L384.066 37.8629
L384.876 37.8167
L385.686 37.6061
L386.496 37.3834
L387.305 37.0935
L388.115 36.7494
L388.925 36.5413
L389.735 36.4363
L390.545 36.405
L391.354 36.3689
L392.164 36.0221
L392.974 35.6574
L393.784 35.5672
L394.594 35.525
L395.403 35.6083
L396.213 35.607
L397.023 35.418
L397.833 35.3062
L398.643 35.0084
L399.452 34.7479
L400.262 34.6858
L401.072 34.541
L401.882 34.6211
L402.692 34.4294
L403.501 34.216
L404.311 33.8872
L405.121 33.648
L405.931 33.4966
L406.741 33.5407
L407.55 33.6121
L408.36 33.7712
L409.17 33.8572
L409.98 33.6915
L410.79 33.5243
L411.599 33.2623
L412.409 32.932
L413.219 32.9578
L414.029 32.5916
L414.838 31.9635
L415.648 31.3933
L416.458 30.8956
L417.268 30.7207
L418.078 30.2532
L418.887 29.9842
L419.697 29.6391
L420.507 28.9238
L421.317 28.2729
L422.127 27.6222" style="fill:none;stroke:#0000ff;stroke-linecap:square;"/>
   </g>
   <g id="line2d_60">
    <path clip-path="url(#p5416710c68)" d="
M342.767 44.9258
L343.576 44.8043
L344.386 44.5525
L345.196 44.1675
L346.006 44.0251
L346.816 43.6998
L347.625 43.5039
L348.435 43.238
L349.245 42.6952
L350.055 42.2258
L350.865 41.9629
L351.674 41.5766
L352.484 41.0715
L353.294 40.5535
L354.104 40.033
L354.914 39.4569
L355.723 39.1555
L356.533 39.0579
L357.343 38.6007
L358.153 38.4421
L358.963 38.0232
L359.772 37.5938
L360.582 37.4791
L361.392 37.5541
L362.202 37.5166
L363.012 37.3399
L363.821 37.1415
L364.631 36.6227
L365.441 36.2114
L366.251 35.9568
L367.061 35.7654
L367.87 35.3719
L368.68 35.1424
L369.49 35.4042
L370.3 35.6072
L371.11 35.7928
L371.919 35.7657
L372.729 35.7901
L373.539 35.7798
L374.349 35.6555
L375.158 35.7862
L375.968 35.8564
L376.778 35.8662
L377.588 35.8178
L378.398 35.7639
L379.207 35.6702
L380.017 35.3769
L380.827 35.2658
L381.637 35.2366
L382.447 35.0873
L383.256 34.8297
L384.066 34.6569
L384.876 34.5501
L385.686 34.3943
L386.496 34.422
L387.305 34.5363
L388.115 34.3714
L388.925 34.1023
L389.735 33.8866
L390.545 33.7858
L391.354 33.6431
L392.164 33.5205
L392.974 33.5047
L393.784 33.1398
L394.594 32.6818
L395.403 32.2465
L396.213 31.7898
L397.023 31.3735
L397.833 31.2488
L398.643 31.0208
L399.452 31.0446
L400.262 31.2537
L401.072 31.3132
L401.882 31.3062
L402.692 31.0941
L403.501 30.976
L404.311 31.0584
L405.121 31.1364
L405.931 31.1756
L406.741 30.9025
L407.55 30.6466
L408.36 30.1809
L409.17 29.5951
L409.98 29.2254
L410.79 29.0364
L411.599 28.8591
L412.409 28.4181
L413.219 27.9439
L414.029 27.399
L414.838 26.8623
L415.648 26.3851
L416.458 26.1066
L417.268 25.8549
L418.078 25.5154
L418.887 25.4376
L419.697 25.1886
L420.507 24.7792
L421.317 24.1223
L422.127 23.7722" style="fill:none;stroke:#008000;stroke-linecap:square;"/>
   </g>
   <g id="line2d_61">
    <path clip-path="url(#p5416710c68)" d="
M342.767 45.1418
L343.576 45.471
L344.386 45.8935
L345.196 46.3429
L346.006 46.7471
L346.816 47.0184
L347.625 47.4144
L348.435 47.5843
L349.245 47.9926
L350.055 48.5436
L350.865 48.9028
L351.674 49.4309
L352.484 50.022
L353.294 50.3644
L354.104 50.8
L354.914 51.0077
L355.723 51.2632
L356.533 51.6987
L357.343 52.2876
L358.153 52.4865
L358.963 52.876
L359.772 53.3572
L360.582 53.6333
L361.392 54.0069
L362.202 54.3596
L363.012 54.7556
L363.821 55.4856
L364.631 56.245
L365.441 57.1371
L366.251 58.0649
L367.061 58.7869
L367.87 59.4692
L368.68 60.239
L369.49 60.9837
L370.3 61.4381
L371.11 61.8683
L371.919 62.4013
L372.729 62.8382
L373.539 63.6966
L374.349 64.3443
L375.158 64.8711
L375.968 65.4196
L376.778 65.9324
L377.588 66.3683
L378.398 66.9081
L379.207 67.3378
L380.017 67.8974
L380.827 68.5755
L381.637 69.2166
L382.447 69.581
L383.256 70.0734
L384.066 70.609
L384.876 71.1462
L385.686 71.642
L386.496 72.0269
L387.305 72.3719
L388.115 72.6807
L388.925 72.8487
L389.735 73.3281
L390.545 73.8992
L391.354 74.1413
L392.164 74.5816
L392.974 75.0916
L393.784 75.6828
L394.594 76.0903
L395.403 76.3463
L396.213 76.6569
L397.023 77.1643
L397.833 77.5922
L398.643 78.0191
L399.452 78.2328
L400.262 78.5403
L401.072 78.7662
L401.882 79.1671
L402.692 79.7228
L403.501 80.3163
L404.311 80.8639
L405.121 81.4829
L405.931 81.8639
L406.741 82.1666
L407.55 82.4791
L408.36 82.8547
L409.17 83.0494
L409.98 83.5267
L410.79 84.1327
L411.599 84.5746
L412.409 85.0823
L413.219 85.5375
L414.029 85.8764
L414.838 86.1737
L415.648 86.4794
L416.458 86.9916
L417.268 87.4963
L418.078 88.1955
L418.887 88.8511
L419.697 89.4231
L420.507 90.0806
L421.317 90.5198
L422.127 91.1649" style="fill:none;stroke:#ff0000;stroke-linecap:square;"/>
   </g>
   <g id="line2d_62">
    <path clip-path="url(#p5416710c68)" d="
M342.767 45.2449
L343.576 45.4716
L344.386 45.6971
L345.196 45.8654
L346.006 45.9442
L346.816 45.9933
L347.625 46.1878
L348.435 46.4164
L349.245 46.6227
L350.055 46.827
L350.865 46.9084
L351.674 46.9218
L352.484 47.2015
L353.294 47.1635
L354.104 47.4574
L354.914 47.4795
L355.723 47.7027
L356.533 48.078
L357.343 48.2953
L358.153 48.3978
L358.963 48.58
L359.772 48.9831
L360.582 49.636
L361.392 50.0542
L362.202 50.5173
L363.012 50.9741
L363.821 51.4591
L364.631 51.8142
L365.441 52.0701
L366.251 52.1844
L367.061 52.4185
L367.87 52.7812
L368.68 53.0595
L369.49 53.2215
L370.3 53.5727
L371.11 53.9587
L371.919 54.2292
L372.729 54.7337
L373.539 55.0342
L374.349 55.3199
L375.158 55.6474
L375.968 56.0301
L376.778 56.2765
L377.588 56.4359
L378.398 56.5325
L379.207 56.5778
L380.017 56.7513
L380.827 56.8699
L381.637 56.994
L382.447 57.1448
L383.256 57.2276
L384.066 57.4884
L384.876 57.6843
L385.686 57.6056
L386.496 57.7508
L387.305 58.0838
L388.115 58.3332
L388.925 58.9939
L389.735 59.5407
L390.545 59.7264
L391.354 60.0302
L392.164 60.3007
L392.974 60.6708
L393.784 61.201
L394.594 61.6676
L395.403 62.2489
L396.213 62.9413
L397.023 63.4643
L397.833 63.8608
L398.643 64.4231
L399.452 64.7002
L400.262 64.9746
L401.072 65.3415
L401.882 65.9685
L402.692 66.642
L403.501 67.1116
L404.311 67.5136
L405.121 67.7489
L405.931 67.9895
L406.741 68.1101
L407.55 68.2943
L408.36 68.4185
L409.17 68.6293
L409.98 68.9827
L410.79 69.0415
L411.599 69.3359
L412.409 69.627
L413.219 70.0595
L414.029 70.5053
L414.838 70.8909
L415.648 71.1911
L416.458 71.6017
L417.268 72.0683
L418.078 72.384
L418.887 72.8462
L419.697 73.6381
L420.507 74.0618
L421.317 74.1701
L422.127 74.3182" style="fill:none;stroke:#00bfbf;stroke-linecap:square;"/>
   </g>
   <g id="matplotlib.axis_7">
    <g id="xtick_10">
     <g id="line2d_63">
      <g>
       <use style="stroke:#000000;stroke-width:0.5;" x="363.011556122" xlink:href="#m93b0483c22" y="99.94175"/>
      </g>
     </g>
     <g id="line2d_64">
      <g>
       <use style="stroke:#000000;stroke-width:0.5;" x="363.011556122" xlink:href="#m741efc42ff" y="23.14175"/>
      </g>
     </g>
     <g id="text_27">
      <text style="font-family:DejaVu Sans;font-size:12.0px;font-style:normal;text-anchor:middle;" transform="rotate(-0.000000, 363.011556, 113.059875)" x="363.011556122" y="113.059875">25</text>
     </g>
    </g>
    <g id="xtick_11">
     <g id="line2d_65">
      <g>
       <use style="stroke:#000000;stroke-width:0.5;" x="383.256454082" xlink:href="#m93b0483c22" y="99.94175"/>
      </g>
     </g>
     <g id="line2d_66">
      <g>
       <use style="stroke:#000000;stroke-width:0.5;" x="383.256454082" xlink:href="#m741efc42ff" y="23.14175"/>
      </g>
     </g>
     <g id="text_28">
      <text style="font-family:DejaVu Sans;font-size:12.0px;font-style:normal;text-anchor:middle;" transform="rotate(-0.000000, 383.256454, 113.059875)" x="383.256454082" y="113.059875">50</text>
     </g>
    </g>
    <g id="xtick_12">
     <g id="line2d_67">
      <g>
       <use style="stroke:#000000;stroke-width:0.5;" x="403.501352041" xlink:href="#m93b0483c22" y="99.94175"/>
      </g>
     </g>
     <g id="line2d_68">
      <g>
       <use style="stroke:#000000;stroke-width:0.5;" x="403.501352041" xlink:href="#m741efc42ff" y="23.14175"/>
      </g>
     </g>
     <g id="text_29">
      <text style="font-family:DejaVu Sans;font-size:12.0px;font-style:normal;text-anchor:middle;" transform="rotate(-0.000000, 403.501352, 113.059875)" x="403.501352041" y="113.059875">75</text>
     </g>
    </g>
   </g>
   <g id="matplotlib.axis_8">
    <g id="ytick_15">
     <g id="line2d_69">
      <g>
       <use style="stroke:#000000;stroke-width:0.5;" x="342.766658163" xlink:href="#m728421d6d4" y="88.9703214286"/>
      </g>
     </g>
     <g id="line2d_70">
      <g>
       <use style="stroke:#000000;stroke-width:0.5;" x="423.74625" xlink:href="#mcb0005524f" y="88.9703214286"/>
      </g>
     </g>
     <g id="text_30">
      <text style="font-family:DejaVu Sans;font-size:12.0px;font-style:normal;text-anchor:end;" transform="rotate(-0.000000, 338.766658, 92.281571)" x="338.766658163" y="92.2815714286">−40</text>
     </g>
    </g>
    <g id="ytick_16">
     <g id="line2d_71">
      <g>
       <use style="stroke:#000000;stroke-width:0.5;" x="342.766658163" xlink:href="#m728421d6d4" y="67.0274642857"/>
      </g>
     </g>
     <g id="line2d_72">
      <g>
       <use style="stroke:#000000;stroke-width:0.5;" x="423.74625" xlink:href="#mcb0005524f" y="67.0274642857"/>
      </g>
     </g>
     <g id="text_31">
      <text style="font-family:DejaVu Sans;font-size:12.0px;font-style:normal;text-anchor:end;" transform="rotate(-0.000000, 338.766658, 70.338714)" x="338.766658163" y="70.3387142857">−20</text>
     </g>
    </g>
    <g id="ytick_17">
     <g id="line2d_73">
      <g>
       <use style="stroke:#000000;stroke-width:0.5;" x="342.766658163" xlink:href="#m728421d6d4" y="45.0846071429"/>
      </g>
     </g>
     <g id="line2d_74">
      <g>
       <use style="stroke:#000000;stroke-width:0.5;" x="423.74625" xlink:href="#mcb0005524f" y="45.0846071429"/>
      </g>
     </g>
     <g id="text_32">
      <text style="font-family:DejaVu Sans;font-size:12.0px;font-style:normal;text-anchor:end;" transform="rotate(-0.000000, 338.766658, 48.395857)" x="338.766658163" y="48.3958571429">0</text>
     </g>
    </g>
    <g id="ytick_18">
     <g id="line2d_75">
      <g>
       <use style="stroke:#000000;stroke-width:0.5;" x="342.766658163" xlink:href="#m728421d6d4" y="23.14175"/>
      </g>
     </g>
     <g id="line2d_76">
      <g>
       <use style="stroke:#000000;stroke-width:0.5;" x="423.74625" xlink:href="#mcb0005524f" y="23.14175"/>
      </g>
     </g>
     <g id="text_33">
      <text style="font-family:DejaVu Sans;font-size:12.0px;font-style:normal;text-anchor:end;" transform="rotate(-0.000000, 338.766658, 26.453000)" x="338.766658163" y="26.453">20</text>
     </g>
    </g>
   </g>
   <g id="patch_18">
    <path d="
M342.767 23.1418
L423.746 23.1418" style="fill:none;stroke:#000000;"/>
   </g>
   <g id="patch_19">
    <path d="
M423.746 99.9418
L423.746 23.1418" style="fill:none;stroke:#000000;"/>
   </g>
   <g id="patch_20">
    <path d="
M342.767 99.9418
L423.746 99.9418" style="fill:none;stroke:#000000;"/>
   </g>
   <g id="patch_21">
    <path d="
M342.767 99.9418
L342.767 23.1418" style="fill:none;stroke:#000000;"/>
   </g>
   <g id="text_34">
    <text style="font-family:DejaVu Sans;font-size:14.4px;font-style:normal;text-anchor:middle;" transform="rotate(-0.000000, 383.256454, 18.141750)" x="383.256454082" y="18.14175">H = 1.00</text>
   </g>
  </g>
  <g id="text_35">
   <text style="font-family:DejaVu Sans;font-size:12.0px;font-style:normal;text-anchor:middle;" transform="rotate(-0.000000, 218.946250, 122.453000)" x="218.94625" y="122.453">n</text>
  </g>
 </g>
 <defs>
  <clipPath id="p18034d37c2">
   <rect height="76.8" width="80.9795918367" x="237.493188776" y="23.14175"/>
  </clipPath>
  <clipPath id="p5416710c68">
   <rect height="76.8" width="80.9795918367" x="342.766658163" y="23.14175"/>
  </clipPath>
  <clipPath id="pc3139a5f78">
   <rect height="76.8" width="80.9795918367" x="132.219719388" y="23.14175"/>
  </clipPath>
  <clipPath id="p557ccd66b1">
   <rect height="76.8" width="80.9795918367" x="26.94625" y="23.14175"/>
  </clipPath>
 </defs>
</svg>
